<svg width="403" height="271" viewBox="0 0 403 271" fill="none" xmlns="http://www.w3.org/2000/svg">
<path d="M108.09 386H-5.78003V20.91L108.09 0.170044V386Z" fill="#E377B1"/>
<path d="M219.22 386H108.09V0.170044L219.22 12.7V386Z" fill="#9074E6"/>
<path d="M206.495 19.1877L202.918 18.8835L202.177 27.5921L205.754 27.8963L206.495 19.1877Z" fill="#E377B1" stroke="#9074E6"/>
<path d="M211.363 19.5988L207.785 19.2947L207.045 28.0033L210.622 28.3074L211.363 19.5988Z" fill="#E377B1" stroke="#9074E6"/>
<path d="M199.327 18.2881L196.167 18.0353L195.468 26.7753L198.628 27.0281L199.327 18.2881Z" fill="#E377B1" stroke="#9074E6" stroke-width="0.943003"/>
<path d="M203.647 18.6421L200.487 18.3893L199.788 27.1293L202.948 27.3821L203.647 18.6421Z" fill="#E377B1" stroke="#9074E6" stroke-width="0.943003"/>
<path d="M190.764 17.6057L187.604 17.3529L186.905 26.0929L190.065 26.3457L190.764 17.6057Z" fill="#E377B1" stroke="#9074E6" stroke-width="0.943003"/>
<path d="M195.086 17.9496L191.926 17.6968L191.226 26.4368L194.386 26.6896L195.086 17.9496Z" fill="#E377B1" stroke="#9074E6" stroke-width="0.943003"/>
<path d="M179.861 16.9297L176.713 16.662L175.972 25.3706L179.121 25.6383L179.861 16.9297Z" fill="#E377B1" stroke="#9074E6" stroke-width="0.94"/>
<path d="M184.154 17.2918L181.006 17.024L180.265 25.7326L183.414 26.0003L184.154 17.2918Z" fill="#E377B1" stroke="#9074E6" stroke-width="0.94"/>
<path d="M170.622 16.1497L167.045 15.8456L166.305 24.5541L169.882 24.8583L170.622 16.1497Z" fill="#E377B1" stroke="#9074E6"/>
<path d="M175.49 16.5509L171.913 16.2467L171.172 24.9553L174.749 25.2594L175.49 16.5509Z" fill="#E377B1" stroke="#9074E6"/>
<path d="M163.321 15.3984L160.161 15.1456L159.462 23.8856L162.622 24.1384L163.321 15.3984Z" fill="#E377B1" stroke="#9074E6" stroke-width="0.943003"/>
<path d="M165.912 15.7421L162.763 15.4744L162.023 24.1829L165.172 24.4507L165.912 15.7421Z" fill="#E377B1" stroke="#9074E6" stroke-width="0.94"/>
<path d="M153.081 14.6491L149.932 14.3813L149.192 23.0899L152.34 23.3576L153.081 14.6491Z" fill="#E377B1" stroke="#9074E6" stroke-width="0.94"/>
<path d="M157.384 15.022L154.235 14.7543L153.495 23.4628L156.643 23.7306L157.384 15.022Z" fill="#E377B1" stroke="#9074E6" stroke-width="0.94"/>
<path d="M143.999 13.8817L140.85 13.614L140.109 22.3226L143.258 22.5903L143.999 13.8817Z" fill="#E377B1" stroke="#9074E6" stroke-width="0.94"/>
<path d="M148.283 14.2439L145.134 13.9762L144.394 22.6848L147.542 22.9525L148.283 14.2439Z" fill="#E377B1" stroke="#9074E6" stroke-width="0.94"/>
<path d="M136.751 13.2616L133.591 13.0088L132.892 21.7488L136.052 22.0016L136.751 13.2616Z" fill="#E377B1" stroke="#9074E6" stroke-width="0.943003"/>
<path d="M141.062 13.6049L137.902 13.3521L137.203 22.092L140.363 22.3448L141.062 13.6049Z" fill="#E377B1" stroke="#9074E6" stroke-width="0.943003"/>
<path d="M213.253 19.3912L124.473 12.2888L123.774 21.0288L212.554 28.1312L213.253 19.3912Z" fill="#E377B1" stroke="#9074E6" stroke-width="4.98588"/>
<path d="M130.346 12.7194L127.197 12.4517L126.457 21.1602L129.605 21.428L130.346 12.7194Z" fill="#E377B1" stroke="#9074E6" stroke-width="0.94"/>
<path d="M206.493 32.191L202.916 31.8868L202.176 40.5954L205.753 40.8996L206.493 32.191Z" fill="#E377B1" stroke="#9074E6"/>
<path d="M211.361 32.6021L207.784 32.298L207.044 41.0066L210.621 41.3107L211.361 32.6021Z" fill="#E377B1" stroke="#9074E6"/>
<path d="M199.397 31.328L196.237 31.0752L195.538 39.8152L198.698 40.068L199.397 31.328Z" fill="#E377B1" stroke="#9074E6" stroke-width="0.943003"/>
<path d="M203.707 31.682L200.547 31.4292L199.848 40.1692L203.008 40.422L203.707 31.682Z" fill="#E377B1" stroke="#9074E6" stroke-width="0.943003"/>
<path d="M190.824 30.6556L187.664 30.4028L186.965 39.1428L190.125 39.3956L190.824 30.6556Z" fill="#E377B1" stroke="#9074E6" stroke-width="0.943003"/>
<path d="M195.146 30.9896L191.986 30.7368L191.286 39.4768L194.446 39.7296L195.146 30.9896Z" fill="#E377B1" stroke="#9074E6" stroke-width="0.943003"/>
<path d="M179.87 29.923L176.721 29.6553L175.981 38.3639L179.129 38.6316L179.87 29.923Z" fill="#E377B1" stroke="#9074E6" stroke-width="0.94"/>
<path d="M184.153 30.2951L181.004 30.0273L180.264 38.7359L183.413 39.0036L184.153 30.2951Z" fill="#E377B1" stroke="#9074E6" stroke-width="0.94"/>
<path d="M168.562 28.7366L164.98 28.4943L164.39 37.2143L167.972 37.4566L168.562 28.7366Z" fill="#E377B1" stroke="#9074E6"/>
<path d="M175.499 29.5541L171.921 29.25L171.181 37.9586L174.758 38.2627L175.499 29.5541Z" fill="#E377B1" stroke="#9074E6"/>
<path d="M159.543 28.129L156.39 27.9158L155.8 36.6358L158.953 36.8491L159.543 28.129Z" fill="#E377B1" stroke="#9074E6" stroke-width="0.94"/>
<path d="M163.629 29.4086L160.469 29.1874L159.857 37.9274L163.017 38.1486L163.629 29.4086Z" fill="#E377B1" stroke="#9074E6" stroke-width="0.9423"/>
<path d="M151.001 27.5441L147.848 27.3308L147.259 36.0509L150.411 36.2642L151.001 27.5441Z" fill="#E377B1" stroke="#9074E6" stroke-width="0.94"/>
<path d="M155.07 28.8008L151.91 28.5796L151.298 37.3196L154.458 37.5408L155.07 28.8008Z" fill="#E377B1" stroke="#9074E6" stroke-width="0.9423"/>
<path d="M141.623 27.8621L138.463 27.6409L137.851 36.3809L141.011 36.6021L141.623 27.8621Z" fill="#E377B1" stroke="#9074E6" stroke-width="0.9423"/>
<path d="M146.184 27.2201L143.032 27.0068L142.442 35.7269L145.595 35.9402L146.184 27.2201Z" fill="#E377B1" stroke="#9074E6" stroke-width="0.94"/>
<path d="M133.034 26.3346L129.881 26.1213L129.291 34.8414L132.444 35.0547L133.034 26.3346Z" fill="#E377B1" stroke="#9074E6" stroke-width="0.94"/>
<path d="M183.524 29.7515L134.186 26.4139L133.597 35.134L182.934 38.4715L183.524 29.7515Z" fill="#E377B1" stroke="#9074E6" stroke-width="3.71"/>
<path d="M123.926 25.7212L120.774 25.5079L120.184 34.228L123.337 34.4413L123.926 25.7212Z" fill="#E377B1" stroke="#9074E6" stroke-width="0.94"/>
<path d="M127.938 26.9059L124.778 26.6847L124.166 35.4247L127.326 35.6459L127.938 26.9059Z" fill="#E377B1" stroke="#9074E6" stroke-width="0.9423"/>
<path d="M205.715 46.7646L202.125 46.5133L201.513 55.2533L205.103 55.5046L205.715 46.7646Z" fill="#E377B1" stroke="#9074E6" stroke-width="1.00245"/>
<path d="M210.602 47.1063L207.012 46.855L206.4 55.595L209.99 55.8463L210.602 47.1063Z" fill="#E377B1" stroke="#9074E6" stroke-width="1.00245"/>
<path d="M197.046 44.8906L193.894 44.6796L193.31 53.4001L196.463 53.6111L197.046 44.8906Z" fill="#E377B1" stroke="#9074E6" stroke-width="0.94"/>
<path d="M201.348 45.1773L198.195 44.9662L197.611 53.6867L200.764 53.8977L201.348 45.1773Z" fill="#E377B1" stroke="#9074E6" stroke-width="0.94"/>
<path d="M188.504 44.3216L185.351 44.1105L184.767 52.8309L187.92 53.042L188.504 44.3216Z" fill="#E377B1" stroke="#9074E6" stroke-width="0.94"/>
<path d="M192.805 44.608L189.652 44.397L189.068 53.1175L192.221 53.3286L192.805 44.608Z" fill="#E377B1" stroke="#9074E6" stroke-width="0.94"/>
<path d="M179.395 43.7044L176.242 43.4933L175.658 52.2138L178.811 52.4248L179.395 43.7044Z" fill="#E377B1" stroke="#9074E6" stroke-width="0.94"/>
<path d="M183.696 44.001L180.543 43.7899L179.959 52.5104L183.112 52.7215L183.696 44.001Z" fill="#E377B1" stroke="#9074E6" stroke-width="0.94"/>
<path d="M170.148 43.0879L166.566 42.8481L165.982 51.5686L169.564 51.8084L170.148 43.0879Z" fill="#E377B1" stroke="#9074E6"/>
<path d="M174.61 44.5919L171.02 44.3406L170.408 53.0806L173.998 53.3319L174.61 44.5919Z" fill="#E377B1" stroke="#9074E6" stroke-width="1.00245"/>
<path d="M161.127 42.4867L157.974 42.2756L157.39 50.9961L160.543 51.2072L161.127 42.4867Z" fill="#E377B1" stroke="#9074E6" stroke-width="0.94"/>
<path d="M165.428 42.7733L162.275 42.5623L161.691 51.2827L164.844 51.4938L165.428 42.7733Z" fill="#E377B1" stroke="#9074E6" stroke-width="0.94"/>
<path d="M152.584 41.9175L149.431 41.7064L148.847 50.4269L152 50.638L152.584 41.9175Z" fill="#E377B1" stroke="#9074E6" stroke-width="0.94"/>
<path d="M156.885 42.2041L153.732 41.993L153.149 50.7135L156.301 50.9246L156.885 42.2041Z" fill="#E377B1" stroke="#9074E6" stroke-width="0.94"/>
<path d="M143.475 41.3104L140.322 41.0994L139.739 49.8198L142.891 50.0309L143.475 41.3104Z" fill="#E377B1" stroke="#9074E6" stroke-width="0.94"/>
<path d="M147.306 42.6743L144.146 42.4531L143.535 51.1931L146.695 51.4143L147.306 42.6743Z" fill="#E377B1" stroke="#9074E6" stroke-width="0.9423"/>
<path d="M134.624 40.7206L131.471 40.5095L130.888 49.23L134.041 49.4411L134.624 40.7206Z" fill="#E377B1" stroke="#9074E6" stroke-width="0.94"/>
<path d="M138.926 40.9972L135.773 40.7861L135.189 49.5066L138.342 49.7177L138.926 40.9972Z" fill="#E377B1" stroke="#9074E6" stroke-width="0.94"/>
<path d="M200.331 45.1108L122.366 39.8914L121.782 48.6119L199.747 53.8313L200.331 45.1108Z" fill="#E377B1" stroke="#9074E6" stroke-width="4.67"/>
<path d="M129.817 40.39L126.664 40.179L126.081 48.8994L129.233 49.1105L129.817 40.39Z" fill="#E377B1" stroke="#9074E6" stroke-width="0.94"/>
<path d="M205.935 61.7935L202.345 61.5422L201.733 70.2823L205.323 70.5336L205.935 61.7935Z" fill="#E377B1" stroke="#9074E6" stroke-width="1.00245"/>
<path d="M210.822 62.1451L207.232 61.8938L206.62 70.6338L210.21 70.8851L210.822 62.1451Z" fill="#E377B1" stroke="#9074E6" stroke-width="1.00245"/>
<path d="M197.324 59.8859L194.171 59.6748L193.587 68.3953L196.74 68.6064L197.324 59.8859Z" fill="#E377B1" stroke="#9074E6" stroke-width="0.94"/>
<path d="M201.615 60.1818L198.462 59.9707L197.878 68.6912L201.031 68.9023L201.615 60.1818Z" fill="#E377B1" stroke="#9074E6" stroke-width="0.94"/>
<path d="M188.771 59.3161L185.618 59.105L185.034 67.8255L188.187 68.0365L188.771 59.3161Z" fill="#E377B1" stroke="#9074E6" stroke-width="0.94"/>
<path d="M193.072 59.6027L189.919 59.3916L189.335 68.1121L192.488 68.3232L193.072 59.6027Z" fill="#E377B1" stroke="#9074E6" stroke-width="0.94"/>
<path d="M179.662 58.7089L176.509 58.4978L175.925 67.2183L179.078 67.4293L179.662 58.7089Z" fill="#E377B1" stroke="#9074E6" stroke-width="0.94"/>
<path d="M183.963 58.9955L180.81 58.7844L180.227 67.5049L183.379 67.716L183.963 58.9955Z" fill="#E377B1" stroke="#9074E6" stroke-width="0.94"/>
<path d="M169.943 59.2791L166.353 59.0278L165.741 67.7679L169.331 68.0192L169.943 59.2791Z" fill="#E377B1" stroke="#9074E6" stroke-width="1.00245"/>
<path d="M174.83 59.6108L171.24 59.3595L170.629 68.0995L174.219 68.3508L174.83 59.6108Z" fill="#E377B1" stroke="#9074E6" stroke-width="1.00245"/>
<path d="M161.404 57.492L158.252 57.2809L157.668 66.0014L160.821 66.2124L161.404 57.492Z" fill="#E377B1" stroke="#9074E6" stroke-width="0.94"/>
<path d="M165.696 57.7778L162.543 57.5668L161.959 66.2872L165.112 66.4983L165.696 57.7778Z" fill="#E377B1" stroke="#9074E6" stroke-width="0.94"/>
<path d="M152.852 56.9121L149.699 56.701L149.115 65.4216L152.268 65.6326L152.852 56.9121Z" fill="#E377B1" stroke="#9074E6" stroke-width="0.94"/>
<path d="M157.153 57.1986L154 56.9875L153.417 65.708L156.569 65.9191L157.153 57.1986Z" fill="#E377B1" stroke="#9074E6" stroke-width="0.94"/>
<path d="M143.743 56.3049L140.59 56.0939L140.006 64.8143L143.159 65.0254L143.743 56.3049Z" fill="#E377B1" stroke="#9074E6" stroke-width="0.94"/>
<path d="M148.044 56.5916L144.891 56.3805L144.308 65.101L147.461 65.312L148.044 56.5916Z" fill="#E377B1" stroke="#9074E6" stroke-width="0.94"/>
<path d="M210.241 62.0994L131.191 56.5659L130.579 65.3059L209.629 70.8394L210.241 62.0994Z" fill="#E377B1" stroke="#9074E6" stroke-width="4.70148"/>
<path d="M139.194 55.9917L136.041 55.7806L135.457 64.5011L138.61 64.7122L139.194 55.9917Z" fill="#E377B1" stroke="#9074E6" stroke-width="0.94"/>
<path d="M125.784 55.098L122.631 54.887L122.047 63.6074L125.2 63.8185L125.784 55.098Z" fill="#E377B1" stroke="#9074E6" stroke-width="0.94"/>
<path d="M130.085 55.3845L126.932 55.1735L126.348 63.894L129.501 64.105L130.085 55.3845Z" fill="#E377B1" stroke="#9074E6" stroke-width="0.94"/>
<path d="M206.165 76.8331L202.575 76.5818L201.963 85.3218L205.553 85.5731L206.165 76.8331Z" fill="#E377B1" stroke="#9074E6" stroke-width="1.00245"/>
<path d="M211.499 75.8268L207.917 75.587L207.333 84.3075L210.915 84.5473L211.499 75.8268Z" fill="#E377B1" stroke="#9074E6"/>
<path d="M197.591 74.8904L194.438 74.6793L193.855 83.3998L197.008 83.6109L197.591 74.8904Z" fill="#E377B1" stroke="#9074E6" stroke-width="0.94"/>
<path d="M201.882 75.1763L198.729 74.9652L198.146 83.6857L201.299 83.8968L201.882 75.1763Z" fill="#E377B1" stroke="#9074E6" stroke-width="0.94"/>
<path d="M205.127 76.7617L185.407 75.3813L184.796 84.1213L204.516 85.5017L205.127 76.7617Z" fill="#E377B1" stroke="#9074E6" stroke-width="2.34573"/>
<path d="M193.35 74.6072L190.197 74.3961L189.613 83.1166L192.766 83.3277L193.35 74.6072Z" fill="#E377B1" stroke="#9074E6" stroke-width="0.94"/>
<path d="M179.94 73.7034L176.787 73.4923L176.203 82.2128L179.356 82.4239L179.94 73.7034Z" fill="#E377B1" stroke="#9074E6" stroke-width="0.94"/>
<path d="M184.231 74L181.078 73.7889L180.494 82.5094L183.647 82.7205L184.231 74Z" fill="#E377B1" stroke="#9074E6" stroke-width="0.94"/>
<path d="M170.173 74.2988L166.583 74.0475L165.972 82.7875L169.562 83.0388L170.173 74.2988Z" fill="#E377B1" stroke="#9074E6" stroke-width="1.00245"/>
<path d="M175.57 73.4129L171.988 73.1731L171.404 81.8936L174.986 82.1334L175.57 73.4129Z" fill="#E377B1" stroke="#9074E6"/>
<path d="M161.672 72.4865L158.519 72.2754L157.935 80.9959L161.088 81.2069L161.672 72.4865Z" fill="#E377B1" stroke="#9074E6" stroke-width="0.94"/>
<path d="M165.974 72.7631L162.821 72.552L162.237 81.2725L165.39 81.4836L165.974 72.7631Z" fill="#E377B1" stroke="#9074E6" stroke-width="0.94"/>
<path d="M179.203 73.6588L149.968 71.7017L149.384 80.4221L178.619 82.3793L179.203 73.6588Z" fill="#E377B1" stroke="#9074E6" stroke-width="2.86"/>
<path d="M157.421 72.1933L154.268 71.9822L153.684 80.7027L156.837 80.9138L157.421 72.1933Z" fill="#E377B1" stroke="#9074E6" stroke-width="0.94"/>
<path d="M144.011 71.2995L140.858 71.0884L140.274 79.8089L143.427 80.02L144.011 71.2995Z" fill="#E377B1" stroke="#9074E6" stroke-width="0.94"/>
<path d="M148.312 71.5861L145.159 71.375L144.575 80.0955L147.728 80.3065L148.312 71.5861Z" fill="#E377B1" stroke="#9074E6" stroke-width="0.94"/>
<path d="M135.17 70.7096L132.017 70.4985L131.433 79.219L134.586 79.4301L135.17 70.7096Z" fill="#E377B1" stroke="#9074E6" stroke-width="0.94"/>
<path d="M139.461 70.9962L136.308 70.7852L135.724 79.5056L138.877 79.7167L139.461 70.9962Z" fill="#E377B1" stroke="#9074E6" stroke-width="0.94"/>
<path d="M126.051 70.0925L122.898 69.8815L122.314 78.6019L125.467 78.813L126.051 70.0925Z" fill="#E377B1" stroke="#9074E6" stroke-width="0.94"/>
<path d="M130.352 70.3891L127.199 70.178L126.615 78.8985L129.768 79.1096L130.352 70.3891Z" fill="#E377B1" stroke="#9074E6" stroke-width="0.94"/>
<path d="M206.82 87.4888L203.238 87.249L202.654 95.9695L206.236 96.2093L206.82 87.4888Z" fill="#E377B1" stroke="#9074E6"/>
<path d="M211.708 87.8141L208.126 87.5743L207.542 96.2948L211.124 96.5346L211.708 87.8141Z" fill="#E377B1" stroke="#9074E6"/>
<path d="M197.809 86.8876L194.656 86.6765L194.073 95.397L197.226 95.6081L197.809 86.8876Z" fill="#E377B1" stroke="#9074E6" stroke-width="0.94"/>
<path d="M202.1 87.1742L198.947 86.9631L198.364 95.6836L201.517 95.8947L202.1 87.1742Z" fill="#E377B1" stroke="#9074E6" stroke-width="0.94"/>
<path d="M189.267 86.3185L186.114 86.1074L185.53 94.8279L188.683 95.039L189.267 86.3185Z" fill="#E377B1" stroke="#9074E6" stroke-width="0.94"/>
<path d="M193.568 86.5951L190.415 86.384L189.831 95.1045L192.984 95.3156L193.568 86.5951Z" fill="#E377B1" stroke="#9074E6" stroke-width="0.94"/>
<path d="M180.158 85.7113L177.005 85.5002L176.421 94.2207L179.574 94.4318L180.158 85.7113Z" fill="#E377B1" stroke="#9074E6" stroke-width="0.94"/>
<path d="M184.459 85.9879L181.306 85.7769L180.723 94.4973L183.875 94.7084L184.459 85.9879Z" fill="#E377B1" stroke="#9074E6" stroke-width="0.94"/>
<path d="M170.343 86.3335L166.753 86.0822L166.142 94.8221L169.732 95.0734L170.343 86.3335Z" fill="#E377B1" stroke="#9074E6" stroke-width="1.00245"/>
<path d="M175.788 85.4101L172.206 85.1703L171.622 93.8908L175.204 94.1306L175.788 85.4101Z" fill="#E377B1" stroke="#9074E6"/>
<path d="M161.891 84.4736L158.738 84.2626L158.154 92.9831L161.307 93.1942L161.891 84.4736Z" fill="#E377B1" stroke="#9074E6" stroke-width="0.94"/>
<path d="M166.182 84.7703L163.029 84.5592L162.445 93.2797L165.598 93.4908L166.182 84.7703Z" fill="#E377B1" stroke="#9074E6" stroke-width="0.94"/>
<path d="M153.348 83.9046L150.195 83.6935L149.611 92.414L152.764 92.625L153.348 83.9046Z" fill="#E377B1" stroke="#9074E6" stroke-width="0.94"/>
<path d="M157.649 84.2011L154.496 83.99L153.912 92.7105L157.065 92.9216L157.649 84.2011Z" fill="#E377B1" stroke="#9074E6" stroke-width="0.94"/>
<path d="M193.568 86.6027L141.086 83.0892L140.502 91.8097L192.984 95.3232L193.568 86.6027Z" fill="#E377B1" stroke="#9074E6" stroke-width="3.83"/>
<path d="M148.54 83.584L145.387 83.3729L144.803 92.0934L147.956 92.3045L148.54 83.584Z" fill="#E377B1" stroke="#9074E6" stroke-width="0.94"/>
<path d="M135.388 82.7075L132.235 82.4965L131.651 91.2169L134.804 91.428L135.388 82.7075Z" fill="#E377B1" stroke="#9074E6" stroke-width="0.94"/>
<path d="M139.689 82.9942L136.536 82.7831L135.952 91.5036L139.105 91.7146L139.689 82.9942Z" fill="#E377B1" stroke="#9074E6" stroke-width="0.94"/>
<path d="M126.279 82.1005L123.126 81.8894L122.542 90.6099L125.695 90.821L126.279 82.1005Z" fill="#E377B1" stroke="#9074E6" stroke-width="0.94"/>
<path d="M130.58 82.387L127.427 82.1759L126.843 90.8964L129.996 91.1075L130.58 82.387Z" fill="#E377B1" stroke="#9074E6" stroke-width="0.94"/>
<path d="M206.085 103.893L202.495 103.642L201.883 112.382L205.473 112.633L206.085 103.893Z" fill="#E377B1" stroke="#9074E6" stroke-width="1.00245"/>
<path d="M211.495 102.827L207.913 102.587L207.33 111.307L210.912 111.547L211.495 102.827Z" fill="#E377B1" stroke="#9074E6"/>
<path d="M197.598 101.89L194.445 101.679L193.861 110.4L197.014 110.611L197.598 101.89Z" fill="#E377B1" stroke="#9074E6" stroke-width="0.94"/>
<path d="M201.889 102.176L198.736 101.965L198.152 110.685L201.305 110.897L201.889 102.176Z" fill="#E377B1" stroke="#9074E6" stroke-width="0.94"/>
<path d="M189.045 101.32L185.892 101.109L185.308 109.83L188.461 110.041L189.045 101.32Z" fill="#E377B1" stroke="#9074E6" stroke-width="0.94"/>
<path d="M193.346 101.607L190.193 101.396L189.609 110.116L192.762 110.327L193.346 101.607Z" fill="#E377B1" stroke="#9074E6" stroke-width="0.94"/>
<path d="M179.936 100.703L176.783 100.492L176.199 109.213L179.352 109.424L179.936 100.703Z" fill="#E377B1" stroke="#9074E6" stroke-width="0.94"/>
<path d="M184.237 101L181.084 100.789L180.5 109.509L183.653 109.72L184.237 101Z" fill="#E377B1" stroke="#9074E6" stroke-width="0.94"/>
<path d="M170.093 101.359L166.503 101.107L165.892 109.847L169.482 110.099L170.093 101.359Z" fill="#E377B1" stroke="#9074E6" stroke-width="1.00245"/>
<path d="M175.577 100.413L171.995 100.173L171.411 108.893L174.993 109.133L175.577 100.413Z" fill="#E377B1" stroke="#9074E6"/>
<path d="M161.678 99.4861L158.526 99.275L157.942 107.995L161.095 108.207L161.678 99.4861Z" fill="#E377B1" stroke="#9074E6" stroke-width="0.94"/>
<path d="M165.98 99.7627L162.827 99.5516L162.243 108.272L165.396 108.483L165.98 99.7627Z" fill="#E377B1" stroke="#9074E6" stroke-width="0.94"/>
<path d="M153.126 98.9064L149.973 98.6953L149.39 107.416L152.542 107.627L153.126 98.9064Z" fill="#E377B1" stroke="#9074E6" stroke-width="0.94"/>
<path d="M157.427 99.1929L154.274 98.9818L153.691 107.702L156.843 107.913L157.427 99.1929Z" fill="#E377B1" stroke="#9074E6" stroke-width="0.94"/>
<path d="M144.017 98.2992L140.864 98.0881L140.281 106.809L143.434 107.02L144.017 98.2992Z" fill="#E377B1" stroke="#9074E6" stroke-width="0.94"/>
<path d="M148.318 98.5858L145.165 98.3748L144.582 107.095L147.735 107.306L148.318 98.5858Z" fill="#E377B1" stroke="#9074E6" stroke-width="0.94"/>
<path d="M135.167 97.7094L132.014 97.4983L131.43 106.219L134.583 106.43L135.167 97.7094Z" fill="#E377B1" stroke="#9074E6" stroke-width="0.94"/>
<path d="M139.468 97.996L136.315 97.7849L135.731 106.505L138.884 106.716L139.468 97.996Z" fill="#E377B1" stroke="#9074E6" stroke-width="0.94"/>
<path d="M126.058 97.0922L122.905 96.8811L122.321 105.602L125.474 105.813L126.058 97.0922Z" fill="#E377B1" stroke="#9074E6" stroke-width="0.94"/>
<path d="M204.935 102.38L127.209 97.1768L126.625 105.897L204.351 111.101L204.935 102.38Z" fill="#E377B1" stroke="#9074E6" stroke-width="4.66"/>
<path d="M206.826 114.489L203.244 114.249L202.661 122.969L206.243 123.209L206.826 114.489Z" fill="#E377B1" stroke="#9074E6"/>
<path d="M211.704 114.814L208.122 114.574L207.538 123.294L211.12 123.534L211.704 114.814Z" fill="#E377B1" stroke="#9074E6"/>
<path d="M197.806 113.887L194.653 113.676L194.069 122.397L197.222 122.608L197.806 113.887Z" fill="#E377B1" stroke="#9074E6" stroke-width="0.94"/>
<path d="M202.107 114.174L198.954 113.963L198.37 122.683L201.523 122.894L202.107 114.174Z" fill="#E377B1" stroke="#9074E6" stroke-width="0.94"/>
<path d="M189.263 113.318L186.11 113.107L185.526 121.828L188.679 122.039L189.263 113.318Z" fill="#E377B1" stroke="#9074E6" stroke-width="0.94"/>
<path d="M193.565 113.595L190.412 113.384L189.828 122.104L192.981 122.315L193.565 113.595Z" fill="#E377B1" stroke="#9074E6" stroke-width="0.94"/>
<path d="M180.154 112.711L177.001 112.5L176.417 121.22L179.57 121.432L180.154 112.711Z" fill="#E377B1" stroke="#9074E6" stroke-width="0.94"/>
<path d="M210.489 114.736L181.304 112.783L180.72 121.503L209.905 123.457L210.489 114.736Z" fill="#E377B1" stroke="#9074E6" stroke-width="2.86"/>
<path d="M170.263 113.394L166.673 113.142L166.062 121.882L169.652 122.134L170.263 113.394Z" fill="#E377B1" stroke="#9074E6" stroke-width="1.00245"/>
<path d="M175.785 112.41L172.203 112.17L171.619 120.891L175.201 121.13L175.785 112.41Z" fill="#E377B1" stroke="#9074E6"/>
<path d="M161.887 111.473L158.734 111.262L158.15 119.983L161.303 120.194L161.887 111.473Z" fill="#E377B1" stroke="#9074E6" stroke-width="0.94"/>
<path d="M166.188 111.77L163.035 111.559L162.451 120.279L165.604 120.491L166.188 111.77Z" fill="#E377B1" stroke="#9074E6" stroke-width="0.94"/>
<path d="M153.344 110.904L150.191 110.693L149.607 119.414L152.76 119.625L153.344 110.904Z" fill="#E377B1" stroke="#9074E6" stroke-width="0.94"/>
<path d="M157.645 111.201L154.492 110.99L153.909 119.71L157.061 119.921L157.645 111.201Z" fill="#E377B1" stroke="#9074E6" stroke-width="0.94"/>
<path d="M144.235 110.297L141.082 110.086L140.499 118.807L143.652 119.018L144.235 110.297Z" fill="#E377B1" stroke="#9074E6" stroke-width="0.94"/>
<path d="M148.536 110.584L145.383 110.373L144.8 119.093L147.953 119.304L148.536 110.584Z" fill="#E377B1" stroke="#9074E6" stroke-width="0.94"/>
<path d="M164.962 111.683L132.235 109.492L131.652 118.212L164.378 120.403L164.962 111.683Z" fill="#E377B1" stroke="#9074E6" stroke-width="3.02"/>
<path d="M139.686 109.994L136.533 109.783L135.949 118.503L139.102 118.714L139.686 109.994Z" fill="#E377B1" stroke="#9074E6" stroke-width="0.94"/>
<path d="M126.276 109.1L123.123 108.889L122.539 117.61L125.692 117.821L126.276 109.1Z" fill="#E377B1" stroke="#9074E6" stroke-width="0.94"/>
<path d="M130.577 109.387L127.424 109.176L126.84 117.896L129.993 118.107L130.577 109.387Z" fill="#E377B1" stroke="#9074E6" stroke-width="0.94"/>
<path d="M205.985 133.963L202.395 133.712L201.783 142.452L205.373 142.703L205.985 133.963Z" fill="#E377B1" stroke="#9074E6" stroke-width="1.00245"/>
<path d="M211.492 132.82L207.91 132.58L207.326 141.3L210.908 141.54L211.492 132.82Z" fill="#E377B1" stroke="#9074E6"/>
<path d="M197.594 131.883L194.441 131.672L193.857 140.392L197.01 140.604L197.594 131.883Z" fill="#E377B1" stroke="#9074E6" stroke-width="0.94"/>
<path d="M201.885 132.179L198.732 131.968L198.148 140.688L201.301 140.9L201.885 132.179Z" fill="#E377B1" stroke="#9074E6" stroke-width="0.94"/>
<path d="M189.041 131.313L185.888 131.102L185.304 139.823L188.457 140.034L189.041 131.313Z" fill="#E377B1" stroke="#9074E6" stroke-width="0.94"/>
<path d="M193.342 131.61L190.189 131.399L189.605 140.119L192.758 140.33L193.342 131.61Z" fill="#E377B1" stroke="#9074E6" stroke-width="0.94"/>
<path d="M179.932 130.706L176.779 130.495L176.195 139.216L179.348 139.427L179.932 130.706Z" fill="#E377B1" stroke="#9074E6" stroke-width="0.94"/>
<path d="M184.233 130.993L181.08 130.782L180.497 139.502L183.649 139.713L184.233 130.993Z" fill="#E377B1" stroke="#9074E6" stroke-width="0.94"/>
<path d="M169.993 131.429L166.403 131.177L165.792 139.917L169.382 140.169L169.993 131.429Z" fill="#E377B1" stroke="#9074E6" stroke-width="1.00245"/>
<path d="M175.573 130.416L171.991 130.176L171.407 138.896L174.989 139.136L175.573 130.416Z" fill="#E377B1" stroke="#9074E6"/>
<path d="M161.675 129.489L158.522 129.278L157.938 137.999L161.091 138.21L161.675 129.489Z" fill="#E377B1" stroke="#9074E6" stroke-width="0.94"/>
<path d="M165.976 129.766L162.823 129.555L162.24 138.275L165.392 138.486L165.976 129.766Z" fill="#E377B1" stroke="#9074E6" stroke-width="0.94"/>
<path d="M201.117 132.125L149.972 128.701L149.388 137.422L200.534 140.846L201.117 132.125Z" fill="#E377B1" stroke="#9074E6" stroke-width="3.78"/>
<path d="M157.423 129.196L154.27 128.985L153.687 137.705L156.84 137.916L157.423 129.196Z" fill="#E377B1" stroke="#9074E6" stroke-width="0.94"/>
<path d="M144.013 128.292L140.861 128.081L140.277 136.802L143.43 137.013L144.013 128.292Z" fill="#E377B1" stroke="#9074E6" stroke-width="0.94"/>
<path d="M148.315 128.589L145.162 128.378L144.578 137.098L147.731 137.309L148.315 128.589Z" fill="#E377B1" stroke="#9074E6" stroke-width="0.94"/>
<path d="M135.163 127.702L132.01 127.491L131.426 136.212L134.579 136.423L135.163 127.702Z" fill="#E377B1" stroke="#9074E6" stroke-width="0.94"/>
<path d="M139.464 127.999L136.311 127.788L135.727 136.508L138.88 136.719L139.464 127.999Z" fill="#E377B1" stroke="#9074E6" stroke-width="0.94"/>
<path d="M126.054 127.095L122.901 126.884L122.317 135.605L125.47 135.816L126.054 127.095Z" fill="#E377B1" stroke="#9074E6" stroke-width="0.94"/>
<path d="M130.355 127.382L127.202 127.171L126.618 135.891L129.771 136.102L130.355 127.382Z" fill="#E377B1" stroke="#9074E6" stroke-width="0.94"/>
<path d="M206.822 144.492L203.24 144.252L202.657 152.972L206.239 153.212L206.822 144.492Z" fill="#E377B1" stroke="#9074E6"/>
<path d="M211.7 144.807L208.118 144.567L207.534 153.288L211.116 153.527L211.7 144.807Z" fill="#E377B1" stroke="#9074E6"/>
<path d="M197.802 143.89L194.649 143.679L194.065 152.4L197.218 152.611L197.802 143.89Z" fill="#E377B1" stroke="#9074E6" stroke-width="0.94"/>
<path d="M202.103 144.177L198.95 143.966L198.366 152.686L201.519 152.897L202.103 144.177Z" fill="#E377B1" stroke="#9074E6" stroke-width="0.94"/>
<path d="M189.269 143.321L186.116 143.11L185.532 151.831L188.685 152.042L189.269 143.321Z" fill="#E377B1" stroke="#9074E6" stroke-width="0.94"/>
<path d="M193.561 143.598L190.408 143.387L189.824 152.107L192.977 152.318L193.561 143.598Z" fill="#E377B1" stroke="#9074E6" stroke-width="0.94"/>
<path d="M180.15 142.704L176.997 142.493L176.414 151.213L179.566 151.424L180.15 142.704Z" fill="#E377B1" stroke="#9074E6" stroke-width="0.94"/>
<path d="M184.452 142.991L181.299 142.78L180.715 151.5L183.868 151.711L184.452 142.991Z" fill="#E377B1" stroke="#9074E6" stroke-width="0.94"/>
<path d="M170.163 143.453L166.573 143.202L165.962 151.942L169.552 152.193L170.163 143.453Z" fill="#E377B1" stroke="#9074E6" stroke-width="1.00245"/>
<path d="M175.781 142.413L172.199 142.173L171.615 150.893L175.197 151.133L175.781 142.413Z" fill="#E377B1" stroke="#9074E6"/>
<path d="M161.883 141.476L158.73 141.265L158.146 149.986L161.299 150.197L161.883 141.476Z" fill="#E377B1" stroke="#9074E6" stroke-width="0.94"/>
<path d="M166.184 141.763L163.031 141.552L162.447 150.272L165.6 150.483L166.184 141.763Z" fill="#E377B1" stroke="#9074E6" stroke-width="0.94"/>
<path d="M153.34 140.907L150.187 140.696L149.604 149.417L152.757 149.628L153.34 140.907Z" fill="#E377B1" stroke="#9074E6" stroke-width="0.94"/>
<path d="M157.641 141.194L154.488 140.983L153.905 149.703L157.058 149.914L157.641 141.194Z" fill="#E377B1" stroke="#9074E6" stroke-width="0.94"/>
<path d="M144.231 140.3L141.078 140.089L140.495 148.809L143.648 149.021L144.231 140.3Z" fill="#E377B1" stroke="#9074E6" stroke-width="0.94"/>
<path d="M204.96 144.366L145.383 140.377L144.8 149.098L204.376 153.086L204.96 144.366Z" fill="#E377B1" stroke="#9074E6" stroke-width="4.08"/>
<path d="M135.381 139.71L132.228 139.499L131.644 148.22L134.797 148.431L135.381 139.71Z" fill="#E377B1" stroke="#9074E6" stroke-width="0.94"/>
<path d="M139.682 139.997L136.529 139.786L135.945 148.506L139.098 148.717L139.682 139.997Z" fill="#E377B1" stroke="#9074E6" stroke-width="0.94"/>
<path d="M126.272 139.093L123.119 138.882L122.535 147.603L125.688 147.814L126.272 139.093Z" fill="#E377B1" stroke="#9074E6" stroke-width="0.94"/>
<path d="M130.573 139.39L127.42 139.179L126.836 147.899L129.989 148.11L130.573 139.39Z" fill="#E377B1" stroke="#9074E6" stroke-width="0.94"/>
<path d="M205.895 162.023L202.305 161.772L201.693 170.512L205.283 170.763L205.895 162.023Z" fill="#E377B1" stroke="#9074E6" stroke-width="1.00245"/>
<path d="M210.782 162.365L207.192 162.113L206.58 170.853L210.17 171.105L210.782 162.365Z" fill="#E377B1" stroke="#9074E6" stroke-width="1.00245"/>
<path d="M197.594 159.891L194.441 159.68L193.857 168.4L197.01 168.611L197.594 159.891Z" fill="#E377B1" stroke="#9074E6" stroke-width="0.94"/>
<path d="M201.885 160.177L198.732 159.965L198.148 168.686L201.301 168.897L201.885 160.177Z" fill="#E377B1" stroke="#9074E6" stroke-width="0.94"/>
<path d="M189.041 159.321L185.888 159.11L185.304 167.83L188.457 168.041L189.041 159.321Z" fill="#E377B1" stroke="#9074E6" stroke-width="0.94"/>
<path d="M193.342 159.607L190.189 159.396L189.605 168.117L192.758 168.328L193.342 159.607Z" fill="#E377B1" stroke="#9074E6" stroke-width="0.94"/>
<path d="M179.932 158.704L176.779 158.493L176.195 167.213L179.348 167.424L179.932 158.704Z" fill="#E377B1" stroke="#9074E6" stroke-width="0.94"/>
<path d="M184.233 159L181.08 158.789L180.496 167.51L183.649 167.721L184.233 159Z" fill="#E377B1" stroke="#9074E6" stroke-width="0.94"/>
<path d="M169.903 159.489L166.313 159.237L165.702 167.977L169.292 168.229L169.903 159.489Z" fill="#E377B1" stroke="#9074E6" stroke-width="1.00245"/>
<path d="M174.79 159.84L171.2 159.589L170.589 168.329L174.179 168.58L174.79 159.84Z" fill="#E377B1" stroke="#9074E6" stroke-width="1.00245"/>
<path d="M161.674 157.487L158.521 157.276L157.938 165.996L161.09 166.207L161.674 157.487Z" fill="#E377B1" stroke="#9074E6" stroke-width="0.94"/>
<path d="M165.976 157.763L162.823 157.552L162.239 166.273L165.392 166.484L165.976 157.763Z" fill="#E377B1" stroke="#9074E6" stroke-width="0.94"/>
<path d="M153.122 156.907L149.969 156.696L149.385 165.416L152.538 165.627L153.122 156.907Z" fill="#E377B1" stroke="#9074E6" stroke-width="0.94"/>
<path d="M157.423 157.193L154.27 156.982L153.686 165.703L156.839 165.914L157.423 157.193Z" fill="#E377B1" stroke="#9074E6" stroke-width="0.94"/>
<path d="M144.013 156.3L140.86 156.089L140.276 164.809L143.429 165.02L144.013 156.3Z" fill="#E377B1" stroke="#9074E6" stroke-width="0.94"/>
<path d="M148.314 156.586L145.161 156.375L144.577 165.096L147.73 165.307L148.314 156.586Z" fill="#E377B1" stroke="#9074E6" stroke-width="0.94"/>
<path d="M135.162 155.71L132.009 155.499L131.426 164.219L134.579 164.43L135.162 155.71Z" fill="#E377B1" stroke="#9074E6" stroke-width="0.94"/>
<path d="M139.463 155.996L136.31 155.785L135.727 164.506L138.88 164.717L139.463 155.996Z" fill="#E377B1" stroke="#9074E6" stroke-width="0.94"/>
<path d="M126.053 155.093L122.901 154.882L122.317 163.602L125.47 163.813L126.053 155.093Z" fill="#E377B1" stroke="#9074E6" stroke-width="0.94"/>
<path d="M206.614 160.493L127.211 155.177L126.628 163.898L206.03 169.213L206.614 160.493Z" fill="#E377B1" stroke="#9074E6" stroke-width="4.71"/>
<path d="M206.822 172.489L203.24 172.249L202.656 180.97L206.238 181.209L206.822 172.489Z" fill="#E377B1" stroke="#9074E6"/>
<path d="M211.7 172.814L208.118 172.574L207.534 181.295L211.116 181.535L211.7 172.814Z" fill="#E377B1" stroke="#9074E6"/>
<path d="M197.802 171.888L194.649 171.677L194.065 180.397L197.218 180.608L197.802 171.888Z" fill="#E377B1" stroke="#9074E6" stroke-width="0.94"/>
<path d="M202.103 172.174L198.95 171.963L198.366 180.684L201.519 180.895L202.103 172.174Z" fill="#E377B1" stroke="#9074E6" stroke-width="0.94"/>
<path d="M189.269 171.319L186.116 171.108L185.532 179.828L188.685 180.039L189.269 171.319Z" fill="#E377B1" stroke="#9074E6" stroke-width="0.94"/>
<path d="M193.561 171.595L190.408 171.384L189.824 180.105L192.977 180.316L193.561 171.595Z" fill="#E377B1" stroke="#9074E6" stroke-width="0.94"/>
<path d="M180.15 170.711L176.997 170.5L176.413 179.221L179.566 179.432L180.15 170.711Z" fill="#E377B1" stroke="#9074E6" stroke-width="0.94"/>
<path d="M184.452 170.988L181.299 170.777L180.715 179.497L183.868 179.709L184.452 170.988Z" fill="#E377B1" stroke="#9074E6" stroke-width="0.94"/>
<path d="M170.073 171.524L166.483 171.272L165.872 180.012L169.462 180.264L170.073 171.524Z" fill="#E377B1" stroke="#9074E6" stroke-width="1.00245"/>
<path d="M175.78 170.41L172.198 170.171L171.615 178.891L175.197 179.131L175.78 170.41Z" fill="#E377B1" stroke="#9074E6"/>
<path d="M161.883 169.474L158.73 169.263L158.146 177.983L161.299 178.194L161.883 169.474Z" fill="#E377B1" stroke="#9074E6" stroke-width="0.94"/>
<path d="M166.184 169.77L163.031 169.559L162.447 178.28L165.6 178.491L166.184 169.77Z" fill="#E377B1" stroke="#9074E6" stroke-width="0.94"/>
<path d="M153.34 168.905L150.187 168.694L149.603 177.414L152.756 177.625L153.34 168.905Z" fill="#E377B1" stroke="#9074E6" stroke-width="0.94"/>
<path d="M157.641 169.201L154.488 168.99L153.904 177.711L157.057 177.922L157.641 169.201Z" fill="#E377B1" stroke="#9074E6" stroke-width="0.94"/>
<path d="M144.231 168.298L141.078 168.086L140.494 176.807L143.647 177.018L144.231 168.298Z" fill="#E377B1" stroke="#9074E6" stroke-width="0.94"/>
<path d="M148.532 168.584L145.379 168.373L144.795 177.094L147.948 177.305L148.532 168.584Z" fill="#E377B1" stroke="#9074E6" stroke-width="0.94"/>
<path d="M135.38 167.708L132.227 167.497L131.644 176.217L134.797 176.428L135.38 167.708Z" fill="#E377B1" stroke="#9074E6" stroke-width="0.94"/>
<path d="M139.681 167.994L136.528 167.783L135.945 176.504L139.098 176.715L139.681 167.994Z" fill="#E377B1" stroke="#9074E6" stroke-width="0.94"/>
<path d="M167.603 171.344L122.183 168.165L121.571 176.905L166.991 180.084L167.603 171.344Z" fill="#E377B1" stroke="#9074E6" stroke-width="3.56871"/>
<path d="M130.572 167.387L127.419 167.176L126.836 175.897L129.989 176.108L130.572 167.387Z" fill="#E377B1" stroke="#9074E6" stroke-width="0.94"/>
<path d="M402.74 386H368.04V251.52L401.31 249.7L402.74 386Z" fill="#E377B1"/>
<path d="M371.7 251.52H278.7V386H371.7V251.52Z" fill="#D376BC"/>
<path d="M311.64 270.11H306.14V278.07H311.64V270.11Z" fill="#E57AB5"/>
<path d="M318.64 270.11H313.14V278.07H318.64V270.11Z" fill="#E57AB5"/>
<path d="M327.64 270.11H322.14V278.07H327.64V270.11Z" fill="#E57AB5"/>
<path d="M334.64 270.11H329.14V278.07H334.64V270.11Z" fill="#E57AB5"/>
<path d="M342.64 270.11H337.14V278.07H342.64V270.11Z" fill="#E57AB5"/>
<path d="M349.64 270.11H344.14V278.07H349.64V270.11Z" fill="#E57AB5"/>
<path d="M245.44 386H219.22V265.02L245.44 263.26V386Z" fill="#E377B1"/>
<path d="M304.91 386H245.44V263.26L304.91 265.74V386Z" fill="#E377B1"/>
<path d="M255.26 281.59H249.7V270.11L255.26 270.34V281.59Z" fill="#E57AB5"/>
<path d="M265.26 281.59H259.7V270.11L265.26 270.34V281.59Z" fill="#E57AB5"/>
<path d="M284.26 281.59H278.7V270.11L284.26 270.34V281.59Z" fill="#E57AB5"/>
<path d="M294.26 281.59H288.7V270.11L294.26 270.34V281.59Z" fill="#E57AB5"/>
<path d="M401.81 233.39L368.04 233.88V251.52L401.31 249.7L401.81 233.39Z" fill="#E377B1"/>
<path d="M371.7 233.88H278.7V251.52H371.7V233.88Z" fill="#D376BC"/>
<path d="M342.25 237.96H336.75V245.92H342.25V237.96Z" fill="#E57AB5"/>
<path d="M349.25 237.96H343.75V245.92H349.25V237.96Z" fill="#E57AB5"/>
<path d="M327.25 237.96H321.75V245.92H327.25V237.96Z" fill="#E57AB5"/>
<path d="M334.25 237.96H328.75V245.92H334.25V237.96Z" fill="#E57AB5"/>
<path d="M334.25 237.96H302.75V245.92H334.25V237.96Z" fill="#E57AB5"/>
<path d="M315.25 237.96H309.75V245.92H315.25V237.96Z" fill="#E57AB5"/>
<path d="M293.25 237.96H287.75V245.92H293.25V237.96Z" fill="#E57AB5"/>
<path d="M300.25 237.96H294.75V245.92H300.25V237.96Z" fill="#E57AB5"/>
<path d="M278.7 233.88L308.25 222.44L371.7 221.52V233.88H278.7Z" fill="#D376BC"/>
<path d="M371.7 221.52L380.83 222.17L401.81 233.39L371.7 233.88V221.52Z" fill="#E377B1"/>
<path d="M205.815 187.083L202.225 186.832L201.613 195.572L205.203 195.823L205.815 187.083Z" fill="#E377B1" stroke="#9074E6" stroke-width="1.00245"/>
<path d="M210.702 187.425L207.112 187.173L206.5 195.913L210.09 196.165L210.702 187.425Z" fill="#E377B1" stroke="#9074E6" stroke-width="1.00245"/>
<path d="M197.594 184.885L194.441 184.674L193.857 193.394L197.01 193.605L197.594 184.885Z" fill="#E377B1" stroke="#9074E6" stroke-width="0.94"/>
<path d="M201.885 185.181L198.732 184.97L198.148 193.69L201.301 193.901L201.885 185.181Z" fill="#E377B1" stroke="#9074E6" stroke-width="0.94"/>
<path d="M189.041 184.315L185.888 184.104L185.304 192.824L188.457 193.035L189.041 184.315Z" fill="#E377B1" stroke="#9074E6" stroke-width="0.94"/>
<path d="M193.342 184.611L190.189 184.4L189.605 193.121L192.758 193.332L193.342 184.611Z" fill="#E377B1" stroke="#9074E6" stroke-width="0.94"/>
<path d="M179.932 183.708L176.779 183.497L176.195 192.217L179.348 192.428L179.932 183.708Z" fill="#E377B1" stroke="#9074E6" stroke-width="0.94"/>
<path d="M184.233 183.994L181.08 183.783L180.496 192.504L183.649 192.715L184.233 183.994Z" fill="#E377B1" stroke="#9074E6" stroke-width="0.94"/>
<path d="M169.823 184.549L166.233 184.297L165.622 193.037L169.212 193.289L169.823 184.549Z" fill="#E377B1" stroke="#9074E6" stroke-width="1.00245"/>
<path d="M174.71 184.89L171.12 184.639L170.509 193.379L174.099 193.63L174.71 184.89Z" fill="#E377B1" stroke="#9074E6" stroke-width="1.00245"/>
<path d="M161.674 182.491L158.521 182.28L157.938 191L161.091 191.211L161.674 182.491Z" fill="#E377B1" stroke="#9074E6" stroke-width="0.94"/>
<path d="M165.976 182.767L162.823 182.556L162.239 191.277L165.392 191.488L165.976 182.767Z" fill="#E377B1" stroke="#9074E6" stroke-width="0.94"/>
<path d="M153.122 181.911L149.969 181.7L149.385 190.42L152.538 190.631L153.122 181.911Z" fill="#E377B1" stroke="#9074E6" stroke-width="0.94"/>
<path d="M157.423 182.198L154.27 181.986L153.686 190.707L156.839 190.918L157.423 182.198Z" fill="#E377B1" stroke="#9074E6" stroke-width="0.94"/>
<path d="M144.013 181.294L140.86 181.083L140.277 189.803L143.429 190.014L144.013 181.294Z" fill="#E377B1" stroke="#9074E6" stroke-width="0.94"/>
<path d="M148.314 181.59L145.161 181.379L144.578 190.1L147.73 190.311L148.314 181.59Z" fill="#E377B1" stroke="#9074E6" stroke-width="0.94"/>
<path d="M135.162 180.704L132.01 180.493L131.426 189.213L134.579 189.424L135.162 180.704Z" fill="#E377B1" stroke="#9074E6" stroke-width="0.94"/>
<path d="M139.463 181.001L136.311 180.79L135.727 189.51L138.88 189.721L139.463 181.001Z" fill="#E377B1" stroke="#9074E6" stroke-width="0.94"/>
<path d="M126.054 180.097L122.901 179.886L122.317 188.606L125.47 188.817L126.054 180.097Z" fill="#E377B1" stroke="#9074E6" stroke-width="0.94"/>
<path d="M204.931 185.385L127.205 180.181L126.621 188.902L204.347 194.105L204.931 185.385Z" fill="#E377B1" stroke="#9074E6" stroke-width="4.66"/>
<path d="M206.822 197.493L203.24 197.253L202.656 205.974L206.238 206.214L206.822 197.493Z" fill="#E377B1" stroke="#9074E6"/>
<path d="M211.7 197.808L208.118 197.569L207.534 206.289L211.116 206.529L211.7 197.808Z" fill="#E377B1" stroke="#9074E6"/>
<path d="M197.802 196.882L194.649 196.671L194.065 205.391L197.218 205.602L197.802 196.882Z" fill="#E377B1" stroke="#9074E6" stroke-width="0.94"/>
<path d="M202.103 197.179L198.95 196.968L198.366 205.688L201.519 205.899L202.103 197.179Z" fill="#E377B1" stroke="#9074E6" stroke-width="0.94"/>
<path d="M189.269 196.313L186.116 196.102L185.532 204.822L188.685 205.033L189.269 196.313Z" fill="#E377B1" stroke="#9074E6" stroke-width="0.94"/>
<path d="M193.561 196.599L190.408 196.388L189.824 205.109L192.977 205.32L193.561 196.599Z" fill="#E377B1" stroke="#9074E6" stroke-width="0.94"/>
<path d="M180.15 195.706L176.997 195.495L176.413 204.215L179.566 204.426L180.15 195.706Z" fill="#E377B1" stroke="#9074E6" stroke-width="0.94"/>
<path d="M210.485 197.741L181.3 195.787L180.716 204.508L209.901 206.461L210.485 197.741Z" fill="#E377B1" stroke="#9074E6" stroke-width="2.86"/>
<path d="M169.993 196.573L166.403 196.322L165.792 205.062L169.382 205.313L169.993 196.573Z" fill="#E377B1" stroke="#9074E6" stroke-width="1.00245"/>
<path d="M175.78 195.414L172.198 195.175L171.615 203.895L175.197 204.135L175.78 195.414Z" fill="#E377B1" stroke="#9074E6"/>
<path d="M161.883 194.478L158.73 194.267L158.146 202.987L161.299 203.199L161.883 194.478Z" fill="#E377B1" stroke="#9074E6" stroke-width="0.94"/>
<path d="M166.184 194.765L163.031 194.554L162.447 203.274L165.6 203.485L166.184 194.765Z" fill="#E377B1" stroke="#9074E6" stroke-width="0.94"/>
<path d="M153.34 193.909L150.187 193.698L149.603 202.418L152.756 202.629L153.34 193.909Z" fill="#E377B1" stroke="#9074E6" stroke-width="0.94"/>
<path d="M157.641 194.195L154.488 193.984L153.904 202.705L157.057 202.916L157.641 194.195Z" fill="#E377B1" stroke="#9074E6" stroke-width="0.94"/>
<path d="M144.231 193.292L141.078 193.081L140.494 201.801L143.647 202.012L144.231 193.292Z" fill="#E377B1" stroke="#9074E6" stroke-width="0.94"/>
<path d="M148.532 193.588L145.379 193.377L144.795 202.098L147.948 202.309L148.532 193.588Z" fill="#E377B1" stroke="#9074E6" stroke-width="0.94"/>
<path d="M164.958 194.688L132.231 192.497L131.648 201.217L164.374 203.408L164.958 194.688Z" fill="#E377B1" stroke="#9074E6" stroke-width="3.02"/>
<path d="M139.681 192.998L136.528 192.787L135.945 201.508L139.098 201.719L139.681 192.998Z" fill="#E377B1" stroke="#9074E6" stroke-width="0.94"/>
<path d="M126.271 192.095L123.119 191.884L122.535 200.604L125.688 200.815L126.271 192.095Z" fill="#E377B1" stroke="#9074E6" stroke-width="0.94"/>
<path d="M130.572 192.391L127.42 192.18L126.836 200.901L129.989 201.112L130.572 192.391Z" fill="#E377B1" stroke="#9074E6" stroke-width="0.94"/>
<path d="M205.715 217.143L202.125 216.892L201.513 225.632L205.103 225.883L205.715 217.143Z" fill="#E377B1" stroke="#9074E6" stroke-width="1.00245"/>
<path d="M210.612 217.495L207.022 217.243L206.41 225.983L210 226.235L210.612 217.495Z" fill="#E377B1" stroke="#9074E6" stroke-width="1.00245"/>
<path d="M197.59 214.888L194.437 214.677L193.853 223.397L197.006 223.608L197.59 214.888Z" fill="#E377B1" stroke="#9074E6" stroke-width="0.94"/>
<path d="M201.881 215.174L198.728 214.963L198.144 223.683L201.297 223.894L201.881 215.174Z" fill="#E377B1" stroke="#9074E6" stroke-width="0.94"/>
<path d="M189.047 214.318L185.894 214.107L185.31 222.827L188.463 223.038L189.047 214.318Z" fill="#E377B1" stroke="#9074E6" stroke-width="0.94"/>
<path d="M193.348 214.605L190.195 214.393L189.611 223.114L192.764 223.325L193.348 214.605Z" fill="#E377B1" stroke="#9074E6" stroke-width="0.94"/>
<path d="M179.938 213.711L176.785 213.5L176.201 222.22L179.354 222.431L179.938 213.711Z" fill="#E377B1" stroke="#9074E6" stroke-width="0.94"/>
<path d="M184.229 213.997L181.076 213.786L180.492 222.507L183.645 222.718L184.229 213.997Z" fill="#E377B1" stroke="#9074E6" stroke-width="0.94"/>
<path d="M169.723 214.619L166.133 214.367L165.522 223.107L169.112 223.359L169.723 214.619Z" fill="#E377B1" stroke="#9074E6" stroke-width="1.00245"/>
<path d="M174.62 214.96L171.03 214.709L170.419 223.449L174.009 223.7L174.62 214.96Z" fill="#E377B1" stroke="#9074E6" stroke-width="1.00245"/>
<path d="M161.67 212.484L158.518 212.273L157.934 220.993L161.087 221.204L161.67 212.484Z" fill="#E377B1" stroke="#9074E6" stroke-width="0.94"/>
<path d="M165.972 212.77L162.819 212.559L162.235 221.28L165.388 221.491L165.972 212.77Z" fill="#E377B1" stroke="#9074E6" stroke-width="0.94"/>
<path d="M201.123 215.12L149.978 211.696L149.394 220.416L200.54 223.84L201.123 215.12Z" fill="#E377B1" stroke="#9074E6" stroke-width="3.78"/>
<path d="M157.419 212.201L154.266 211.99L153.683 220.71L156.836 220.921L157.419 212.201Z" fill="#E377B1" stroke="#9074E6" stroke-width="0.94"/>
<path d="M144.019 211.297L140.866 211.086L140.283 219.806L143.436 220.017L144.019 211.297Z" fill="#E377B1" stroke="#9074E6" stroke-width="0.94"/>
<path d="M148.31 211.583L145.157 211.372L144.574 220.093L147.727 220.304L148.31 211.583Z" fill="#E377B1" stroke="#9074E6" stroke-width="0.94"/>
<path d="M135.169 210.707L132.016 210.496L131.432 219.216L134.585 219.428L135.169 210.707Z" fill="#E377B1" stroke="#9074E6" stroke-width="0.94"/>
<path d="M139.46 210.994L136.307 210.782L135.723 219.503L138.876 219.714L139.46 210.994Z" fill="#E377B1" stroke="#9074E6" stroke-width="0.94"/>
<path d="M126.05 210.1L122.897 209.889L122.313 218.609L125.466 218.82L126.05 210.1Z" fill="#E377B1" stroke="#9074E6" stroke-width="0.94"/>
<path d="M130.351 210.386L127.198 210.175L126.614 218.896L129.767 219.107L130.351 210.386Z" fill="#E377B1" stroke="#9074E6" stroke-width="0.94"/>
<path d="M206.818 227.496L203.236 227.256L202.653 235.977L206.235 236.217L206.818 227.496Z" fill="#E377B1" stroke="#9074E6"/>
<path d="M211.706 227.811L208.124 227.572L207.54 236.292L211.122 236.532L211.706 227.811Z" fill="#E377B1" stroke="#9074E6"/>
<path d="M197.808 226.885L194.655 226.674L194.071 235.394L197.224 235.605L197.808 226.885Z" fill="#E377B1" stroke="#9074E6" stroke-width="0.94"/>
<path d="M202.099 227.182L198.946 226.97L198.362 235.691L201.515 235.902L202.099 227.182Z" fill="#E377B1" stroke="#9074E6" stroke-width="0.94"/>
<path d="M189.265 226.316L186.112 226.105L185.528 234.825L188.681 235.036L189.265 226.316Z" fill="#E377B1" stroke="#9074E6" stroke-width="0.94"/>
<path d="M193.567 226.592L190.414 226.381L189.83 235.102L192.983 235.313L193.567 226.592Z" fill="#E377B1" stroke="#9074E6" stroke-width="0.94"/>
<path d="M180.156 225.709L177.003 225.498L176.419 234.218L179.572 234.429L180.156 225.709Z" fill="#E377B1" stroke="#9074E6" stroke-width="0.94"/>
<path d="M184.458 225.985L181.305 225.774L180.721 234.495L183.874 234.706L184.458 225.985Z" fill="#E377B1" stroke="#9074E6" stroke-width="0.94"/>
<path d="M169.893 226.643L166.303 226.392L165.692 235.132L169.282 235.383L169.893 226.643Z" fill="#E377B1" stroke="#9074E6" stroke-width="1.00245"/>
<path d="M175.787 225.407L172.205 225.168L171.621 233.888L175.203 234.128L175.787 225.407Z" fill="#E377B1" stroke="#9074E6"/>
<path d="M161.889 224.481L158.736 224.27L158.152 232.99L161.305 233.202L161.889 224.481Z" fill="#E377B1" stroke="#9074E6" stroke-width="0.94"/>
<path d="M166.18 224.768L163.027 224.557L162.443 233.277L165.596 233.488L166.18 224.768Z" fill="#E377B1" stroke="#9074E6" stroke-width="0.94"/>
<path d="M153.346 223.902L150.193 223.691L149.609 232.411L152.762 232.622L153.346 223.902Z" fill="#E377B1" stroke="#9074E6" stroke-width="0.94"/>
<path d="M157.647 224.198L154.494 223.987L153.911 232.708L157.063 232.919L157.647 224.198Z" fill="#E377B1" stroke="#9074E6" stroke-width="0.94"/>
<path d="M144.237 223.295L141.084 223.084L140.501 231.804L143.653 232.015L144.237 223.295Z" fill="#E377B1" stroke="#9074E6" stroke-width="0.94"/>
<path d="M204.956 227.37L145.379 223.382L144.795 232.102L204.372 236.091L204.956 227.37Z" fill="#E377B1" stroke="#9074E6" stroke-width="4.08"/>
<path d="M135.386 222.705L132.234 222.494L131.65 231.214L134.803 231.425L135.386 222.705Z" fill="#E377B1" stroke="#9074E6" stroke-width="0.94"/>
<path d="M139.688 223.001L136.535 222.79L135.951 231.511L139.104 231.722L139.688 223.001Z" fill="#E377B1" stroke="#9074E6" stroke-width="0.94"/>
<path d="M126.278 222.098L123.125 221.887L122.541 230.607L125.694 230.818L126.278 222.098Z" fill="#E377B1" stroke="#9074E6" stroke-width="0.94"/>
<path d="M130.579 222.384L127.426 222.173L126.842 230.894L129.995 231.105L130.579 222.384Z" fill="#E377B1" stroke="#9074E6" stroke-width="0.94"/>
<path d="M205.625 245.213L202.035 244.962L201.423 253.702L205.013 253.953L205.625 245.213Z" fill="#E377B1" stroke="#9074E6" stroke-width="1.00245"/>
<path d="M210.522 245.555L206.932 245.303L206.32 254.043L209.91 254.295L210.522 245.555Z" fill="#E377B1" stroke="#9074E6" stroke-width="1.00245"/>
<path d="M197.59 242.885L194.437 242.674L193.853 251.395L197.006 251.606L197.59 242.885Z" fill="#E377B1" stroke="#9074E6" stroke-width="0.94"/>
<path d="M201.881 243.181L198.728 242.97L198.144 251.691L201.297 251.902L201.881 243.181Z" fill="#E377B1" stroke="#9074E6" stroke-width="0.94"/>
<path d="M189.047 242.315L185.894 242.104L185.31 250.825L188.463 251.036L189.047 242.315Z" fill="#E377B1" stroke="#9074E6" stroke-width="0.94"/>
<path d="M193.348 242.602L190.195 242.391L189.611 251.111L192.764 251.322L193.348 242.602Z" fill="#E377B1" stroke="#9074E6" stroke-width="0.94"/>
<path d="M179.938 241.708L176.785 241.497L176.201 250.218L179.354 250.429L179.938 241.708Z" fill="#E377B1" stroke="#9074E6" stroke-width="0.94"/>
<path d="M184.229 241.995L181.076 241.784L180.492 250.504L183.645 250.715L184.229 241.995Z" fill="#E377B1" stroke="#9074E6" stroke-width="0.94"/>
<path d="M169.633 242.679L166.043 242.427L165.432 251.167L169.022 251.419L169.633 242.679Z" fill="#E377B1" stroke="#9074E6" stroke-width="1.00245"/>
<path d="M174.53 243.02L170.94 242.769L170.329 251.509L173.919 251.76L174.53 243.02Z" fill="#E377B1" stroke="#9074E6" stroke-width="1.00245"/>
<path d="M161.67 240.491L158.517 240.28L157.933 249.001L161.086 249.212L161.67 240.491Z" fill="#E377B1" stroke="#9074E6" stroke-width="0.94"/>
<path d="M165.972 240.768L162.819 240.557L162.235 249.277L165.388 249.488L165.972 240.768Z" fill="#E377B1" stroke="#9074E6" stroke-width="0.94"/>
<path d="M153.128 239.901L149.975 239.69L149.391 248.411L152.544 248.622L153.128 239.901Z" fill="#E377B1" stroke="#9074E6" stroke-width="0.94"/>
<path d="M157.429 240.198L154.276 239.987L153.692 248.707L156.845 248.919L157.429 240.198Z" fill="#E377B1" stroke="#9074E6" stroke-width="0.94"/>
<path d="M144.019 239.294L140.866 239.083L140.282 247.804L143.435 248.015L144.019 239.294Z" fill="#E377B1" stroke="#9074E6" stroke-width="0.94"/>
<path d="M148.31 239.591L145.157 239.38L144.573 248.1L147.726 248.311L148.31 239.591Z" fill="#E377B1" stroke="#9074E6" stroke-width="0.94"/>
<path d="M135.168 238.704L132.015 238.493L131.432 247.214L134.584 247.425L135.168 238.704Z" fill="#E377B1" stroke="#9074E6" stroke-width="0.94"/>
<path d="M139.459 239.001L136.306 238.79L135.723 247.51L138.875 247.722L139.459 239.001Z" fill="#E377B1" stroke="#9074E6" stroke-width="0.94"/>
<path d="M126.049 238.097L122.896 237.886L122.313 246.607L125.466 246.818L126.049 238.097Z" fill="#E377B1" stroke="#9074E6" stroke-width="0.94"/>
<path d="M206.61 243.487L127.207 238.172L126.623 246.892L206.026 252.208L206.61 243.487Z" fill="#E377B1" stroke="#9074E6" stroke-width="4.71"/>
<path d="M206.828 255.494L203.246 255.254L202.662 263.974L206.244 264.214L206.828 255.494Z" fill="#E377B1" stroke="#9074E6"/>
<path d="M211.706 255.809L208.124 255.569L207.54 264.29L211.122 264.529L211.706 255.809Z" fill="#E377B1" stroke="#9074E6"/>
<path d="M197.808 254.882L194.655 254.671L194.071 263.392L197.224 263.603L197.808 254.882Z" fill="#E377B1" stroke="#9074E6" stroke-width="0.94"/>
<path d="M202.099 255.179L198.946 254.968L198.362 263.688L201.515 263.9L202.099 255.179Z" fill="#E377B1" stroke="#9074E6" stroke-width="0.94"/>
<path d="M189.265 254.313L186.112 254.102L185.528 262.823L188.681 263.034L189.265 254.313Z" fill="#E377B1" stroke="#9074E6" stroke-width="0.94"/>
<path d="M193.566 254.6L190.413 254.389L189.83 263.109L192.983 263.32L193.566 254.6Z" fill="#E377B1" stroke="#9074E6" stroke-width="0.94"/>
<path d="M180.156 253.706L177.003 253.495L176.419 262.216L179.572 262.427L180.156 253.706Z" fill="#E377B1" stroke="#9074E6" stroke-width="0.94"/>
<path d="M184.458 253.983L181.305 253.772L180.721 262.492L183.874 262.703L184.458 253.983Z" fill="#E377B1" stroke="#9074E6" stroke-width="0.94"/>
<path d="M169.803 254.703L166.214 254.452L165.602 263.192L169.192 263.443L169.803 254.703Z" fill="#E377B1" stroke="#9074E6" stroke-width="1.00245"/>
<path d="M175.786 253.415L172.204 253.175L171.621 261.896L175.203 262.135L175.786 253.415Z" fill="#E377B1" stroke="#9074E6"/>
<path d="M161.889 252.478L158.736 252.267L158.152 260.988L161.305 261.199L161.889 252.478Z" fill="#E377B1" stroke="#9074E6" stroke-width="0.94"/>
<path d="M166.18 252.765L163.027 252.554L162.443 261.275L165.596 261.486L166.18 252.765Z" fill="#E377B1" stroke="#9074E6" stroke-width="0.94"/>
<path d="M153.346 251.909L150.193 251.698L149.609 260.419L152.762 260.63L153.346 251.909Z" fill="#E377B1" stroke="#9074E6" stroke-width="0.94"/>
<path d="M157.647 252.196L154.494 251.985L153.91 260.705L157.063 260.916L157.647 252.196Z" fill="#E377B1" stroke="#9074E6" stroke-width="0.94"/>
<path d="M144.237 251.292L141.084 251.081L140.5 259.802L143.653 260.013L144.237 251.292Z" fill="#E377B1" stroke="#9074E6" stroke-width="0.94"/>
<path d="M148.538 251.589L145.385 251.378L144.801 260.098L147.954 260.309L148.538 251.589Z" fill="#E377B1" stroke="#9074E6" stroke-width="0.94"/>
<path d="M135.386 250.702L132.233 250.491L131.649 259.212L134.802 259.423L135.386 250.702Z" fill="#E377B1" stroke="#9074E6" stroke-width="0.94"/>
<path d="M139.687 250.999L136.534 250.788L135.951 259.508L139.103 259.719L139.687 250.999Z" fill="#E377B1" stroke="#9074E6" stroke-width="0.94"/>
<path d="M167.343 254.534L121.923 251.355L121.311 260.095L166.731 263.274L167.343 254.534Z" fill="#E377B1" stroke="#9074E6" stroke-width="3.56871"/>
<path d="M130.578 250.382L127.425 250.171L126.842 258.891L129.995 259.102L130.578 250.382Z" fill="#E377B1" stroke="#9074E6" stroke-width="0.94"/>
<path d="M44.8216 39.8017L48.4042 39.5707L47.8417 30.8488L44.2591 31.0798L44.8216 39.8017Z" fill="#E57AB5"/>
<path d="M39.9409 40.1082L43.5234 39.8772L42.9609 31.1553L39.3784 31.3864L39.9409 40.1082Z" fill="#E57AB5"/>
<path d="M53.8461 39.2234L56.9996 39.02L56.4371 30.2981L53.2836 30.5015L53.8461 39.2234Z" fill="#E57AB5"/>
<path d="M49.5492 39.4972L52.7026 39.2938L52.1401 30.572L48.9867 30.7753L49.5492 39.4972Z" fill="#E57AB5"/>
<path d="M62.3892 38.6719L65.5427 38.4685L64.9802 29.7466L61.8267 29.95L62.3892 38.6719Z" fill="#E57AB5"/>
<path d="M58.0923 38.9457L61.2457 38.7423L60.6832 30.0204L57.5298 30.2238L58.0923 38.9457Z" fill="#E57AB5"/>
<path d="M71.5054 38.0769L74.6589 37.8735L74.0964 29.1516L70.9429 29.355L71.5054 38.0769Z" fill="#E57AB5"/>
<path d="M68.1088 37.5048L71.2688 37.3152L70.7444 28.5752L67.5844 28.7648L68.1088 37.5048Z" fill="#E57AB5"/>
<path d="M4.62359 42.3856L83.5097 37.2981L82.9472 28.5762L4.0611 33.6637L4.62359 42.3856Z" fill="#E57AB5"/>
<path d="M76.0542 37.7892L79.2076 37.5858L78.6452 28.8639L75.4917 29.0673L76.0542 37.7892Z" fill="#E57AB5"/>
<path d="M89.4673 36.9204L92.6208 36.717L92.0583 27.9952L88.9049 28.1985L89.4673 36.9204Z" fill="#E57AB5"/>
<path d="M85.171 37.2042L88.3245 37.0009L87.762 28.279L84.6085 28.4823L85.171 37.2042Z" fill="#E57AB5"/>
<path d="M45.8227 53.8051L49.4052 53.5741L48.8427 44.8522L45.2602 45.0833L45.8227 53.8051Z" fill="#E57AB5"/>
<path d="M40.942 54.1117L44.5245 53.8806L43.962 45.1587L40.3795 45.3898L40.942 54.1117Z" fill="#E57AB5"/>
<path d="M54.8472 53.2168L58.0006 53.0134L57.4381 44.2916L54.2847 44.4949L54.8472 53.2168Z" fill="#E57AB5"/>
<path d="M50.5502 53.5006L53.7037 53.2972L53.1412 44.5754L49.9877 44.7787L50.5502 53.5006Z" fill="#E57AB5"/>
<path d="M63.3903 52.6653L66.5437 52.4619L65.9812 43.74L62.8278 43.9434L63.3903 52.6653Z" fill="#E57AB5"/>
<path d="M59.0933 52.9391L62.2468 52.7357L61.6843 44.0138L58.5308 44.2172L59.0933 52.9391Z" fill="#E57AB5"/>
<path d="M72.5065 52.0703L75.6599 51.8669L75.0974 43.1451L71.944 43.3484L72.5065 52.0703Z" fill="#E57AB5"/>
<path d="M69.1688 51.4649L72.3288 51.2753L71.8044 42.5352L68.6444 42.7248L69.1688 51.4649Z" fill="#E57AB5"/>
<path d="M5.61462 56.3889L84.5007 51.3014L83.9382 42.5795L5.05213 47.667L5.61462 56.3889Z" fill="#E57AB5"/>
<path d="M77.0552 51.7825L80.2087 51.5791L79.6462 42.8572L76.4927 43.0606L77.0552 51.7825Z" fill="#E57AB5"/>
<path d="M90.4684 50.9138L93.6218 50.7104L93.0593 41.9886L89.9059 42.1919L90.4684 50.9138Z" fill="#E57AB5"/>
<path d="M86.1721 51.1976L89.3256 50.9943L88.7631 42.2724L85.6096 42.4757L86.1721 51.1976Z" fill="#E57AB5"/>
<path d="M44.8252 68.8018L48.4078 68.5708L47.8453 59.8489L44.2627 60.08L44.8252 68.8018Z" fill="#E57AB5"/>
<path d="M39.9445 69.1085L43.5271 68.8774L42.9646 60.1555L39.3821 60.3866L39.9445 69.1085Z" fill="#E57AB5"/>
<path d="M53.8397 68.2235L56.9932 68.0201L56.4307 59.2983L53.2772 59.5016L53.8397 68.2235Z" fill="#E57AB5"/>
<path d="M49.5428 68.4973L52.6962 68.2939L52.1337 59.5721L48.9803 59.7754L49.5428 68.4973Z" fill="#E57AB5"/>
<path d="M62.3928 67.672L65.5463 67.4686L64.9838 58.7467L61.8303 58.9501L62.3928 67.672Z" fill="#E57AB5"/>
<path d="M58.0959 67.9458L61.2493 67.7424L60.6868 59.0205L57.5334 59.2239L58.0959 67.9458Z" fill="#E57AB5"/>
<path d="M71.509 67.077L74.6625 66.8737L74.1 58.1518L70.9465 58.3552L71.509 67.077Z" fill="#E57AB5"/>
<path d="M68.2288 66.4448L71.3888 66.2552L70.8644 57.5152L67.7044 57.7048L68.2288 66.4448Z" fill="#E57AB5"/>
<path d="M4.61718 71.3857L83.5033 66.2982L82.9408 57.5763L4.05469 62.6639L4.61718 71.3857Z" fill="#E57AB5"/>
<path d="M76.0578 66.7893L79.2112 66.5859L78.6488 57.8641L75.4953 58.0674L76.0578 66.7893Z" fill="#E57AB5"/>
<path d="M89.4709 65.9205L92.6244 65.7172L92.0619 56.9953L88.9085 57.1987L89.4709 65.9205Z" fill="#E57AB5"/>
<path d="M85.1746 66.2043L88.3281 66.001L87.7656 57.2791L84.6121 57.4824L85.1746 66.2043Z" fill="#E57AB5"/>
<path d="M45.8263 82.8053L49.4089 82.5742L48.8464 73.8523L45.2638 74.0834L45.8263 82.8053Z" fill="#E57AB5"/>
<path d="M40.9456 83.1118L44.5281 82.8807L43.9656 74.1588L40.3831 74.3899L40.9456 83.1118Z" fill="#E57AB5"/>
<path d="M54.8408 82.2169L57.9943 82.0135L57.4318 73.2917L54.2783 73.4951L54.8408 82.2169Z" fill="#E57AB5"/>
<path d="M50.5438 82.5007L53.6973 82.2974L53.1348 73.5755L49.9813 73.7789L50.5438 82.5007Z" fill="#E57AB5"/>
<path d="M63.3939 81.6654L66.5474 81.462L65.9849 72.7401L62.8314 72.9435L63.3939 81.6654Z" fill="#E57AB5"/>
<path d="M59.097 81.9392L62.2504 81.7358L61.6879 73.0139L58.5345 73.2173L59.097 81.9392Z" fill="#E57AB5"/>
<path d="M72.5001 81.0704L75.6536 80.8671L75.0911 72.1452L71.9376 72.3486L72.5001 81.0704Z" fill="#E57AB5"/>
<path d="M69.2888 80.4048L72.4488 80.2152L71.9244 71.4752L68.7644 71.6648L69.2888 80.4048Z" fill="#E57AB5"/>
<path d="M5.61828 85.389L84.5044 80.3015L83.9419 71.5796L5.05579 76.6672L5.61828 85.389Z" fill="#E57AB5"/>
<path d="M77.0588 80.7826L80.2123 80.5792L79.6498 71.8574L76.4963 72.0607L77.0588 80.7826Z" fill="#E57AB5"/>
<path d="M90.472 79.9139L93.6254 79.7106L93.0629 70.9887L89.9095 71.1921L90.472 79.9139Z" fill="#E57AB5"/>
<path d="M86.1757 80.1978L89.3292 79.9944L88.7667 71.2725L85.6132 71.4759L86.1757 80.1978Z" fill="#E57AB5"/>
<path d="M44.8232 96.7999L48.4058 96.5688L47.8433 87.847L44.2607 88.078L44.8232 96.7999Z" fill="#E57AB5"/>
<path d="M39.9425 97.1065L43.525 96.8755L42.9625 88.1536L39.38 88.3846L39.9425 97.1065Z" fill="#E57AB5"/>
<path d="M53.8477 96.2216L57.0012 96.0182L56.4387 87.2963L53.2852 87.4997L53.8477 96.2216Z" fill="#E57AB5"/>
<path d="M49.5408 96.4954L52.6942 96.292L52.1317 87.5701L48.9783 87.7735L49.5408 96.4954Z" fill="#E57AB5"/>
<path d="M62.3908 95.67L65.5443 95.4667L64.9818 86.7448L61.8283 86.9481L62.3908 95.67Z" fill="#E57AB5"/>
<path d="M58.0939 95.9439L61.2473 95.7405L60.6848 87.0186L57.5314 87.2219L58.0939 95.9439Z" fill="#E57AB5"/>
<path d="M71.507 95.0751L74.6605 94.8717L74.098 86.1498L70.9445 86.3532L71.507 95.0751Z" fill="#E57AB5"/>
<path d="M68.3588 94.3849L71.5188 94.1953L70.9944 85.4553L67.8344 85.6449L68.3588 94.3849Z" fill="#E57AB5"/>
<path d="M4.61517 99.3937L83.5013 94.3062L82.9388 85.5843L4.05268 90.6718L4.61517 99.3937Z" fill="#E57AB5"/>
<path d="M76.0558 94.7874L79.2092 94.584L78.6467 85.8621L75.4933 86.0655L76.0558 94.7874Z" fill="#E57AB5"/>
<path d="M89.4689 93.9186L92.6224 93.7152L92.0599 84.9933L88.9064 85.1967L89.4689 93.9186Z" fill="#E57AB5"/>
<path d="M85.1726 94.2024L88.326 93.999L87.7636 85.2771L84.6101 85.4805L85.1726 94.2024Z" fill="#E57AB5"/>
<path d="M45.8242 110.803L49.4068 110.572L48.8443 101.85L45.2618 102.081L45.8242 110.803Z" fill="#E57AB5"/>
<path d="M40.9436 111.11L44.5261 110.879L43.9636 102.157L40.3811 102.388L40.9436 111.11Z" fill="#E57AB5"/>
<path d="M54.8387 110.225L57.9922 110.021L57.4297 101.3L54.2762 101.503L54.8387 110.225Z" fill="#E57AB5"/>
<path d="M50.5418 110.499L53.6953 110.295L53.1328 101.574L49.9793 101.777L50.5418 110.499Z" fill="#E57AB5"/>
<path d="M63.3918 109.673L66.5453 109.47L65.9828 100.748L62.8294 100.952L63.3918 109.673Z" fill="#E57AB5"/>
<path d="M59.0949 109.947L62.2484 109.744L61.6859 101.022L58.5324 101.225L59.0949 109.947Z" fill="#E57AB5"/>
<path d="M72.5081 109.078L75.6615 108.875L75.099 100.153L71.9456 100.357L72.5081 109.078Z" fill="#E57AB5"/>
<path d="M69.4088 108.355L72.5688 108.165L72.0444 99.4253L68.8844 99.6149L69.4088 108.355Z" fill="#E57AB5"/>
<path d="M5.6162 113.387L84.5023 108.3L83.9398 99.5777L5.05371 104.665L5.6162 113.387Z" fill="#E57AB5"/>
<path d="M77.0568 108.791L80.2103 108.587L79.6478 99.8654L76.4943 100.069L77.0568 108.791Z" fill="#E57AB5"/>
<path d="M90.47 107.922L93.6234 107.719L93.0609 98.9968L89.9075 99.2001L90.47 107.922Z" fill="#E57AB5"/>
<path d="M86.1737 108.206L89.3271 108.002L88.7647 99.2805L85.6112 99.4839L86.1737 108.206Z" fill="#E57AB5"/>
<path d="M44.8268 125.8L48.4094 125.569L47.8469 116.847L44.2643 117.078L44.8268 125.8Z" fill="#E57AB5"/>
<path d="M39.9461 126.107L43.5287 125.876L42.9662 117.154L39.3836 117.385L39.9461 126.107Z" fill="#E57AB5"/>
<path d="M53.8413 125.222L56.9948 125.018L56.4323 116.296L53.2788 116.5L53.8413 125.222Z" fill="#E57AB5"/>
<path d="M49.5444 125.495L52.6978 125.292L52.1353 116.57L48.9819 116.774L49.5444 125.495Z" fill="#E57AB5"/>
<path d="M62.3944 124.67L65.5479 124.467L64.9854 115.745L61.8319 115.948L62.3944 124.67Z" fill="#E57AB5"/>
<path d="M58.0975 124.944L61.2509 124.741L60.6884 116.019L57.535 116.222L58.0975 124.944Z" fill="#E57AB5"/>
<path d="M71.5006 124.075L74.6541 123.872L74.0916 115.15L70.9381 115.353L71.5006 124.075Z" fill="#E57AB5"/>
<path d="M68.4788 123.325L71.6388 123.135L71.1144 114.395L67.9544 114.585L68.4788 123.325Z" fill="#E57AB5"/>
<path d="M4.61877 128.384L83.5049 123.296L82.9424 114.575L4.05628 119.662L4.61877 128.384Z" fill="#E57AB5"/>
<path d="M76.0594 123.787L79.2128 123.584L78.6503 114.862L75.4969 115.066L76.0594 123.787Z" fill="#E57AB5"/>
<path d="M89.4725 122.919L92.626 122.715L92.0635 113.993L88.91 114.197L89.4725 122.919Z" fill="#E57AB5"/>
<path d="M85.1762 123.203L88.3297 122.999L87.7672 114.277L84.6137 114.481L85.1762 123.203Z" fill="#E57AB5"/>
<path d="M45.8279 139.803L49.4105 139.572L48.848 130.851L45.2654 131.082L45.8279 139.803Z" fill="#E57AB5"/>
<path d="M40.9472 140.11L44.5297 139.879L43.9672 131.157L40.3847 131.388L40.9472 140.11Z" fill="#E57AB5"/>
<path d="M54.8424 139.225L57.9958 139.022L57.4334 130.3L54.2799 130.503L54.8424 139.225Z" fill="#E57AB5"/>
<path d="M50.5454 139.499L53.6989 139.296L53.1364 130.574L49.9829 130.777L50.5454 139.499Z" fill="#E57AB5"/>
<path d="M63.3955 138.674L66.549 138.47L65.9865 129.748L62.833 129.952L63.3955 138.674Z" fill="#E57AB5"/>
<path d="M59.0886 138.947L62.242 138.744L61.6795 130.022L58.5261 130.225L59.0886 138.947Z" fill="#E57AB5"/>
<path d="M72.5017 138.079L75.6552 137.875L75.0927 129.153L71.9392 129.357L72.5017 138.079Z" fill="#E57AB5"/>
<path d="M69.5388 137.295L72.6988 137.105L72.1744 128.365L69.0144 128.555L69.5388 137.295Z" fill="#E57AB5"/>
<path d="M5.61987 142.387L84.506 137.3L83.9435 128.578L5.05738 133.665L5.61987 142.387Z" fill="#E57AB5"/>
<path d="M77.0604 137.791L80.2139 137.587L79.6514 128.866L76.4979 129.069L77.0604 137.791Z" fill="#E57AB5"/>
<path d="M90.4736 136.922L93.627 136.719L93.0645 127.997L89.9111 128.2L90.4736 136.922Z" fill="#E57AB5"/>
<path d="M86.1673 137.206L89.3207 137.003L88.7582 128.281L85.6048 128.484L86.1673 137.206Z" fill="#E57AB5"/>
<path d="M44.8205 154.8L48.403 154.569L47.8405 145.847L44.258 146.078L44.8205 154.8Z" fill="#E57AB5"/>
<path d="M39.9397 155.107L43.5223 154.876L42.9598 146.154L39.3772 146.385L39.9397 155.107Z" fill="#E57AB5"/>
<path d="M53.8449 154.222L56.9984 154.018L56.4359 145.297L53.2824 145.5L53.8449 154.222Z" fill="#E57AB5"/>
<path d="M49.548 154.496L52.7014 154.292L52.1389 145.57L48.9855 145.774L49.548 154.496Z" fill="#E57AB5"/>
<path d="M62.3881 153.67L65.5415 153.467L64.979 144.745L61.8256 144.948L62.3881 153.67Z" fill="#E57AB5"/>
<path d="M58.0911 153.944L61.2446 153.741L60.6821 145.019L57.5286 145.222L58.0911 153.944Z" fill="#E57AB5"/>
<path d="M71.5043 153.075L74.6577 152.872L74.0952 144.15L70.9418 144.353L71.5043 153.075Z" fill="#E57AB5"/>
<path d="M68.6088 152.265L71.7688 152.075L71.2444 143.335L68.0844 143.525L68.6088 152.265Z" fill="#E57AB5"/>
<path d="M4.62243 157.384L83.5085 152.297L82.9461 143.575L4.05994 148.662L4.62243 157.384Z" fill="#E57AB5"/>
<path d="M76.063 152.788L79.2164 152.584L78.6539 143.862L75.5005 144.066L76.063 152.788Z" fill="#E57AB5"/>
<path d="M89.4661 151.919L92.6196 151.715L92.0571 142.994L88.9036 143.197L89.4661 151.919Z" fill="#E57AB5"/>
<path d="M85.1699 152.203L88.3233 151.999L87.7608 143.277L84.6074 143.481L85.1699 152.203Z" fill="#E57AB5"/>
<path d="M45.8215 168.804L49.4041 168.573L48.8416 159.851L45.259 160.082L45.8215 168.804Z" fill="#E57AB5"/>
<path d="M40.9408 169.11L44.5233 168.879L43.9608 160.157L40.3783 160.388L40.9408 169.11Z" fill="#E57AB5"/>
<path d="M56.3372 167.154L59.4972 166.964L58.9728 158.224L55.8128 158.414L56.3372 167.154Z" fill="#E57AB5"/>
<path d="M52.0504 167.446L55.2104 167.256L54.686 158.516L51.526 158.706L52.0504 167.446Z" fill="#E57AB5"/>
<path d="M63.3891 167.674L66.5425 167.47L65.9801 158.748L62.8266 158.952L63.3891 167.674Z" fill="#E57AB5"/>
<path d="M59.0922 167.948L62.2456 167.744L61.6831 159.022L58.5297 159.226L59.0922 167.948Z" fill="#E57AB5"/>
<path d="M72.5053 167.079L75.6588 166.875L75.0963 158.153L71.9428 158.357L72.5053 167.079Z" fill="#E57AB5"/>
<path d="M69.6688 166.235L72.8288 166.045L72.3044 157.305L69.1444 157.495L69.6688 166.235Z" fill="#E57AB5"/>
<path d="M5.62347 171.387L84.5096 166.3L83.9471 157.578L5.06098 162.665L5.62347 171.387Z" fill="#E57AB5"/>
<path d="M77.0541 166.791L80.2075 166.588L79.645 157.866L76.4916 158.069L77.0541 166.791Z" fill="#E57AB5"/>
<path d="M90.4672 165.922L93.6206 165.719L93.0581 156.997L89.9047 157.2L90.4672 165.922Z" fill="#E57AB5"/>
<path d="M86.1709 166.206L89.3243 166.003L88.7618 157.281L85.6084 157.484L86.1709 166.206Z" fill="#E57AB5"/>
<path d="M44.8241 183.8L48.4066 183.569L47.8441 174.847L44.2616 175.078L44.8241 183.8Z" fill="#E57AB5"/>
<path d="M39.9433 184.107L43.5259 183.876L42.9634 175.154L39.3808 175.385L39.9433 184.107Z" fill="#E57AB5"/>
<path d="M55.3972 182.124L58.5572 181.934L58.0328 173.194L54.8728 173.384L55.3972 182.124Z" fill="#E57AB5"/>
<path d="M51.1104 182.416L54.2704 182.226L53.746 173.486L50.586 173.676L51.1104 182.416Z" fill="#E57AB5"/>
<path d="M62.3917 182.67L65.5451 182.467L64.9826 173.745L61.8292 173.949L62.3917 182.67Z" fill="#E57AB5"/>
<path d="M58.0947 182.944L61.2482 182.741L60.6857 174.019L57.5322 174.222L58.0947 182.944Z" fill="#E57AB5"/>
<path d="M71.5079 182.075L74.6613 181.872L74.0988 173.15L70.9454 173.354L71.5079 182.075Z" fill="#E57AB5"/>
<path d="M68.7288 181.205L71.8888 181.015L71.3644 172.275L68.2044 172.465L68.7288 181.205Z" fill="#E57AB5"/>
<path d="M4.61602 186.384L83.5021 181.297L82.9396 172.575L4.05353 177.662L4.61602 186.384Z" fill="#E57AB5"/>
<path d="M76.0566 181.788L79.21 181.584L78.6475 172.862L75.4941 173.066L76.0566 181.788Z" fill="#E57AB5"/>
<path d="M89.4697 180.919L92.6232 180.716L92.0607 171.994L88.9072 172.197L89.4697 180.919Z" fill="#E57AB5"/>
<path d="M85.1735 181.203L88.3269 180.999L87.7644 172.277L84.611 172.481L85.1735 181.203Z" fill="#E57AB5"/>
<path d="M45.8251 197.804L49.4077 197.573L48.8452 188.851L45.2626 189.082L45.8251 197.804Z" fill="#E57AB5"/>
<path d="M40.9444 198.11L44.527 197.879L43.9645 189.157L40.3819 189.388L40.9444 198.11Z" fill="#E57AB5"/>
<path d="M56.4572 196.094L59.6172 195.904L59.0928 187.164L55.9328 187.354L56.4572 196.094Z" fill="#E57AB5"/>
<path d="M52.1704 196.386L55.3304 196.196L54.806 187.456L51.646 187.646L52.1704 196.386Z" fill="#E57AB5"/>
<path d="M63.3927 196.674L66.5461 196.47L65.9837 187.749L62.8302 187.952L63.3927 196.674Z" fill="#E57AB5"/>
<path d="M59.0958 196.948L62.2492 196.744L61.6867 188.022L58.5333 188.226L59.0958 196.948Z" fill="#E57AB5"/>
<path d="M72.4989 196.079L75.6523 195.875L75.0899 187.154L71.9364 187.357L72.4989 196.079Z" fill="#E57AB5"/>
<path d="M69.7888 195.175L72.9488 194.985L72.4244 186.245L69.2644 186.435L69.7888 195.175Z" fill="#E57AB5"/>
<path d="M5.61706 200.387L84.5032 195.3L83.9407 186.578L5.05457 191.666L5.61706 200.387Z" fill="#E57AB5"/>
<path d="M77.0577 195.791L80.2111 195.588L79.6486 186.866L76.4952 187.069L77.0577 195.791Z" fill="#E57AB5"/>
<path d="M90.4708 194.922L93.6243 194.719L93.0618 185.997L89.9083 186.2L90.4708 194.922Z" fill="#E57AB5"/>
<path d="M86.1745 195.206L89.3279 195.003L88.7655 186.281L85.612 186.484L86.1745 195.206Z" fill="#E57AB5"/>
</svg>
