<svg width="320" height="252" viewBox="0 0 320 252" fill="none" xmlns="http://www.w3.org/2000/svg">
<g clip-path="url(#clip0_1018_650)">
<rect width="320" height="252" fill="url(#paint0_linear_1018_650)"/>
<g clip-path="url(#clip1_1018_650)">
<path d="M260.852 119.445C260.852 119.445 270.155 118.76 270.84 119.134C271.526 119.509 268.193 122.866 268.193 122.866L267.103 123.985L270.934 125.079L269.061 125.976L267.443 126.661L269.746 127.78L266.142 128.821L270.244 130.763L266.699 131.685L268.006 133.124L264.648 133.499L268.439 136.422L264.397 136.732L266.324 138.847L264.002 139.222L266.763 141.272L263.529 142.204L264.648 144.008H262.41L265.146 146.966L260.916 146.532L261.281 148.218H259.412L261.581 151.432C261.581 151.432 258.81 152.186 257.381 151.594C255.951 151.003 252.633 149.396 252.633 149.396L260.852 119.445Z" fill="#75C4FD"/>
<path d="M236.912 124.857C241.078 122.245 241.951 119.262 249.1 118.701C256.249 118.139 263.718 118.701 263.965 119.262C264.211 119.824 263.319 129.777 260.918 137.418C258.867 143.944 255.031 150.51 255.031 150.51C255.031 150.51 239.402 146.931 235.359 136.422L236.912 124.857Z" fill="#D5D0A6"/>
<path d="M-6 129.057C-5.01394 127.086 38.2791 105.643 62.1615 102.409C86.0439 99.1751 103.951 96.459 119.126 97.4449C134.302 98.4308 237.035 116.349 238.031 116.847C239.026 117.345 237.538 142.712 233.307 145.694C229.077 148.676 167.636 159.871 149.985 160.62C132.335 161.37 81.8285 161.863 70.1141 158.382C70.1141 158.382 48.5835 156.411 39.7681 140.972C38.782 139.232 31.3865 134.958 21.6097 134.751C9.67345 134.494 -6 129.057 -6 129.057Z" fill="#A9F5B4"/>
<path d="M-6 129.057C-5.50697 128.071 65.169 140.917 126.093 145.014C185.582 149.016 235.393 144.21 233.307 145.684C229.077 148.671 167.636 159.861 149.985 160.61C132.335 161.36 81.8285 161.853 70.1141 158.372C70.1141 158.372 48.5835 156.401 39.7681 140.962C38.782 139.222 31.3865 134.948 21.6097 134.741C9.67345 134.494 -6 129.057 -6 129.057Z" fill="#9DE0A3"/>
<path d="M-6 129.057C-6 129.057 236.295 128.288 237.789 128.821C239.283 129.353 238.775 131.754 237.789 132.395C236.803 133.035 -2.26282 131.833 -3.0073 131.512C-3.75178 131.192 -6 129.057 -6 129.057Z" fill="#702829"/>
<path d="M161.82 103.666C161.82 103.666 213.899 75.7998 222.36 75.0751C230.82 74.3505 342.008 69.8401 342.008 69.8401C342.008 69.8401 258.193 89.9866 250.467 95.7048C242.741 101.423 236.288 118.336 236.288 118.336L161.82 103.666Z" fill="#208871"/>
<path d="M153.748 107.88H146.781C146.21 107.88 145.746 108.344 145.746 108.916V117.291C145.746 117.862 146.21 118.326 146.781 118.326H153.748C154.32 118.326 154.783 117.862 154.783 117.291V108.916C154.783 108.344 154.32 107.88 153.748 107.88Z" fill="#D5D0A6"/>
<path d="M145.746 121.767C145.746 121.492 145.855 121.229 146.049 121.035C146.244 120.841 146.507 120.731 146.781 120.731H153.748C154.023 120.731 154.286 120.841 154.48 121.035C154.674 121.229 154.783 121.492 154.783 121.767" stroke="black" stroke-width="2.27" stroke-miterlimit="10"/>
<path d="M212.174 113.604H175.074C173.527 113.604 172.273 114.857 172.273 116.403V121.895C172.273 123.441 173.527 124.695 175.074 124.695H212.174C213.721 124.695 214.975 123.441 214.975 121.895V116.403C214.975 114.857 213.721 113.604 212.174 113.604Z" fill="#D5D0A6"/>
<path d="M175.756 114.629C176.031 114.635 176.292 114.751 176.482 114.949C176.673 115.148 176.777 115.414 176.771 115.689L176.633 122.649C176.631 122.785 176.601 122.919 176.547 123.044C176.492 123.168 176.414 123.281 176.316 123.375C176.218 123.47 176.103 123.544 175.976 123.593C175.849 123.643 175.714 123.667 175.578 123.665" stroke="black" stroke-width="2.27" stroke-miterlimit="10"/>
<path d="M180.27 114.629C180.545 114.635 180.807 114.751 180.997 114.949C181.187 115.148 181.291 115.414 181.286 115.689L181.153 122.649C181.15 122.785 181.121 122.919 181.066 123.044C181.012 123.168 180.934 123.281 180.836 123.375C180.738 123.47 180.622 123.544 180.495 123.593C180.369 123.643 180.234 123.667 180.098 123.665" stroke="black" stroke-width="2.27" stroke-miterlimit="10"/>
<path d="M184.295 114.264C184.569 114.272 184.83 114.387 185.02 114.586C185.21 114.784 185.314 115.049 185.31 115.324L185.177 122.284C185.171 122.559 185.056 122.821 184.857 123.011C184.658 123.201 184.392 123.305 184.117 123.3" stroke="black" stroke-width="2.27" stroke-miterlimit="10"/>
<path d="M189.016 114.264C189.292 114.271 189.554 114.385 189.745 114.584C189.936 114.782 190.041 115.048 190.037 115.324L189.899 122.284C189.897 122.42 189.868 122.555 189.814 122.68C189.76 122.805 189.681 122.918 189.583 123.012C189.485 123.106 189.369 123.18 189.242 123.23C189.115 123.279 188.98 123.303 188.844 123.3" stroke="black" stroke-width="2.27" stroke-miterlimit="10"/>
<path d="M193.806 114.629C194.081 114.635 194.341 114.75 194.531 114.947C194.722 115.145 194.826 115.409 194.822 115.684L194.684 122.644C194.681 122.78 194.652 122.914 194.598 123.039C194.543 123.163 194.465 123.276 194.367 123.37C194.269 123.465 194.153 123.539 194.027 123.588C193.9 123.638 193.765 123.662 193.629 123.659" stroke="black" stroke-width="2.27" stroke-miterlimit="10"/>
<path d="M198.223 114.629C198.36 114.631 198.494 114.661 198.619 114.716C198.744 114.77 198.857 114.849 198.952 114.948C199.046 115.046 199.12 115.162 199.169 115.289C199.219 115.417 199.242 115.552 199.239 115.689L199.106 122.649C199.103 122.785 199.074 122.919 199.02 123.044C198.965 123.168 198.887 123.281 198.789 123.375C198.691 123.47 198.575 123.544 198.449 123.593C198.322 123.643 198.187 123.667 198.051 123.664" stroke="black" stroke-width="2.27" stroke-miterlimit="10"/>
<path d="M202.744 114.629C203.019 114.635 203.28 114.751 203.471 114.949C203.661 115.148 203.765 115.414 203.76 115.689L203.626 122.649C203.619 122.924 203.503 123.184 203.305 123.374C203.106 123.564 202.841 123.669 202.566 123.665" stroke="black" stroke-width="2.27" stroke-miterlimit="10"/>
<path d="M207.013 114.89C207.149 114.893 207.284 114.922 207.408 114.976C207.533 115.031 207.646 115.109 207.74 115.207C207.834 115.305 207.908 115.421 207.958 115.547C208.007 115.674 208.032 115.809 208.029 115.945L207.896 122.905C207.893 123.042 207.864 123.176 207.809 123.301C207.754 123.426 207.676 123.539 207.577 123.633C207.479 123.728 207.362 123.802 207.235 123.851C207.108 123.9 206.972 123.924 206.836 123.921" stroke="black" stroke-width="2.27" stroke-miterlimit="10"/>
<path d="M210.578 115.137C210.714 115.139 210.848 115.167 210.973 115.222C211.098 115.276 211.211 115.354 211.305 115.452C211.4 115.55 211.474 115.666 211.523 115.793C211.573 115.92 211.597 116.055 211.593 116.191L211.485 123.157C211.482 123.293 211.453 123.427 211.398 123.551C211.344 123.676 211.266 123.789 211.168 123.883C211.07 123.977 210.954 124.051 210.827 124.101C210.701 124.151 210.566 124.175 210.43 124.172" stroke="black" stroke-width="2.27" stroke-miterlimit="10"/>
<path d="M145.746 124.005C145.746 123.73 145.855 123.467 146.049 123.273C146.244 123.078 146.507 122.969 146.781 122.969H153.748C154.023 122.969 154.286 123.078 154.48 123.273C154.674 123.467 154.783 123.73 154.783 124.005" stroke="black" stroke-width="2.27" stroke-miterlimit="10"/>
<path d="M145.746 126.247C145.745 126.111 145.772 125.976 145.824 125.85C145.875 125.724 145.951 125.609 146.048 125.512C146.144 125.416 146.258 125.339 146.384 125.287C146.51 125.234 146.645 125.207 146.781 125.207H153.748C153.884 125.207 154.019 125.234 154.145 125.287C154.271 125.339 154.386 125.416 154.482 125.512C154.578 125.609 154.654 125.724 154.706 125.85C154.758 125.976 154.784 126.111 154.783 126.247" stroke="black" stroke-width="2.27" stroke-miterlimit="10"/>
<path d="M145.746 136.318C145.746 136.044 145.855 135.781 146.049 135.586C146.244 135.392 146.507 135.283 146.781 135.283H153.748C154.023 135.283 154.286 135.392 154.48 135.586C154.674 135.781 154.783 136.044 154.783 136.318" stroke="black" stroke-width="2.27" stroke-miterlimit="10"/>
<path d="M145.746 138.556C145.746 138.282 145.855 138.018 146.049 137.824C146.244 137.63 146.507 137.521 146.781 137.521H153.748C154.023 137.521 154.286 137.63 154.48 137.824C154.674 138.018 154.783 138.282 154.783 138.556" stroke="black" stroke-width="2.27" stroke-miterlimit="10"/>
<path d="M145.746 140.794C145.746 140.52 145.855 140.256 146.049 140.062C146.244 139.868 146.507 139.759 146.781 139.759H153.748C154.023 139.759 154.286 139.868 154.48 140.062C154.674 140.256 154.783 140.52 154.783 140.794" stroke="black" stroke-width="2.27" stroke-miterlimit="10"/>
<path d="M44.7068 115.427C46.2644 115.427 47.527 114.295 47.527 112.899C47.527 111.502 46.2644 110.37 44.7068 110.37C43.1493 110.37 41.8867 111.502 41.8867 112.899C41.8867 114.295 43.1493 115.427 44.7068 115.427Z" fill="#000A03"/>
<path d="M44.7069 114.432C45.6518 114.432 46.4177 113.745 46.4177 112.899C46.4177 112.052 45.6518 111.366 44.7069 111.366C43.762 111.366 42.9961 112.052 42.9961 112.899C42.9961 113.745 43.762 114.432 44.7069 114.432Z" fill="#9EC7DB"/>
<path d="M63.404 114.58C65.0078 114.58 66.3079 113.447 66.3079 112.051C66.3079 110.654 65.0078 109.522 63.404 109.522C61.8002 109.522 60.5 110.654 60.5 112.051C60.5 113.447 61.8002 114.58 63.404 114.58Z" fill="#000A03"/>
<path d="M63.4047 113.584C64.3767 113.584 65.1647 112.897 65.1647 112.051C65.1647 111.204 64.3767 110.518 63.4047 110.518C62.4326 110.518 61.6445 111.204 61.6445 112.051C61.6445 112.897 62.4326 113.584 63.4047 113.584Z" fill="#9EC7DB"/>
<path d="M86.9118 113.584C88.5156 113.584 89.8157 112.452 89.8157 111.055C89.8157 109.658 88.5156 108.526 86.9118 108.526C85.308 108.526 84.0078 109.658 84.0078 111.055C84.0078 112.452 85.308 113.584 86.9118 113.584Z" fill="#000A03"/>
<path d="M205.945 160.921L227.431 166.703L227.116 168.35L202.523 166.329L205.945 160.921Z" fill="#307A65"/>
<path d="M227.647 166.112L234.549 168.941L227.43 169.316L227.647 166.112Z" fill="#702829"/>
<path d="M228.187 165.639C228.256 165.162 227.927 164.72 227.451 164.651C226.975 164.582 226.534 164.912 226.464 165.389L225.872 169.462C225.803 169.939 226.132 170.382 226.608 170.451C227.083 170.52 227.525 170.189 227.594 169.713L228.187 165.639Z" fill="white"/>
<path d="M93.1924 93.9942C93.0987 93.9647 80.0728 90.5437 79.634 90.2035C79.1952 89.8634 78.3275 88.7247 77.7408 88.9564C77.1541 89.1881 76.1828 91.4211 76.4934 91.7859C76.804 92.1506 79.0769 91.8795 79.4171 92.0668C79.7573 92.2542 92.1028 95.2365 92.1028 95.2365L93.1924 93.9942Z" fill="#B8B8B8"/>
<path d="M101.869 97.031C104.772 97.031 107.125 94.6784 107.125 91.7762C107.125 88.8741 104.772 86.5215 101.869 86.5215C98.9663 86.5215 96.6133 88.8741 96.6133 91.7762C96.6133 94.6784 98.9663 97.031 101.869 97.031Z" fill="#9EC7DB"/>
<path d="M86.9125 112.588C87.8846 112.588 88.6726 111.902 88.6726 111.055C88.6726 110.208 87.8846 109.522 86.9125 109.522C85.9404 109.522 85.1523 110.208 85.1523 111.055C85.1523 111.902 85.9404 112.588 86.9125 112.588Z" fill="#9EC7DB"/>
<path d="M117.78 113.919C119.593 113.919 121.063 112.637 121.063 111.055C121.063 109.473 119.593 108.191 117.78 108.191C115.966 108.191 114.496 109.473 114.496 111.055C114.496 112.637 115.966 113.919 117.78 113.919Z" fill="#000A03"/>
<path d="M117.781 112.79C118.881 112.79 119.773 112.013 119.773 111.055C119.773 110.097 118.881 109.32 117.781 109.32C116.681 109.32 115.789 110.097 115.789 111.055C115.789 112.013 116.681 112.79 117.781 112.79Z" fill="#9EC7DB"/>
<path d="M150.007 113.16C151.108 113.16 151.999 112.383 151.999 111.425C151.999 110.466 151.108 109.69 150.007 109.69C148.907 109.69 148.016 110.466 148.016 111.425C148.016 112.383 148.907 113.16 150.007 113.16Z" fill="#000A03"/>
<path d="M150.005 112.48C150.672 112.48 151.213 112.007 151.213 111.425C151.213 110.842 150.672 110.37 150.005 110.37C149.338 110.37 148.797 110.842 148.797 111.425C148.797 112.007 149.338 112.48 150.005 112.48Z" fill="white" stroke="black" stroke-width="0.91" stroke-miterlimit="10"/>
<path d="M225.343 106.954C233.381 106.954 239.898 100.439 239.898 92.4022C239.898 84.3656 233.381 77.8506 225.343 77.8506C217.305 77.8506 210.789 84.3656 210.789 92.4022C210.789 100.439 217.305 106.954 225.343 106.954Z" fill="#D5D0A6"/>
<path d="M86.9121 96.4589C87.1734 96.2963 111.786 95.966 114.275 95.4041C114.275 95.4041 116.948 96.6463 115.957 98.204C114.966 99.7617 88.0806 100.669 86.4684 99.1898C86.2784 98.9982 86.1365 98.7644 86.0542 98.5075C85.9719 98.2505 85.9515 97.9777 85.9948 97.7114C86.0381 97.4451 86.1438 97.1928 86.3032 96.9752C86.4626 96.7575 86.6713 96.5806 86.9121 96.4589V96.4589Z" fill="#000A03"/>
<path d="M107.904 90.5979H95.8344C95.0284 90.5979 94.375 91.2512 94.375 92.057V92.0619C94.375 92.8678 95.0284 93.521 95.8344 93.521H107.904C108.71 93.521 109.363 92.8678 109.363 92.0619V92.057C109.363 91.2512 108.71 90.5979 107.904 90.5979Z" fill="#338B75"/>
<path d="M94.1907 92.338L87.7812 96.6907C87.7812 96.6907 114.025 96.1978 114.149 96.0055C114.272 95.8133 109.218 92.338 109.218 92.338C109.218 92.338 98.8547 93.6443 94.1907 92.338Z" fill="#307A65"/>
<path d="M156.108 153.64C156.108 153.64 152.045 154.133 149.886 151.816C147.726 149.5 146.321 146.843 147.071 145.265C147.82 143.688 157.424 140.375 161.497 139.754C165.569 139.133 172.94 137.97 181.317 138.551C189.693 139.133 194.663 139.133 202.458 140.789C210.253 142.446 212.811 142.529 218.131 144.935C223.451 147.34 223.436 148.721 222.362 149.785C221.287 150.85 217.219 150.771 217.219 150.771C217.219 150.771 204.036 146.65 199.14 146.044C194.244 145.438 183.634 143.614 177.249 143.614C170.864 143.614 164.149 143.698 159.5 144.94C154.851 146.182 152.701 146.103 153.283 148.504C153.865 150.904 156.108 153.64 156.108 153.64Z" fill="#D5D0A6"/>
<path d="M153.702 153.147C151.547 150.081 149.999 147.508 151.892 146.182C153.786 144.856 173.024 139.636 192.508 143.2C211.993 146.764 221.282 148.129 219.788 150.51C218.294 152.891 206.022 162.681 205.86 165.254C205.697 167.827 204.198 169.232 207.832 170.228C211.465 171.224 242.659 178.115 242.659 178.115L242.078 180.52C242.078 180.52 188.83 178.366 183.042 177.952C177.254 177.538 170.021 177.04 166.373 171.731C162.724 166.422 153.702 153.147 153.702 153.147Z" fill="#208871"/>
<path d="M164.027 101.29C164.027 101.29 164.584 99.5498 165.082 99.3624C165.58 99.1751 183.615 101.827 189.897 103.345C196.178 104.864 232.445 112.519 235.359 113.106C238.273 113.692 239.091 114.348 238.904 115.033C238.717 115.718 241.552 117.424 235.359 116.29C229.167 115.156 166.453 102.66 164.027 101.29Z" fill="#D5D0A6"/>
<path d="M243.647 177.893C243.834 177.893 251.604 180.008 251.604 180.008L243.223 181.314L243.647 177.893Z" fill="#702829"/>
<path d="M244.435 176.645C244.56 176.003 244.143 175.382 243.503 175.258C242.863 175.133 242.242 175.552 242.117 176.193L241.178 181.012C241.053 181.653 241.47 182.274 242.11 182.399C242.751 182.524 243.371 182.105 243.496 181.464L244.435 176.645Z" fill="white"/>
<path d="M172.795 102.907C173.173 102.907 173.48 102.6 173.48 102.221C173.48 101.843 173.173 101.536 172.795 101.536C172.416 101.536 172.109 101.843 172.109 102.221C172.109 102.6 172.416 102.907 172.795 102.907Z" fill="black"/>
<path d="M149.474 147.513C149.853 147.513 150.16 147.206 150.16 146.828C150.16 146.449 149.853 146.143 149.474 146.143C149.096 146.143 148.789 146.449 148.789 146.828C148.789 147.206 149.096 147.513 149.474 147.513Z" fill="black"/>
<path d="M161.174 142.662C161.552 142.662 161.859 142.356 161.859 141.977C161.859 141.599 161.552 141.292 161.174 141.292C160.795 141.292 160.488 141.599 160.488 141.977C160.488 142.356 160.795 142.662 161.174 142.662Z" fill="black"/>
<path d="M174.166 141.13C174.544 141.13 174.851 140.823 174.851 140.444C174.851 140.066 174.544 139.759 174.166 139.759C173.787 139.759 173.48 140.066 173.48 140.444C173.48 140.823 173.787 141.13 174.166 141.13Z" fill="black"/>
<path d="M192.572 141.977C192.951 141.977 193.257 141.671 193.257 141.292C193.257 140.914 192.951 140.607 192.572 140.607C192.194 140.607 191.887 140.914 191.887 141.292C191.887 141.671 192.194 141.977 192.572 141.977Z" fill="black"/>
<path d="M208.717 145.043C209.095 145.043 209.402 144.737 209.402 144.358C209.402 143.98 209.095 143.673 208.717 143.673C208.338 143.673 208.031 143.98 208.031 144.358C208.031 144.737 208.338 145.043 208.717 145.043Z" fill="black"/>
<path d="M220.986 149.416C221.365 149.416 221.671 149.109 221.671 148.731C221.671 148.352 221.365 148.045 220.986 148.045C220.608 148.045 220.301 148.352 220.301 148.731C220.301 149.109 220.608 149.416 220.986 149.416Z" fill="black"/>
<path d="M184.717 105.332C185.095 105.332 185.402 105.025 185.402 104.647C185.402 104.268 185.095 103.962 184.717 103.962C184.338 103.962 184.031 104.268 184.031 104.647C184.031 105.025 184.338 105.332 184.717 105.332Z" fill="black"/>
<path d="M197.029 107.885C197.408 107.885 197.714 107.579 197.714 107.2C197.714 106.822 197.408 106.515 197.029 106.515C196.651 106.515 196.344 106.822 196.344 107.2C196.344 107.579 196.651 107.885 197.029 107.885Z" fill="black"/>
<path d="M214.627 111.365C215.005 111.365 215.312 111.059 215.312 110.68C215.312 110.302 215.005 109.995 214.627 109.995C214.248 109.995 213.941 110.302 213.941 110.68C213.941 111.059 214.248 111.365 214.627 111.365Z" fill="black"/>
<path d="M228.748 114.289C229.126 114.289 229.433 113.982 229.433 113.604C229.433 113.225 229.126 112.918 228.748 112.918C228.369 112.918 228.062 113.225 228.062 113.604C228.062 113.982 228.369 114.289 228.748 114.289Z" fill="black"/>
<path d="M233.969 84.8799C233.975 84.8245 234 84.773 234.041 84.735C234.082 84.697 234.135 84.6749 234.191 84.6729C234.242 84.6766 234.289 84.6995 234.324 84.737C234.359 84.7745 234.378 84.8238 234.378 84.875C234.37 84.9284 234.345 84.9778 234.307 85.016C234.269 85.0542 234.219 85.079 234.166 85.0869C234.139 85.0863 234.113 85.0804 234.089 85.0697C234.065 85.0589 234.043 85.0435 234.025 85.0243C234.006 85.005 233.992 84.9824 233.982 84.9576C233.973 84.9328 233.968 84.9064 233.969 84.8799V84.8799Z" fill="#2B58A4"/>
<path d="M233.572 92.9592C233.572 92.7571 233.537 92.5402 233.537 92.343C233.508 92.176 233.53 92.0039 233.602 91.8501C233.685 91.6972 233.759 91.5395 233.838 91.3571C233.961 91.0713 234.011 90.76 233.986 90.4501C233.988 90.2931 233.936 90.1401 233.84 90.0164C233.743 89.8927 233.607 89.8057 233.454 89.7698C233.258 89.7336 233.06 89.7072 232.862 89.691C232.773 89.691 232.66 89.691 232.625 89.5825C232.591 89.4741 232.67 89.4199 232.724 89.3706C232.97 89.1142 233.217 88.8776 233.463 88.6114C233.589 88.4942 233.69 88.3523 233.759 88.1946C233.827 88.0368 233.863 87.8666 233.863 87.6946C233.863 87.1572 233.863 86.6052 233.863 86.0777C233.863 85.708 233.828 85.3383 233.794 84.9686C233.779 84.6237 233.686 84.2867 233.523 83.9827C233.318 83.6471 233.052 83.3528 232.739 83.1151C232.437 82.8565 232.046 82.7256 231.649 82.7503C231.144 82.8012 230.674 83.0301 230.323 83.3961C230.067 83.673 229.857 83.9892 229.702 84.3327C229.662 84.3968 229.633 84.4658 229.559 84.4707C229.524 84.4682 229.49 84.4557 229.462 84.4347C229.434 84.4137 229.413 84.3852 229.401 84.3524C229.19 83.9814 228.935 83.6371 228.642 83.3271C228.181 82.7925 227.624 82.3493 227 82.0208C226.724 81.8669 226.414 81.7855 226.098 81.7842C225.941 81.7857 225.788 81.8267 225.652 81.9034C225.516 81.9801 225.401 82.09 225.319 82.2229C225.184 82.4375 225.111 82.6846 225.107 82.9377C225.107 83.3074 225.107 83.6869 225.072 84.0616C225.077 84.1042 225.077 84.1471 225.072 84.1897C225.065 84.2057 225.055 84.22 225.042 84.2318C225.03 84.2437 225.015 84.2529 224.998 84.2587C224.998 84.2587 224.944 84.2193 224.929 84.1947C224.723 83.6872 224.349 83.266 223.869 83.0017C223.599 82.8321 223.286 82.7448 222.967 82.7503C222.66 82.7655 222.36 82.8426 222.084 82.9771C221.83 83.1033 221.62 83.3046 221.483 83.5538C221.404 83.6869 221.34 83.8348 221.271 83.9728C221.271 83.9728 221.236 84.0172 221.222 84.0468C221.193 84.0307 221.168 84.0089 221.148 83.9827C221.108 83.9285 221.069 83.8644 221.029 83.82C220.608 83.3039 220.109 82.8565 219.55 82.494C219.063 82.1761 218.495 82.005 217.913 82.0011C217.703 81.9956 217.494 82.043 217.307 82.1391C217.148 82.2336 217.01 82.3606 216.903 82.5118C216.796 82.6629 216.722 82.8349 216.686 83.0165C216.499 83.7418 216.434 84.4931 216.493 85.2397C216.536 85.831 216.627 86.4179 216.765 86.9946C216.853 87.3594 216.967 87.7291 217.065 88.1037C217.065 88.1037 217.021 88.1037 217.006 88.1037C216.666 88.1459 216.34 88.262 216.05 88.4438C215.761 88.6227 215.515 88.8637 215.331 89.1493C215.147 89.435 215.028 89.7581 214.985 90.0952C214.901 90.6867 214.866 91.2832 214.827 91.8846C214.795 92.3972 214.805 92.9115 214.857 93.4225C214.89 93.74 214.946 94.0546 215.024 94.3641C215.188 94.9335 215.443 95.4728 215.779 95.9612C215.992 96.292 216.242 96.5979 216.523 96.8731C216.862 97.2186 217.251 97.511 217.677 97.7407C217.96 97.8852 218.277 97.95 218.594 97.928C218.992 97.8768 219.368 97.7183 219.683 97.4696C219.807 97.3809 219.841 97.3809 219.945 97.4696C220.182 97.7284 220.503 97.8944 220.852 97.9379C221.397 97.9683 221.934 97.7923 222.356 97.4449C222.514 97.3025 222.663 97.151 222.804 96.9914C222.878 96.9126 222.942 96.9175 223.006 96.9914C223.262 97.3536 223.624 97.6275 224.042 97.7752C224.367 97.9071 224.726 97.9303 225.065 97.8415C225.405 97.7526 225.706 97.5565 225.925 97.2823C226.038 97.1443 226.073 97.1443 226.221 97.2379C226.562 97.4671 226.929 97.6541 227.315 97.7949C227.657 97.9142 228.02 97.9612 228.38 97.933C228.833 97.8711 229.26 97.689 229.618 97.4055C229.835 97.2428 229.786 97.2626 229.983 97.4055C230.21 97.5834 230.475 97.7062 230.757 97.7644C231.039 97.8225 231.331 97.8144 231.61 97.7407C231.958 97.6427 232.275 97.4578 232.532 97.2034C232.699 97.0506 232.857 96.883 233.025 96.7105C233.311 96.4201 233.568 96.1032 233.794 95.764C233.973 95.4848 234.077 95.1637 234.095 94.8324C234.091 94.4057 233.976 93.9874 233.759 93.6197C233.65 93.4154 233.587 93.1902 233.572 92.9592V92.9592ZM229.628 86.5263C229.662 86.2256 229.697 85.9397 229.741 85.6439C229.803 85.1915 229.938 84.752 230.14 84.3425C230.279 84.0435 230.46 83.7661 230.678 83.5193C230.754 83.4476 230.839 83.3848 230.929 83.332C231.105 83.2107 231.302 83.1252 231.511 83.0806C231.793 83.0386 232.08 83.0999 232.32 83.2531C232.592 83.4299 232.822 83.6637 232.995 83.9383C233.287 84.409 233.441 84.9521 233.439 85.5059C233.439 85.9495 233.478 86.3833 233.493 86.827C233.498 86.848 233.498 86.87 233.493 86.8911C233.493 86.8911 233.459 87.5615 233.424 87.8769C233.418 87.9673 233.387 88.0543 233.335 88.1283C233.316 88.1585 233.291 88.1845 233.261 88.2048C233.231 88.2251 233.198 88.2393 233.163 88.2467C232.926 88.2467 232.67 88.2467 232.443 88.2467C232.317 88.2474 232.192 88.2358 232.068 88.2121C232.036 88.2044 232.005 88.1892 231.979 88.1678C231.935 88.1201 231.893 88.069 231.856 88.015V87.9755C231.856 87.8671 231.856 87.7488 231.856 87.6403C231.856 87.5319 231.856 87.522 231.748 87.5122C231.639 87.5023 231.541 87.5122 231.442 87.5122C231.421 87.5086 231.4 87.5096 231.379 87.5151C231.359 87.5207 231.339 87.5305 231.323 87.5441C231.307 87.5577 231.293 87.5746 231.284 87.5938C231.275 87.6129 231.27 87.6339 231.27 87.6551C231.27 87.7488 231.27 87.8572 231.235 87.9509C231.201 88.2072 231.112 88.2959 230.855 88.2812C230.601 88.2703 230.347 88.2423 230.096 88.1974C229.997 88.1844 229.905 88.1393 229.833 88.069C229.762 87.9987 229.716 87.907 229.702 87.8079C229.599 87.389 229.57 86.9551 229.618 86.5263H229.628ZM225.412 84.7813C225.412 84.6531 225.447 84.5249 225.447 84.3968C225.443 84.0095 225.466 83.6224 225.516 83.2384C225.537 83.0035 225.634 82.7819 225.792 82.6074C225.862 82.5341 225.946 82.4758 226.039 82.436C226.133 82.3961 226.233 82.3756 226.334 82.3757C226.628 82.3873 226.916 82.4684 227.172 82.6123C227.704 82.8864 228.189 83.2443 228.607 83.6721C229.007 84.0771 229.276 84.592 229.381 85.151C229.43 85.3674 229.435 85.5913 229.396 85.8097C229.357 86.0281 229.275 86.2365 229.154 86.4228C228.942 86.7645 228.658 87.0556 228.321 87.2756L227.542 87.7291C227.498 87.7488 227.461 87.7807 227.435 87.8208C227.409 87.861 227.395 87.9078 227.394 87.9558C227.39 88.0583 227.378 88.1604 227.36 88.2614C227.34 88.3669 227.282 88.4615 227.197 88.5276C227.088 88.6186 226.963 88.6868 226.827 88.7283C226.692 88.7698 226.549 88.7837 226.408 88.7692C226.165 88.7384 225.936 88.6392 225.748 88.4833C225.707 88.4546 225.673 88.4161 225.651 88.3713C225.629 88.3266 225.618 88.2769 225.619 88.2269C225.619 88.1234 225.585 88.0248 225.585 87.9114C225.54 87.527 225.501 87.1425 225.471 86.7629C225.442 86.3833 225.427 86.0235 225.398 85.6636C225.398 85.5108 225.398 85.3531 225.398 85.2003C225.383 85.0609 225.385 84.9203 225.402 84.7813H225.412ZM220.906 86.6002C220.941 86.2897 220.975 85.9939 221.034 85.6883C221.121 85.2084 221.243 84.7355 221.399 84.2735C221.521 83.9229 221.764 83.6274 222.084 83.4405C222.289 83.313 222.514 83.2214 222.75 83.1693C223.075 83.1166 223.409 83.185 223.687 83.3616C224.044 83.5794 224.334 83.8916 224.525 84.2637C224.755 84.6641 224.903 85.1066 224.959 85.565C225.023 85.989 225.082 86.4228 225.146 86.8467C225.146 87.0734 225.21 87.315 225.215 87.5467C225.213 87.8894 225.192 88.2317 225.151 88.572C225.102 88.922 224.998 88.9368 224.658 88.9861C224.435 89.0116 224.212 89.0248 223.987 89.0255C223.891 89.0381 223.793 89.0381 223.697 89.0255C223.603 89.0255 223.485 88.8234 223.48 88.7248C223.475 88.6262 223.48 88.4685 223.48 88.3452C223.48 88.3248 223.476 88.3045 223.468 88.2856C223.46 88.2667 223.448 88.2497 223.433 88.2354C223.418 88.2211 223.401 88.21 223.382 88.2026C223.363 88.1952 223.342 88.1918 223.322 88.1924C223.135 88.1924 222.942 88.1924 222.755 88.1924C222.681 88.1924 222.641 88.2467 222.632 88.3206C222.632 88.4734 222.602 88.6114 222.592 88.7642C222.582 88.9171 222.494 89.0994 222.262 89.0945C222.03 89.0896 221.705 89.0945 221.424 89.0945C221.308 89.0806 221.199 89.0323 221.111 88.9558C221.023 88.8794 220.96 88.7783 220.931 88.6657C220.822 88.3144 220.767 87.9488 220.768 87.5812C220.852 87.2361 220.852 86.9058 220.906 86.6002ZM219.624 94.2704C219.587 94.6778 219.427 95.0644 219.166 95.3795C218.991 95.6059 218.747 95.7687 218.47 95.8429C218.111 95.9897 217.723 96.0521 217.336 96.0253C216.962 96.0197 216.597 95.9096 216.281 95.7076C215.966 95.5055 215.713 95.2195 215.552 94.8817C215.457 94.7108 215.384 94.5286 215.335 94.3394C215.267 94.0368 215.216 93.7307 215.182 93.4225C215.152 93.1514 215.152 92.8754 215.133 92.6043C215.118 92.3185 215.118 92.0323 215.133 91.7465C215.167 91.1994 215.192 90.6423 215.276 90.0952C215.316 89.8151 215.423 89.549 215.589 89.3197C215.755 89.0904 215.974 88.9049 216.227 88.779C216.467 88.6228 216.738 88.5187 217.021 88.4734C217.314 88.4183 217.616 88.4387 217.899 88.5327C218.182 88.6267 218.436 88.7912 218.638 89.0107C218.953 89.3387 219.168 89.7488 219.259 90.1938C219.259 90.3121 219.318 90.4205 219.343 90.5388C219.368 90.6571 219.368 90.6966 219.383 90.7902C219.397 90.8839 219.111 91.0712 219.037 91.1057C218.824 91.232 218.573 91.2807 218.327 91.2437C218.202 91.2258 218.079 91.1977 217.958 91.1599C217.913 91.1493 217.873 91.1267 217.841 91.0945C217.809 91.0623 217.786 91.0218 217.775 90.9775C217.741 90.8149 217.706 90.6522 217.672 90.4846C217.659 90.3975 217.628 90.3139 217.582 90.2392C217.535 90.1646 217.473 90.1004 217.401 90.0508C217.362 90.034 217.32 90.0253 217.277 90.0253C217.235 90.0253 217.193 90.034 217.154 90.0508C217.069 90.08 216.997 90.1366 216.948 90.2115C216.899 90.2865 216.876 90.3756 216.883 90.4649C216.883 90.7409 216.883 91.0219 216.848 91.2881C216.814 91.5543 216.779 91.855 216.769 92.1261C216.769 92.4712 216.769 92.831 216.769 93.181C216.769 93.3585 216.799 93.5408 216.824 93.7232C216.865 93.9444 216.984 94.1437 217.159 94.2852C217.235 94.3513 217.325 94.3979 217.423 94.4211C217.521 94.4442 217.623 94.443 217.72 94.4178C217.817 94.3925 217.907 94.3438 217.981 94.2761C218.055 94.2083 218.111 94.1234 218.145 94.0289C218.183 93.909 218.204 93.7847 218.209 93.6592C218.209 93.5211 218.155 93.457 218.007 93.4669H217.854C217.832 93.4711 217.809 93.4706 217.786 93.4652C217.764 93.4599 217.743 93.4499 217.725 93.436C217.707 93.422 217.692 93.4044 217.681 93.3842C217.67 93.3641 217.664 93.3419 217.662 93.319C217.608 92.9395 217.548 92.55 217.504 92.1754C217.499 92.1348 217.503 92.0937 217.514 92.0545C217.525 92.0153 217.545 91.9788 217.57 91.9471C217.596 91.9154 217.628 91.8891 217.664 91.8699C217.7 91.8507 217.74 91.8389 217.78 91.8353C217.904 91.8135 218.029 91.7987 218.155 91.7909C218.441 91.7564 218.737 91.712 219.023 91.6677C219.106 91.6424 219.197 91.6503 219.275 91.6897C219.353 91.7292 219.413 91.7972 219.442 91.8796C219.566 92.1778 219.641 92.4941 219.664 92.8162C219.749 93.2904 219.735 93.777 219.624 94.2458V94.2704ZM219.264 87.2756C219.131 87.3594 219.062 87.3643 219.136 87.591C219.15 87.7108 219.136 87.8321 219.097 87.946C219.063 88.0365 219.003 88.1151 218.925 88.1721C218.847 88.229 218.754 88.2618 218.658 88.2664C218.507 88.3078 218.354 88.3374 218.199 88.3551C218.075 88.3649 217.949 88.3649 217.825 88.3551C217.739 88.3393 217.66 88.3013 217.594 88.2451C217.529 88.1888 217.479 88.1163 217.45 88.0347C217.274 87.6092 217.167 87.1581 217.134 86.6988C217.105 86.2601 217.075 85.8362 217.06 85.4024C217.06 85.2249 217.06 85.0475 217.06 84.8601C217.06 84.3672 217.011 83.8743 216.996 83.3813C216.987 83.198 217 83.0142 217.036 82.8341C217.066 82.6898 217.144 82.5597 217.256 82.4642C217.369 82.3688 217.51 82.3134 217.657 82.3067C217.711 82.2993 217.766 82.2993 217.82 82.3067C218.256 82.3381 218.681 82.4661 219.062 82.6813C219.535 82.9291 219.944 83.2815 220.26 83.7116C220.533 84.0942 220.703 84.5407 220.753 85.008C220.832 85.4565 220.733 85.9178 220.477 86.2946C220.323 86.5139 220.131 86.7041 219.91 86.8566C219.683 86.9896 219.476 87.1178 219.264 87.2509V87.2756ZM223.243 93.4817C223.204 93.6774 223.146 93.869 223.07 94.0535C222.954 94.2788 222.815 94.4918 222.656 94.6894C222.512 94.8512 222.346 94.9922 222.163 95.1084C221.997 95.2178 221.805 95.2808 221.606 95.2908H221.493C221.49 95.2962 221.489 95.3021 221.489 95.308C221.489 95.314 221.49 95.3199 221.493 95.3253C221.613 95.3813 221.747 95.3986 221.877 95.3746C222.232 95.2934 222.549 95.0934 222.775 94.8077C222.807 94.7708 222.841 94.7362 222.878 94.7042C222.918 94.7042 222.908 94.8077 222.878 94.8471C222.732 95.1434 222.516 95.3998 222.249 95.5947C221.982 95.7895 221.672 95.9169 221.345 95.9661C221.161 95.9919 220.974 95.9628 220.807 95.8823C220.549 95.7522 220.323 95.5653 220.148 95.3357C219.972 95.106 219.85 94.8396 219.792 94.5563C219.765 94.3552 219.794 94.1506 219.876 93.9648C219.959 93.6789 220.038 93.393 220.117 93.0923C220.171 92.8205 220.171 92.5408 220.117 92.2691C220.093 92.0965 220.063 91.9339 220.053 91.7761C220.057 91.6184 220.105 91.4648 220.191 91.3325C220.397 90.9629 220.703 90.6589 221.074 90.455C221.138 90.4193 221.206 90.3896 221.276 90.3663C221.475 90.3173 221.678 90.286 221.882 90.2726C222.092 90.2575 222.3 90.313 222.474 90.4304C222.568 90.5148 222.651 90.6108 222.72 90.7163C222.917 90.9911 223.061 91.3004 223.144 91.6282C223.185 91.7314 223.219 91.8367 223.248 91.9437C223.273 92.0275 223.273 92.1162 223.292 92.205C223.373 92.6205 223.356 93.0492 223.243 93.457V93.4817ZM226.817 93.2549C226.773 93.5063 226.768 93.7479 226.704 94.0141C226.628 94.3862 226.447 94.7285 226.181 95C226.094 95.1042 225.978 95.1813 225.848 95.2223C225.718 95.2633 225.579 95.2666 225.447 95.2316C225.306 95.1793 225.169 95.1167 225.038 95.0443C225.082 95.1605 225.164 95.2591 225.269 95.3253C225.391 95.4037 225.535 95.4411 225.679 95.4323C225.824 95.4234 225.962 95.3687 226.073 95.276C226.315 95.0907 226.508 94.8486 226.635 94.5711C226.659 94.5123 226.688 94.4561 226.724 94.4035C226.752 94.4513 226.768 94.5057 226.768 94.5612C226.709 94.8733 226.56 95.1613 226.339 95.3894C226.215 95.5251 226.062 95.6317 225.891 95.7016C225.721 95.7715 225.537 95.8029 225.353 95.7936C225.026 95.7784 224.707 95.6819 224.426 95.5126C224.074 95.2916 223.803 94.9608 223.657 94.5711C223.623 94.4972 223.598 94.4134 223.568 94.3296C223.472 94.0585 223.472 93.7626 223.568 93.4916C223.644 93.1866 223.7 92.877 223.736 92.5648C223.753 92.3383 223.697 92.1124 223.578 91.9191C223.485 91.7416 223.391 91.5543 223.292 91.3719C223.264 91.309 223.25 91.241 223.25 91.1723C223.25 91.1035 223.264 91.0355 223.292 90.9726C223.495 90.4443 223.89 90.0115 224.397 89.76C224.577 89.6715 224.773 89.6206 224.973 89.6104C225.174 89.6001 225.374 89.6307 225.562 89.7004C225.75 89.77 225.922 89.8772 226.068 90.0154C226.213 90.1536 226.329 90.32 226.408 90.5043C226.637 91.0942 226.783 91.713 226.842 92.343C226.869 92.6387 226.861 92.9365 226.817 93.2303V93.2549ZM230.515 95.4337C230.355 95.684 230.13 95.8866 229.864 96.0203C229.543 96.1781 229.187 96.2527 228.829 96.2372C228.535 96.2369 228.244 96.1708 227.979 96.0437C227.714 95.9166 227.48 95.7318 227.296 95.5028C227.167 95.3317 227.104 95.12 227.118 94.9063C227.143 94.4821 227.103 94.0566 227 93.6444C226.952 93.4647 226.964 93.2742 227.034 93.1021C227.064 93.0199 227.117 92.9483 227.187 92.8965C227.257 92.8447 227.342 92.815 227.429 92.8113C227.707 92.7823 227.987 92.839 228.232 92.974C228.319 93.0282 228.398 93.0928 228.469 93.1662C228.509 93.2237 228.535 93.2896 228.546 93.3589C228.556 93.4282 228.55 93.4989 228.528 93.5655C228.469 93.8101 228.469 94.0653 228.528 94.3098C228.549 94.3723 228.573 94.4332 228.602 94.4922C228.63 94.5536 228.68 94.6025 228.742 94.6298C228.804 94.657 228.873 94.6607 228.938 94.6401C229.014 94.6255 229.084 94.5908 229.142 94.5397C229.2 94.4885 229.244 94.4228 229.268 94.3493C229.29 94.232 229.29 94.1116 229.268 93.9944C229.189 93.6172 228.98 93.2801 228.676 93.043C228.415 92.8212 228.149 92.5993 227.887 92.3627C227.463 92.0011 227.183 91.4989 227.099 90.948C227.081 90.6081 227.081 90.2675 227.099 89.9276C227.17 89.4396 227.375 88.9808 227.69 88.6016C227.848 88.4251 228.051 88.294 228.277 88.222C228.548 88.154 228.826 88.1208 229.105 88.1234C229.486 88.1665 229.85 88.3075 230.16 88.5326C230.324 88.6648 230.457 88.8304 230.551 89.0183C230.646 89.2061 230.699 89.4119 230.707 89.622C230.707 89.8586 230.747 90.1149 230.772 90.3219C230.796 90.529 230.722 90.8149 230.693 91.0367C230.663 91.2585 230.604 91.2881 230.426 91.3078C230.131 91.3621 229.829 91.3621 229.534 91.3078C229.391 91.2782 229.347 91.2339 229.337 91.0663C229.337 90.7853 229.297 90.5093 229.273 90.2381C229.281 90.1014 229.243 89.9659 229.164 89.8536C229.112 89.7982 229.051 89.753 228.982 89.7205C228.937 89.7205 228.849 89.7205 228.829 89.7551C228.751 89.8357 228.694 89.9337 228.661 90.041C228.592 90.3087 228.601 90.591 228.689 90.8535C228.776 91.116 228.938 91.3474 229.154 91.5198C229.396 91.717 229.647 91.8944 229.879 92.0867C230.165 92.3341 230.393 92.6423 230.545 92.9888C230.683 93.287 230.776 93.6044 230.821 93.9303C230.906 94.4441 230.797 94.9711 230.515 95.4091V95.4337ZM233.74 95.069C233.712 95.184 233.65 95.288 233.562 95.3671C233.474 95.4463 233.364 95.497 233.247 95.5126C232.699 95.6005 232.138 95.5427 231.62 95.345C231.427 95.284 231.265 95.1494 231.171 94.9704C231.171 94.9457 231.131 94.9063 231.136 94.8866C231.139 94.786 231.148 94.6856 231.161 94.5859C231.232 94.2451 231.223 93.8926 231.136 93.5556C231.028 93.0915 230.863 92.6428 230.643 92.2198C230.624 92.1724 230.617 92.1208 230.623 92.0699C230.629 92.019 230.648 91.9704 230.678 91.9289C230.747 91.8205 230.831 91.717 230.905 91.6085C231.094 91.3665 231.196 91.0679 231.196 90.7607C231.172 90.6341 231.198 90.5031 231.27 90.3959C231.386 90.2591 231.546 90.1668 231.723 90.1346C231.985 90.0743 232.25 90.0299 232.517 90.0015C232.708 89.9958 232.9 90.0074 233.089 90.036C233.191 90.0456 233.293 90.0604 233.394 90.0804C233.486 90.103 233.567 90.1566 233.624 90.2321C233.68 90.3075 233.709 90.4002 233.705 90.4945C233.705 90.6029 233.705 90.7163 233.73 90.8198C233.754 90.9233 233.73 91.0663 233.695 91.1944C233.692 91.2512 233.678 91.3068 233.653 91.358C233.628 91.4092 233.593 91.4549 233.551 91.4925C233.508 91.5302 233.458 91.5589 233.404 91.5771C233.35 91.5953 233.293 91.6027 233.237 91.5987C232.996 91.6027 232.755 91.6241 232.517 91.6627C232.496 91.6632 232.476 91.6681 232.457 91.6771C232.438 91.686 232.421 91.6988 232.408 91.7146C232.394 91.7304 232.384 91.7489 232.379 91.7688C232.373 91.7888 232.371 91.8097 232.374 91.8303C232.374 92.0078 232.374 92.1064 232.611 92.1261L233.049 92.1853C233.222 92.2247 233.266 92.2691 233.276 92.4465C233.286 92.624 233.276 92.7669 233.276 92.9395C233.281 93.0198 233.255 93.0989 233.204 93.161C233.152 93.2231 233.08 93.2636 233 93.2747L232.581 93.3634C232.565 93.3639 232.548 93.3679 232.534 93.3751C232.519 93.3822 232.506 93.3924 232.495 93.4049C232.484 93.4174 232.476 93.432 232.472 93.4478C232.467 93.4636 232.466 93.4802 232.468 93.4965C232.463 93.5762 232.472 93.656 232.492 93.7331C232.492 93.7676 232.556 93.8268 232.601 93.8268C232.823 93.8662 233.04 93.9007 233.266 93.9253C233.366 93.9297 233.461 93.967 233.536 94.0312C233.612 94.0954 233.665 94.183 233.685 94.2803C233.775 94.5247 233.794 94.7896 233.74 95.0443V95.069Z" fill="#2B58A4"/>
<path d="M214.654 88.5718C214.556 88.6257 214.477 88.7083 214.427 88.8084C214.388 88.8676 214.363 88.912 214.393 88.976C214.429 89.0702 214.47 89.1624 214.516 89.2521C214.552 89.3061 214.574 89.3687 214.578 89.4336C214.582 89.4985 214.569 89.5635 214.541 89.6218C214.496 89.7056 214.462 89.7845 214.417 89.8732C214.373 89.9619 214.373 89.9176 214.363 89.9126C214.338 89.9137 214.314 89.9238 214.296 89.941C214.278 89.9582 214.267 89.9814 214.265 90.0063C214.247 90.0552 214.242 90.1075 214.249 90.1589C214.256 90.2103 214.275 90.2593 214.304 90.3021C214.343 90.3563 214.398 90.3711 214.437 90.3021C214.458 90.2453 214.47 90.1853 214.472 90.1246C214.464 90.0406 214.473 89.956 214.499 89.8756C214.524 89.7952 214.565 89.7207 214.62 89.6563C214.668 89.5986 214.697 89.5273 214.703 89.4523C214.709 89.3773 214.692 89.3022 214.654 89.2373C214.645 89.2085 214.645 89.1774 214.654 89.1486C214.694 89.0352 214.743 88.9317 214.782 88.8183C214.803 88.7496 214.811 88.6779 214.807 88.6063C214.803 88.5908 214.794 88.5767 214.783 88.5656C214.771 88.5545 214.757 88.5467 214.741 88.5432C214.725 88.5396 214.709 88.5404 214.693 88.5455C214.678 88.5505 214.665 88.5596 214.654 88.5718V88.5718Z" fill="#2B58A4"/>
<path d="M234.531 86.7727C234.6 86.7382 234.595 86.6692 234.58 86.6002C234.571 86.568 234.556 86.5378 234.536 86.5115C234.506 86.3833 234.472 86.265 234.437 86.1319C234.416 85.9816 234.428 85.8286 234.472 85.6833C234.506 85.5601 234.427 85.4812 234.304 85.4812C234.271 85.4863 234.24 85.4996 234.214 85.5199C234.187 85.5402 234.166 85.5668 234.153 85.5973C234.14 85.6279 234.134 85.6612 234.138 85.6944C234.141 85.7275 234.152 85.7593 234.171 85.7868C234.203 85.8439 234.226 85.9054 234.24 85.9692C234.291 86.1587 234.303 86.3567 234.274 86.5509C234.279 86.5836 234.279 86.6168 234.274 86.6495C234.268 86.6808 234.275 86.7132 234.292 86.7398C234.31 86.7665 234.337 86.7853 234.368 86.7924C234.423 86.7976 234.479 86.7909 234.531 86.7727V86.7727Z" fill="#2B58A4"/>
<path d="M234.608 92.7372C234.557 92.6891 234.517 92.6299 234.492 92.5641C234.468 92.4983 234.458 92.4276 234.465 92.3576C234.465 92.3034 234.465 92.259 234.386 92.2492C234.307 92.2393 234.288 92.2886 234.283 92.3527C234.27 92.436 234.27 92.5208 234.283 92.6041C234.314 92.7061 234.35 92.8065 234.391 92.9048C234.391 92.964 234.431 93.0379 234.51 93.0231C234.588 93.0083 234.633 92.9344 234.653 92.8654C234.655 92.8421 234.652 92.8186 234.644 92.7964C234.637 92.7743 234.624 92.7541 234.608 92.7372V92.7372Z" fill="#2B58A4"/>
<path d="M215.23 88.4193C215.262 88.4193 215.294 88.4063 215.317 88.3832C215.34 88.3601 215.353 88.3288 215.353 88.2961C215.353 88.2123 215.318 88.1778 215.245 88.1728C215.211 88.17 215.177 88.1801 215.151 88.2012C215.124 88.2223 215.106 88.2527 215.102 88.2862C215.105 88.3197 215.119 88.3511 215.142 88.3752C215.166 88.3994 215.196 88.415 215.23 88.4193V88.4193Z" fill="#2B58A4"/>
<path d="M222.825 86.97C222.925 86.9773 223.025 86.9773 223.125 86.97C223.283 86.97 223.313 86.9108 223.328 86.7481C223.33 86.7186 223.33 86.6889 223.328 86.6594C223.328 86.4672 223.328 86.2798 223.357 86.0876C223.373 85.9468 223.351 85.8043 223.293 85.675C223.235 85.5458 223.143 85.4346 223.027 85.3531C222.953 85.289 222.889 85.294 222.81 85.3531C222.78 85.3891 222.758 85.4311 222.746 85.4764C222.655 85.797 222.612 86.1291 222.618 86.4622C222.618 86.5411 222.618 86.689 222.662 86.8369C222.671 86.8739 222.691 86.907 222.721 86.931C222.75 86.9551 222.787 86.9688 222.825 86.97Z" fill="#2B58A4"/>
<path d="M226.768 86.462C226.967 86.576 227.197 86.6211 227.424 86.5902C227.51 86.5916 227.596 86.5722 227.673 86.5336C227.75 86.4949 227.817 86.4383 227.868 86.3684C227.887 86.3375 227.898 86.3016 227.898 86.2649C227.898 86.2282 227.887 86.1923 227.868 86.1614C227.845 86.184 227.821 86.2039 227.794 86.2205C227.709 86.2743 227.62 86.3204 227.527 86.3585C227.309 86.398 227.085 86.3511 226.901 86.2279C226.717 86.1046 226.588 85.9146 226.541 85.698C226.527 85.5743 226.55 85.4492 226.607 85.3386C226.664 85.2279 226.753 85.1368 226.862 85.0769C226.952 85.0197 227.059 84.9936 227.166 85.0025C227.273 85.0114 227.374 85.0548 227.453 85.1262C227.514 85.1654 227.561 85.2212 227.59 85.2868C227.619 85.3525 227.628 85.4251 227.616 85.4959C227.601 85.5601 227.568 85.6187 227.521 85.6649C227.474 85.7111 227.414 85.7431 227.35 85.7571C227.319 85.7705 227.284 85.7753 227.251 85.7712C227.217 85.767 227.185 85.754 227.158 85.7335C227.131 85.713 227.11 85.6856 227.097 85.6543C227.084 85.6229 227.079 85.5887 227.084 85.555C227.107 85.4765 227.139 85.4005 227.177 85.3283C227.177 85.2938 227.177 85.279 227.212 85.2445C227.246 85.21 227.138 85.2445 227.113 85.2445C226.758 85.3776 226.877 85.8508 227.113 85.9543C227.22 86.018 227.347 86.0392 227.468 86.0135C227.545 86.0026 227.618 85.9768 227.684 85.9373C227.75 85.8979 227.808 85.8457 227.854 85.7838C227.9 85.7219 227.933 85.6515 227.951 85.5767C227.97 85.5019 227.973 85.4241 227.961 85.348C227.93 85.2343 227.873 85.1291 227.796 85.04C227.718 84.9509 227.622 84.8801 227.514 84.8329C227.406 84.7857 227.289 84.7632 227.171 84.767C227.053 84.7708 226.937 84.8009 226.832 84.8551C226.713 84.9209 226.607 85.0097 226.522 85.1163C226.436 85.2321 226.379 85.3669 226.355 85.5093C226.332 85.6516 226.344 85.7975 226.388 85.9346C226.364 85.9938 226.374 86.2057 226.768 86.462Z" fill="#2B58A4"/>
<path d="M225.201 91.8796C225.056 91.8465 224.905 91.8503 224.763 91.8908C224.62 91.9313 224.49 92.0072 224.384 92.1114C224.278 92.2155 224.201 92.3447 224.158 92.4868C224.116 92.629 224.11 92.7796 224.141 92.9246C224.195 93.1164 224.301 93.2893 224.449 93.4235C224.596 93.5577 224.778 93.6478 224.974 93.6838C225.078 93.7013 225.185 93.6909 225.284 93.6537C225.382 93.6164 225.469 93.5537 225.536 93.4718C225.568 93.4383 225.591 93.3973 225.603 93.3525C225.615 93.3077 225.616 93.2605 225.605 93.2155C225.605 93.2155 225.575 93.2155 225.57 93.2598C225.524 93.3453 225.45 93.4127 225.361 93.4512C225.271 93.4896 225.171 93.4969 225.077 93.4718C224.904 93.4337 224.747 93.3424 224.629 93.2105C224.551 93.1393 224.492 93.0499 224.456 92.9503C224.421 92.8507 224.411 92.7439 224.427 92.6395C224.443 92.5351 224.485 92.4363 224.549 92.3518C224.612 92.2674 224.696 92.2 224.791 92.1556C224.896 92.1044 225.015 92.0917 225.128 92.1196C225.24 92.1476 225.34 92.2145 225.408 92.3084C225.433 92.3372 225.447 92.3739 225.447 92.412C225.447 92.45 225.433 92.4868 225.408 92.5155C225.387 92.5519 225.355 92.5809 225.318 92.5985C225.28 92.6162 225.237 92.6216 225.196 92.6141C225.156 92.6141 225.073 92.6141 225.073 92.5401C225.073 92.4662 225.137 92.5007 225.132 92.4465C225.114 92.4181 225.088 92.3966 225.056 92.3858C225.025 92.375 224.99 92.3755 224.959 92.3873C224.921 92.395 224.887 92.4153 224.862 92.4448C224.837 92.4743 224.823 92.5113 224.821 92.55C224.814 92.6221 224.83 92.6944 224.867 92.7571C224.903 92.8198 224.957 92.8697 225.023 92.9C225.12 92.9445 225.227 92.9589 225.332 92.9413C225.437 92.9237 225.533 92.8749 225.61 92.8014C225.661 92.7578 225.699 92.7016 225.722 92.6385C225.744 92.5754 225.75 92.5075 225.738 92.4415C225.714 92.3055 225.649 92.1797 225.554 92.0798C225.458 91.9799 225.336 91.9102 225.201 91.8796V91.8796Z" fill="#2B58A4"/>
<path d="M231.239 86.6889C231.25 86.7352 231.278 86.7756 231.318 86.8023C231.401 86.8323 231.487 86.8538 231.574 86.8664C231.732 86.9009 231.756 86.8664 231.791 86.7284C231.825 86.5903 231.845 86.3488 231.865 86.1516C231.897 85.9184 231.877 85.6809 231.806 85.4566C231.773 85.3668 231.724 85.2834 231.663 85.2101C231.652 85.1928 231.637 85.1784 231.62 85.1685C231.602 85.1585 231.582 85.1533 231.562 85.1533C231.541 85.1533 231.521 85.1585 231.504 85.1685C231.486 85.1784 231.471 85.1928 231.461 85.2101C231.395 85.301 231.347 85.4028 231.318 85.5108C231.268 85.7819 231.219 86.3291 231.219 86.3291C231.217 86.4493 231.224 86.5696 231.239 86.6889V86.6889Z" fill="#2B58A4"/>
<path d="M219.375 85.9052C219.29 85.9308 219.208 85.9638 219.129 86.0038C219.053 86.0443 218.968 86.0656 218.882 86.0656C218.796 86.0656 218.712 86.0443 218.636 86.0038C218.511 85.9683 218.399 85.8987 218.312 85.8029C218.225 85.7071 218.166 85.5889 218.143 85.4615C218.118 85.3793 218.111 85.2926 218.123 85.2075C218.135 85.1224 218.166 85.041 218.213 84.969C218.26 84.8971 218.322 84.8364 218.395 84.7911C218.468 84.7459 218.55 84.7173 218.636 84.7073C218.755 84.7062 218.871 84.7485 218.962 84.8265C219.053 84.9045 219.112 85.0128 219.129 85.1313C219.134 85.1635 219.132 85.1964 219.123 85.2279C219.115 85.2594 219.1 85.2887 219.08 85.3142C219.059 85.3397 219.034 85.3606 219.005 85.3758C218.976 85.391 218.944 85.4 218.912 85.4024C218.863 85.4092 218.813 85.4022 218.768 85.3822C218.722 85.3621 218.683 85.3299 218.655 85.289C218.601 85.2101 218.655 85.1411 218.68 85.0672C218.705 84.9932 218.68 85.0376 218.68 85.0179C218.68 84.9982 218.68 84.8947 218.601 84.9094C218.539 84.929 218.485 84.969 218.448 85.0228C218.407 85.0824 218.385 85.1527 218.384 85.2249C218.385 85.3083 218.412 85.3893 218.46 85.4571C218.509 85.525 218.577 85.5764 218.655 85.6045C218.769 85.6414 218.892 85.6414 219.006 85.6045C219.114 85.5679 219.206 85.4947 219.267 85.3975C219.323 85.3165 219.359 85.2233 219.372 85.1255C219.385 85.0277 219.374 84.9282 219.341 84.8355C219.29 84.6991 219.189 84.5866 219.06 84.52C218.928 84.4406 218.776 84.4029 218.623 84.4117C218.47 84.4205 218.323 84.4754 218.202 84.5693C218.108 84.6431 218.031 84.7355 217.974 84.8406C217.918 84.9457 217.884 85.0613 217.874 85.1802C217.864 85.2991 217.879 85.4187 217.918 85.5316C217.956 85.6444 218.018 85.7481 218.098 85.8362C218.147 85.8908 218.2 85.9419 218.256 85.989C218.359 86.0852 218.486 86.153 218.623 86.1858C218.761 86.2186 218.904 86.2154 219.04 86.1763C219.125 86.1542 219.204 86.1129 219.271 86.0557C219.337 85.9984 219.39 85.9267 219.425 85.846C219.425 85.846 219.375 85.8953 219.375 85.9052Z" fill="#2B58A4"/>
<path d="M221.839 92.4464C221.763 92.3658 221.67 92.3029 221.567 92.262C221.464 92.2211 221.353 92.2033 221.243 92.2098C221.056 92.2237 220.877 92.2903 220.727 92.4021C220.577 92.5138 220.462 92.666 220.395 92.8408C220.33 92.9872 220.304 93.1483 220.322 93.3076C220.339 93.4669 220.398 93.6188 220.493 93.7478C220.553 93.8456 220.633 93.9291 220.729 93.9922C220.824 94.0552 220.932 94.0964 221.046 94.1126C221.137 94.134 221.233 94.1212 221.316 94.0767C221.398 94.0323 221.462 93.9591 221.494 93.871C221.41 93.871 221.341 93.9154 221.263 93.9302C221.117 93.9303 220.975 93.882 220.86 93.7927C220.745 93.7035 220.663 93.5784 220.626 93.4372C220.596 93.3404 220.586 93.2384 220.598 93.1376C220.609 93.0368 220.641 92.9394 220.692 92.8517C220.743 92.7641 220.812 92.688 220.894 92.6284C220.976 92.5688 221.07 92.527 221.169 92.5056C221.235 92.4872 221.304 92.4836 221.371 92.495C221.439 92.5065 221.503 92.5327 221.559 92.5718C221.615 92.6109 221.662 92.6619 221.696 92.7212C221.73 92.7805 221.75 92.8466 221.756 92.9147C221.762 92.9784 221.747 93.0424 221.714 93.0974C221.682 93.1524 221.632 93.1954 221.573 93.2203C221.515 93.2373 221.454 93.2373 221.396 93.2203C221.263 93.1858 221.248 93.0626 221.346 92.9443C221.376 92.9443 221.381 92.8654 221.396 92.8358C221.41 92.8063 221.297 92.8013 221.248 92.8358C221.179 92.8576 221.117 92.8941 221.064 92.9426C221.011 92.9911 220.969 93.0506 220.942 93.1168C220.925 93.1594 220.919 93.2056 220.924 93.2512C220.929 93.2968 220.945 93.3404 220.972 93.3781C221.031 93.4772 221.119 93.5563 221.224 93.6052C221.329 93.6542 221.446 93.6707 221.561 93.6527C221.675 93.6347 221.781 93.583 221.866 93.5042C221.951 93.4255 222.01 93.3232 222.037 93.2105C222.085 93.0781 222.092 92.9342 222.057 92.7978C222.022 92.6613 221.946 92.5388 221.839 92.4464V92.4464Z" fill="#2B58A4"/>
<path d="M218.128 101.733C217.635 101.502 217.413 101.378 216.945 101.112C216.797 101.374 216.718 101.507 216.565 101.768C217.035 102.044 217.519 102.296 218.015 102.522L217.817 102.946C217.079 102.615 216.367 102.228 215.688 101.788C216.299 100.802 216.605 100.348 217.211 99.387C217.782 99.7623 218.382 100.092 219.006 100.373L218.808 100.802C218.365 100.604 217.934 100.38 217.517 100.131L217.176 100.718C217.63 100.979 217.857 101.102 218.325 101.324L218.128 101.733Z" fill="#2B58A4"/>
<path d="M220.019 101.842C220.379 101.551 220.551 101.403 220.882 101.098C221.153 101.181 221.291 101.221 221.562 101.295C221.161 101.684 220.736 102.047 220.29 102.384C220.447 102.949 220.638 103.504 220.862 104.045C220.532 103.962 220.369 103.912 220.044 103.814C219.906 103.35 219.841 103.119 219.728 102.655C219.353 102.946 219.156 103.084 218.742 103.355C218.421 103.227 218.249 103.158 217.953 103.02C218.464 102.741 218.958 102.431 219.432 102.093C219.297 101.548 219.195 100.995 219.127 100.437C219.388 100.555 219.521 100.614 219.787 100.718C219.866 101.167 219.925 101.388 220.019 101.842Z" fill="#2B58A4"/>
<path d="M222.126 103.311L221.929 104.297C221.643 104.238 221.5 104.208 221.219 104.139C221.485 103.035 221.618 102.483 221.889 101.374C222.343 101.487 222.57 101.531 223.028 101.61C223.23 101.637 223.424 101.705 223.6 101.807C223.75 101.9 223.873 102.031 223.955 102.187C224.035 102.338 224.068 102.51 224.049 102.68C224.042 102.809 224.003 102.934 223.935 103.043C223.867 103.153 223.772 103.243 223.659 103.306C223.367 103.45 223.035 103.49 222.718 103.419C222.481 103.385 222.363 103.36 222.126 103.311ZM222.22 102.848C222.451 102.897 222.57 102.917 222.806 102.956C222.946 102.988 223.092 102.971 223.22 102.907C223.271 102.876 223.313 102.833 223.344 102.783C223.375 102.732 223.393 102.675 223.398 102.616C223.409 102.555 223.407 102.492 223.392 102.431C223.376 102.371 223.348 102.314 223.309 102.266C223.222 102.162 223.099 102.095 222.964 102.079L222.397 101.975C222.333 102.325 222.289 102.498 222.22 102.867V102.848Z" fill="#2B58A4"/>
<path d="M225.664 103.617C225.442 103.617 225.334 103.617 225.117 103.617L225.092 104.657C224.801 104.657 224.658 104.657 224.367 104.622C224.441 103.488 224.481 102.921 224.555 101.788C224.993 101.817 225.215 101.822 225.659 101.822C225.947 101.801 226.235 101.87 226.482 102.019C226.583 102.088 226.666 102.18 226.724 102.287C226.783 102.394 226.815 102.514 226.818 102.636C226.837 102.807 226.8 102.98 226.714 103.129C226.608 103.278 226.461 103.393 226.29 103.459C226.596 103.912 226.783 104.134 227.099 104.573V104.602C226.793 104.602 226.635 104.637 226.325 104.647C226.043 104.238 225.91 104.031 225.664 103.617ZM225.131 103.124H225.664C225.802 103.133 225.939 103.091 226.048 103.005C226.093 102.966 226.128 102.917 226.15 102.863C226.172 102.808 226.181 102.749 226.177 102.69C226.177 102.631 226.164 102.573 226.14 102.52C226.117 102.466 226.082 102.419 226.039 102.379C225.929 102.298 225.794 102.26 225.659 102.271H225.166C225.146 102.626 225.141 102.798 225.131 103.138V103.124Z" fill="#2B58A4"/>
<path d="M229.339 103.01C228.846 103.124 228.575 103.173 228.057 103.247C228.101 103.548 228.126 103.7 228.17 104.001C228.696 103.928 229.218 103.828 229.733 103.7C229.778 103.883 229.802 103.976 229.842 104.159C229.078 104.348 228.302 104.482 227.519 104.558C227.396 103.424 227.337 102.862 227.219 101.729C227.884 101.669 228.543 101.557 229.191 101.393C229.235 101.581 229.26 101.669 229.299 101.857C228.839 101.97 228.374 102.059 227.904 102.123L228.003 102.793C228.496 102.719 228.752 102.675 229.25 102.562L229.339 103.01Z" fill="#2B58A4"/>
<path d="M231.749 102.803C231.734 102.755 231.705 102.711 231.667 102.678C231.629 102.644 231.582 102.621 231.532 102.611C231.356 102.591 231.177 102.591 231 102.611C230.803 102.633 230.605 102.633 230.408 102.611C230.248 102.608 230.093 102.555 229.965 102.46C229.837 102.364 229.742 102.231 229.693 102.079C229.656 101.934 229.668 101.781 229.728 101.645C229.793 101.493 229.899 101.362 230.034 101.265C230.189 101.146 230.365 101.054 230.551 100.994C230.737 100.93 230.932 100.9 231.128 100.905C231.302 100.912 231.471 100.961 231.621 101.048C231.759 101.136 231.866 101.266 231.927 101.418L231.32 101.66C231.302 101.605 231.272 101.554 231.232 101.513C231.192 101.471 231.143 101.439 231.089 101.418C230.958 101.383 230.819 101.391 230.694 101.443C230.572 101.475 230.462 101.544 230.379 101.64C230.348 101.676 230.327 101.719 230.317 101.766C230.308 101.813 230.31 101.861 230.324 101.906C230.341 101.953 230.369 101.994 230.408 102.026C230.446 102.057 230.492 102.077 230.541 102.084C230.705 102.108 230.871 102.108 231.034 102.084C231.341 102.048 231.652 102.068 231.952 102.143C232.054 102.172 232.148 102.224 232.228 102.295C232.307 102.366 232.369 102.453 232.41 102.552C232.459 102.66 232.477 102.78 232.46 102.898C232.443 103.016 232.394 103.127 232.316 103.217C232.103 103.466 231.822 103.647 231.508 103.74C231.267 103.822 231.013 103.859 230.758 103.848C230.554 103.845 230.355 103.782 230.186 103.666C230.042 103.565 229.94 103.414 229.9 103.242C230.167 103.173 230.305 103.133 230.571 103.055C230.66 103.355 230.926 103.444 231.36 103.301C231.492 103.263 231.611 103.189 231.705 103.089C231.739 103.051 231.762 103.003 231.769 102.953C231.777 102.902 231.77 102.85 231.749 102.803V102.803Z" fill="#2B58A4"/>
<path d="M234.444 101.531C234.418 101.487 234.381 101.451 234.337 101.425C234.293 101.399 234.243 101.385 234.192 101.383C234.012 101.387 233.833 101.413 233.66 101.462C233.464 101.508 233.264 101.536 233.063 101.546C232.904 101.572 232.741 101.547 232.598 101.474C232.454 101.402 232.338 101.285 232.264 101.142C232.2 101.007 232.186 100.853 232.225 100.708C232.268 100.547 232.351 100.399 232.467 100.279C232.61 100.135 232.777 100.015 232.96 99.9243C233.135 99.8261 233.327 99.761 233.527 99.7321C233.693 99.7091 233.862 99.7278 234.02 99.7863C234.173 99.8468 234.303 99.9558 234.389 100.097C234.163 100.24 234.049 100.309 233.817 100.442C233.792 100.39 233.753 100.345 233.706 100.312C233.659 100.278 233.604 100.257 233.546 100.25C233.41 100.235 233.273 100.266 233.157 100.338C233.04 100.393 232.943 100.48 232.876 100.59C232.852 100.632 232.839 100.679 232.839 100.728C232.839 100.776 232.852 100.824 232.876 100.866C232.9 100.909 232.937 100.944 232.98 100.967C233.024 100.991 233.073 101.002 233.122 100.999C233.289 101.004 233.455 100.982 233.615 100.935C233.915 100.843 234.229 100.807 234.542 100.831C234.649 100.841 234.751 100.875 234.843 100.931C234.934 100.986 235.012 101.062 235.07 101.152C235.134 101.253 235.168 101.37 235.168 101.489C235.168 101.609 235.134 101.726 235.07 101.827C234.899 102.114 234.647 102.344 234.345 102.488C234.12 102.613 233.872 102.694 233.615 102.724C233.411 102.757 233.202 102.729 233.014 102.645C232.854 102.57 232.728 102.438 232.659 102.276L233.3 101.975C233.438 102.256 233.714 102.3 234.128 102.078C234.254 102.017 234.361 101.924 234.439 101.807C234.465 101.766 234.479 101.719 234.48 101.67C234.481 101.621 234.468 101.573 234.444 101.531V101.531Z" fill="#2B58A4"/>
<path d="M71.0527 157.988L71.6211 173.03C71.6211 173.03 52.53 174.985 50.4555 174.558C47.7729 173.99 45.9087 172.439 45.7836 169.848C45.6586 167.256 45.1698 163.438 47.4148 161.25C49.1767 159.545 52.9733 158.142 55.4912 157.619C58.009 157.096 65.1987 157.176 67.2732 157.249C68.563 157.304 69.8371 157.553 71.0527 157.988V157.988Z" fill="#F1FA91"/>
<path d="M86.7612 186.651C85.7609 187.543 83.9819 190.879 86.1929 193.47C88.4038 196.061 90.7397 196.414 93.3087 194.641C95.8776 192.868 102.88 184.639 105.551 171.638C108.222 158.636 109.223 133.979 109.223 133.246C109.223 132.513 104.107 128.763 99.5606 132.195C99.5606 132.195 98.3386 154.636 97.7816 159.301C97.2246 163.966 92.4107 179.411 91.2228 181.417C90.0349 183.423 86.7612 186.651 86.7612 186.651Z" fill="#698681"/>
<path d="M66.0117 158.755C66.0117 158.755 65.9378 169.438 67.2734 171.899" stroke="black" stroke-width="0.88" stroke-miterlimit="10" stroke-linecap="round"/>
<path d="M58.9459 158.755C58.9459 158.755 57.5932 168.114 60.418 172.393" stroke="black" stroke-width="0.88" stroke-miterlimit="10" stroke-linecap="round"/>
<path d="M52.7972 160.454C52.7972 160.454 51.706 169.171 54.0078 172.842" stroke="black" stroke-width="0.88" stroke-miterlimit="10" stroke-linecap="round"/>
<path d="M71.3086 164.739C71.3086 164.739 68.751 161.102 64.5281 161.398C60.3052 161.693 56.4518 163.705 54.0078 164.739C54.0078 164.739 50.8762 166.876 47.7559 165.177" stroke="black" stroke-width="0.88" stroke-miterlimit="10" stroke-linecap="round"/>
<path d="M72.4643 132.871C72.4643 132.871 72.5382 124.87 70.0204 122.643C67.5026 120.415 67.2753 117.307 59.2216 117.011C51.168 116.716 44.9218 120.125 43.9556 121.16C42.9894 122.194 40.3977 124.495 39.8066 127.53C39.2155 130.564 39.1416 138.275 39.2382 141.242C39.3348 144.208 43.1656 182.582 43.1656 182.582L73.6238 178.803C73.6238 178.803 73.6238 172.285 73.2487 171.768C72.8736 171.251 54.6521 172.95 52.7878 172.905C50.9236 172.859 47.9682 171.768 47.6726 168.757C47.3771 165.745 47.8943 163.199 50.1166 161.938C52.3388 160.676 54.7885 159.125 59.898 158.755C63.6363 158.585 67.3822 158.759 71.0889 159.272C71.0889 159.272 70.7934 162.608 71.0889 162.83C71.3845 163.051 75.164 161.051 75.3175 160.557C75.4709 160.062 75.2379 152.999 75.3175 152.556C75.3971 152.112 72.4643 132.871 72.4643 132.871Z" fill="#698681"/>
<path d="M57.2422 151.805C54.7925 152.141 52.2292 153.584 50.4503 152.806C48.6713 152.027 46.5571 152.118 46.0001 149.794C45.4431 147.47 44.0563 140.793 45.0566 138.747C46.0569 136.701 47.0288 136.099 48.893 134.576C50.5655 133.101 52.7217 132.292 54.9517 132.303C57.2876 132.303 72.8435 132.127 74.793 132.303C75.9809 132.428 78.5726 132.599 79.9082 135.565C81.2438 138.531 80.8005 144.748 80.8005 145.64C80.8005 146.532 75.9809 151.936 75.2818 152.459C74.5827 152.982 70.9339 149.913 57.2422 151.805Z" fill="#99B5B6"/>
<path d="M78.9101 141.395C78.9101 141.395 79.6547 134.371 74.2951 134.059C74.2951 134.059 54.2889 133.985 53.0272 134.059C51.7654 134.133 50.0603 136.332 50.5093 141.395C50.9583 146.458 54.1355 146.953 55.9883 147.322C57.8411 147.691 75.1078 147.617 76.2957 147.322C77.4835 147.027 78.9556 146.208 78.9101 141.395Z" fill="#09060F"/>
<path d="M64.529 140.958C64.529 140.958 65.8931 144.003 63.5344 147.566C61.1398 147.652 58.7422 147.586 56.3561 147.367C55.4034 147.268 54.4729 147.016 53.5995 146.623C52.627 146.217 51.8366 145.469 51.3772 144.52C50.607 143.059 50.2867 141.402 50.4565 139.759C51.3285 138.054 52.8093 136.74 54.6052 136.076C56.4011 135.412 58.381 135.447 60.1521 136.175C61.9232 136.902 63.3562 138.268 64.167 140.003C64.9777 141.737 65.1069 143.713 64.529 145.538C64.3044 146.261 63.9689 146.946 63.5344 147.566L67.0753 147.6C65.9101 147.6 72.1393 147.515 73.1396 147.504C73.5829 147.504 74.7424 147.441 74.7424 147.441C75.3532 146.779 75.811 145.99 76.0834 145.131C76.3558 144.271 76.4361 143.363 76.3186 142.469C76.2012 141.576 75.8889 140.719 75.4038 139.959C74.9187 139.2 74.2726 138.556 73.5113 138.073C72.7499 137.591 71.8918 137.281 70.9977 137.167C70.1036 137.052 69.1952 137.135 68.3368 137.411C67.4784 137.686 66.6909 138.146 66.03 138.759C65.369 139.372 64.8508 140.122 64.512 140.958" fill="#F1FA91"/>
<path d="M87.6492 204.198C83.9044 204.198 80.8687 199.398 80.8687 193.476C80.8687 187.553 83.9044 182.753 87.6492 182.753C91.394 182.753 94.4297 187.553 94.4297 193.476C94.4297 199.398 91.394 204.198 87.6492 204.198Z" fill="#99B5B6"/>
<path d="M98.8848 143.634C98.8848 143.634 104.352 140.082 108.672 143.634" stroke="#99B5B6" stroke-width="0.44" stroke-miterlimit="10" stroke-linecap="round"/>
<path d="M98.2051 154.209C98.2051 154.209 103.167 150.896 107.867 154.209" stroke="#99B5B6" stroke-width="0.44" stroke-miterlimit="10" stroke-linecap="round"/>
<path d="M96.9232 163.449C96.9232 163.449 103.812 161.665 106.625 165.205" stroke="#99B5B6" stroke-width="0.44" stroke-miterlimit="10" stroke-linecap="round"/>
<path d="M94.1551 173.195C94.1551 173.195 101.453 173.257 103.777 178.059" stroke="#99B5B6" stroke-width="0.44" stroke-miterlimit="10" stroke-linecap="round"/>
<path d="M91.205 181.417C91.205 181.417 95.8371 180.639 98.9688 187.31" stroke="#99B5B6" stroke-width="0.44" stroke-miterlimit="10" stroke-linecap="round"/>
<path d="M96.8378 120.773C95.0531 118.397 94.0681 115.516 94.0244 112.545C94.0244 112.545 94.9509 109.937 99.2988 110.994C99.2988 110.994 99.7819 118.585 101.191 120.25L96.8378 120.773Z" fill="#99B5B6"/>
<path d="M114.236 122.609C116.033 120.239 117.028 117.359 117.078 114.386C117.078 114.386 116.152 111.795 111.781 112.829C111.781 112.829 111.298 120.427 109.888 122.092L114.236 122.609Z" fill="#99B5B6"/>
<path d="M108.546 120.552C109.227 117.751 109.557 114.876 109.53 111.994C109.53 111.994 108.603 109.403 104.233 110.437C104.233 110.437 103.192 117.597 104.005 120.063L108.546 120.552Z" fill="#99B5B6"/>
<path d="M100.546 133.235C100.546 133.235 98.1983 130.28 96.9251 123.722C96.6829 122.611 96.5064 121.485 96.3966 120.353C96.4591 119.733 108.736 116.585 114.078 122.552C114.078 122.552 113.51 130.11 108.395 133.849L100.546 133.235Z" fill="#698681"/>
<path d="M57.2485 138.02H59.7891V140.56H57.2485V138.02Z" fill="black"/>
<path d="M70.9243 139.526H73.4648V142.066H70.9243V139.526Z" fill="black"/>
<path d="M71.3086 166.478C71.3086 166.478 68.751 170.115 64.5281 169.819C60.3052 169.524 56.4518 169.359 54.0078 168.325C51.8927 167.704 49.6199 167.92 47.6593 168.927" stroke="black" stroke-width="0.88" stroke-miterlimit="10"/>
<path d="M51.4915 102.424C50.283 102.424 49.3033 101.445 49.3033 100.236C49.3033 99.0282 50.283 98.0487 51.4915 98.0487C52.7 98.0487 53.6797 99.0282 53.6797 100.236C53.6797 101.445 52.7 102.424 51.4915 102.424Z" fill="#698681"/>
<path d="M58.7383 117C58.1018 116.114 57.2288 115.424 56.219 115.01C55.2093 114.596 54.1034 114.474 53.0277 114.658C51.952 114.843 50.9498 115.326 50.1355 116.052C49.3212 116.779 48.7277 117.72 48.4226 118.767" fill="#698681"/>
<path d="M87.9336 191.112C87.9336 191.112 78.4421 179.997 73.5542 178.07C73.5542 178.07 59.476 175.104 41.9138 180.957C41.9138 180.957 36.2814 188.219 33.468 195.163C33.468 195.163 43.1301 190.572 60.4308 188.719C77.7316 186.867 87.9336 191.112 87.9336 191.112Z" fill="#99B5B6"/>
<path d="M88.1741 257.563C89.8337 256.199 90.9193 256.83 89.2142 252.83C87.5091 248.829 48.1732 252.773 45.0472 256.239C39.5626 262.314 45.2689 261.797 45.2689 261.797C45.2689 261.797 86.2303 259.188 88.1741 257.563Z" fill="#99B5B6"/>
<path d="M32.8009 212.04L42.804 260.058C42.804 260.058 51.8977 253.608 63.9241 253.33C75.9505 253.051 89.2444 253.705 89.6934 254.841L90.1367 255.978L88.2441 191.35C88.2441 191.35 77.9625 183.901 59.4 185.35C40.8375 186.799 29.7773 198.016 29.7773 198.016L32.8009 212.04Z" fill="#698681"/>
<path d="M84.2511 197.408C80.9319 195.766 69.8887 191.947 48.1718 199.056C47.7225 199.202 47.3393 199.503 47.0897 199.904C46.8402 200.305 46.7403 200.782 46.8078 201.249L53.6906 248.022C53.7296 248.293 53.824 248.554 53.968 248.787C54.1119 249.02 54.3024 249.221 54.5274 249.377C54.7524 249.533 55.0072 249.641 55.2759 249.695C55.5445 249.748 55.8213 249.746 56.089 249.687C60.6359 248.716 71.8382 246.698 83.1371 247.897C83.4167 247.928 83.6995 247.899 83.9673 247.813C84.235 247.727 84.4817 247.585 84.6912 247.398C84.9008 247.21 85.0685 246.981 85.1836 246.724C85.2987 246.468 85.3586 246.19 85.3594 245.908V199.198C85.36 198.826 85.2565 198.461 85.0607 198.145C84.8648 197.829 84.5844 197.573 84.2511 197.408V197.408Z" fill="#99B5B6"/>
<path d="M33.7781 213.598C30.0333 213.598 26.9976 208.797 26.9976 202.875C26.9976 196.952 30.0333 192.152 33.7781 192.152C37.5229 192.152 40.5586 196.952 40.5586 202.875C40.5586 208.797 37.5229 213.598 33.7781 213.598Z" fill="#99B5B6"/>
<path d="M34.6689 196.038C35.6692 196.925 37.4482 200.26 35.2372 202.857C33.0263 205.454 30.6904 205.801 28.1214 203.994C25.5525 202.187 18.5617 193.993 15.8961 180.991C13.2305 167.989 12.2245 143.327 12.2245 142.6C12.2245 141.872 17.3397 138.111 21.8866 141.543C21.8866 141.543 23.1085 163.983 23.6655 168.654C24.2225 173.325 29.0365 188.759 30.2243 190.771C31.4122 192.782 34.6689 196.038 34.6689 196.038Z" fill="#698681"/>
<path d="M22.543 153.033C22.543 153.033 17.0754 149.481 12.7559 153.033" stroke="#99B5B6" stroke-width="0.44" stroke-linecap="round" stroke-linejoin="round"/>
<path d="M23.2305 163.608C23.2305 163.608 18.263 160.295 13.5684 163.608" stroke="#99B5B6" stroke-width="0.44" stroke-linecap="round" stroke-linejoin="round"/>
<path d="M24.5039 172.842C24.5039 172.842 17.6154 171.058 14.8021 174.604" stroke="#99B5B6" stroke-width="0.44" stroke-linecap="round" stroke-linejoin="round"/>
<path d="M27.2734 182.588C27.2734 182.588 19.9757 182.65 17.6512 187.458" stroke="#99B5B6" stroke-width="0.44" stroke-linecap="round" stroke-linejoin="round"/>
<path d="M30.2227 190.816C30.2227 190.816 25.5962 190.038 22.4589 196.703" stroke="#99B5B6" stroke-width="0.44" stroke-linecap="round" stroke-linejoin="round"/>
<path d="M24.589 130.166C26.3728 127.792 27.3578 124.913 27.4023 121.944C27.4023 121.944 26.4759 119.353 22.1053 120.387C22.1053 120.387 21.6222 127.984 20.2183 129.649L24.589 130.166Z" fill="#99B5B6"/>
<path d="M7.19114 132.008C5.39607 129.637 4.40091 126.758 4.34936 123.785C4.34936 123.785 5.27577 121.188 9.65211 122.228C9.65211 122.228 10.1295 129.82 11.5391 131.491L7.19114 132.008Z" fill="#99B5B6"/>
<path d="M12.8803 129.945C12.2077 127.154 11.8831 124.291 11.9141 121.421C11.9141 121.421 12.8405 118.824 17.2168 119.864C17.2168 119.864 18.2512 127.024 17.4385 129.49L12.8803 129.945Z" fill="#99B5B6"/>
<path d="M20.8666 142.645C20.8666 142.645 23.2196 139.69 24.4871 133.133C24.7316 132.021 24.9081 130.896 25.0156 129.763C24.9815 129.132 12.6766 125.984 7.33975 131.945C7.33975 131.945 7.90811 139.503 13.0233 143.248L20.8666 142.645Z" fill="#698681"/>
<path d="M55.5625 226.326C54.2724 226.326 53.2265 225.281 53.2265 223.991C53.2265 222.701 54.2724 221.655 55.5625 221.655C56.8526 221.655 57.8984 222.701 57.8984 223.991C57.8984 225.281 56.8526 226.326 55.5625 226.326Z" fill="#698681"/>
<path d="M50.74 115.966L55.5312 115.312L52.9736 101.418L50.5297 101.714L50.74 115.966Z" fill="#698681"/>
<path d="M165.87 114.903C166.125 112.255 167.893 113.096 169.03 111.033C170.166 108.971 169.786 106.067 172.627 103.032C175.469 99.9979 186.586 94.071 196.061 98.3613C205.535 102.652 209.57 109.726 207.553 114.903C205.535 120.08 198.834 126.899 197.697 131.32C196.477 135.577 196.522 140.096 197.828 144.327C199.215 148.998 201.108 152.408 201.363 153.419C201.619 154.431 200.102 161.756 192.901 163.523C185.699 165.29 178.629 160.528 178.879 159.545C179.129 158.562 180.903 158.329 180.647 156.431C180.391 154.533 176.89 152.118 174.435 150.663C169.956 148.015 164.102 147.254 160.186 145.992C156.27 144.731 156.776 143.299 158.293 141.532C159.811 139.764 162.715 137.707 163.977 135.451L165.369 127.643C165.369 127.643 164.233 127.263 162.84 124.359C161.448 121.455 163.596 116.403 164.733 115.648L165.87 114.903Z" fill="#F5B182"/>
<path d="M167.512 238.277C167.387 240.044 169.262 241.686 169.018 244.971C168.774 248.255 166.125 256.035 166.125 256.035H207.047C207.297 256.035 212.099 242.965 212.224 241.436C212.349 239.908 206.291 236.259 206.291 236.259C206.291 236.259 178.879 237.015 177.492 236.89C176.105 236.765 167.643 235.123 167.643 235.123L167.512 238.277Z" fill="#2E7780"/>
<path d="M166.374 82.0922C163.851 87.3997 156.775 95.5258 160.185 101.981C163.595 108.436 167.511 110.05 174.587 107.664C181.663 105.277 184.187 101.879 190.501 102.51C196.815 103.14 198.333 102.385 197.446 103.396C196.56 104.408 191.382 108.954 192.013 110.09C192.644 111.227 193.911 109.522 196.435 109.221C198.958 108.919 199.72 109.67 198.202 111.016C196.685 112.363 191.382 117.835 192.013 122.626C192.644 127.416 191.132 127.513 192.649 127.388C194.167 127.263 193.383 120.631 196.628 121.012C199.873 121.393 198.27 128.342 198.145 129.229C198.02 130.115 211.956 127.842 213.218 122.626C214.48 117.409 214.23 110.215 213.218 108.323C212.206 106.431 219.044 102.402 218.515 101.14C217.987 99.8786 213.843 99.6626 212.451 99.2649C211.058 98.8671 213.087 91.5423 212.076 90.9115C211.064 90.2808 206.898 94.6506 205.381 95.3041C203.863 95.9576 203.107 86.9963 190.222 88.3885L180.248 91.6559C180.248 91.6559 181.481 81.5694 182.76 79.9272C184.039 78.2849 180.248 77.2734 179.35 78.1599C178.452 79.0464 169.5 90.258 169.244 90.1444C168.989 90.0307 173.7 77.3757 171.91 77.8303C170.12 78.2849 166.374 82.0922 166.374 82.0922Z" fill="#DB7F2C"/>
<path d="M168.095 127.229C171.52 127.229 174.296 124.453 174.296 121.029C174.296 117.605 171.52 114.829 168.095 114.829C164.671 114.829 161.895 117.605 161.895 121.029C161.895 124.453 164.671 127.229 168.095 127.229Z" fill="white"/>
<path d="M170.259 122.546C170.839 122.546 171.31 122.076 171.31 121.495C171.31 120.914 170.839 120.444 170.259 120.444C169.678 120.444 169.207 120.914 169.207 121.495C169.207 122.076 169.678 122.546 170.259 122.546Z" fill="black"/>
<path d="M180.475 130.257C184.59 130.257 187.926 126.922 187.926 122.808C187.926 118.693 184.59 115.358 180.475 115.358C176.359 115.358 173.023 118.693 173.023 122.808C173.023 126.922 176.359 130.257 180.475 130.257Z" fill="white"/>
<path d="M184.891 124.626C185.588 124.626 186.152 124.061 186.152 123.365C186.152 122.668 185.588 122.103 184.891 122.103C184.194 122.103 183.629 122.668 183.629 123.365C183.629 124.061 184.194 124.626 184.891 124.626Z" fill="black"/>
<path d="M179.51 156.579C180.368 157.869 185.194 160.489 191.133 158.721C197.072 156.954 199.34 154.306 199.34 154.306C199.34 154.306 192.145 167.944 190.877 171.729C189.61 175.513 184.693 228.81 184.313 232.469C184.091 234.999 184.126 237.544 184.415 240.067C184.415 240.067 172.167 239.186 169.763 237.544C167.358 235.902 171.28 213.427 172.036 209.131C172.792 204.835 175.071 190.822 176.458 183.622C177.845 176.422 177.595 157.102 177.595 157.102L179.51 156.579Z" fill="white"/>
<path d="M159.81 231.333C159.242 233.271 157.327 235.583 156.44 238.192C155.553 240.8 155.303 253.892 158.503 254.063C161.703 254.233 161.493 254.103 161.618 253.051C161.618 253.051 162.152 255.285 163.948 255.074C165.744 254.864 165.869 254.103 165.869 253.813C165.869 253.813 166.585 254.949 167.426 254.654C168.267 254.358 170.126 249.773 169.745 247.204C169.364 244.636 169.239 240.51 168.819 239.038C168.398 237.567 167.472 234.026 166.926 233.31C166.381 232.594 159.81 231.333 159.81 231.333Z" fill="#F5B182"/>
<path d="M208.662 230.975C208.093 232.912 206.178 235.225 205.297 237.839C204.416 240.453 204.16 253.54 207.36 253.705C210.56 253.87 210.35 253.75 210.475 252.693C210.475 252.693 211.003 254.927 212.799 254.716C214.595 254.506 214.726 253.75 214.726 253.455C214.726 253.455 215.442 254.591 216.283 254.296C217.124 254 218.977 249.415 218.596 246.846C218.216 244.278 218.096 240.152 217.67 238.68C217.244 237.208 216.323 233.668 215.777 232.952C215.232 232.236 208.662 230.975 208.662 230.975Z" fill="#F5B182"/>
<path d="M194.223 162.068C195.32 160.795 199.674 155.249 199.338 151.334C199.235 149.274 198.827 147.24 198.128 145.299C197.952 144.731 197.446 143.316 199.833 144.452C202.22 145.589 204.255 148.623 205.266 149.76C206.005 150.751 206.561 151.865 206.909 153.05C206.909 153.05 216.003 157.647 219.703 161.722C223.403 165.796 224.085 168.069 225.261 172.109C226.438 176.15 229.643 195.004 229.302 203.255C228.961 211.506 226.608 221.275 225.261 226.156C225.261 226.156 222.885 229.566 221.118 230.64C219.35 231.714 215.542 232.975 211.774 234.151C208.006 235.328 205.812 235.919 205.477 237.436C205.141 238.953 205.141 241.561 204.908 241.982C204.675 242.402 196.866 244.624 191.984 244.204C187.102 243.783 184.68 243.601 183.93 241.664C183.18 239.726 182.793 237.271 183.362 233.708C183.93 230.145 187.067 182.861 187.744 180.502C188.42 178.144 185.658 172.064 194.223 162.068Z" fill="#971F1E"/>
<path d="M192.582 169.649C193.344 168.762 194.48 165.415 197.635 166.239C200.789 167.063 202.375 169.581 203.824 170.91C205.273 172.24 206.728 171.285 206.922 170.086C207.115 168.887 207.121 153.647 206.922 153.039" stroke="#7F1818" stroke-miterlimit="10"/>
<path d="M213.82 161.722C211.973 164.955 210.199 170.927 210.54 177.064C210.881 183.202 212.814 199.459 212.979 201.141C213.143 202.823 213.064 201.647 209.699 211.33C207.634 217.443 206.465 223.822 206.227 230.27" stroke="#7F1818" stroke-miterlimit="10"/>
<path d="M205.444 237.748C204.932 237.405 204.525 236.926 204.268 236.365C204.012 235.805 203.915 235.184 203.989 234.572C204.16 232.64 204.245 230.281 207.274 229.605C210.304 228.929 214.85 227.9 217.755 228.724" stroke="#7F1818" stroke-miterlimit="10"/>
<path d="M176.85 152.237C175.753 154.596 174.332 157.715 172.985 160.409C171.638 163.102 171.03 163.352 169.006 167.228C166.983 171.103 161.356 209.569 160.595 215.888C159.833 222.207 159.839 224.553 158.492 226.576C157.145 228.599 156.218 227.417 156.133 230.281C156.048 233.145 157.315 233.901 157.736 233.901C158.156 233.901 164.397 238.783 165.659 240.067C166.92 241.351 166.795 242.005 169.018 241.334C171.24 240.663 171.553 237.714 171.388 236.367C171.223 235.021 169.785 238.72 171.052 231.736C172.32 224.752 174.673 203.63 176.355 197.141C178.037 190.651 178.981 167.421 179.197 163.932C179.413 160.443 180.55 156.698 180.413 155.789C180.237 154.459 176.85 152.237 176.85 152.237Z" fill="#971F1E"/>
<path d="M172.628 170.848C172.565 172.865 171.81 185.242 170.292 192.947C168.774 200.653 164.608 212.012 164.483 218.075C164.358 224.139 163.347 229.815 164.483 232.469C165.62 235.123 168.86 236.038 170.104 236.1" stroke="#7F1818" stroke-miterlimit="10"/>
<path d="M163.517 227.418C162.17 227.253 159.93 226.883 158.504 227.418" stroke="#7F1818" stroke-miterlimit="10"/>
<path d="M177.094 152.47C175.353 154.526 174.178 157 173.684 159.648C172.882 163.228 170.944 165.961 172.212 166.762C173.479 167.563 173.917 164.194 175.366 164.489C176.815 164.785 177.219 167.33 177.259 167.518" stroke="#7F1818" stroke-miterlimit="10"/>
<path d="M190.752 132.036C193.026 131.951 195.811 137.219 195.214 141.429C194.396 147.26 174.253 153.039 170.166 150.391C168.962 149.607 168.99 148.01 167.325 147.879C164.585 147.669 161.641 146.441 160.209 146.009C154.736 144.367 156.799 143.316 158.316 141.549C159.038 140.708 160.641 139.418 162.505 137.44C165.813 133.928 164.142 130.502 164.96 130.053C166.506 129.257 166.518 132.934 190.752 132.036Z" fill="#F6921E" stroke="#E58423" stroke-width="0.5" stroke-miterlimit="10"/>
<path d="M175.072 134.98C174.703 135.07 174.839 135.445 175.072 135.417C175.306 135.389 175.487 134.883 175.072 134.98Z" fill="black" stroke="black" stroke-width="0.59" stroke-miterlimit="10" stroke-linecap="round"/>
<path d="M176.668 134.883C177.038 134.792 177.083 135.19 176.861 135.269C176.64 135.349 176.253 134.98 176.668 134.883Z" fill="black" stroke="black" stroke-width="0.59" stroke-miterlimit="10" stroke-linecap="round"/>
<path d="M168.5 148.254C168.5 148.254 176.19 149.084 179.771 145.884" stroke="#E58423" stroke-width="0.5" stroke-miterlimit="10" stroke-linecap="round"/>
<path d="M236.392 144.663C234.397 142.782 232.351 142.645 234.875 134.394C237.398 126.143 237.063 116.881 238.916 113.176C240.768 109.471 256.432 96.3439 264.85 100.214C273.267 104.084 280.849 122.944 278.325 126.314C275.802 129.683 270.408 133.701 268.05 137.11C265.691 140.52 263.986 143.464 263.838 148.538C263.69 153.613 263.775 155.278 263.838 155.778C263.991 156.914 264.009 158.806 255.085 158.619C246.162 158.431 244.662 157.795 244.662 157.795C244.662 157.795 246.281 151.271 245.838 149.504L245.651 148.43C245.651 148.43 242.996 147.924 242.871 145.97C242.854 145.97 237.603 145.805 236.392 144.663Z" fill="#F5B182"/>
<path d="M276.641 103.686C277.829 102.509 279 100.844 281.529 102.424C284.058 104.004 284.559 105.879 283.547 107.538C282.535 109.198 280.938 109.311 279.421 108.845C277.903 108.379 275.8 107.203 275.971 105.936C276.082 105.157 276.308 104.399 276.641 103.686V103.686Z" fill="#120E0D"/>
<path d="M245.993 156.954C244.117 157.84 241.088 159.289 239.32 164.784C237.553 170.279 234.33 173.058 236.541 176.468C238.752 179.877 249.738 182.588 253.086 180.445C256.434 178.303 261.106 168.319 262.367 165.034C263.629 161.75 267.232 158.09 267.039 157.647C266.846 157.204 261.736 156.397 260.855 156.579" fill="#F5B182"/>
<path d="M255.297 120.165C255.297 120.165 253.819 117.136 254.16 114.528L254.411 112.886" stroke="black" stroke-miterlimit="10" stroke-linecap="round"/>
<path d="M245.994 173.075C245.216 173.607 244.559 174.299 244.069 175.104C243.579 175.91 243.267 176.81 243.152 177.746" stroke="black" stroke-width="0.59" stroke-miterlimit="10" stroke-linecap="round"/>
<path d="M250.821 118.932C250.821 118.932 249.343 115.903 249.684 113.295L249.934 111.653" stroke="black" stroke-miterlimit="10" stroke-linecap="round"/>
<path d="M247.731 131.695C253.761 131.695 258.649 128.695 258.649 124.995C258.649 121.295 253.761 118.296 247.731 118.296C241.701 118.296 236.812 121.295 236.812 124.995C236.812 128.695 241.701 131.695 247.731 131.695Z" fill="#FFFFFD"/>
<path d="M241.868 126.95C242.546 126.95 243.096 126.401 243.096 125.723C243.096 125.045 242.546 124.495 241.868 124.495C241.19 124.495 240.641 125.045 240.641 125.723C240.641 126.401 241.19 126.95 241.868 126.95Z" fill="black"/>
<path d="M277.911 107.033C277.655 106.277 280.099 97.0144 269.152 90.3659C258.206 83.7173 251.891 81.9443 251.891 81.9443C251.891 81.9443 259.28 90.5307 259.382 90.7864C259.485 91.0421 242.9 86.9961 239.49 89.1839C236.08 91.3717 235.784 92.0252 235.784 92.0252C235.784 92.0252 247.794 94.2414 245.446 93.4572C244.878 93.2583 237.364 94.3834 236.603 102.634C235.841 110.886 237.023 116.778 234.75 121.387C232.476 125.995 230.544 128.433 229.782 129.036C229.021 129.638 234.5 130.314 239.047 126.694C243.593 123.075 248.311 116.591 251.675 112.971C255.04 109.351 264.895 108.09 266.498 108.425C266.498 108.425 261.781 112.886 261.951 115.915C261.951 115.915 266.157 113.392 268.431 114.062C268.431 114.062 266.578 114.63 265.651 118.779C264.725 122.927 267.084 123.552 263.798 129.036C260.513 134.519 259.757 135.701 259.757 135.701C259.757 135.701 264.304 135.951 266.998 133.513C269.692 131.076 269.948 134.86 272.557 134.86C275.166 134.86 279.042 133.32 282.071 129.036C285.1 124.751 288.556 126.274 287.186 119.455C285.817 112.636 286.175 110.113 282.725 108.806C279.275 107.499 277.911 107.033 277.911 107.033Z" fill="#612668"/>
<path d="M279.59 103.163C280.681 100.043 285.313 87.9223 297.101 86.996C308.889 86.0698 313.521 84.8935 318.994 88.428C324.467 91.9626 324.638 96.0029 324.638 96.0029C324.638 96.0029 318.323 93.7298 317.562 93.8151C316.8 93.9003 322.95 97.7929 323.814 102.572C324.678 107.351 326.843 112.59 324.655 118.903C322.467 125.217 318.255 133.553 315.896 138.434C313.538 143.316 312.106 155.101 315.896 159.733C319.687 164.364 325.746 168.995 327.769 169.58L329.787 170.149C329.787 170.149 327.769 172.172 322.211 172.001C316.652 171.831 309.917 170.234 309.247 169.899C308.576 169.563 303.853 171.245 300.068 167.876C296.282 164.506 290.804 159.352 290.718 153.482C290.633 147.612 290.468 142.202 292.656 136.894C294.845 131.587 295.771 130.416 297.203 124.018C298.635 117.619 301.415 108.862 296.112 107.01C290.809 105.157 283.563 106.589 282.471 106.76C281.38 106.93 279.59 103.163 279.59 103.163Z" fill="#612668"/>
<path d="M246.649 157.335C244.649 157.795 240.46 157.499 238.88 158.647C237.3 159.795 233.89 163.835 233.071 166.603C232.253 169.37 230.923 173.803 230.292 175.445C229.661 177.087 227.763 193.754 227.007 197.857C226.251 201.96 225.302 218.126 223.278 220.968C221.255 223.809 230.457 224.894 231.025 225.019C231.593 225.144 234.31 218.644 235.572 211.063C236.372 206.128 235.826 201.07 233.992 196.419C233.486 194.964 238.999 161.443 242.205 159.483C245.41 157.522 246.649 157.335 246.649 157.335Z" fill="#F5B182"/>
<path d="M243.237 156.641C244.942 156.431 245.129 157.335 245.129 157.335C245.129 157.335 242.288 161.375 241.782 162.892C241.276 164.409 239.508 166.739 239.571 170.217C239.633 173.695 239.383 176.274 242.731 177.161C246.078 178.047 248.727 177.036 251.125 173.876C253.524 170.717 256.877 166.239 259.213 162.511C261.549 158.784 263.442 156.766 264.135 156.607C264.829 156.448 267.801 157.016 267.989 157.335C268.176 157.653 266.664 159.227 265.971 160.557C265.278 161.886 263.061 164.909 262.623 168.637C262.186 172.365 261.231 178.547 261.862 181.644C262.493 184.741 263.948 188.526 267.108 188.901C270.268 189.276 272.166 186.384 272.166 186.384C272.166 186.384 265.022 198.317 264.209 199.13C263.396 199.942 256.951 220.473 256.758 221.104C256.565 221.735 253.967 223.019 250.347 222.934C246.726 222.848 242.452 222.746 239.167 221.485C236.962 220.586 234.865 219.443 232.915 218.075C232.915 218.075 235.535 205.005 234.797 202.039C234.058 199.073 232.853 196.794 232.915 195.788C232.915 195.788 231.591 195.47 228.687 190.606C225.782 185.742 224.646 183.412 226.663 180.065C228.681 176.718 235.382 170.404 236.013 168.95C236.644 167.495 243.237 156.641 243.237 156.641Z" fill="#E6E6E6"/>
<path d="M212.039 237.521C212.039 236.447 214.881 230.764 217.154 228.179C219.428 225.593 220.752 222.115 224.48 221.86C228.209 221.604 230.477 222.996 231.232 224.201C231.988 225.406 228.016 238.089 226.879 240.237C225.742 242.385 224.225 244.101 223.469 244.255C222.713 244.408 212.039 237.521 212.039 237.521Z" fill="#5F8E84"/>
<path d="M233.296 216.371C229.886 220.723 229.118 226.105 227.476 233.043C225.833 239.982 224.316 252.932 224.822 256.035H277.491C277.491 256.035 278.435 222.684 278.247 221.167C278.06 219.649 233.296 216.371 233.296 216.371Z" fill="#131313"/>
<path d="M199.764 255.114C199.65 252.926 203.555 246.232 205.914 243.664C208.272 241.095 211.302 236.93 214.166 236.975C217.031 237.021 221.492 239.754 222.038 242.192C222.626 244.617 222.504 247.16 221.686 249.517C220.816 252.085 220.356 252.358 220.356 254.631C220.356 256.904 217.787 258.461 217.071 256.779C216.354 255.097 217.235 251.528 215.258 252.949C213.28 254.37 208.528 259.41 203.64 258.382C200.674 257.734 199.935 258.251 199.764 255.114Z" fill="#F5B182"/>
<path d="M238.371 241.624C242.793 245.096 244.811 245.664 245.697 245.726C246.584 245.789 246.646 246.363 246.646 246.363" stroke="black" stroke-width="0.59" stroke-miterlimit="10" stroke-linecap="round"/>
<path d="M246.141 242.823C246.141 242.823 247.215 249.897 247.908 252.42C248.214 253.647 248.594 254.854 249.045 256.035" stroke="black" stroke-width="0.59" stroke-miterlimit="10" stroke-linecap="round"/>
<path d="M267.842 230.349C267.143 232.131 269.086 234.655 269.198 235.899C269.31 237.143 266.562 237.143 266.52 238.15C266.478 239.156 268.191 239.471 270.366 240.135C272.54 240.799 272.694 243.742 274.211 243.98C275.728 244.217 280 243.938 280.734 241.883C281.322 239.748 281.699 237.562 281.86 235.354C281.86 235.158 279.182 235.354 279.182 235.354C279.182 235.354 278.56 239.786 277.588 239.82C276.616 239.855 274.33 234.033 273.589 233.257C272.848 232.481 267.842 230.349 267.842 230.349Z" fill="#E58525"/>
<path d="M269.276 237.842C269.758 237.556 269.975 238.073 269.975 237.493C269.975 236.913 269.626 236.095 270.171 236.032C270.716 235.969 270.912 235.857 271.667 236.654C272.422 237.451 273.296 238.716 273.764 238.968C273.308 239.201 272.788 239.281 272.282 239.198C271.583 239.024 270.269 239.121 269.661 238.618C269.052 238.115 269.038 237.975 269.276 237.842Z" fill="#CB7825"/>
<path d="M237.274 167.717C238.721 166.892 238.931 166.682 241.518 166.787C244.105 166.892 247.321 168.653 249.208 171.24C251.096 173.826 255.731 182.011 258.213 187.184C260.695 192.357 261.01 194.125 261.709 194.23C262.408 194.335 269.994 191.539 277.866 193.608C285.739 195.677 300.659 202.101 306.531 203.758C312.404 205.415 310.677 206.142 316.473 205.624C322.269 205.107 325.562 204.17 325.276 205.1C324.989 206.03 323.178 207.484 324.241 208.001C325.303 208.518 327.869 208.316 325.8 209.763C323.73 211.21 316.166 215.46 314.614 218.361C313.061 221.261 310.468 227.574 304.665 230.887C298.862 234.2 284.159 239.792 280.195 238.863C276.23 237.933 273.902 235.962 270.358 233.48C266.813 230.999 258.961 225.791 254.816 221.464C250.67 217.137 249.083 218.801 247.565 209.763C247.565 209.763 244.769 203.241 246.006 192.679C247.244 182.116 241.35 179.523 239.714 178.901C238.078 178.279 235.568 177.559 235.358 175.797C235.149 174.036 237.274 167.717 237.274 167.717Z" fill="white"/>
<path d="M226.711 169.534C227.089 169.024 229.613 169.142 231.654 168.653C233.696 168.164 234.451 167.255 236.164 167.199C237.877 167.143 238.597 167.898 238.443 168.961C238.289 170.023 237.457 171.268 236.94 172.561C236.422 173.854 236.884 175.042 235.982 175.301C235.08 175.559 233.444 175.147 231.836 174.245C230.454 173.415 229.138 172.481 227.9 171.449C226.397 170.282 226.243 170.149 226.711 169.534Z" fill="#F6921E"/>
<path d="M271.458 196.299C277.981 196.097 284.924 197.236 291.237 200.962C297.55 204.688 296.131 204.688 299.319 208.106C302.507 211.524 303.36 212.349 305.325 215.145C307.29 217.941 305.737 219.807 303.36 220.43C300.983 221.052 295.593 222.918 291.342 222.296C287.091 221.674 284.407 219.08 280.261 218.878C276.115 218.675 271.458 218.563 269.906 217.011C268.354 215.46 264.208 212.454 263.481 209.036C262.754 205.617 263.481 200.549 266.383 198.55C267.901 197.458 269.629 196.692 271.458 196.299Z" fill="#F1F1F1"/>
<path d="M283.312 207.617C283.543 207.421 285.899 209.483 288.954 208.392C292.01 207.302 291.912 206.841 293.618 206.946C295.324 207.05 298.512 209.168 298.693 209.378C298.875 209.588 297.141 209.224 295.379 208.91C293.634 208.464 291.788 208.629 290.15 209.378C287.815 210.308 287.815 211.657 285.382 210.462C282.949 209.266 283.081 207.784 283.312 207.617Z" fill="white"/>
<path d="M291.752 212.768C292.101 212.768 296.107 215.928 299.107 216.543C302.106 217.158 303.358 217.585 303.302 217.787C303.246 217.99 298.694 218.486 296.471 217.424C294.248 216.361 292.115 215.564 291.752 214.32C291.388 213.076 291.402 212.768 291.752 212.768Z" fill="white"/>
<path d="M295.108 210.538C295.29 210.49 297.206 212.768 300.079 213.544C302.953 214.32 303.575 214.369 303.295 214.684C302.725 215.005 302.091 215.199 301.438 215.253C300.785 215.306 300.128 215.216 299.513 214.991C297.856 214.369 295.78 213.852 295.367 212.768C294.955 211.685 294.941 210.594 295.108 210.538Z" fill="white"/>
<path d="M311.953 208.903C313.925 209.092 315.784 209.196 317.602 207.952C319.42 206.708 320.399 206.24 320.553 206.498C320.706 206.757 320.762 208.302 319 208.903C317.239 209.504 315.945 209.972 314.491 209.972C313.546 209.924 312.648 209.545 311.953 208.903V208.903Z" fill="white"/>
<path d="M241.967 170.89C242.342 170.89 242.645 170.586 242.645 170.212C242.645 169.838 242.342 169.534 241.967 169.534C241.593 169.534 241.289 169.838 241.289 170.212C241.289 170.586 241.593 170.89 241.967 170.89Z" fill="black"/>
<path d="M274.696 235.354C275.898 238.576 276.017 242.071 275.43 242.267C274.842 242.463 269.291 241.918 267.082 242.77C264.873 243.623 262.887 244.364 264.013 244.832C265.138 245.301 267.117 243.938 266.732 245.336C266.348 246.734 266.033 247.936 267.543 247.51C269.053 247.083 269.102 247.16 269.99 248.013C270.878 248.866 270.074 249.684 272.249 248.558C274.423 247.433 276.751 246.189 277.681 244.56C278.611 242.931 278.464 238.115 278.191 236.717C277.919 235.319 274.696 235.354 274.696 235.354Z" fill="#F6921E"/>
<path d="M270.689 243.141C269.549 243.239 267.892 242.945 267.41 243.372C266.928 243.798 268.752 243.686 268.361 244.071C267.969 244.455 267.718 245.035 268.592 244.707C269.367 244.295 270.074 243.767 270.689 243.141V243.141Z" fill="#CB7825"/>
<path d="M272.361 244.595C271.738 244.944 269.257 245.336 269.277 245.839C269.298 246.342 270.326 245.741 270.676 246.426C271.025 247.111 271.634 247.685 271.885 247.181C272.124 246.336 272.283 245.47 272.361 244.595V244.595Z" fill="#CB7825"/>
<path d="M240.996 170.072C240.968 170.298 241.015 170.526 241.129 170.722C241.25 170.923 241.438 171.074 241.659 171.15C241.881 171.225 242.122 171.22 242.34 171.135C242.558 171.05 242.739 170.89 242.851 170.685C242.963 170.479 242.999 170.241 242.952 170.011C242.905 169.782 242.779 169.577 242.595 169.431C242.412 169.286 242.183 169.211 241.949 169.218C241.715 169.225 241.491 169.315 241.316 169.471C241.142 169.628 241.029 169.84 240.996 170.072V170.072Z" fill="black"/>
<path d="M241.127 170.722L240.155 169.744C240.139 169.727 240.127 169.705 240.121 169.682C240.115 169.658 240.116 169.634 240.123 169.611C240.13 169.588 240.144 169.567 240.162 169.551C240.18 169.535 240.202 169.524 240.225 169.52L241.68 169.268L241.127 170.722Z" fill="black"/>
<path d="M226.711 169.534C226.9 169.275 228.452 171.121 231.095 172.057C233.598 172.938 237.198 171.911 236.94 172.561C236.422 173.854 236.884 175.042 235.982 175.301C235.08 175.56 233.444 175.147 231.836 174.245C230.454 173.415 229.138 172.481 227.9 171.449C226.397 170.282 226.243 170.149 226.711 169.534Z" fill="#CB7825"/>
<path d="M269.442 189.759C266.032 192.157 259.689 186.747 259.337 183.349C258.831 178.462 265.276 157.568 267.379 157.289C269.482 157.011 272.977 158.09 275.126 160.363C277.274 162.636 287.374 175.644 290.784 178.547C294.194 181.451 305.436 189.157 306.954 195.22C308.471 201.283 308.596 209.233 308.596 214.916C308.596 220.598 308.971 231.713 307.459 234.236C305.948 236.759 303.794 241.436 300.639 242.448C297.485 243.459 295.081 244.465 293.944 244.215C293.659 244.185 293.385 244.089 293.144 243.935C292.902 243.781 292.699 243.574 292.552 243.328C291.639 243.556 290.685 243.556 289.772 243.328C289.347 243.237 288.946 243.054 288.598 242.793C288.25 242.532 287.962 242.199 287.755 241.817C287.755 241.817 284.975 241.311 284.85 240.425C284.725 239.538 288.135 238.277 289.903 237.271C291.671 236.265 293.313 233.356 293.313 232.725C292.137 232.916 290.931 232.691 289.903 232.088C288.26 231.083 286.999 229.565 287.755 229.06C288.511 228.554 291.671 230.321 292.807 229.06C293.944 227.798 294.7 226.156 296.723 225.906L298.741 225.65C298.741 225.65 291.04 198.942 290.954 198.203C290.954 198.203 279.502 191.049 276.132 187.85C272.761 184.651 272.471 184.4 272.471 184.4C272.471 184.4 272.852 187.372 269.442 189.759Z" fill="#F5B182"/>
<path d="M216.396 235.498C216.93 235.498 217.362 235.065 217.362 234.532C217.362 233.998 216.93 233.566 216.396 233.566C215.862 233.566 215.43 233.998 215.43 234.532C215.43 235.065 215.862 235.498 216.396 235.498Z" fill="#102B3C"/>
<path d="M219.802 237.169C220.336 237.169 220.768 236.736 220.768 236.202C220.768 235.669 220.336 235.236 219.802 235.236C219.269 235.236 218.836 235.669 218.836 236.202C218.836 236.736 219.269 237.169 219.802 237.169Z" fill="#102B3C"/>
<path d="M223.424 224.929L219.092 230.451C218.476 231.236 218.613 232.372 219.399 232.988C220.184 233.604 221.32 233.467 221.936 232.682L226.268 227.16C226.884 226.374 226.747 225.239 225.962 224.623C225.176 224.007 224.04 224.144 223.424 224.929Z" fill="#102B3C"/>
<path d="M255.088 134.218C257.362 134.121 260.607 140.202 260.01 144.412C259.192 150.237 244.307 155.488 240.22 152.834C239.015 152.05 239.049 150.459 237.378 150.328C234.639 150.112 231.695 148.885 230.268 148.458C224.795 146.816 226.858 145.759 228.37 143.992C229.097 143.151 230.694 141.867 232.559 139.883C235.866 136.377 234.196 132.951 235.014 132.496C236.56 131.689 237.066 134.985 255.088 134.218Z" fill="#F6921E" stroke="#E58423" stroke-width="0.5" stroke-miterlimit="10"/>
<path d="M242.86 137.429C242.49 137.514 242.621 137.889 242.86 137.861C243.098 137.832 243.269 137.326 242.86 137.429Z" fill="black" stroke="black" stroke-width="0.59" stroke-miterlimit="10" stroke-linecap="round"/>
<path d="M244.451 137.326C244.82 137.241 244.871 137.633 244.644 137.713C244.417 137.792 244.036 137.423 244.451 137.326Z" fill="black" stroke="black" stroke-width="0.59" stroke-miterlimit="10" stroke-linecap="round"/>
<path d="M238.551 150.697C238.551 150.697 246.246 151.527 249.821 148.328" stroke="#E58423" stroke-width="0.5" stroke-miterlimit="10" stroke-linecap="round"/>
</g>
</g>
<defs>
<linearGradient id="paint0_linear_1018_650" x1="0" y1="126" x2="320" y2="126" gradientUnits="userSpaceOnUse">
<stop stop-color="#F5F7FA"/>
<stop offset="1" stop-color="#C3CFE2"/>
</linearGradient>
<clipPath id="clip0_1018_650">
<rect width="324" height="252" fill="white" transform="translate(-2)"/>
</clipPath>
<clipPath id="clip1_1018_650">
<rect width="740" height="179" fill="white" transform="translate(-135 73)"/>
</clipPath>
</defs>
</svg>
