<svg width="811" height="712" viewBox="0 0 811 712" fill="none" xmlns="http://www.w3.org/2000/svg">
<g clip-path="url(#clip0_1031_644)">
<g clip-path="url(#clip1_1031_644)">
<path d="M568.633 54.3692C549.963 38.5921 526.585 32.1026 481.067 24.353C435.55 16.6033 413.558 -2.83947 380.875 8.40266C348.191 19.6448 296.53 62.0817 291.679 95.3492C286.828 128.617 298.987 133.346 293.807 154.664C288.626 175.981 275.803 203.348 291.369 232.114C306.935 260.879 305.178 268.595 326.839 304.086C348.499 339.577 350.482 327.282 363.962 351.814C377.441 376.345 386.734 374.049 406.563 409.45C426.392 444.851 442.845 464.939 464.462 473.347C486.08 481.756 493.18 486.696 515.788 502.956C538.396 519.216 559.264 505.556 587.937 519.82C616.61 534.084 606.417 526.697 632.823 540.39C659.229 554.083 673.146 551.097 698.819 533.084C724.492 515.07 766.093 490.498 776.649 462.56C787.205 434.622 801.559 404.118 790.933 368.252C780.306 332.386 784.45 332.132 780.083 308.967C775.716 285.802 766.244 263.763 751.533 245.597C736.822 227.431 739.45 220.675 722.472 201.938C705.494 183.201 701.411 172.903 683.563 153.205C665.714 133.507 661.451 126.871 644.067 116.376C626.683 105.881 629.04 104.62 608.354 86.6189C587.668 68.6174 583.615 67.0408 568.633 54.3692Z" fill="#A374DA"/>
<path d="M510.401 265.272C504.843 266.495 497.725 258.64 506.704 259.086C515.683 259.533 521.153 260.298 535.379 265.474C549.605 270.65 569.787 278.198 559.402 265.684C549.016 253.17 526.451 244.054 527.646 240.11C528.841 236.167 519.355 225.698 538.156 240.123C556.957 254.548 581.549 262.773 587.342 277.576C593.135 292.379 613.12 322.863 612.038 344.814C610.957 366.764 620.133 363.218 610.22 381.737C600.307 400.256 590.955 406.822 600.388 408.765C609.821 410.707 622.745 391.359 632.045 375.312C641.345 359.265 648.797 360.132 639.75 340.675C630.702 321.218 628.262 319.588 627.876 307.584C627.489 295.581 638.725 300.614 619.504 284.663C600.282 268.712 556.668 230.051 544.415 224.968C532.162 219.885 526.376 215.574 531.984 213.354C537.592 211.133 538.971 213.698 546.232 218.553C553.493 223.409 561.559 232.312 557.015 223.087C552.471 213.862 543.881 205.434 529.579 201.228C515.278 197.022 508.139 199.658 495.421 194.042C482.704 188.427 476.952 183.131 483.661 178.959C490.371 174.787 519.783 176.736 528.534 181.169C537.284 185.602 542.209 187.842 545.785 186.535C549.36 185.229 541.191 178.309 549.974 182.739C558.757 187.169 558.156 179.14 566.795 186.569C575.435 193.999 569.867 195.221 586.344 206.039C602.822 216.856 615.33 236.975 623.119 241.361C630.908 245.747 601.487 213.288 613.212 218.841C624.937 224.394 623.386 215.335 634.851 236.408C646.316 257.48 646.85 267.531 655.561 272.945C664.272 278.358 676.157 291.465 683.163 301.302C690.17 311.139 727.186 351.99 721.986 366.238C716.786 380.486 718.237 391.56 712.041 375.249C705.845 358.939 708.127 353.048 698.739 340.583C689.352 328.118 676.459 305.47 686.357 327.971C696.256 350.471 701.27 360.215 702.79 390.299C704.31 420.382 706.093 434.979 696.887 449.016C687.682 463.053 685.76 471.496 679.592 464.688C673.423 457.88 669.954 457.209 677.056 445.06C684.158 432.912 693.327 439.844 694.202 421.895C695.077 403.946 701.257 380.226 693.538 394.85C685.818 409.475 691.011 425.74 685.253 420.467C679.496 415.195 684.789 400.905 677.941 408.082C671.093 415.258 676.533 426.514 661.168 444.278C645.803 462.041 632.174 474.364 634.547 476.983C636.919 479.601 652.15 464.846 656.29 462.048C660.43 459.251 668.084 456.121 667.217 463.583C666.349 471.044 669.065 466.675 672.387 470.341C675.709 474.007 670.558 487.257 659.954 489.236C649.35 491.215 641.173 494.81 628.671 494.695C616.169 494.58 590.575 496.844 586.859 490.639C583.144 484.434 589.2 483.75 599.696 483.767C610.193 483.783 622.082 486.37 625.895 480.054C629.708 473.738 635.709 463.532 628.722 463.188C621.735 462.844 621.162 464.316 607.851 470.665C594.539 477.014 590.346 480.805 582.482 478.393C574.619 475.982 566.86 470.624 563.243 472.948C559.627 475.271 561.623 475.369 565.89 480.078C570.156 484.786 570.066 486.792 566.544 487.114C563.021 487.436 557.39 480.159 549.077 476.248C540.765 472.336 526.893 469.657 527.542 476.688C528.192 483.72 540.649 484.838 548.913 489.748C557.176 494.658 565.369 511.066 576.393 510.604C587.418 510.142 590.053 497.273 596.074 507.075C602.095 516.877 603.842 521.962 609.078 517.217C614.315 512.472 621.364 501.316 622.032 508.34C622.701 515.363 617.683 525.631 626.34 522.556C634.996 519.48 632.39 511.351 641.746 514.309C651.101 517.267 654.543 508.435 668.055 498.099C681.567 487.762 681.36 471.747 688.997 479.123C696.634 486.499 699.338 492.64 705.438 480.437C711.537 468.235 711.183 455.205 717.116 446.014C723.049 436.824 732.248 433.256 727.074 426.493C721.899 419.729 717.293 422.004 726.289 411.945C735.285 401.887 734.815 401.359 733.686 393.808C732.557 386.257 732.41 389.242 733.758 382.3C735.105 375.357 724.415 368.832 735.69 363.383C746.965 357.935 753.163 343.736 744.134 344.297C735.106 344.857 732.058 345.703 729.457 337.57C726.855 329.437 722.965 327.249 724.357 319.313C725.748 311.376 731.356 309.156 732.109 314.196C732.861 319.236 733.34 319.755 733.515 326.263C733.691 332.771 741.059 335.64 742.777 331.222C744.495 326.804 741.899 318.667 741.813 310.171C741.726 301.675 741.884 298.663 735.988 296.376C730.092 294.089 727.528 295.459 722.922 287.218C718.315 278.977 721.793 279.658 717.245 270.429C712.696 261.199 708.233 260.484 701.443 256.147C694.652 251.81 695.695 250.856 695.099 242.831C694.503 234.806 691.836 217.187 675.82 207.903C659.804 198.618 632.002 183.74 622.114 181.248C612.226 178.755 597.901 165.051 588.027 162.563C578.152 160.076 547.892 144.581 539.96 143.195C532.028 141.808 536.197 148.504 542.513 152.317C548.829 156.13 583.406 163.846 578.584 171.076C573.761 178.306 537.554 151.044 545.621 159.947C553.687 168.849 577.814 176.541 579.037 182.1C580.259 187.659 570.242 188.171 556.759 177.501C543.276 166.831 533.775 156.385 534.998 161.943C536.22 167.502 551.749 177.273 539.072 170.649C526.395 164.026 521.224 157.267 516.855 154.551C512.486 151.834 508.216 147.121 518.05 150.607C527.884 154.093 542.476 152.306 527.181 148.055C511.886 143.804 495.069 139.97 487.853 134.111C480.637 128.252 486.29 125.028 494.607 128.945C502.923 132.861 505.865 134.002 505.865 134.002C509.732 126.683 516.92 123.03 504.038 120.399C491.155 117.768 502.319 124.817 488.786 115.155C475.254 105.492 465.654 107.507 456.151 107.544C446.648 107.58 442.946 101.39 444.762 94.9755C446.579 88.5611 443.687 86.422 430.187 86.2574C416.687 86.0929 421.154 86.8132 407.14 87.1236C393.125 87.4339 390.461 80.3031 380.75 94.8247C371.038 109.346 377.116 107.654 371.683 116.391C366.249 125.129 367.842 113.196 359.431 111.281C351.021 109.366 350.322 103.332 342.207 115.445C334.092 127.557 327.284 133.735 327.699 156.246C328.114 178.757 335.417 172.131 333.006 190.519C330.595 208.906 333.107 219.036 336.837 234.72C340.568 250.404 352.148 258.984 358.496 272.304C364.844 285.625 358.851 285.325 356.854 285.227C354.858 285.128 351.291 286.453 356.559 291.216C361.828 295.978 363.17 289.04 377.205 308.738C391.239 328.436 397.162 340.234 399.502 333.346C401.843 326.457 392.128 310.473 383.162 299.525C374.195 288.578 361.862 274.967 367.001 272.218C372.139 269.469 398.86 295.791 404.867 305.597C410.874 315.404 398.113 310.764 408.552 322.284C418.992 333.805 420.848 326.392 426.629 341.181C432.409 355.97 426.513 353.683 439.239 359.308C451.966 364.933 458.404 366.728 455.166 361.088C451.928 355.448 448.196 350.239 455.935 355.623C463.675 361.007 475.501 364.587 466.535 353.639C457.568 342.691 447.165 340.682 429.989 323.831C412.813 306.98 413.73 298.52 407.386 285.205C401.042 271.889 392.403 264.459 393.531 272.019C394.66 279.579 400.837 286.397 395.354 285.617C389.87 284.838 386.419 284.177 375.429 263.628C364.438 243.079 363.814 215.027 360.43 222.879C357.046 230.731 354.571 230.095 350.318 214.876C346.064 199.658 348.977 191.305 352.773 195.495C356.569 199.684 362.783 205.489 365.303 215.637C367.823 225.786 371.871 234.472 369.574 220.35C367.276 206.229 363.52 201.041 364.164 188.069C364.807 175.098 365.42 172.626 371.011 160.867C376.603 149.107 374.953 151.564 377.54 139.685C380.126 127.805 376.558 118.614 384.753 115.029C392.948 111.444 399.689 106.264 397.206 116.143C394.722 126.022 378.636 137.737 385.604 138.099C392.572 138.46 381.137 137.379 403.53 129.476C425.924 121.573 429.173 116.74 442.619 117.898C456.066 119.056 460.93 111.804 456.061 119.06C451.192 126.315 430.198 126.291 425.338 133.556C420.477 140.822 415.818 144.09 410.144 157.823C404.469 171.557 411.183 167.38 415.511 160.589C419.838 153.798 421.391 142.872 429.372 143.261C437.353 143.649 441.7 136.841 447.492 141.128C453.285 145.416 445.487 141.021 449.664 147.735C453.841 154.449 453.586 159.43 461.49 151.314C469.394 143.199 467.169 137.595 478.046 140.127C488.924 142.66 500.149 138.219 496.291 145.528C492.434 152.838 473.518 150.906 463.666 157.926C453.815 164.945 435.923 162.067 426.938 182.623C417.952 203.18 415.159 208.555 416.86 214.642C418.562 220.73 432.398 183.397 440.661 188.307C448.925 193.217 433.795 216.454 430.715 227.827C427.635 239.201 426 262.607 436.026 262.105C446.053 261.603 454.84 276.553 460.594 291.323C466.347 306.092 462.005 303.395 474.387 316.007C486.769 328.62 475.516 323.567 495.507 334.053C515.498 344.539 541.85 357.844 547.775 339.133C553.699 320.423 552.737 309.851 545.145 301.472C545.145 301.472 536.625 281.545 531.765 288.81C526.904 296.075 535.773 309.011 538.374 317.144C540.976 325.277 540.905 336.775 526.984 335.085C513.064 333.394 515.615 342.534 505.275 329.017C494.934 315.5 497.687 320.643 493.76 308.943C489.834 297.242 491.23 289.311 483.915 285.449C476.601 281.586 478.499 283.681 471.811 277.352C465.123 271.024 475.079 282.012 478.957 294.71C482.834 307.409 487.019 303.608 481.254 308.832C475.488 314.056 467.251 298.641 464.699 289.51C462.147 280.379 457.21 279.139 459.649 270.254C462.087 261.369 461.052 251.817 473.623 250.917C486.193 250.016 483.85 246.417 490.493 253.749C497.137 261.08 503.399 265.887 494.268 268.439C485.137 270.991 481.771 268.328 484.417 275.458C487.063 282.588 495.912 286.039 497.502 294.109C499.092 302.178 495.117 301.992 497.905 306.14C500.694 310.289 500.654 311.279 501.374 306.812C502.095 302.344 501.195 300.299 504.566 302.966C507.936 305.634 501.751 309.332 507.931 305.638C514.112 301.945 509.323 297.702 514.117 301.94C518.911 306.179 519.431 305.7 520.936 315.78C522.44 325.86 516.358 327.557 520.825 328.277C525.292 328.998 534.178 331.427 532.717 320.362C531.256 309.298 530.648 301.24 525.245 299.487C519.841 297.733 520.63 301.761 516.355 297.043C512.08 292.325 514.081 292.428 516.797 288.059C519.514 283.691 521.801 277.804 517.579 272.093C513.358 266.382 510.401 265.272 510.401 265.272Z" fill="#A071EA"/>
<path d="M439.333 23.6744C426.738 18.4642 425.702 11.5283 404.069 12.7578C382.436 13.9873 376.251 9.09282 354.496 31.43C332.741 53.7672 331.016 42.2074 318.464 64.0798C305.912 85.9522 314.318 92.3331 305.925 104.313C297.533 116.292 314.765 139.172 303.7 158.823C292.634 178.474 292.709 186.28 293.909 199.191C295.109 212.102 307.851 260.924 322.907 281.402C337.964 301.88 322.456 290.56 339.479 308.381C356.502 326.202 344.013 309.522 358.634 329.52C373.255 349.517 369.592 349.337 383.042 365.146C396.492 380.955 410.287 399.076 417.149 390.234C424.01 381.393 434.729 387.428 413.697 367.115C392.666 346.801 387.891 359.877 379.651 331.473C371.411 303.068 377.777 304.3 356.145 277.531C334.514 250.762 315.75 231.019 325.913 229.684C336.077 228.348 329.773 216.563 353.49 247.566C377.208 278.568 377.898 283.192 392.896 286.226C407.893 289.259 427.108 299.845 410.701 278.841C394.294 257.837 395.841 245.062 380.108 238.32C364.376 231.578 350.039 224.446 341.619 199.705C333.198 174.964 329.057 147.22 339.852 133.064C350.647 118.908 320.564 86.6738 337.363 81.0753C354.163 75.4768 344.254 80.9557 366.113 75.1474C387.972 69.339 366.638 73.7963 393.662 56.3085C420.686 38.8208 410.207 46.5665 430.985 34.7381C451.763 22.9096 439.333 23.6744 439.333 23.6744Z" fill="#A784D8"/>
<path d="M709.562 203.138C693.29 179.387 702.959 160.127 675.576 156.942C648.194 153.758 664.632 155.485 647.429 141.327C630.225 127.169 634.969 133.37 626.053 118.702C617.136 104.034 619.328 96.7982 599.678 85.7325C580.027 74.6669 576.125 60.705 562.043 57.7165C547.962 54.728 541.912 47.0862 544.028 60.0422C546.144 72.9982 544.222 74.7395 538.682 75.3846C533.143 76.0298 515.608 77.9201 538.577 86.8542C561.545 95.7883 567.342 71.2882 584.259 100.579C601.176 129.87 599.239 141.249 616.622 151.744C634.006 162.239 641.332 162.6 648.192 181.756C655.051 200.913 657.722 221.24 679.294 230.564C700.867 239.889 709.244 237.547 713.685 268.518C718.127 299.49 732.177 321.754 739.848 324.427C747.52 327.1 758.989 327.206 758.105 307.884C757.22 288.563 764.817 283.429 744.792 261.33C724.767 239.23 725.983 242.502 717.772 222.82L709.562 203.138Z" fill="#A784D8"/>
<path d="M782.856 373.821C770.852 356.973 781.787 414.16 764.776 442.698C747.764 471.235 760.03 464.495 728.067 489.084C696.103 513.672 705.441 510.46 679.123 522.934C652.806 535.407 637.853 531.458 638.934 537.478C640.014 543.498 637.387 550.254 660.206 543.575C683.026 536.896 709.779 524.903 730.573 503.436C751.367 481.969 781.738 471.072 781.905 449.049C782.071 427.026 800.537 415.542 794.459 399.178C788.38 382.814 789.295 382.859 782.856 373.821Z" fill="#A784D8"/>
<path d="M664.016 373.017C664.408 346.415 677.335 335.577 663.179 324.782C649.023 313.987 638.081 284.531 636.653 304.198C635.226 323.864 642.881 336.175 638.181 357.057C633.48 377.939 630.927 392.501 605.164 412.346C579.401 432.191 560.755 447.337 579.911 440.478C599.068 433.618 629.409 413.999 636.151 398.266C642.893 382.534 652.156 371.515 653.702 386.738C655.247 401.961 665.154 424.48 664.585 398.749L664.016 373.017Z" fill="#A784D8"/>
<path d="M444.853 88.6642C459.301 84.1983 434.285 70.243 412.095 92.0997C389.905 113.956 380.747 113.505 379.981 129.073C379.214 144.641 387.801 147.359 389.123 139.163C390.444 130.966 392.246 122.334 405.128 112.411C418.009 102.489 420.157 96.1687 430.756 95.3137C441.354 94.4588 434.599 91.8311 444.853 88.6642Z" fill="#A784D8"/>
<path d="M563.751 106.913C548.979 99.3003 550.675 102.138 536.819 94.5705C522.963 87.0032 517.169 83.5049 521.251 93.8038C524.313 101.528 526.072 109.445 521.93 108.814C520.555 108.6 518.514 107.439 515.651 105.003C504.197 95.2588 502.546 91.5056 495.82 97.6002C489.094 103.695 484.17 101.157 493.582 105.752C502.995 110.346 532.403 128.318 529.613 101.101C529.613 101.101 533.141 104.028 546.742 107.452C560.343 110.876 563.751 106.913 563.751 106.913Z" fill="#A784D8"/>
<path d="M606.923 162.282C621.079 173.077 643.403 176.471 630.357 180.419C617.31 184.366 611.171 178.556 608.288 181.168C605.406 183.78 601.037 188.614 620.913 195.1C640.789 201.587 648.086 193.226 642.907 186.545C637.728 179.864 642.938 167.269 627.07 163.274C611.202 159.28 606.923 162.282 606.923 162.282Z" fill="#A784D8"/>
<path d="M464.111 126.332C449.985 124.259 454.414 108.872 427.871 125.924C401.328 142.977 393.041 143.486 390.397 159.88C387.754 176.274 392.903 174.232 399.104 169.489C405.304 164.745 403.714 150.438 426.489 144.675C449.263 138.912 457.595 137.486 461.919 133.568C466.243 129.65 464.111 126.332 464.111 126.332Z" fill="#A784D8"/>
<path d="M582.692 178.989C580.446 177.805 578.297 176.611 576.203 175.429C565.772 169.518 556.81 163.789 545.522 160.176C531.966 155.836 543.826 157.338 526.742 150.071C509.658 142.804 517.449 152.367 501.897 141.963C486.345 131.558 478.973 132.113 485.894 140.715C492.814 149.318 500.275 146.932 512.345 153.493C524.415 160.054 519.671 153.854 535.778 171.63C551.885 189.406 572.346 211.986 572.797 202.828C573.248 193.671 545.716 174.873 552.217 173.357C558.717 171.842 582.692 178.989 582.692 178.989Z" fill="#A784D8"/>
<path d="M427.73 212.667C430.148 200.852 434.187 184.068 445.296 191.5C456.405 198.932 453.042 201.98 447.606 219.154C442.171 236.328 444.841 256.655 439.182 250.409C433.523 244.163 430.25 245.379 435.07 231.388C439.89 217.397 449.589 206.858 442.218 207.413C434.846 207.968 427.73 212.667 427.73 212.667Z" fill="#A784D8"/>
<path d="M606.971 347.717C604.045 323.246 611.506 320.86 599.452 304.661C587.398 288.461 584.351 285.098 586.992 296.703C589.634 308.308 599.407 305.576 594.091 329.641C588.775 353.706 595.276 352.19 578.041 357.308C560.806 362.426 545.583 363.971 553.599 368.956C561.616 373.941 551.797 377.588 573.611 372.696C595.425 367.803 593.758 373.688 600.364 360.703L606.971 347.717Z" fill="#A784D8"/>
<path d="M583.408 248.332C576.368 232.839 590.059 234.431 569.703 228.38C549.346 222.328 559.81 224.221 540.73 210.888C521.65 197.556 495.679 184.343 509.264 197.405C522.85 210.466 547.395 215.347 530.325 226.44C513.255 237.533 511.678 241.587 521.826 249.889C531.974 258.192 536.914 251.091 549.223 271.434C561.531 291.777 570.358 308.277 568.377 292.573C566.397 276.87 559.131 265.955 567.493 273.252C575.854 280.549 581.033 287.23 581.619 275.325C582.206 263.42 583.408 248.332 583.408 248.332Z" fill="#A784D8"/>
<path d="M562.53 401.984C549.085 396.039 534.006 403.334 507.825 385.061C481.644 366.789 487.123 376.698 476.765 363.336C466.408 349.974 465.463 341.207 460.523 348.307C455.583 355.408 442.853 352.945 460.537 366.668C478.221 380.391 482.574 385.195 499.658 392.462C516.741 399.729 542.367 410.63 552.921 410.691C563.475 410.752 580.049 409.732 562.53 401.984Z" fill="#A784D8"/>
<path d="M512.849 460.125C527.246 456.703 543.175 450.143 529.664 444.888C516.153 439.633 520.326 448.1 513.241 433.522C506.156 418.945 514.218 423.014 498.005 416.707C481.791 410.401 482.182 411.797 467.89 403.749C453.599 395.702 450.642 390.507 446.679 387.099C442.716 383.691 430.211 376.649 449.561 384.487C468.912 392.325 491.4 401.694 470.534 387.356C449.667 373.017 441.425 372.611 424.132 360.285C406.838 347.958 414.751 336.414 401.704 340.362C388.658 344.309 381.436 360.477 402.032 380.31C422.628 400.143 426.514 423.743 448.177 431.236C469.84 438.729 473.022 439.344 488.229 447.437C503.436 455.53 512.849 460.125 512.849 460.125Z" fill="#A784D8"/>
<path d="M706.322 371.429C701.162 352.98 705.528 350.276 691.207 333.506C676.886 316.736 669.47 318.207 678.296 334.706C687.122 351.206 688.473 351.731 693.336 364.823C698.199 377.914 709.053 381.202 706.322 371.429Z" fill="#A784D8"/>
<path d="M543.741 289.524C535.996 279.045 527.83 258.447 522.62 271.042C517.41 283.637 524.736 283.998 522.544 291.234C520.351 298.47 515.892 305.135 524.795 301.443C533.697 297.75 535.919 299.237 540.633 296.715C541.927 296.088 542.953 295.017 543.524 293.697C544.094 292.377 544.171 290.896 543.741 289.524Z" fill="#A784D8"/>
<path d="M524.299 311.516C518.024 308.453 534.462 310.181 515.231 309.234C496 308.286 502.546 305.855 493.043 303.092C483.54 300.329 478.03 309.696 488.268 316.168C498.506 322.639 507.648 332.728 517.212 324.937C526.775 317.146 524.299 311.516 524.299 311.516Z" fill="#A784D8"/>
<path d="M513.208 266.448C508.103 267.573 501.573 260.367 509.815 260.773C518.057 261.179 523.071 261.885 536.147 266.66C549.222 271.434 567.702 278.311 558.17 266.826C548.638 255.341 527.936 246.977 529.032 243.36C530.129 239.742 521.422 230.133 538.67 243.375C555.919 256.617 578.497 264.155 583.796 277.727C589.094 291.299 607.453 319.284 606.46 339.43C605.468 359.577 613.891 356.32 604.792 373.314C595.693 390.307 587.135 396.312 595.767 398.114C604.4 399.916 616.291 382.142 624.819 367.415C633.347 352.688 640.193 353.484 631.892 335.634C623.591 317.783 621.37 316.297 620.995 305.263C620.62 294.228 630.949 298.868 613.31 284.23C595.671 269.591 555.65 234.114 544.406 229.429C533.162 224.744 527.848 220.811 532.997 218.769C538.147 216.728 539.408 219.085 546.073 223.544C552.738 228.003 560.139 236.171 555.966 227.703C551.793 219.236 543.912 211.504 530.791 207.645C517.671 203.786 511.125 206.217 499.446 201.052C487.766 195.887 482.497 191.038 488.652 187.21C494.808 183.382 521.8 185.17 529.862 189.239C537.923 193.308 542.412 195.365 545.685 194.15C548.958 192.934 541.467 186.598 549.528 190.667C557.59 194.736 557.035 187.365 564.961 194.181C572.887 200.997 567.783 202.123 582.9 212.047C598.017 221.971 609.5 240.438 616.646 244.462C623.791 248.485 596.801 218.699 607.564 223.819C618.328 228.939 616.902 220.607 627.425 239.944C637.947 259.28 638.412 268.483 646.428 273.468C654.445 278.453 665.328 290.463 671.768 299.501C678.208 308.539 712.163 346.013 707.389 359.089C702.614 372.164 703.949 382.328 698.26 367.36C692.572 352.392 694.674 346.988 686.057 335.548C677.441 324.107 665.612 303.329 674.694 323.972C683.775 344.615 688.383 353.563 689.777 381.171C691.171 408.779 692.807 422.171 684.369 435.066C675.931 447.961 674.174 455.677 668.515 449.432C662.855 443.186 659.673 442.57 666.189 431.416C672.705 420.263 681.112 426.643 681.924 410.16C682.735 393.676 688.397 371.923 681.31 385.344C674.223 398.765 678.996 413.687 673.727 408.838C668.458 403.989 673.233 390.913 666.942 397.488C660.651 404.063 665.65 414.407 651.537 430.695C637.424 446.982 624.933 458.301 627.109 460.703C629.286 463.105 643.264 449.565 647.062 446.998C650.86 444.431 657.886 441.564 657.09 448.41C656.294 455.256 658.786 451.247 661.834 454.611C664.881 457.974 660.151 470.133 650.423 471.949C640.695 473.765 633.188 477.067 621.719 476.961C610.249 476.856 586.739 478.911 583.347 473.236C579.954 467.561 585.494 466.915 595.132 466.931C604.77 466.947 615.669 469.32 619.167 463.525C622.666 457.73 628.176 448.363 621.766 448.047C615.355 447.732 614.83 449.083 602.609 454.907C590.389 460.731 586.545 464.213 579.309 462.021C572.073 459.829 564.973 454.889 561.655 457.021C558.337 459.152 560.168 459.242 564.086 463.566C568.004 467.89 567.914 469.722 564.686 470.022C561.459 470.322 556.28 463.641 548.654 460.052C541.028 456.464 528.297 454.001 528.897 460.456C529.497 466.912 540.922 467.933 548.503 472.438C556.084 476.942 563.604 492 573.722 491.58C583.841 491.161 586.259 479.346 591.783 488.339C597.307 497.332 598.913 502.001 603.717 497.647C608.521 493.294 614.993 483.056 615.593 489.511C616.193 495.967 611.598 505.379 619.54 502.558C627.482 499.736 625.095 492.274 633.682 494.992C642.269 497.71 645.423 489.604 657.824 480.117C670.225 470.629 670.031 455.932 677.041 462.703C684.051 469.474 686.528 475.104 692.128 463.905C697.729 452.706 697.399 440.756 702.865 432.305C708.33 423.853 716.752 420.596 712.009 414.395C707.265 408.195 703.031 410.281 711.289 401.049C719.546 391.817 719.111 391.337 718.076 384.401C717.04 377.465 716.905 380.212 718.136 373.847C719.368 367.482 709.565 361.491 719.909 356.492C730.253 351.494 735.944 338.464 727.657 338.973C719.37 339.483 716.578 340.264 714.191 332.802C711.805 325.341 708.232 323.329 709.508 316.048C710.785 308.767 715.934 306.726 716.625 311.349C717.315 315.973 717.75 316.454 717.915 322.429C718.08 328.404 724.835 331.032 726.412 326.978C727.988 322.925 725.602 315.464 725.527 307.657C725.453 299.85 725.588 297.103 720.184 295.001C714.779 292.899 712.422 294.16 708.204 286.608C703.986 279.057 707.169 279.672 702.996 271.205C698.823 262.738 694.725 262.077 688.495 258.098C682.265 254.119 683.226 253.249 682.671 245.877C682.116 238.506 679.7 222.322 664.973 213.794C650.246 205.266 624.756 191.618 615.689 189.335C606.621 187.053 593.471 174.471 584.404 172.189C575.336 169.906 547.579 155.687 540.298 154.411C533.017 153.134 536.845 159.29 542.639 162.788C548.434 166.286 580.215 173.36 575.756 180.025C571.297 186.69 538.106 161.647 545.506 169.814C552.907 177.981 575.05 185.039 576.176 190.143C577.301 195.248 568.098 195.712 555.729 185.923C543.359 176.134 534.652 166.526 535.778 171.63C536.904 176.734 551.15 185.698 539.516 179.617C527.881 173.536 523.138 167.336 519.13 164.843C515.121 162.351 511.203 158.027 520.226 161.225C529.248 164.424 542.639 162.788 528.603 158.884C514.566 154.98 499.134 151.466 492.514 146.091C485.893 140.716 491.088 137.759 498.714 141.347C506.34 144.936 509.042 145.987 509.042 145.987C512.586 139.276 519.177 135.929 507.362 133.511C495.547 131.093 505.785 137.564 493.371 128.691C480.956 119.818 472.143 121.679 463.421 121.708C454.699 121.738 451.306 116.063 452.973 110.178C454.64 104.293 451.983 102.326 439.597 102.175C427.212 102.024 431.31 102.685 418.445 102.969C405.579 103.254 403.147 96.7081 394.229 110.039C385.31 123.369 390.895 121.808 385.911 129.825C380.926 137.841 382.383 126.897 374.666 125.14C366.95 123.383 366.305 117.843 358.873 128.952C351.441 140.061 345.195 145.72 345.554 166.392C345.913 187.065 352.639 180.97 350.431 197.844C348.223 214.718 350.519 224.011 353.941 238.408C357.363 252.805 367.991 260.673 373.815 272.893C379.64 285.114 374.145 284.843 372.313 284.753C370.482 284.663 367.209 285.879 372.043 290.248C376.877 294.617 378.108 288.252 390.988 306.328C403.867 324.404 409.301 335.228 411.448 328.908C413.595 322.588 404.679 307.92 396.453 297.876C388.226 287.832 376.908 275.341 381.622 272.819C386.336 270.297 410.85 294.454 416.374 303.447C421.898 312.44 410.173 308.19 419.751 318.76C429.328 329.329 431.04 322.529 436.338 336.101C441.637 349.672 436.233 347.57 447.912 352.735C459.591 357.901 465.476 359.567 462.519 354.373C459.562 349.178 456.124 344.419 463.225 349.359C470.326 354.298 481.179 357.587 472.953 347.543C464.727 337.499 455.179 335.652 439.417 320.188C423.655 304.724 424.496 296.962 418.672 284.741C412.848 272.521 404.922 265.705 405.957 272.64C406.993 279.576 412.652 285.822 407.638 285.116C402.624 284.41 399.441 283.794 389.354 264.938C379.267 246.081 378.698 220.35 375.59 227.541C372.482 234.731 370.215 234.161 366.313 220.199C362.411 206.237 365.083 198.566 368.566 202.409C372.049 206.253 377.753 211.582 380.049 220.875C382.346 230.168 386.083 238.155 383.967 225.199C381.851 212.243 378.414 207.484 379 195.579C379.587 183.674 380.157 181.407 385.277 170.644C390.397 159.88 388.911 162.102 391.284 151.203C393.656 140.304 390.399 131.882 397.906 128.579C405.412 125.277 411.613 120.534 409.33 129.601C407.048 138.668 392.29 149.416 398.7 149.732C405.11 150.048 394.601 149.071 415.154 141.822C435.707 134.572 438.68 130.129 451.02 131.195C463.36 132.262 467.819 125.597 463.36 132.262C458.901 138.927 439.625 138.896 435.166 145.561C430.706 152.226 426.428 155.229 421.217 167.824C416.007 180.419 422.163 176.591 426.141 170.361C430.12 164.131 431.532 154.103 438.858 154.464C446.184 154.825 450.163 148.595 455.477 152.528C460.791 156.462 453.646 152.438 457.473 158.594C461.301 164.749 461.076 169.328 468.327 161.882C475.579 154.436 473.537 149.287 483.521 151.615C493.504 153.942 503.803 149.86 500.259 156.57C496.716 163.28 479.362 161.508 470.324 167.947C461.285 174.387 444.892 171.744 436.619 190.614C428.346 209.484 425.808 214.408 427.369 219.993C428.93 225.578 441.633 191.32 449.214 195.824C456.795 200.328 442.892 221.675 440.084 232.094C437.276 242.512 435.758 264.01 444.961 263.546C454.163 263.081 462.209 276.788 467.508 290.36C472.806 303.931 468.798 301.439 480.162 313.014C491.525 324.59 481.197 319.95 499.542 329.575C517.886 339.199 542.071 351.406 547.506 334.232C552.942 317.058 552.042 307.375 545.077 299.688C545.077 299.688 537.257 281.402 532.797 288.067C528.338 294.732 536.474 306.608 538.861 314.069C541.247 321.531 541.186 332.085 528.411 330.537C515.635 328.99 517.977 337.367 508.489 324.966C499.002 312.565 501.524 317.279 497.922 306.545C494.32 295.811 495.596 288.53 488.886 284.987C482.176 281.443 483.917 283.365 477.777 277.555C471.637 271.744 480.779 281.833 484.336 293.483C487.894 305.133 491.737 301.651 486.452 306.439C481.168 311.228 473.602 297.086 471.261 288.708C468.92 280.331 464.386 279.19 466.623 271.038C468.861 262.887 467.915 254.119 479.43 253.309C490.945 252.5 488.813 249.182 494.908 255.908C501.003 262.634 506.752 267.048 498.375 269.389C489.998 271.731 486.905 269.283 489.337 275.829C491.768 282.375 499.875 285.528 501.346 292.944C502.816 300.36 499.153 300.18 501.72 303.978C504.287 307.777 504.242 308.692 504.903 304.594C505.564 300.496 504.738 298.619 507.831 301.066C510.923 303.514 505.248 306.906 510.923 303.514C516.598 300.121 512.2 296.233 516.598 300.121C520.996 304.01 521.477 303.574 522.857 312.822C524.238 322.07 518.653 323.631 522.751 324.292C526.85 324.953 535.002 327.19 533.666 317.026C532.331 306.863 531.776 299.492 526.807 297.87C521.838 296.248 522.573 299.956 518.655 295.633C514.737 291.309 516.569 291.399 519.061 287.391C521.553 283.382 523.655 277.978 519.783 272.738C515.91 267.499 513.208 266.448 513.208 266.448Z" fill="#9C65EA"/>
<path d="M461.892 311.197C454.446 303.945 438.354 276.531 428.358 255.843C418.361 235.155 423.181 221.164 415.119 217.095C407.058 213.026 403.259 215.593 403.814 222.964C404.369 230.335 409.938 238.412 422.112 261.502C434.285 284.592 435.486 297.503 446.504 306.767C457.523 316.03 461.096 318.042 464.323 317.742C467.551 317.442 461.892 311.197 461.892 311.197Z" fill="#9C65EA"/>
<path d="M569.11 324.28C571.828 315.693 571.199 300.515 564.443 297.888C557.688 295.26 564.457 316.248 562.52 327.627C560.582 339.007 569.11 324.28 569.11 324.28Z" fill="#9C65EA"/>
<path d="M671.24 328.851C667.068 320.384 668.524 309.439 660.689 300.792C652.853 292.144 653.033 288.481 646.758 285.418C640.483 282.355 640.663 278.692 636.82 282.174C632.976 285.657 628.743 287.744 635.663 296.346C642.583 304.949 651.5 319.617 658.465 327.304C665.43 334.991 671.24 328.851 671.24 328.851Z" fill="#9C65EA"/>
<path d="M635.447 375.282C632.894 389.844 634.845 396.825 618.736 407.048C602.627 417.27 605.735 410.079 592.718 422.749C579.701 435.419 574.252 434.232 580.962 437.776C587.672 441.319 593.347 437.927 603.827 430.181C614.306 422.435 633.162 412.348 636.977 400.143C640.791 387.938 641.948 373.766 647.171 379.532C652.395 385.297 661.282 391.242 652.845 404.138C644.407 417.033 642.74 422.918 628.988 431.879C615.236 440.841 607.203 445.494 592.371 448.435C577.538 451.377 563.921 457.591 557.301 452.216C550.681 446.841 555.695 447.547 544.586 440.115C533.478 432.683 524.8 431.797 529.124 427.879C533.448 423.961 550.052 431.663 564.584 425.494C579.117 419.325 582.645 422.253 593.74 411.324C604.835 400.396 604.58 396.253 615.449 389.903C626.319 383.554 628.811 379.545 631.304 375.537C633.796 371.529 635.447 375.282 635.447 375.282Z" fill="#9C65EA"/>
<path d="M567.065 375.127C570.173 367.937 575.203 359.004 564.243 367.186C553.283 375.367 562.006 375.337 544.471 377.228C526.936 379.118 518.304 377.316 517.733 379.583C517.163 381.85 526.456 379.553 522.957 385.348C519.459 391.142 519.459 391.142 509.221 384.671C498.983 378.2 490.141 371.339 497.106 379.026C504.071 386.713 512.868 394.49 524.157 398.259C535.447 402.028 543.463 407.012 556.029 403.5C568.594 399.988 579.644 389.976 572.844 388.264C566.043 386.552 554.948 397.48 556.27 389.283C557.592 381.087 567.065 375.127 567.065 375.127Z" fill="#9C65EA"/>
<path d="M559.557 406.428C546.12 408.979 537.127 414.503 519.308 403.528C501.489 392.552 492.512 388.438 485.847 383.979C479.181 379.52 478.656 380.871 481.223 384.669C483.79 388.468 495.995 392.282 481.478 388.813C466.961 385.344 467.216 389.487 459.47 379.008C451.724 368.529 445.93 365.03 441.186 358.83C436.443 352.629 430.513 351.878 435.737 357.644C440.961 363.409 444.653 372.311 454.02 377.822C463.388 383.332 470.443 389.187 476.193 393.601C481.942 398.016 484.029 402.249 493.832 408.24C503.634 414.231 512.567 419.26 517.055 421.318C521.544 423.375 522.414 424.335 533.929 423.526C545.444 422.716 549.587 422.461 553.431 418.978C557.274 415.495 539.694 418.302 534.245 417.115C528.795 415.929 536.076 417.205 544.018 414.384C551.96 411.562 559.557 406.428 559.557 406.428Z" fill="#9C65EA"/>
<path d="M533.062 366.568C530.768 358.358 527.058 358.01 519.642 359.481C512.225 360.952 510.829 361.342 513.876 364.705C516.924 368.068 523.589 372.527 527.778 371.356C531.966 370.186 534.233 370.756 533.062 366.568Z" fill="#9C65EA"/>
<path d="M496.045 93.0215C492.702 84.5812 494.965 87.0014 481.138 88.1564C467.311 89.3114 460.991 87.1642 455.452 87.8093C449.912 88.4545 446.549 91.5018 452.434 93.1686C458.319 94.8354 460.195 94.0098 473.451 95.1217C486.707 96.2335 498.087 98.1709 496.045 93.0215Z" fill="#9C65EA"/>
<path d="M389.609 54.7319C387.497 47.1876 393.213 37.4677 381.563 41.0249C369.913 44.582 366.986 48.1098 368.366 57.3576C369.747 66.6054 369.011 62.8973 366.774 71.049C364.536 79.2006 361.038 84.9952 370.031 79.4712C379.024 73.9472 378.514 65.6603 384.099 64.0994C385.09 63.8704 386.023 63.4421 386.843 62.8405C387.663 62.2389 388.352 61.4765 388.867 60.6C389.383 59.7235 389.715 58.7512 389.842 57.7423C389.97 56.7334 389.89 55.7091 389.609 54.7319Z" fill="#DFD5EF"/>
<path d="M417.55 23.2901C415.825 24.8529 413.55 25.1519 412.468 23.9578C411.386 22.7638 411.907 20.529 413.632 18.9662C415.356 17.4035 417.631 17.1045 418.713 18.2985C419.795 19.4926 419.274 21.7274 417.55 23.2901Z" fill="#DFD5EF"/>
<path d="M444.36 42.7407C443.299 43.7024 440.879 42.7613 438.956 40.6386C437.033 38.5159 436.334 36.0155 437.395 35.0538C438.457 34.0921 440.876 35.0333 442.8 37.156C444.723 39.2786 445.422 41.779 444.36 42.7407Z" fill="#DFD5EF"/>
<path d="M444.314 57.6557C442.855 58.9781 440.21 58.4368 438.407 56.4468C436.604 54.4568 436.325 51.7716 437.784 50.4493C439.244 49.1269 441.889 49.6682 443.692 51.6582C445.495 53.6482 445.774 56.3334 444.314 57.6557Z" fill="#DFD5EF"/>
<path d="M497.682 92.4135C496.222 93.7359 493.577 93.1946 491.774 91.2046C489.971 89.2146 489.692 86.5294 491.152 85.2071C492.611 83.8847 495.256 84.426 497.059 86.416C498.862 88.406 499.141 91.0912 497.682 92.4135Z" fill="#DFD5EF"/>
<path d="M386.374 92.4862C384.407 92.3893 382.92 90.1365 383.052 87.4542C383.184 84.772 384.886 82.6762 386.853 82.7731C388.82 82.87 390.307 85.1228 390.175 87.8051C390.043 90.4873 388.341 92.5831 386.374 92.4862Z" fill="#DFD5EF"/>
<path d="M366.133 99.6671C364.429 98.6788 364.47 95.4272 366.223 92.4044C367.977 89.3816 370.78 87.7322 372.483 88.7204C374.186 89.7087 374.146 92.9603 372.392 95.9831C370.638 99.0059 367.836 100.655 366.133 99.6671Z" fill="#DFD5EF"/>
<path d="M495.029 43.3047C491.298 42.8446 488.468 40.8871 488.709 38.9326C488.95 36.9781 492.171 35.7666 495.902 36.2267C499.633 36.6868 502.463 38.6443 502.222 40.5988C501.981 42.5533 498.761 43.7648 495.029 43.3047Z" fill="#DFD5EF"/>
<path d="M541.614 66.7129C537.883 66.2528 535.053 64.2953 535.294 62.3408C535.535 60.3863 538.756 59.1748 542.487 59.6349C546.218 60.095 549.048 62.0525 548.807 64.007C548.566 65.9615 545.346 67.173 541.614 66.7129Z" fill="#DFD5EF"/>
<path d="M477.915 55.313C474.184 54.8529 471.467 51.9765 471.848 48.8883C472.229 45.8001 475.563 43.6697 479.294 44.1298C483.025 44.5899 485.742 47.4663 485.361 50.5545C484.98 53.6427 481.646 55.7731 477.915 55.313Z" fill="#DFD5EF"/>
<path d="M396.23 46.1077C394.77 47.43 392.515 47.3189 391.193 45.8596C389.871 44.4003 389.982 42.1453 391.441 40.8229C392.9 39.5006 395.155 39.6116 396.478 41.071C397.8 42.5303 397.689 44.7853 396.23 46.1077Z" fill="#DFD5EF"/>
<path d="M351.729 96.9296C350.668 97.8913 347.079 95.6596 343.713 91.9449C340.347 88.2302 338.479 84.4392 339.54 83.4775C340.602 82.5158 344.191 84.7476 347.557 88.4623C350.923 92.177 352.791 95.9679 351.729 96.9296Z" fill="#DFD5EF"/>
<path d="M326.268 92.0038C324.676 93.4463 322.216 93.3252 320.774 91.7331C319.331 90.1411 319.452 87.6811 321.044 86.2386C322.636 84.796 325.096 84.9172 326.539 86.5092C327.981 88.1012 327.86 90.5612 326.268 92.0038Z" fill="#DFD5EF"/>
<path d="M319.651 133.184C316.969 133.052 314.93 130.191 315.097 126.793C315.265 123.396 317.575 120.749 320.257 120.881C322.939 121.013 324.978 123.874 324.81 127.272C324.643 130.669 322.333 133.316 319.651 133.184Z" fill="#DFD5EF"/>
<path d="M336.31 186.329C333.628 186.197 331.59 183.336 331.757 179.938C331.924 176.541 334.234 173.894 336.916 174.026C339.599 174.158 341.637 177.019 341.47 180.417C341.303 183.814 338.993 186.461 336.31 186.329Z" fill="#DFD5EF"/>
<path d="M320.652 187.402C317.97 187.269 315.931 184.408 316.098 181.011C316.265 177.613 318.575 174.966 321.258 175.098C323.94 175.23 325.979 178.092 325.811 181.489C325.644 184.887 323.334 187.534 320.652 187.402Z" fill="#DFD5EF"/>
<path d="M318.717 226.775C316.034 226.643 313.996 223.782 314.163 220.385C314.33 216.987 316.64 214.34 319.323 214.472C322.005 214.604 324.044 217.465 323.876 220.863C323.709 224.26 321.399 226.908 318.717 226.775Z" fill="#DFD5EF"/>
<path d="M373.635 351.112C370.953 350.98 368.914 348.119 369.082 344.722C369.249 341.324 371.559 338.677 374.241 338.809C376.923 338.941 378.962 341.803 378.795 345.2C378.627 348.597 376.317 351.245 373.635 351.112Z" fill="#DFD5EF"/>
<path d="M587.439 129.193C584.092 122.602 584.633 111.613 581.931 110.562C579.229 109.511 567.098 113.503 568.959 122.316C570.82 131.128 574.619 128.562 577.005 136.023C579.392 143.484 572.32 147.267 580.082 148.108C587.843 148.95 594.073 152.928 593.128 144.161C592.183 135.393 590.787 135.784 587.439 129.193Z" fill="#DFD5EF"/>
<path d="M536.186 349.739C521.789 353.161 518.08 353.896 509.493 351.178C500.906 348.46 497.724 347.845 490.143 343.34C482.562 338.836 479.56 334.557 477.157 336.734C474.755 338.911 480.805 346.552 485.684 350.006C490.562 353.459 502.767 357.273 509.658 357.153C516.549 357.034 524.355 356.959 529.895 356.314C535.435 355.669 550.841 354.963 549.832 352.247C548.616 348.974 550.583 346.317 536.186 349.739Z" fill="#DFD5EF"/>
<path d="M497.965 333.628C505.636 336.301 506.987 336.826 508.338 337.352C509.69 337.877 510.29 344.333 508.413 345.158C506.536 345.984 498.775 345.142 493.07 339.813C487.366 334.483 485.489 335.308 485.67 331.645C485.85 327.982 490.294 330.955 497.965 333.628Z" fill="#DFD5EF"/>
<path d="M501.185 445.321C493.124 441.252 482.766 444.653 474.328 440.786C465.351 436.672 465.943 436.949 462.258 434.224C459.601 432.258 455.893 432.993 457.544 436.746C459.195 440.499 458.144 443.202 467.647 445.965C475.816 448.422 484.17 450.214 492.627 451.326C499.473 452.122 508.541 454.404 509.592 451.702C510.643 449 509.247 449.39 501.185 445.321Z" fill="#DFD5EF"/>
<path d="M604.552 359.532C604.552 359.532 603.697 348.933 596.055 354.982C588.414 361.032 592.512 361.693 585.441 365.475C578.37 369.258 572.695 372.651 574.436 374.572C576.177 376.494 582.333 372.666 582.588 376.81C582.843 380.953 582.843 380.953 583.233 382.349C583.623 383.746 586.535 389.856 591.865 384.152C597.195 378.447 599.942 378.582 602.134 371.347C604.327 364.111 604.552 359.532 604.552 359.532Z" fill="#DFD5EF"/>
<path d="M560.031 489.988C561.819 485.385 553.607 471.312 549.119 469.255C544.63 467.198 545.44 478.712 548.397 483.907C551.354 489.102 551.174 492.765 554.837 492.945C558.5 493.125 559.506 491.339 560.031 489.988Z" fill="#DFD5EF"/>
<path d="M686.961 503.583C687.277 497.173 689.724 494.08 682.578 490.056C675.433 486.033 673.256 483.63 666.875 492.037C660.494 500.444 663.151 502.41 652.582 511.988C642.012 521.565 635.122 521.685 638.079 526.879C641.036 532.074 642.552 538.574 652.37 534.927C662.189 531.28 669.515 531.64 674.454 524.54C679.394 517.439 686.51 512.741 686.961 503.583Z" fill="#DFD5EF"/>
<path d="M700.762 223.36C700.417 221.048 699.982 220.567 690.914 218.285C681.847 216.002 676.007 213.42 672.554 218.298C669.101 223.177 669.356 227.321 676.682 227.682C684.008 228.042 687.326 225.911 689.022 228.748C690.718 231.586 687.01 232.321 681.996 231.615C676.982 230.909 673.109 225.67 671.968 230.203C670.826 234.737 670.511 241.147 675.435 243.685C680.359 246.222 683.225 253.248 688.6 246.628C693.975 240.008 699.17 237.051 699.831 232.953C700.492 228.854 701.107 225.672 700.762 223.36Z" fill="#DFD5EF"/>
<path d="M410.756 352.282C409.164 353.725 406.217 353.066 404.173 350.811C402.129 348.555 401.763 345.558 403.355 344.115C404.947 342.672 407.894 343.331 409.938 345.587C411.982 347.842 412.348 350.84 410.756 352.282Z" fill="#DFD5EF"/>
<path d="M399.871 368.27C398.653 369.373 396.399 368.87 394.836 367.145C393.273 365.421 392.993 363.128 394.211 362.024C395.429 360.921 397.683 361.424 399.246 363.149C400.809 364.874 401.088 367.166 399.871 368.27Z" fill="#DFD5EF"/>
<path d="M396.747 385.099C395.529 386.202 393.275 385.699 391.712 383.974C390.149 382.249 389.869 379.957 391.087 378.853C392.305 377.75 394.559 378.253 396.122 379.978C397.685 381.702 397.964 383.995 396.747 385.099Z" fill="#DFD5EF"/>
<path d="M423.168 389.154C421.951 390.258 419.696 389.754 418.134 388.029C416.571 386.305 416.291 384.012 417.509 382.908C418.727 381.805 420.981 382.308 422.544 384.033C424.107 385.758 424.386 388.051 423.168 389.154Z" fill="#DFD5EF"/>
<path d="M447.112 415.578C445.894 416.681 443.64 416.178 442.077 414.453C440.514 412.728 440.235 410.436 441.453 409.332C442.67 408.229 444.925 408.732 446.487 410.457C448.05 412.181 448.33 414.474 447.112 415.578Z" fill="#DFD5EF"/>
<path d="M444.423 432.887C443.205 433.991 440.951 433.487 439.388 431.762C437.826 430.038 437.546 427.745 438.764 426.641C439.982 425.538 442.236 426.041 443.799 427.766C445.362 429.491 445.641 431.784 444.423 432.887Z" fill="#DFD5EF"/>
<path d="M635.424 175.39C633.55 177.087 630.083 176.312 627.678 173.659C625.274 171.006 624.844 167.479 626.717 165.781C628.59 164.084 632.058 164.859 634.462 167.512C636.866 170.166 637.297 173.693 635.424 175.39Z" fill="#DFD5EF"/>
<path d="M631.935 148.367C629.407 150.658 624.725 149.612 621.48 146.03C618.234 142.448 617.653 137.687 620.181 135.396C622.71 133.104 627.391 134.151 630.637 137.733C633.882 141.315 634.464 146.076 631.935 148.367Z" fill="#DFD5EF"/>
<path d="M690.264 189.566C689.139 190.585 687.057 190.121 685.615 188.529C684.172 186.937 683.915 184.82 685.04 183.801C686.165 182.781 688.246 183.245 689.689 184.837C691.131 186.429 691.389 188.546 690.264 189.566Z" fill="#DFD5EF"/>
<path d="M656.815 188.377C655.69 189.397 653.609 188.933 652.166 187.341C650.724 185.749 650.466 183.632 651.591 182.612C652.716 181.593 654.798 182.057 656.24 183.649C657.683 185.241 657.94 187.358 656.815 188.377Z" fill="#DFD5EF"/>
<path d="M648.633 205.416C647.508 206.435 645.426 205.971 643.984 204.379C642.541 202.787 642.284 200.67 643.409 199.651C644.534 198.631 646.615 199.096 648.058 200.688C649.5 202.28 649.758 204.397 648.633 205.416Z" fill="#DFD5EF"/>
<path d="M666.301 228.777C665.176 229.796 663.094 229.332 661.652 227.74C660.209 226.148 659.952 224.031 661.077 223.012C662.202 221.992 664.283 222.456 665.726 224.048C667.168 225.64 667.426 227.757 666.301 228.777Z" fill="#DFD5EF"/>
<path d="M674.631 255.35C673.506 256.369 671.424 255.905 669.982 254.313C668.539 252.721 668.282 250.604 669.407 249.584C670.532 248.565 672.613 249.029 674.056 250.621C675.498 252.213 675.756 254.33 674.631 255.35Z" fill="#DFD5EF"/>
<path d="M696.209 287.853C693.68 290.145 688.999 289.098 685.754 285.516C682.508 281.934 681.927 277.173 684.455 274.882C686.984 272.59 691.665 273.637 694.911 277.219C698.156 280.801 698.738 285.562 696.209 287.853Z" fill="#DFD5EF"/>
<path d="M765.08 342.429C761.669 342.529 758.789 338.693 758.648 333.861C758.506 329.029 761.156 325.031 764.567 324.931C767.978 324.831 770.858 328.667 770.999 333.499C771.141 338.331 768.491 342.329 765.08 342.429Z" fill="#DFD5EF"/>
<path d="M730.266 378.344C726.855 378.444 723.975 374.608 723.834 369.776C723.692 364.944 726.342 360.946 729.753 360.846C733.164 360.746 736.044 364.582 736.185 369.414C736.327 374.245 733.677 378.243 730.266 378.344Z" fill="#DFD5EF"/>
<path d="M737.869 340.393C735.621 340.459 733.723 337.933 733.63 334.751C733.537 331.57 735.283 328.937 737.531 328.871C739.779 328.805 741.676 331.331 741.77 334.513C741.863 337.694 740.117 340.327 737.869 340.393Z" fill="#DFD5EF"/>
<path d="M721.672 426.805C719.424 426.871 717.527 424.345 717.433 421.163C717.34 417.981 719.086 415.348 721.334 415.282C723.582 415.216 725.479 417.742 725.573 420.924C725.666 424.106 723.92 426.739 721.672 426.805Z" fill="#DFD5EF"/>
<path d="M712.987 426.023C711.183 427.364 708.18 426.382 706.28 423.828C704.381 421.273 704.303 418.115 706.108 416.773C707.912 415.431 710.915 416.414 712.814 418.968C714.714 421.522 714.791 424.681 712.987 426.023Z" fill="#DFD5EF"/>
<path d="M687.858 433.043C686.053 434.385 683.051 433.403 681.151 430.849C679.251 428.294 679.174 425.136 680.978 423.794C682.782 422.452 685.785 423.435 687.685 425.989C689.584 428.543 689.662 431.701 687.858 433.043Z" fill="#DFD5EF"/>
<path d="M712.246 478.308C710.441 479.65 707.439 478.667 705.539 476.113C703.639 473.559 703.562 470.401 705.366 469.059C707.171 467.717 710.173 468.699 712.073 471.254C713.973 473.808 714.05 476.966 712.246 478.308Z" fill="#DFD5EF"/>
<path d="M729.193 460.329C727.389 461.671 724.387 460.688 722.487 458.134C720.587 455.58 720.51 452.421 722.314 451.079C724.118 449.738 727.121 450.72 729.021 453.274C730.92 455.829 730.998 458.987 729.193 460.329Z" fill="#DFD5EF"/>
<path d="M760.211 454.972C758.406 456.314 755.691 455.718 754.146 453.641C752.601 451.564 752.812 448.792 754.616 447.45C756.42 446.108 759.135 446.704 760.68 448.781C762.225 450.858 762.015 453.63 760.211 454.972Z" fill="#DFD5EF"/>
<path d="M754.515 421.645C752.711 422.987 749.996 422.391 748.451 420.314C746.906 418.236 747.116 415.465 748.921 414.123C750.725 412.781 753.44 413.377 754.985 415.454C756.53 417.531 756.32 420.303 754.515 421.645Z" fill="#DFD5EF"/>
<path d="M635.315 502.513C633.51 503.855 630.795 503.259 629.25 501.181C627.705 499.104 627.916 496.332 629.72 494.99C631.524 493.648 634.239 494.244 635.784 496.322C637.329 498.399 637.119 501.171 635.315 502.513Z" fill="#DFD5EF"/>
<path d="M628.324 486.1C626.52 487.442 623.805 486.846 622.26 484.769C620.715 482.692 620.925 479.92 622.729 478.578C624.533 477.236 627.249 477.832 628.794 479.909C630.338 481.986 630.128 484.758 628.324 486.1Z" fill="#DFD5EF"/>
<path d="M637.593 447.086C635.788 448.428 633.073 447.832 631.528 445.755C629.983 443.678 630.193 440.906 631.998 439.564C633.802 438.222 636.517 438.818 638.062 440.895C639.607 442.972 639.397 445.744 637.593 447.086Z" fill="#DFD5EF"/>
<path d="M598.926 486.489C597.122 487.831 594.407 487.235 592.862 485.158C591.317 483.081 591.527 480.309 593.331 478.967C595.135 477.625 597.851 478.221 599.396 480.298C600.941 482.376 600.73 485.147 598.926 486.489Z" fill="#DFD5EF"/>
<path d="M476.743 356.564C476.743 356.564 478.915 356.368 481.22 355.875C483.526 355.383 483.659 354.153 481.22 353.71C478.782 353.267 476.61 354.054 476.167 354.448C476.167 354.448 474.615 353.218 472.443 353.661C470.271 354.054 468.852 355.679 471.246 356.072C473.64 356.417 476.743 356.564 476.743 356.564Z" fill="#EF5661" stroke="black" stroke-width="0.5205" stroke-miterlimit="10"/>
<path d="M493.743 343.564C493.743 343.564 495.915 343.368 498.22 342.875C500.526 342.383 500.659 341.153 498.22 340.71C495.782 340.267 493.61 341.054 493.167 341.448C493.167 341.448 491.615 340.218 489.443 340.661C487.271 341.054 485.852 342.679 488.246 343.072C490.64 343.417 493.743 343.564 493.743 343.564Z" fill="#EF5661" stroke="black" stroke-width="0.5205" stroke-miterlimit="10"/>
<path d="M474.743 403.564C474.743 403.564 476.915 403.368 479.22 402.875C481.526 402.383 481.659 401.153 479.22 400.71C476.782 400.267 474.61 401.054 474.167 401.448C474.167 401.448 472.615 400.218 470.443 400.661C468.271 401.054 466.852 402.679 469.246 403.072C471.64 403.417 474.743 403.564 474.743 403.564Z" fill="#EF5661" stroke="black" stroke-width="0.5205" stroke-miterlimit="10"/>
</g>
</g>
<path d="M177.785 686.704C265.693 686.704 336.957 676.92 336.957 664.849C336.957 652.779 265.693 642.994 177.785 642.994C89.8765 642.994 18.6128 652.779 18.6128 664.849C18.6128 676.92 89.8765 686.704 177.785 686.704Z" fill="black" fill-opacity="0.06"/>
<path d="M110.595 499.597C76.084 549.793 51.9969 580.954 66.3646 603.797C80.7324 626.78 94.9593 638.059 114.116 643.699C147.359 653.428 150.176 653.852 195.111 642.571C237.228 631.996 251.173 600.977 250.046 582.647C249.06 566.15 279.627 502.7 293.854 480.281C299.207 481.691 310.898 484.793 318.082 487.331C334.422 493.253 385.695 442.916 356.255 438.122C333.436 434.315 306.531 431.918 284.135 432.482C276.81 430.367 257.653 422.753 237.792 415.984C251.173 392.297 281.881 328.846 293.713 328.423C303.573 328.141 320.899 331.807 334.281 314.464C347.522 296.98 323.857 290.212 305.686 281.329C287.374 272.446 270.189 281.894 258.921 303.326C247.652 324.758 257.089 332.09 251.032 349.856C245.68 365.507 221.029 391.451 196.801 404.846C189.899 403.859 181.025 404.986 180.039 405.268C156.656 410.908 122.99 418.663 98.7625 433.046C98.7625 433.046 60.3077 451.799 58.3356 469.001C56.5045 486.062 83.8313 510.454 83.8313 510.454" fill="#F2F2F2"/>
<path d="M297.709 300.997C298.158 299.103 293.919 296.475 288.242 295.127C282.565 293.78 277.599 294.223 277.15 296.118C276.702 298.012 280.94 300.64 286.617 301.987C292.294 303.335 297.26 302.891 297.709 300.997Z" fill="white" stroke="black" stroke-miterlimit="10"/>
<path d="M285.99 300.945C287.532 300.737 288.656 299.631 288.5 298.473C288.345 297.315 286.968 296.545 285.426 296.753C283.884 296.961 282.76 298.068 282.916 299.225C283.072 300.383 284.448 301.153 285.99 300.945Z" fill="black"/>
<path d="M314.428 299.686C319.547 296.884 322.941 293.228 322.008 291.52C321.074 289.812 316.168 290.698 311.049 293.501C305.929 296.303 302.536 299.959 303.469 301.667C304.402 303.376 309.309 302.489 314.428 299.686Z" fill="white" stroke="black" stroke-miterlimit="10"/>
<path d="M311.348 298.966C312.89 298.758 314.014 297.652 313.858 296.494C313.703 295.336 312.326 294.566 310.784 294.774C309.242 294.982 308.118 296.089 308.274 297.246C308.43 298.404 309.806 299.174 311.348 298.966Z" fill="black"/>
<path d="M110.595 499.597C76.084 549.793 51.9969 580.955 66.3647 603.797C80.7324 626.78 94.9593 638.059 114.116 643.699C147.359 653.428 150.176 653.851 195.111 642.571C237.228 631.996 251.173 600.977 250.046 582.647C249.06 566.15 279.627 502.7 293.854 480.281C299.207 481.691 310.898 484.793 318.082 487.331C334.422 493.253 385.695 442.916 356.255 438.122C333.436 434.315 306.531 431.918 284.135 432.482C276.81 430.367 257.653 422.752 237.791 415.984C251.173 392.296 281.881 328.846 293.713 328.423C303.573 328.141 320.899 331.807 334.281 314.464C347.522 296.98 323.857 290.212 305.686 281.329C287.374 272.446 270.189 281.894 258.921 303.326C247.652 324.758 257.089 332.09 251.032 349.856C245.68 365.507 221.029 391.451 196.801 404.846C189.899 403.859 181.025 404.986 180.039 405.268C156.656 410.908 122.99 418.664 98.7625 433.046C98.7625 433.046 60.3077 451.799 58.3356 469.001C56.5045 486.062 83.8313 510.454 83.8313 510.454" stroke="black" stroke-miterlimit="10"/>
<path d="M193.984 557.83C197.787 555.01 263.287 541.333 270.189 543.589C277.092 545.986 246.384 619.447 231.171 638.905C231.171 638.905 224.128 646.942 233.425 648.211C242.581 649.48 266.809 647.365 270.33 649.762C273.711 652.159 273.711 662.452 256.385 661.183C239.059 659.914 204.549 664.144 203.422 660.619C202.295 657.094 237.51 597.592 242.158 589.555C246.807 581.518 253.85 570.097 242.299 574.609C230.749 579.121 176.236 612.115 165.53 606.616C154.825 601.258 190.181 560.65 193.984 557.83Z" fill="#F7931E" stroke="black" stroke-miterlimit="10"/>
<path d="M118.061 553.46C111.581 550.499 47.2078 545.564 40.7283 548.807C34.2487 552.05 73.6895 621.14 91.1562 638.624C91.1562 638.624 99.0443 645.673 90.1702 648.07C81.1551 650.467 56.9272 651.455 53.8282 654.134C50.7293 656.813 52.1379 667.106 69.0411 663.722C85.9443 660.338 120.878 660.197 121.582 656.672C122.286 653.147 80.0282 598.297 74.3938 590.965C68.7594 583.633 60.3078 573.058 72.4218 576.16C84.3949 579.262 142.57 605.207 152.571 598.58C162.291 591.671 124.54 556.421 118.061 553.46Z" fill="#F7931E" stroke="black" stroke-miterlimit="10"/>
<path d="M298.361 341.677C292.445 338.998 289.628 334.909 292.727 329.41C295.826 323.911 295.967 315.874 293.713 311.785C291.459 307.837 297.375 308.401 299.066 310.375C300.756 312.208 310.616 310.657 312.166 307.978C313.715 305.299 315.124 306.004 315.406 307.132C315.687 308.26 314.842 317.707 321.322 328.564C326.674 337.588 329.069 340.267 324.843 341.395C320.617 342.523 306.25 345.202 298.361 341.677Z" fill="#F7931E" stroke="black" stroke-width="0.7895" stroke-miterlimit="10"/>
<path d="M83.8315 510.313H103.129" stroke="black" stroke-miterlimit="10"/>
<path d="M141.02 464.065C141.02 464.065 147.922 461.809 155.247 456.733C162.572 451.657 162.994 438.826 155.247 433.75C147.5 428.674 140.598 437.557 139.189 441.646C139.189 441.646 134.259 428.674 127.357 433.045C120.455 437.416 115.947 454.195 123.554 458.425C131.16 462.937 141.02 464.065 141.02 464.065Z" fill="#EF5661" stroke="black" stroke-miterlimit="10"/>
<path d="M105.383 472.948C105.383 472.948 112.285 470.692 119.609 465.616C126.934 460.54 127.357 447.709 119.609 442.633C111.862 437.557 104.96 446.44 103.551 450.529C103.551 450.529 98.6213 437.557 91.7191 441.928C84.817 446.299 80.3095 463.078 87.9159 467.308C95.3815 471.82 105.383 472.948 105.383 472.948Z" fill="#EF5661" stroke="black" stroke-miterlimit="10"/>
<path d="M185.391 452.785C185.391 452.785 192.293 450.529 199.618 445.453C206.943 440.377 207.366 427.546 199.618 422.47C191.871 417.394 184.969 426.277 183.56 430.366C183.56 430.366 178.63 417.394 171.728 421.765C164.826 426.136 160.318 442.915 167.925 447.145C175.531 451.657 185.391 452.785 185.391 452.785Z" fill="#EF5661" stroke="black" stroke-miterlimit="10"/>
<path d="M239.341 457.015C239.341 457.015 246.243 454.759 253.567 449.683C260.892 444.607 261.315 431.776 253.567 426.7C245.82 421.624 238.918 430.507 237.509 434.596C237.509 434.596 232.579 421.624 225.677 425.995C218.775 430.366 214.267 447.145 221.874 451.375C229.48 455.605 239.341 457.015 239.341 457.015Z" fill="#EF5661" stroke="black" stroke-miterlimit="10"/>
<path d="M286.529 457.015C286.529 457.015 293.431 454.759 300.756 449.683C308.081 444.607 308.503 431.776 300.756 426.7C293.009 421.624 286.107 430.507 284.698 434.596C284.698 434.596 279.768 421.624 272.866 425.995C265.963 430.366 261.456 447.145 269.062 451.375C276.669 455.605 286.529 457.015 286.529 457.015Z" fill="#EF5661" stroke="black" stroke-miterlimit="10"/>
<path d="M327.801 468.718C327.801 468.718 334.703 466.462 342.028 461.386C349.353 456.31 349.775 443.479 342.028 438.403C334.281 433.327 327.378 442.21 325.97 446.299C325.97 446.299 321.04 433.327 314.138 437.698C307.235 442.069 302.728 458.848 310.334 463.078C317.941 467.59 327.801 468.718 327.801 468.718Z" fill="#EF5661" stroke="black" stroke-miterlimit="10"/>
<path d="M311.884 479.998C311.884 479.998 318.786 477.742 326.11 472.666C333.435 467.59 333.858 454.759 326.11 449.683C318.363 444.607 311.461 453.49 310.052 457.579C310.052 457.579 305.122 444.607 298.22 448.978C291.318 453.349 286.81 470.128 294.417 474.358C302.023 478.87 311.884 479.998 311.884 479.998Z" fill="#EF5661" stroke="black" stroke-miterlimit="10"/>
<path d="M271.598 472.948C271.598 472.948 278.5 470.692 285.825 465.616C293.15 460.54 293.572 447.709 285.825 442.633C278.077 437.557 271.175 446.44 269.767 450.529C269.767 450.529 264.837 437.557 257.934 441.928C251.032 446.299 246.525 463.078 254.131 467.308C261.738 471.538 271.598 472.948 271.598 472.948Z" fill="#EF5661" stroke="black" stroke-miterlimit="10"/>
<path d="M239.341 468.718C239.341 468.718 246.243 466.462 253.567 461.386C260.892 456.31 261.315 443.479 253.567 438.403C245.82 433.327 238.918 442.21 237.509 446.299C237.509 446.299 232.579 433.327 225.677 437.698C218.775 442.069 214.267 458.848 221.874 463.078C229.339 467.59 239.341 468.718 239.341 468.718Z" fill="#EF5661" stroke="black" stroke-miterlimit="10"/>
<path d="M206.239 464.065C206.239 464.065 213.141 461.809 220.465 456.733C227.79 451.657 228.213 438.826 220.465 433.75C212.718 428.674 205.816 437.557 204.407 441.646C204.407 441.646 199.477 428.674 192.575 433.045C185.673 437.416 181.165 454.195 188.772 458.425C196.378 462.937 206.239 464.065 206.239 464.065Z" fill="#EF5661" stroke="black" stroke-miterlimit="10"/>
<path d="M200.041 479.998C200.041 479.998 206.943 477.742 214.268 472.666C221.592 467.59 222.015 454.759 214.268 449.683C206.52 444.607 199.618 453.49 198.21 457.579C198.21 457.579 193.279 444.607 186.377 448.978C179.475 453.349 174.968 470.128 182.574 474.358C190.181 478.87 200.041 479.998 200.041 479.998Z" fill="#EF5661" stroke="black" stroke-miterlimit="10"/>
<path d="M256.949 488.881C256.949 488.881 263.851 486.625 271.175 481.549C278.5 476.473 278.923 463.642 271.175 458.566C263.428 453.49 256.526 462.373 255.117 466.462C255.117 466.462 250.187 453.49 243.285 457.861C236.383 462.232 231.875 479.011 239.482 483.241C247.088 487.612 256.949 488.881 256.949 488.881Z" fill="#EF5661" stroke="black" stroke-miterlimit="10"/>
<path d="M301.46 495.931C301.46 495.931 308.362 493.675 315.687 488.599C323.012 483.523 323.434 470.692 315.687 465.616C307.94 460.54 301.038 469.423 299.629 473.512C299.629 473.512 294.699 460.54 287.797 464.911C280.895 469.282 276.387 486.061 283.994 490.291C291.6 494.803 301.46 495.931 301.46 495.931Z" fill="#EF5661" stroke="black" stroke-miterlimit="10"/>
<path d="M301.46 509.185C301.46 509.185 308.362 506.929 315.687 501.853C323.012 496.777 323.434 483.946 315.687 478.87C307.94 473.794 301.038 482.677 299.629 486.766C299.629 486.766 294.699 473.794 287.797 478.165C280.895 482.536 276.387 499.315 283.994 503.545C291.6 507.916 301.46 509.185 301.46 509.185Z" fill="#EF5661" stroke="black" stroke-miterlimit="10"/>
<path d="M265.963 504.673C265.963 504.673 272.865 502.417 280.19 497.341C287.515 492.265 287.937 479.434 280.19 474.358C272.443 469.282 265.541 478.165 264.132 482.254C264.132 482.254 259.202 469.282 252.3 473.653C245.398 478.024 240.89 494.803 248.496 499.033C255.962 503.545 265.963 504.673 265.963 504.673Z" fill="#EF5661" stroke="black" stroke-miterlimit="10"/>
<path d="M245.257 511.864C245.257 511.864 252.159 509.608 259.484 504.532C266.809 499.456 267.231 486.625 259.484 481.549C251.737 476.473 244.834 485.356 243.426 489.445C243.426 489.445 238.496 476.473 231.594 480.844C224.691 485.215 220.184 501.994 227.79 506.224C235.397 510.736 245.257 511.864 245.257 511.864Z" fill="#EF5661" stroke="black" stroke-miterlimit="10"/>
<path d="M234.41 490.009C234.41 490.009 241.313 487.753 248.637 482.677C255.962 477.601 256.385 464.77 248.637 459.694C240.89 454.618 233.988 463.501 232.579 467.59C232.579 467.59 227.649 454.618 220.747 458.989C213.845 463.36 209.337 480.139 216.944 484.369C224.55 488.881 234.41 490.009 234.41 490.009Z" fill="#EF5661" stroke="black" stroke-miterlimit="10"/>
<path d="M209.197 502.84C209.197 502.84 216.099 500.584 223.423 495.508C230.748 490.432 231.171 477.601 223.423 472.525C215.676 467.449 208.774 476.332 207.365 480.421C207.365 480.421 202.435 467.449 195.533 471.82C188.631 476.191 184.123 492.97 191.73 497.2C199.336 501.712 209.197 502.84 209.197 502.84Z" fill="#EF5661" stroke="black" stroke-miterlimit="10"/>
<path d="M161.586 468.718C161.586 468.718 168.488 466.462 175.813 461.386C183.137 456.31 183.56 443.479 175.813 438.403C168.065 433.327 161.163 442.21 159.755 446.299C159.755 446.299 154.824 433.327 147.922 437.698C141.02 442.069 136.513 458.848 144.119 463.078C151.725 467.59 161.586 468.718 161.586 468.718Z" fill="#EF5661" stroke="black" stroke-miterlimit="10"/>
<path d="M130.315 480.421C130.315 480.421 137.217 478.165 144.542 473.089C151.866 468.013 152.289 455.182 144.542 450.106C136.794 445.03 129.892 453.913 128.484 458.002C128.484 458.002 123.553 445.03 116.651 449.401C109.749 453.772 105.242 470.551 112.848 474.781C120.454 479.293 130.315 480.421 130.315 480.421Z" fill="#EF5661" stroke="black" stroke-miterlimit="10"/>
<path d="M105.383 493.252C105.383 493.252 112.285 490.996 119.609 485.92C126.934 480.844 127.357 468.013 119.609 462.937C111.862 457.861 104.96 466.744 103.551 470.833C103.551 470.833 98.6213 457.861 91.7191 462.232C84.817 466.603 80.3095 483.382 87.9159 487.612C95.3815 492.124 105.383 493.252 105.383 493.252Z" fill="#EF5661" stroke="black" stroke-miterlimit="10"/>
<path d="M169.897 484.651C169.897 484.651 176.799 482.395 184.124 477.319C191.448 472.243 191.871 459.412 184.124 454.336C176.376 449.26 169.474 458.143 168.066 462.232C168.066 462.232 163.135 449.26 156.233 453.631C149.331 458.002 144.824 474.781 152.43 479.011C159.896 483.523 169.897 484.651 169.897 484.651Z" fill="#EF5661" stroke="black" stroke-miterlimit="10"/>
<path d="M175.249 502.84C175.249 502.84 182.151 500.584 189.476 495.508C196.801 490.432 197.223 477.601 189.476 472.525C181.729 467.449 174.827 476.332 173.418 480.421C173.418 480.421 168.488 467.449 161.586 471.82C154.684 476.191 150.176 492.97 157.783 497.2C165.389 501.712 175.249 502.84 175.249 502.84Z" fill="#EF5661" stroke="black" stroke-miterlimit="10"/>
<path d="M141.02 509.185C141.02 509.185 147.922 506.929 155.247 501.853C162.572 496.777 162.994 483.946 155.247 478.87C147.5 473.794 140.598 482.677 139.189 486.766C139.189 486.766 134.259 473.794 127.357 478.165C120.455 482.536 115.947 499.315 123.554 503.545C131.16 507.916 141.02 509.185 141.02 509.185Z" fill="#EF5661" stroke="black" stroke-miterlimit="10"/>
<path d="M154.684 536.539C154.684 536.539 161.586 534.283 168.911 529.207C176.235 524.131 176.658 511.3 168.911 506.224C161.163 501.148 154.261 510.031 152.853 514.12C152.853 514.12 147.923 501.148 141.02 505.519C134.118 509.89 129.611 526.669 137.217 530.899C144.683 535.411 154.684 536.539 154.684 536.539Z" fill="#EF5661" stroke="black" stroke-miterlimit="10"/>
<path d="M203.421 524.272C203.421 524.272 210.323 522.016 217.648 516.94C224.973 511.864 225.395 499.033 217.648 493.957C209.901 488.881 202.999 497.764 201.59 501.853C201.59 501.853 196.66 488.881 189.758 493.252C182.856 497.623 178.348 514.402 185.954 518.632C193.561 523.144 203.421 524.272 203.421 524.272Z" fill="#EF5661" stroke="black" stroke-miterlimit="10"/>
<path d="M169.897 525.823C169.897 525.823 176.799 523.567 184.124 518.491C191.448 513.415 191.871 500.584 184.124 495.508C176.376 490.432 169.474 499.315 168.066 503.404C168.066 503.404 163.135 490.432 156.233 494.803C149.331 499.174 144.824 515.953 152.43 520.183C159.896 524.695 169.897 525.823 169.897 525.823Z" fill="#EF5661" stroke="black" stroke-miterlimit="10"/>
<path d="M125.949 527.797C125.949 527.797 132.851 525.541 140.175 520.465C147.5 515.389 147.923 502.558 140.175 497.482C132.428 492.406 125.526 501.289 124.117 505.378C124.117 505.378 119.187 492.406 112.285 496.777C105.383 501.148 100.875 517.927 108.482 522.157C116.088 526.669 125.949 527.797 125.949 527.797Z" fill="#EF5661" stroke="black" stroke-miterlimit="10"/>
<path d="M99.7483 513.838C99.7483 513.838 106.65 511.582 113.975 506.506C121.3 501.43 121.722 488.599 113.975 483.523C106.228 478.447 99.3257 487.33 97.9171 491.419C97.9171 491.419 92.987 478.447 86.0848 482.818C79.1827 487.189 74.6752 503.968 82.2816 508.198C89.7472 512.71 99.7483 513.838 99.7483 513.838Z" fill="#EF5661" stroke="black" stroke-miterlimit="10"/>
<path d="M125.949 540.205C125.949 540.205 132.851 537.949 140.175 532.873C147.5 527.797 147.923 514.966 140.175 509.89C132.428 504.814 125.526 513.697 124.117 517.786C124.117 517.786 119.187 504.814 112.285 509.185C105.383 513.556 100.875 530.335 108.482 534.565C116.088 539.077 125.949 540.205 125.949 540.205Z" fill="#EF5661" stroke="black" stroke-miterlimit="10"/>
<path d="M231.171 524.131C231.171 524.131 238.073 521.875 245.398 516.799C252.722 511.723 253.145 498.892 245.398 493.816C237.65 488.74 230.748 497.623 229.339 501.712C229.339 501.712 224.409 488.74 217.507 493.111C210.605 497.482 206.098 514.261 213.704 518.491C221.31 523.003 231.171 524.131 231.171 524.131Z" fill="#EF5661" stroke="black" stroke-miterlimit="10"/>
<path d="M263.71 527.092C263.71 527.092 270.612 524.836 277.937 519.76C285.261 514.684 285.684 501.853 277.937 496.777C270.189 491.701 263.287 500.584 261.879 504.673C261.879 504.673 256.948 491.701 250.046 496.072C243.144 500.443 238.637 517.222 246.243 521.452C253.849 525.964 263.71 527.092 263.71 527.092Z" fill="#EF5661" stroke="black" stroke-miterlimit="10"/>
<path d="M162.556 697.61C162.556 697.61 169.458 697.046 176.783 695.636C184.108 694.226 184.53 690.701 176.783 689.432C169.035 688.022 162.133 690.419 160.725 691.547C160.725 691.547 155.795 688.022 148.892 689.291C141.99 690.419 137.483 695.072 145.089 696.2C152.696 697.328 162.556 697.61 162.556 697.61Z" fill="#EF5661" stroke="black" stroke-width="0.5205" stroke-miterlimit="10"/>
<path d="M141.427 701.981C141.427 701.981 148.329 701.417 155.654 700.007C162.979 698.597 163.401 695.072 155.654 693.803C147.907 692.393 141.004 694.79 139.596 695.918C139.596 695.918 134.666 692.393 127.764 693.662C120.861 694.79 116.354 699.443 123.96 700.571C131.567 701.558 141.427 701.981 141.427 701.981Z" fill="#EF5661" stroke="black" stroke-width="0.5205" stroke-miterlimit="10"/>
<path d="M301.46 662.029C301.46 662.029 308.362 661.465 315.687 660.055C323.012 658.645 323.434 655.12 315.687 653.851C307.94 652.582 301.038 654.838 299.629 655.966C299.629 655.966 294.699 652.441 287.797 653.71C280.895 654.838 276.387 659.491 283.994 660.619C291.6 661.606 301.46 662.029 301.46 662.029Z" fill="#EF5661" stroke="black" stroke-width="0.5205" stroke-miterlimit="10"/>
<path d="M407.427 633.159C407.427 633.159 414.329 632.595 421.654 631.185C428.979 629.775 429.401 626.25 421.654 624.981C413.907 623.712 407.004 625.968 405.596 627.096C405.596 627.096 400.666 623.571 393.764 624.84C386.861 625.968 382.354 630.621 389.96 631.749C397.567 632.736 407.427 633.159 407.427 633.159Z" fill="#EF5661" stroke="black" stroke-width="0.5205" stroke-miterlimit="10"/>
<path d="M445.743 599.564C445.743 599.564 447.916 599.367 450.221 598.875C452.526 598.383 452.659 597.153 450.221 596.71C447.783 596.267 445.61 597.054 445.167 597.448C445.167 597.448 443.616 596.218 441.443 596.661C439.271 597.054 437.853 598.678 440.246 599.072C442.64 599.417 445.743 599.564 445.743 599.564Z" fill="#EF5661" stroke="black" stroke-width="0.5205" stroke-miterlimit="10"/>
<path d="M92.9867 512.57C86.5072 512.852 83.8308 510.314 83.8308 510.314C83.8308 510.314 14.6685 478.589 68.4771 452.927C68.4771 452.927 127.779 440.237 159.614 446.441C191.589 452.645 206.098 455.324 205.111 457.016C205.111 457.016 191.448 464.207 181.306 462.656C171.164 461.105 171.164 461.105 171.164 461.105C171.164 461.105 181.729 468.296 184.405 468.719C187.081 469.142 171.164 471.68 166.093 468.719C161.022 465.758 166.234 473.654 174.263 474.077C182.292 474.5 152.852 477.743 151.021 471.821L157.078 481.973C157.078 481.973 136.794 484.652 135.808 478.589C135.808 478.589 145.668 489.869 144.542 490.01C130.315 491.279 122.99 484.652 122.99 484.652C122.99 484.652 125.807 486.344 129.047 490.01C132.287 493.676 135.386 494.522 129.329 493.958C123.272 493.394 114.257 490.01 114.257 490.01C114.257 490.01 116.51 492.125 122.004 495.932C122.004 495.932 107.918 499.598 104.256 495.227C104.256 495.227 103.129 498.752 109.608 500.585C116.088 502.418 116.37 501.431 116.37 501.431C116.37 501.431 97.6352 504.956 92.8459 502.7C92.9868 502.841 102.284 512.147 92.9867 512.57Z" fill="white" stroke="black" stroke-miterlimit="10"/>
<path d="M335.407 498.047C341.887 498.329 344.563 495.791 344.563 495.791C344.563 495.791 403.161 453.632 359.917 438.404C359.917 438.404 300.615 425.714 268.78 431.918C236.805 438.122 222.296 440.801 223.282 442.493C223.282 442.493 236.946 449.684 247.088 448.133C257.23 446.582 257.23 446.582 257.23 446.582C257.23 446.582 246.665 453.773 243.989 454.196C241.312 454.619 257.23 457.157 262.301 454.196C267.372 451.235 262.16 459.131 254.131 459.554C246.102 459.977 275.542 463.219 277.373 457.298L271.316 467.45C271.316 467.45 291.6 470.129 292.586 464.066C292.586 464.066 282.725 475.346 283.852 475.487C298.079 476.756 305.404 470.129 305.404 470.129C305.404 470.129 302.587 471.821 299.347 475.487C296.107 479.153 293.008 479.999 299.065 479.435C305.122 478.871 314.137 475.487 314.137 475.487C314.137 475.487 311.883 477.602 306.39 481.409C306.39 481.409 320.476 485.075 324.138 480.704C324.138 480.704 325.265 484.229 318.786 486.062C312.306 487.895 312.024 486.908 312.024 486.908C312.024 486.908 330.759 490.433 335.548 488.177C335.407 488.318 326.251 497.624 335.407 498.047Z" fill="white" stroke="black" stroke-miterlimit="10"/>
<path d="M98.7624 493.958C98.7624 493.958 98.3398 494.099 97.4946 494.24C98.6215 494.24 98.7624 493.958 98.7624 493.958Z" fill="#F2F2F2"/>
<path d="M156.656 466.604C148.627 466.181 143.556 458.285 148.486 461.246C153.416 464.207 169.474 461.669 166.798 461.246C164.121 460.823 153.557 453.632 153.557 453.632C153.557 453.632 153.557 453.632 163.699 455.183C170.601 456.311 179.053 453.209 183.842 451.235C177.362 449.966 169.333 448.415 159.755 446.582C127.779 440.378 68.6182 453.068 68.6182 453.068C28.1913 472.385 57.0676 495.086 73.9708 505.097C74.3934 505.097 74.816 505.097 75.2386 505.097C84.5354 504.674 75.2386 495.509 75.2386 495.509C79.3236 497.342 93.1278 495.227 97.4945 494.381C96.5085 494.381 94.8182 494.099 92.001 493.253C85.5214 491.42 86.6483 487.895 86.6483 487.895C90.1698 492.266 104.397 488.6 104.397 488.6C98.9031 484.793 96.6493 482.678 96.6493 482.678C96.6493 482.678 105.664 486.062 111.721 486.626C117.778 487.19 114.679 486.344 111.44 482.678C109.749 480.704 108.2 479.435 107.073 478.448C109.89 480.281 116.651 483.524 126.934 482.678C127.639 482.678 122.99 477.038 120.173 473.654C125.526 476.474 139.471 474.641 139.471 474.641L133.836 465.335C137.921 469.847 164.262 467.027 156.656 466.604Z" fill="#F2F2F2"/>
<path d="M331.745 480.14C330.9 479.999 330.477 479.858 330.477 479.858C330.477 479.858 330.618 480.14 331.745 480.14Z" fill="#F2F2F2"/>
<path d="M359.917 438.404C359.917 438.404 300.615 425.714 268.78 431.918C259.202 433.751 251.032 435.302 244.552 436.712C249.06 438.686 258.357 442.211 265.681 441.083C275.823 439.532 275.823 439.532 275.823 439.532C275.823 439.532 265.259 446.723 262.582 447.146C259.906 447.569 275.823 450.107 280.894 447.146C285.965 444.185 280.753 452.081 272.724 452.504C265.118 452.927 291.459 455.888 295.544 451.094L289.909 460.4C289.909 460.4 303.713 462.233 309.207 459.413C306.39 462.797 301.741 468.437 302.446 468.437C312.729 469.424 319.49 466.181 322.307 464.207C321.18 465.053 319.631 466.463 317.94 468.437C314.701 472.103 311.602 472.949 317.659 472.385C323.716 471.821 332.731 468.437 332.731 468.437C332.731 468.437 330.477 470.552 324.983 474.359C324.983 474.359 339.069 478.025 342.732 473.654C342.732 473.654 343.859 477.179 337.379 479.012C334.562 479.858 332.872 480.14 331.886 480.14C336.252 480.845 350.057 483.101 354.141 481.268C354.141 481.268 346.958 488.459 351.606 490.433C365.551 478.589 393.723 450.248 359.917 438.404Z" fill="#F2F2F2"/>
<path d="M92.9867 512.57C86.5072 512.852 83.8308 510.314 83.8308 510.314C83.8308 510.314 14.6685 478.589 68.4771 452.927C68.4771 452.927 127.779 440.237 159.614 446.441C191.589 452.645 206.098 455.324 205.111 457.016C205.111 457.016 191.448 464.207 181.306 462.656C171.164 461.105 171.164 461.105 171.164 461.105C171.164 461.105 181.729 468.296 184.405 468.719C187.081 469.142 171.164 471.68 166.093 468.719C161.022 465.758 166.234 473.654 174.263 474.077C182.292 474.5 152.852 477.743 151.021 471.821L157.078 481.973C157.078 481.973 136.794 484.652 135.808 478.589C135.808 478.589 145.668 489.869 144.542 490.01C130.315 491.279 122.99 484.652 122.99 484.652C122.99 484.652 125.807 486.344 129.047 490.01C132.287 493.676 135.386 494.522 129.329 493.958C123.272 493.394 114.257 490.01 114.257 490.01C114.257 490.01 116.51 492.125 122.004 495.932C122.004 495.932 107.918 499.598 104.256 495.227C104.256 495.227 103.129 498.752 109.608 500.585C116.088 502.418 116.37 501.431 116.37 501.431C116.37 501.431 97.6352 504.956 92.8459 502.7C92.9868 502.841 102.284 512.147 92.9867 512.57Z" stroke="black" stroke-miterlimit="10"/>
<path d="M335.407 498.047C341.887 498.329 344.563 495.791 344.563 495.791C344.563 495.791 403.161 453.632 359.917 438.404C359.917 438.404 300.615 425.714 268.78 431.918C236.805 438.122 222.296 440.801 223.282 442.493C223.282 442.493 236.946 449.684 247.088 448.133C257.23 446.582 257.23 446.582 257.23 446.582C257.23 446.582 246.665 453.773 243.989 454.196C241.312 454.619 257.23 457.157 262.301 454.196C267.372 451.235 262.16 459.131 254.131 459.554C246.102 459.977 275.542 463.219 277.373 457.297L271.316 467.45C271.316 467.45 291.6 470.129 292.586 464.066C292.586 464.066 282.725 475.346 283.852 475.487C298.079 476.756 305.404 470.129 305.404 470.129C305.404 470.129 302.587 471.821 299.347 475.487C296.107 479.153 293.008 479.999 299.065 479.435C305.122 478.871 314.137 475.487 314.137 475.487C314.137 475.487 311.883 477.602 306.39 481.409C306.39 481.409 320.476 485.075 324.138 480.704C324.138 480.704 325.265 484.229 318.786 486.062C312.306 487.895 312.024 486.907 312.024 486.907C312.024 486.907 330.759 490.433 335.548 488.177C335.407 488.318 326.251 497.624 335.407 498.047Z" stroke="black" stroke-miterlimit="10"/>
<path d="M451.743 578.564C451.743 578.564 453.916 578.368 456.221 577.875C458.526 577.383 458.659 576.153 456.221 575.71C453.783 575.267 451.61 576.054 451.167 576.448C451.167 576.448 449.616 575.218 447.443 575.661C445.271 576.054 443.853 577.679 446.246 578.072C448.64 578.417 451.743 578.564 451.743 578.564Z" fill="#EF5661" stroke="black" stroke-width="0.5205" stroke-miterlimit="10"/>
<defs>
<clipPath id="clip0_1031_644">
<rect width="535" height="553" fill="white" transform="translate(276)"/>
</clipPath>
<clipPath id="clip1_1031_644">
<rect width="648.327" height="648.327" fill="white" transform="matrix(-0.741034 0.671468 0.671468 0.741034 560.867 -198)"/>
</clipPath>
</defs>
</svg>
