<svg width="385" height="252" viewBox="0 0 385 252" fill="none" xmlns="http://www.w3.org/2000/svg">
<g clip-path="url(#clip0_1018_659)">
<path d="M235.453 150.593C233.12 127.058 251.607 106.648 275.258 106.648H340.296C364.07 106.648 382.597 127.261 380.069 150.901L370.077 244.341H244.744L235.453 150.593Z" fill="#333333"/>
<path d="M299.326 172.232C301.788 173.271 303.622 173.615 306.075 176.049C307.906 177.864 306.957 203.515 302.546 213.128L326.265 216.234C327 208.309 327.923 197.038 328.873 194.699C328.873 194.699 330.77 192.434 331.161 183.932C331.552 175.43 325.681 159.951 324.607 157.819C323.534 155.687 320.736 154.793 317.278 152.455C313.819 150.117 308.728 149.666 305.195 149.701C301.661 149.735 299.947 151.678 296.331 154.53C292.715 157.383 293.097 158.331 292.012 161.161C290.927 163.99 292.397 164.078 294.294 168.248C296.19 172.419 296.863 171.193 299.326 172.232Z" fill="#252525"/>
<path d="M294.5 175.541C296.827 176.523 298.56 176.848 300.878 179.148C302.608 180.864 301.711 205.104 297.543 214.187L319.958 217.122C320.652 209.634 321.524 198.982 322.422 196.773C322.422 196.773 324.214 194.632 324.584 186.598C324.953 178.563 319.405 163.936 318.391 161.921C317.376 159.907 314.733 159.061 311.464 156.852C308.196 154.643 303.385 154.217 300.046 154.249C296.707 154.281 295.087 156.118 291.67 158.813C288.253 161.509 288.614 162.405 287.589 165.079C286.564 167.753 287.953 167.835 289.745 171.776C291.537 175.717 292.173 174.559 294.5 175.541Z" fill="white"/>
<path d="M299.144 160.527C299.094 160.394 299.086 160.255 299.123 160.119C299.159 159.982 299.238 159.849 299.356 159.729C299.474 159.609 299.628 159.503 299.809 159.418C299.99 159.333 300.195 159.27 300.412 159.233C300.739 159.176 301.082 159.18 301.396 159.244C301.711 159.308 301.983 159.429 302.179 159.593C302.375 159.757 302.485 159.955 302.495 160.163C302.506 160.371 302.416 160.579 302.238 160.761C302.06 160.942 301.801 161.09 301.495 161.184C301.188 161.278 300.847 161.315 300.516 161.29C300.185 161.265 299.877 161.179 299.633 161.043C299.389 160.908 299.219 160.728 299.144 160.527Z" fill="black"/>
<path d="M292.39 162.436C293.021 163.855 289.942 163.896 291.189 166.355C292.435 168.815 293.873 167.935 294.975 170.048C296.078 172.161 297.128 172.381 295.885 173.674C294.643 174.966 276.94 179.319 274.784 179.251C272.628 179.184 271.277 178.587 272.66 177.44C274.042 176.293 278.185 172.109 281.742 169.008C285.299 165.906 285.871 164.354 288.525 163.169C291.179 161.985 292.061 161.673 292.39 162.436Z" fill="#F7931E"/>
<path d="M304.929 191.627C304.525 194.821 303.477 202.518 302.625 206.182C301.917 209.224 301.046 212.228 300.017 215.181C298.963 218.301 297.964 219.69 296.926 223.544C295.888 227.397 292.883 230.656 294.132 232.733C295.381 234.809 298.383 235.744 299.379 234.18C301.109 231.446 302.191 228.367 302.546 225.169C303.016 220.868 304.926 214.346 305.328 211.053C305.729 207.76 306.778 200.075 306.809 197.249C306.841 194.423 307.938 192.934 306.604 191.593C305.269 190.251 304.929 191.627 304.929 191.627Z" fill="#F2F2F2"/>
<path d="M313.757 178.469C312.881 176.719 313.303 176.112 310.838 174.939C308.373 173.766 308.908 172.374 304.485 172.505C300.062 172.636 297.891 173.181 297.145 173.735C296.4 174.289 297.408 175.283 297.97 175.509C298.532 175.735 301.576 176.151 302.391 178.117C303.206 180.082 303.035 180.181 302.578 181.653C302.121 183.126 302.586 184.478 303.604 184.734C305.587 184.832 307.575 184.516 309.434 183.805C310.932 183.184 314.345 182.506 314.086 180.968C313.826 179.431 313.757 178.469 313.757 178.469Z" fill="#F2F2F2"/>
<path d="M300.066 159.544L298.043 160.342C298.009 160.356 297.984 160.376 297.971 160.399C297.958 160.422 297.958 160.447 297.97 160.472C297.983 160.497 298.007 160.52 298.041 160.54C298.075 160.56 298.118 160.575 298.164 160.583L300.976 161.135L300.066 159.544Z" fill="black"/>
<path d="M301.387 159.544L303.41 160.342C303.444 160.356 303.469 160.376 303.482 160.399C303.495 160.422 303.495 160.447 303.483 160.472C303.47 160.497 303.446 160.52 303.412 160.54C303.378 160.56 303.335 160.575 303.289 160.583L300.477 161.135L301.387 159.544Z" fill="black"/>
<path d="M456.315 271.025H138.234V200.578L454.18 211.117L456.315 271.025Z" fill="#42210B"/>
<path d="M276.995 241.139C288.196 241.139 297.275 236.718 297.275 231.265C297.275 225.812 288.196 221.392 276.995 221.392C265.795 221.392 256.715 225.812 256.715 231.265C256.715 236.718 265.795 241.139 276.995 241.139Z" fill="#CFC212"/>
<path d="M276.995 239.004C288.196 239.004 297.275 234.583 297.275 229.13C297.275 223.678 288.196 219.257 276.995 219.257C265.795 219.257 256.715 223.678 256.715 229.13C256.715 234.583 265.795 239.004 276.995 239.004Z" fill="#FEED01"/>
<path d="M289.806 231.711L266.44 231.578C266.44 231.578 262.576 228.093 266.44 224.823C268.042 223.479 275.478 224.06 275.469 225.413L275.419 234.201" stroke="#141414" stroke-width="1.62" stroke-linecap="round" stroke-linejoin="round"/>
<path d="M278.062 234.201L278.596 225.128" stroke="#141414" stroke-width="1.62" stroke-linecap="round" stroke-linejoin="round"/>
<path d="M354.459 121.457C345.347 117.09 334.628 119.819 329 120.092C330.965 121.639 336.718 124.732 344.007 124.732C353.119 124.732 357.406 129.098 361.962 131.827C366.518 134.556 365.446 146.019 366.786 144.927C368.126 143.835 368.662 139.742 366.786 133.192C364.91 126.642 363.57 125.823 354.459 121.457Z" fill="#3E3E3E"/>
<path d="M127.048 171.254C126.547 179.25 124.547 193.732 127.048 202.229C129.548 210.725 129.543 212.715 130.543 216.71C131.543 220.706 131.043 221.459 133.538 215.215C136.033 208.972 137.787 207.219 142.782 201.728C147.778 196.238 149.627 199.852 150.959 191.613C152.291 183.375 157.646 174.49 150.959 172.507C144.271 170.523 127.048 171.254 127.048 171.254Z" fill="#B29797"/>
<path d="M127.295 250.928C127.295 241.936 127.171 225.078 129.042 221.706C130.914 218.334 129.542 210.467 138.287 202.976C147.031 195.485 154.769 189.489 158.264 187.741C161.759 185.994 172.251 205.224 175.246 223.454C178.242 241.684 175.246 250.928 175.246 250.928H127.295Z" fill="#231B14"/>
<path d="M124.279 142.077C121.615 133.086 118.62 114.103 124.279 102.779C129.938 91.456 131.584 79.801 146.257 80.4697C160.93 81.1385 175.231 88.1292 177.563 96.4518C179.896 104.774 173.877 134.417 171.236 138.413C168.595 142.408 159.266 156.581 152.916 159.486C146.566 162.392 131.938 166.14 127.628 159.436C123.318 152.732 124.279 142.077 124.279 142.077Z" fill="#B29797"/>
<path d="M158.249 87.7977C149.589 85.4655 145.594 78.4692 139.929 87.7977C134.265 97.1261 136.934 105.443 133.602 112.439C130.269 119.436 126.296 120.762 125.611 128.421C124.925 136.081 124.279 133.417 127.943 145.072C131.607 156.727 134.602 172.715 135.248 189.697C135.894 206.679 139.244 212.675 138.243 227.348C137.243 242.021 133.579 234.007 137.243 246.331C140.907 258.655 127.92 259.649 121.261 258.655C114.602 257.66 110.584 260.155 110.938 252.08C111.292 244.004 112.624 235.339 112.624 222.021C112.624 208.702 111.584 199.711 110.938 184.724C110.292 169.736 109.291 166.078 109.291 150.09C109.291 134.103 105.296 133.108 109.291 116.126C113.287 99.1435 111.624 87.8201 124.61 80.4922C137.597 73.1643 148.921 66.1511 163.576 75.474C178.232 84.7968 184.223 102.448 186.24 113.44C188.257 124.432 187.926 160.082 188.241 171.715C188.555 183.347 187.909 220.335 188.241 232.968C188.572 245.6 188.432 251.282 188.336 255.946C188.241 260.61 146.813 256.508 142.256 254.26C137.698 252.012 140.57 240.942 143.588 234.592C146.605 228.242 147.572 190.197 149.567 181.56C149.567 181.56 151.933 154.878 164.74 145.218C169.606 141.549 171.23 131.984 172.731 125.741C173.135 124.055 173.45 122.661 173.697 121.386C174.366 117.935 174.546 115.362 174.731 110.253C174.978 103.263 177.974 100.015 172.23 94.5186C166.487 89.0227 167.735 88.8148 162.992 88.2753L158.249 87.7977Z" fill="#3F3328"/>
<path d="M137.117 138.289C138.803 136.457 141.45 133.957 145.277 134.625C149.104 135.294 148.941 133.294 151.936 135.289C154.931 137.283 157.325 139.222 156.6 141.616C155.875 144.01 152.492 150.13 147.969 150.045C143.445 149.961 140.365 148.281 138.741 146.112C137.117 143.943 137.117 138.289 137.117 138.289Z" fill="#070707"/>
<path d="M156.001 139.61C151.707 139.239 143.733 139.211 137.844 140.695C138.021 141.473 138.325 142.217 138.743 142.897C140.367 145.28 143.446 147.123 147.97 147.224C151.724 147.309 154.686 142.701 156.001 139.61Z" fill="white"/>
<path d="M137.117 138.289C138.803 136.457 141.45 133.957 145.277 134.625C149.104 135.294 148.941 133.294 151.936 135.289C154.931 137.283 157.325 139.222 156.6 141.616C155.875 144.01 152.492 150.13 147.969 150.045C143.445 149.961 140.365 148.281 138.741 146.112C137.117 143.943 137.117 138.289 137.117 138.289Z" stroke="#665757" stroke-width="6" stroke-miterlimit="10"/>
<path d="M171.334 131.214C173.913 130.214 175.492 129.877 175.492 131.214C175.492 132.552 172.25 139.644 170.249 139.784C168.248 139.925 171.334 131.214 171.334 131.214Z" fill="#B29797"/>
<path d="M170.367 141.942C170.848 141.942 171.238 141.404 171.238 140.74C171.238 140.075 170.848 139.537 170.367 139.537C169.886 139.537 169.496 140.075 169.496 140.74C169.496 141.404 169.886 141.942 170.367 141.942Z" fill="#C69C6D"/>
<path d="M170.838 162.869C174.196 162.869 176.919 159.121 176.919 154.496C176.919 149.872 174.196 146.123 170.838 146.123C167.48 146.123 164.758 149.872 164.758 154.496C164.758 159.121 167.48 162.869 170.838 162.869Z" fill="#C69C6D"/>
<path d="M145.862 129.298C145.098 128.174 144.323 127.298 145.362 127.342C146.402 127.387 147.61 128.006 147.97 128.714C148.154 129 148.258 129.329 148.273 129.669C148.273 129.669 146.222 129.821 145.862 129.298Z" fill="#8E7B7B"/>
<path d="M150.941 129.877C151.304 129.277 151.841 128.802 152.481 128.517C152.897 128.298 153.644 128.68 153.105 129.197C152.565 129.714 150.941 129.877 150.941 129.877Z" fill="#8E7B7B"/>
<path d="M114.813 258.402C114.813 241.751 119.14 202.454 111.149 191.467C103.158 180.481 79.3702 166.011 65.7877 178.239C52.2053 190.467 43.1128 210.428 46.6812 231.063C50.2497 251.698 56.2345 270.034 72.5312 271.035C88.8279 272.035 114.813 258.402 114.813 258.402Z" fill="#8C8989"/>
<path d="M48.7005 157.166C46.8686 148.343 45.2052 136.373 48.7005 122.032C52.1959 107.691 49.3693 102.718 59.0237 100.054C68.6781 97.3904 72.342 94.3952 81.8335 98.3682C91.3249 102.341 98.3212 114.519 99.9846 119.161C101.648 123.802 102.48 132.816 104.649 138.481C106.818 144.145 108.307 162.291 106.144 168.118C103.98 173.946 105.812 188.264 99.4845 192.591C93.1569 196.918 81.5019 196.587 76.9276 192.591C72.3533 188.596 59.8554 175.277 55.1968 169.95C50.5381 164.623 48.7005 157.166 48.7005 157.166Z" fill="#EFC5C5"/>
<path d="M123.469 176.896C123.469 176.896 99.0749 220.02 97.3273 224.016C95.5796 228.011 78.3444 261.234 71.1008 265.977C63.8572 270.72 30.078 277.716 24.3686 270.473C18.6591 263.229 11.91 232.012 11.4099 228.011C10.1736 218.149 18.9007 211.782 30.1398 210.529C41.379 209.276 46.3748 207.286 50.6231 213.53C54.8715 219.773 52.871 225.516 52.871 225.516C52.871 225.516 103.318 176.064 104.318 172.316C105.318 168.568 106.566 163.077 111.061 161.077C115.557 159.076 125.549 150.838 130.792 147.843C136.035 144.847 136.456 142.178 141.469 141.431C146.482 140.683 151.376 138.458 157.119 140.459C162.863 142.459 166.026 145.842 173.017 146.342C180.008 146.842 183.762 145.342 185.256 146.842C186.751 148.343 185.818 151.242 183.07 153.771C180.322 156.3 163.632 150.799 156.951 152.501C156.951 152.501 154.827 154.67 155.203 159.413C155.58 164.156 159.53 169.444 158.535 171.692C157.541 173.94 151.399 174.94 151.399 174.94C151.399 174.94 148.78 178.199 144.537 177.699C144.537 177.699 140.289 184.443 136.293 182.071C136.293 182.071 128.926 172.321 128.049 171.827C127.173 171.332 123.469 176.896 123.469 176.896Z" fill="#D8B6B6"/>
<path d="M156.729 156.022C160.052 156.044 161.174 155.539 162.431 157.55C163.687 159.561 163.496 164.36 159.726 165.607C155.955 166.854 155.811 163.643 155.181 161.593C154.881 160.622 153.941 156 156.729 156.022Z" fill="#D8B6B6" stroke="#DBB4B4" stroke-miterlimit="10"/>
<path d="M15.9054 207.534C15.9054 194.547 11.6571 185.303 26.8917 186.303C42.1263 187.303 55.366 184.555 57.1137 199.042C58.8613 213.53 56.3663 217.525 55.1187 221.268C53.8712 225.01 44.908 235.255 34.6354 236.255C24.3629 237.255 12.4101 238.003 11.9099 228.511C11.4098 219.02 15.9054 207.534 15.9054 207.534Z" fill="#CCC6C6"/>
<path d="M70.3537 101.217C59.3619 102.055 59.862 97.5589 57.1983 104.881C54.5347 112.203 53.8659 118.037 54.2031 125.527C54.5403 133.018 55.0348 136.205 53.0342 146.101C51.0337 155.997 47.5439 154.67 52.0396 162.161C56.5352 169.652 78.0132 189.467 81.0084 197.795C84.0036 206.123 97.8277 222.105 98.3279 226.764C98.828 231.422 97.8277 238.256 98.3279 241.082C98.828 243.909 92.8319 247.41 92.9949 246.415C93.1579 245.421 90.3312 241.082 85.8356 235.255C81.1408 229.376 75.4497 224.368 69.0219 220.459C63.1944 216.963 60.3621 218.295 58.5302 212.968C56.6982 207.64 48.1227 190.945 36.5127 189.45C24.9027 187.955 21.4018 199.042 21.1489 205.286C20.896 211.529 22.1492 218.149 19.2776 226.14C16.406 234.131 13.658 234.26 13.658 234.26C13.658 234.26 7.41468 157.334 27.3922 122.864C47.3697 88.3934 43.0989 91.147 55.6024 88.6463C68.1059 86.1456 74.0963 81.4083 83.3405 88.6463C92.5847 95.8843 112.062 134.356 112.562 137.851C113.062 141.346 113.31 153.833 112.562 161.83C111.815 169.826 108.314 188.051 107.066 186.803C105.819 185.556 107.179 159.829 105.875 148.843C104.571 137.857 95.8272 103.386 79.5923 99.8854L70.3537 101.217Z" fill="#C69C6D"/>
<path d="M82.0298 152.777C81.1419 152.187 82.4007 150.591 84.2102 151.214C84.8152 151.393 85.3684 151.715 85.823 152.153C85.8833 152.217 85.9262 152.295 85.9475 152.38C85.9688 152.465 85.9679 152.554 85.9447 152.639C85.9216 152.724 85.877 152.801 85.8154 152.864C85.7537 152.926 85.6769 152.972 85.5926 152.996C84.744 153.254 83.193 153.552 82.0298 152.777Z" fill="#D8AFAF"/>
<path d="M98.0112 177.795C97.2638 173.945 97.6797 170.95 97.9269 165.471C97.9944 164.106 98.1068 162.903 98.2192 161.841C96.9404 160.286 95.3199 159.047 93.4839 158.22C91.6479 157.394 89.6459 157.002 87.6338 157.076C85.6217 157.15 83.6539 157.688 81.8835 158.647C80.1131 159.606 78.588 160.96 77.4268 162.605C76.8937 165.498 76.782 168.453 77.0952 171.377C77.5111 175.401 78.0225 175.997 78.5114 180.11C78.5114 180.161 78.5114 180.206 78.5114 180.256C79.734 181.585 81.2191 182.646 82.8726 183.371C84.5262 184.097 86.3123 184.472 88.118 184.472C89.9237 184.472 91.7099 184.097 93.3634 183.371C95.017 182.646 96.502 181.585 97.7246 180.256C98.0379 179.476 98.1369 178.626 98.0112 177.795Z" fill="#070707"/>
<path d="M87.6706 156.396C82.6749 156.75 81.4273 157.666 79.1795 159.071C78.5799 159.49 78.1167 160.076 77.8477 160.756C78.9716 161.937 80.9834 162.706 83.4279 162.706C86.1702 162.706 94.0601 161.908 98.2972 160.655C98.6063 158.441 98.8199 157.053 97.9095 156.092C96.5776 154.71 92.6664 156.064 87.6706 156.396Z" fill="white"/>
<path d="M90.1456 150.776C91.5112 149.787 93.3488 150.501 92.7587 151.383C91.9327 152.619 90.2412 152.9 89.387 152.968C89.1622 152.968 88.7464 152.737 88.8532 152.546C88.8869 152.524 88.7969 151.748 90.1456 150.776Z" fill="#D8AFAF"/>
<path d="M89.4588 167.635C87.211 168.051 85.8342 169.427 84.0865 168.888C82.8221 168.495 79.5909 168.781 76.9609 169.534C76.9609 170.192 77.034 170.827 77.0958 171.4C77.5116 175.423 78.023 176.019 78.5119 180.133C78.5119 180.183 78.5119 180.228 78.5119 180.279C79.7346 181.608 81.2196 182.668 82.8732 183.394C84.5267 184.12 86.3128 184.494 88.1186 184.494C89.9243 184.494 91.7104 184.12 93.364 183.394C95.0175 182.668 96.5025 181.608 97.7252 180.279C98.025 179.503 98.1142 178.661 97.9837 177.84C97.3824 174.738 97.5341 172.187 97.7477 168.45C94.3478 167.635 90.7064 167.376 89.4588 167.635Z" fill="#470808"/>
<path d="M98.0155 177.98C97.8387 177.099 97.7186 176.208 97.6558 175.311C96.3858 175.339 96.2903 178.368 95.3518 180.183C94.2279 182.369 90.2324 182.493 85.9896 182.56C81.7469 182.628 80.4937 177.626 79.7407 176.812C79.381 176.424 78.7629 176.991 78.1953 177.935C78.3133 178.576 78.4257 179.307 78.5381 180.228C78.5381 184.162 82.6966 185.971 87.8385 186.719C92.9804 187.466 98.746 181.723 98.0155 177.98Z" fill="white"/>
<path d="M77.1002 171.737C76.6844 167.803 76.9317 161.414 79.1795 159.745C81.4273 158.076 82.6748 156.997 87.6706 156.581C92.6664 156.165 96.5776 154.586 97.9095 156.25C99.2413 157.913 98.1623 160.661 97.9095 165.988C97.6566 171.316 97.2464 174.232 97.9938 177.98C98.7412 181.729 92.9586 187.472 87.8167 186.741C82.6749 186.011 78.5164 184.162 78.5164 180.251C78.0275 176.227 77.5161 175.648 77.1002 171.737Z" stroke="#C48383" stroke-width="4" stroke-miterlimit="10"/>
<path d="M123.469 176.896C123.469 176.896 105.694 208.315 99.4059 220.003C98.3213 222.01 82.7383 195.755 82.7383 195.755C82.7383 195.755 103.98 173.575 104.317 172.316C105.318 168.573 106.565 163.077 111.061 161.077C115.556 159.076 125.548 150.838 130.791 147.843C136.034 144.847 136.456 142.178 141.468 141.431C146.481 140.683 151.376 138.458 157.119 140.459C162.862 142.459 166.026 145.842 173.016 146.342C180.007 146.842 183.761 145.342 185.256 146.842C186.751 148.343 185.818 151.242 183.07 153.771C180.322 156.3 163.632 150.799 156.95 152.501C156.95 152.501 154.826 154.67 155.202 159.413C155.579 164.156 159.53 169.444 158.535 171.692C157.54 173.94 151.398 174.94 151.398 174.94C151.398 174.94 148.779 178.2 144.537 177.699C144.537 177.699 140.288 184.443 136.293 182.071C136.293 182.071 129.073 177.39 128.197 176.896C127.32 176.401 123.469 176.896 123.469 176.896Z" fill="#D8B6B6"/>
<path d="M128.719 160.212C130.194 160.018 133.798 160.212 134.699 161.936C135.599 163.659 144.359 177.877 144.359 177.877" stroke="#C6A3A3" stroke-miterlimit="10"/>
<path d="M137.059 152.427C138.931 152.353 141.488 151.63 142.849 155.68C144.211 159.729 151.656 174.749 151.656 174.749" stroke="#C6A3A3" stroke-miterlimit="10"/>
<path d="M141.23 142.947C145.006 143.068 148.844 143.541 150.182 147.725C151.52 151.908 155.307 157.023 155.307 157.023" stroke="#C6A3A3" stroke-miterlimit="10"/>
<path d="M155.192 157.272C155.192 157.272 154.069 162.661 156.732 165.46" stroke="#C6A3A3" stroke-miterlimit="10"/>
</g>
<defs>
<clipPath id="clip0_1018_659">
<rect width="385" height="252" fill="white"/>
</clipPath>
</defs>
</svg>
