<svg width="215" height="149" viewBox="0 0 215 149" fill="none" xmlns="http://www.w3.org/2000/svg">
<path d="M6.06269 89.375C1.55227 92.0806 -2.05606 102.001 2.45436 107.412C6.96478 112.823 7.86686 111.921 7.86686 111.921C7.86686 111.921 7.76763 101.766 14.1814 97.4917C16.8877 95.688 6.06269 89.375 6.06269 89.375Z" fill="#666666"/>
<path d="M6.06261 89.42C4.30904 90.8546 2.95713 92.7188 2.13857 94.8311C1.26334 96.8984 0.797662 99.1159 0.767387 101.361C0.678173 103.615 1.40165 105.826 2.8061 107.592C3.52168 108.485 4.29621 109.328 5.12447 110.118C5.53208 110.51 5.9661 110.875 6.42347 111.209C6.64969 111.366 6.88796 111.504 7.13609 111.624C7.2502 111.682 7.37157 111.724 7.49695 111.75C7.59618 111.75 7.76756 111.75 7.70441 111.75L7.64126 111.912C7.59184 109.469 7.9329 107.033 8.65159 104.697C9.01298 103.525 9.49046 102.393 10.0769 101.315C10.6783 100.226 11.4383 99.2322 12.3321 98.3664C12.783 97.9333 13.2687 97.5382 13.7844 97.1849C14.0551 96.9775 14.1182 96.9414 14.1453 96.7971C14.1646 96.5945 14.1238 96.3906 14.028 96.211C13.4302 95.2382 12.6634 94.3799 11.7638 93.6767C9.93773 92.1609 8.03482 90.7401 6.06261 89.42ZM6.06261 89.3298C8.22402 90.4172 10.2831 91.697 12.2148 93.1537C13.239 93.8891 14.1196 94.8061 14.8128 95.8592C15.0129 96.2055 15.0922 96.6084 15.0384 97.0046C14.9916 97.2333 14.8894 97.447 14.7407 97.6269C14.5873 97.7712 14.4069 97.9154 14.3167 97.9876C13.8504 98.3202 13.4129 98.6913 13.0087 99.0969C12.1847 99.9026 11.469 100.812 10.8798 101.802C10.2998 102.815 9.81943 103.881 9.44543 104.986C8.68816 107.227 8.23312 109.56 8.0923 111.921V112.048H8.02915C7.93819 112.111 7.83283 112.151 7.72258 112.164C7.61233 112.176 7.50064 112.161 7.39768 112.12C7.24565 112.08 7.09992 112.019 6.9647 111.939C6.6988 111.804 6.44784 111.64 6.21595 111.452C5.75911 111.089 5.32244 110.7 4.90792 110.289C4.09604 109.468 3.3293 108.62 2.57155 107.746C0.982749 105.976 0.0719767 103.701 0.000637792 101.324C-0.0207821 98.966 0.497593 96.6339 1.51613 94.5065C2.45628 92.3502 4.04551 90.5407 6.06261 89.3298Z" fill="black"/>
<path d="M26.8107 79.4546C22.3003 82.1601 18.692 92.0805 23.2024 97.4916C27.7128 102.903 28.6149 102.001 28.6149 102.001C28.6149 102.001 28.5157 91.846 34.9295 87.5713C37.6357 85.7676 26.8107 79.4546 26.8107 79.4546Z" fill="#666666"/>
<path d="M26.8106 79.4996C25.0571 80.9342 23.7052 82.7984 22.8866 84.9107C22.0114 86.978 21.5457 89.1955 21.5154 91.4401C21.4262 93.6945 22.1497 95.906 23.5541 97.6719C24.2697 98.5644 25.0442 99.408 25.8725 100.197C26.2801 100.59 26.7141 100.955 27.1715 101.288C27.3977 101.445 27.636 101.584 27.8841 101.703C27.9982 101.761 28.1196 101.804 28.245 101.829C28.3442 101.829 28.5156 101.829 28.4524 101.829L28.3893 101.992C28.3399 99.5484 28.6809 97.1128 29.3996 94.777C29.761 93.6051 30.2385 92.4721 30.8249 91.395C31.4263 90.3057 32.1863 89.3118 33.0801 88.446C33.5309 88.013 34.0167 87.6178 34.5324 87.2646C34.8031 87.0571 34.8662 87.0211 34.8933 86.8768C34.9126 86.6741 34.8718 86.4702 34.776 86.2905C34.1782 85.3177 33.4114 84.4595 32.5118 83.7563C30.6857 82.2405 28.7828 80.8197 26.8106 79.4996ZM26.8106 79.4094C28.972 80.4968 31.0311 81.7766 32.9628 83.2333C33.987 83.9687 34.8676 84.8857 35.5608 85.9388C35.7609 86.2851 35.8402 86.6879 35.7863 87.0842C35.7396 87.3128 35.6373 87.5265 35.4886 87.7065C35.3353 87.8507 35.1549 87.995 35.0647 88.0672C34.5984 88.3998 34.1609 88.7708 33.7567 89.1765C32.9327 89.9822 32.217 90.8917 31.6278 91.882C31.0478 92.8943 30.5674 93.9605 30.1934 95.0656C29.4362 97.3069 28.9811 99.6392 28.8403 102.001V102.127H28.7772C28.6862 102.191 28.5808 102.231 28.4706 102.243C28.3603 102.256 28.2487 102.241 28.1457 102.199C27.9937 102.16 27.8479 102.099 27.7127 102.019C27.4468 101.883 27.1959 101.72 26.964 101.532C26.5071 101.168 26.0705 100.78 25.6559 100.368C24.8441 99.5478 24.0773 98.7 23.3196 97.8252C21.7308 96.0557 20.82 93.7809 20.7487 91.4041C20.7273 89.0456 21.2456 86.7135 22.2642 84.586C23.2043 82.4298 24.7935 80.6203 26.8106 79.4094Z" fill="black"/>
<path d="M144.081 46.0861C138.498 30.7546 131.452 1.89534 162.123 0.0916396C192.794 -1.71206 223.465 23.5398 211.738 37.9694C200.011 52.399 181.067 65.025 175.654 82.1602C170.242 99.2953 159.417 101.099 157.613 112.823C155.809 124.547 154.906 155.21 133.256 145.29C111.606 135.369 80.0335 121.842 68.3064 102.001C68.3064 102.001 58.3835 102.001 50.2648 98.3935C42.146 94.7861 44.8523 86.6694 35.8314 89.375C26.8106 92.0805 23.2023 99.2953 15.0835 99.2953C6.96476 99.2953 2.45435 97.4916 2.45435 91.1787C2.45435 84.8657 17.7898 72.2398 28.6148 70.4361C39.4398 68.6324 51.1668 69.5342 75.5231 82.1602C99.8793 94.7861 117.921 101.099 129.648 94.7861C141.375 88.4731 151.298 65.9268 144.081 46.0861Z" fill="#F2F2F2"/>
<path d="M211.738 37.9692C200.011 52.3989 181.067 65.0248 175.654 82.16C170.242 99.2952 159.417 101.099 157.613 112.823C155.809 124.547 154.906 155.21 133.256 145.29C111.606 135.369 80.0335 121.841 68.3064 102.001C68.3064 102.001 58.3835 102.001 50.2648 98.3933C42.146 94.7859 44.8523 86.6692 35.8314 89.3748C26.8106 92.0803 23.2023 99.2952 15.0835 99.2952C6.96476 99.2952 2.45435 97.4915 2.45435 91.1785C2.45435 84.8655 17.7898 72.2396 28.6148 70.4359C39.4398 68.6322 51.1668 69.534 75.5231 82.16C99.8793 94.7859 117.921 101.099 129.648 94.7859C141.375 88.4729 151.298 65.9266 144.081 46.0859" fill="#F2F2F2"/>
<path d="M211.738 37.9692C200.011 52.3989 181.067 65.0248 175.654 82.16C170.242 99.2952 159.417 101.099 157.613 112.823C155.809 124.547 154.906 155.21 133.256 145.29C111.606 135.369 80.0335 121.841 68.3064 102.001C68.3064 102.001 58.3835 102.001 50.2648 98.3933C42.146 94.7859 44.8523 86.6692 35.8314 89.3748C26.8106 92.0803 23.2023 99.2952 15.0835 99.2952C6.96476 99.2952 2.45435 97.4915 2.45435 91.1785C2.45435 84.8655 17.7898 72.2396 28.6148 70.4359C39.4398 68.6322 51.1668 69.5341 75.5231 82.16C99.8793 94.7859 117.921 101.099 129.648 94.7859C141.375 88.4729 151.298 65.9266 144.081 46.0859" stroke="black" stroke-width="2" stroke-miterlimit="10"/>
</svg>
