<svg width="1302" height="315" viewBox="0 0 1302 315" fill="none" xmlns="http://www.w3.org/2000/svg">
<g clip-path="url(#clip0_1018_658)">
<path d="M1098.13 120.63C1098.13 120.63 1117 119.24 1118.39 120C1119.78 120.76 1113.02 127.57 1113.02 127.57L1110.81 129.84L1118.58 132.06L1114.78 133.88L1111.5 135.27L1116.17 137.54L1108.86 139.65L1117.18 143.59L1109.99 145.46L1112.64 148.38L1105.83 149.14L1113.52 155.07L1105.32 155.7L1109.23 159.99L1104.52 160.75L1110.12 164.91L1103.56 166.8L1105.83 170.46H1101.29L1106.84 176.46L1098.26 175.58L1099 179H1095.21L1099.61 185.52C1099.61 185.52 1093.99 187.05 1091.09 185.85C1088.19 184.65 1081.46 181.39 1081.46 181.39L1098.13 120.63Z" fill="#75C4FD"/>
<path d="M1049.57 131.61C1058.02 126.31 1059.79 120.26 1074.29 119.12C1088.79 117.98 1103.94 119.12 1104.44 120.26C1104.94 121.4 1103.13 141.59 1098.26 157.09C1094.1 170.33 1086.32 183.65 1086.32 183.65C1086.32 183.65 1054.62 176.39 1046.42 155.07L1049.57 131.61Z" fill="#D5D0A6"/>
<path d="M556.881 140.13C558.881 136.13 646.691 92.6302 695.131 86.0702C743.571 79.5102 779.891 74.0002 810.671 76.0002C841.451 78.0002 1049.82 114.35 1051.84 115.36C1053.86 116.37 1050.84 167.83 1042.26 173.88C1033.68 179.93 909.061 202.64 873.261 204.16C837.461 205.68 735.021 206.68 711.261 199.62C711.261 199.62 667.591 195.62 649.711 164.3C647.711 160.77 632.711 152.1 612.881 151.68C588.671 151.16 556.881 140.13 556.881 140.13Z" fill="#A9F5B4"/>
<path d="M556.881 140.13C557.881 138.13 701.231 164.19 824.801 172.5C945.461 180.62 1046.49 170.87 1042.26 173.86C1033.68 179.92 909.061 202.62 873.261 204.14C837.461 205.66 735.021 206.66 711.261 199.6C711.261 199.6 667.591 195.6 649.711 164.28C647.711 160.75 632.711 152.08 612.881 151.66C588.671 151.16 556.881 140.13 556.881 140.13Z" fill="#9DE0A3"/>
<path d="M556.881 140.13C556.881 140.13 1048.32 138.57 1051.35 139.65C1054.38 140.73 1053.35 145.6 1051.35 146.9C1049.35 148.2 564.461 145.76 562.951 145.11C561.441 144.46 556.881 140.13 556.881 140.13Z" fill="#702829"/>
<path d="M897.273 88.62C897.273 88.62 1002.9 32.09 1020.06 30.62C1037.22 29.15 1262.74 20 1262.74 20C1262.74 20 1092.74 60.87 1077.07 72.47C1061.4 84.07 1048.31 118.38 1048.31 118.38L897.273 88.62Z" fill="#208871"/>
<path d="M880.89 97.1699H866.76C865.6 97.1699 864.66 98.1101 864.66 99.2699V116.26C864.66 117.42 865.6 118.36 866.76 118.36H880.89C882.05 118.36 882.99 117.42 882.99 116.26V99.2699C882.99 98.1101 882.05 97.1699 880.89 97.1699Z" fill="#D5D0A6"/>
<path d="M864.66 125.34C864.66 124.783 864.881 124.249 865.275 123.855C865.669 123.461 866.203 123.24 866.76 123.24H880.89C881.447 123.24 881.981 123.461 882.375 123.855C882.769 124.249 882.99 124.783 882.99 125.34" stroke="black" stroke-width="2.27" stroke-miterlimit="10"/>
<path d="M999.403 108.78H924.153C921.016 108.78 918.473 111.323 918.473 114.46V125.6C918.473 128.737 921.016 131.28 924.153 131.28H999.403C1002.54 131.28 1005.08 128.737 1005.08 125.6V114.46C1005.08 111.323 1002.54 108.78 999.403 108.78Z" fill="#D5D0A6"/>
<path d="M925.532 110.86C926.09 110.873 926.62 111.107 927.006 111.51C927.392 111.913 927.603 112.452 927.592 113.01L927.312 127.13C927.307 127.406 927.247 127.678 927.137 127.931C927.026 128.184 926.867 128.412 926.669 128.603C926.47 128.795 926.235 128.945 925.979 129.046C925.722 129.146 925.448 129.195 925.172 129.19" stroke="black" stroke-width="2.27" stroke-miterlimit="10"/>
<path d="M934.694 110.86C935.252 110.873 935.782 111.107 936.168 111.51C936.554 111.913 936.764 112.452 936.754 113.01L936.484 127.13C936.479 127.406 936.419 127.678 936.309 127.931C936.198 128.184 936.039 128.412 935.84 128.603C935.642 128.795 935.407 128.945 935.15 129.046C934.894 129.146 934.62 129.195 934.344 129.19" stroke="black" stroke-width="2.27" stroke-miterlimit="10"/>
<path d="M942.852 110.12C943.409 110.136 943.938 110.37 944.323 110.773C944.709 111.175 944.92 111.713 944.912 112.27L944.642 126.39C944.629 126.948 944.395 127.478 943.993 127.864C943.59 128.25 943.05 128.461 942.492 128.45" stroke="black" stroke-width="2.27" stroke-miterlimit="10"/>
<path d="M952.428 110.12C952.987 110.133 953.518 110.367 953.906 110.769C954.293 111.172 954.506 111.711 954.498 112.27L954.218 126.39C954.214 126.666 954.156 126.939 954.046 127.192C953.936 127.446 953.777 127.675 953.578 127.866C953.379 128.058 953.144 128.208 952.886 128.308C952.629 128.409 952.354 128.457 952.078 128.45" stroke="black" stroke-width="2.27" stroke-miterlimit="10"/>
<path d="M962.141 110.86C962.697 110.873 963.226 111.105 963.612 111.506C963.997 111.907 964.209 112.444 964.201 113L963.921 127.12C963.916 127.396 963.857 127.668 963.746 127.921C963.636 128.174 963.477 128.402 963.278 128.593C963.079 128.785 962.845 128.935 962.588 129.036C962.331 129.136 962.057 129.185 961.781 129.18" stroke="black" stroke-width="2.27" stroke-miterlimit="10"/>
<path d="M971.1 110.86C971.377 110.865 971.65 110.925 971.903 111.036C972.156 111.147 972.385 111.307 972.577 111.507C972.768 111.707 972.918 111.942 973.018 112.2C973.119 112.458 973.167 112.733 973.16 113.01L972.89 127.13C972.885 127.406 972.825 127.678 972.715 127.931C972.605 128.184 972.445 128.412 972.247 128.603C972.048 128.795 971.814 128.945 971.557 129.046C971.3 129.146 971.026 129.195 970.75 129.19" stroke="black" stroke-width="2.27" stroke-miterlimit="10"/>
<path d="M980.27 110.86C980.828 110.873 981.358 111.107 981.744 111.51C982.13 111.913 982.341 112.452 982.33 113.01L982.06 127.13C982.044 127.687 981.81 128.216 981.408 128.601C981.005 128.987 980.467 129.198 979.91 129.19" stroke="black" stroke-width="2.27" stroke-miterlimit="10"/>
<path d="M988.93 111.39C989.206 111.395 989.478 111.455 989.731 111.565C989.984 111.676 990.212 111.835 990.404 112.033C990.595 112.232 990.745 112.467 990.846 112.723C990.947 112.98 990.996 113.254 990.99 113.53L990.72 127.65C990.715 127.927 990.655 128.2 990.544 128.453C990.433 128.707 990.273 128.936 990.074 129.127C989.874 129.318 989.638 129.469 989.38 129.569C989.122 129.669 988.847 129.717 988.57 129.71" stroke="black" stroke-width="2.27" stroke-miterlimit="10"/>
<path d="M996.159 111.89C996.436 111.894 996.708 111.953 996.962 112.063C997.215 112.172 997.444 112.331 997.636 112.53C997.827 112.729 997.978 112.964 998.078 113.222C998.178 113.479 998.226 113.754 998.219 114.03L997.999 128.16C997.994 128.436 997.935 128.708 997.824 128.961C997.714 129.214 997.555 129.442 997.356 129.633C997.157 129.825 996.923 129.975 996.666 130.076C996.409 130.176 996.135 130.225 995.859 130.22" stroke="black" stroke-width="2.27" stroke-miterlimit="10"/>
<path d="M864.66 129.88C864.66 129.323 864.881 128.789 865.275 128.395C865.669 128.001 866.203 127.78 866.76 127.78H880.89C881.447 127.78 881.981 128.001 882.375 128.395C882.769 128.789 882.99 129.323 882.99 129.88" stroke="black" stroke-width="2.27" stroke-miterlimit="10"/>
<path d="M864.66 134.43C864.659 134.153 864.712 133.879 864.817 133.623C864.922 133.367 865.077 133.135 865.272 132.939C865.467 132.743 865.699 132.587 865.954 132.481C866.21 132.375 866.484 132.32 866.76 132.32H880.89C881.167 132.32 881.441 132.375 881.696 132.481C881.952 132.587 882.184 132.743 882.379 132.939C882.574 133.135 882.728 133.367 882.833 133.623C882.938 133.879 882.992 134.153 882.99 134.43" stroke="black" stroke-width="2.27" stroke-miterlimit="10"/>
<path d="M864.66 154.86C864.66 154.303 864.881 153.769 865.275 153.375C865.669 152.982 866.203 152.76 866.76 152.76H880.89C881.447 152.76 881.981 152.982 882.375 153.375C882.769 153.769 882.99 154.303 882.99 154.86" stroke="black" stroke-width="2.27" stroke-miterlimit="10"/>
<path d="M864.66 159.4C864.66 158.843 864.881 158.309 865.275 157.915C865.669 157.521 866.203 157.3 866.76 157.3H880.89C881.447 157.3 881.981 157.521 882.375 157.915C882.769 158.309 882.99 158.843 882.99 159.4" stroke="black" stroke-width="2.27" stroke-miterlimit="10"/>
<path d="M864.66 163.94C864.66 163.383 864.881 162.849 865.275 162.455C865.669 162.061 866.203 161.84 866.76 161.84H880.89C881.447 161.84 881.981 162.061 882.375 162.455C882.769 162.849 882.99 163.383 882.99 163.94" stroke="black" stroke-width="2.27" stroke-miterlimit="10"/>
<path d="M659.732 112.48C662.891 112.48 665.452 110.183 665.452 107.35C665.452 104.517 662.891 102.22 659.732 102.22C656.573 102.22 654.012 104.517 654.012 107.35C654.012 110.183 656.573 112.48 659.732 112.48Z" fill="#000A03"/>
<path d="M659.732 110.46C661.648 110.46 663.202 109.068 663.202 107.35C663.202 105.633 661.648 104.24 659.732 104.24C657.815 104.24 656.262 105.633 656.262 107.35C656.262 109.068 657.815 110.46 659.732 110.46Z" fill="#9EC7DB"/>
<path d="M697.652 110.76C700.905 110.76 703.542 108.463 703.542 105.63C703.542 102.797 700.905 100.5 697.652 100.5C694.399 100.5 691.762 102.797 691.762 105.63C691.762 108.463 694.399 110.76 697.652 110.76Z" fill="#000A03"/>
<path d="M697.648 108.74C699.62 108.74 701.218 107.348 701.218 105.63C701.218 103.912 699.62 102.52 697.648 102.52C695.676 102.52 694.078 103.912 694.078 105.63C694.078 107.348 695.676 108.74 697.648 108.74Z" fill="#9EC7DB"/>
<path d="M745.331 108.74C748.584 108.74 751.221 106.443 751.221 103.61C751.221 100.777 748.584 98.48 745.331 98.48C742.078 98.48 739.441 100.777 739.441 103.61C739.441 106.443 742.078 108.74 745.331 108.74Z" fill="#000A03"/>
<path d="M986.76 204.77L1030.34 216.5L1029.7 219.84L979.82 215.74L986.76 204.77Z" fill="#307A65"/>
<path d="M1030.78 215.3L1044.78 221.04L1030.34 221.8L1030.78 215.3Z" fill="#702829"/>
<path d="M1031.88 214.341C1032.02 213.374 1031.35 212.476 1030.38 212.336C1029.42 212.196 1028.52 212.866 1028.38 213.834L1027.18 222.097C1027.04 223.064 1027.71 223.962 1028.67 224.102C1029.64 224.242 1030.53 223.572 1030.67 222.605L1031.88 214.341Z" fill="white"/>
<path d="M758.069 69.0001C757.879 68.9401 731.459 62.0001 730.569 61.3101C729.679 60.6201 727.919 58.3101 726.729 58.7801C725.539 59.2501 723.569 63.7801 724.199 64.5201C724.829 65.2601 729.439 64.7101 730.129 65.0901C730.819 65.4701 755.859 71.5201 755.859 71.5201L758.069 69.0001Z" fill="#B8B8B8"/>
<path d="M775.672 75.1601C781.559 75.1601 786.332 70.3874 786.332 64.5001C786.332 58.6127 781.559 53.8401 775.672 53.8401C769.784 53.8401 765.012 58.6127 765.012 64.5001C765.012 70.3874 769.784 75.1601 775.672 75.1601Z" fill="#9EC7DB"/>
<path d="M745.332 106.72C747.303 106.72 748.902 105.328 748.902 103.61C748.902 101.892 747.303 100.5 745.332 100.5C743.36 100.5 741.762 101.892 741.762 103.61C741.762 105.328 743.36 106.72 745.332 106.72Z" fill="#9EC7DB"/>
<path d="M807.941 109.42C811.619 109.42 814.601 106.819 814.601 103.61C814.601 100.401 811.619 97.8 807.941 97.8C804.263 97.8 801.281 100.401 801.281 103.61C801.281 106.819 804.263 109.42 807.941 109.42Z" fill="#000A03"/>
<path d="M807.938 107.13C810.17 107.13 811.978 105.554 811.978 103.61C811.978 101.666 810.17 100.09 807.938 100.09C805.707 100.09 803.898 101.666 803.898 103.61C803.898 105.554 805.707 107.13 807.938 107.13Z" fill="#9EC7DB"/>
<path d="M873.302 107.88C875.533 107.88 877.342 106.304 877.342 104.36C877.342 102.416 875.533 100.84 873.302 100.84C871.07 100.84 869.262 102.416 869.262 104.36C869.262 106.304 871.07 107.88 873.302 107.88Z" fill="#000A03"/>
<path d="M873.302 106.5C874.655 106.5 875.752 105.542 875.752 104.36C875.752 103.178 874.655 102.22 873.302 102.22C871.948 102.22 870.852 103.178 870.852 104.36C870.852 105.542 871.948 106.5 873.302 106.5Z" fill="white" stroke="black" stroke-width="0.91" stroke-miterlimit="10"/>
<path d="M1026.11 95.29C1042.42 95.29 1055.63 82.0734 1055.63 65.77C1055.63 49.4666 1042.42 36.25 1026.11 36.25C1009.81 36.25 996.594 49.4666 996.594 65.77C996.594 82.0734 1009.81 95.29 1026.11 95.29Z" fill="#D5D0A6"/>
<path d="M745.331 74.0001C745.861 73.6701 795.781 73.0001 800.831 71.8601C800.831 71.8601 806.251 74.3801 804.241 77.5401C802.231 80.7001 747.701 82.5401 744.431 79.5401C744.046 79.1514 743.758 78.677 743.591 78.1558C743.424 77.6345 743.383 77.0812 743.471 76.541C743.558 76.0007 743.773 75.4889 744.096 75.0473C744.42 74.6057 744.843 74.2469 745.331 74.0001Z" fill="#000A03"/>
<path d="M787.913 62.1101H763.433C761.798 62.1101 760.473 63.4353 760.473 65.0701V65.0801C760.473 66.7149 761.798 68.0401 763.433 68.0401H787.913C789.547 68.0401 790.873 66.7149 790.873 65.0801V65.0701C790.873 63.4353 789.547 62.1101 787.913 62.1101Z" fill="#338B75"/>
<path d="M760.094 65.6401L747.094 74.4701C747.094 74.4701 800.324 73.4701 800.574 73.0801C800.824 72.6901 790.574 65.6401 790.574 65.6401C790.574 65.6401 769.554 68.2901 760.094 65.6401Z" fill="#307A65"/>
<path d="M885.68 190C885.68 190 877.44 191 873.06 186.3C868.68 181.6 865.83 176.21 867.35 173.01C868.87 169.81 888.35 163.09 896.61 161.83C904.87 160.57 919.82 158.21 936.81 159.39C953.8 160.57 963.88 160.57 979.69 163.93C995.5 167.29 1000.69 167.46 1011.48 172.34C1022.27 177.22 1022.24 180.02 1020.06 182.18C1017.88 184.34 1009.63 184.18 1009.63 184.18C1009.63 184.18 982.89 175.82 972.96 174.59C963.03 173.36 941.51 169.66 928.56 169.66C915.61 169.66 901.99 169.83 892.56 172.35C883.13 174.87 878.77 174.71 879.95 179.58C881.13 184.45 885.68 190 885.68 190Z" fill="#D5D0A6"/>
<path d="M880.799 189C876.429 182.78 873.289 177.56 877.129 174.87C880.969 172.18 919.989 161.59 959.509 168.82C999.029 176.05 1017.87 178.82 1014.84 183.65C1011.81 188.48 986.919 208.34 986.589 213.56C986.259 218.78 983.219 221.63 990.589 223.65C997.959 225.67 1061.23 239.65 1061.23 239.65L1060.05 244.53C1060.05 244.53 952.049 240.16 940.309 239.32C928.569 238.48 913.899 237.47 906.499 226.7C899.099 215.93 880.799 189 880.799 189Z" fill="#208871"/>
<path d="M901.742 83.8002C901.742 83.8002 902.872 80.2702 903.882 79.8902C904.892 79.5102 941.472 84.8902 954.212 87.9702C966.952 91.0502 1040.51 106.58 1046.42 107.77C1052.33 108.96 1053.99 110.29 1053.61 111.68C1053.23 113.07 1058.98 116.53 1046.42 114.23C1033.86 111.93 906.662 86.5802 901.742 83.8002Z" fill="#D5D0A6"/>
<path d="M1063.23 239.2C1063.61 239.2 1079.37 243.49 1079.37 243.49L1062.37 246.14L1063.23 239.2Z" fill="#702829"/>
<path d="M1244.64 19.25L1263.06 19.98L1246.1 25.59L1244.64 19.25Z" fill="#702829"/>
<path d="M1245.41 18.0172C1245.26 17.0506 1244.37 16.385 1243.4 16.5304C1242.44 16.6758 1241.77 17.5773 1241.92 18.5439L1243.17 26.8004C1243.31 27.767 1244.21 28.4327 1245.18 28.2873C1246.14 28.1419 1246.8 27.2404 1246.66 26.2738L1245.41 18.0172Z" fill="white"/>
<path d="M1064.82 236.668C1065.08 235.367 1064.23 234.107 1062.93 233.854C1061.63 233.601 1060.38 234.45 1060.12 235.751L1058.22 245.527C1057.96 246.828 1058.81 248.088 1060.11 248.341C1061.41 248.594 1062.67 247.745 1062.92 246.444L1064.82 236.668Z" fill="white"/>
<path d="M919.523 87.08C920.291 87.08 920.913 86.4577 920.913 85.69C920.913 84.9224 920.291 84.3 919.523 84.3C918.755 84.3 918.133 84.9224 918.133 85.69C918.133 86.4577 918.755 87.08 919.523 87.08Z" fill="black"/>
<path d="M872.234 177.57C873.001 177.57 873.624 176.948 873.624 176.18C873.624 175.412 873.001 174.79 872.234 174.79C871.466 174.79 870.844 175.412 870.844 176.18C870.844 176.948 871.466 177.57 872.234 177.57Z" fill="black"/>
<path d="M895.953 167.73C896.72 167.73 897.343 167.108 897.343 166.34C897.343 165.573 896.72 164.95 895.953 164.95C895.185 164.95 894.562 165.573 894.562 166.34C894.562 167.108 895.185 167.73 895.953 167.73Z" fill="black"/>
<path d="M922.3 164.62C923.068 164.62 923.69 163.998 923.69 163.23C923.69 162.462 923.068 161.84 922.3 161.84C921.532 161.84 920.91 162.462 920.91 163.23C920.91 163.998 921.532 164.62 922.3 164.62Z" fill="black"/>
<path d="M959.64 166.34C960.408 166.34 961.03 165.718 961.03 164.95C961.03 164.182 960.408 163.56 959.64 163.56C958.872 163.56 958.25 164.182 958.25 164.95C958.25 165.718 958.872 166.34 959.64 166.34Z" fill="black"/>
<path d="M992.382 172.56C993.15 172.56 993.772 171.938 993.772 171.17C993.772 170.403 993.15 169.78 992.382 169.78C991.615 169.78 990.992 170.403 990.992 171.17C990.992 171.938 991.615 172.56 992.382 172.56Z" fill="black"/>
<path d="M1017.27 181.43C1018.04 181.43 1018.66 180.808 1018.66 180.04C1018.66 179.272 1018.04 178.65 1017.27 178.65C1016.51 178.65 1015.88 179.272 1015.88 180.04C1015.88 180.808 1016.51 181.43 1017.27 181.43Z" fill="black"/>
<path d="M943.703 92.0002C944.47 92.0002 945.093 91.3779 945.093 90.6102C945.093 89.8425 944.47 89.2202 943.703 89.2202C942.935 89.2202 942.312 89.8425 942.312 90.6102C942.312 91.3779 942.935 92.0002 943.703 92.0002Z" fill="black"/>
<path d="M968.679 97.1801C969.447 97.1801 970.069 96.5578 970.069 95.7901C970.069 95.0225 969.447 94.4001 968.679 94.4001C967.911 94.4001 967.289 95.0225 967.289 95.7901C967.289 96.5578 967.911 97.1801 968.679 97.1801Z" fill="black"/>
<path d="M1004.37 104.24C1005.14 104.24 1005.76 103.618 1005.76 102.85C1005.76 102.082 1005.14 101.46 1004.37 101.46C1003.6 101.46 1002.98 102.082 1002.98 102.85C1002.98 103.618 1003.6 104.24 1004.37 104.24Z" fill="black"/>
<path d="M1033.01 110.17C1033.78 110.17 1034.4 109.548 1034.4 108.78C1034.4 108.012 1033.78 107.39 1033.01 107.39C1032.24 107.39 1031.62 108.012 1031.62 108.78C1031.62 109.548 1032.24 110.17 1033.01 110.17Z" fill="black"/>
<path d="M1043.6 50.5101C1043.61 50.3977 1043.67 50.2933 1043.75 50.2162C1043.83 50.139 1043.94 50.0943 1044.05 50.0901C1044.16 50.0977 1044.25 50.1442 1044.32 50.2203C1044.39 50.2964 1044.43 50.3964 1044.43 50.5001C1044.42 50.6084 1044.37 50.7087 1044.29 50.7862C1044.21 50.8636 1044.11 50.9141 1044 50.9301C1043.95 50.9288 1043.89 50.9169 1043.85 50.8951C1043.8 50.8733 1043.75 50.842 1043.71 50.803C1043.68 50.764 1043.65 50.718 1043.63 50.6678C1043.61 50.6175 1043.6 50.5639 1043.6 50.5101Z" fill="#2B58A4"/>
<path d="M1042.8 66.9C1042.8 66.49 1042.73 66.05 1042.73 65.65C1042.67 65.3112 1042.71 64.9621 1042.86 64.65C1043.03 64.34 1043.18 64.02 1043.34 63.65C1043.59 63.0703 1043.69 62.4386 1043.64 61.81C1043.64 61.4914 1043.54 61.181 1043.34 60.9301C1043.15 60.6792 1042.87 60.5028 1042.56 60.43C1042.16 60.3564 1041.76 60.303 1041.36 60.27C1041.18 60.27 1040.95 60.27 1040.88 60.05C1040.81 59.83 1040.97 59.72 1041.08 59.62C1041.58 59.1 1042.08 58.62 1042.58 58.08C1042.83 57.8422 1043.04 57.5544 1043.18 57.2344C1043.32 56.9143 1043.39 56.569 1043.39 56.22C1043.39 55.13 1043.39 54.01 1043.39 52.94C1043.39 52.19 1043.32 51.44 1043.25 50.69C1043.22 49.9904 1043.03 49.3067 1042.7 48.69C1042.28 48.0091 1041.74 47.4121 1041.11 46.93C1040.5 46.4052 1039.7 46.1398 1038.9 46.19C1037.88 46.2931 1036.92 46.7575 1036.21 47.5C1035.69 48.0617 1035.26 48.7033 1034.95 49.4C1034.87 49.53 1034.81 49.67 1034.66 49.68C1034.59 49.6748 1034.52 49.6495 1034.46 49.607C1034.41 49.5644 1034.36 49.5064 1034.34 49.44C1033.91 48.6873 1033.39 47.9889 1032.8 47.36C1031.87 46.2755 1030.74 45.3765 1029.47 44.71C1028.91 44.3979 1028.28 44.2327 1027.64 44.23C1027.32 44.2331 1027.01 44.3163 1026.74 44.4719C1026.46 44.6275 1026.23 44.8504 1026.06 45.12C1025.79 45.5554 1025.64 46.0566 1025.63 46.57C1025.63 47.32 1025.63 48.09 1025.56 48.85C1025.57 48.9364 1025.57 49.0236 1025.56 49.11C1025.55 49.1423 1025.52 49.1713 1025.5 49.1954C1025.47 49.2195 1025.44 49.238 1025.41 49.25C1025.41 49.25 1025.3 49.17 1025.27 49.12C1024.85 48.0905 1024.09 47.236 1023.12 46.7C1022.57 46.3559 1021.94 46.1787 1021.29 46.19C1020.67 46.2206 1020.06 46.3771 1019.5 46.65C1018.98 46.9061 1018.56 47.3144 1018.28 47.82C1018.12 48.09 1017.99 48.39 1017.85 48.67C1017.85 48.67 1017.78 48.76 1017.75 48.82C1017.69 48.7873 1017.64 48.7431 1017.6 48.69C1017.52 48.58 1017.44 48.45 1017.36 48.36C1016.51 47.3128 1015.49 46.4053 1014.36 45.67C1013.37 45.0251 1012.22 44.678 1011.04 44.67C1010.61 44.6588 1010.19 44.7551 1009.81 44.95C1009.49 45.1418 1009.21 45.3994 1008.99 45.706C1008.77 46.0127 1008.62 46.3615 1008.55 46.73C1008.17 48.2013 1008.04 49.7254 1008.16 51.24C1008.25 52.4395 1008.43 53.63 1008.71 54.8C1008.89 55.54 1009.12 56.29 1009.32 57.05C1009.32 57.05 1009.23 57.05 1009.2 57.05C1008.51 57.1357 1007.85 57.3712 1007.26 57.74C1006.67 58.1028 1006.18 58.5917 1005.8 59.1712C1005.43 59.7507 1005.19 60.4062 1005.1 61.09C1004.93 62.29 1004.86 63.5 1004.78 64.72C1004.71 65.7599 1004.73 66.8033 1004.84 67.84C1004.91 68.4839 1005.02 69.1222 1005.18 69.75C1005.51 70.9052 1006.03 71.9992 1006.71 72.99C1007.14 73.661 1007.65 74.2815 1008.22 74.84C1008.91 75.5407 1009.7 76.1341 1010.56 76.6C1011.13 76.8932 1011.78 77.0245 1012.42 76.98C1013.23 76.876 1013.99 76.5546 1014.63 76.05C1014.88 75.87 1014.95 75.87 1015.16 76.05C1015.64 76.575 1016.29 76.9117 1017 77C1018.11 77.0616 1019.19 76.7046 1020.05 76C1020.37 75.7109 1020.67 75.4038 1020.96 75.08C1021.11 74.92 1021.24 74.93 1021.37 75.08C1021.89 75.8147 1022.62 76.3703 1023.47 76.67C1024.13 76.9375 1024.86 76.9846 1025.55 76.8044C1026.23 76.6242 1026.85 76.2263 1027.29 75.67C1027.52 75.39 1027.59 75.39 1027.89 75.58C1028.58 76.0449 1029.33 76.4243 1030.11 76.71C1030.8 76.9518 1031.54 77.0472 1032.27 76.99C1033.19 76.8645 1034.05 76.495 1034.78 75.92C1035.22 75.59 1035.12 75.63 1035.52 75.92C1035.98 76.2808 1036.52 76.53 1037.09 76.648C1037.66 76.766 1038.25 76.7496 1038.82 76.6C1039.53 76.4012 1040.17 76.0261 1040.69 75.51C1041.03 75.2 1041.35 74.86 1041.69 74.51C1042.27 73.921 1042.79 73.2781 1043.25 72.59C1043.61 72.0236 1043.82 71.3722 1043.86 70.7C1043.85 69.8344 1043.62 68.9859 1043.18 68.24C1042.96 67.8256 1042.83 67.3687 1042.8 66.9ZM1034.8 53.85C1034.87 53.24 1034.94 52.66 1035.03 52.06C1035.16 51.1421 1035.43 50.2507 1035.84 49.42C1036.12 48.8133 1036.49 48.2507 1036.93 47.75C1037.08 47.6045 1037.26 47.477 1037.44 47.37C1037.8 47.1238 1038.2 46.9505 1038.62 46.86C1039.19 46.7747 1039.77 46.8991 1040.26 47.21C1040.81 47.5685 1041.28 48.0428 1041.63 48.6C1042.22 49.5548 1042.53 50.6566 1042.53 51.78C1042.53 52.68 1042.61 53.56 1042.64 54.46C1042.65 54.5027 1042.65 54.5472 1042.64 54.59C1042.64 54.59 1042.57 55.95 1042.5 56.59C1042.49 56.7733 1042.43 56.9497 1042.32 57.1C1042.28 57.1612 1042.23 57.2139 1042.17 57.2551C1042.11 57.2963 1042.04 57.3252 1041.97 57.34C1041.49 57.34 1040.97 57.34 1040.51 57.34C1040.25 57.3415 1040 57.318 1039.75 57.27C1039.68 57.2543 1039.62 57.2235 1039.57 57.18C1039.48 57.0832 1039.39 56.9796 1039.32 56.87V56.79C1039.32 56.57 1039.32 56.33 1039.32 56.11C1039.32 55.89 1039.32 55.87 1039.1 55.85C1038.88 55.83 1038.68 55.85 1038.48 55.85C1038.44 55.8428 1038.39 55.8448 1038.35 55.856C1038.31 55.8672 1038.27 55.8872 1038.24 55.9148C1038.2 55.9423 1038.18 55.9767 1038.16 56.0155C1038.14 56.0544 1038.13 56.0968 1038.13 56.14C1038.13 56.33 1038.13 56.55 1038.06 56.74C1037.99 57.26 1037.81 57.44 1037.29 57.41C1036.77 57.388 1036.26 57.3312 1035.75 57.24C1035.55 57.2137 1035.36 57.1222 1035.22 56.9796C1035.07 56.8369 1034.98 56.6509 1034.95 56.45C1034.74 55.6001 1034.68 54.7199 1034.78 53.85H1034.8ZM1026.25 50.31C1026.25 50.05 1026.32 49.79 1026.32 49.53C1026.31 48.7443 1026.36 47.9591 1026.46 47.18C1026.5 46.7036 1026.7 46.2541 1027.02 45.9C1027.16 45.7513 1027.33 45.633 1027.52 45.5522C1027.71 45.4714 1027.91 45.4299 1028.12 45.43C1028.72 45.4535 1029.3 45.618 1029.82 45.91C1030.9 46.466 1031.88 47.1919 1032.73 48.06C1033.54 48.8816 1034.09 49.9261 1034.3 51.06C1034.4 51.499 1034.41 51.9533 1034.33 52.3964C1034.25 52.8394 1034.08 53.2622 1033.84 53.64C1033.41 54.3333 1032.83 54.9238 1032.15 55.37L1030.57 56.29C1030.48 56.33 1030.41 56.3946 1030.35 56.4762C1030.3 56.5577 1030.27 56.6527 1030.27 56.75C1030.26 56.958 1030.24 57.1651 1030.2 57.37C1030.16 57.584 1030.04 57.7759 1029.87 57.91C1029.65 58.0945 1029.39 58.2329 1029.12 58.317C1028.84 58.4012 1028.56 58.4294 1028.27 58.4C1027.78 58.3375 1027.31 58.1364 1026.93 57.82C1026.85 57.7618 1026.78 57.6838 1026.73 57.5929C1026.69 57.5021 1026.67 57.4014 1026.67 57.3C1026.67 57.09 1026.6 56.89 1026.6 56.66C1026.51 55.88 1026.43 55.1 1026.37 54.33C1026.31 53.56 1026.28 52.83 1026.22 52.1C1026.22 51.79 1026.22 51.47 1026.22 51.16C1026.19 50.8772 1026.19 50.592 1026.23 50.31H1026.25ZM1017.11 54C1017.18 53.37 1017.25 52.77 1017.37 52.15C1017.55 51.1764 1017.79 50.2172 1018.11 49.28C1018.36 48.5686 1018.85 47.9691 1019.5 47.59C1019.92 47.3315 1020.37 47.1455 1020.85 47.04C1021.51 46.933 1022.19 47.0718 1022.75 47.43C1023.47 47.8719 1024.06 48.5052 1024.45 49.26C1024.92 50.0722 1025.22 50.97 1025.33 51.9C1025.46 52.76 1025.58 53.64 1025.71 54.5C1025.71 54.96 1025.84 55.45 1025.85 55.92C1025.85 56.6152 1025.8 57.3097 1025.72 58C1025.62 58.71 1025.41 58.74 1024.72 58.84C1024.27 58.8918 1023.81 58.9185 1023.36 58.92C1023.16 58.9455 1022.97 58.9455 1022.77 58.92C1022.58 58.92 1022.34 58.51 1022.33 58.31C1022.32 58.11 1022.33 57.79 1022.33 57.54C1022.33 57.4984 1022.32 57.4573 1022.3 57.419C1022.29 57.3807 1022.26 57.3461 1022.24 57.3172C1022.21 57.2882 1022.17 57.2656 1022.13 57.2506C1022.09 57.2357 1022.05 57.2286 1022.01 57.23C1021.63 57.23 1021.24 57.23 1020.86 57.23C1020.71 57.23 1020.63 57.34 1020.61 57.49C1020.61 57.8 1020.55 58.08 1020.53 58.39C1020.51 58.7 1020.33 59.07 1019.86 59.06C1019.39 59.05 1018.73 59.06 1018.16 59.06C1017.92 59.0318 1017.7 58.9338 1017.53 58.7787C1017.35 58.6235 1017.22 58.4185 1017.16 58.19C1016.94 57.4775 1016.83 56.7358 1016.83 55.99C1017 55.29 1017 54.62 1017.11 54ZM1014.51 69.56C1014.43 70.3865 1014.11 71.1708 1013.58 71.81C1013.22 72.2692 1012.73 72.5994 1012.17 72.75C1011.44 73.0477 1010.65 73.1743 1009.87 73.12C1009.11 73.1086 1008.37 72.8854 1007.73 72.4755C1007.09 72.0656 1006.58 71.4853 1006.25 70.8C1006.06 70.4534 1005.91 70.0838 1005.81 69.7C1005.67 69.0861 1005.57 68.4652 1005.5 67.84C1005.44 67.29 1005.44 66.73 1005.4 66.18C1005.37 65.6004 1005.37 65.0196 1005.4 64.44C1005.47 63.33 1005.52 62.2 1005.69 61.09C1005.77 60.5218 1005.99 59.9819 1006.32 59.5168C1006.66 59.0516 1007.11 58.6752 1007.62 58.42C1008.11 58.1031 1008.66 57.8919 1009.23 57.8C1009.82 57.6881 1010.44 57.7295 1011.01 57.9202C1011.58 58.1109 1012.1 58.4447 1012.51 58.89C1013.15 59.5553 1013.58 60.3872 1013.77 61.29C1013.77 61.53 1013.89 61.75 1013.94 61.99C1013.99 62.23 1013.99 62.31 1014.02 62.5C1014.05 62.69 1013.47 63.07 1013.32 63.14C1012.89 63.3961 1012.38 63.495 1011.88 63.42C1011.63 63.3835 1011.37 63.3267 1011.13 63.25C1011.04 63.2285 1010.96 63.1826 1010.89 63.1172C1010.83 63.0519 1010.78 62.9698 1010.76 62.88C1010.69 62.55 1010.62 62.22 1010.55 61.88C1010.52 61.7032 1010.46 61.5337 1010.37 61.3822C1010.27 61.2308 1010.15 61.1006 1010 61C1009.92 60.9659 1009.84 60.9483 1009.75 60.9483C1009.66 60.9483 1009.58 60.9659 1009.5 61C1009.33 61.0593 1009.18 61.1739 1009.08 61.326C1008.98 61.478 1008.94 61.6588 1008.95 61.84C1008.95 62.4 1008.95 62.97 1008.88 63.51C1008.81 64.05 1008.74 64.66 1008.72 65.21C1008.72 65.91 1008.72 66.64 1008.72 67.35C1008.72 67.71 1008.78 68.08 1008.83 68.45C1008.91 68.8987 1009.15 69.3029 1009.51 69.59C1009.66 69.7241 1009.85 69.8187 1010.04 69.8656C1010.24 69.9125 1010.45 69.9102 1010.65 69.8589C1010.84 69.8076 1011.03 69.709 1011.18 69.5715C1011.33 69.434 1011.44 69.2618 1011.51 69.07C1011.59 68.8268 1011.63 68.5746 1011.64 68.32C1011.64 68.04 1011.53 67.91 1011.23 67.93H1010.92C1010.87 67.9386 1010.83 67.9374 1010.78 67.9266C1010.74 67.9158 1010.69 67.8955 1010.66 67.8672C1010.62 67.8389 1010.59 67.8031 1010.57 67.7622C1010.55 67.7214 1010.53 67.6763 1010.53 67.63C1010.42 66.86 1010.3 66.07 1010.21 65.31C1010.2 65.2277 1010.21 65.1443 1010.23 65.0648C1010.25 64.9852 1010.29 64.9111 1010.34 64.8468C1010.4 64.7824 1010.46 64.7292 1010.53 64.6903C1010.61 64.6513 1010.69 64.6274 1010.77 64.62C1011.02 64.5758 1011.27 64.5458 1011.53 64.53C1012.11 64.46 1012.71 64.37 1013.29 64.28C1013.46 64.2287 1013.64 64.2447 1013.8 64.3248C1013.96 64.4048 1014.08 64.5428 1014.14 64.71C1014.39 65.3148 1014.54 65.9565 1014.59 66.61C1014.76 67.5719 1014.73 68.5591 1014.51 69.51V69.56ZM1013.78 55.37C1013.51 55.54 1013.37 55.55 1013.52 56.01C1013.55 56.2529 1013.52 56.4989 1013.44 56.73C1013.37 56.9136 1013.25 57.0731 1013.09 57.1887C1012.93 57.3042 1012.75 57.3707 1012.55 57.38C1012.24 57.464 1011.93 57.5242 1011.62 57.56C1011.37 57.5799 1011.11 57.5799 1010.86 57.56C1010.69 57.5279 1010.53 57.4509 1010.39 57.3368C1010.26 57.2227 1010.16 57.0755 1010.1 56.91C1009.74 56.0468 1009.53 55.1318 1009.46 54.2C1009.4 53.31 1009.34 52.45 1009.31 51.57C1009.31 51.21 1009.31 50.85 1009.31 50.47C1009.31 49.47 1009.21 48.47 1009.18 47.47C1009.16 47.0981 1009.19 46.7253 1009.26 46.36C1009.32 46.0672 1009.48 45.8033 1009.71 45.6096C1009.93 45.4159 1010.22 45.3035 1010.52 45.29C1010.63 45.2749 1010.74 45.2749 1010.85 45.29C1011.74 45.3537 1012.6 45.6133 1013.37 46.05C1014.33 46.5526 1015.16 47.2674 1015.8 48.14C1016.35 48.9162 1016.7 49.822 1016.8 50.77C1016.96 51.6797 1016.76 52.6155 1016.24 53.38C1015.93 53.8249 1015.54 54.2108 1015.09 54.52C1014.63 54.79 1014.21 55.05 1013.78 55.32V55.37ZM1021.85 67.96C1021.77 68.3571 1021.65 68.7456 1021.5 69.12C1021.26 69.5769 1020.98 70.0091 1020.66 70.41C1020.37 70.7381 1020.03 71.0242 1019.66 71.26C1019.32 71.482 1018.93 71.6097 1018.53 71.63H1018.3C1018.29 71.6409 1018.29 71.6529 1018.29 71.665C1018.29 71.6771 1018.29 71.6891 1018.3 71.7C1018.54 71.8137 1018.82 71.8486 1019.08 71.8C1019.8 71.6353 1020.44 71.2296 1020.9 70.65C1020.96 70.5751 1021.03 70.5049 1021.11 70.44C1021.19 70.44 1021.17 70.65 1021.11 70.73C1020.81 71.3309 1020.37 71.8512 1019.83 72.2464C1019.29 72.6417 1018.66 72.9002 1018 73C1017.63 73.0524 1017.25 72.9932 1016.91 72.83C1016.39 72.566 1015.93 72.1869 1015.57 71.721C1015.21 71.2552 1014.97 70.7147 1014.85 70.14C1014.8 69.732 1014.85 69.317 1015.02 68.94C1015.19 68.36 1015.35 67.78 1015.51 67.17C1015.62 66.6187 1015.62 66.0512 1015.51 65.5C1015.46 65.15 1015.4 64.82 1015.38 64.5C1015.39 64.1799 1015.49 63.8685 1015.66 63.6C1016.08 62.8504 1016.7 62.2335 1017.45 61.82C1017.58 61.7475 1017.72 61.6873 1017.86 61.64C1018.26 61.5407 1018.67 61.4771 1019.09 61.45C1019.51 61.4192 1019.94 61.5319 1020.29 61.77C1020.48 61.9412 1020.65 62.1361 1020.79 62.35C1021.19 62.9075 1021.48 63.535 1021.65 64.2C1021.73 64.4092 1021.8 64.6229 1021.86 64.84C1021.91 65.01 1021.91 65.19 1021.95 65.37C1022.11 66.2129 1022.08 67.0826 1021.85 67.91V67.96ZM1029.1 67.5C1029.01 68.01 1029 68.5 1028.87 69.04C1028.72 69.7948 1028.35 70.4893 1027.81 71.04C1027.63 71.2514 1027.4 71.4078 1027.13 71.4911C1026.87 71.5743 1026.59 71.5808 1026.32 71.51C1026.03 71.4038 1025.76 71.2768 1025.49 71.13C1025.58 71.3658 1025.75 71.5657 1025.96 71.7C1026.21 71.8589 1026.5 71.935 1026.79 71.917C1027.08 71.899 1027.36 71.7879 1027.59 71.6C1028.08 71.2241 1028.47 70.733 1028.73 70.17C1028.78 70.0506 1028.84 69.9367 1028.91 69.83C1028.97 69.9269 1029 70.0373 1029 70.15C1028.88 70.7831 1028.58 71.3672 1028.13 71.83C1027.88 72.1054 1027.57 72.3216 1027.22 72.4634C1026.88 72.6051 1026.5 72.6688 1026.13 72.65C1025.47 72.6192 1024.82 72.4233 1024.25 72.08C1023.53 71.6316 1022.99 70.9605 1022.69 70.17C1022.62 70.02 1022.57 69.85 1022.51 69.68C1022.31 69.1301 1022.31 68.5298 1022.51 67.98C1022.66 67.3613 1022.78 66.7333 1022.85 66.1C1022.88 65.6405 1022.77 65.1821 1022.53 64.79C1022.34 64.43 1022.15 64.05 1021.95 63.68C1021.89 63.5524 1021.86 63.4145 1021.86 63.275C1021.86 63.1355 1021.89 62.9975 1021.95 62.87C1022.36 61.7982 1023.16 60.9202 1024.19 60.41C1024.55 60.2305 1024.95 60.1273 1025.36 60.1065C1025.77 60.0857 1026.17 60.1478 1026.55 60.2891C1026.94 60.4303 1027.28 60.6477 1027.58 60.9281C1027.87 61.2085 1028.11 61.546 1028.27 61.92C1028.73 63.1165 1029.03 64.3719 1029.15 65.65C1029.2 66.2499 1029.19 66.8541 1029.1 67.45V67.5ZM1036.6 71.92C1036.27 72.4276 1035.82 72.8386 1035.28 73.11C1034.63 73.4301 1033.91 73.5814 1033.18 73.55C1032.58 73.5493 1031.99 73.4152 1031.46 73.1573C1030.92 72.8995 1030.44 72.5246 1030.07 72.06C1029.81 71.7129 1029.68 71.2834 1029.71 70.85C1029.76 69.9894 1029.68 69.1262 1029.47 68.29C1029.37 67.9256 1029.4 67.539 1029.54 67.19C1029.6 67.0232 1029.71 66.878 1029.85 66.7729C1029.99 66.6678 1030.16 66.6076 1030.34 66.6C1030.9 66.5411 1031.47 66.6562 1031.97 66.93C1032.14 67.0401 1032.31 67.1711 1032.45 67.32C1032.53 67.4366 1032.58 67.5704 1032.6 67.7109C1032.63 67.8514 1032.61 67.9949 1032.57 68.13C1032.45 68.6262 1032.45 69.1438 1032.57 69.64C1032.61 69.7666 1032.66 69.8903 1032.72 70.01C1032.78 70.1345 1032.88 70.2338 1033 70.2891C1033.13 70.3443 1033.27 70.3518 1033.4 70.31C1033.55 70.2803 1033.7 70.21 1033.81 70.1063C1033.93 70.0025 1034.02 69.8691 1034.07 69.72C1034.11 69.4821 1034.11 69.2379 1034.07 69C1033.91 68.2349 1033.49 67.5509 1032.87 67.07C1032.34 66.62 1031.8 66.17 1031.27 65.69C1030.41 64.9564 1029.84 63.9377 1029.67 62.82C1029.63 62.1305 1029.63 61.4395 1029.67 60.75C1029.81 59.76 1030.23 58.8292 1030.87 58.06C1031.19 57.7019 1031.6 57.4361 1032.06 57.29C1032.61 57.152 1033.17 57.0847 1033.74 57.09C1034.51 57.1775 1035.25 57.4634 1035.88 57.92C1036.21 58.1883 1036.48 58.5242 1036.67 58.9053C1036.86 59.2864 1036.97 59.7039 1036.99 60.13C1036.99 60.61 1037.07 61.13 1037.12 61.55C1037.17 61.97 1037.02 62.55 1036.96 63C1036.9 63.45 1036.78 63.51 1036.42 63.55C1035.82 63.6601 1035.21 63.6601 1034.61 63.55C1034.32 63.49 1034.23 63.4 1034.21 63.06C1034.21 62.49 1034.13 61.93 1034.08 61.38C1034.1 61.1026 1034.02 60.8277 1033.86 60.6C1033.75 60.4874 1033.63 60.3958 1033.49 60.33C1033.4 60.33 1033.22 60.33 1033.18 60.4C1033.02 60.5635 1032.91 60.7624 1032.84 60.98C1032.7 61.5232 1032.72 62.0958 1032.89 62.6283C1033.07 63.1608 1033.4 63.6304 1033.84 63.98C1034.33 64.38 1034.84 64.74 1035.31 65.13C1035.89 65.632 1036.35 66.2572 1036.66 66.96C1036.94 67.5651 1037.13 68.2089 1037.22 68.87C1037.39 69.9123 1037.17 70.9815 1036.6 71.87V71.92ZM1043.14 71.18C1043.08 71.4134 1042.96 71.6242 1042.78 71.7849C1042.6 71.9455 1042.38 72.0484 1042.14 72.08C1041.03 72.2582 1039.89 72.1409 1038.84 71.74C1038.45 71.6163 1038.12 71.3432 1037.93 70.98C1037.93 70.93 1037.85 70.85 1037.86 70.81C1037.87 70.6059 1037.88 70.4023 1037.91 70.2C1038.05 69.5087 1038.04 68.7936 1037.86 68.11C1037.64 67.1685 1037.3 66.2581 1036.86 65.4C1036.82 65.3038 1036.81 65.1991 1036.82 65.0959C1036.83 64.9926 1036.87 64.8942 1036.93 64.81C1037.07 64.59 1037.24 64.38 1037.39 64.16C1037.77 63.669 1037.98 63.0632 1037.98 62.44C1037.93 62.1832 1037.98 61.9176 1038.13 61.7C1038.37 61.4225 1038.69 61.2352 1039.05 61.17C1039.58 61.0476 1040.12 60.9575 1040.66 60.9C1041.05 60.8884 1041.44 60.9118 1041.82 60.97C1042.03 60.9895 1042.23 61.0195 1042.44 61.06C1042.63 61.1059 1042.79 61.2146 1042.9 61.3677C1043.02 61.5208 1043.08 61.7088 1043.07 61.9C1043.07 62.12 1043.07 62.35 1043.12 62.56C1043.17 62.77 1043.12 63.06 1043.05 63.32C1043.04 63.4352 1043.01 63.548 1042.96 63.6518C1042.91 63.7556 1042.84 63.8484 1042.76 63.9247C1042.67 64.001 1042.57 64.0594 1042.46 64.0963C1042.35 64.1333 1042.23 64.1481 1042.12 64.14C1041.63 64.1481 1041.14 64.1915 1040.66 64.27C1040.62 64.271 1040.58 64.2809 1040.54 64.299C1040.5 64.3172 1040.47 64.3431 1040.44 64.3752C1040.41 64.4073 1040.39 64.4448 1040.38 64.4852C1040.37 64.5257 1040.36 64.5682 1040.37 64.61C1040.37 64.97 1040.37 65.17 1040.85 65.21L1041.74 65.33C1042.09 65.41 1042.18 65.5 1042.2 65.86C1042.22 66.22 1042.2 66.51 1042.2 66.86C1042.21 67.0229 1042.16 67.1833 1042.05 67.3093C1041.95 67.4353 1041.8 67.5176 1041.64 67.54L1040.79 67.72C1040.76 67.7211 1040.72 67.7292 1040.69 67.7437C1040.66 67.7582 1040.64 67.7788 1040.61 67.8042C1040.59 67.8296 1040.58 67.8593 1040.57 67.8913C1040.56 67.9232 1040.56 67.9569 1040.56 67.99C1040.55 68.1516 1040.57 68.3136 1040.61 68.47C1040.61 68.54 1040.74 68.66 1040.83 68.66C1041.28 68.74 1041.72 68.81 1042.18 68.86C1042.38 68.8689 1042.57 68.9444 1042.73 69.0747C1042.88 69.205 1042.99 69.3828 1043.03 69.58C1043.21 70.0758 1043.25 70.6133 1043.14 71.13V71.18Z" fill="#2B58A4"/>
<path d="M1004.43 58C1004.23 58.1093 1004.07 58.2768 1003.97 58.48C1003.89 58.6 1003.84 58.69 1003.9 58.82C1003.97 59.0111 1004.06 59.198 1004.15 59.38C1004.22 59.4896 1004.27 59.6166 1004.27 59.7483C1004.28 59.88 1004.26 60.0117 1004.2 60.13C1004.11 60.3 1004.04 60.46 1003.95 60.64C1003.86 60.82 1003.86 60.73 1003.84 60.72C1003.79 60.7222 1003.74 60.7426 1003.7 60.7776C1003.67 60.8125 1003.64 60.8595 1003.64 60.91C1003.6 61.0093 1003.59 61.1153 1003.61 61.2196C1003.62 61.3238 1003.66 61.4233 1003.72 61.51C1003.8 61.62 1003.91 61.65 1003.99 61.51C1004.03 61.3948 1004.06 61.2731 1004.06 61.15C1004.04 60.9797 1004.06 60.808 1004.11 60.6449C1004.17 60.4818 1004.25 60.3306 1004.36 60.2C1004.46 60.0829 1004.52 59.9383 1004.53 59.7861C1004.54 59.6339 1004.51 59.4816 1004.43 59.35C1004.41 59.2915 1004.41 59.2285 1004.43 59.17C1004.51 58.94 1004.61 58.73 1004.69 58.5C1004.73 58.3606 1004.75 58.2152 1004.74 58.07C1004.73 58.0385 1004.71 58.01 1004.69 57.9874C1004.67 57.9648 1004.64 57.9491 1004.61 57.9419C1004.57 57.9347 1004.54 57.9363 1004.51 57.9466C1004.48 57.9568 1004.45 57.9753 1004.43 58Z" fill="#2B58A4"/>
<path d="M1044.74 54.35C1044.88 54.28 1044.87 54.14 1044.84 54C1044.82 53.9346 1044.79 53.8734 1044.75 53.82C1044.69 53.56 1044.62 53.32 1044.55 53.05C1044.51 52.7451 1044.53 52.4348 1044.62 52.14C1044.69 51.89 1044.53 51.73 1044.28 51.73C1044.21 51.7403 1044.15 51.7673 1044.1 51.8085C1044.04 51.8497 1044 51.9037 1043.97 51.9656C1043.95 52.0275 1043.94 52.0952 1043.94 52.1624C1043.95 52.2296 1043.97 52.2941 1044.01 52.35C1044.08 52.4658 1044.12 52.5904 1044.15 52.72C1044.25 53.1044 1044.28 53.506 1044.22 53.9C1044.23 53.9663 1044.23 54.0337 1044.22 54.1C1044.21 54.1635 1044.22 54.2292 1044.26 54.2833C1044.29 54.3373 1044.35 54.3756 1044.41 54.39C1044.52 54.4005 1044.63 54.3869 1044.74 54.35Z" fill="#2B58A4"/>
<path d="M1044.9 66.4501C1044.8 66.3526 1044.72 66.2324 1044.67 66.0989C1044.62 65.9654 1044.6 65.8221 1044.61 65.6801C1044.61 65.5701 1044.61 65.4801 1044.45 65.4601C1044.29 65.4401 1044.25 65.5401 1044.24 65.6701C1044.22 65.8391 1044.22 66.011 1044.24 66.1801C1044.3 66.387 1044.38 66.5906 1044.46 66.7901C1044.46 66.9101 1044.54 67.0601 1044.7 67.0301C1044.86 67.0001 1044.95 66.8501 1044.99 66.7101C1045 66.6628 1044.99 66.6151 1044.97 66.5703C1044.96 66.5254 1044.93 66.4844 1044.9 66.4501Z" fill="#2B58A4"/>
<path d="M1005.59 57.6899C1005.65 57.6899 1005.72 57.6636 1005.76 57.6167C1005.81 57.5698 1005.84 57.5062 1005.84 57.4399C1005.84 57.2699 1005.77 57.1999 1005.62 57.1899C1005.55 57.1841 1005.48 57.2047 1005.43 57.2474C1005.37 57.2902 1005.34 57.3519 1005.33 57.4199C1005.33 57.4878 1005.36 57.5515 1005.41 57.6005C1005.46 57.6496 1005.52 57.6811 1005.59 57.6899Z" fill="#2B58A4"/>
<path d="M1021 54.75C1021.2 54.7648 1021.41 54.7648 1021.61 54.75C1021.93 54.75 1021.99 54.63 1022.02 54.3C1022.02 54.2401 1022.02 54.1799 1022.02 54.12C1022.02 53.73 1022.02 53.35 1022.08 52.96C1022.11 52.6744 1022.07 52.3852 1021.95 52.1231C1021.83 51.8609 1021.64 51.6353 1021.41 51.47C1021.26 51.34 1021.13 51.35 1020.97 51.47C1020.91 51.543 1020.86 51.6283 1020.84 51.72C1020.66 52.3705 1020.57 53.0442 1020.58 53.72C1020.58 53.88 1020.58 54.18 1020.67 54.48C1020.69 54.5551 1020.73 54.6222 1020.79 54.6711C1020.85 54.7199 1020.92 54.7476 1021 54.75Z" fill="#2B58A4"/>
<path d="M1029 53.7202C1029.4 53.9515 1029.87 54.0429 1030.33 53.9802C1030.51 53.983 1030.68 53.9436 1030.84 53.8653C1030.99 53.7869 1031.13 53.672 1031.23 53.5302C1031.27 53.4675 1031.29 53.3946 1031.29 53.3202C1031.29 53.2458 1031.27 53.1729 1031.23 53.1102C1031.19 53.1562 1031.14 53.1964 1031.08 53.2302C1030.91 53.3392 1030.73 53.4329 1030.54 53.5102C1030.1 53.5903 1029.64 53.4952 1029.27 53.2451C1028.9 52.995 1028.64 52.6095 1028.54 52.1702C1028.51 51.9194 1028.56 51.6655 1028.67 51.4411C1028.79 51.2166 1028.97 51.0318 1029.19 50.9102C1029.38 50.7942 1029.59 50.7413 1029.81 50.7593C1030.02 50.7774 1030.23 50.8654 1030.39 51.0102C1030.51 51.0897 1030.61 51.203 1030.67 51.3362C1030.73 51.4693 1030.75 51.6166 1030.72 51.7602C1030.69 51.8905 1030.62 52.0093 1030.53 52.1031C1030.43 52.1969 1030.31 52.2618 1030.18 52.2902C1030.12 52.3173 1030.05 52.3271 1029.98 52.3187C1029.91 52.3103 1029.85 52.2839 1029.79 52.2423C1029.74 52.2006 1029.69 52.1452 1029.67 52.0816C1029.64 52.018 1029.63 51.9485 1029.64 51.8802C1029.69 51.7209 1029.75 51.5668 1029.83 51.4202C1029.83 51.3502 1029.83 51.3202 1029.9 51.2502C1029.97 51.1802 1029.75 51.2502 1029.7 51.2502C1028.98 51.5202 1029.22 52.4802 1029.7 52.6902C1029.92 52.8195 1030.17 52.8624 1030.42 52.8102C1030.58 52.7882 1030.73 52.7357 1030.86 52.6557C1030.99 52.5758 1031.11 52.4699 1031.2 52.3443C1031.3 52.2187 1031.36 52.0759 1031.4 51.9241C1031.44 51.7723 1031.45 51.6146 1031.42 51.4602C1031.36 51.2296 1031.24 51.0161 1031.09 50.8353C1030.93 50.6546 1030.73 50.5111 1030.51 50.4153C1030.29 50.3195 1030.06 50.2738 1029.82 50.2816C1029.58 50.2894 1029.34 50.3504 1029.13 50.4602C1028.89 50.5938 1028.67 50.7739 1028.5 50.9902C1028.33 51.2252 1028.21 51.4985 1028.16 51.7873C1028.12 52.0762 1028.14 52.3721 1028.23 52.6502C1028.18 52.7702 1028.2 53.2002 1029 53.7202Z" fill="#2B58A4"/>
<path d="M1025.82 64.7103C1025.53 64.643 1025.22 64.6509 1024.93 64.7331C1024.64 64.8153 1024.38 64.9691 1024.17 65.1805C1023.95 65.3918 1023.79 65.6538 1023.71 65.9421C1023.62 66.2305 1023.61 66.536 1023.67 66.8303C1023.78 67.2194 1024 67.57 1024.3 67.8422C1024.6 68.1144 1024.96 68.2974 1025.36 68.3703C1025.57 68.4058 1025.79 68.3848 1025.99 68.3092C1026.19 68.2337 1026.37 68.1064 1026.5 67.9403C1026.57 67.8723 1026.61 67.7891 1026.64 67.6982C1026.66 67.6073 1026.66 67.5117 1026.64 67.4202C1026.64 67.4202 1026.58 67.4203 1026.57 67.5103C1026.48 67.6837 1026.33 67.8204 1026.15 67.8984C1025.97 67.9764 1025.76 67.9911 1025.57 67.9403C1025.22 67.8631 1024.9 67.6777 1024.66 67.4103C1024.5 67.2658 1024.38 67.0844 1024.31 66.8823C1024.24 66.6802 1024.22 66.4636 1024.25 66.2518C1024.29 66.04 1024.37 65.8395 1024.5 65.6683C1024.63 65.497 1024.8 65.3603 1024.99 65.2702C1025.2 65.1664 1025.45 65.1405 1025.67 65.1972C1025.9 65.254 1026.1 65.3896 1026.24 65.5803C1026.29 65.6385 1026.32 65.7131 1026.32 65.7903C1026.32 65.8674 1026.29 65.942 1026.24 66.0003C1026.2 66.074 1026.14 66.1329 1026.06 66.1687C1025.98 66.2046 1025.9 66.2156 1025.81 66.2002C1025.73 66.2002 1025.56 66.2003 1025.56 66.0503C1025.56 65.9003 1025.69 65.9703 1025.68 65.8603C1025.65 65.8026 1025.59 65.7591 1025.53 65.7372C1025.47 65.7153 1025.4 65.7164 1025.33 65.7402C1025.26 65.7559 1025.19 65.7969 1025.14 65.8568C1025.08 65.9166 1025.06 65.9918 1025.05 66.0703C1025.04 66.2165 1025.07 66.3633 1025.14 66.4904C1025.22 66.6176 1025.33 66.7188 1025.46 66.7803C1025.66 66.8705 1025.88 66.8997 1026.09 66.864C1026.3 66.8283 1026.5 66.7294 1026.65 66.5803C1026.76 66.4918 1026.83 66.3779 1026.88 66.2498C1026.93 66.1218 1026.94 65.984 1026.91 65.8503C1026.86 65.5743 1026.73 65.3191 1026.54 65.1164C1026.35 64.9137 1026.1 64.7725 1025.82 64.7103Z" fill="#2B58A4"/>
<path d="M1038.06 54.1801C1038.08 54.274 1038.14 54.3559 1038.22 54.4101C1038.39 54.471 1038.56 54.5146 1038.74 54.5401C1039.06 54.6101 1039.11 54.5401 1039.18 54.2601C1039.25 53.9801 1039.29 53.4901 1039.33 53.0901C1039.4 52.6171 1039.36 52.1352 1039.21 51.6801C1039.14 51.498 1039.04 51.3288 1038.92 51.1801C1038.9 51.145 1038.87 51.1159 1038.83 51.0957C1038.8 51.0755 1038.76 51.0649 1038.72 51.0649C1038.67 51.0649 1038.63 51.0755 1038.6 51.0957C1038.56 51.1159 1038.53 51.145 1038.51 51.1801C1038.38 51.3645 1038.28 51.5711 1038.22 51.7901C1038.12 52.3401 1038.02 53.4501 1038.02 53.4501C1038.02 53.6941 1038.03 53.938 1038.06 54.1801Z" fill="#2B58A4"/>
<path d="M1014 52.59C1013.83 52.6419 1013.66 52.7088 1013.5 52.79C1013.35 52.8723 1013.17 52.9153 1013 52.9153C1012.83 52.9153 1012.65 52.8723 1012.5 52.79C1012.25 52.718 1012.02 52.5768 1011.84 52.3825C1011.67 52.1881 1011.55 51.9483 1011.5 51.69C1011.45 51.5232 1011.44 51.3473 1011.46 51.1747C1011.48 51.002 1011.55 50.8369 1011.64 50.6909C1011.74 50.5449 1011.86 50.4217 1012.01 50.33C1012.16 50.2382 1012.33 50.1802 1012.5 50.16C1012.74 50.1576 1012.98 50.2435 1013.16 50.4018C1013.35 50.56 1013.47 50.7797 1013.5 51.02C1013.51 51.0854 1013.51 51.1521 1013.49 51.216C1013.47 51.2798 1013.44 51.3395 1013.4 51.3911C1013.36 51.4427 1013.31 51.4853 1013.25 51.5161C1013.19 51.5468 1013.13 51.5652 1013.06 51.57C1012.96 51.5838 1012.86 51.5696 1012.77 51.529C1012.68 51.4883 1012.6 51.4229 1012.54 51.34C1012.43 51.18 1012.54 51.04 1012.59 50.89C1012.64 50.74 1012.59 50.83 1012.59 50.79C1012.59 50.75 1012.59 50.54 1012.43 50.57C1012.3 50.6097 1012.19 50.6907 1012.12 50.8C1012.04 50.9208 1011.99 51.0635 1011.99 51.21C1011.99 51.3791 1012.05 51.5434 1012.14 51.681C1012.24 51.8186 1012.38 51.923 1012.54 51.98C1012.77 52.0549 1013.02 52.0549 1013.25 51.98C1013.47 51.9058 1013.66 51.7573 1013.78 51.56C1013.89 51.3958 1013.97 51.2066 1013.99 51.0083C1014.02 50.8099 1014 50.6081 1013.93 50.42C1013.83 50.1433 1013.62 49.9151 1013.36 49.78C1013.09 49.6189 1012.79 49.5423 1012.47 49.5602C1012.16 49.578 1011.87 49.6895 1011.62 49.88C1011.43 50.0297 1011.27 50.2171 1011.16 50.4303C1011.04 50.6435 1010.97 50.878 1010.96 51.1192C1010.94 51.3604 1010.97 51.6031 1011.04 51.832C1011.12 52.061 1011.25 52.2714 1011.41 52.45C1011.51 52.5608 1011.62 52.6644 1011.73 52.76C1011.94 52.9551 1012.2 53.0927 1012.48 53.1593C1012.75 53.2259 1013.04 53.2192 1013.32 53.14C1013.49 53.0951 1013.65 53.0114 1013.79 52.8953C1013.92 52.7791 1014.03 52.6337 1014.1 52.47C1014.1 52.47 1014 52.57 1014 52.59Z" fill="#2B58A4"/>
<path d="M1019 65.8601C1018.85 65.6966 1018.66 65.5689 1018.45 65.486C1018.24 65.403 1018.02 65.3669 1017.79 65.3801C1017.41 65.4082 1017.05 65.5435 1016.75 65.7701C1016.44 65.9968 1016.21 66.3055 1016.07 66.6601C1015.94 66.9571 1015.89 67.2839 1015.92 67.6071C1015.96 67.9303 1016.08 68.2384 1016.27 68.5001C1016.39 68.6986 1016.56 68.8679 1016.75 68.9958C1016.94 69.1238 1017.16 69.2072 1017.39 69.2401C1017.58 69.2835 1017.77 69.2577 1017.94 69.1674C1018.11 69.0772 1018.24 68.9288 1018.3 68.7501C1018.13 68.7501 1017.99 68.8401 1017.83 68.8701C1017.54 68.8705 1017.25 68.7723 1017.02 68.5913C1016.78 68.4102 1016.62 68.1564 1016.54 67.8701C1016.48 67.6738 1016.46 67.4667 1016.48 67.2622C1016.51 67.0577 1016.57 66.8602 1016.68 66.6824C1016.78 66.5045 1016.92 66.3502 1017.09 66.2293C1017.25 66.1084 1017.44 66.0235 1017.64 65.9801C1017.78 65.9428 1017.92 65.9355 1018.05 65.9587C1018.19 65.9819 1018.32 66.0351 1018.43 66.1144C1018.55 66.1937 1018.64 66.2973 1018.71 66.4175C1018.78 66.5378 1018.82 66.6719 1018.83 66.8101C1018.85 66.9394 1018.82 67.0692 1018.75 67.1807C1018.68 67.2922 1018.58 67.3796 1018.46 67.4301C1018.35 67.4645 1018.22 67.4645 1018.1 67.4301C1017.83 67.3601 1017.8 67.1101 1018 66.8701C1018.06 66.8701 1018.07 66.7101 1018.1 66.6501C1018.13 66.5901 1017.9 66.5801 1017.8 66.6501C1017.66 66.6943 1017.54 66.7682 1017.43 66.8666C1017.32 66.9651 1017.24 67.0857 1017.18 67.2201C1017.15 67.3065 1017.14 67.4002 1017.15 67.4927C1017.16 67.5852 1017.19 67.6737 1017.24 67.7501C1017.36 67.9512 1017.54 68.1117 1017.76 68.2109C1017.97 68.3102 1018.21 68.3437 1018.44 68.3072C1018.67 68.2707 1018.89 68.1658 1019.06 68.006C1019.23 67.8462 1019.35 67.6387 1019.4 67.4101C1019.5 67.1417 1019.52 66.8496 1019.44 66.5728C1019.37 66.296 1019.22 66.0474 1019 65.8601Z" fill="#2B58A4"/>
<path d="M1011.47 84.6999C1010.47 84.2299 1010.02 83.9799 1009.07 83.4399C1008.77 83.9699 1008.61 84.2399 1008.3 84.7699C1009.26 85.3311 1010.24 85.8418 1011.24 86.2999L1010.84 87.1599C1009.34 86.4893 1007.9 85.7036 1006.52 84.8099C1007.76 82.8099 1008.38 81.8899 1009.61 79.9399C1010.77 80.7013 1011.99 81.37 1013.25 81.9399L1012.85 82.8099C1011.95 82.4086 1011.08 81.9545 1010.23 81.4499L1009.54 82.6399C1010.46 83.1699 1010.92 83.4199 1011.87 83.8699L1011.47 84.6999Z" fill="#2B58A4"/>
<path d="M1015.31 84.9201C1016.04 84.3301 1016.39 84.0301 1017.06 83.4101C1017.61 83.5801 1017.89 83.6601 1018.44 83.8101C1017.63 84.5988 1016.77 85.3368 1015.86 86.0201C1016.18 87.166 1016.57 88.2914 1017.02 89.3901C1016.35 89.2201 1016.02 89.1201 1015.36 88.9201C1015.08 87.9801 1014.95 87.5101 1014.72 86.5701C1013.96 87.1601 1013.56 87.4401 1012.72 87.9901C1012.07 87.7301 1011.72 87.5901 1011.12 87.3101C1012.16 86.7434 1013.16 86.1156 1014.12 85.4301C1013.85 84.3234 1013.64 83.2014 1013.5 82.0701C1014.03 82.3101 1014.3 82.4301 1014.84 82.6401C1015 83.5501 1015.12 84.0001 1015.31 84.9201Z" fill="#2B58A4"/>
<path d="M1019.58 87.9002L1019.18 89.9002C1018.6 89.7802 1018.31 89.7202 1017.74 89.5802C1018.28 87.3402 1018.55 86.2202 1019.1 83.9702C1020.02 84.2002 1020.48 84.2902 1021.41 84.4502C1021.82 84.5054 1022.22 84.6414 1022.57 84.8502C1022.88 85.0379 1023.13 85.3038 1023.29 85.6202C1023.45 85.927 1023.52 86.2754 1023.48 86.6202C1023.47 86.8816 1023.39 87.1354 1023.25 87.3576C1023.11 87.5798 1022.92 87.7631 1022.69 87.8902C1022.1 88.182 1021.43 88.2631 1020.78 88.1202C1020.3 88.0502 1020.06 88.0002 1019.58 87.9002ZM1019.77 86.9602C1020.24 87.0602 1020.48 87.1002 1020.96 87.1802C1021.25 87.2455 1021.54 87.2102 1021.8 87.0802C1021.9 87.0173 1021.99 86.9311 1022.05 86.8285C1022.12 86.7259 1022.15 86.61 1022.16 86.4902C1022.18 86.3659 1022.18 86.2381 1022.15 86.1156C1022.12 85.9931 1022.06 85.8787 1021.98 85.7802C1021.81 85.5698 1021.56 85.434 1021.28 85.4002L1020.13 85.1902C1020 85.9002 1019.91 86.2502 1019.77 87.0002V86.9602Z" fill="#2B58A4"/>
<path d="M1026.76 88.5201C1026.31 88.5201 1026.09 88.5201 1025.65 88.5201L1025.6 90.6301C1025.01 90.6301 1024.72 90.6301 1024.13 90.5601C1024.28 88.2601 1024.36 87.1101 1024.51 84.8101C1025.4 84.8701 1025.85 84.8801 1026.75 84.8801C1027.34 84.8372 1027.92 84.977 1028.42 85.2801C1028.63 85.4196 1028.8 85.6057 1028.91 85.823C1029.03 86.0404 1029.1 86.2827 1029.1 86.5301C1029.14 86.8773 1029.07 87.2278 1028.89 87.5301C1028.68 87.8334 1028.38 88.0666 1028.03 88.2001C1028.65 89.1201 1029.03 89.5701 1029.67 90.4601V90.5201C1029.05 90.5201 1028.73 90.5901 1028.1 90.6101C1027.53 89.7801 1027.26 89.3601 1026.76 88.5201ZM1025.68 87.5201H1026.76C1027.04 87.539 1027.32 87.4536 1027.54 87.2801C1027.63 87.201 1027.7 87.102 1027.75 86.9909C1027.79 86.8797 1027.81 86.7596 1027.8 86.6401C1027.8 86.5213 1027.78 86.4039 1027.73 86.2954C1027.68 86.1869 1027.61 86.0897 1027.52 86.0101C1027.3 85.846 1027.03 85.7679 1026.75 85.7901H1025.75C1025.71 86.5101 1025.7 86.8601 1025.68 87.5501V87.5201Z" fill="#2B58A4"/>
<path d="M1034.21 87.2903C1033.21 87.5203 1032.66 87.6202 1031.61 87.7702C1031.7 88.3802 1031.75 88.6903 1031.84 89.3003C1032.91 89.152 1033.96 88.9483 1035.01 88.6903C1035.1 89.0603 1035.15 89.2503 1035.23 89.6203C1033.68 90.0041 1032.11 90.2748 1030.52 90.4303C1030.27 88.1303 1030.15 86.9903 1029.91 84.6903C1031.26 84.5687 1032.6 84.3413 1033.91 84.0103C1034 84.3903 1034.05 84.5702 1034.13 84.9502C1033.2 85.1802 1032.25 85.3605 1031.3 85.4902L1031.5 86.8503C1032.5 86.7003 1033.02 86.6102 1034.03 86.3802L1034.21 87.2903Z" fill="#2B58A4"/>
<path d="M1039.1 86.8703C1039.07 86.7719 1039.01 86.6839 1038.93 86.6154C1038.86 86.5468 1038.76 86.5002 1038.66 86.4803C1038.3 86.4399 1037.94 86.4399 1037.58 86.4803C1037.18 86.5242 1036.78 86.5242 1036.38 86.4803C1036.06 86.4746 1035.74 86.3673 1035.48 86.1736C1035.22 85.9798 1035.03 85.7094 1034.93 85.4003C1034.85 85.1074 1034.88 84.7973 1035 84.5203C1035.13 84.2118 1035.35 83.9456 1035.62 83.7503C1035.94 83.5082 1036.29 83.3222 1036.67 83.2003C1037.05 83.0704 1037.44 83.0095 1037.84 83.0203C1038.19 83.0327 1038.54 83.1324 1038.84 83.3103C1039.12 83.4888 1039.34 83.7513 1039.46 84.0603L1038.23 84.5503C1038.19 84.4388 1038.13 84.337 1038.05 84.2522C1037.97 84.1674 1037.87 84.1019 1037.76 84.0603C1037.5 83.9887 1037.21 84.0062 1036.96 84.1103C1036.71 84.1762 1036.49 84.3156 1036.32 84.5103C1036.26 84.5836 1036.22 84.6717 1036.2 84.7661C1036.18 84.8605 1036.18 84.9583 1036.21 85.0503C1036.24 85.1453 1036.3 85.2293 1036.38 85.2929C1036.46 85.3564 1036.55 85.3971 1036.65 85.4103C1036.98 85.4599 1037.32 85.4599 1037.65 85.4103C1038.27 85.3375 1038.9 85.3781 1039.51 85.5303C1039.72 85.5894 1039.91 85.6949 1040.07 85.8386C1040.23 85.9823 1040.36 86.1607 1040.44 86.3603C1040.54 86.5801 1040.58 86.8238 1040.54 87.0629C1040.51 87.302 1040.41 87.5266 1040.25 87.7103C1039.82 88.2146 1039.25 88.5828 1038.61 88.7703C1038.12 88.9375 1037.61 89.0121 1037.09 88.9903C1036.68 88.9842 1036.27 88.8554 1035.93 88.6203C1035.64 88.4156 1035.43 88.109 1035.35 87.7603C1035.89 87.6203 1036.17 87.5403 1036.71 87.3803C1036.89 87.9903 1037.43 88.1703 1038.31 87.8803C1038.58 87.802 1038.82 87.6536 1039.01 87.4503C1039.08 87.3726 1039.13 87.2765 1039.14 87.1736C1039.16 87.0707 1039.14 86.9653 1039.1 86.8703Z" fill="#2B58A4"/>
<path d="M1044.57 84.2899C1044.52 84.2008 1044.44 84.1264 1044.36 84.074C1044.27 84.0215 1044.17 83.9926 1044.06 83.9899C1043.7 83.9966 1043.33 84.0504 1042.98 84.1499C1042.58 84.243 1042.18 84.2999 1041.77 84.3199C1041.45 84.3725 1041.12 84.3215 1040.83 84.1741C1040.54 84.0267 1040.3 83.7906 1040.15 83.4999C1040.02 83.2256 1039.99 82.9134 1040.07 82.6199C1040.16 82.2932 1040.33 81.9938 1040.56 81.7499C1040.85 81.4567 1041.19 81.2135 1041.56 81.0299C1041.92 80.8308 1042.31 80.6986 1042.71 80.6399C1043.05 80.5934 1043.39 80.6312 1043.71 80.7499C1044.02 80.8727 1044.29 81.0939 1044.46 81.3799C1044 81.6699 1043.77 81.8099 1043.3 82.0799C1043.25 81.9744 1043.17 81.8836 1043.08 81.8155C1042.98 81.7474 1042.87 81.7043 1042.75 81.6899C1042.48 81.6598 1042.2 81.7232 1041.96 81.8699C1041.73 81.98 1041.53 82.1574 1041.39 82.3799C1041.34 82.4651 1041.32 82.5616 1041.32 82.6599C1041.32 82.7582 1041.34 82.8548 1041.39 82.9399C1041.44 83.027 1041.51 83.0983 1041.6 83.146C1041.69 83.1937 1041.79 83.2159 1041.89 83.2099C1042.23 83.2201 1042.57 83.1762 1042.89 83.0799C1043.5 82.8926 1044.14 82.8214 1044.77 82.8699C1044.99 82.89 1045.2 82.959 1045.38 83.0716C1045.57 83.1842 1045.72 83.3375 1045.84 83.5199C1045.97 83.7248 1046.04 83.9624 1046.04 84.2049C1046.04 84.4475 1045.97 84.685 1045.84 84.8899C1045.5 85.4728 1044.98 85.9393 1044.37 86.2299C1043.91 86.4853 1043.41 86.6484 1042.89 86.7099C1042.48 86.776 1042.05 86.7204 1041.67 86.5499C1041.35 86.3968 1041.09 86.1298 1040.95 85.7999L1042.25 85.1899C1042.53 85.7599 1043.09 85.8499 1043.93 85.3999C1044.19 85.2761 1044.4 85.0862 1044.56 84.8499C1044.61 84.7664 1044.64 84.6701 1044.64 84.5713C1044.65 84.4726 1044.62 84.3753 1044.57 84.2899Z" fill="#2B58A4"/>
<path d="M384.359 149.56L385.359 176.03C385.359 176.03 351.769 179.47 348.119 178.72C343.399 177.72 340.119 174.99 339.899 170.43C339.679 165.87 338.819 159.15 342.769 155.3C345.869 152.3 352.549 149.83 356.979 148.91C361.409 147.99 374.059 148.13 377.709 148.26C379.979 148.357 382.221 148.795 384.359 149.56Z" fill="#F1FA91"/>
<path d="M412 200C410.24 201.57 407.11 207.44 411 212C414.89 216.56 419 217.18 423.52 214.06C428.04 210.94 440.36 196.46 445.06 173.58C449.76 150.7 451.52 107.31 451.52 106.02C451.52 104.73 442.52 98.13 434.52 104.17C434.52 104.17 432.37 143.66 431.39 151.87C430.41 160.08 421.94 187.26 419.85 190.79C417.76 194.32 412 200 412 200Z" fill="#698681"/>
<path d="M375.489 150.91C375.489 150.91 375.359 169.71 377.709 174.04" stroke="black" stroke-width="0.88" stroke-miterlimit="10" stroke-linecap="round"/>
<path d="M363.06 150.91C363.06 150.91 360.68 167.38 365.65 174.91" stroke="black" stroke-width="0.88" stroke-miterlimit="10" stroke-linecap="round"/>
<path d="M352.239 153.9C352.239 153.9 350.319 169.24 354.369 175.7" stroke="black" stroke-width="0.88" stroke-miterlimit="10" stroke-linecap="round"/>
<path d="M384.811 161.44C384.811 161.44 380.311 155.04 372.881 155.56C365.451 156.08 358.671 159.62 354.371 161.44C354.371 161.44 348.861 165.2 343.371 162.21" stroke="black" stroke-width="0.88" stroke-miterlimit="10" stroke-linecap="round"/>
<path d="M386.841 105.36C386.841 105.36 386.971 91.28 382.541 87.36C378.111 83.44 377.711 77.97 363.541 77.45C349.371 76.93 338.381 82.93 336.681 84.75C334.981 86.57 330.421 90.62 329.381 95.96C328.341 101.3 328.211 114.87 328.381 120.09C328.551 125.31 335.291 192.84 335.291 192.84L388.881 186.19C388.881 186.19 388.881 174.72 388.221 173.81C387.561 172.9 355.501 175.89 352.221 175.81C348.941 175.73 343.741 173.81 343.221 168.51C342.701 163.21 343.611 158.73 347.521 156.51C351.431 154.29 355.741 151.56 364.731 150.91C371.308 150.611 377.899 150.916 384.421 151.82C384.421 151.82 383.901 157.69 384.421 158.08C384.941 158.47 391.591 154.95 391.861 154.08C392.131 153.21 391.721 140.78 391.861 140C392.001 139.22 386.841 105.36 386.841 105.36Z" fill="#698681"/>
<path d="M360.061 138.68C355.751 139.27 351.241 141.81 348.111 140.44C344.981 139.07 341.261 139.23 340.281 135.14C339.301 131.05 336.861 119.3 338.621 115.7C340.381 112.1 342.091 111.04 345.371 108.36C348.313 105.765 352.107 104.341 356.031 104.36C360.141 104.36 387.511 104.05 390.941 104.36C393.031 104.58 397.591 104.88 399.941 110.1C402.291 115.32 401.511 126.26 401.511 127.83C401.511 129.4 393.031 138.91 391.801 139.83C390.571 140.75 384.151 135.35 360.061 138.68Z" fill="#99B5B6"/>
<path d="M398.18 120.36C398.18 120.36 399.49 108 390.06 107.45C390.06 107.45 354.86 107.32 352.64 107.45C350.42 107.58 347.42 111.45 348.21 120.36C349 129.27 354.59 130.14 357.85 130.79C361.11 131.44 391.49 131.31 393.58 130.79C395.67 130.27 398.26 128.83 398.18 120.36Z" fill="#09060F"/>
<path d="M372.879 119.59C372.879 119.59 375.279 124.95 371.129 131.22C366.916 131.371 362.698 131.255 358.499 130.87C356.823 130.694 355.186 130.252 353.649 129.56C351.938 128.845 350.547 127.529 349.739 125.86C348.384 123.288 347.82 120.372 348.119 117.48C349.653 114.481 352.259 112.168 355.419 111C358.579 109.832 362.062 109.894 365.178 111.174C368.294 112.454 370.816 114.858 372.242 117.91C373.669 120.962 373.896 124.438 372.879 127.65C372.484 128.923 371.894 130.128 371.129 131.22L377.359 131.28C375.309 131.28 386.269 131.13 388.029 131.11C388.809 131.11 390.849 131 390.849 131C391.924 129.834 392.729 128.446 393.209 126.934C393.688 125.422 393.829 123.823 393.623 122.25C393.416 120.678 392.866 119.17 392.013 117.833C391.159 116.496 390.023 115.363 388.683 114.514C387.344 113.665 385.834 113.121 384.261 112.919C382.687 112.718 381.089 112.864 379.579 113.348C378.068 113.832 376.683 114.642 375.52 115.721C374.357 116.8 373.445 118.12 372.849 119.59" fill="#F1FA91"/>
<path d="M413.56 230.88C406.971 230.88 401.63 222.432 401.63 212.01C401.63 201.589 406.971 193.14 413.56 193.14C420.149 193.14 425.49 201.589 425.49 212.01C425.49 222.432 420.149 230.88 413.56 230.88Z" fill="#99B5B6"/>
<path d="M433.331 124.3C433.331 124.3 442.951 118.05 450.551 124.3" stroke="#99B5B6" stroke-width="0.44" stroke-miterlimit="10" stroke-linecap="round"/>
<path d="M432.129 142.91C432.129 142.91 440.859 137.08 449.129 142.91" stroke="#99B5B6" stroke-width="0.44" stroke-miterlimit="10" stroke-linecap="round"/>
<path d="M429.879 159.17C429.879 159.17 441.999 156.03 446.949 162.26" stroke="#99B5B6" stroke-width="0.44" stroke-miterlimit="10" stroke-linecap="round"/>
<path d="M425.009 176.32C425.009 176.32 437.849 176.43 441.939 184.88" stroke="#99B5B6" stroke-width="0.44" stroke-miterlimit="10" stroke-linecap="round"/>
<path d="M419.82 190.79C419.82 190.79 427.97 189.42 433.48 201.16" stroke="#99B5B6" stroke-width="0.44" stroke-miterlimit="10" stroke-linecap="round"/>
<path d="M429.731 84.0702C426.591 79.8886 424.858 74.8189 424.781 69.5902C424.781 69.5902 426.411 65.0002 434.061 66.8602C434.061 66.8602 434.911 80.2202 437.391 83.1502L429.731 84.0702Z" fill="#99B5B6"/>
<path d="M460.34 87.3001C463.501 83.1301 465.252 78.062 465.34 72.8301C465.34 72.8301 463.71 68.2701 456.02 70.0901C456.02 70.0901 455.17 83.4601 452.69 86.3901L460.34 87.3001Z" fill="#99B5B6"/>
<path d="M450.33 83.6802C451.527 78.751 452.108 73.6924 452.06 68.6202C452.06 68.6202 450.43 64.0602 442.74 65.8802C442.74 65.8802 440.91 78.4802 442.34 82.8202L450.33 83.6802Z" fill="#99B5B6"/>
<path d="M436.251 106C436.251 106 432.121 100.8 429.881 89.2599C429.454 87.3032 429.144 85.3231 428.951 83.3299C429.061 82.2399 450.661 76.6999 460.061 87.1999C460.061 87.1999 459.061 100.5 450.061 107.08L436.251 106Z" fill="#698681"/>
<path d="M360.069 114.42H364.539V118.89H360.069V114.42Z" fill="black"/>
<path d="M384.13 117.07H388.6V121.54H384.13V117.07Z" fill="black"/>
<path d="M384.811 164.5C384.811 164.5 380.311 170.9 372.881 170.38C365.451 169.86 358.671 169.57 354.371 167.75C350.649 166.658 346.65 167.037 343.201 168.81" stroke="black" stroke-width="0.88" stroke-miterlimit="10"/>
<path d="M349.939 51.7801C347.813 51.7801 346.089 50.0564 346.089 47.9301C346.089 45.8038 347.813 44.0801 349.939 44.0801C352.065 44.0801 353.789 45.8038 353.789 47.9301C353.789 50.0564 352.065 51.7801 349.939 51.7801Z" fill="#698681"/>
<path d="M362.689 77.43C361.57 75.8701 360.034 74.6566 358.257 73.928C356.48 73.1993 354.535 72.9849 352.642 73.3092C350.749 73.6335 348.986 74.4835 347.553 75.762C346.12 77.0406 345.076 78.6963 344.539 80.54" fill="#698681"/>
<path d="M414.061 207.85C414.061 207.85 397.361 188.29 388.761 184.9C388.761 184.9 363.991 179.68 333.091 189.98C333.091 189.98 323.181 202.76 318.231 214.98C318.231 214.98 335.231 206.9 365.671 203.64C396.111 200.38 414.061 207.85 414.061 207.85Z" fill="#99B5B6"/>
<path d="M414.479 324.79C417.399 322.39 419.309 323.5 416.309 316.46C413.309 309.42 344.099 316.36 338.599 322.46C328.949 333.15 338.989 332.24 338.989 332.24C338.989 332.24 411.059 327.65 414.479 324.79Z" fill="#99B5B6"/>
<path d="M317.059 244.68L334.659 329.18C334.659 329.18 350.659 317.83 371.819 317.34C392.979 316.85 416.369 318 417.159 320L417.939 322L414.609 208.27C414.609 208.27 396.519 195.16 363.859 197.71C331.199 200.26 311.739 220 311.739 220L317.059 244.68Z" fill="#698681"/>
<path d="M407.579 218.93C401.739 216.04 382.309 209.32 344.099 221.83C343.309 222.088 342.634 222.616 342.195 223.322C341.756 224.028 341.581 224.867 341.699 225.69L353.809 308C353.878 308.477 354.044 308.935 354.297 309.345C354.551 309.755 354.886 310.108 355.282 310.383C355.678 310.658 356.126 310.849 356.599 310.943C357.071 311.037 357.558 311.032 358.029 310.93C366.029 309.22 385.739 305.67 405.619 307.78C406.111 307.833 406.609 307.783 407.08 307.631C407.551 307.48 407.985 307.231 408.354 306.901C408.722 306.571 409.018 306.167 409.22 305.715C409.423 305.264 409.528 304.775 409.529 304.28V222.08C409.53 221.425 409.348 220.783 409.004 220.227C408.659 219.67 408.166 219.221 407.579 218.93Z" fill="#99B5B6"/>
<path d="M318.779 247.42C312.19 247.42 306.849 238.972 306.849 228.55C306.849 218.129 312.19 209.68 318.779 209.68C325.368 209.68 330.709 218.129 330.709 228.55C330.709 238.972 325.368 247.42 318.779 247.42Z" fill="#99B5B6"/>
<path d="M320.341 216.52C322.101 218.08 325.231 223.95 321.341 228.52C317.451 233.09 313.341 233.7 308.821 230.52C304.301 227.34 292.001 212.92 287.311 190.04C282.621 167.16 280.851 123.76 280.851 122.48C280.851 121.2 289.851 114.58 297.851 120.62C297.851 120.62 300.001 160.11 300.981 168.33C301.961 176.55 310.431 203.71 312.521 207.25C314.611 210.79 320.341 216.52 320.341 216.52Z" fill="#698681"/>
<path d="M299.01 140.84C299.01 140.84 289.39 134.59 281.79 140.84" stroke="#99B5B6" stroke-width="0.44" stroke-linecap="round" stroke-linejoin="round"/>
<path d="M300.221 159.45C300.221 159.45 291.481 153.62 283.221 159.45" stroke="#99B5B6" stroke-width="0.44" stroke-linecap="round" stroke-linejoin="round"/>
<path d="M302.459 175.7C302.459 175.7 290.339 172.56 285.389 178.8" stroke="#99B5B6" stroke-width="0.44" stroke-linecap="round" stroke-linejoin="round"/>
<path d="M307.33 192.85C307.33 192.85 294.49 192.96 290.4 201.42" stroke="#99B5B6" stroke-width="0.44" stroke-linecap="round" stroke-linejoin="round"/>
<path d="M312.52 207.33C312.52 207.33 304.38 205.96 298.86 217.69" stroke="#99B5B6" stroke-width="0.44" stroke-linecap="round" stroke-linejoin="round"/>
<path d="M302.611 100.6C305.749 96.4214 307.482 91.3553 307.561 86.1299C307.561 86.1299 305.931 81.5699 298.241 83.3899C298.241 83.3899 297.391 96.7599 294.921 99.6899L302.611 100.6Z" fill="#99B5B6"/>
<path d="M272 103.84C268.842 99.6688 267.091 94.6016 267 89.3702C267 89.3702 268.63 84.8002 276.33 86.6302C276.33 86.6302 277.17 99.9902 279.65 102.93L272 103.84Z" fill="#99B5B6"/>
<path d="M282.01 100.21C280.827 95.2993 280.256 90.261 280.31 85.21C280.31 85.21 281.94 80.6401 289.64 82.4701C289.64 82.4701 291.46 95.0701 290.03 99.4101L282.01 100.21Z" fill="#99B5B6"/>
<path d="M296.059 122.56C296.059 122.56 300.199 117.36 302.429 105.82C302.86 103.864 303.17 101.884 303.359 99.8899C303.299 98.7799 281.649 93.2399 272.259 103.73C272.259 103.73 273.259 117.03 282.259 123.62L296.059 122.56Z" fill="#698681"/>
<path d="M357.111 269.82C354.841 269.82 353.001 267.98 353.001 265.71C353.001 263.44 354.841 261.6 357.111 261.6C359.381 261.6 361.221 263.44 361.221 265.71C361.221 267.98 359.381 269.82 357.111 269.82Z" fill="#698681"/>
<path d="M348.621 75.6103L357.051 74.4603L352.551 50.0103L348.251 50.5303L348.621 75.6103Z" fill="#698681"/>
<path d="M529.369 73.74C529.819 69.08 532.929 70.56 534.929 66.93C536.929 63.3 536.259 58.19 541.259 52.85C546.259 47.51 565.819 37.08 582.489 44.63C599.159 52.18 606.259 64.63 602.709 73.74C599.159 82.85 587.369 94.85 585.369 102.63C583.221 110.12 583.301 118.074 585.599 125.52C588.039 133.74 591.369 139.74 591.819 141.52C592.269 143.3 589.599 156.19 576.929 159.3C564.259 162.41 551.819 154.03 552.259 152.3C552.699 150.57 555.819 150.16 555.369 146.82C554.919 143.48 548.759 139.23 544.439 136.67C536.559 132.01 526.259 130.67 519.369 128.45C512.479 126.23 513.369 123.71 516.039 120.6C518.709 117.49 523.819 113.87 526.039 109.9L528.489 96.16C528.489 96.16 526.489 95.49 524.039 90.38C521.589 85.27 525.369 76.38 527.369 75.05L529.369 73.74Z" fill="#F5B182"/>
<path d="M532.26 290.85C532.04 293.96 535.34 296.85 534.91 302.63C534.48 308.41 529.82 322.1 529.82 322.1H601.82C602.26 322.1 610.71 299.1 610.93 296.41C611.15 293.72 600.49 287.3 600.49 287.3C600.49 287.3 552.26 288.63 549.82 288.41C547.38 288.19 532.49 285.3 532.49 285.3L532.26 290.85Z" fill="#2E7780"/>
<path d="M530.259 16.0001C525.819 25.3401 513.369 39.6401 519.369 51.0001C525.369 62.3601 532.259 65.2001 544.709 61.0001C557.159 56.8001 561.599 50.8201 572.709 51.9301C583.819 53.0401 586.489 51.7101 584.929 53.4901C583.369 55.2701 574.259 63.2701 575.369 65.2701C576.479 67.2701 578.709 64.2701 583.149 63.7401C587.589 63.2101 588.929 64.5301 586.259 66.9001C583.589 69.2701 574.259 78.9001 575.369 87.3301C576.479 95.7601 573.819 95.9301 576.489 95.7101C579.159 95.4901 577.779 83.8201 583.489 84.4901C589.199 85.16 586.379 97.3901 586.159 98.9501C585.939 100.51 610.459 96.5101 612.679 87.3301C614.899 78.1501 614.459 65.4901 612.679 62.1601C610.899 58.8301 622.929 51.7401 621.999 49.5201C621.069 47.3001 613.779 46.9201 611.329 46.2201C608.879 45.5201 612.449 32.6301 610.669 31.5201C608.889 30.4101 601.559 38.1001 598.889 39.2501C596.219 40.4001 594.889 24.6301 572.219 27.0801L554.669 32.8301C554.669 32.8301 556.839 15.0801 559.089 12.1901C561.339 9.30005 554.669 7.52005 553.089 9.08005C551.509 10.6401 535.759 30.3701 535.309 30.1701C534.859 29.9701 543.149 7.70005 539.999 8.50005C536.849 9.30005 530.259 16.0001 530.259 16.0001Z" fill="#DB7F2C"/>
<path d="M533.289 95.4301C539.314 95.4301 544.199 90.5455 544.199 84.5201C544.199 78.4947 539.314 73.6101 533.289 73.6101C527.263 73.6101 522.379 78.4947 522.379 84.5201C522.379 90.5455 527.263 95.4301 533.289 95.4301Z" fill="white"/>
<path d="M537.09 87.19C538.112 87.19 538.94 86.3617 538.94 85.34C538.94 84.3183 538.112 83.49 537.09 83.49C536.069 83.49 535.24 84.3183 535.24 85.34C535.24 86.3617 536.069 87.19 537.09 87.19Z" fill="black"/>
<path d="M555.069 100.76C562.309 100.76 568.179 94.8905 568.179 87.65C568.179 80.4096 562.309 74.54 555.069 74.54C547.829 74.54 541.959 80.4096 541.959 87.65C541.959 94.8905 547.829 100.76 555.069 100.76Z" fill="white"/>
<path d="M562.839 90.8502C564.065 90.8502 565.059 89.8562 565.059 88.6301C565.059 87.4041 564.065 86.4102 562.839 86.4102C561.613 86.4102 560.619 87.4041 560.619 88.6301C560.619 89.8562 561.613 90.8502 562.839 90.8502Z" fill="black"/>
<path d="M553.369 147.08C554.879 149.35 563.369 153.96 573.819 150.85C584.269 147.74 588.259 143.08 588.259 143.08C588.259 143.08 575.599 167.08 573.369 173.74C571.139 180.4 562.489 274.19 561.819 280.63C561.429 285.081 561.49 289.561 561.999 294C561.999 294 540.449 292.45 536.219 289.56C531.989 286.67 538.889 247.12 540.219 239.56C541.549 232 545.559 207.34 547.999 194.67C550.439 182 549.999 148 549.999 148L553.369 147.08Z" fill="white"/>
<path d="M518.709 278.63C517.709 282.04 514.339 286.11 512.779 290.7C511.219 295.29 510.779 318.33 516.409 318.63C522.039 318.93 521.669 318.7 521.889 316.85C521.889 316.85 522.829 320.78 525.989 320.41C529.149 320.04 529.369 318.7 529.369 318.19C529.369 318.19 530.629 320.19 532.109 319.67C533.589 319.15 536.859 311.08 536.189 306.56C535.519 302.04 535.299 294.78 534.559 292.19C533.819 289.6 532.189 283.37 531.229 282.11C530.269 280.85 518.709 278.63 518.709 278.63Z" fill="#F5B182"/>
<path d="M604.66 278C603.66 281.41 600.29 285.48 598.74 290.08C597.19 294.68 596.74 317.71 602.37 318C608 318.29 607.63 318.08 607.85 316.22C607.85 316.22 608.78 320.15 611.94 319.78C615.1 319.41 615.33 318.08 615.33 317.56C615.33 317.56 616.59 319.56 618.07 319.04C619.55 318.52 622.81 310.45 622.14 305.93C621.47 301.41 621.26 294.15 620.51 291.56C619.76 288.97 618.14 282.74 617.18 281.48C616.22 280.22 604.66 278 604.66 278Z" fill="#F5B182"/>
<path d="M579.26 156.74C581.19 154.5 588.85 144.74 588.26 137.85C588.079 134.224 587.361 130.646 586.13 127.23C585.82 126.23 584.93 123.74 589.13 125.74C593.33 127.74 596.91 133.08 598.69 135.08C599.99 136.823 600.968 138.784 601.58 140.87C601.58 140.87 617.58 148.96 624.09 156.13C630.6 163.3 631.8 167.3 633.87 174.41C635.94 181.52 641.58 214.7 640.98 229.22C640.38 243.74 636.24 260.93 633.87 269.52C633.87 269.52 629.69 275.52 626.58 277.41C623.47 279.3 616.77 281.52 610.14 283.59C603.51 285.66 599.65 286.7 599.06 289.37C598.47 292.04 598.47 296.63 598.06 297.37C597.65 298.11 583.91 302.02 575.32 301.28C566.73 300.54 562.47 300.22 561.15 296.81C559.83 293.4 559.15 289.08 560.15 282.81C561.15 276.54 566.67 193.33 567.86 189.18C569.05 185.03 564.19 174.33 579.26 156.74Z" fill="#971F1E"/>
<path d="M576.369 170.08C577.709 168.52 579.709 162.63 585.259 164.08C590.809 165.53 593.599 169.96 596.149 172.3C598.699 174.64 601.259 172.96 601.599 170.85C601.939 168.74 601.949 141.92 601.599 140.85" stroke="#7F1818" stroke-miterlimit="10"/>
<path d="M613.739 156.13C610.489 161.82 607.369 172.33 607.969 183.13C608.569 193.93 611.969 222.54 612.259 225.5C612.549 228.46 612.409 226.39 606.489 243.43C602.856 254.187 600.798 265.413 600.379 276.76" stroke="#7F1818" stroke-miterlimit="10"/>
<path d="M599.001 289.92C598.1 289.315 597.384 288.473 596.932 287.486C596.481 286.5 596.311 285.407 596.441 284.33C596.741 280.93 596.891 276.78 602.221 275.59C607.551 274.4 615.551 272.59 620.661 274.04" stroke="#7F1818" stroke-miterlimit="10"/>
<path d="M548.69 139.44C546.76 143.59 544.26 149.08 541.89 153.82C539.52 158.56 538.45 159 534.89 165.82C531.33 172.64 521.43 240.33 520.09 251.45C518.75 262.57 518.76 266.7 516.39 270.26C514.02 273.82 512.39 271.74 512.24 276.78C512.09 281.82 514.32 283.15 515.06 283.15C515.8 283.15 526.78 291.74 529 294C531.22 296.26 531 297.41 534.91 296.23C538.82 295.05 539.37 289.86 539.08 287.49C538.79 285.12 536.26 291.63 538.49 279.34C540.72 267.05 544.86 229.88 547.82 218.46C550.78 207.04 552.44 166.16 552.82 160.02C553.2 153.88 555.2 147.29 554.96 145.69C554.65 143.35 548.69 139.44 548.69 139.44Z" fill="#971F1E"/>
<path d="M541.26 172.19C541.15 175.74 539.82 197.52 537.15 211.08C534.48 224.64 527.15 244.63 526.93 255.3C526.71 265.97 524.93 275.96 526.93 280.63C528.93 285.3 534.63 286.91 536.82 287.02" stroke="#7F1818" stroke-miterlimit="10"/>
<path d="M525.23 271.74C522.86 271.45 518.92 270.8 516.41 271.74" stroke="#7F1818" stroke-miterlimit="10"/>
<path d="M549.12 139.85C546.057 143.467 543.989 147.82 543.12 152.48C541.71 158.78 538.3 163.59 540.53 165C542.76 166.41 543.53 160.48 546.08 161C548.63 161.52 549.34 166 549.41 166.33" stroke="#7F1818" stroke-miterlimit="10"/>
<path d="M573.149 103.89C577.149 103.74 582.049 113.01 580.999 120.42C579.559 130.68 544.119 140.85 536.929 136.19C534.809 134.81 534.859 132 531.929 131.77C527.109 131.4 521.929 129.24 519.409 128.48C509.779 125.59 513.409 123.74 516.079 120.63C517.349 119.15 520.169 116.88 523.449 113.4C529.269 107.22 526.329 101.19 527.769 100.4C530.489 99 530.509 105.47 573.149 103.89Z" fill="#F6921E" stroke="#E58423" stroke-width="0.5" stroke-miterlimit="10"/>
<path d="M545.559 109.07C544.909 109.23 545.149 109.89 545.559 109.84C545.969 109.79 546.289 108.9 545.559 109.07Z" fill="black" stroke="black" stroke-width="0.59" stroke-miterlimit="10" stroke-linecap="round"/>
<path d="M548.37 108.9C549.02 108.74 549.1 109.44 548.71 109.58C548.32 109.72 547.64 109.07 548.37 108.9Z" fill="black" stroke="black" stroke-width="0.59" stroke-miterlimit="10" stroke-linecap="round"/>
<path d="M534 132.43C534 132.43 547.53 133.89 553.83 128.26" stroke="#E58423" stroke-width="0.5" stroke-miterlimit="10" stroke-linecap="round"/>
<path d="M653.45 126.11C649.94 122.8 646.34 122.56 650.78 108.04C655.22 93.5201 654.63 77.2201 657.89 70.7001C661.15 64.1801 688.71 41.0801 703.52 47.8901C718.33 54.7001 731.67 87.8901 727.23 93.8201C722.79 99.7501 713.3 106.82 709.15 112.82C705 118.82 702 124 701.74 132.93C701.48 141.86 701.63 144.79 701.74 145.67C702.01 147.67 702.04 151 686.34 150.67C670.64 150.34 668 149.22 668 149.22C668 149.22 670.85 137.74 670.07 134.63L669.74 132.74C669.74 132.74 665.07 131.85 664.85 128.41C664.82 128.41 655.58 128.12 653.45 126.11Z" fill="#F5B182"/>
<path d="M724.26 53.9999C726.35 51.9299 728.41 48.9999 732.86 51.7799C737.31 54.5599 738.19 57.8599 736.41 60.7799C734.63 63.6999 731.82 63.8999 729.15 63.0799C726.48 62.2599 722.78 60.1899 723.08 57.9599C723.275 56.5888 723.673 55.2543 724.26 53.9999Z" fill="#120E0D"/>
<path d="M670.341 147.74C667.041 149.3 661.711 151.85 658.601 161.52C655.491 171.19 649.821 176.08 653.711 182.08C657.601 188.08 676.931 192.85 682.821 189.08C688.711 185.31 696.931 167.74 699.151 161.96C701.371 156.18 707.711 149.74 707.371 148.96C707.031 148.18 698.041 146.76 696.491 147.08" fill="#F5B182"/>
<path d="M686.711 82.9999C686.711 82.9999 684.111 77.6699 684.711 73.0799L685.151 70.1899" stroke="black" stroke-miterlimit="10" stroke-linecap="round"/>
<path d="M670.34 176.11C668.97 177.046 667.815 178.263 666.953 179.681C666.091 181.098 665.541 182.683 665.34 184.33" stroke="black" stroke-width="0.59" stroke-miterlimit="10" stroke-linecap="round"/>
<path d="M678.832 80.83C678.832 80.83 676.232 75.5 676.832 70.91L677.272 68.02" stroke="black" stroke-miterlimit="10" stroke-linecap="round"/>
<path d="M673.398 103.29C684.007 103.29 692.607 98.0114 692.607 91.5C692.607 84.9885 684.007 79.71 673.398 79.71C662.788 79.71 654.188 84.9885 654.188 91.5C654.188 98.0114 662.788 103.29 673.398 103.29Z" fill="#FFFFFD"/>
<path d="M663.082 94.9401C664.275 94.9401 665.242 93.973 665.242 92.7801C665.242 91.5872 664.275 90.6201 663.082 90.6201C661.889 90.6201 660.922 91.5872 660.922 92.7801C660.922 93.973 661.889 94.9401 663.082 94.9401Z" fill="black"/>
<path d="M726.493 59.89C726.043 58.56 730.343 42.26 711.083 30.56C691.823 18.86 680.713 15.74 680.713 15.74C680.713 15.74 693.713 30.85 693.893 31.3C694.073 31.75 664.893 24.63 658.893 28.48C652.893 32.33 652.373 33.48 652.373 33.48C652.373 33.48 673.503 37.38 669.373 36C668.373 35.65 655.153 37.63 653.813 52.15C652.473 66.67 654.553 77.04 650.553 85.15C646.553 93.26 643.153 97.55 641.813 98.61C640.473 99.67 650.113 100.86 658.113 94.49C666.113 88.12 674.413 76.71 680.333 70.34C686.253 63.97 703.593 61.75 706.413 62.34C706.413 62.34 698.113 70.19 698.413 75.52C698.413 75.52 705.813 71.08 709.813 72.26C709.813 72.26 706.553 73.26 704.923 80.56C703.293 87.86 707.443 88.96 701.663 98.61C695.883 108.26 694.553 110.34 694.553 110.34C694.553 110.34 702.553 110.78 707.293 106.49C712.033 102.2 712.483 108.86 717.073 108.86C721.663 108.86 728.483 106.15 733.813 98.61C739.143 91.07 745.223 93.75 742.813 81.75C740.403 69.75 741.033 65.31 734.963 63.01C728.893 60.71 726.493 59.89 726.493 59.89Z" fill="#612668"/>
<path d="M729.453 53.08C731.373 47.59 739.523 26.26 760.263 24.63C781.003 23 789.153 20.93 798.783 27.15C808.413 33.37 808.713 40.48 808.713 40.48C808.713 40.48 797.603 36.48 796.263 36.63C794.923 36.78 805.743 43.63 807.263 52.04C808.783 60.45 812.593 69.67 808.743 80.78C804.893 91.89 797.483 106.56 793.333 115.15C789.183 123.74 786.663 144.48 793.333 152.63C800.003 160.78 810.663 168.93 814.223 169.96L817.773 170.96C817.773 170.96 814.223 174.52 804.443 174.22C794.663 173.92 782.813 171.11 781.633 170.52C780.453 169.93 772.143 172.89 765.483 166.96C758.823 161.03 749.183 151.96 749.033 141.63C748.883 131.3 748.593 121.78 752.443 112.44C756.293 103.1 757.923 101.04 760.443 89.78C762.963 78.52 767.853 63.11 758.523 59.85C749.193 56.59 736.443 59.11 734.523 59.41C732.603 59.71 729.453 53.08 729.453 53.08Z" fill="#612668"/>
<path d="M671.49 148.41C667.97 149.22 660.6 148.7 657.82 150.72C655.04 152.74 649.04 159.85 647.6 164.72C646.16 169.59 643.82 177.39 642.71 180.28C641.6 183.17 638.26 212.5 636.93 219.72C635.6 226.94 633.93 255.39 630.37 260.39C626.81 265.39 643 267.3 644 267.52C645 267.74 649.78 256.3 652 242.96C653.408 234.276 652.447 225.374 649.22 217.19C648.33 214.63 658.03 155.64 663.67 152.19C669.31 148.74 671.49 148.41 671.49 148.41Z" fill="#F5B182"/>
<path d="M665.492 147.19C668.492 146.82 668.822 148.41 668.822 148.41C668.822 148.41 663.822 155.52 662.932 158.19C662.042 160.86 658.932 164.96 659.042 171.08C659.152 177.2 658.712 181.74 664.602 183.3C670.492 184.86 675.152 183.08 679.372 177.52C683.592 171.96 689.492 164.08 693.602 157.52C697.712 150.96 701.042 147.41 702.262 147.13C703.482 146.85 708.712 147.85 709.042 148.41C709.372 148.97 706.712 151.74 705.492 154.08C704.272 156.42 700.372 161.74 699.602 168.3C698.832 174.86 697.152 185.74 698.262 191.19C699.372 196.64 701.932 203.3 707.492 203.96C713.052 204.62 716.392 199.53 716.392 199.53C716.392 199.53 703.822 220.53 702.392 221.96C700.962 223.39 689.622 259.52 689.282 260.63C688.942 261.74 684.372 264 678.002 263.85C671.632 263.7 664.112 263.52 658.332 261.3C654.452 259.719 650.762 257.706 647.332 255.3C647.332 255.3 651.942 232.3 650.642 227.08C649.342 221.86 647.222 217.85 647.332 216.08C647.332 216.08 645.002 215.52 639.892 206.96C634.782 198.4 632.782 194.3 636.332 188.41C639.882 182.52 651.672 171.41 652.782 168.85C653.892 166.29 665.492 147.19 665.492 147.19Z" fill="#E6E6E6"/>
<path d="M610.602 289.52C610.602 287.63 615.602 277.63 619.602 273.08C623.602 268.53 625.932 262.41 632.492 261.96C639.052 261.51 643.042 263.96 644.372 266.08C645.702 268.2 638.712 290.52 636.712 294.3C634.712 298.08 632.042 301.1 630.712 301.37C629.382 301.64 610.602 289.52 610.602 289.52Z" fill="#5F8E84"/>
<path d="M647.998 252.3C641.998 259.96 640.648 269.43 637.758 281.64C634.868 293.85 632.198 316.64 633.088 322.1H725.758C725.758 322.1 727.418 263.41 727.088 260.74C726.758 258.07 647.998 252.3 647.998 252.3Z" fill="#131313"/>
<path d="M589 320.48C588.8 316.63 595.67 304.85 599.82 300.33C603.97 295.81 609.3 288.48 614.34 288.56C619.38 288.64 627.23 293.45 628.19 297.74C629.225 302.007 629.01 306.482 627.57 310.63C626.04 315.15 625.23 315.63 625.23 319.63C625.23 323.63 620.71 326.37 619.45 323.41C618.19 320.45 619.74 314.17 616.26 316.67C612.78 319.17 604.42 328.04 595.82 326.23C590.6 325.09 589.3 326 589 320.48Z" fill="#F5B182"/>
<path d="M656.93 296.74C664.71 302.85 668.26 303.85 669.82 303.96C671.38 304.07 671.49 305.08 671.49 305.08" stroke="black" stroke-width="0.59" stroke-miterlimit="10" stroke-linecap="round"/>
<path d="M670.602 298.85C670.602 298.85 672.492 311.3 673.712 315.74C674.25 317.898 674.917 320.022 675.712 322.1" stroke="black" stroke-width="0.59" stroke-miterlimit="10" stroke-linecap="round"/>
<path d="M708.779 276.899C707.549 280.035 710.969 284.476 711.166 286.666C711.363 288.855 706.528 288.855 706.454 290.627C706.381 292.398 709.394 292.952 713.22 294.12C717.046 295.289 717.316 300.468 719.986 300.886C722.655 301.304 730.171 300.812 731.463 297.196C732.498 293.44 733.162 289.592 733.443 285.706C733.443 285.362 728.732 285.706 728.732 285.706C728.732 285.706 727.637 293.505 725.927 293.567C724.217 293.628 720.195 283.381 718.891 282.016C717.587 280.651 708.779 276.899 708.779 276.899Z" fill="#E58525"/>
<path d="M711.303 290.085C712.151 289.581 712.533 290.491 712.533 289.47C712.533 288.449 711.918 287.01 712.877 286.899C713.837 286.789 714.181 286.592 715.51 287.994C716.838 289.397 718.376 291.623 719.2 292.066C718.396 292.476 717.483 292.618 716.592 292.472C715.362 292.164 713.049 292.337 711.979 291.451C710.909 290.565 710.884 290.319 711.303 290.085Z" fill="#CB7825"/>
<path d="M655.002 166.68C657.548 165.228 657.917 164.859 662.468 165.044C667.02 165.228 672.678 168.328 676 172.88C679.321 177.431 687.477 191.836 691.844 200.939C696.211 210.042 696.764 213.154 697.994 213.338C699.224 213.523 712.571 208.602 726.422 212.244C740.274 215.885 766.524 227.19 776.857 230.105C787.19 233.02 784.152 234.3 794.35 233.389C804.547 232.479 810.341 230.831 809.837 232.467C809.332 234.103 806.146 236.661 808.016 237.572C809.886 238.482 814.401 238.125 810.759 240.672C807.118 243.218 793.808 250.697 791.077 255.802C788.347 260.907 783.783 272.015 773.573 277.846C763.363 283.677 737.493 293.518 730.519 291.882C723.544 290.245 719.448 286.777 713.211 282.41C706.974 278.043 693.16 268.878 685.865 261.264C678.571 253.649 675.778 256.577 673.109 240.672C673.109 240.672 668.189 229.195 670.366 210.608C672.543 192.02 662.173 187.457 659.295 186.362C656.416 185.267 652 184 651.631 180.9C651.262 177.8 655.002 166.68 655.002 166.68Z" fill="white"/>
<path d="M636.413 169.878C637.077 168.98 641.518 169.19 645.11 168.328C648.702 167.467 650.03 165.868 653.044 165.77C656.058 165.671 657.325 167 657.054 168.87C656.784 170.739 655.32 172.929 654.41 175.205C653.499 177.481 654.311 179.572 652.724 180.027C651.138 180.482 648.259 179.756 645.43 178.169C642.999 176.709 640.684 175.064 638.504 173.249C635.859 171.195 635.589 170.961 636.413 169.878Z" fill="#F6921E"/>
<path d="M715.142 216.979C726.619 216.623 738.834 218.628 749.942 225.184C761.05 231.741 758.553 231.741 764.162 237.756C769.771 243.771 771.272 245.223 774.729 250.143C778.185 255.064 775.454 258.348 771.272 259.443C767.09 260.538 757.605 263.822 750.126 262.728C742.647 261.633 737.924 257.069 730.629 256.712C723.334 256.356 715.142 256.159 712.411 253.428C709.68 250.697 702.385 245.408 701.106 239.392C699.827 233.377 701.106 224.459 706.211 220.94C708.883 219.019 711.924 217.67 715.142 216.979Z" fill="#F1F1F1"/>
<path d="M736.003 236.895C736.408 236.551 740.554 240.18 745.93 238.261C751.305 236.342 751.133 235.53 754.134 235.714C757.136 235.899 762.745 239.626 763.065 239.995C763.385 240.364 760.334 239.724 757.234 239.171C754.163 238.387 750.916 238.677 748.033 239.995C743.924 241.631 743.925 244.005 739.644 241.902C735.363 239.798 735.597 237.19 736.003 236.895Z" fill="white"/>
<path d="M750.849 245.961C751.465 245.961 758.513 251.521 763.79 252.604C769.067 253.686 771.269 254.437 771.171 254.793C771.073 255.15 763.065 256.024 759.153 254.154C755.241 252.284 751.489 250.882 750.849 248.692C750.21 246.502 750.234 245.961 750.849 245.961Z" fill="white"/>
<path d="M756.755 242.037C757.075 241.951 760.446 245.961 765.501 247.327C770.557 248.692 771.652 248.778 771.16 249.332C770.156 249.898 769.041 250.239 767.892 250.333C766.743 250.426 765.587 250.269 764.505 249.873C761.59 248.778 757.936 247.868 757.21 245.961C756.485 244.054 756.46 242.135 756.755 242.037Z" fill="white"/>
<path d="M786.391 239.159C789.86 239.491 793.132 239.675 796.33 237.486C799.528 235.296 801.25 234.472 801.521 234.927C801.792 235.382 801.89 238.101 798.79 239.159C795.69 240.217 793.415 241.041 790.856 241.041C789.193 240.956 787.613 240.29 786.391 239.159Z" fill="white"/>
<path d="M663.256 172.265C663.915 172.265 664.449 171.73 664.449 171.071C664.449 170.412 663.915 169.878 663.256 169.878C662.597 169.878 662.062 170.412 662.062 171.071C662.062 171.73 662.597 172.265 663.256 172.265Z" fill="black"/>
<path d="M720.837 285.706C722.953 291.377 723.162 297.528 722.129 297.872C721.095 298.217 711.328 297.257 707.441 298.758C703.554 300.259 700.06 301.562 702.041 302.387C704.021 303.211 707.502 300.812 706.826 303.272C706.149 305.733 705.596 307.848 708.253 307.098C710.91 306.348 710.996 306.483 712.558 307.984C714.121 309.484 712.706 310.924 716.532 308.943C720.357 306.963 724.454 304.773 726.09 301.907C727.726 299.041 727.467 290.565 726.988 288.105C726.508 285.645 720.837 285.706 720.837 285.706Z" fill="#F6921E"/>
<path d="M713.788 299.41C711.783 299.582 708.868 299.065 708.019 299.816C707.17 300.566 710.381 300.369 709.692 301.046C709.003 301.723 708.56 302.744 710.098 302.165C711.462 301.441 712.706 300.512 713.788 299.41Z" fill="#CB7825"/>
<path d="M716.73 301.969C715.635 302.584 711.268 303.272 711.305 304.158C711.342 305.044 713.15 303.986 713.765 305.191C714.38 306.397 715.45 307.406 715.893 306.52C716.313 305.032 716.593 303.508 716.73 301.969Z" fill="#CB7825"/>
<path d="M661.545 170.826C661.496 171.222 661.578 171.624 661.779 171.97C661.992 172.322 662.322 172.589 662.712 172.722C663.102 172.854 663.526 172.845 663.91 172.695C664.294 172.546 664.612 172.265 664.809 171.903C665.006 171.542 665.069 171.122 664.987 170.718C664.904 170.315 664.682 169.953 664.359 169.698C664.036 169.442 663.633 169.309 663.221 169.322C662.809 169.335 662.415 169.493 662.109 169.768C661.802 170.043 661.603 170.418 661.545 170.826Z" fill="black"/>
<path d="M661.777 171.97L660.067 170.247C660.038 170.217 660.017 170.18 660.007 170.138C659.997 170.097 659.998 170.054 660.011 170.014C660.023 169.973 660.047 169.937 660.078 169.909C660.11 169.881 660.149 169.862 660.19 169.854L662.749 169.411L661.777 171.97Z" fill="black"/>
<path d="M636.413 169.878C636.745 169.423 639.476 172.671 644.126 174.319C648.53 175.869 654.865 174.061 654.41 175.205C653.499 177.48 654.311 179.572 652.724 180.027C651.138 180.482 648.259 179.756 645.43 178.169C642.999 176.709 640.684 175.064 638.504 173.249C635.859 171.194 635.589 170.961 636.413 169.878Z" fill="#CB7825"/>
<path d="M711.603 205.47C705.603 209.69 694.443 200.17 693.823 194.19C692.933 185.59 704.273 148.82 707.973 148.33C711.673 147.84 717.823 149.74 721.603 153.74C725.383 157.74 743.153 180.63 749.153 185.74C755.153 190.85 774.933 204.41 777.603 215.08C780.273 225.75 780.493 239.74 780.493 249.74C780.493 259.74 781.153 279.3 778.493 283.74C775.833 288.18 772.043 296.41 766.493 298.19C760.943 299.97 756.713 301.74 754.713 301.3C754.212 301.247 753.73 301.079 753.305 300.808C752.88 300.537 752.523 300.172 752.263 299.74C750.658 300.141 748.978 300.141 747.373 299.74C746.624 299.579 745.92 299.258 745.307 298.799C744.694 298.339 744.188 297.753 743.823 297.08C743.823 297.08 738.933 296.19 738.713 294.63C738.493 293.07 744.493 290.85 747.603 289.08C750.713 287.31 753.603 282.19 753.603 281.08C751.534 281.417 749.411 281.021 747.603 279.96C744.713 278.19 742.493 275.52 743.823 274.63C745.153 273.74 750.713 276.85 752.713 274.63C754.713 272.41 756.043 269.52 759.603 269.08L763.153 268.63C763.153 268.63 749.603 221.63 749.453 220.33C749.453 220.33 729.303 207.74 723.373 202.11C717.443 196.48 716.933 196.04 716.933 196.04C716.933 196.04 717.603 201.27 711.603 205.47Z" fill="#F5B182"/>
<path d="M618.259 285.96C619.197 285.96 619.959 285.199 619.959 284.26C619.959 283.321 619.197 282.56 618.259 282.56C617.32 282.56 616.559 283.321 616.559 284.26C616.559 285.199 617.32 285.96 618.259 285.96Z" fill="#102B3C"/>
<path d="M624.259 288.9C625.197 288.9 625.959 288.139 625.959 287.2C625.959 286.261 625.197 285.5 624.259 285.5C623.32 285.5 622.559 286.261 622.559 287.2C622.559 288.139 623.32 288.9 624.259 288.9Z" fill="#102B3C"/>
<path d="M630.632 267.361L623.01 277.079C621.926 278.461 622.167 280.459 623.549 281.543C624.931 282.627 626.93 282.386 628.014 281.004L635.636 271.287C636.72 269.905 636.478 267.906 635.096 266.822C633.714 265.738 631.716 265.979 630.632 267.361Z" fill="#102B3C"/>
<path d="M686.34 107.73C690.34 107.56 696.05 118.26 695 125.67C693.56 135.92 667.37 145.16 660.18 140.49C658.06 139.11 658.12 136.31 655.18 136.08C650.36 135.7 645.18 133.54 642.67 132.79C633.04 129.9 636.67 128.04 639.33 124.93C640.61 123.45 643.42 121.19 646.7 117.7C652.52 111.53 649.58 105.5 651.02 104.7C653.74 103.28 654.63 109.08 686.34 107.73Z" fill="#F6921E" stroke="#E58423" stroke-width="0.5" stroke-miterlimit="10"/>
<path d="M664.82 113.38C664.17 113.53 664.4 114.19 664.82 114.14C665.24 114.09 665.54 113.2 664.82 113.38Z" fill="black" stroke="black" stroke-width="0.59" stroke-miterlimit="10" stroke-linecap="round"/>
<path d="M667.622 113.2C668.272 113.05 668.362 113.74 667.962 113.88C667.562 114.02 666.892 113.37 667.622 113.2Z" fill="black" stroke="black" stroke-width="0.59" stroke-miterlimit="10" stroke-linecap="round"/>
<path d="M657.242 136.73C657.242 136.73 670.782 138.19 677.072 132.56" stroke="#E58423" stroke-width="0.5" stroke-miterlimit="10" stroke-linecap="round"/>
</g>
<defs>
<clipPath id="clip0_1018_658">
<rect width="1302" height="315" fill="white"/>
</clipPath>
</defs>
</svg>
