<svg width="1121" height="315" viewBox="0 0 1121 315" fill="none" xmlns="http://www.w3.org/2000/svg">
<g clip-path="url(#clip0_1018_670)">
<g clip-path="url(#clip1_1018_670)">
<path d="M943.127 120.63C943.127 120.63 961.997 119.24 963.387 120C964.777 120.76 958.017 127.57 958.017 127.57L955.807 129.84L963.577 132.06L959.777 133.88L956.497 135.27L961.167 137.54L953.857 139.65L962.177 143.59L954.987 145.46L957.637 148.38L950.827 149.14L958.517 155.07L950.317 155.7L954.227 159.99L949.517 160.75L955.117 164.91L948.557 166.8L950.827 170.46H946.287L951.837 176.46L943.257 175.58L943.997 179H940.207L944.607 185.52C944.607 185.52 938.987 187.05 936.087 185.85C933.187 184.65 926.457 181.39 926.457 181.39L943.127 120.63Z" fill="#75C4FD"/>
<path d="M894.568 131.61C903.018 126.31 904.788 120.26 919.288 119.12C933.788 117.98 948.938 119.12 949.438 120.26C949.938 121.4 948.128 141.59 943.258 157.09C939.098 170.33 931.318 183.65 931.318 183.65C931.318 183.65 899.618 176.39 891.418 155.07L894.568 131.61Z" fill="#D5D0A6"/>
<path d="M401.879 140.13C403.879 136.13 491.689 92.6302 540.129 86.0702C588.569 79.5102 624.889 74.0002 655.669 76.0002C686.449 78.0002 894.819 114.35 896.839 115.36C898.859 116.37 895.839 167.83 887.259 173.88C878.679 179.93 754.059 202.64 718.259 204.16C682.459 205.68 580.019 206.68 556.259 199.62C556.259 199.62 512.589 195.62 494.709 164.3C492.709 160.77 477.709 152.1 457.879 151.68C433.669 151.16 401.879 140.13 401.879 140.13Z" fill="#A9F5B4"/>
<path d="M401.879 140.13C402.879 138.13 546.229 164.19 669.799 172.5C790.459 180.62 891.489 170.87 887.259 173.86C878.679 179.92 754.059 202.62 718.259 204.14C682.459 205.66 580.019 206.66 556.259 199.6C556.259 199.6 512.589 195.6 494.709 164.28C492.709 160.75 477.709 152.08 457.879 151.66C433.669 151.16 401.879 140.13 401.879 140.13Z" fill="#9DE0A3"/>
<path d="M401.879 140.13C401.879 140.13 893.319 138.57 896.349 139.65C899.379 140.73 898.349 145.6 896.349 146.9C894.349 148.2 409.459 145.76 407.949 145.11C406.439 144.46 401.879 140.13 401.879 140.13Z" fill="#702829"/>
<path d="M742.27 88.62C742.27 88.62 847.9 32.09 865.06 30.62C882.22 29.15 1107.74 20 1107.74 20C1107.74 20 937.739 60.87 922.069 72.47C906.399 84.07 893.31 118.38 893.31 118.38L742.27 88.62Z" fill="#208871"/>
<path d="M725.89 97.1699H711.76C710.6 97.1699 709.66 98.1101 709.66 99.2699V116.26C709.66 117.42 710.6 118.36 711.76 118.36H725.89C727.05 118.36 727.99 117.42 727.99 116.26V99.2699C727.99 98.1101 727.05 97.1699 725.89 97.1699Z" fill="#D5D0A6"/>
<path d="M709.66 125.34C709.66 124.783 709.881 124.249 710.275 123.855C710.669 123.461 711.203 123.24 711.76 123.24H725.89C726.447 123.24 726.981 123.461 727.375 123.855C727.769 124.249 727.99 124.783 727.99 125.34" stroke="black" stroke-width="2.27" stroke-miterlimit="10"/>
<path d="M844.399 108.78H769.149C766.012 108.78 763.469 111.323 763.469 114.46V125.6C763.469 128.737 766.012 131.28 769.149 131.28H844.399C847.536 131.28 850.079 128.737 850.079 125.6V114.46C850.079 111.323 847.536 108.78 844.399 108.78Z" fill="#D5D0A6"/>
<path d="M770.528 110.86C771.086 110.873 771.616 111.107 772.002 111.51C772.388 111.913 772.599 112.452 772.588 113.01L772.308 127.13C772.303 127.406 772.243 127.678 772.133 127.931C772.023 128.184 771.863 128.412 771.665 128.603C771.466 128.795 771.232 128.945 770.975 129.046C770.718 129.146 770.444 129.195 770.168 129.19" stroke="black" stroke-width="2.27" stroke-miterlimit="10"/>
<path d="M779.69 110.86C780.248 110.873 780.778 111.107 781.164 111.51C781.55 111.913 781.761 112.452 781.75 113.01L781.48 127.13C781.475 127.406 781.415 127.678 781.305 127.931C781.194 128.184 781.035 128.412 780.837 128.603C780.638 128.795 780.403 128.945 780.147 129.046C779.89 129.146 779.616 129.195 779.34 129.19" stroke="black" stroke-width="2.27" stroke-miterlimit="10"/>
<path d="M787.848 110.12C788.405 110.136 788.934 110.37 789.319 110.773C789.705 111.175 789.916 111.713 789.908 112.27L789.638 126.39C789.625 126.948 789.392 127.478 788.989 127.864C788.586 128.25 788.046 128.461 787.488 128.45" stroke="black" stroke-width="2.27" stroke-miterlimit="10"/>
<path d="M797.428 110.12C797.987 110.133 798.518 110.367 798.906 110.769C799.293 111.172 799.506 111.711 799.498 112.27L799.218 126.39C799.214 126.666 799.156 126.939 799.046 127.192C798.936 127.446 798.777 127.675 798.578 127.866C798.379 128.058 798.144 128.208 797.886 128.308C797.629 128.409 797.354 128.457 797.078 128.45" stroke="black" stroke-width="2.27" stroke-miterlimit="10"/>
<path d="M807.137 110.86C807.693 110.873 808.222 111.105 808.608 111.506C808.993 111.907 809.205 112.444 809.197 113L808.917 127.12C808.912 127.396 808.853 127.668 808.742 127.921C808.632 128.174 808.473 128.402 808.274 128.593C808.075 128.785 807.841 128.935 807.584 129.036C807.327 129.136 807.053 129.185 806.777 129.18" stroke="black" stroke-width="2.27" stroke-miterlimit="10"/>
<path d="M816.1 110.86C816.377 110.865 816.65 110.925 816.903 111.036C817.156 111.147 817.385 111.307 817.577 111.507C817.768 111.707 817.918 111.942 818.018 112.2C818.119 112.458 818.167 112.733 818.16 113.01L817.89 127.13C817.885 127.406 817.825 127.678 817.715 127.931C817.605 128.184 817.445 128.412 817.247 128.603C817.048 128.795 816.814 128.945 816.557 129.046C816.3 129.146 816.026 129.195 815.75 129.19" stroke="black" stroke-width="2.27" stroke-miterlimit="10"/>
<path d="M825.27 110.86C825.828 110.873 826.358 111.107 826.744 111.51C827.13 111.913 827.341 112.452 827.33 113.01L827.06 127.13C827.044 127.687 826.81 128.216 826.408 128.601C826.005 128.987 825.467 129.198 824.91 129.19" stroke="black" stroke-width="2.27" stroke-miterlimit="10"/>
<path d="M833.93 111.39C834.206 111.395 834.478 111.455 834.731 111.565C834.984 111.676 835.212 111.835 835.404 112.033C835.595 112.232 835.745 112.467 835.846 112.723C835.947 112.98 835.996 113.254 835.99 113.53L835.72 127.65C835.715 127.927 835.655 128.2 835.544 128.453C835.433 128.707 835.273 128.936 835.074 129.127C834.874 129.318 834.638 129.469 834.38 129.569C834.122 129.669 833.847 129.717 833.57 129.71" stroke="black" stroke-width="2.27" stroke-miterlimit="10"/>
<path d="M841.159 111.89C841.436 111.894 841.708 111.953 841.962 112.063C842.215 112.172 842.444 112.331 842.636 112.53C842.827 112.729 842.978 112.964 843.078 113.222C843.178 113.479 843.226 113.754 843.219 114.03L842.999 128.16C842.994 128.436 842.935 128.708 842.824 128.961C842.714 129.214 842.555 129.442 842.356 129.633C842.157 129.825 841.923 129.975 841.666 130.076C841.409 130.176 841.135 130.225 840.859 130.22" stroke="black" stroke-width="2.27" stroke-miterlimit="10"/>
<path d="M709.66 129.88C709.66 129.323 709.881 128.789 710.275 128.395C710.669 128.001 711.203 127.78 711.76 127.78H725.89C726.447 127.78 726.981 128.001 727.375 128.395C727.769 128.789 727.99 129.323 727.99 129.88" stroke="black" stroke-width="2.27" stroke-miterlimit="10"/>
<path d="M709.66 134.43C709.659 134.153 709.712 133.879 709.817 133.623C709.922 133.367 710.077 133.135 710.272 132.939C710.467 132.743 710.699 132.587 710.954 132.481C711.21 132.375 711.484 132.32 711.76 132.32H725.89C726.167 132.32 726.441 132.375 726.696 132.481C726.952 132.587 727.184 132.743 727.379 132.939C727.574 133.135 727.728 133.367 727.833 133.623C727.938 133.879 727.992 134.153 727.99 134.43" stroke="black" stroke-width="2.27" stroke-miterlimit="10"/>
<path d="M709.66 154.86C709.66 154.303 709.881 153.769 710.275 153.375C710.669 152.982 711.203 152.76 711.76 152.76H725.89C726.447 152.76 726.981 152.982 727.375 153.375C727.769 153.769 727.99 154.303 727.99 154.86" stroke="black" stroke-width="2.27" stroke-miterlimit="10"/>
<path d="M709.66 159.4C709.66 158.843 709.881 158.309 710.275 157.915C710.669 157.521 711.203 157.3 711.76 157.3H725.89C726.447 157.3 726.981 157.521 727.375 157.915C727.769 158.309 727.99 158.843 727.99 159.4" stroke="black" stroke-width="2.27" stroke-miterlimit="10"/>
<path d="M709.66 163.94C709.66 163.383 709.881 162.849 710.275 162.455C710.669 162.061 711.203 161.84 711.76 161.84H725.89C726.447 161.84 726.981 162.061 727.375 162.455C727.769 162.849 727.99 163.383 727.99 163.94" stroke="black" stroke-width="2.27" stroke-miterlimit="10"/>
<path d="M504.728 112.48C507.887 112.48 510.448 110.183 510.448 107.35C510.448 104.517 507.887 102.22 504.728 102.22C501.569 102.22 499.008 104.517 499.008 107.35C499.008 110.183 501.569 112.48 504.728 112.48Z" fill="#000A03"/>
<path d="M504.728 110.46C506.644 110.46 508.198 109.068 508.198 107.35C508.198 105.633 506.644 104.24 504.728 104.24C502.811 104.24 501.258 105.633 501.258 107.35C501.258 109.068 502.811 110.46 504.728 110.46Z" fill="#9EC7DB"/>
<path d="M542.648 110.76C545.901 110.76 548.538 108.463 548.538 105.63C548.538 102.797 545.901 100.5 542.648 100.5C539.395 100.5 536.758 102.797 536.758 105.63C536.758 108.463 539.395 110.76 542.648 110.76Z" fill="#000A03"/>
<path d="M542.648 108.74C544.62 108.74 546.218 107.348 546.218 105.63C546.218 103.912 544.62 102.52 542.648 102.52C540.676 102.52 539.078 103.912 539.078 105.63C539.078 107.348 540.676 108.74 542.648 108.74Z" fill="#9EC7DB"/>
<path d="M590.328 108.74C593.58 108.74 596.217 106.443 596.217 103.61C596.217 100.777 593.58 98.48 590.328 98.48C587.075 98.48 584.438 100.777 584.438 103.61C584.438 106.443 587.075 108.74 590.328 108.74Z" fill="#000A03"/>
<path d="M831.76 204.77L875.34 216.5L874.7 219.84L824.82 215.74L831.76 204.77Z" fill="#307A65"/>
<path d="M875.78 215.3L889.78 221.04L875.34 221.8L875.78 215.3Z" fill="#702829"/>
<path d="M876.872 214.341C877.012 213.374 876.344 212.476 875.379 212.336C874.415 212.196 873.519 212.866 873.378 213.834L872.177 222.097C872.037 223.064 872.705 223.962 873.669 224.102C874.634 224.242 875.53 223.572 875.67 222.605L876.872 214.341Z" fill="white"/>
<path d="M603.069 69.0001C602.879 68.9401 576.459 62.0001 575.569 61.3101C574.679 60.6201 572.919 58.3101 571.729 58.7801C570.539 59.2501 568.569 63.7801 569.199 64.5201C569.829 65.2601 574.439 64.7101 575.129 65.0901C575.819 65.4701 600.859 71.5201 600.859 71.5201L603.069 69.0001Z" fill="#B8B8B8"/>
<path d="M620.668 75.1601C626.555 75.1601 631.328 70.3874 631.328 64.5001C631.328 58.6127 626.555 53.8401 620.668 53.8401C614.78 53.8401 610.008 58.6127 610.008 64.5001C610.008 70.3874 614.78 75.1601 620.668 75.1601Z" fill="#9EC7DB"/>
<path d="M590.328 106.72C592.299 106.72 593.898 105.328 593.898 103.61C593.898 101.892 592.299 100.5 590.328 100.5C588.356 100.5 586.758 101.892 586.758 103.61C586.758 105.328 588.356 106.72 590.328 106.72Z" fill="#9EC7DB"/>
<path d="M652.937 109.42C656.616 109.42 659.597 106.819 659.597 103.61C659.597 100.401 656.616 97.8 652.937 97.8C649.259 97.8 646.277 100.401 646.277 103.61C646.277 106.819 649.259 109.42 652.937 109.42Z" fill="#000A03"/>
<path d="M652.938 107.13C655.17 107.13 656.978 105.554 656.978 103.61C656.978 101.666 655.17 100.09 652.938 100.09C650.707 100.09 648.898 101.666 648.898 103.61C648.898 105.554 650.707 107.13 652.938 107.13Z" fill="#9EC7DB"/>
<path d="M718.298 107.88C720.529 107.88 722.338 106.304 722.338 104.36C722.338 102.416 720.529 100.84 718.298 100.84C716.067 100.84 714.258 102.416 714.258 104.36C714.258 106.304 716.067 107.88 718.298 107.88Z" fill="#000A03"/>
<path d="M718.298 106.5C719.651 106.5 720.748 105.542 720.748 104.36C720.748 103.178 719.651 102.22 718.298 102.22C716.945 102.22 715.848 103.178 715.848 104.36C715.848 105.542 716.945 106.5 718.298 106.5Z" fill="white" stroke="black" stroke-width="0.91" stroke-miterlimit="10"/>
<path d="M871.11 95.29C887.413 95.29 900.63 82.0734 900.63 65.77C900.63 49.4666 887.413 36.25 871.11 36.25C854.806 36.25 841.59 49.4666 841.59 65.77C841.59 82.0734 854.806 95.29 871.11 95.29Z" fill="#D5D0A6"/>
<path d="M590.327 74.0001C590.857 73.6701 640.777 73.0001 645.827 71.8601C645.827 71.8601 651.247 74.3801 649.237 77.5401C647.227 80.7001 592.697 82.5401 589.427 79.5401C589.042 79.1514 588.754 78.677 588.587 78.1558C588.42 77.6345 588.379 77.0812 588.467 76.541C588.555 76.0007 588.769 75.4889 589.092 75.0473C589.416 74.6057 589.839 74.2469 590.327 74.0001V74.0001Z" fill="#000A03"/>
<path d="M632.909 62.1101H608.429C606.794 62.1101 605.469 63.4353 605.469 65.0701V65.0801C605.469 66.7149 606.794 68.0401 608.429 68.0401H632.909C634.544 68.0401 635.869 66.7149 635.869 65.0801V65.0701C635.869 63.4353 634.544 62.1101 632.909 62.1101Z" fill="#338B75"/>
<path d="M605.09 65.6401L592.09 74.4701C592.09 74.4701 645.32 73.4701 645.57 73.0801C645.82 72.6901 635.57 65.6401 635.57 65.6401C635.57 65.6401 614.55 68.2901 605.09 65.6401Z" fill="#307A65"/>
<path d="M730.68 190C730.68 190 722.44 191 718.06 186.3C713.68 181.6 710.83 176.21 712.35 173.01C713.87 169.81 733.35 163.09 741.61 161.83C749.87 160.57 764.82 158.21 781.81 159.39C798.8 160.57 808.88 160.57 824.69 163.93C840.5 167.29 845.69 167.46 856.48 172.34C867.27 177.22 867.24 180.02 865.06 182.18C862.88 184.34 854.63 184.18 854.63 184.18C854.63 184.18 827.89 175.82 817.96 174.59C808.03 173.36 786.51 169.66 773.56 169.66C760.61 169.66 746.99 169.83 737.56 172.35C728.13 174.87 723.77 174.71 724.95 179.58C726.13 184.45 730.68 190 730.68 190Z" fill="#D5D0A6"/>
<path d="M725.799 189C721.429 182.78 718.289 177.56 722.129 174.87C725.969 172.18 764.989 161.59 804.509 168.82C844.029 176.05 862.869 178.82 859.839 183.65C856.809 188.48 831.919 208.34 831.589 213.56C831.259 218.78 828.219 221.63 835.589 223.65C842.959 225.67 906.229 239.65 906.229 239.65L905.049 244.53C905.049 244.53 797.049 240.16 785.309 239.32C773.569 238.48 758.899 237.47 751.499 226.7C744.099 215.93 725.799 189 725.799 189Z" fill="#208871"/>
<path d="M746.738 83.8002C746.738 83.8002 747.868 80.2702 748.878 79.8902C749.888 79.5102 786.468 84.8902 799.208 87.9702C811.948 91.0502 885.508 106.58 891.418 107.77C897.328 108.96 898.988 110.29 898.608 111.68C898.228 113.07 903.978 116.53 891.418 114.23C878.858 111.93 751.658 86.5802 746.738 83.8002Z" fill="#D5D0A6"/>
<path d="M908.227 239.2C908.607 239.2 924.367 243.49 924.367 243.49L907.367 246.14L908.227 239.2Z" fill="#702829"/>
<path d="M1089.64 19.25L1108.06 19.98L1091.1 25.59L1089.64 19.25Z" fill="#702829"/>
<path d="M1090.41 18.0172C1090.26 17.0506 1089.36 16.385 1088.4 16.5304C1087.43 16.6758 1086.77 17.5773 1086.92 18.5439L1088.16 26.8004C1088.31 27.767 1089.21 28.4327 1090.17 28.2873C1091.14 28.1419 1091.8 27.2404 1091.65 26.2738L1090.41 18.0172Z" fill="white"/>
<path d="M909.824 236.668C910.078 235.367 909.231 234.107 907.933 233.854C906.635 233.601 905.376 234.45 905.123 235.751L903.217 245.527C902.964 246.828 903.811 248.088 905.109 248.341C906.407 248.594 907.665 247.745 907.919 246.444L909.824 236.668Z" fill="white"/>
<path d="M764.519 87.08C765.287 87.08 765.909 86.4577 765.909 85.69C765.909 84.9224 765.287 84.3 764.519 84.3C763.751 84.3 763.129 84.9224 763.129 85.69C763.129 86.4577 763.751 87.08 764.519 87.08Z" fill="black"/>
<path d="M717.23 177.57C717.997 177.57 718.62 176.948 718.62 176.18C718.62 175.412 717.997 174.79 717.23 174.79C716.462 174.79 715.84 175.412 715.84 176.18C715.84 176.948 716.462 177.57 717.23 177.57Z" fill="black"/>
<path d="M740.949 167.73C741.716 167.73 742.339 167.108 742.339 166.34C742.339 165.573 741.716 164.95 740.949 164.95C740.181 164.95 739.559 165.573 739.559 166.34C739.559 167.108 740.181 167.73 740.949 167.73Z" fill="black"/>
<path d="M767.3 164.62C768.068 164.62 768.69 163.998 768.69 163.23C768.69 162.462 768.068 161.84 767.3 161.84C766.532 161.84 765.91 162.462 765.91 163.23C765.91 163.998 766.532 164.62 767.3 164.62Z" fill="black"/>
<path d="M804.64 166.34C805.408 166.34 806.03 165.718 806.03 164.95C806.03 164.182 805.408 163.56 804.64 163.56C803.872 163.56 803.25 164.182 803.25 164.95C803.25 165.718 803.872 166.34 804.64 166.34Z" fill="black"/>
<path d="M837.378 172.56C838.146 172.56 838.768 171.938 838.768 171.17C838.768 170.403 838.146 169.78 837.378 169.78C836.611 169.78 835.988 170.403 835.988 171.17C835.988 171.938 836.611 172.56 837.378 172.56Z" fill="black"/>
<path d="M862.269 181.43C863.037 181.43 863.659 180.808 863.659 180.04C863.659 179.272 863.037 178.65 862.269 178.65C861.501 178.65 860.879 179.272 860.879 180.04C860.879 180.808 861.501 181.43 862.269 181.43Z" fill="black"/>
<path d="M788.699 92.0002C789.466 92.0002 790.089 91.3779 790.089 90.6102C790.089 89.8425 789.466 89.2202 788.699 89.2202C787.931 89.2202 787.309 89.8425 787.309 90.6102C787.309 91.3779 787.931 92.0002 788.699 92.0002Z" fill="black"/>
<path d="M813.679 97.1801C814.447 97.1801 815.069 96.5578 815.069 95.7901C815.069 95.0225 814.447 94.4001 813.679 94.4001C812.911 94.4001 812.289 95.0225 812.289 95.7901C812.289 96.5578 812.911 97.1801 813.679 97.1801Z" fill="black"/>
<path d="M849.37 104.24C850.138 104.24 850.76 103.618 850.76 102.85C850.76 102.082 850.138 101.46 849.37 101.46C848.603 101.46 847.98 102.082 847.98 102.85C847.98 103.618 848.603 104.24 849.37 104.24Z" fill="black"/>
<path d="M878.007 110.17C878.775 110.17 879.397 109.548 879.397 108.78C879.397 108.012 878.775 107.39 878.007 107.39C877.24 107.39 876.617 108.012 876.617 108.78C876.617 109.548 877.24 110.17 878.007 110.17Z" fill="black"/>
<path d="M888.598 50.5101C888.61 50.3977 888.662 50.2933 888.745 50.2162C888.827 50.139 888.935 50.0943 889.048 50.0901C889.151 50.0977 889.248 50.1442 889.318 50.2203C889.389 50.2964 889.428 50.3964 889.428 50.5001C889.412 50.6084 889.361 50.7087 889.284 50.7862C889.206 50.8636 889.106 50.9141 888.998 50.9301C888.944 50.9288 888.891 50.9169 888.842 50.8951C888.792 50.8733 888.748 50.842 888.711 50.803C888.674 50.764 888.645 50.718 888.625 50.6678C888.606 50.6175 888.596 50.5639 888.598 50.5101V50.5101Z" fill="#2B58A4"/>
<path d="M887.799 66.9C887.799 66.49 887.729 66.05 887.729 65.65C887.669 65.3112 887.715 64.9621 887.859 64.65C888.029 64.34 888.179 64.02 888.339 63.65C888.588 63.0703 888.691 62.4386 888.639 61.81C888.643 61.4914 888.538 61.181 888.342 60.9301C888.146 60.6792 887.87 60.5028 887.559 60.43C887.162 60.3564 886.762 60.303 886.359 60.27C886.179 60.27 885.949 60.27 885.879 60.05C885.809 59.83 885.969 59.72 886.079 59.62C886.579 59.1 887.079 58.62 887.579 58.08C887.835 57.8422 888.039 57.5544 888.178 57.2344C888.317 56.9143 888.389 56.569 888.389 56.22C888.389 55.13 888.389 54.01 888.389 52.94C888.389 52.19 888.319 51.44 888.249 50.69C888.219 49.9904 888.031 49.3067 887.699 48.69C887.284 48.0091 886.745 47.4121 886.109 46.93C885.497 46.4052 884.704 46.1398 883.899 46.19C882.876 46.2931 881.922 46.7575 881.209 47.5C880.69 48.0617 880.265 48.7033 879.949 49.4C879.869 49.53 879.809 49.67 879.659 49.68C879.589 49.6748 879.521 49.6495 879.464 49.607C879.407 49.5644 879.364 49.5064 879.339 49.44C878.912 48.6873 878.395 47.9889 877.799 47.36C876.866 46.2755 875.736 45.3765 874.469 44.71C873.91 44.3979 873.28 44.2327 872.639 44.23C872.322 44.2331 872.011 44.3163 871.735 44.4719C871.459 44.6275 871.226 44.8504 871.059 45.12C870.787 45.5554 870.639 46.0566 870.629 46.57C870.629 47.32 870.629 48.09 870.559 48.85C870.569 48.9364 870.569 49.0236 870.559 49.11C870.545 49.1423 870.525 49.1713 870.499 49.1954C870.473 49.2195 870.443 49.238 870.409 49.25C870.409 49.25 870.299 49.17 870.269 49.12C869.852 48.0905 869.093 47.236 868.119 46.7C867.572 46.3559 866.936 46.1787 866.289 46.19C865.668 46.2206 865.059 46.3771 864.499 46.65C863.983 46.9061 863.557 47.3144 863.279 47.82C863.119 48.09 862.989 48.39 862.849 48.67C862.849 48.67 862.779 48.76 862.749 48.82C862.691 48.7873 862.64 48.7431 862.599 48.69C862.519 48.58 862.439 48.45 862.359 48.36C861.505 47.3128 860.493 46.4053 859.359 45.67C858.372 45.0251 857.219 44.678 856.039 44.67C855.612 44.6588 855.189 44.7551 854.809 44.95C854.486 45.1418 854.207 45.3994 853.99 45.706C853.773 46.0127 853.623 46.3615 853.549 46.73C853.17 48.2013 853.039 49.7254 853.159 51.24C853.247 52.4395 853.431 53.63 853.709 54.8C853.889 55.54 854.119 56.29 854.319 57.05C854.319 57.05 854.229 57.05 854.199 57.05C853.51 57.1357 852.848 57.3712 852.259 57.74C851.673 58.1028 851.175 58.5917 850.801 59.1712C850.428 59.7507 850.188 60.4062 850.099 61.09C849.929 62.29 849.859 63.5 849.779 64.72C849.714 65.7599 849.735 66.8033 849.839 67.84C849.907 68.4839 850.021 69.1222 850.179 69.75C850.512 70.9052 851.029 71.9992 851.709 72.99C852.142 73.661 852.649 74.2815 853.219 74.84C853.907 75.5407 854.696 76.1341 855.559 76.6C856.133 76.8931 856.776 77.0245 857.419 76.98C858.227 76.876 858.991 76.5546 859.629 76.05C859.879 75.87 859.949 75.87 860.159 76.05C860.641 76.575 861.293 76.9117 861.999 77C863.106 77.0616 864.194 76.7046 865.049 76C865.37 75.7109 865.674 75.4038 865.959 75.08C866.109 74.92 866.239 74.93 866.369 75.08C866.888 75.8147 867.622 76.3703 868.469 76.67C869.129 76.9375 869.857 76.9846 870.545 76.8044C871.234 76.6242 871.846 76.2263 872.289 75.67C872.519 75.39 872.589 75.39 872.889 75.58C873.581 76.0449 874.326 76.4243 875.109 76.71C875.802 76.9518 876.538 77.0472 877.269 76.99C878.187 76.8645 879.054 76.495 879.779 75.92C880.219 75.59 880.119 75.63 880.519 75.92C880.979 76.2808 881.517 76.53 882.09 76.648C882.662 76.766 883.254 76.7496 883.819 76.6C884.525 76.4012 885.169 76.0261 885.689 75.51C886.029 75.2 886.349 74.86 886.689 74.51C887.269 73.921 887.792 73.2781 888.249 72.59C888.613 72.0236 888.823 71.3722 888.859 70.7C888.853 69.8344 888.619 68.9859 888.179 68.24C887.959 67.8256 887.829 67.3687 887.799 66.9V66.9ZM879.799 53.85C879.869 53.24 879.939 52.66 880.029 52.06C880.156 51.1421 880.429 50.2507 880.839 49.42C881.12 48.8133 881.487 48.2507 881.929 47.75C882.085 47.6045 882.256 47.477 882.439 47.37C882.795 47.1238 883.196 46.9505 883.619 46.86C884.19 46.7747 884.773 46.8991 885.259 47.21C885.811 47.5685 886.279 48.0428 886.629 48.6C887.221 49.5548 887.533 50.6566 887.529 51.78C887.529 52.68 887.609 53.56 887.639 54.46C887.65 54.5027 887.65 54.5472 887.639 54.59C887.639 54.59 887.569 55.95 887.499 56.59C887.487 56.7733 887.425 56.9497 887.319 57.1C887.28 57.1612 887.229 57.2139 887.168 57.2551C887.108 57.2963 887.041 57.3252 886.969 57.34C886.489 57.34 885.969 57.34 885.509 57.34C885.254 57.3415 885 57.318 884.749 57.27C884.683 57.2543 884.622 57.2235 884.569 57.18C884.478 57.0832 884.395 56.9796 884.319 56.87V56.79C884.319 56.57 884.319 56.33 884.319 56.11C884.319 55.89 884.319 55.87 884.099 55.85C883.879 55.83 883.679 55.85 883.479 55.85C883.437 55.8428 883.393 55.8448 883.352 55.856C883.31 55.8672 883.271 55.8872 883.238 55.9148C883.205 55.9423 883.178 55.9767 883.159 56.0155C883.14 56.0544 883.13 56.0968 883.129 56.14C883.129 56.33 883.129 56.55 883.059 56.74C882.989 57.26 882.809 57.44 882.289 57.41C881.773 57.388 881.258 57.3312 880.749 57.24C880.548 57.2137 880.361 57.1222 880.217 56.9796C880.072 56.8369 879.978 56.6509 879.949 56.45C879.74 55.6001 879.683 54.7199 879.779 53.85H879.799ZM871.249 50.31C871.249 50.05 871.319 49.79 871.319 49.53C871.311 48.7443 871.358 47.9591 871.459 47.18C871.501 46.7036 871.698 46.2541 872.019 45.9C872.161 45.7513 872.332 45.633 872.521 45.5522C872.71 45.4714 872.914 45.4299 873.119 45.43C873.716 45.4535 874.299 45.618 874.819 45.91C875.898 46.466 876.881 47.1919 877.729 48.06C878.539 48.8816 879.086 49.9261 879.299 51.06C879.398 51.499 879.409 51.9533 879.33 52.3964C879.251 52.8394 879.084 53.2622 878.839 53.64C878.409 54.3333 877.832 54.9238 877.149 55.37L875.569 56.29C875.481 56.33 875.405 56.3946 875.352 56.4762C875.299 56.5577 875.27 56.6527 875.269 56.75C875.26 56.958 875.236 57.1651 875.199 57.37C875.158 57.584 875.041 57.7759 874.869 57.91C874.649 58.0945 874.394 58.2329 874.119 58.317C873.844 58.4012 873.555 58.4294 873.269 58.4C872.777 58.3375 872.312 58.1364 871.929 57.82C871.846 57.7618 871.779 57.6838 871.733 57.5929C871.688 57.5021 871.666 57.4014 871.669 57.3C871.669 57.09 871.599 56.89 871.599 56.66C871.509 55.88 871.429 55.1 871.369 54.33C871.309 53.56 871.279 52.83 871.219 52.1C871.219 51.79 871.219 51.47 871.219 51.16C871.19 50.8772 871.193 50.592 871.229 50.31H871.249ZM862.109 54C862.179 53.37 862.249 52.77 862.369 52.15C862.545 51.1764 862.793 50.2172 863.109 49.28C863.356 48.5686 863.849 47.9691 864.499 47.59C864.915 47.3315 865.371 47.1455 865.849 47.04C866.509 46.933 867.185 47.0718 867.749 47.43C868.474 47.8719 869.062 48.5052 869.449 49.26C869.916 50.0722 870.216 50.97 870.329 51.9C870.459 52.76 870.579 53.64 870.709 54.5C870.709 54.96 870.839 55.45 870.849 55.92C870.846 56.6152 870.803 57.3097 870.719 58C870.619 58.71 870.409 58.74 869.719 58.84C869.268 58.8918 868.814 58.9185 868.359 58.92C868.164 58.9455 867.965 58.9455 867.769 58.92C867.579 58.92 867.339 58.51 867.329 58.31C867.319 58.11 867.329 57.79 867.329 57.54C867.329 57.4984 867.321 57.4573 867.305 57.419C867.289 57.3807 867.265 57.3461 867.235 57.3172C867.205 57.2882 867.17 57.2656 867.131 57.2506C867.092 57.2357 867.051 57.2286 867.009 57.23C866.629 57.23 866.239 57.23 865.859 57.23C865.709 57.23 865.629 57.34 865.609 57.49C865.609 57.8 865.549 58.08 865.529 58.39C865.509 58.7 865.329 59.07 864.859 59.06C864.389 59.05 863.729 59.06 863.159 59.06C862.925 59.0318 862.704 58.9338 862.526 58.7787C862.347 58.6235 862.22 58.4185 862.159 58.19C861.939 57.4775 861.828 56.7358 861.829 55.99C861.999 55.29 861.999 54.62 862.109 54ZM859.509 69.56C859.433 70.3865 859.109 71.1708 858.579 71.81C858.225 72.2692 857.73 72.5994 857.169 72.75C856.441 73.0477 855.654 73.1743 854.869 73.12C854.11 73.1086 853.369 72.8854 852.729 72.4755C852.089 72.0656 851.577 71.4853 851.249 70.8C851.057 70.4534 850.909 70.0838 850.809 69.7C850.672 69.0861 850.569 68.4652 850.499 67.84C850.439 67.29 850.439 66.73 850.399 66.18C850.369 65.6004 850.369 65.0196 850.399 64.44C850.469 63.33 850.519 62.2 850.689 61.09C850.771 60.5218 850.989 59.9819 851.325 59.5168C851.661 59.0516 852.105 58.6752 852.619 58.42C853.107 58.1031 853.655 57.8919 854.229 57.8C854.824 57.6881 855.437 57.7295 856.011 57.9202C856.584 58.1109 857.1 58.4447 857.509 58.89C858.147 59.5553 858.584 60.3872 858.769 61.29C858.769 61.53 858.889 61.75 858.939 61.99C858.989 62.23 858.989 62.31 859.019 62.5C859.049 62.69 858.469 63.07 858.319 63.14C857.886 63.3961 857.377 63.495 856.879 63.42C856.625 63.3835 856.374 63.3267 856.129 63.25C856.04 63.2285 855.957 63.1826 855.892 63.1172C855.827 63.0519 855.781 62.9698 855.759 62.88C855.689 62.55 855.619 62.22 855.549 61.88C855.524 61.7032 855.461 61.5337 855.367 61.3822C855.272 61.2308 855.147 61.1006 854.999 61C854.92 60.9659 854.835 60.9483 854.749 60.9483C854.663 60.9483 854.578 60.9659 854.499 61C854.328 61.0593 854.18 61.1739 854.081 61.326C853.981 61.478 853.935 61.6588 853.949 61.84C853.949 62.4 853.949 62.97 853.879 63.51C853.809 64.05 853.739 64.66 853.719 65.21C853.719 65.91 853.719 66.64 853.719 67.35C853.719 67.71 853.779 68.08 853.829 68.45C853.913 68.8987 854.154 69.3029 854.509 69.59C854.663 69.7241 854.847 69.8187 855.045 69.8656C855.243 69.9125 855.45 69.9102 855.647 69.8589C855.844 69.8076 856.026 69.709 856.176 69.5715C856.326 69.434 856.441 69.2618 856.509 69.07C856.586 68.8268 856.629 68.5746 856.639 68.32C856.639 68.04 856.529 67.91 856.229 67.93H855.919C855.874 67.9386 855.827 67.9374 855.782 67.9266C855.736 67.9158 855.694 67.8955 855.657 67.8672C855.621 67.8389 855.59 67.8031 855.568 67.7622C855.546 67.7214 855.533 67.6763 855.529 67.63C855.419 66.86 855.299 66.07 855.209 65.31C855.2 65.2277 855.207 65.1443 855.23 65.0648C855.253 64.9852 855.292 64.9111 855.344 64.8468C855.396 64.7824 855.461 64.7292 855.534 64.6903C855.607 64.6513 855.687 64.6274 855.769 64.62C856.021 64.5758 856.275 64.5458 856.529 64.53C857.109 64.46 857.709 64.37 858.289 64.28C858.459 64.2287 858.642 64.2447 858.801 64.3248C858.959 64.4048 859.08 64.5428 859.139 64.71C859.391 65.3148 859.543 65.9565 859.589 66.61C859.762 67.5719 859.735 68.5591 859.509 69.51V69.56ZM858.779 55.37C858.509 55.54 858.369 55.55 858.519 56.01C858.547 56.2529 858.519 56.4989 858.439 56.73C858.371 56.9136 858.25 57.0731 858.092 57.1887C857.934 57.3042 857.745 57.3707 857.549 57.38C857.245 57.464 856.934 57.5242 856.619 57.56C856.366 57.5799 856.112 57.5799 855.859 57.56C855.687 57.5279 855.526 57.4509 855.392 57.3368C855.259 57.2227 855.158 57.0755 855.099 56.91C854.742 56.0468 854.526 55.1318 854.459 54.2C854.399 53.31 854.339 52.45 854.309 51.57C854.309 51.21 854.309 50.85 854.309 50.47C854.309 49.47 854.209 48.47 854.179 47.47C854.16 47.0981 854.187 46.7253 854.259 46.36C854.321 46.0672 854.478 45.8033 854.707 45.6096C854.935 45.4159 855.221 45.3035 855.519 45.29C855.629 45.2749 855.74 45.2749 855.849 45.29C856.735 45.3537 857.596 45.6133 858.369 46.05C859.328 46.5526 860.159 47.2674 860.799 48.14C861.353 48.9162 861.698 49.822 861.799 50.77C861.958 51.6797 861.758 52.6155 861.239 53.38C860.926 53.8249 860.537 54.2108 860.089 54.52C859.629 54.79 859.209 55.05 858.779 55.32V55.37ZM866.849 67.96C866.771 68.3571 866.653 68.7456 866.499 69.12C866.263 69.5769 865.982 70.0091 865.659 70.41C865.367 70.7381 865.03 71.0242 864.659 71.26C864.323 71.482 863.932 71.6097 863.529 71.63H863.299C863.294 71.6409 863.291 71.6529 863.291 71.665C863.291 71.6771 863.294 71.6891 863.299 71.7C863.543 71.8137 863.815 71.8486 864.079 71.8C864.799 71.6353 865.442 71.2296 865.899 70.65C865.964 70.5751 866.034 70.5049 866.109 70.44C866.189 70.44 866.169 70.65 866.109 70.73C865.812 71.3309 865.374 71.8512 864.833 72.2464C864.291 72.6417 863.662 72.9002 862.999 73C862.627 73.0524 862.248 72.9932 861.909 72.83C861.385 72.566 860.928 72.1869 860.571 71.721C860.214 71.2552 859.968 70.7147 859.849 70.14C859.796 69.732 859.855 69.317 860.019 68.94C860.189 68.36 860.349 67.78 860.509 67.17C860.619 66.6187 860.619 66.0512 860.509 65.5C860.459 65.15 860.399 64.82 860.379 64.5C860.388 64.1799 860.485 63.8685 860.659 63.6C861.077 62.8504 861.697 62.2335 862.449 61.82C862.58 61.7475 862.718 61.6873 862.859 61.64C863.263 61.5407 863.675 61.4771 864.089 61.45C864.514 61.4192 864.937 61.5319 865.289 61.77C865.48 61.9412 865.648 62.1361 865.789 62.35C866.189 62.9075 866.481 63.535 866.649 64.2C866.731 64.4092 866.801 64.6229 866.859 64.84C866.909 65.01 866.909 65.19 866.949 65.37C867.114 66.2129 867.08 67.0826 866.849 67.91V67.96ZM874.099 67.5C874.009 68.01 873.999 68.5 873.869 69.04C873.716 69.7948 873.348 70.4893 872.809 71.04C872.631 71.2514 872.396 71.4078 872.133 71.4911C871.869 71.5743 871.587 71.5808 871.319 71.51C871.034 71.4038 870.756 71.2768 870.489 71.13C870.58 71.3658 870.745 71.5657 870.959 71.7C871.206 71.8589 871.498 71.935 871.791 71.917C872.084 71.899 872.364 71.7879 872.589 71.6C873.081 71.2241 873.473 70.733 873.729 70.17C873.777 70.0506 873.838 69.9367 873.909 69.83C873.967 69.9269 873.998 70.0373 873.999 70.15C873.88 70.7831 873.578 71.3672 873.129 71.83C872.877 72.1053 872.567 72.3216 872.221 72.4634C871.875 72.6051 871.503 72.6688 871.129 72.65C870.465 72.6192 869.819 72.4233 869.249 72.08C868.534 71.6316 867.986 70.9605 867.689 70.17C867.619 70.02 867.569 69.85 867.509 69.68C867.314 69.1301 867.314 68.5298 867.509 67.98C867.663 67.3613 867.777 66.7333 867.849 66.1C867.883 65.6405 867.771 65.1821 867.529 64.79C867.339 64.43 867.149 64.05 866.949 63.68C866.893 63.5524 866.864 63.4145 866.864 63.275C866.864 63.1355 866.893 62.9975 866.949 62.87C867.361 61.7982 868.161 60.9202 869.189 60.41C869.555 60.2305 869.953 60.1273 870.359 60.1065C870.765 60.0857 871.172 60.1478 871.554 60.2891C871.935 60.4303 872.284 60.6477 872.579 60.9281C872.874 61.2085 873.109 61.546 873.269 61.92C873.734 63.1165 874.03 64.3719 874.149 65.65C874.204 66.2499 874.187 66.8541 874.099 67.45V67.5ZM881.599 71.92C881.274 72.4276 880.818 72.8386 880.279 73.11C879.627 73.4301 878.905 73.5814 878.179 73.55C877.583 73.5493 876.994 73.4152 876.456 73.1573C875.917 72.8995 875.444 72.5246 875.069 72.06C874.808 71.7129 874.68 71.2834 874.709 70.85C874.76 69.9894 874.679 69.1262 874.469 68.29C874.371 67.9256 874.396 67.539 874.539 67.19C874.599 67.0232 874.707 66.878 874.849 66.7729C874.992 66.6678 875.162 66.6076 875.339 66.6C875.904 66.5411 876.472 66.6562 876.969 66.93C877.145 67.0401 877.306 67.1711 877.449 67.32C877.531 67.4366 877.584 67.5704 877.605 67.7109C877.625 67.8514 877.613 67.9949 877.569 68.13C877.449 68.6262 877.449 69.1438 877.569 69.64C877.611 69.7666 877.661 69.8903 877.719 70.01C877.776 70.1345 877.877 70.2338 878.002 70.2891C878.128 70.3443 878.269 70.3518 878.399 70.31C878.554 70.2803 878.697 70.21 878.815 70.1063C878.933 70.0025 879.02 69.8691 879.069 69.72C879.115 69.4821 879.115 69.2379 879.069 69C878.91 68.2349 878.485 67.5509 877.869 67.07C877.339 66.62 876.799 66.17 876.269 65.69C875.409 64.9564 874.841 63.9377 874.669 62.82C874.633 62.1305 874.633 61.4395 874.669 60.75C874.814 59.76 875.23 58.8292 875.869 58.06C876.19 57.7019 876.601 57.4361 877.059 57.29C877.609 57.152 878.173 57.0847 878.739 57.09C879.512 57.1775 880.25 57.4634 880.879 57.92C881.211 58.1883 881.481 58.5242 881.673 58.9053C881.864 59.2864 881.972 59.7039 881.989 60.13C881.989 60.61 882.069 61.13 882.119 61.55C882.169 61.97 882.019 62.55 881.959 63C881.899 63.45 881.779 63.51 881.419 63.55C880.821 63.6601 880.208 63.6601 879.609 63.55C879.319 63.49 879.229 63.4 879.209 63.06C879.209 62.49 879.129 61.93 879.079 61.38C879.096 61.1026 879.019 60.8277 878.859 60.6C878.754 60.4874 878.629 60.3958 878.489 60.33C878.399 60.33 878.219 60.33 878.179 60.4C878.022 60.5635 877.905 60.7624 877.839 60.98C877.698 61.5232 877.717 62.0958 877.895 62.6283C878.072 63.1608 878.4 63.6304 878.839 63.98C879.329 64.38 879.839 64.74 880.309 65.13C880.89 65.632 881.351 66.2572 881.659 66.96C881.941 67.5651 882.129 68.2089 882.219 68.87C882.392 69.9123 882.171 70.9815 881.599 71.87V71.92ZM888.139 71.18C888.083 71.4134 887.957 71.6242 887.779 71.7849C887.6 71.9455 887.377 72.0484 887.139 72.08C886.029 72.2582 884.89 72.1409 883.839 71.74C883.448 71.6163 883.121 71.3432 882.929 70.98C882.929 70.93 882.849 70.85 882.859 70.81C882.866 70.6059 882.882 70.4023 882.909 70.2C883.053 69.5087 883.036 68.7936 882.859 68.11C882.64 67.1685 882.304 66.2581 881.859 65.4C881.82 65.3038 881.806 65.1991 881.818 65.0959C881.83 64.9926 881.868 64.8942 881.929 64.81C882.069 64.59 882.239 64.38 882.389 64.16C882.773 63.669 882.981 63.0632 882.979 62.44C882.931 62.1832 882.985 61.9176 883.129 61.7C883.366 61.4225 883.691 61.2352 884.049 61.17C884.58 61.0476 885.118 60.9575 885.659 60.9C886.047 60.8884 886.436 60.9118 886.819 60.97C887.027 60.9895 887.234 61.0195 887.439 61.06C887.625 61.1059 887.789 61.2146 887.904 61.3677C888.019 61.5208 888.077 61.7088 888.069 61.9C888.069 62.12 888.069 62.35 888.119 62.56C888.169 62.77 888.119 63.06 888.049 63.32C888.043 63.4352 888.014 63.548 887.964 63.6518C887.913 63.7556 887.843 63.8484 887.756 63.9247C887.67 64.001 887.569 64.0594 887.459 64.0963C887.35 64.1333 887.235 64.1481 887.119 64.14C886.63 64.1481 886.142 64.1915 885.659 64.27C885.617 64.271 885.576 64.2809 885.538 64.299C885.5 64.3172 885.466 64.3431 885.439 64.3752C885.411 64.4073 885.391 64.4448 885.379 64.4852C885.367 64.5257 885.364 64.5682 885.369 64.61C885.369 64.97 885.369 65.17 885.849 65.21L886.739 65.33C887.089 65.41 887.179 65.5 887.199 65.86C887.219 66.22 887.199 66.51 887.199 66.86C887.208 67.0229 887.156 67.1833 887.052 67.3093C886.948 67.4353 886.801 67.5176 886.639 67.54L885.789 67.72C885.756 67.7211 885.723 67.7292 885.693 67.7437C885.663 67.7582 885.636 67.7788 885.615 67.8042C885.593 67.8296 885.577 67.8593 885.568 67.8913C885.558 67.9232 885.555 67.9569 885.559 67.99C885.551 68.1516 885.568 68.3136 885.609 68.47C885.609 68.54 885.739 68.66 885.829 68.66C886.279 68.74 886.719 68.81 887.179 68.86C887.381 68.8689 887.574 68.9444 887.727 69.0747C887.881 69.205 887.988 69.3828 888.029 69.58C888.212 70.0758 888.25 70.6133 888.139 71.13V71.18Z" fill="#2B58A4"/>
<path d="M849.429 58C849.23 58.1093 849.07 58.2768 848.969 58.48C848.889 58.6 848.839 58.69 848.899 58.82C848.972 59.0111 849.056 59.198 849.149 59.38C849.223 59.4896 849.266 59.6166 849.275 59.7483C849.284 59.88 849.257 60.0117 849.199 60.13C849.109 60.3 849.039 60.46 848.949 60.64C848.859 60.82 848.859 60.73 848.839 60.72C848.788 60.7222 848.74 60.7426 848.703 60.7776C848.667 60.8125 848.644 60.8595 848.639 60.91C848.604 61.0093 848.594 61.1153 848.607 61.2196C848.621 61.3238 848.66 61.4233 848.719 61.51C848.799 61.62 848.909 61.65 848.989 61.51C849.032 61.3948 849.056 61.2731 849.059 61.15C849.044 60.9797 849.062 60.808 849.114 60.6449C849.165 60.4818 849.249 60.3306 849.359 60.2C849.457 60.0829 849.516 59.9383 849.529 59.7861C849.541 59.6339 849.506 59.4816 849.429 59.35C849.41 59.2915 849.41 59.2285 849.429 59.17C849.509 58.94 849.609 58.73 849.689 58.5C849.73 58.3606 849.747 58.2152 849.739 58.07C849.73 58.0385 849.713 58.01 849.69 57.9874C849.666 57.9648 849.637 57.9491 849.605 57.9419C849.573 57.9347 849.54 57.9363 849.509 57.9466C849.478 57.9568 849.45 57.9753 849.429 58V58Z" fill="#2B58A4"/>
<path d="M889.74 54.35C889.88 54.28 889.87 54.14 889.84 54C889.823 53.9346 889.792 53.8734 889.75 53.82C889.69 53.56 889.621 53.32 889.551 53.05C889.508 52.7451 889.532 52.4348 889.62 52.14C889.69 51.89 889.531 51.73 889.281 51.73C889.214 51.7403 889.151 51.7673 889.097 51.8085C889.044 51.8497 889.002 51.9037 888.975 51.9656C888.948 52.0275 888.937 52.0952 888.943 52.1624C888.949 52.2296 888.973 52.2941 889.011 52.35C889.075 52.4658 889.122 52.5904 889.151 52.72C889.254 53.1044 889.278 53.506 889.22 53.9C889.231 53.9663 889.231 54.0337 889.22 54.1C889.209 54.1635 889.222 54.2292 889.257 54.2833C889.293 54.3373 889.348 54.3756 889.411 54.39C889.522 54.4005 889.635 54.3869 889.74 54.35V54.35Z" fill="#2B58A4"/>
<path d="M889.898 66.4501C889.794 66.3526 889.713 66.2324 889.663 66.0989C889.613 65.9654 889.594 65.8221 889.608 65.6801C889.608 65.5701 889.608 65.4801 889.448 65.4601C889.288 65.4401 889.248 65.5401 889.238 65.6701C889.212 65.8391 889.212 66.011 889.238 66.1801C889.3 66.387 889.374 66.5906 889.458 66.7901C889.458 66.9101 889.538 67.0601 889.698 67.0301C889.858 67.0001 889.948 66.8501 889.988 66.7101C889.992 66.6628 889.987 66.6151 889.971 66.5703C889.956 66.5254 889.931 66.4844 889.898 66.4501V66.4501Z" fill="#2B58A4"/>
<path d="M850.588 57.6899C850.654 57.6899 850.718 57.6636 850.765 57.6167C850.812 57.5698 850.838 57.5062 850.838 57.4399C850.838 57.2699 850.768 57.1999 850.618 57.1899C850.55 57.1841 850.481 57.2047 850.427 57.2474C850.374 57.2902 850.338 57.3519 850.328 57.4199C850.334 57.4878 850.364 57.5515 850.411 57.6005C850.458 57.6496 850.521 57.6811 850.588 57.6899V57.6899Z" fill="#2B58A4"/>
<path d="M865.999 54.75C866.202 54.7648 866.406 54.7648 866.609 54.75C866.929 54.75 866.989 54.63 867.019 54.3C867.024 54.2401 867.024 54.1799 867.019 54.12C867.019 53.73 867.019 53.35 867.079 52.96C867.112 52.6744 867.066 52.3852 866.949 52.1231C866.831 51.8609 866.644 51.6353 866.409 51.47C866.259 51.34 866.129 51.35 865.969 51.47C865.908 51.543 865.864 51.6283 865.839 51.72C865.655 52.3705 865.568 53.0442 865.579 53.72C865.579 53.88 865.579 54.18 865.669 54.48C865.687 54.5551 865.729 54.6222 865.788 54.6711C865.848 54.7199 865.922 54.7476 865.999 54.75Z" fill="#2B58A4"/>
<path d="M873.997 53.7202C874.4 53.9515 874.868 54.0429 875.327 53.9802C875.503 53.983 875.676 53.9436 875.833 53.8653C875.989 53.7869 876.125 53.672 876.227 53.5302C876.268 53.4675 876.289 53.3946 876.289 53.3202C876.289 53.2458 876.268 53.1729 876.227 53.1102C876.183 53.1562 876.132 53.1964 876.077 53.2302C875.906 53.3392 875.725 53.4329 875.538 53.5102C875.095 53.5903 874.639 53.4952 874.266 53.2451C873.893 52.995 873.632 52.6095 873.538 52.1702C873.508 51.9194 873.555 51.6655 873.67 51.4411C873.786 51.2166 873.966 51.0318 874.187 50.9102C874.371 50.7942 874.588 50.7413 874.804 50.7593C875.021 50.7774 875.225 50.8654 875.387 51.0102C875.509 51.0897 875.605 51.203 875.664 51.3362C875.723 51.4693 875.741 51.6166 875.717 51.7602C875.687 51.8905 875.62 52.0093 875.524 52.1031C875.428 52.1969 875.308 52.2618 875.178 52.2902C875.114 52.3173 875.045 52.3271 874.976 52.3187C874.908 52.3103 874.843 52.2839 874.788 52.2423C874.733 52.2006 874.69 52.1452 874.664 52.0816C874.638 52.018 874.628 51.9485 874.637 51.8802C874.685 51.7209 874.749 51.5668 874.827 51.4202C874.827 51.3502 874.828 51.3202 874.898 51.2502C874.968 51.1802 874.747 51.2502 874.697 51.2502C873.977 51.5202 874.217 52.4802 874.697 52.6902C874.914 52.8195 875.171 52.8624 875.418 52.8102C875.572 52.7882 875.721 52.7357 875.855 52.6557C875.99 52.5758 876.107 52.4699 876.2 52.3443C876.293 52.2187 876.36 52.0759 876.397 51.9241C876.435 51.7723 876.442 51.6146 876.418 51.4602C876.354 51.2296 876.239 51.0161 876.082 50.8353C875.925 50.6546 875.73 50.5111 875.51 50.4153C875.291 50.3195 875.053 50.2738 874.814 50.2816C874.575 50.2894 874.34 50.3504 874.127 50.4602C873.885 50.5938 873.671 50.7739 873.497 50.9902C873.323 51.2252 873.207 51.4985 873.16 51.7873C873.113 52.0762 873.136 52.3721 873.227 52.6502C873.177 52.7702 873.197 53.2002 873.997 53.7202Z" fill="#2B58A4"/>
<path d="M870.819 64.7103C870.525 64.643 870.22 64.6509 869.93 64.7331C869.641 64.8153 869.376 64.9691 869.162 65.1805C868.948 65.3918 868.79 65.6538 868.704 65.9421C868.618 66.2305 868.606 66.536 868.669 66.8303C868.778 67.2194 868.994 67.57 869.293 67.8422C869.592 68.1144 869.961 68.2974 870.359 68.3703C870.57 68.4058 870.786 68.3848 870.987 68.3092C871.187 68.2337 871.364 68.1064 871.499 67.9403C871.564 67.8723 871.611 67.7891 871.635 67.6982C871.66 67.6073 871.661 67.5117 871.639 67.4202C871.639 67.4202 871.579 67.4203 871.569 67.5103C871.474 67.6837 871.324 67.8204 871.143 67.8984C870.962 67.9764 870.759 67.9911 870.569 67.9403C870.217 67.8631 869.899 67.6777 869.659 67.4103C869.5 67.2658 869.38 67.0844 869.309 66.8823C869.238 66.6802 869.217 66.4636 869.25 66.2518C869.283 66.04 869.367 65.8395 869.496 65.6683C869.625 65.497 869.794 65.3603 869.989 65.2702C870.2 65.1664 870.441 65.1405 870.67 65.1972C870.899 65.254 871.1 65.3896 871.239 65.5803C871.289 65.6385 871.317 65.7131 871.317 65.7903C871.317 65.8674 871.289 65.942 871.239 66.0003C871.197 66.074 871.133 66.1329 871.056 66.1687C870.979 66.2046 870.892 66.2156 870.809 66.2002C870.729 66.2002 870.559 66.2003 870.559 66.0503C870.559 65.9003 870.689 65.9703 870.679 65.8603C870.643 65.8026 870.589 65.7591 870.525 65.7372C870.461 65.7153 870.392 65.7164 870.329 65.7402C870.252 65.7559 870.182 65.7969 870.132 65.8568C870.081 65.9166 870.052 65.9918 870.049 66.0703C870.035 66.2165 870.067 66.3633 870.141 66.4904C870.214 66.6176 870.325 66.7188 870.459 66.7803C870.654 66.8705 870.872 66.8997 871.085 66.864C871.297 66.8283 871.493 66.7294 871.649 66.5803C871.752 66.4918 871.83 66.3779 871.876 66.2498C871.921 66.1218 871.933 65.984 871.909 65.8503C871.859 65.5743 871.729 65.3191 871.535 65.1164C871.341 64.9137 871.092 64.7725 870.819 64.7103V64.7103Z" fill="#2B58A4"/>
<path d="M883.06 54.1801C883.083 54.274 883.14 54.3559 883.22 54.4101C883.389 54.471 883.563 54.5146 883.74 54.5401C884.06 54.6101 884.11 54.5401 884.18 54.2601C884.25 53.9801 884.29 53.4901 884.33 53.0901C884.396 52.6171 884.355 52.1352 884.21 51.6801C884.143 51.498 884.045 51.3288 883.92 51.1801C883.899 51.145 883.869 51.1159 883.833 51.0957C883.797 51.0755 883.756 51.0649 883.715 51.0649C883.674 51.0649 883.633 51.0755 883.597 51.0957C883.562 51.1159 883.532 51.145 883.51 51.1801C883.378 51.3645 883.28 51.5711 883.22 51.7901C883.12 52.3401 883.02 53.4501 883.02 53.4501C883.017 53.6941 883.03 53.938 883.06 54.1801V54.1801Z" fill="#2B58A4"/>
<path d="M859 52.59C858.828 52.6419 858.661 52.7088 858.5 52.79C858.346 52.8723 858.175 52.9153 858 52.9153C857.826 52.9153 857.654 52.8723 857.5 52.79C857.248 52.718 857.02 52.5768 856.843 52.3825C856.667 52.1881 856.548 51.9483 856.5 51.69C856.449 51.5232 856.435 51.3473 856.46 51.1747C856.484 51.002 856.547 50.8369 856.642 50.6909C856.737 50.5449 856.864 50.4217 857.012 50.33C857.16 50.2382 857.327 50.1802 857.5 50.16C857.743 50.1576 857.978 50.2435 858.162 50.4018C858.346 50.56 858.466 50.7797 858.5 51.02C858.51 51.0854 858.506 51.1521 858.489 51.216C858.472 51.2798 858.442 51.3395 858.4 51.3911C858.359 51.4427 858.307 51.4853 858.249 51.5161C858.19 51.5468 858.126 51.5652 858.06 51.57C857.961 51.5838 857.859 51.5696 857.767 51.529C857.676 51.4883 857.597 51.4229 857.54 51.34C857.43 51.18 857.54 51.04 857.59 50.89C857.64 50.74 857.59 50.83 857.59 50.79C857.59 50.75 857.59 50.54 857.43 50.57C857.304 50.6097 857.195 50.6907 857.12 50.8C857.037 50.9208 856.992 51.0635 856.99 51.21C856.992 51.3791 857.046 51.5434 857.145 51.681C857.243 51.8186 857.381 51.923 857.54 51.98C857.771 52.0549 858.019 52.0549 858.25 51.98C858.47 51.9058 858.658 51.7573 858.78 51.56C858.895 51.3958 858.968 51.2066 858.994 51.0083C859.02 50.8099 858.998 50.6081 858.93 50.42C858.826 50.1433 858.623 49.9151 858.36 49.78C858.094 49.6189 857.785 49.5423 857.475 49.5602C857.164 49.578 856.866 49.6895 856.62 49.88C856.43 50.0297 856.273 50.2171 856.158 50.4303C856.044 50.6435 855.975 50.878 855.955 51.1192C855.935 51.3604 855.966 51.6031 856.044 51.832C856.122 52.061 856.247 52.2714 856.41 52.45C856.509 52.5608 856.616 52.6644 856.73 52.76C856.94 52.9551 857.196 53.0927 857.475 53.1593C857.754 53.2259 858.045 53.2192 858.32 53.14C858.493 53.0951 858.652 53.0114 858.788 52.8953C858.923 52.7791 859.03 52.6337 859.1 52.47C859.1 52.47 859 52.57 859 52.59Z" fill="#2B58A4"/>
<path d="M863.999 65.8601C863.845 65.6966 863.656 65.5689 863.447 65.486C863.238 65.403 863.014 65.3669 862.789 65.3801C862.41 65.4082 862.048 65.5435 861.743 65.7701C861.439 65.9968 861.205 66.3055 861.069 66.6601C860.937 66.9571 860.886 67.2839 860.921 67.6071C860.956 67.9303 861.076 68.2384 861.269 68.5001C861.39 68.6986 861.552 68.8679 861.746 68.9958C861.94 69.1238 862.159 69.2072 862.389 69.2401C862.574 69.2835 862.769 69.2577 862.937 69.1674C863.105 69.0772 863.233 68.9288 863.299 68.7501C863.129 68.7501 862.989 68.8401 862.829 68.8701C862.534 68.8705 862.246 68.7723 862.013 68.5913C861.779 68.4102 861.612 68.1564 861.539 67.8701C861.477 67.6738 861.457 67.4667 861.48 67.2622C861.503 67.0577 861.569 66.8602 861.672 66.6824C861.776 66.5045 861.915 66.3502 862.082 66.2293C862.248 66.1084 862.438 66.0235 862.639 65.9801C862.773 65.9428 862.913 65.9355 863.05 65.9587C863.186 65.9819 863.316 66.0351 863.43 66.1144C863.544 66.1937 863.638 66.2973 863.707 66.4175C863.776 66.5378 863.818 66.6719 863.829 66.8101C863.841 66.9394 863.812 67.0692 863.746 67.1807C863.679 67.2922 863.579 67.3796 863.459 67.4301C863.342 67.4645 863.217 67.4645 863.099 67.4301C862.829 67.3601 862.799 67.1101 862.999 66.8701C863.059 66.8701 863.069 66.7101 863.099 66.6501C863.129 66.5901 862.899 66.5801 862.799 66.6501C862.661 66.6943 862.533 66.7682 862.426 66.8666C862.319 66.9651 862.235 67.0857 862.179 67.2201C862.144 67.3065 862.131 67.4002 862.142 67.4927C862.152 67.5852 862.186 67.6737 862.239 67.7501C862.36 67.9512 862.539 68.1117 862.751 68.2109C862.964 68.3102 863.202 68.3437 863.434 68.3072C863.665 68.2707 863.881 68.1658 864.053 68.006C864.225 67.8462 864.346 67.6387 864.399 67.4101C864.497 67.1417 864.512 66.8496 864.44 66.5728C864.369 66.296 864.215 66.0474 863.999 65.8601V65.8601Z" fill="#2B58A4"/>
<path d="M856.469 84.6999C855.469 84.2299 855.02 83.9799 854.07 83.4399C853.77 83.9699 853.609 84.2399 853.299 84.7699C854.252 85.3311 855.233 85.8418 856.24 86.2999L855.84 87.1599C854.341 86.4893 852.897 85.7036 851.52 84.8099C852.76 82.8099 853.379 81.8899 854.609 79.9399C855.768 80.7013 856.985 81.37 858.25 81.9399L857.849 82.8099C856.95 82.4086 856.075 81.9545 855.229 81.4499L854.539 82.6399C855.459 83.1699 855.92 83.4199 856.87 83.8699L856.469 84.6999Z" fill="#2B58A4"/>
<path d="M860.307 84.9201C861.037 84.3301 861.387 84.0301 862.057 83.4101C862.607 83.5801 862.887 83.6601 863.437 83.8101C862.623 84.5988 861.762 85.3368 860.857 86.0201C861.175 87.166 861.562 88.2914 862.017 89.3901C861.347 89.2201 861.017 89.1201 860.357 88.9201C860.077 87.9801 859.947 87.5101 859.717 86.5701C858.957 87.1601 858.557 87.4401 857.717 87.9901C857.067 87.7301 856.717 87.5901 856.117 87.3101C857.154 86.7434 858.155 86.1156 859.117 85.4301C858.844 84.3234 858.637 83.2014 858.497 82.0701C859.027 82.3101 859.297 82.4301 859.837 82.6401C859.997 83.5501 860.117 84.0001 860.307 84.9201Z" fill="#2B58A4"/>
<path d="M864.578 87.9002L864.178 89.9002C863.598 89.7802 863.308 89.7202 862.738 89.5802C863.278 87.3402 863.548 86.2202 864.098 83.9702C865.018 84.2002 865.478 84.2902 866.408 84.4502C866.818 84.5054 867.212 84.6414 867.568 84.8502C867.873 85.0379 868.121 85.3038 868.288 85.6202C868.45 85.927 868.517 86.2754 868.478 86.6202C868.465 86.8816 868.386 87.1354 868.248 87.3576C868.11 87.5798 867.917 87.7631 867.688 87.8902C867.096 88.182 866.423 88.2631 865.778 88.1202C865.298 88.0502 865.058 88.0002 864.578 87.9002ZM864.768 86.9602C865.238 87.0602 865.478 87.1002 865.958 87.1802C866.241 87.2455 866.538 87.2102 866.798 87.0802C866.901 87.0173 866.987 86.9311 867.049 86.8285C867.112 86.7259 867.149 86.61 867.158 86.4902C867.181 86.3659 867.177 86.2381 867.146 86.1156C867.115 85.9931 867.058 85.8787 866.978 85.7802C866.801 85.5698 866.551 85.434 866.278 85.4002L865.128 85.1902C864.998 85.9002 864.908 86.2502 864.768 87.0002V86.9602Z" fill="#2B58A4"/>
<path d="M871.759 88.5201C871.309 88.5201 871.089 88.5201 870.649 88.5201L870.599 90.6301C870.009 90.6301 869.719 90.6301 869.129 90.5601C869.279 88.2601 869.359 87.1101 869.509 84.8101C870.399 84.8701 870.849 84.8801 871.749 84.8801C872.334 84.8372 872.917 84.977 873.419 85.2801C873.623 85.4196 873.791 85.6057 873.91 85.823C874.028 86.0404 874.093 86.2827 874.099 86.5301C874.138 86.8773 874.064 87.2279 873.889 87.5301C873.675 87.8334 873.375 88.0666 873.029 88.2001C873.649 89.1201 874.029 89.5701 874.669 90.4601V90.5201C874.049 90.5201 873.729 90.5901 873.099 90.6101C872.529 89.7801 872.259 89.3601 871.759 88.5201ZM870.679 87.5201H871.759C872.04 87.539 872.317 87.4536 872.539 87.2801C872.629 87.201 872.7 87.102 872.745 86.9909C872.79 86.8797 872.808 86.7596 872.799 86.6401C872.799 86.5213 872.774 86.4039 872.726 86.2954C872.677 86.1869 872.607 86.0897 872.519 86.0101C872.297 85.846 872.024 85.7679 871.749 85.7901H870.749C870.709 86.5101 870.699 86.8601 870.679 87.5501V87.5201Z" fill="#2B58A4"/>
<path d="M879.21 87.2903C878.21 87.5203 877.66 87.6202 876.61 87.7702C876.7 88.3802 876.75 88.6903 876.84 89.3003C877.907 89.152 878.965 88.9483 880.01 88.6903C880.1 89.0603 880.15 89.2503 880.23 89.6203C878.682 90.0041 877.108 90.2748 875.52 90.4303C875.27 88.1303 875.15 86.9903 874.91 84.6903C876.259 84.5687 877.597 84.3413 878.91 84.0103C879 84.3903 879.05 84.5702 879.13 84.9502C878.197 85.1802 877.252 85.3605 876.3 85.4902L876.5 86.8503C877.5 86.7003 878.02 86.6102 879.03 86.3802L879.21 87.2903Z" fill="#2B58A4"/>
<path d="M884.1 86.8703C884.068 86.7719 884.011 86.6839 883.934 86.6154C883.856 86.5468 883.762 86.5002 883.66 86.4803C883.302 86.4399 882.939 86.4399 882.58 86.4803C882.182 86.5242 881.779 86.5242 881.38 86.4803C881.056 86.4746 880.742 86.3673 880.482 86.1736C880.222 85.9798 880.029 85.7094 879.931 85.4003C879.854 85.1074 879.878 84.7973 880 84.5203C880.133 84.2118 880.347 83.9456 880.62 83.7503C880.936 83.5082 881.292 83.3222 881.67 83.2003C882.047 83.0704 882.443 83.0095 882.84 83.0203C883.193 83.0327 883.536 83.1324 883.84 83.3103C884.121 83.4888 884.338 83.7513 884.46 84.0603L883.23 84.5503C883.193 84.4388 883.132 84.337 883.051 84.2522C882.969 84.1674 882.87 84.1019 882.76 84.0603C882.496 83.9887 882.214 84.0062 881.96 84.1103C881.712 84.1762 881.489 84.3156 881.32 84.5103C881.258 84.5836 881.215 84.6717 881.196 84.7661C881.177 84.8605 881.182 84.9583 881.21 85.0503C881.243 85.1453 881.302 85.2293 881.379 85.2929C881.457 85.3564 881.551 85.3971 881.65 85.4103C881.982 85.4599 882.319 85.4599 882.65 85.4103C883.273 85.3375 883.903 85.3781 884.51 85.5303C884.718 85.5894 884.91 85.6949 885.071 85.8386C885.232 85.9823 885.358 86.1607 885.44 86.3603C885.54 86.5801 885.576 86.8238 885.542 87.0629C885.508 87.302 885.407 87.5266 885.25 87.7103C884.818 88.2146 884.248 88.5828 883.61 88.7703C883.122 88.9375 882.606 89.0121 882.09 88.9903C881.676 88.9842 881.272 88.8554 880.931 88.6203C880.637 88.4156 880.43 88.109 880.35 87.7603C880.89 87.6203 881.17 87.5403 881.71 87.3803C881.89 87.9903 882.431 88.1703 883.311 87.8803C883.578 87.802 883.82 87.6536 884.01 87.4503C884.08 87.3726 884.125 87.2765 884.141 87.1736C884.157 87.0707 884.143 86.9653 884.1 86.8703V86.8703Z" fill="#2B58A4"/>
<path d="M889.568 84.2899C889.515 84.2008 889.441 84.1264 889.351 84.074C889.262 84.0215 889.161 83.9926 889.058 83.9899C888.692 83.9966 888.329 84.0504 887.978 84.1499C887.58 84.243 887.175 84.2999 886.768 84.3199C886.446 84.3725 886.115 84.3215 885.824 84.1741C885.533 84.0267 885.296 83.7906 885.148 83.4999C885.017 83.2256 884.988 82.9134 885.068 82.6199C885.155 82.2932 885.323 81.9938 885.558 81.7499C885.849 81.4567 886.187 81.2135 886.558 81.0299C886.914 80.8308 887.304 80.6986 887.708 80.6399C888.045 80.5934 888.389 80.6312 888.708 80.7499C889.02 80.8727 889.283 81.0939 889.458 81.3799C888.998 81.6699 888.768 81.8099 888.298 82.0799C888.246 81.9744 888.168 81.8836 888.072 81.8155C887.976 81.7474 887.865 81.7043 887.748 81.6899C887.472 81.6598 887.193 81.7232 886.958 81.8699C886.721 81.98 886.523 82.1574 886.388 82.3799C886.339 82.4651 886.313 82.5616 886.313 82.6599C886.313 82.7582 886.339 82.8548 886.388 82.9399C886.438 83.027 886.511 83.0983 886.599 83.146C886.688 83.1937 886.787 83.2159 886.888 83.2099C887.226 83.2201 887.563 83.1762 887.888 83.0799C888.496 82.8926 889.133 82.8214 889.768 82.8699C889.984 82.89 890.192 82.959 890.378 83.0716C890.563 83.1842 890.72 83.3375 890.838 83.5199C890.967 83.7248 891.036 83.9624 891.036 84.2049C891.036 84.4475 890.967 84.685 890.838 84.8899C890.492 85.4728 889.98 85.9393 889.368 86.2299C888.911 86.4853 888.408 86.6484 887.888 86.7099C887.474 86.776 887.05 86.7204 886.668 86.5499C886.344 86.3968 886.087 86.1298 885.948 85.7999L887.248 85.1899C887.528 85.7599 888.088 85.8499 888.928 85.3999C889.183 85.2761 889.401 85.0862 889.558 84.8499C889.61 84.7664 889.639 84.6701 889.641 84.5713C889.643 84.4726 889.617 84.3753 889.568 84.2899V84.2899Z" fill="#2B58A4"/>
<path d="M229.359 149.56L230.359 176.03C230.359 176.03 196.769 179.47 193.119 178.72C188.399 177.72 185.119 174.99 184.899 170.43C184.679 165.87 183.819 159.15 187.769 155.3C190.869 152.3 197.549 149.83 201.979 148.91C206.409 147.99 219.059 148.13 222.709 148.26C224.979 148.357 227.221 148.795 229.359 149.56V149.56Z" fill="#F1FA91"/>
<path d="M257 200C255.24 201.57 252.11 207.44 256 212C259.89 216.56 264 217.18 268.52 214.06C273.04 210.94 285.36 196.46 290.06 173.58C294.76 150.7 296.52 107.31 296.52 106.02C296.52 104.73 287.52 98.13 279.52 104.17C279.52 104.17 277.37 143.66 276.39 151.87C275.41 160.08 266.94 187.26 264.85 190.79C262.76 194.32 257 200 257 200Z" fill="#698681"/>
<path d="M220.491 150.91C220.491 150.91 220.361 169.71 222.711 174.04" stroke="black" stroke-width="0.88" stroke-miterlimit="10" stroke-linecap="round"/>
<path d="M208.058 150.91C208.058 150.91 205.678 167.38 210.648 174.91" stroke="black" stroke-width="0.88" stroke-miterlimit="10" stroke-linecap="round"/>
<path d="M197.241 153.9C197.241 153.9 195.321 169.24 199.371 175.7" stroke="black" stroke-width="0.88" stroke-miterlimit="10" stroke-linecap="round"/>
<path d="M229.809 161.44C229.809 161.44 225.309 155.04 217.879 155.56C210.449 156.08 203.669 159.62 199.369 161.44C199.369 161.44 193.859 165.2 188.369 162.21" stroke="black" stroke-width="0.88" stroke-miterlimit="10" stroke-linecap="round"/>
<path d="M231.839 105.36C231.839 105.36 231.969 91.28 227.539 87.36C223.109 83.44 222.709 77.97 208.539 77.45C194.369 76.93 183.379 82.93 181.679 84.75C179.979 86.57 175.419 90.62 174.379 95.96C173.339 101.3 173.209 114.87 173.379 120.09C173.549 125.31 180.289 192.84 180.289 192.84L233.879 186.19C233.879 186.19 233.879 174.72 233.219 173.81C232.559 172.9 200.499 175.89 197.219 175.81C193.939 175.73 188.739 173.81 188.219 168.51C187.699 163.21 188.609 158.73 192.519 156.51C196.429 154.29 200.739 151.56 209.729 150.91C216.306 150.611 222.897 150.916 229.419 151.82C229.419 151.82 228.899 157.69 229.419 158.08C229.939 158.47 236.589 154.95 236.859 154.08C237.129 153.21 236.719 140.78 236.859 140C236.999 139.22 231.839 105.36 231.839 105.36Z" fill="#698681"/>
<path d="M205.059 138.68C200.749 139.27 196.239 141.81 193.109 140.44C189.979 139.07 186.259 139.23 185.279 135.14C184.299 131.05 181.859 119.3 183.619 115.7C185.379 112.1 187.089 111.04 190.369 108.36C193.311 105.765 197.105 104.341 201.029 104.36C205.139 104.36 232.509 104.05 235.939 104.36C238.029 104.58 242.589 104.88 244.939 110.1C247.289 115.32 246.509 126.26 246.509 127.83C246.509 129.4 238.029 138.91 236.799 139.83C235.569 140.75 229.149 135.35 205.059 138.68Z" fill="#99B5B6"/>
<path d="M243.18 120.36C243.18 120.36 244.49 108 235.06 107.45C235.06 107.45 199.86 107.32 197.64 107.45C195.42 107.58 192.42 111.45 193.21 120.36C194 129.27 199.59 130.14 202.85 130.79C206.11 131.44 236.49 131.31 238.58 130.79C240.67 130.27 243.26 128.83 243.18 120.36Z" fill="#09060F"/>
<path d="M217.879 119.59C217.879 119.59 220.279 124.95 216.129 131.22C211.916 131.371 207.698 131.255 203.499 130.87C201.823 130.694 200.186 130.252 198.649 129.56C196.938 128.845 195.547 127.529 194.739 125.86C193.384 123.288 192.82 120.372 193.119 117.48C194.653 114.481 197.259 112.168 200.419 111C203.579 109.832 207.062 109.894 210.178 111.174C213.294 112.454 215.816 114.858 217.242 117.91C218.669 120.962 218.896 124.438 217.879 127.65C217.484 128.923 216.894 130.128 216.129 131.22L222.359 131.28C220.309 131.28 231.269 131.13 233.029 131.11C233.809 131.11 235.849 131 235.849 131C236.924 129.834 237.729 128.446 238.209 126.934C238.688 125.422 238.829 123.823 238.623 122.25C238.416 120.678 237.866 119.17 237.013 117.833C236.159 116.496 235.023 115.363 233.683 114.514C232.344 113.665 230.834 113.121 229.261 112.919C227.687 112.718 226.089 112.864 224.579 113.348C223.068 113.832 221.683 114.642 220.52 115.721C219.357 116.8 218.445 118.12 217.849 119.59" fill="#F1FA91"/>
<path d="M258.558 230.88C251.97 230.88 246.628 222.432 246.628 212.01C246.628 201.589 251.97 193.14 258.558 193.14C265.147 193.14 270.488 201.589 270.488 212.01C270.488 222.432 265.147 230.88 258.558 230.88Z" fill="#99B5B6"/>
<path d="M278.331 124.3C278.331 124.3 287.951 118.05 295.551 124.3" stroke="#99B5B6" stroke-width="0.44" stroke-miterlimit="10" stroke-linecap="round"/>
<path d="M277.129 142.91C277.129 142.91 285.859 137.08 294.129 142.91" stroke="#99B5B6" stroke-width="0.44" stroke-miterlimit="10" stroke-linecap="round"/>
<path d="M274.879 159.17C274.879 159.17 286.999 156.03 291.949 162.26" stroke="#99B5B6" stroke-width="0.44" stroke-miterlimit="10" stroke-linecap="round"/>
<path d="M270.011 176.32C270.011 176.32 282.851 176.43 286.941 184.88" stroke="#99B5B6" stroke-width="0.44" stroke-miterlimit="10" stroke-linecap="round"/>
<path d="M264.82 190.79C264.82 190.79 272.97 189.42 278.48 201.16" stroke="#99B5B6" stroke-width="0.44" stroke-miterlimit="10" stroke-linecap="round"/>
<path d="M274.731 84.0702C271.591 79.8886 269.858 74.8189 269.781 69.5902C269.781 69.5902 271.411 65.0002 279.061 66.8602C279.061 66.8602 279.911 80.2202 282.391 83.1502L274.731 84.0702Z" fill="#99B5B6"/>
<path d="M305.34 87.3001C308.501 83.1301 310.252 78.062 310.34 72.8301C310.34 72.8301 308.71 68.2701 301.02 70.0901C301.02 70.0901 300.17 83.4601 297.69 86.3901L305.34 87.3001Z" fill="#99B5B6"/>
<path d="M295.33 83.6802C296.527 78.751 297.108 73.6924 297.06 68.6202C297.06 68.6202 295.43 64.0602 287.74 65.8802C287.74 65.8802 285.91 78.4802 287.34 82.8202L295.33 83.6802Z" fill="#99B5B6"/>
<path d="M281.249 106C281.249 106 277.119 100.8 274.879 89.2599C274.452 87.3032 274.142 85.3231 273.949 83.3299C274.059 82.2399 295.659 76.6999 305.059 87.1999C305.059 87.1999 304.059 100.5 295.059 107.08L281.249 106Z" fill="#698681"/>
<path d="M205.069 114.42H209.539V118.89H205.069V114.42Z" fill="black"/>
<path d="M229.132 117.07H233.602V121.54H229.132V117.07Z" fill="black"/>
<path d="M229.809 164.5C229.809 164.5 225.309 170.9 217.879 170.38C210.449 169.86 203.669 169.57 199.369 167.75C195.647 166.658 191.648 167.037 188.199 168.81" stroke="black" stroke-width="0.88" stroke-miterlimit="10"/>
<path d="M194.939 51.7801C192.813 51.7801 191.089 50.0564 191.089 47.9301C191.089 45.8038 192.813 44.0801 194.939 44.0801C197.065 44.0801 198.789 45.8038 198.789 47.9301C198.789 50.0564 197.065 51.7801 194.939 51.7801Z" fill="#698681"/>
<path d="M207.691 77.43C206.571 75.8701 205.036 74.6566 203.259 73.928C201.482 73.1993 199.537 72.9849 197.644 73.3092C195.751 73.6335 193.988 74.4835 192.555 75.762C191.122 77.0406 190.078 78.6963 189.541 80.54" fill="#698681"/>
<path d="M259.059 207.85C259.059 207.85 242.359 188.29 233.759 184.9C233.759 184.9 208.989 179.68 178.089 189.98C178.089 189.98 168.179 202.76 163.229 214.98C163.229 214.98 180.229 206.9 210.669 203.64C241.109 200.38 259.059 207.85 259.059 207.85Z" fill="#99B5B6"/>
<path d="M259.481 324.79C262.401 322.39 264.311 323.5 261.311 316.46C258.311 309.42 189.101 316.36 183.601 322.46C173.951 333.15 183.991 332.24 183.991 332.24C183.991 332.24 256.061 327.65 259.481 324.79Z" fill="#99B5B6"/>
<path d="M162.061 244.68L179.661 329.18C179.661 329.18 195.661 317.83 216.821 317.34C237.981 316.85 261.371 318 262.161 320L262.941 322L259.611 208.27C259.611 208.27 241.521 195.16 208.861 197.71C176.201 200.26 156.741 220 156.741 220L162.061 244.68Z" fill="#698681"/>
<path d="M252.581 218.93C246.741 216.04 227.311 209.32 189.101 221.83C188.311 222.088 187.636 222.616 187.197 223.322C186.758 224.028 186.583 224.867 186.701 225.69L198.811 308C198.88 308.477 199.046 308.935 199.299 309.345C199.553 309.755 199.888 310.108 200.284 310.383C200.68 310.658 201.128 310.849 201.601 310.943C202.073 311.037 202.56 311.032 203.031 310.93C211.031 309.22 230.741 305.67 250.621 307.78C251.113 307.833 251.611 307.783 252.082 307.631C252.553 307.48 252.987 307.231 253.356 306.901C253.724 306.571 254.02 306.167 254.222 305.715C254.425 305.264 254.53 304.775 254.531 304.28V222.08C254.532 221.425 254.35 220.783 254.006 220.227C253.661 219.67 253.168 219.221 252.581 218.93V218.93Z" fill="#99B5B6"/>
<path d="M163.781 247.42C157.192 247.42 151.851 238.972 151.851 228.55C151.851 218.129 157.192 209.68 163.781 209.68C170.37 209.68 175.711 218.129 175.711 228.55C175.711 238.972 170.37 247.42 163.781 247.42Z" fill="#99B5B6"/>
<path d="M165.339 216.52C167.099 218.08 170.229 223.95 166.339 228.52C162.449 233.09 158.339 233.7 153.819 230.52C149.299 227.34 136.999 212.92 132.309 190.04C127.619 167.16 125.849 123.76 125.849 122.48C125.849 121.2 134.849 114.58 142.849 120.62C142.849 120.62 144.999 160.11 145.979 168.33C146.959 176.55 155.429 203.71 157.519 207.25C159.609 210.79 165.339 216.52 165.339 216.52Z" fill="#698681"/>
<path d="M144.012 140.84C144.012 140.84 134.392 134.59 126.792 140.84" stroke="#99B5B6" stroke-width="0.44" stroke-linecap="round" stroke-linejoin="round"/>
<path d="M145.219 159.45C145.219 159.45 136.479 153.62 128.219 159.45" stroke="#99B5B6" stroke-width="0.44" stroke-linecap="round" stroke-linejoin="round"/>
<path d="M147.461 175.7C147.461 175.7 135.341 172.56 130.391 178.8" stroke="#99B5B6" stroke-width="0.44" stroke-linecap="round" stroke-linejoin="round"/>
<path d="M152.328 192.85C152.328 192.85 139.488 192.96 135.398 201.42" stroke="#99B5B6" stroke-width="0.44" stroke-linecap="round" stroke-linejoin="round"/>
<path d="M157.52 207.33C157.52 207.33 149.38 205.96 143.86 217.69" stroke="#99B5B6" stroke-width="0.44" stroke-linecap="round" stroke-linejoin="round"/>
<path d="M147.609 100.6C150.747 96.4214 152.48 91.3553 152.559 86.1299C152.559 86.1299 150.929 81.5699 143.239 83.3899C143.239 83.3899 142.389 96.7599 139.919 99.6899L147.609 100.6Z" fill="#99B5B6"/>
<path d="M116.998 103.84C113.84 99.6688 112.089 94.6016 111.998 89.3702C111.998 89.3702 113.628 84.8002 121.328 86.6302C121.328 86.6302 122.168 99.9902 124.648 102.93L116.998 103.84Z" fill="#99B5B6"/>
<path d="M127.01 100.21C125.827 95.2993 125.256 90.261 125.31 85.21C125.31 85.21 126.94 80.6401 134.64 82.4701C134.64 82.4701 136.46 95.0701 135.03 99.4101L127.01 100.21Z" fill="#99B5B6"/>
<path d="M141.059 122.56C141.059 122.56 145.199 117.36 147.429 105.82C147.86 103.864 148.17 101.884 148.359 99.8899C148.299 98.7799 126.649 93.2399 117.259 103.73C117.259 103.73 118.259 117.03 127.259 123.62L141.059 122.56Z" fill="#698681"/>
<path d="M202.109 269.82C199.839 269.82 197.999 267.98 197.999 265.71C197.999 263.44 199.839 261.6 202.109 261.6C204.379 261.6 206.219 263.44 206.219 265.71C206.219 267.98 204.379 269.82 202.109 269.82Z" fill="#698681"/>
<path d="M193.621 75.6103L202.051 74.4603L197.551 50.0103L193.251 50.5303L193.621 75.6103Z" fill="#698681"/>
<path d="M374.369 73.74C374.819 69.08 377.929 70.56 379.929 66.93C381.929 63.3 381.259 58.19 386.259 52.85C391.259 47.51 410.819 37.08 427.489 44.63C444.159 52.18 451.259 64.63 447.709 73.74C444.159 82.85 432.369 94.85 430.369 102.63C428.221 110.12 428.301 118.074 430.599 125.52C433.039 133.74 436.369 139.74 436.819 141.52C437.269 143.3 434.599 156.19 421.929 159.3C409.259 162.41 396.819 154.03 397.259 152.3C397.699 150.57 400.819 150.16 400.369 146.82C399.919 143.48 393.759 139.23 389.439 136.67C381.559 132.01 371.259 130.67 364.369 128.45C357.479 126.23 358.369 123.71 361.039 120.6C363.709 117.49 368.819 113.87 371.039 109.9L373.489 96.16C373.489 96.16 371.489 95.49 369.039 90.38C366.589 85.27 370.369 76.38 372.369 75.05L374.369 73.74Z" fill="#F5B182"/>
<path d="M377.26 290.85C377.04 293.96 380.34 296.85 379.91 302.63C379.48 308.41 374.82 322.1 374.82 322.1H446.82C447.26 322.1 455.71 299.1 455.93 296.41C456.15 293.72 445.49 287.3 445.49 287.3C445.49 287.3 397.26 288.63 394.82 288.41C392.38 288.19 377.49 285.3 377.49 285.3L377.26 290.85Z" fill="#2E7780"/>
<path d="M375.259 16.0001C370.819 25.3401 358.369 39.6401 364.369 51.0001C370.369 62.3601 377.259 65.2001 389.709 61.0001C402.159 56.8001 406.599 50.8201 417.709 51.9301C428.819 53.0401 431.489 51.7101 429.929 53.4901C428.369 55.2701 419.259 63.2701 420.369 65.2701C421.479 67.2701 423.709 64.2701 428.149 63.7401C432.589 63.2101 433.929 64.5301 431.259 66.9001C428.589 69.2701 419.259 78.9001 420.369 87.3301C421.479 95.7601 418.819 95.9301 421.489 95.7101C424.159 95.4901 422.779 83.8201 428.489 84.4901C434.199 85.1601 431.379 97.3901 431.159 98.9501C430.939 100.51 455.459 96.5101 457.679 87.3301C459.899 78.1501 459.459 65.4901 457.679 62.1601C455.899 58.8301 467.929 51.7401 466.999 49.5201C466.069 47.3001 458.779 46.9201 456.329 46.2201C453.879 45.5201 457.449 32.6301 455.669 31.5201C453.889 30.4101 446.559 38.1001 443.889 39.2501C441.219 40.4001 439.889 24.6301 417.219 27.0801L399.669 32.8301C399.669 32.8301 401.839 15.0801 404.089 12.1901C406.339 9.30005 399.669 7.52005 398.089 9.08005C396.509 10.6401 380.759 30.3701 380.309 30.1701C379.859 29.9701 388.149 7.70005 384.999 8.50005C381.849 9.30005 375.259 16.0001 375.259 16.0001Z" fill="#DB7F2C"/>
<path d="M378.289 95.4301C384.314 95.4301 389.199 90.5455 389.199 84.5201C389.199 78.4947 384.314 73.6101 378.289 73.6101C372.263 73.6101 367.379 78.4947 367.379 84.5201C367.379 90.5455 372.263 95.4301 378.289 95.4301Z" fill="white"/>
<path d="M382.088 87.19C383.11 87.19 383.938 86.3617 383.938 85.34C383.938 84.3183 383.11 83.49 382.088 83.49C381.067 83.49 380.238 84.3183 380.238 85.34C380.238 86.3617 381.067 87.19 382.088 87.19Z" fill="black"/>
<path d="M400.071 100.76C407.311 100.76 413.181 94.8905 413.181 87.65C413.181 80.4096 407.311 74.54 400.071 74.54C392.83 74.54 386.961 80.4096 386.961 87.65C386.961 94.8905 392.83 100.76 400.071 100.76Z" fill="white"/>
<path d="M407.841 90.8502C409.067 90.8502 410.061 89.8562 410.061 88.6301C410.061 87.4041 409.067 86.4102 407.841 86.4102C406.615 86.4102 405.621 87.4041 405.621 88.6301C405.621 89.8562 406.615 90.8502 407.841 90.8502Z" fill="black"/>
<path d="M398.369 147.08C399.879 149.35 408.369 153.96 418.819 150.85C429.269 147.74 433.259 143.08 433.259 143.08C433.259 143.08 420.599 167.08 418.369 173.74C416.139 180.4 407.489 274.19 406.819 280.63C406.429 285.081 406.49 289.561 406.999 294C406.999 294 385.449 292.45 381.219 289.56C376.989 286.67 383.889 247.12 385.219 239.56C386.549 232 390.559 207.34 392.999 194.67C395.439 182 394.999 148 394.999 148L398.369 147.08Z" fill="white"/>
<path d="M363.709 278.63C362.709 282.04 359.339 286.11 357.779 290.7C356.219 295.29 355.779 318.33 361.409 318.63C367.039 318.93 366.669 318.7 366.889 316.85C366.889 316.85 367.829 320.78 370.989 320.41C374.149 320.04 374.369 318.7 374.369 318.19C374.369 318.19 375.629 320.19 377.109 319.67C378.589 319.15 381.859 311.08 381.189 306.56C380.519 302.04 380.299 294.78 379.559 292.19C378.819 289.6 377.189 283.37 376.229 282.11C375.269 280.85 363.709 278.63 363.709 278.63Z" fill="#F5B182"/>
<path d="M449.66 278C448.66 281.41 445.29 285.48 443.74 290.08C442.19 294.68 441.74 317.71 447.37 318C453 318.29 452.63 318.08 452.85 316.22C452.85 316.22 453.78 320.15 456.94 319.78C460.1 319.41 460.33 318.08 460.33 317.56C460.33 317.56 461.59 319.56 463.07 319.04C464.55 318.52 467.81 310.45 467.14 305.93C466.47 301.41 466.26 294.15 465.51 291.56C464.76 288.97 463.14 282.74 462.18 281.48C461.22 280.22 449.66 278 449.66 278Z" fill="#F5B182"/>
<path d="M424.26 156.74C426.19 154.5 433.85 144.74 433.26 137.85C433.079 134.224 432.361 130.646 431.13 127.23C430.82 126.23 429.93 123.74 434.13 125.74C438.33 127.74 441.91 133.08 443.69 135.08C444.99 136.823 445.968 138.784 446.58 140.87C446.58 140.87 462.58 148.96 469.09 156.13C475.6 163.3 476.8 167.3 478.87 174.41C480.94 181.52 486.58 214.7 485.98 229.22C485.38 243.74 481.24 260.93 478.87 269.52C478.87 269.52 474.69 275.52 471.58 277.41C468.47 279.3 461.77 281.52 455.14 283.59C448.51 285.66 444.65 286.7 444.06 289.37C443.47 292.04 443.47 296.63 443.06 297.37C442.65 298.11 428.91 302.02 420.32 301.28C411.73 300.54 407.47 300.22 406.15 296.81C404.83 293.4 404.15 289.08 405.15 282.81C406.15 276.54 411.67 193.33 412.86 189.18C414.05 185.03 409.19 174.33 424.26 156.74Z" fill="#971F1E"/>
<path d="M421.371 170.08C422.711 168.52 424.711 162.63 430.261 164.08C435.811 165.53 438.601 169.96 441.151 172.3C443.701 174.64 446.261 172.96 446.601 170.85C446.941 168.74 446.951 141.92 446.601 140.85" stroke="#7F1818" stroke-miterlimit="10"/>
<path d="M458.739 156.13C455.489 161.82 452.369 172.33 452.969 183.13C453.569 193.93 456.969 222.54 457.259 225.5C457.549 228.46 457.409 226.39 451.489 243.43C447.856 254.187 445.798 265.413 445.379 276.76" stroke="#7F1818" stroke-miterlimit="10"/>
<path d="M444.001 289.92C443.1 289.315 442.384 288.473 441.932 287.486C441.481 286.5 441.311 285.407 441.441 284.33C441.741 280.93 441.891 276.78 447.221 275.59C452.551 274.4 460.551 272.59 465.661 274.04" stroke="#7F1818" stroke-miterlimit="10"/>
<path d="M393.688 139.44C391.758 143.59 389.258 149.08 386.888 153.82C384.518 158.56 383.448 159 379.888 165.82C376.328 172.64 366.428 240.33 365.088 251.45C363.748 262.57 363.758 266.7 361.388 270.26C359.018 273.82 357.388 271.74 357.238 276.78C357.088 281.82 359.318 283.15 360.058 283.15C360.798 283.15 371.778 291.74 373.998 294C376.218 296.26 375.998 297.41 379.908 296.23C383.818 295.05 384.368 289.86 384.078 287.49C383.788 285.12 381.258 291.63 383.488 279.34C385.718 267.05 389.858 229.88 392.818 218.46C395.778 207.04 397.438 166.16 397.818 160.02C398.198 153.88 400.198 147.29 399.958 145.69C399.648 143.35 393.688 139.44 393.688 139.44Z" fill="#971F1E"/>
<path d="M386.258 172.19C386.148 175.74 384.818 197.52 382.148 211.08C379.478 224.64 372.148 244.63 371.928 255.3C371.708 265.97 369.928 275.96 371.928 280.63C373.928 285.3 379.628 286.91 381.818 287.02" stroke="#7F1818" stroke-miterlimit="10"/>
<path d="M370.23 271.74C367.86 271.45 363.92 270.8 361.41 271.74" stroke="#7F1818" stroke-miterlimit="10"/>
<path d="M394.12 139.85C391.057 143.467 388.989 147.82 388.12 152.48C386.71 158.78 383.3 163.59 385.53 165C387.76 166.41 388.53 160.48 391.08 161C393.63 161.52 394.34 166 394.41 166.33" stroke="#7F1818" stroke-miterlimit="10"/>
<path d="M418.151 103.89C422.151 103.74 427.051 113.01 426.001 120.42C424.561 130.68 389.121 140.85 381.931 136.19C379.811 134.81 379.861 132 376.931 131.77C372.111 131.4 366.931 129.24 364.411 128.48C354.781 125.59 358.411 123.74 361.081 120.63C362.351 119.15 365.171 116.88 368.451 113.4C374.271 107.22 371.331 101.19 372.771 100.4C375.491 99 375.511 105.47 418.151 103.89Z" fill="#F6921E" stroke="#E58423" stroke-width="0.5" stroke-miterlimit="10"/>
<path d="M390.559 109.07C389.909 109.23 390.149 109.89 390.559 109.84C390.969 109.79 391.289 108.9 390.559 109.07Z" fill="black" stroke="black" stroke-width="0.59" stroke-miterlimit="10" stroke-linecap="round"/>
<path d="M393.37 108.9C394.02 108.74 394.1 109.44 393.71 109.58C393.32 109.72 392.64 109.07 393.37 108.9Z" fill="black" stroke="black" stroke-width="0.59" stroke-miterlimit="10" stroke-linecap="round"/>
<path d="M379 132.43C379 132.43 392.53 133.89 398.83 128.26" stroke="#E58423" stroke-width="0.5" stroke-miterlimit="10" stroke-linecap="round"/>
<path d="M498.45 126.11C494.94 122.8 491.34 122.56 495.78 108.04C500.22 93.5201 499.63 77.2201 502.89 70.7001C506.15 64.1801 533.71 41.0801 548.52 47.8901C563.33 54.7001 576.67 87.8901 572.23 93.8201C567.79 99.7501 558.3 106.82 554.15 112.82C550 118.82 547 124 546.74 132.93C546.48 141.86 546.63 144.79 546.74 145.67C547.01 147.67 547.04 151 531.34 150.67C515.64 150.34 513 149.22 513 149.22C513 149.22 515.85 137.74 515.07 134.63L514.74 132.74C514.74 132.74 510.07 131.85 509.85 128.41C509.82 128.41 500.58 128.12 498.45 126.11Z" fill="#F5B182"/>
<path d="M569.26 53.9999C571.35 51.9299 573.41 48.9999 577.86 51.7799C582.31 54.5599 583.19 57.8599 581.41 60.7799C579.63 63.6999 576.82 63.8999 574.15 63.0799C571.48 62.2599 567.78 60.1899 568.08 57.9599C568.275 56.5888 568.673 55.2543 569.26 53.9999V53.9999Z" fill="#120E0D"/>
<path d="M515.341 147.74C512.041 149.3 506.711 151.85 503.601 161.52C500.491 171.19 494.821 176.08 498.711 182.08C502.601 188.08 521.931 192.85 527.821 189.08C533.711 185.31 541.931 167.74 544.151 161.96C546.371 156.18 552.711 149.74 552.371 148.96C552.031 148.18 543.041 146.76 541.491 147.08" fill="#F5B182"/>
<path d="M531.711 82.9999C531.711 82.9999 529.111 77.6699 529.711 73.0799L530.151 70.1899" stroke="black" stroke-miterlimit="10" stroke-linecap="round"/>
<path d="M515.34 176.11C513.97 177.046 512.815 178.263 511.953 179.681C511.091 181.098 510.541 182.683 510.34 184.33" stroke="black" stroke-width="0.59" stroke-miterlimit="10" stroke-linecap="round"/>
<path d="M523.832 80.83C523.832 80.83 521.232 75.5 521.832 70.91L522.272 68.02" stroke="black" stroke-miterlimit="10" stroke-linecap="round"/>
<path d="M518.401 103.29C529.011 103.29 537.611 98.0114 537.611 91.5C537.611 84.9885 529.011 79.71 518.401 79.71C507.792 79.71 499.191 84.9885 499.191 91.5C499.191 98.0114 507.792 103.29 518.401 103.29Z" fill="#FFFFFD"/>
<path d="M508.082 94.9401C509.275 94.9401 510.242 93.973 510.242 92.7801C510.242 91.5872 509.275 90.6201 508.082 90.6201C506.889 90.6201 505.922 91.5872 505.922 92.7801C505.922 93.973 506.889 94.9401 508.082 94.9401Z" fill="black"/>
<path d="M571.489 59.89C571.039 58.56 575.339 42.26 556.079 30.56C536.819 18.86 525.709 15.74 525.709 15.74C525.709 15.74 538.709 30.85 538.889 31.3C539.069 31.75 509.889 24.63 503.889 28.48C497.889 32.33 497.369 33.48 497.369 33.48C497.369 33.48 518.499 37.38 514.369 36C513.369 35.65 500.149 37.63 498.809 52.15C497.469 66.67 499.549 77.04 495.549 85.15C491.549 93.26 488.149 97.55 486.809 98.61C485.469 99.67 495.109 100.86 503.109 94.49C511.109 88.12 519.409 76.71 525.329 70.34C531.249 63.97 548.589 61.75 551.409 62.34C551.409 62.34 543.109 70.19 543.409 75.52C543.409 75.52 550.809 71.08 554.809 72.26C554.809 72.26 551.549 73.26 549.919 80.56C548.289 87.86 552.439 88.96 546.659 98.61C540.879 108.26 539.549 110.34 539.549 110.34C539.549 110.34 547.549 110.78 552.289 106.49C557.029 102.2 557.479 108.86 562.069 108.86C566.659 108.86 573.479 106.15 578.809 98.61C584.139 91.07 590.219 93.75 587.809 81.75C585.399 69.75 586.029 65.31 579.959 63.01C573.889 60.71 571.489 59.89 571.489 59.89Z" fill="#612668"/>
<path d="M574.449 53.08C576.369 47.59 584.519 26.26 605.259 24.63C625.999 23 634.149 20.93 643.779 27.15C653.409 33.37 653.709 40.48 653.709 40.48C653.709 40.48 642.599 36.48 641.259 36.63C639.919 36.78 650.739 43.63 652.259 52.04C653.779 60.45 657.589 69.67 653.739 80.78C649.889 91.89 642.479 106.56 638.329 115.15C634.179 123.74 631.659 144.48 638.329 152.63C644.999 160.78 655.659 168.93 659.219 169.96L662.769 170.96C662.769 170.96 659.219 174.52 649.439 174.22C639.659 173.92 627.809 171.11 626.629 170.52C625.449 169.93 617.139 172.89 610.479 166.96C603.819 161.03 594.179 151.96 594.029 141.63C593.879 131.3 593.589 121.78 597.439 112.44C601.289 103.1 602.919 101.04 605.439 89.78C607.959 78.52 612.849 63.11 603.519 59.85C594.189 56.59 581.439 59.11 579.519 59.41C577.599 59.71 574.449 53.08 574.449 53.08Z" fill="#612668"/>
<path d="M516.49 148.41C512.97 149.22 505.6 148.7 502.82 150.72C500.04 152.74 494.04 159.85 492.6 164.72C491.16 169.59 488.82 177.39 487.71 180.28C486.6 183.17 483.26 212.5 481.93 219.72C480.6 226.94 478.93 255.39 475.37 260.39C471.81 265.39 488 267.3 489 267.52C490 267.74 494.78 256.3 497 242.96C498.408 234.276 497.447 225.374 494.22 217.19C493.33 214.63 503.03 155.64 508.67 152.19C514.31 148.74 516.49 148.41 516.49 148.41Z" fill="#F5B182"/>
<path d="M510.492 147.19C513.492 146.82 513.822 148.41 513.822 148.41C513.822 148.41 508.822 155.52 507.932 158.19C507.042 160.86 503.932 164.96 504.042 171.08C504.152 177.2 503.712 181.74 509.602 183.3C515.492 184.86 520.152 183.08 524.372 177.52C528.592 171.96 534.492 164.08 538.602 157.52C542.712 150.96 546.042 147.41 547.262 147.13C548.482 146.85 553.712 147.85 554.042 148.41C554.372 148.97 551.712 151.74 550.492 154.08C549.272 156.42 545.372 161.74 544.602 168.3C543.832 174.86 542.152 185.74 543.262 191.19C544.372 196.64 546.932 203.3 552.492 203.96C558.052 204.62 561.392 199.53 561.392 199.53C561.392 199.53 548.822 220.53 547.392 221.96C545.962 223.39 534.622 259.52 534.282 260.63C533.942 261.74 529.372 264 523.002 263.85C516.632 263.7 509.112 263.52 503.332 261.3C499.452 259.719 495.762 257.706 492.332 255.3C492.332 255.3 496.942 232.3 495.642 227.08C494.342 221.86 492.222 217.85 492.332 216.08C492.332 216.08 490.002 215.52 484.892 206.96C479.782 198.4 477.782 194.3 481.332 188.41C484.882 182.52 496.672 171.41 497.782 168.85C498.892 166.29 510.492 147.19 510.492 147.19Z" fill="#E6E6E6"/>
<path d="M455.602 289.52C455.602 287.63 460.602 277.63 464.602 273.08C468.602 268.53 470.932 262.41 477.492 261.96C484.052 261.51 488.042 263.96 489.372 266.08C490.702 268.2 483.712 290.52 481.712 294.3C479.712 298.08 477.042 301.1 475.712 301.37C474.382 301.64 455.602 289.52 455.602 289.52Z" fill="#5F8E84"/>
<path d="M493.002 252.3C487.002 259.96 485.652 269.43 482.762 281.64C479.872 293.85 477.202 316.64 478.092 322.1H570.762C570.762 322.1 572.422 263.41 572.092 260.74C571.762 258.07 493.002 252.3 493.002 252.3Z" fill="#131313"/>
<path d="M434 320.48C433.8 316.63 440.67 304.85 444.82 300.33C448.97 295.81 454.3 288.48 459.34 288.56C464.38 288.64 472.23 293.45 473.19 297.74C474.225 302.007 474.01 306.482 472.57 310.63C471.04 315.15 470.23 315.63 470.23 319.63C470.23 323.63 465.71 326.37 464.45 323.41C463.19 320.45 464.74 314.17 461.26 316.67C457.78 319.17 449.42 328.04 440.82 326.23C435.6 325.09 434.3 326 434 320.48Z" fill="#F5B182"/>
<path d="M501.93 296.74C509.71 302.85 513.26 303.85 514.82 303.96C516.38 304.07 516.49 305.08 516.49 305.08" stroke="black" stroke-width="0.59" stroke-miterlimit="10" stroke-linecap="round"/>
<path d="M515.602 298.85C515.602 298.85 517.492 311.3 518.712 315.74C519.25 317.898 519.917 320.022 520.712 322.1" stroke="black" stroke-width="0.59" stroke-miterlimit="10" stroke-linecap="round"/>
<path d="M553.779 276.899C552.549 280.035 555.969 284.476 556.166 286.666C556.363 288.855 551.528 288.855 551.454 290.627C551.381 292.398 554.394 292.952 558.22 294.12C562.046 295.289 562.316 300.468 564.986 300.886C567.655 301.304 575.171 300.812 576.463 297.196C577.498 293.44 578.162 289.592 578.443 285.706C578.443 285.362 573.732 285.706 573.732 285.706C573.732 285.706 572.637 293.505 570.927 293.567C569.217 293.628 565.195 283.381 563.891 282.016C562.587 280.651 553.779 276.899 553.779 276.899Z" fill="#E58525"/>
<path d="M556.303 290.085C557.151 289.581 557.533 290.491 557.533 289.47C557.533 288.449 556.918 287.01 557.877 286.899C558.837 286.789 559.181 286.592 560.51 287.994C561.838 289.397 563.376 291.623 564.2 292.066C563.396 292.476 562.483 292.618 561.592 292.472C560.362 292.164 558.049 292.337 556.979 291.451C555.909 290.565 555.884 290.319 556.303 290.085Z" fill="#CB7825"/>
<path d="M500.002 166.68C502.548 165.228 502.917 164.859 507.468 165.044C512.02 165.228 517.678 168.328 521 172.88C524.321 177.431 532.477 191.836 536.844 200.939C541.211 210.042 541.764 213.154 542.994 213.338C544.224 213.523 557.571 208.602 571.422 212.244C585.274 215.885 611.524 227.19 621.857 230.105C632.19 233.02 629.152 234.3 639.35 233.389C649.547 232.479 655.341 230.831 654.837 232.467C654.332 234.103 651.146 236.661 653.016 237.572C654.886 238.482 659.401 238.125 655.759 240.672C652.118 243.218 638.808 250.697 636.077 255.802C633.347 260.907 628.783 272.015 618.573 277.846C608.363 283.677 582.493 293.518 575.519 291.882C568.544 290.245 564.448 286.777 558.211 282.41C551.974 278.043 538.16 268.878 530.865 261.264C523.571 253.649 520.778 256.577 518.109 240.672C518.109 240.672 513.189 229.195 515.366 210.608C517.543 192.02 507.173 187.457 504.295 186.362C501.416 185.267 497 184 496.631 180.9C496.262 177.8 500.002 166.68 500.002 166.68Z" fill="white"/>
<path d="M481.413 169.878C482.077 168.98 486.518 169.19 490.11 168.328C493.702 167.467 495.03 165.868 498.044 165.77C501.058 165.671 502.325 167 502.054 168.87C501.784 170.739 500.32 172.929 499.41 175.205C498.499 177.481 499.311 179.572 497.724 180.027C496.138 180.482 493.259 179.756 490.43 178.169C487.999 176.709 485.684 175.064 483.504 173.249C480.859 171.195 480.589 170.961 481.413 169.878Z" fill="#F6921E"/>
<path d="M560.142 216.979C571.619 216.623 583.834 218.628 594.942 225.184C606.05 231.741 603.553 231.741 609.162 237.756C614.771 243.771 616.272 245.223 619.729 250.143C623.185 255.064 620.454 258.348 616.272 259.443C612.09 260.538 602.605 263.822 595.126 262.728C587.647 261.633 582.924 257.069 575.629 256.712C568.334 256.356 560.142 256.159 557.411 253.428C554.68 250.697 547.385 245.408 546.106 239.392C544.827 233.377 546.106 224.459 551.211 220.94C553.883 219.019 556.924 217.67 560.142 216.979Z" fill="#F1F1F1"/>
<path d="M581.003 236.895C581.408 236.551 585.554 240.18 590.93 238.261C596.305 236.342 596.133 235.53 599.134 235.714C602.136 235.899 607.745 239.626 608.065 239.995C608.385 240.364 605.334 239.724 602.234 239.171C599.163 238.387 595.916 238.677 593.033 239.995C588.924 241.631 588.925 244.005 584.644 241.902C580.363 239.798 580.597 237.19 581.003 236.895Z" fill="white"/>
<path d="M595.849 245.961C596.465 245.961 603.513 251.521 608.79 252.604C614.067 253.686 616.269 254.436 616.171 254.793C616.073 255.15 608.065 256.023 604.153 254.154C600.241 252.284 596.489 250.881 595.849 248.692C595.21 246.502 595.234 245.961 595.849 245.961Z" fill="white"/>
<path d="M601.755 242.037C602.075 241.951 605.446 245.961 610.501 247.327C615.557 248.692 616.652 248.778 616.16 249.332C615.156 249.898 614.041 250.239 612.892 250.333C611.743 250.426 610.587 250.269 609.505 249.873C606.59 248.778 602.936 247.868 602.21 245.961C601.485 244.054 601.46 242.135 601.755 242.037Z" fill="white"/>
<path d="M631.391 239.159C634.86 239.491 638.132 239.675 641.33 237.486C644.528 235.296 646.25 234.472 646.521 234.927C646.792 235.382 646.89 238.101 643.79 239.159C640.69 240.217 638.415 241.041 635.856 241.041C634.193 240.956 632.613 240.29 631.391 239.159V239.159Z" fill="white"/>
<path d="M508.256 172.265C508.915 172.265 509.449 171.731 509.449 171.072C509.449 170.413 508.915 169.878 508.256 169.878C507.597 169.878 507.062 170.413 507.062 171.072C507.062 171.731 507.597 172.265 508.256 172.265Z" fill="black"/>
<path d="M565.837 285.706C567.953 291.377 568.162 297.528 567.129 297.872C566.095 298.217 556.328 297.257 552.441 298.758C548.554 300.259 545.06 301.562 547.041 302.387C549.021 303.211 552.502 300.812 551.826 303.272C551.149 305.733 550.596 307.848 553.253 307.098C555.91 306.348 555.996 306.483 557.558 307.984C559.121 309.484 557.706 310.924 561.532 308.943C565.357 306.963 569.454 304.773 571.09 301.907C572.726 299.041 572.467 290.565 571.988 288.105C571.508 285.645 565.837 285.706 565.837 285.706Z" fill="#F6921E"/>
<path d="M558.788 299.41C556.783 299.582 553.868 299.065 553.019 299.816C552.17 300.566 555.381 300.369 554.692 301.046C554.003 301.723 553.56 302.744 555.098 302.165C556.462 301.441 557.706 300.512 558.788 299.41V299.41Z" fill="#CB7825"/>
<path d="M561.73 301.969C560.635 302.584 556.268 303.272 556.305 304.158C556.342 305.044 558.15 303.986 558.765 305.191C559.38 306.397 560.45 307.406 560.893 306.52C561.313 305.032 561.593 303.508 561.73 301.969V301.969Z" fill="#CB7825"/>
<path d="M506.545 170.826C506.496 171.222 506.578 171.624 506.779 171.97C506.992 172.322 507.322 172.589 507.712 172.722C508.102 172.854 508.526 172.845 508.91 172.695C509.294 172.546 509.612 172.265 509.809 171.903C510.006 171.542 510.069 171.122 509.987 170.718C509.904 170.315 509.682 169.953 509.359 169.698C509.036 169.442 508.633 169.309 508.221 169.322C507.809 169.335 507.415 169.493 507.109 169.768C506.802 170.043 506.603 170.418 506.545 170.826V170.826Z" fill="black"/>
<path d="M506.777 171.97L505.067 170.247C505.038 170.217 505.017 170.18 505.007 170.138C504.997 170.097 504.998 170.054 505.011 170.014C505.023 169.973 505.047 169.937 505.078 169.909C505.11 169.881 505.149 169.862 505.19 169.854L507.749 169.411L506.777 171.97Z" fill="black"/>
<path d="M481.413 169.878C481.745 169.423 484.476 172.671 489.126 174.319C493.53 175.869 499.865 174.061 499.41 175.205C498.499 177.48 499.311 179.572 497.724 180.027C496.138 180.482 493.259 179.756 490.43 178.169C487.999 176.709 485.684 175.064 483.504 173.249C480.859 171.194 480.589 170.961 481.413 169.878Z" fill="#CB7825"/>
<path d="M556.599 205.47C550.599 209.69 539.439 200.17 538.819 194.19C537.929 185.59 549.269 148.82 552.969 148.33C556.669 147.84 562.819 149.74 566.599 153.74C570.379 157.74 588.149 180.63 594.149 185.74C600.149 190.85 619.929 204.41 622.599 215.08C625.269 225.75 625.489 239.74 625.489 249.74C625.489 259.74 626.149 279.3 623.489 283.74C620.829 288.18 617.039 296.41 611.489 298.19C605.939 299.97 601.709 301.74 599.709 301.3C599.208 301.247 598.726 301.079 598.301 300.808C597.876 300.537 597.519 300.172 597.259 299.74C595.654 300.141 593.974 300.141 592.369 299.74C591.621 299.579 590.916 299.258 590.303 298.799C589.69 298.339 589.184 297.753 588.819 297.08C588.819 297.08 583.929 296.19 583.709 294.63C583.489 293.07 589.489 290.85 592.599 289.08C595.709 287.31 598.599 282.19 598.599 281.08C596.53 281.417 594.408 281.021 592.599 279.96C589.709 278.19 587.489 275.52 588.819 274.63C590.149 273.74 595.709 276.85 597.709 274.63C599.709 272.41 601.039 269.52 604.599 269.08L608.149 268.63C608.149 268.63 594.599 221.63 594.449 220.33C594.449 220.33 574.299 207.74 568.369 202.11C562.439 196.48 561.929 196.04 561.929 196.04C561.929 196.04 562.599 201.27 556.599 205.47Z" fill="#F5B182"/>
<path d="M463.259 285.96C464.197 285.96 464.959 285.199 464.959 284.26C464.959 283.321 464.197 282.56 463.259 282.56C462.32 282.56 461.559 283.321 461.559 284.26C461.559 285.199 462.32 285.96 463.259 285.96Z" fill="#102B3C"/>
<path d="M469.259 288.9C470.197 288.9 470.959 288.139 470.959 287.2C470.959 286.261 470.197 285.5 469.259 285.5C468.32 285.5 467.559 286.261 467.559 287.2C467.559 288.139 468.32 288.9 469.259 288.9Z" fill="#102B3C"/>
<path d="M475.632 267.361L468.01 277.079C466.926 278.461 467.167 280.459 468.549 281.543C469.931 282.627 471.93 282.386 473.014 281.004L480.636 271.287C481.72 269.905 481.478 267.906 480.096 266.822C478.714 265.738 476.716 265.979 475.632 267.361Z" fill="#102B3C"/>
<path d="M531.34 107.73C535.34 107.56 541.05 118.26 540 125.67C538.56 135.92 512.37 145.16 505.18 140.49C503.06 139.11 503.12 136.31 500.18 136.08C495.36 135.7 490.18 133.54 487.67 132.79C478.04 129.9 481.67 128.04 484.33 124.93C485.61 123.45 488.42 121.19 491.7 117.7C497.52 111.53 494.58 105.5 496.02 104.7C498.74 103.28 499.63 109.08 531.34 107.73Z" fill="#F6921E" stroke="#E58423" stroke-width="0.5" stroke-miterlimit="10"/>
<path d="M509.82 113.38C509.17 113.53 509.4 114.19 509.82 114.14C510.24 114.09 510.54 113.2 509.82 113.38Z" fill="black" stroke="black" stroke-width="0.59" stroke-miterlimit="10" stroke-linecap="round"/>
<path d="M512.622 113.2C513.272 113.05 513.362 113.74 512.962 113.88C512.562 114.02 511.892 113.37 512.622 113.2Z" fill="black" stroke="black" stroke-width="0.59" stroke-miterlimit="10" stroke-linecap="round"/>
<path d="M502.242 136.73C502.242 136.73 515.782 138.19 522.072 132.56" stroke="#E58423" stroke-width="0.5" stroke-miterlimit="10" stroke-linecap="round"/>
</g>
</g>
<defs>
<clipPath id="clip0_1018_670">
<rect width="1121" height="315" rx="20" fill="white"/>
</clipPath>
<clipPath id="clip1_1018_670">
<rect width="1302" height="315" fill="white" transform="translate(-155)"/>
</clipPath>
</defs>
</svg>
