<svg width="30" height="31" viewBox="0 0 30 31" fill="none" xmlns="http://www.w3.org/2000/svg">
<path d="M15.0872 30.077C23.1432 30.077 29.6738 23.548 29.6738 15.4941C29.6738 7.44014 23.1432 0.911133 15.0872 0.911133C7.03115 0.911133 0.500488 7.44014 0.500488 15.4941C0.500488 23.548 7.03115 30.077 15.0872 30.077Z" fill="#0071BC"/>
<path d="M29.7642 15.494C29.7926 19.4282 28.3845 23.2376 25.804 26.208C24.4619 27.7115 22.8074 28.9038 20.9563 29.7014C19.1052 30.4989 17.1021 30.8826 15.0872 30.8255C13.0916 30.7653 11.1284 30.3052 9.31388 29.4727C7.53833 28.6299 5.93065 27.4717 4.56896 26.0547C1.80956 23.2282 0.187824 19.4848 0.0133923 15.5391C-0.0721212 13.533 0.252578 11.5306 0.967617 9.65435C1.68266 7.77805 2.77305 6.06728 4.17204 4.62668C5.58917 3.17085 7.27774 2.00659 9.14248 1.19964C11.0214 0.398405 13.0445 -0.00979749 15.0872 0.000178533C17.1247 0.0188246 19.1374 0.448259 21.0049 1.26277C22.847 2.084 24.4901 3.29294 25.8221 4.80705C28.3891 7.77345 29.7902 11.5716 29.7642 15.494ZM29.5837 15.494C29.5638 13.6089 29.1433 11.7496 28.3501 10.0394C27.557 8.32907 26.4093 6.80686 24.9831 5.57362C22.2377 3.16849 18.7105 1.84454 15.0602 1.84897C11.4421 1.86476 7.96682 3.26164 5.34474 5.75399C2.71119 8.32268 1.14801 11.7929 0.969599 15.4669C0.894661 17.3311 1.20164 19.1909 1.87168 20.9322C2.55478 22.6811 3.60711 24.2622 4.95685 25.5677C6.30574 26.8336 7.89482 27.8163 9.63019 28.4577C11.3656 29.099 13.2119 29.3858 15.0602 29.3013C18.7207 29.1737 22.2253 27.7881 24.9831 25.3783C26.3784 24.1417 27.5131 22.6394 28.3208 20.9592C29.1406 19.2532 29.5719 17.3867 29.5837 15.494Z" fill="black"/>
<path d="M15.5382 23.4935C19.21 23.4935 22.1866 20.5177 22.1866 16.8468C22.1866 13.176 19.21 10.2002 15.5382 10.2002C11.8665 10.2002 8.88989 13.176 8.88989 16.8468C8.88989 20.5177 11.8665 23.4935 15.5382 23.4935Z" fill="black" stroke="black" stroke-width="0.28" stroke-miterlimit="10"/>
<path d="M11.9299 14.042C13.4245 14.042 14.6362 12.8307 14.6362 11.3364C14.6362 9.84218 13.4245 8.63086 11.9299 8.63086C10.4353 8.63086 9.22363 9.84218 9.22363 11.3364C9.22363 12.8307 10.4353 14.042 11.9299 14.042Z" fill="white"/>
</svg>
