<svg width="55" height="43" viewBox="0 0 55 43" fill="none" xmlns="http://www.w3.org/2000/svg">
<path fill-rule="evenodd" clip-rule="evenodd" d="M2.32656 20.7931C1.79337 21.8232 1.38249 22.6171 1.09009 23.0556C1.09009 23.0556 12.8172 36.5833 18.2297 39.2889C23.6422 41.9944 38.0755 39.2889 44.3901 34.7796C50.7046 30.2704 53.4109 18.5463 53.4109 17.6445C53.4109 16.7426 48.9005 10.4296 48.9005 10.4296C42.5859 2.31297 32.663 0.509266 20.9359 2.31297C11.1095 3.82435 5.08324 15.4671 2.32656 20.7931ZM7.22198 20.8316C6.79118 21.6639 6.45925 22.3051 6.22302 22.6587C6.22302 22.6587 15.6678 33.4989 20.0159 35.6904C24.3639 37.8819 36.0008 35.7085 41.0434 32.083C46.0861 28.4576 48.2601 19.0242 48.2601 18.3027C48.2601 17.5812 44.6517 12.5038 44.6517 12.5038C39.573 5.98343 31.5986 4.53144 22.1718 5.98342C14.2784 7.19924 9.43983 16.5469 7.22198 20.8316Z" fill="#C69C6D"/>
<path d="M1 23.0645C2.31704 20.3589 3.40851 17.7255 4.89695 15.1643C6.32727 12.5805 8.03641 10.1611 9.99374 7.94945C11.988 5.6702 14.4492 3.84632 17.2104 2.60147C17.9084 2.28268 18.6368 2.03492 19.3844 1.86195C20.1167 1.6682 20.861 1.52358 21.6126 1.42906C23.0739 1.22163 24.5534 1.09538 26.0238 1.03225C28.9869 0.909696 31.9542 1.13673 34.8642 1.70864C37.7721 2.28848 40.5563 3.37198 43.0912 4.91021C45.6243 6.44009 47.8289 8.45706 49.5771 10.8444L52.0939 14.4518C52.5089 15.056 52.9148 15.6603 53.2937 16.2555C53.5116 16.5963 53.693 16.959 53.8349 17.3377C53.8928 17.5808 53.8928 17.8341 53.8349 18.0772L53.7357 18.6364C53.4508 20.0871 53.0834 21.5203 52.6352 22.9292C52.2017 24.3561 51.6774 25.7538 51.0656 27.1138C49.8974 29.9055 48.1864 32.4375 46.0319 34.5631C43.6812 36.4737 40.9911 37.924 38.1027 38.8379C35.2972 39.8259 32.3987 40.5269 29.4517 40.9302C26.4639 41.4099 23.4186 41.4099 20.4308 40.9302L19.3213 40.6416C18.9362 40.5226 18.5595 40.378 18.1937 40.2087C17.8322 40.053 17.485 39.8659 17.1563 39.6495C16.8429 39.4545 16.5417 39.2407 16.2542 39.0092C15.0373 38.1204 13.8746 37.1597 12.7722 36.1323C10.6162 34.1392 8.63159 31.9838 6.66505 29.8194C5.67276 28.7371 4.73459 27.6279 3.7874 26.5096L2.38919 24.8321L1.7036 23.9844L1.3608 23.5064C1.23226 23.366 1.11182 23.2185 1 23.0645V23.0645ZM1.18037 23.0645C5.20366 27.1228 9.29913 31.3435 13.7103 35.0772C14.789 36.0115 15.9216 36.8818 17.1022 37.6835C17.3888 37.8864 17.6903 38.0673 18.0042 38.2246C18.2906 38.4021 18.5925 38.553 18.9063 38.6755C19.2005 38.7986 19.5017 38.904 19.8084 38.9912L20.7917 39.2167C23.5837 39.5752 26.4131 39.5235 29.1901 39.0633C32.012 38.654 34.7922 37.9961 37.4982 37.0973C40.1863 36.3035 42.7015 35.0126 44.9134 33.2915C46.9424 31.3443 48.5938 29.0389 49.7846 26.4915C51.0563 23.922 52.0628 21.2296 52.7885 18.456C52.8773 18.1788 52.9259 17.8903 52.9328 17.5993C52.8224 17.2881 52.6867 16.9865 52.527 16.6974C52.1932 16.0751 51.8233 15.4529 51.4444 14.8306C50.6957 13.595 49.8838 12.3866 49.0629 11.2232C48.2307 10.0507 47.2883 8.96052 46.2484 7.96749C45.1886 6.9951 44.0272 6.13943 42.7844 5.41524C40.2813 3.99105 37.5229 3.07182 34.6657 2.70969C31.8248 2.32797 28.9497 2.27048 26.0959 2.53834C24.6706 2.63754 23.2453 2.82693 21.82 3.02534C21.1291 3.11834 20.445 3.25693 19.7723 3.44019C19.099 3.58807 18.443 3.80569 17.8148 4.08952C15.2394 5.22106 12.9219 6.86589 11.0041 8.92345C9.01504 10.9926 7.23811 13.2555 5.69982 15.6783C4.92402 16.8958 4.15728 18.1223 3.41757 19.3759L2.32604 21.2698C1.97884 21.8837 1.5963 22.4769 1.18037 23.0464V23.0645Z" fill="black"/>
<path d="M6.13281 22.6586C7.16119 20.4581 8.02715 18.3388 9.19986 16.2555C10.3273 14.1551 11.6923 12.1912 13.2683 10.4025C14.8787 8.55104 16.8694 7.06839 19.1047 6.05555C19.6838 5.79294 20.2884 5.59047 20.9089 5.45131C21.5027 5.29794 22.1051 5.18048 22.713 5.09959C23.8915 4.93411 25.0779 4.83175 26.2673 4.79296C28.658 4.7067 31.0505 4.90653 33.3937 5.38818C35.7367 5.87589 37.9791 6.76042 40.024 8.00355C42.0616 9.24667 43.836 10.8766 45.2471 12.8014L47.2948 15.6693C47.6286 16.1563 47.9624 16.6433 48.2781 17.1573C48.4515 17.4445 48.5994 17.7463 48.7201 18.0592C48.7644 18.2673 48.7644 18.4824 48.7201 18.6905L48.6389 19.1504C48.1991 21.5005 47.4877 23.7915 46.519 25.9775C45.5825 28.2448 44.2024 30.3022 42.4596 32.0289C40.5591 33.5969 38.3802 34.7932 36.0368 35.5551C33.77 36.354 31.4275 36.9191 29.0457 37.2416C26.6278 37.6201 24.1658 37.6201 21.7479 37.2416C21.1282 37.0955 20.524 36.8901 19.9437 36.6283C19.6463 36.5039 19.3622 36.3498 19.0957 36.1684C18.8255 36.0119 18.5663 35.8371 18.3199 35.6453C17.3728 34.9268 16.4692 34.1529 15.6137 33.3275C13.8817 31.6952 12.294 29.9636 10.7244 28.205C9.93957 27.3032 9.19087 26.4013 8.44214 25.4995L7.33254 24.1377L6.78229 23.4523L6.51167 23.1006C6.37514 22.9623 6.24855 22.8147 6.13281 22.6586ZM6.31319 22.6586C9.58775 25.8512 12.9345 29.2512 16.4616 32.2093C17.3246 32.9446 18.2281 33.6311 19.1679 34.2655C20.0272 34.8841 21.0185 35.2947 22.0636 35.4649C24.2893 35.7484 26.5446 35.7028 28.757 35.3297C31.0144 35.0044 33.239 34.4824 35.4054 33.7695C37.5505 33.1305 39.5575 32.0967 41.323 30.7212C42.9447 29.1711 44.2686 27.3372 45.229 25.3101C46.2594 23.258 47.0785 21.1066 47.6737 18.8889C47.7423 18.6819 47.7817 18.4664 47.791 18.2486C47.7115 18.0077 47.6088 17.7752 47.4843 17.5542C47.2227 17.0491 46.925 16.5531 46.6273 16.0481C46.0319 15.056 45.3914 14.082 44.7329 13.1171C43.4223 11.2131 41.7025 9.62622 39.6993 8.47251C37.6937 7.35153 35.4865 6.63744 33.2043 6.3712C30.9262 6.08738 28.6235 6.06016 26.3394 6.29003C25.1938 6.3712 24.0572 6.53353 22.9115 6.69586C22.3636 6.76751 21.8211 6.87598 21.2878 7.02053C20.7552 7.14142 20.2356 7.31358 19.7362 7.53459C17.6931 8.43622 15.8524 9.73973 14.3237 11.3675C12.7297 13.0312 11.2979 14.8431 10.0478 16.7786C9.41035 17.7466 8.78791 18.7296 8.1805 19.7276L7.27842 21.2337C6.98671 21.7255 6.66432 22.1984 6.31319 22.6496V22.6586Z" fill="black"/>
</svg>
