<svg width="1267" height="984" viewBox="0 0 1267 984" fill="none" xmlns="http://www.w3.org/2000/svg">
<g clip-path="url(#clip0_487_79)">
<path d="M768.49 825.42C765.982 829.181 768.49 795.343 783.528 793.909C798.565 792.475 794.993 816.825 793.559 817.538C792.125 818.25 774.218 816.825 768.49 825.42Z" fill="#666666" stroke="black" stroke-width="2" stroke-miterlimit="10"/>
<path d="M796.734 655.421C825.601 676.164 861.684 686.084 867.999 721.256C874.313 756.428 886.942 793.404 858.076 797.012C829.209 800.619 807.559 787.091 796.734 789.797C785.909 792.502 791.322 814.147 791.322 814.147C791.322 814.147 774.182 810.539 771.476 814.147C768.77 817.754 762.455 837.595 771.476 848.417C780.497 859.24 891.453 856.534 913.103 848.417C934.753 840.301 937.459 826.773 934.753 793.404C932.047 760.036 965.424 717.649 953.697 702.317C941.97 686.986 925.732 655.421 925.732 655.421C925.732 655.421 855.37 629.267 829.209 640.089C803.049 650.912 796.734 655.421 796.734 655.421Z" fill="#F2F2F2" stroke="black" stroke-width="2" stroke-miterlimit="10"/>
<path d="M747.742 852.475C745.234 856.236 747.742 822.399 762.78 820.965C777.817 819.531 774.245 843.881 772.811 844.593C771.376 845.306 753.47 843.881 747.742 852.475Z" fill="#666666" stroke="black" stroke-width="2" stroke-miterlimit="10"/>
<path d="M662.297 225.012C695.674 234.932 747.093 228.619 827.378 286.338C907.664 344.056 885.111 327.823 944.649 361.192C1004.19 394.56 1122.36 592.968 1150.32 635.355C1178.29 677.742 1218.88 768.829 1232.41 808.51C1245.94 848.192 1249.55 877.953 1219.78 905.91C1190.02 933.868 1171.07 928.456 1167.46 924.849C1142.62 900.012 1107.02 867.131 1083.57 833.762C1060.12 800.393 1052 766.123 988.851 733.656C925.705 701.19 886.916 693.073 843.616 673.232C800.316 653.392 767.841 669.625 745.288 647.981C722.736 626.336 595.543 500.077 575.697 477.531C555.851 454.984 508.041 434.242 512.551 399.069C517.061 363.897 530.593 352.173 505.334 332.332C480.076 312.492 406.105 256.577 389.868 235.834C373.63 215.092 330.33 217.797 281.618 225.012C281.618 225.012 174.27 96.0472 238.318 51.8565C302.366 7.66577 328.526 -9.46942 392.574 14.8806C456.622 39.2306 537.809 90.6361 603.661 179.018L662.297 225.012Z" fill="#F2F2F2" stroke="black" stroke-width="2" stroke-miterlimit="10"/>
<path d="M1005.99 809.412C989.888 811.712 1015.91 752.595 1060.12 758.006C1104.32 763.418 1192.72 839.173 1212.57 847.29C1232.41 855.406 1243.18 855.551 1241.08 874.697C1239.61 888.144 1233.32 947.395 1183.7 936.573C1134.09 925.751 1075.45 803.099 1054.7 801.295C1033.96 799.492 1024.93 806.706 1005.99 809.412Z" fill="#F2F2F2" stroke="black" stroke-width="2" stroke-miterlimit="10"/>
<path d="M848.577 626.661C848.577 626.661 932.002 615.514 971.693 588.458C1011.39 561.403 983.42 420.714 932.002 402.677C880.583 384.64 848.108 383.738 848.108 383.738C832.773 407.186 837.283 424.321 793.983 435.144C750.683 445.966 681.223 472.12 653.258 499.175C625.293 526.231 587.406 528.936 591.014 583.949C594.623 638.962 605.448 677.742 624.391 715.62C643.335 753.497 662.279 790.473 659.573 797.688C656.866 804.903 603.643 881.56 591.014 886.971C578.385 892.382 530.575 877.051 519.75 880.658C508.925 884.266 488.177 887.873 487.275 898.695C486.373 909.518 476.45 939.279 491.785 945.592C507.121 951.905 530.575 949.199 530.575 949.199C530.575 949.199 534.183 972.647 581.091 961.825C628 951.003 664.083 949.199 669.495 938.377C674.908 927.555 661.377 912.223 683.027 890.579C704.677 868.934 722.718 842.781 733.543 836.468C744.368 830.155 759.704 802.197 740.76 779.651C721.816 757.105 715.502 726.442 722.718 694.877C729.935 663.312 738.054 645.275 722.718 629.944C722.718 629.944 777.745 665.116 852.618 624.532" fill="#F2F2F2"/>
<path d="M794.001 435.144C750.701 445.966 681.241 472.119 653.276 499.175C625.311 526.231 587.424 528.936 591.032 583.949C594.641 638.962 605.466 677.742 624.409 715.619C643.353 753.497 662.297 790.473 659.591 797.688C656.884 804.903 603.661 881.56 591.032 886.971C578.403 892.382 530.593 877.051 519.768 880.658C508.943 884.266 488.195 887.873 487.293 898.695C486.391 909.518 476.468 939.279 491.803 945.592C507.139 951.905 530.593 949.199 530.593 949.199C530.593 949.199 534.201 972.647 581.109 961.825C628.018 951.003 664.101 949.199 669.514 938.377C674.926 927.555 661.395 912.223 683.045 890.579C704.695 868.934 722.736 842.781 733.561 836.468C744.386 830.155 759.722 802.197 740.778 779.651C721.834 757.105 715.52 726.442 722.736 694.877C729.953 663.312 738.072 645.275 722.736 629.944" fill="#F2F2F2"/>
<path d="M794.001 435.144C750.701 445.966 681.241 472.119 653.276 499.175C625.311 526.231 587.424 528.936 591.032 583.949C594.641 638.962 605.466 677.742 624.409 715.619C643.353 753.497 662.297 790.473 659.591 797.688C656.884 804.903 603.661 881.56 591.032 886.971C578.403 892.382 530.593 877.051 519.768 880.658C508.943 884.266 488.195 887.873 487.293 898.695C486.391 909.518 476.468 939.279 491.803 945.592C507.139 951.905 530.593 949.199 530.593 949.199C530.593 949.199 534.201 972.647 581.109 961.825C628.018 951.003 664.101 949.199 669.514 938.377C674.926 927.555 661.395 912.223 683.045 890.579C704.695 868.934 722.736 842.781 733.561 836.468C744.386 830.155 759.722 802.197 740.778 779.651C721.834 757.105 715.52 726.442 722.736 694.877C729.953 663.312 738.072 645.275 722.736 629.944" stroke="black" stroke-width="2" stroke-miterlimit="10"/>
<path d="M462.936 946.494C459.77 951.237 462.936 908.616 481.88 906.812C500.824 905.008 496.314 935.671 494.509 936.573C492.705 937.475 470.153 935.671 462.936 946.494Z" fill="#666666" stroke="black" stroke-width="2" stroke-miterlimit="10"/>
<path d="M524.278 969.04C521.112 973.784 524.278 931.162 543.222 929.358C562.166 927.555 557.655 958.218 555.851 959.119C554.047 960.021 531.495 958.218 524.278 969.04Z" fill="#666666" stroke="black" stroke-width="2" stroke-miterlimit="10"/>
<path d="M827.73 408.846C831.538 408.583 835.315 407.979 839.015 407.042C842.732 406.203 846.421 405.184 850.138 404.255C857.569 402.262 865.141 400.839 872.789 399.998C874.711 399.818 876.641 399.737 878.563 399.629C880.484 399.52 882.415 399.529 884.336 399.629L887.223 399.737L888.657 399.791L890.1 399.926C892.013 400.098 893.925 400.215 895.828 400.485C903.449 401.513 910.959 403.239 918.263 405.644C925.602 407.996 932.7 411.04 939.462 414.735C946.314 418.357 952.647 422.886 958.289 428.199C959.677 429.575 960.978 431.036 962.186 432.573C963.423 434.112 964.493 435.778 965.379 437.542C965.612 437.981 965.82 438.433 966.002 438.895C966.173 439.355 966.399 439.797 966.543 440.275L967.445 442.981L968.284 445.758C968.518 446.66 968.789 447.625 968.996 448.572C969.441 450.459 969.769 452.372 969.98 454.299C970.205 456.22 970.296 458.141 970.494 460.026C970.919 463.807 971.869 467.51 973.318 471.028L973.155 471.1C971.394 467.656 970.176 463.96 969.547 460.143C969.258 458.231 969.078 456.319 968.78 454.452C968.482 452.585 968.076 450.737 967.598 448.906C967.355 448.004 967.075 447.102 966.813 446.2L965.911 443.495L964.919 440.789C964.766 440.329 964.558 439.887 964.378 439.508C964.203 439.083 963.998 438.67 963.764 438.273C961.924 435.019 959.601 432.063 956.873 429.507C954.148 426.892 951.236 424.481 948.158 422.292C945.073 420.08 941.872 418.033 938.569 416.16C931.938 412.404 925.019 409.183 917.875 406.528C910.73 403.815 903.286 401.965 895.702 401.017C888.106 400.276 880.45 400.424 872.888 401.459C865.338 402.406 857.86 403.894 850.4 405.59C846.665 406.429 842.921 407.24 839.142 407.944C837.256 408.313 835.344 408.566 833.431 408.782L830.554 409.008H827.667L827.73 408.846Z" fill="black"/>
<path d="M827.721 418.071C830.545 417.476 833.386 417.016 836.246 416.673C837.671 416.493 839.105 416.358 840.54 416.241C841.974 416.123 843.408 416.033 844.843 416.015C847.729 416.015 850.616 416.114 853.485 416.15H857.797C859.24 416.15 860.674 416.042 862.118 416.06C865.006 415.967 867.898 416.045 870.778 416.295C872.212 416.448 873.655 416.538 875.09 416.737C876.524 416.935 877.958 417.16 879.384 417.44C885.111 418.527 890.586 420.667 895.531 423.753L895.441 423.915C890.13 421.855 884.627 420.329 879.014 419.361L874.819 418.631C873.421 418.378 872.005 418.225 870.597 418.017C869.19 417.81 867.765 417.72 866.348 417.53C864.932 417.341 863.507 417.224 862.082 417.079C860.656 416.935 859.222 416.836 857.797 416.8C856.371 416.764 854.928 416.746 853.494 416.8L851.347 416.917L849.209 417.124C847.783 417.26 846.358 417.413 844.933 417.575C842.082 417.837 839.223 417.99 836.363 418.134C833.504 418.279 830.626 418.36 827.739 418.315L827.721 418.071Z" fill="black"/>
<path d="M824.564 423.69C826.624 424.595 828.468 425.926 829.977 427.595C830.64 428.431 831.364 429.218 832.142 429.949C832.936 430.615 833.823 431.162 834.776 431.572C836.747 432.425 838.787 433.11 840.874 433.619C841.92 433.908 842.976 434.169 844.04 434.422C845.104 434.675 846.151 434.954 847.215 435.189C851.455 436.226 855.74 437.191 860.07 437.894C864.4 438.598 868.757 439.139 873.105 439.905C875.296 440.279 877.458 440.809 879.573 441.493C880.643 441.836 881.694 442.237 882.721 442.692C883.245 442.899 883.732 443.197 884.237 443.459C884.746 443.711 885.237 443.997 885.707 444.315L887.123 445.262L888.45 446.363C889.352 447.093 890.073 447.851 890.894 448.599C892.5 450.105 894.061 451.656 895.612 453.226C898.713 456.358 901.626 459.67 904.335 463.146C905.693 464.904 906.926 466.754 908.025 468.683C908.573 469.657 909.04 470.673 909.423 471.723C909.841 472.769 910.043 473.888 910.018 475.014H909.838C909.603 472.85 908.413 470.956 907.24 469.161C906.008 467.376 904.67 465.665 903.235 464.039C900.375 460.756 897.344 457.618 894.214 454.542L889.559 449.916C888.783 449.167 888.008 448.338 887.223 447.652L886.041 446.615L884.751 445.713C882.97 444.534 881.061 443.563 879.059 442.818C877.035 442.047 874.969 441.39 872.871 440.852C868.611 439.821 864.299 439.02 859.953 438.453C855.605 437.858 851.221 437.407 846.882 436.65C845.799 436.451 844.708 436.244 843.634 435.973C842.561 435.703 841.487 435.477 840.423 435.152C838.243 434.592 836.127 433.809 834.108 432.817C833.061 432.311 832.102 431.641 831.267 430.833C830.49 430.017 829.79 429.133 829.174 428.19C828.541 427.328 827.825 426.531 827.036 425.809C826.612 425.476 826.206 425.115 825.764 424.799L824.429 423.843L824.564 423.69Z" fill="black"/>
<path d="M867.232 432.095C869.127 431.924 870.994 431.888 872.87 431.843C874.748 431.787 876.627 431.835 878.499 431.987C880.376 432.176 882.252 432.546 884.119 432.754C885.021 432.853 885.995 432.925 886.934 432.997C887.872 433.069 888.828 433.06 889.766 433.159C891.673 433.239 893.568 433.486 895.431 433.899C897.316 434.281 899.161 434.837 900.943 435.558C904.53 437.024 907.649 439.441 909.964 442.548L909.838 442.674C906.892 440.449 903.645 438.655 900.194 437.344C898.498 436.686 896.775 436.045 894.998 435.54C894.096 435.243 893.194 435.08 892.292 434.819C891.39 434.557 890.488 434.359 889.586 434.133C887.764 433.689 885.903 433.423 884.029 433.34H882.622L881.214 433.394L878.4 433.52C876.52 433.535 874.641 433.451 872.771 433.268C870.879 433.112 869.004 432.789 867.169 432.303L867.232 432.095Z" fill="black"/>
<path d="M806.928 429.705C808.642 430.319 810.257 431.076 811.881 431.825C813.514 432.553 815.107 433.369 816.653 434.269C818.218 435.222 819.681 436.334 821.019 437.587C822.321 438.891 823.405 440.395 824.23 442.043C824.672 442.836 825.024 443.729 825.403 444.496C825.782 445.262 826.17 446.029 826.576 446.786C827.495 448.237 828.517 449.621 829.634 450.926C831.912 453.627 834.371 456.17 836.995 458.538L836.904 458.691C835.239 457.941 833.666 457.003 832.214 455.895C830.744 454.796 829.39 453.551 828.172 452.179C826.962 450.77 825.927 449.219 825.087 447.562C824.667 446.728 824.32 445.859 824.05 444.965C823.743 444.063 823.617 443.242 823.319 442.394C822.863 440.696 821.922 439.167 820.613 437.993C819.169 436.982 817.598 436.166 815.94 435.567C814.307 434.82 812.722 433.97 811.195 433.024C809.649 432.086 808.185 431.018 806.82 429.832L806.928 429.705Z" fill="black"/>
<path d="M843.913 298.756C844.033 299.898 843.875 301.052 843.453 302.12C843.085 303.193 842.61 304.226 842.037 305.205C840.926 307.148 839.604 308.963 838.095 310.616C836.579 312.248 834.865 313.682 833.305 315.233C831.744 316.784 830.229 318.39 828.731 320.022C827.234 321.654 825.691 323.242 824.05 324.721C822.408 326.2 820.766 327.688 819.016 329.05C815.538 331.804 811.772 334.174 807.785 336.12L807.695 335.967C811.078 333.108 814.451 330.339 817.816 327.543L822.931 323.44C824.618 322.033 826.332 320.671 828.055 319.3C829.773 317.919 831.386 316.412 832.881 314.791C834.36 313.168 835.587 311.355 836.94 309.615C838.293 307.874 839.646 306.197 840.855 304.429C841.479 303.561 842.051 302.658 842.569 301.723C843.12 300.8 843.513 299.791 843.733 298.738L843.913 298.756Z" fill="black"/>
<path d="M852.799 304.826C852.919 305.968 852.761 307.122 852.339 308.19C851.971 309.262 851.496 310.296 850.923 311.274C849.816 313.22 848.494 315.035 846.981 316.685C845.465 318.318 843.76 319.752 842.191 321.294C840.621 322.836 839.115 324.459 837.617 326.083C836.137 327.727 834.574 329.295 832.935 330.781C831.303 332.278 829.652 333.757 827.911 335.119C824.43 337.869 820.665 340.24 816.68 342.19L816.581 342.036C819.963 339.177 823.337 336.409 826.711 333.613L831.826 329.501C833.504 328.103 835.227 326.741 836.941 325.37C838.663 323.993 840.276 322.486 841.767 320.861C843.205 319.207 844.56 317.483 845.826 315.693C847.143 313.953 848.532 312.275 849.741 310.508C850.36 309.635 850.935 308.732 851.464 307.802C852.007 306.875 852.396 305.867 852.619 304.817L852.799 304.826Z" fill="black"/>
<path d="M811.908 275.182C812.027 276.324 811.869 277.478 811.448 278.546C811.079 279.619 810.605 280.652 810.031 281.63C808.918 283.572 807.597 285.387 806.089 287.041C804.574 288.674 802.86 290.108 801.299 291.65C799.739 293.192 798.223 294.815 796.726 296.439C795.245 298.083 793.682 299.651 792.044 301.137C790.411 302.634 788.76 304.114 787.01 305.475C783.532 308.229 779.767 310.6 775.779 312.546L775.689 312.393C779.072 309.534 782.446 306.765 785.81 303.969L790.925 299.857C792.612 298.459 794.326 297.097 796.049 295.726C797.769 294.347 799.383 292.84 800.875 291.217C802.355 289.603 803.581 287.79 804.935 286.049C806.288 284.309 807.641 282.631 808.85 280.864C809.471 279.995 810.043 279.091 810.564 278.158C811.113 277.234 811.506 276.225 811.727 275.173L811.908 275.182Z" fill="black"/>
<path d="M1071.18 512.441C1071.4 515.41 1071.34 518.392 1071.02 521.352C1070.71 524.34 1070 527.273 1068.91 530.073C1067.72 532.821 1066.26 535.441 1064.54 537.892C1062.9 540.372 1060.93 542.626 1059.48 545.106C1056.62 550.175 1054.88 555.775 1053.06 561.34C1052.16 564.126 1051.19 566.94 1050.05 569.691C1049.02 572.504 1047.49 575.11 1045.54 577.384L1045.4 577.266C1046.86 574.735 1047.98 572.029 1048.75 569.213L1051.27 560.754C1052.15 557.928 1053.17 555.138 1054.33 552.384C1055.46 549.606 1056.92 546.975 1058.68 544.547C1060.49 542.103 1062.58 540.038 1064.09 537.522C1065.58 535.01 1066.74 532.322 1067.56 529.522C1068.45 526.764 1069.16 523.95 1069.69 521.099C1070.22 518.231 1070.59 515.318 1071.06 512.387L1071.18 512.441Z" fill="black"/>
<path d="M1062.37 561.673C1062.28 563.603 1062.03 565.488 1061.76 567.382C1061.5 569.27 1061.13 571.143 1060.67 572.992C1060.16 574.795 1059.48 576.599 1058.98 578.484C1058.48 580.369 1058.08 582.199 1057.71 584.075C1057.35 585.974 1056.84 587.841 1056.18 589.658C1055.57 591.506 1054.78 593.291 1053.82 594.988C1051.87 598.343 1049.07 601.454 1045.48 603.014L1045.39 602.861C1048.17 600.366 1050.46 597.378 1052.14 594.05C1052.58 593.229 1053.04 592.426 1053.42 591.579C1053.8 590.731 1054.27 589.91 1054.6 589.036C1054.94 588.161 1055.35 587.313 1055.69 586.429C1056.02 585.545 1056.44 584.689 1056.76 583.796C1057.46 582.043 1058.02 580.232 1058.41 578.385C1058.8 576.518 1058.92 574.597 1059.2 572.721C1059.49 570.838 1059.89 568.971 1060.39 567.13C1060.86 565.268 1061.46 563.442 1062.19 561.664L1062.37 561.673Z" fill="black"/>
<path d="M1085.61 552.06C1085.11 554.747 1084.31 557.371 1083.25 559.888C1082.73 561.141 1082.17 562.368 1081.68 563.585C1081.21 564.795 1080.81 566.036 1080.51 567.301C1079.91 569.9 1079.61 572.56 1079.61 575.228C1079.61 576.581 1079.68 577.934 1079.81 579.268L1080.12 583.345C1080.23 586.105 1079.97 588.867 1079.36 591.561C1078.77 594.27 1077.83 596.892 1076.57 599.362C1075.29 601.815 1073.71 604.101 1071.87 606.171C1070.07 608.255 1067.93 610.031 1065.56 611.428L1065.46 611.284C1066.45 610.39 1067.39 609.432 1068.27 608.416C1068.71 607.911 1069.17 607.406 1069.55 606.874C1069.93 606.342 1070.35 605.819 1070.75 605.278C1072.3 603.137 1073.67 600.868 1074.84 598.496L1075.74 596.692C1075.98 596.079 1076.23 595.466 1076.49 594.888C1076.75 594.311 1076.94 593.653 1077.17 593.085C1077.4 592.465 1077.59 591.833 1077.75 591.191L1078.25 589.27L1078.61 587.322L1078.81 586.348L1078.92 585.356L1079.17 583.372C1079.17 582.037 1079.29 580.711 1079.23 579.35L1079.07 575.291C1078.81 572.553 1078.81 569.796 1079.07 567.057C1079.29 565.672 1079.68 564.32 1080.24 563.035C1080.78 561.754 1081.4 560.546 1082.05 559.346C1083.28 556.966 1084.37 554.522 1085.51 552.051L1085.61 552.06Z" fill="black"/>
<path d="M514.987 238.242C517.693 240.226 520.399 242.147 523.106 243.752C523.773 244.167 524.477 244.501 525.144 244.88C525.812 245.259 526.515 245.556 527.201 245.827C528.479 246.391 529.821 246.797 531.197 247.035C532.293 247.244 533.421 247.204 534.499 246.918C534.888 246.8 535.254 246.617 535.581 246.377C535.874 246.169 536.122 245.906 536.312 245.601C537.151 244.438 537.214 242.174 536.583 239.793L534.679 232.957L541.156 234.617C541.689 234.752 542.374 234.896 542.96 235.023C543.547 235.149 544.241 235.302 544.891 235.419C546.19 235.678 547.489 235.912 548.788 236.123C551.326 236.599 553.917 236.738 556.492 236.538C558.954 236.276 561.228 235.302 561.976 233.264C562.049 233.002 562.139 232.75 562.202 232.47L562.31 231.623C562.317 231.017 562.262 230.413 562.148 229.819C561.892 228.55 561.474 227.319 560.903 226.157L558.494 220.9L563.095 224.507C565.364 226.293 567.834 227.806 570.456 229.016C571.71 229.583 573.011 230.039 574.344 230.378C575.428 230.691 576.569 230.756 577.682 230.567C577.965 230.521 578.226 230.381 578.421 230.171C578.421 230.044 578.512 230.053 578.512 229.918C578.524 229.874 578.542 229.831 578.566 229.792C578.566 229.747 578.566 229.657 578.566 229.593C578.786 228.71 578.866 227.796 578.8 226.888C578.614 224.268 578.17 221.673 577.474 219.141L574.984 209.608L584.005 214.677C585.07 215.272 586.333 215.93 587.523 216.48C588.714 217.031 589.932 217.599 591.132 218.059C592.259 218.52 593.417 218.906 594.596 219.213L595.381 219.393L596.102 219.52H596.689C596.812 219.512 596.935 219.512 597.058 219.52C597.103 219.52 597.203 219.52 597.103 219.52C597.004 219.52 597.103 219.52 596.995 219.574C596.92 219.595 596.852 219.635 596.797 219.691C596.752 219.754 596.625 219.79 596.571 219.871C596.517 219.953 596.454 220.052 596.391 220.088C596.336 220.142 596.298 220.211 596.283 220.286C596.283 220.358 596.283 220.286 596.283 220.358C596.283 220.431 596.283 220.422 596.283 220.358C596.278 220.316 596.278 220.274 596.283 220.232C596.283 220.178 596.328 220.169 596.328 220.088V219.817C596.339 219.374 596.318 218.931 596.265 218.492C596.091 217.31 595.829 216.143 595.48 215.001C595.146 213.766 594.695 212.503 594.253 211.241L590.581 200.635L599.945 205.667C600.847 206.163 602.02 206.704 603.093 207.155C604.167 207.606 605.276 208.057 606.368 208.454C607.415 208.822 608.485 209.123 609.57 209.356C610.456 209.569 611.366 209.66 612.277 209.626H612.529C612.589 209.623 612.649 209.623 612.71 209.626C612.863 209.626 612.917 209.572 613.034 209.563L613.287 209.464C613.341 209.374 613.485 209.365 613.53 209.212C613.948 208.381 614.123 207.45 614.036 206.524C613.778 204.049 613.264 201.606 612.502 199.237L613.296 198.804C613.72 199.309 614.126 199.832 614.55 200.355C614.974 200.878 615.317 201.447 615.704 201.997C616.476 203.165 617.123 204.41 617.635 205.712L617.987 206.777C618.094 207.161 618.173 207.553 618.221 207.949C618.294 208.375 618.324 208.807 618.311 209.239C618.317 209.716 618.262 210.191 618.149 210.655C618.033 211.172 617.851 211.672 617.608 212.143C617.336 212.637 617.003 213.094 616.616 213.504C616.237 213.894 615.809 214.234 615.344 214.514C615.125 214.656 614.899 214.785 614.667 214.902L614 215.182C612.415 215.749 610.739 216.018 609.056 215.975C607.59 215.962 606.127 215.835 604.681 215.597C603.283 215.371 601.912 215.065 600.568 214.695C599.223 214.325 597.961 213.946 596.526 213.423L602.182 207.796C603.695 210.65 604.853 213.678 605.628 216.814C605.718 217.274 605.782 217.716 605.854 218.23C605.929 218.738 605.965 219.25 605.962 219.763V220.575C605.962 220.854 605.908 221.197 605.881 221.477L605.745 222.379C605.659 222.736 605.553 223.088 605.43 223.434C605.321 223.806 605.179 224.169 605.006 224.516C604.795 224.895 604.57 225.265 604.329 225.625C604.067 225.997 603.765 226.339 603.427 226.644C603.11 226.98 602.76 227.282 602.381 227.546C602.02 227.781 601.632 228.006 601.253 228.205C600.898 228.383 600.526 228.528 600.144 228.637C599.473 228.857 598.78 229.002 598.078 229.07C597.477 229.111 596.874 229.111 596.274 229.07C595.75 229.016 595.227 228.962 594.731 228.89C594.235 228.818 593.775 228.719 593.324 228.61L592.025 228.259C590.447 227.759 588.909 227.141 587.424 226.41C585.99 225.715 584.637 224.967 583.311 224.173C581.985 223.38 580.749 222.586 579.396 221.648L585.909 217.184C586.524 220.453 586.709 223.788 586.459 227.104C586.348 228.061 586.151 229.005 585.873 229.927L585.656 230.658L585.322 231.424L584.971 232.173C584.817 232.434 584.646 232.696 584.474 232.948C584.308 233.207 584.124 233.454 583.924 233.688C583.699 233.922 583.464 234.157 583.22 234.382C582.721 234.827 582.166 235.206 581.57 235.51C580.464 236.024 579.253 236.271 578.033 236.231C576.159 236.119 574.331 235.602 572.675 234.716C571.232 233.984 569.848 233.143 568.535 232.2C566.032 230.407 563.623 228.486 561.318 226.446L563.519 224.805C563.772 225.508 564.069 226.184 564.304 226.897C564.535 227.626 564.728 228.366 564.881 229.115C565.268 230.713 565.268 232.379 564.881 233.976C564.404 235.675 563.399 237.178 562.012 238.269C560.717 239.289 559.264 240.09 557.71 240.641C554.803 241.683 551.768 242.323 548.689 242.544C547.188 242.66 545.683 242.699 544.178 242.661C543.439 242.661 542.69 242.598 541.941 242.535C541.192 242.472 540.48 242.4 539.632 242.273L544.205 237.088C544.951 239.145 545.258 241.335 545.107 243.518C545.022 244.705 544.77 245.874 544.359 246.99C543.725 248.805 542.613 250.415 541.139 251.65C539.666 252.885 537.886 253.7 535.987 254.007C533.791 254.323 531.551 254.106 529.456 253.375C527.626 252.719 525.899 251.808 524.323 250.67C522.846 249.625 521.479 248.432 520.246 247.107C517.846 244.592 515.836 241.732 514.283 238.621L514.987 238.242Z" fill="#E6E6E6"/>
<path d="M562.725 323.26C564.683 324.549 566.55 325.821 568.426 326.867C570.113 327.882 571.967 328.587 573.902 328.95C574.597 329.069 575.31 329.025 575.986 328.824C576.386 328.692 576.728 328.424 576.951 328.067C577.439 326.936 577.477 325.662 577.059 324.504L575.616 319.093L580.722 320.401C581.47 320.59 582.409 320.789 583.266 320.978C584.123 321.167 585.07 321.348 585.9 321.501C587.609 321.864 589.359 322.003 591.105 321.916C592.764 321.79 594.262 321.186 594.767 319.878C594.812 319.706 594.875 319.535 594.92 319.364L594.993 318.796C595.001 318.39 594.964 317.985 594.884 317.587C594.716 316.729 594.431 315.897 594.036 315.116L592.079 310.913L595.795 313.79C597.346 314.998 599.039 316.01 600.838 316.803C601.692 317.184 602.58 317.486 603.49 317.704C604.2 317.896 604.946 317.915 605.664 317.758C605.737 317.746 605.806 317.716 605.865 317.672C605.925 317.629 605.973 317.572 606.007 317.506C605.991 317.413 605.991 317.319 606.007 317.226C606.08 316.67 606.101 316.109 606.07 315.549C605.912 313.795 605.592 312.059 605.114 310.363L603.066 302.824L610.283 306.801C611.844 307.656 613.459 308.409 615.118 309.056C615.87 309.358 616.641 309.608 617.427 309.804C617.907 309.949 618.406 310.016 618.907 310.003C618.907 310.003 618.907 310.003 618.817 310.003C618.688 310.048 618.566 310.112 618.456 310.192C618.193 310.371 617.992 310.626 617.878 310.922C617.87 310.952 617.87 310.983 617.878 311.013C617.874 310.998 617.874 310.982 617.878 310.968C617.878 310.968 617.878 310.968 617.878 310.913V310.76C617.894 310.49 617.894 310.219 617.878 309.948C617.609 308.287 617.177 306.656 616.589 305.078L613.603 296.367L621.108 300.578C621.721 300.921 622.497 301.3 623.219 301.615C623.94 301.931 624.68 302.256 625.411 302.517C626.106 302.785 626.817 303.011 627.54 303.194C628.1 303.341 628.675 303.422 629.254 303.437H629.506C629.597 303.437 629.606 303.437 629.669 303.437C629.72 303.452 629.774 303.451 629.825 303.433C629.875 303.415 629.918 303.382 629.948 303.338C630.241 302.824 630.367 302.231 630.309 301.642C630.181 299.947 629.879 298.27 629.407 296.637L630.039 296.285C631.353 297.662 632.416 299.258 633.178 301.002C633.658 302.109 633.799 303.333 633.584 304.519C633.5 304.898 633.37 305.264 633.196 305.611C632.997 305.972 632.754 306.308 632.474 306.612C632.205 306.897 631.902 307.149 631.572 307.36C631.266 307.558 630.94 307.721 630.598 307.847C629.475 308.264 628.286 308.472 627.089 308.46C626.062 308.462 625.036 308.384 624.022 308.226C623.047 308.082 622.091 307.883 621.153 307.649C620.215 307.414 619.349 307.162 618.339 306.801L622.849 302.292C623.933 304.282 624.755 306.404 625.294 308.605C625.441 309.299 625.523 310.005 625.537 310.715V311.301C625.528 311.528 625.507 311.753 625.474 311.978L625.375 312.672C625.33 312.907 625.23 313.195 625.149 313.457C625.066 313.732 624.96 314.001 624.834 314.259C624.671 314.548 624.5 314.827 624.319 315.098C623.918 315.65 623.43 316.134 622.876 316.532C622.596 316.712 622.308 316.875 622.019 317.028C621.751 317.156 621.473 317.265 621.189 317.353C620.691 317.515 620.177 317.62 619.656 317.668C619.223 317.695 618.789 317.695 618.357 317.668C617.978 317.668 617.599 317.596 617.238 317.542C616.877 317.488 616.561 317.416 616.237 317.335L615.335 317.091C614.235 316.731 613.161 316.294 612.123 315.783C610.191 314.812 608.336 313.694 606.575 312.438L611.78 308.83C612.197 311.12 612.309 313.455 612.114 315.774C611.968 317.263 611.467 318.695 610.653 319.95C610.531 320.14 610.395 320.321 610.247 320.491C610.081 320.671 609.907 320.843 609.724 321.005C609.354 321.329 608.945 321.605 608.506 321.826C607.695 322.198 606.808 322.374 605.917 322.34C604.59 322.247 603.3 321.866 602.137 321.222C601.139 320.699 600.186 320.096 599.287 319.418C597.527 318.137 595.94 316.821 594.343 315.405L596.147 314.088C596.541 315.056 596.843 316.058 597.049 317.082C597.324 318.202 597.324 319.371 597.049 320.491C596.715 321.695 596.011 322.765 595.038 323.548C594.138 324.274 593.126 324.849 592.043 325.253C590.032 326.008 587.93 326.49 585.791 326.687C584.757 326.787 583.718 326.829 582.679 326.813C581.62 326.801 580.562 326.719 579.513 326.57L583.175 322.421C583.717 323.885 583.947 325.445 583.852 327.002C583.733 328.786 583.069 330.489 581.948 331.881C580.759 333.334 579.076 334.297 577.222 334.587C575.651 334.807 574.051 334.643 572.558 334.109C571.267 333.646 570.051 332.996 568.949 332.179C567.931 331.441 566.994 330.598 566.153 329.663C564.528 327.886 563.192 325.865 562.193 323.675L562.725 323.26Z" fill="#E6E6E6"/>
<path d="M679.789 302.932C681.746 304.231 683.604 305.493 685.49 306.54C687.177 307.551 689.031 308.254 690.965 308.614C691.66 308.734 692.373 308.694 693.049 308.497C693.453 308.367 693.796 308.094 694.014 307.73C694.502 306.603 694.541 305.332 694.123 304.177L692.679 298.766L697.785 300.082C698.534 300.272 699.472 300.47 700.329 300.65C701.186 300.831 702.088 301.02 702.963 301.183C704.673 301.545 706.422 301.685 708.168 301.597C709.828 301.462 711.325 300.858 711.831 299.55C711.831 299.379 711.939 299.216 711.984 299.036L712.056 298.477C712.064 298.068 712.027 297.66 711.948 297.259C711.773 296.403 711.488 295.572 711.1 294.788L709.142 290.586L712.859 293.472C714.407 294.68 716.101 295.689 717.902 296.475C718.756 296.856 719.644 297.158 720.554 297.377C721.268 297.552 722.014 297.552 722.728 297.377C722.802 297.368 722.872 297.34 722.932 297.295C722.992 297.251 723.04 297.192 723.07 297.124C723.053 297.032 723.053 296.937 723.07 296.845C723.143 296.292 723.164 295.733 723.134 295.176C722.976 293.422 722.656 291.686 722.177 289.991L720.13 282.451L727.346 286.419C728.906 287.278 730.521 288.031 732.181 288.674C732.931 288.981 733.703 289.231 734.491 289.422C734.969 289.573 735.469 289.64 735.97 289.621C735.97 289.621 735.97 289.621 735.88 289.621C735.753 289.674 735.632 289.741 735.519 289.819C735.255 289.996 735.053 290.252 734.942 290.55C734.942 290.55 734.942 290.631 734.942 290.631C734.942 290.631 734.942 290.631 734.942 290.577V290.396C734.957 290.123 734.957 289.849 734.942 289.576C734.668 287.918 734.236 286.29 733.652 284.715L730.657 276.003L738.171 280.214C738.785 280.548 739.56 280.927 740.282 281.252C741.004 281.576 741.744 281.892 742.474 282.153C743.168 282.423 743.88 282.646 744.603 282.821C745.162 282.975 745.738 283.059 746.317 283.073H746.57C746.624 283.067 746.678 283.067 746.732 283.073C746.783 283.087 746.837 283.085 746.887 283.067C746.937 283.049 746.981 283.017 747.012 282.974C747.304 282.459 747.43 281.867 747.373 281.279C747.244 279.581 746.942 277.901 746.471 276.264L747.102 275.922C748.414 277.296 749.477 278.889 750.241 280.629C750.72 281.736 750.862 282.96 750.647 284.147C750.565 284.525 750.435 284.892 750.259 285.238C750.062 285.604 749.82 285.943 749.538 286.248C749.271 286.533 748.968 286.782 748.635 286.987C748.332 287.192 748.005 287.358 747.661 287.483C746.538 287.898 745.349 288.103 744.152 288.088C743.125 288.092 742.1 288.017 741.085 287.862C740.102 287.718 739.155 287.519 738.216 287.285C737.278 287.05 736.412 286.789 735.402 286.428L739.912 281.919C740.995 283.91 741.816 286.031 742.357 288.232C742.504 288.929 742.586 289.639 742.601 290.351V290.937C742.592 291.164 742.571 291.39 742.537 291.614L742.438 292.299C742.377 292.568 742.302 292.833 742.213 293.093C742.128 293.368 742.022 293.636 741.897 293.896C741.735 294.184 741.563 294.464 741.383 294.734C740.981 295.283 740.494 295.764 739.939 296.159C739.663 296.34 739.377 296.505 739.082 296.655C738.818 296.791 738.539 296.9 738.252 296.98C737.755 297.144 737.241 297.253 736.719 297.305C736.287 297.336 735.852 297.336 735.42 297.305C735.041 297.305 734.662 297.232 734.301 297.178L733.3 296.98L732.398 296.727C731.295 296.376 730.221 295.938 729.187 295.42C727.252 294.455 725.397 293.339 723.639 292.083L728.844 288.475C729.26 290.762 729.373 293.094 729.178 295.411C729.029 296.902 728.528 298.336 727.716 299.595C727.592 299.784 727.456 299.964 727.31 300.136C727.148 300.308 726.967 300.479 726.787 300.641C726.42 300.969 726.011 301.245 725.569 301.462C724.76 301.838 723.872 302.014 722.98 301.976C721.654 301.889 720.363 301.51 719.2 300.867C718.205 300.341 717.252 299.738 716.35 299.063C714.546 297.783 713.003 296.457 711.406 295.05L713.211 293.724C713.604 294.695 713.906 295.7 714.113 296.727C714.388 297.844 714.388 299.011 714.113 300.127C713.781 301.335 713.077 302.408 712.101 303.194C711.201 303.916 710.189 304.489 709.106 304.889C707.098 305.653 704.995 306.135 702.855 306.323C700.753 306.542 698.633 306.506 696.54 306.215L700.203 302.066C700.746 303.529 700.976 305.09 700.879 306.648C700.757 308.43 700.093 310.133 698.976 311.527C697.788 312.98 696.104 313.944 694.249 314.232C692.679 314.456 691.077 314.292 689.585 313.754C688.295 313.294 687.079 312.647 685.977 311.833C684.956 311.095 684.019 310.248 683.18 309.308C681.555 307.535 680.219 305.517 679.22 303.329L679.789 302.932Z" fill="#E6E6E6"/>
<path d="M611.735 474.906C613.684 476.196 615.551 477.467 617.427 478.514C619.114 479.528 620.968 480.234 622.903 480.597C623.598 480.713 624.31 480.673 624.987 480.48C625.389 480.345 625.73 480.074 625.952 479.713C626.44 478.586 626.479 477.315 626.06 476.16L624.617 470.704L629.723 472.011C630.471 472.21 631.41 472.399 632.267 472.588C633.124 472.778 634.026 472.958 634.901 473.111C636.61 473.477 638.36 473.62 640.106 473.535C641.766 473.4 643.263 472.796 643.768 471.488C643.768 471.317 643.876 471.145 643.921 470.974L643.994 470.406C644.002 470 643.965 469.595 643.885 469.197C643.717 468.339 643.432 467.507 643.037 466.726L641.098 462.515L644.796 465.356C646.35 466.564 648.047 467.575 649.848 468.368C650.702 468.751 651.59 469.053 652.5 469.27C653.207 469.463 653.95 469.482 654.665 469.324C654.739 469.313 654.809 469.284 654.868 469.24C654.928 469.196 654.976 469.138 655.008 469.071C654.991 468.979 654.991 468.884 655.008 468.792C655.081 468.239 655.102 467.68 655.071 467.123C654.914 465.369 654.594 463.633 654.115 461.938L652.067 454.389L659.284 458.366C660.844 459.223 662.46 459.976 664.119 460.621C664.871 460.922 665.643 461.172 666.428 461.369C666.907 461.52 667.407 461.587 667.908 461.568C667.908 461.568 667.908 461.568 667.818 461.568C667.693 461.615 667.574 461.679 667.466 461.757C667.199 461.934 666.994 462.189 666.88 462.488C666.876 462.518 666.876 462.548 666.88 462.578C666.875 462.563 666.875 462.547 666.88 462.533C666.88 462.533 666.88 462.533 666.88 462.479V462.334C666.899 462.061 666.899 461.787 666.88 461.514C666.61 459.855 666.178 458.227 665.59 456.653L662.604 447.932L670.118 452.143C670.722 452.486 671.507 452.865 672.22 453.181C672.932 453.496 673.681 453.83 674.412 454.082C675.107 454.35 675.818 454.576 676.541 454.759C677.102 454.903 677.676 454.988 678.255 455.011H678.507C678.598 455.011 678.607 455.011 678.67 455.011C678.722 455.027 678.778 455.026 678.83 455.008C678.882 454.99 678.927 454.957 678.958 454.912C679.242 454.398 679.365 453.81 679.31 453.226C679.187 451.527 678.885 449.846 678.408 448.211L679.04 447.86C680.352 449.238 681.414 450.834 682.179 452.576C682.658 453.683 682.799 454.907 682.585 456.094C682.503 456.472 682.373 456.839 682.197 457.185C681.814 457.903 681.247 458.506 680.555 458.934C680.248 459.132 679.921 459.298 679.581 459.43C678.455 459.844 677.262 460.049 676.063 460.035C675.036 460.035 674.011 459.959 672.996 459.809C672.021 459.656 671.065 459.457 670.136 459.232C669.207 459.007 668.332 458.736 667.312 458.375L671.823 453.866C672.905 455.857 673.727 457.978 674.268 460.179C674.414 460.873 674.496 461.58 674.511 462.289V462.875C674.503 463.102 674.482 463.328 674.448 463.552L674.349 464.246C674.289 464.512 674.214 464.774 674.123 465.031C674.042 465.307 673.936 465.576 673.808 465.834C673.653 466.123 673.482 466.403 673.293 466.672C672.894 467.226 672.407 467.711 671.85 468.106C671.57 468.287 671.282 468.449 670.948 468.602C670.682 468.736 670.404 468.845 670.118 468.927C669.623 469.088 669.112 469.194 668.593 469.243C668.158 469.274 667.721 469.274 667.285 469.243C666.907 469.243 666.528 469.17 666.176 469.116C665.824 469.062 665.49 468.99 665.175 468.918L664.272 468.665C663.172 468.308 662.098 467.871 661.061 467.358C659.129 466.386 657.274 465.268 655.513 464.012L660.718 460.404C661.135 462.694 661.247 465.029 661.052 467.349C660.909 468.841 660.408 470.276 659.591 471.533C659.469 471.721 659.333 471.899 659.185 472.065C659.022 472.246 658.842 472.417 658.671 472.579C658.155 473.041 657.553 473.396 656.9 473.625C656.247 473.854 655.555 473.953 654.864 473.914C653.536 473.821 652.243 473.443 651.075 472.805C650.08 472.277 649.128 471.674 648.224 471.001C646.42 469.721 644.887 468.404 643.281 466.988L645.04 465.671C645.433 466.639 645.735 467.641 645.942 468.665C646.217 469.785 646.217 470.955 645.942 472.074C645.608 473.279 644.904 474.348 643.931 475.132C643.03 475.857 642.019 476.433 640.936 476.836C638.926 477.592 636.823 478.075 634.684 478.27C633.65 478.371 632.611 478.413 631.572 478.396C630.515 478.384 629.461 478.303 628.415 478.153L632.023 474.013C632.566 475.476 632.797 477.037 632.7 478.595C632.578 480.377 631.914 482.08 630.796 483.474C629.608 484.928 627.925 485.891 626.069 486.179C624.499 486.403 622.898 486.239 621.405 485.701C620.114 485.244 618.898 484.597 617.797 483.78C616.776 483.039 615.836 482.193 614.992 481.255C613.366 479.48 612.033 477.459 611.041 475.267L611.735 474.906Z" fill="#E6E6E6"/>
<path d="M749.285 521.55C751.234 522.849 753.101 524.111 754.977 525.157C756.667 526.17 758.525 526.872 760.462 527.232C761.153 527.353 761.863 527.312 762.537 527.114C762.942 526.987 763.286 526.714 763.502 526.348C763.989 525.221 764.031 523.951 763.619 522.794L762.167 517.338L767.273 518.646C768.03 518.844 768.959 519.043 769.816 519.223C770.673 519.404 771.621 519.593 772.451 519.755C774.16 520.118 775.91 520.257 777.656 520.17C779.315 520.035 780.813 519.431 781.318 518.123C781.318 517.952 781.426 517.789 781.471 517.609L781.543 517.05C781.55 516.642 781.517 516.234 781.444 515.832C781.27 514.974 780.982 514.143 780.587 513.361L778.639 509.159L782.346 512.044C783.898 513.253 785.595 514.262 787.398 515.048C788.252 515.429 789.14 515.731 790.05 515.949C790.761 516.125 791.504 516.125 792.215 515.949C792.29 515.943 792.362 515.916 792.422 515.872C792.483 515.827 792.53 515.767 792.558 515.697C792.541 515.605 792.541 515.51 792.558 515.417C792.636 514.865 792.657 514.306 792.621 513.749C792.463 511.995 792.143 510.259 791.665 508.563L789.617 501.024L796.834 504.992C798.394 505.849 800.01 506.602 801.669 507.247C802.42 507.552 803.191 507.802 803.978 507.995C804.457 508.145 804.957 508.212 805.458 508.194C805.458 508.194 805.458 508.194 805.368 508.194C805.243 508.245 805.125 508.312 805.016 508.392C804.75 508.569 804.545 508.824 804.429 509.122C804.425 509.149 804.425 509.177 804.429 509.204C804.429 509.204 804.429 509.204 804.429 509.149V508.996C804.445 508.723 804.445 508.449 804.429 508.175C804.151 506.519 803.719 504.891 803.139 503.315L800.145 494.603L807.659 498.814C808.263 499.148 809.048 499.527 809.761 499.851C810.473 500.176 811.222 500.492 811.953 500.753C812.647 501.021 813.358 501.244 814.082 501.421C814.644 501.574 815.222 501.659 815.805 501.673H816.048C816.102 501.667 816.157 501.667 816.211 501.673C816.263 501.686 816.318 501.684 816.37 501.666C816.421 501.649 816.466 501.617 816.499 501.574C816.787 501.058 816.912 500.467 816.86 499.878C816.731 498.181 816.429 496.5 815.958 494.864L816.599 494.521C817.908 495.897 818.967 497.49 819.729 499.229C820.212 500.335 820.354 501.56 820.135 502.746C820.053 503.125 819.922 503.492 819.747 503.838C819.55 504.203 819.307 504.543 819.025 504.848C818.759 505.133 818.456 505.382 818.123 505.587C817.817 505.788 817.491 505.954 817.149 506.083C816.023 506.498 814.83 506.703 813.631 506.687C812.604 506.692 811.579 506.617 810.564 506.462C809.589 506.318 808.642 506.119 807.704 505.885C806.766 505.65 805.9 505.389 804.88 504.983L809.391 500.474C810.473 502.466 811.297 504.587 811.845 506.787C811.983 507.485 812.064 508.194 812.088 508.906V509.546C812.079 509.773 812.058 509.999 812.025 510.223L811.926 510.908C811.869 511.178 811.794 511.443 811.7 511.702C811.615 511.977 811.51 512.245 811.384 512.504C811.23 512.794 811.059 513.074 810.87 513.343C810.471 513.894 809.983 514.376 809.427 514.768C809.152 514.951 808.865 515.116 808.57 515.264C808.304 515.398 808.026 515.507 807.74 515.589C807.245 515.752 806.734 515.861 806.216 515.913C805.78 515.945 805.343 515.945 804.907 515.913C804.538 515.913 804.159 515.841 803.798 515.787C803.437 515.733 803.112 515.661 802.797 515.589L801.895 515.336C800.789 514.983 799.713 514.546 798.674 514.028C796.74 513.064 794.885 511.948 793.126 510.692L798.331 507.084C798.748 509.371 798.86 511.703 798.665 514.02C798.524 515.511 798.026 516.946 797.213 518.204C797.077 518.393 796.96 518.565 796.807 518.745L796.284 519.25C795.913 519.578 795.501 519.854 795.057 520.071C794.25 520.446 793.366 520.623 792.477 520.585C791.148 520.499 789.854 520.121 788.688 519.476C787.693 518.948 786.74 518.345 785.837 517.672C784.033 516.391 782.5 515.066 780.894 513.659L782.698 512.333C783.09 513.301 783.392 514.304 783.6 515.327C783.871 516.447 783.871 517.616 783.6 518.736C783.272 519.946 782.568 521.02 781.589 521.802C780.688 522.525 779.677 523.098 778.594 523.498C776.586 524.263 774.482 524.745 772.342 524.932C771.308 525.031 770.269 525.076 769.23 525.067C768.174 525.046 767.12 524.964 766.073 524.824L769.681 520.675C770.228 522.137 770.459 523.699 770.358 525.257C770.24 527.038 769.578 528.741 768.463 530.136C767.27 531.588 765.585 532.551 763.727 532.841C762.157 533.065 760.556 532.901 759.064 532.363C757.774 531.902 756.558 531.255 755.455 530.442C754.434 529.701 753.494 528.855 752.65 527.917C751.025 526.145 749.691 524.127 748.699 521.938L749.285 521.55Z" fill="#E6E6E6"/>
<path d="M802.481 539.731C804.439 541.03 806.297 542.292 808.182 543.339C809.868 544.355 811.723 545.06 813.658 545.422C814.35 545.538 815.058 545.498 815.733 545.305C816.138 545.172 816.483 544.901 816.707 544.538C817.19 543.41 817.229 542.14 816.815 540.985L815.363 535.529L820.469 536.836C821.226 537.035 822.155 537.233 823.012 537.413C823.869 537.594 824.771 537.783 825.656 537.946C827.363 538.304 829.109 538.444 830.852 538.36C832.511 538.225 834.009 537.621 834.514 536.313C834.514 536.142 834.622 535.979 834.667 535.799L834.749 535.231C834.747 534.826 834.711 534.421 834.64 534.022C834.455 533.161 834.151 532.33 833.738 531.551L831.79 527.349L835.506 530.235C837.056 531.442 838.749 532.451 840.549 533.238C841.403 533.62 842.291 533.922 843.201 534.14C843.911 534.335 844.657 534.353 845.375 534.194C845.449 534.187 845.519 534.16 845.578 534.115C845.637 534.071 845.682 534.01 845.709 533.941C845.688 533.849 845.688 533.754 845.709 533.662C845.777 533.108 845.796 532.55 845.763 531.993C845.61 530.238 845.289 528.502 844.807 526.808L842.759 519.259L849.976 523.236C851.536 524.093 853.151 524.846 854.811 525.491C855.563 525.792 856.334 526.042 857.12 526.24C857.598 526.39 858.099 526.457 858.6 526.438C858.6 526.438 858.6 526.438 858.509 526.438C858.386 526.492 858.268 526.558 858.158 526.636C857.894 526.813 857.69 527.064 857.571 527.358C857.567 527.388 857.567 527.418 857.571 527.448C857.571 527.448 857.571 527.448 857.571 527.394V527.241C857.592 526.967 857.592 526.693 857.571 526.42C857.293 524.763 856.861 523.136 856.281 521.559L853.286 512.847L860.801 517.059C861.405 517.392 862.19 517.771 862.903 518.087C863.615 518.402 864.373 518.736 865.095 518.989C865.792 519.248 866.503 519.471 867.224 519.656C867.787 519.805 868.365 519.889 868.947 519.909H869.19C869.244 519.903 869.299 519.903 869.353 519.909C869.406 519.922 869.462 519.919 869.514 519.9C869.565 519.88 869.61 519.846 869.641 519.8C869.934 519.289 870.06 518.7 870.002 518.114C869.869 516.417 869.567 514.737 869.1 513.1L869.731 512.757C871.046 514.128 872.106 515.722 872.862 517.465C873.35 518.569 873.491 519.795 873.268 520.982C873.19 521.362 873.059 521.729 872.88 522.073C872.685 522.435 872.446 522.771 872.167 523.074C871.903 523.365 871.599 523.617 871.265 523.823C870.958 524.021 870.632 524.188 870.291 524.319C869.165 524.733 867.972 524.938 866.773 524.923C865.749 524.927 864.726 524.852 863.714 524.697C862.731 524.544 861.784 524.346 860.846 524.12C859.908 523.895 859.042 523.624 858.022 523.263L862.533 518.754C863.614 520.746 864.439 522.867 864.986 525.067C865.129 525.762 865.21 526.468 865.23 527.177V527.764C865.23 527.971 865.23 528.224 865.167 528.449L865.068 529.134C865.004 529.403 864.925 529.668 864.833 529.928C864.748 530.203 864.643 530.472 864.517 530.731C864.364 531.01 864.193 531.29 864.012 531.56C863.612 532.117 863.121 532.601 862.56 532.994C862.284 533.176 861.998 533.341 861.703 533.49C861.439 533.623 861.165 533.731 860.882 533.815C860.385 533.98 859.87 534.086 859.348 534.131C858.916 534.162 858.482 534.162 858.049 534.131C857.67 534.131 857.292 534.059 856.931 534.004L855.929 533.806L855.027 533.554C853.922 533.2 852.846 532.763 851.807 532.246C849.876 531.273 848.021 530.154 846.259 528.9L851.464 525.293C851.884 527.579 851.999 529.911 851.807 532.228C851.657 533.718 851.156 535.152 850.346 536.412C850.21 536.593 850.102 536.773 849.94 536.954C849.777 537.134 849.597 537.296 849.416 537.459C849.048 537.784 848.638 538.06 848.199 538.279C847.387 538.649 846.501 538.825 845.61 538.793C844.281 538.703 842.988 538.325 841.821 537.684C840.831 537.153 839.881 536.55 838.979 535.88C837.175 534.591 835.633 533.274 834.027 531.858L835.831 530.541C836.224 531.509 836.526 532.512 836.733 533.535C837.003 534.656 837.003 535.824 836.733 536.944C836.402 538.15 835.698 539.22 834.721 540.002C833.821 540.727 832.81 541.303 831.727 541.706C829.716 542.462 827.614 542.945 825.475 543.14C824.441 543.241 823.402 543.283 822.363 543.266C821.306 543.254 820.252 543.173 819.206 543.023L822.814 538.883C823.361 540.346 823.592 541.907 823.49 543.465C823.372 545.246 822.711 546.949 821.596 548.344C820.403 549.796 818.717 550.759 816.86 551.049C815.29 551.273 813.689 551.109 812.196 550.571C810.907 550.11 809.691 549.463 808.588 548.65C807.568 547.912 806.63 547.065 805.792 546.125C804.167 544.352 802.83 542.334 801.832 540.146L802.481 539.731Z" fill="#E6E6E6"/>
<path d="M1075.78 677.841C1077.73 679.14 1079.59 680.402 1081.48 681.448C1083.16 682.469 1085.02 683.175 1086.95 683.532C1087.64 683.652 1088.35 683.612 1089.03 683.414C1089.43 683.282 1089.78 683.01 1090 682.648C1090.49 681.519 1090.52 680.25 1090.11 679.094L1088.67 673.683L1093.76 674.991C1094.52 675.189 1095.46 675.388 1096.32 675.568C1097.17 675.749 1098.07 675.938 1098.95 676.1C1100.66 676.459 1102.4 676.598 1104.15 676.515C1105.81 676.38 1107.3 675.776 1107.81 674.468C1107.85 674.297 1107.92 674.134 1107.96 673.954L1108.04 673.395C1108.04 672.987 1108.01 672.579 1107.94 672.177C1107.76 671.32 1107.48 670.489 1107.09 669.706L1105.13 665.504L1108.85 668.389C1110.39 669.6 1112.09 670.609 1113.89 671.393C1114.74 671.774 1115.63 672.076 1116.54 672.295C1117.26 672.47 1118 672.47 1118.72 672.295C1118.79 672.288 1118.86 672.26 1118.92 672.216C1118.98 672.171 1119.02 672.111 1119.05 672.042C1119.04 671.949 1119.04 671.855 1119.05 671.762C1119.12 671.209 1119.14 670.651 1119.1 670.094C1118.95 668.338 1118.63 666.602 1118.15 664.908L1116.11 657.369L1123.32 661.337C1124.88 662.194 1126.49 662.947 1128.15 663.592C1128.9 663.893 1129.67 664.143 1130.46 664.34C1130.94 664.49 1131.44 664.557 1131.94 664.539C1131.94 664.539 1131.94 664.539 1131.85 664.539C1131.73 664.592 1131.61 664.659 1131.5 664.737C1131.23 664.913 1131.03 665.165 1130.91 665.458C1130.91 665.488 1130.91 665.519 1130.91 665.549V665.549C1130.91 665.549 1130.91 665.549 1130.91 665.494V665.341C1130.93 665.068 1130.93 664.794 1130.91 664.521C1130.64 662.863 1130.21 661.235 1129.62 659.66L1126.63 650.948L1134.14 655.159C1134.75 655.493 1135.53 655.872 1136.24 656.196C1136.96 656.521 1137.71 656.837 1138.44 657.098C1139.13 657.367 1139.84 657.59 1140.56 657.766C1141.13 657.919 1141.7 658.004 1142.29 658.018H1142.53C1142.58 658.012 1142.64 658.012 1142.69 658.018C1142.75 658.031 1142.8 658.029 1142.85 658.011C1142.9 657.994 1142.95 657.962 1142.98 657.919C1143.27 657.404 1143.4 656.812 1143.34 656.223C1143.21 654.526 1142.91 652.845 1142.44 651.209L1143.07 650.866C1144.38 652.239 1145.44 653.833 1146.2 655.574C1146.69 656.679 1146.83 657.905 1146.61 659.091C1146.54 659.46 1146.43 659.818 1146.26 660.156C1146.07 660.52 1145.83 660.856 1145.55 661.157C1145.29 661.447 1144.98 661.699 1144.65 661.905C1144.35 662.108 1144.02 662.274 1143.68 662.401C1142.55 662.816 1141.36 663.021 1140.17 663.005C1139.14 663.01 1138.11 662.935 1137.1 662.78C1136.12 662.627 1135.17 662.428 1134.23 662.203C1133.29 661.977 1132.43 661.707 1131.41 661.346L1135.92 656.837C1136.99 658.831 1137.81 660.952 1138.36 663.15C1138.51 663.848 1138.59 664.557 1138.61 665.269V665.855C1138.61 666.054 1138.61 666.306 1138.54 666.532L1138.44 667.217C1138.38 667.485 1138.31 667.75 1138.22 668.011C1138.13 668.285 1138.02 668.553 1137.89 668.813C1137.74 669.093 1137.57 669.382 1137.39 669.652C1136.99 670.203 1136.49 670.685 1135.94 671.077C1135.65 671.263 1135.35 671.429 1135.03 671.573C1134.77 671.705 1134.5 671.814 1134.21 671.898C1133.72 672.061 1133.2 672.17 1132.68 672.222C1132.25 672.254 1131.81 672.254 1131.38 672.222C1131 672.222 1130.62 672.15 1130.26 672.096L1129.26 671.898L1128.36 671.645C1127.25 671.292 1126.18 670.855 1125.14 670.337C1123.21 669.367 1121.35 668.252 1119.59 667.001L1124.8 663.393C1125.21 665.68 1125.33 668.012 1125.14 670.328C1125.01 671.841 1124.52 673.301 1123.71 674.585C1123.58 674.766 1123.47 674.946 1123.31 675.126C1123.14 675.307 1122.96 675.469 1122.78 675.631C1122.42 675.957 1122.01 676.233 1121.57 676.452C1120.76 676.827 1119.87 677.004 1118.98 676.966C1117.65 676.881 1116.35 676.502 1115.19 675.857C1114.2 675.325 1113.25 674.723 1112.35 674.053C1110.54 672.772 1109 671.447 1107.39 670.04L1109.15 668.714C1109.55 669.682 1109.85 670.684 1110.06 671.708C1110.33 672.829 1110.33 673.997 1110.06 675.117C1109.73 676.323 1109.03 677.394 1108.05 678.175C1107.15 678.898 1106.13 679.474 1105.05 679.879C1103.04 680.643 1100.94 681.125 1098.81 681.313C1097.77 681.412 1096.73 681.457 1095.69 681.448C1094.63 681.427 1093.57 681.346 1092.53 681.205L1096.14 677.056C1096.68 678.518 1096.91 680.08 1096.81 681.638C1096.7 683.42 1096.04 685.124 1094.92 686.517C1093.73 687.97 1092.04 688.934 1090.18 689.222C1088.61 689.446 1087.02 689.282 1085.53 688.744C1084.24 688.284 1083.02 687.637 1081.92 686.823C1080.9 686.085 1079.96 685.238 1079.12 684.298C1077.5 682.525 1076.16 680.507 1075.16 678.319L1075.78 677.841Z" fill="#E6E6E6"/>
<path d="M205.897 122.652C202.406 152.314 202.415 152.052 189.326 167.817C176.237 183.581 154.875 201.447 167.135 214.009C179.394 226.572 253.202 228.024 259.084 219.547C264.966 211.069 264.163 163.235 237.163 142.393C210.164 121.552 205.897 122.652 205.897 122.652Z" fill="#333333"/>
<path d="M196.371 202.015C202.686 204.72 199.077 220.052 185.546 225.463C172.015 230.874 69.1775 276.868 69.1775 276.868C62.3126 279.772 60.5536 278.374 72.5332 261.889L72.6505 256.225L77.4406 256.865V252.085L81.3105 254.791L84.116 248.478L86.8222 249.804L87.571 245.403L91.6032 246.647L90.7824 241.128L95.7258 243.13L97.4668 240.046L100.94 239.721C100.94 239.721 100.94 235.212 101.337 235.212C101.734 235.212 106.821 236.114 106.821 236.114L107.354 232.1L112.026 234.436L112.829 229.178L119.288 230.45L120.19 226.094L125.801 228.628L125.404 222.622L131.548 224.813V219.474L137.97 222.487L139.838 216.174L145.855 217.914L147.857 212.44L152.53 214.974L153.333 210.167L157.212 213.243L158.114 208.733L163.382 210.537L163.553 207.309L170.003 208.715L196.371 202.015Z" fill="#B3B3B3"/>
<path d="M196.371 202.015C197.268 202.387 198.021 203.038 198.518 203.872C199.004 204.702 199.312 205.623 199.42 206.578C199.606 208.483 199.378 210.406 198.753 212.215C197.529 215.852 195.348 219.092 192.438 221.594C190.994 222.848 189.404 223.923 187.702 224.795C186.863 225.237 185.961 225.607 185.095 225.968L182.479 227.068L172.078 231.577C158.213 237.647 144.429 243.906 130.582 249.948L89.0233 268.247L68.2754 277.427C67.3916 277.801 66.4641 278.062 65.515 278.203C65.261 278.258 64.9981 278.257 64.7443 278.201C64.4905 278.145 64.2518 278.035 64.0446 277.878C63.8819 277.671 63.7695 277.429 63.7162 277.17C63.663 276.912 63.6704 276.645 63.7379 276.39C63.9456 275.448 64.2794 274.538 64.7302 273.685C65.1542 272.783 65.6323 271.998 66.1014 271.187C68.0499 267.922 70.2329 264.874 72.4159 261.753V261.871L72.5152 256.216V255.954H72.7768L77.5668 256.586L77.2872 256.82V251.616L77.7022 251.896L81.5901 254.548L81.1752 254.665L83.9536 248.352L84.0799 248.054L84.3685 248.198L87.0748 249.515L86.6147 249.75L87.3544 245.349L87.4176 244.961L87.7965 245.078L91.8198 246.305L91.3597 246.701L90.5208 241.182L90.4215 240.524L91.0439 240.776L95.9964 242.76L95.4912 242.932L97.2232 239.838L97.3315 239.658H97.548L101.021 239.333L100.642 239.748C100.642 238.9 100.66 238.053 100.696 237.205C100.696 236.772 100.75 236.348 100.804 235.906C100.829 235.645 100.896 235.389 101.003 235.149C101.039 235.072 101.091 235.004 101.156 234.95C101.238 234.89 101.335 234.856 101.436 234.851H101.508H101.707L102.031 234.896C103.709 235.167 105.351 235.464 107.02 235.798L106.506 236.168L107.029 232.164L107.11 231.55L107.669 231.821L112.342 234.148L111.693 234.481L112.495 229.224L112.568 228.746L113.037 228.836L119.496 230.107L118.936 230.477L119.838 226.112L119.965 225.526L120.506 225.778L126.117 228.322L125.449 228.782L125.052 222.766L125.007 222.054L125.684 222.297L131.818 224.498L131.196 224.931V218.87L131.845 219.177L138.268 222.189L137.637 222.469L139.522 216.201L139.648 215.777L140.072 215.903L146.071 217.707L145.575 217.959L147.596 212.494L147.758 212.07L148.146 212.287L152.819 214.848L152.277 215.101L153.107 210.303L153.207 209.716L153.658 210.086L157.518 213.171L157.004 213.36L157.961 208.851L158.033 208.508L158.357 208.625L163.626 210.474L163.247 210.727L163.436 207.489V207.173L163.734 207.245L170.184 208.679H170.075L196.371 202.015ZM196.371 202.105L170.139 209.112H170.084H170.03L163.571 207.723L163.896 207.426L163.743 210.663V211.033L163.391 210.916L158.114 209.112L158.511 208.887L157.609 213.396L157.509 213.91L157.094 213.585L153.207 210.528L153.757 210.312L152.972 215.128L152.891 215.633L152.44 215.389L147.749 212.873L148.299 212.657L146.324 218.149L146.188 218.51L145.818 218.401L139.793 216.688L140.343 216.39L138.484 222.703L138.331 223.208L137.853 222.983L131.421 219.961L132.08 219.547V225.544L131.457 225.318L125.323 223.127L125.946 222.658L126.351 228.673L126.406 229.458L125.684 229.133L120.064 226.599L120.732 226.256L119.829 230.621L119.739 231.09L119.27 230.991L112.82 229.701L113.371 229.314L112.55 234.58L112.459 235.194L111.9 234.914L107.236 232.578L107.877 232.236L107.336 236.24L107.272 236.7L106.821 236.619C105.171 236.312 103.511 235.996 101.86 235.717L101.562 235.672H101.436C101.51 235.666 101.582 235.641 101.643 235.6C101.667 235.578 101.689 235.554 101.707 235.527C101.661 235.677 101.631 235.831 101.616 235.987C101.562 236.384 101.526 236.799 101.508 237.214C101.463 238.035 101.445 238.882 101.436 239.712V240.091H101.057L97.584 240.406L97.8998 240.199L96.1588 243.283L95.9874 243.599L95.6536 243.464L90.7192 241.435L91.2424 241.029L92.0362 246.548L92.1174 247.116L91.5762 246.945L87.5529 245.682L87.9949 245.421L87.2191 249.813L87.1379 250.246L86.7591 250.047L84.0528 248.713L84.4768 248.559L81.6443 254.827L81.4999 255.134L81.2203 254.944L77.3594 252.239L77.7743 252.022L77.7292 256.811V257.082H77.4586L72.6685 256.423L72.9301 256.207L72.7948 261.862V261.934V261.988C70.5757 265.045 68.3746 268.12 66.4171 271.349C65.939 272.161 65.515 272.981 65.0459 273.82C64.6111 274.64 64.2836 275.513 64.0717 276.417C64.0122 276.62 64 276.833 64.036 277.041C64.0719 277.249 64.1551 277.446 64.2792 277.617C64.4532 277.742 64.6515 277.829 64.8613 277.872C65.071 277.916 65.2876 277.915 65.497 277.869C66.426 277.73 67.3348 277.479 68.2032 277.121C71.6762 275.678 75.1132 274.055 78.5681 272.521L88.8068 267.85L130.23 249.245C144.032 243.022 157.915 237.006 171.807 230.982L182.254 226.518L184.879 225.436C185.781 225.084 186.62 224.732 187.459 224.299C189.133 223.453 190.698 222.409 192.122 221.188C194.99 218.75 197.167 215.603 198.437 212.061C199.08 210.293 199.335 208.408 199.186 206.533C199.1 205.599 198.821 204.692 198.365 203.872C197.901 203.079 197.205 202.447 196.371 202.06V202.105Z" fill="black"/>
<path d="M69.1775 276.868C62.3126 279.772 60.5536 278.374 72.5332 261.889C82.7087 247.874 144.952 216.444 159.386 211.033C173.819 205.622 190.057 199.309 196.371 202.015C202.686 204.72 199.077 220.052 185.546 225.463C172.015 230.874 69.1775 276.868 69.1775 276.868Z" fill="#F9DBCD"/>
<path d="M69.1772 276.95C68.4098 277.294 67.6238 277.595 66.8227 277.851C66.4191 277.982 66.0059 278.082 65.5869 278.149C65.1541 278.235 64.7066 278.207 64.2879 278.068C64.0738 277.972 63.8948 277.812 63.7753 277.61C63.6557 277.408 63.6016 277.174 63.6203 276.941C63.6233 276.508 63.6964 276.078 63.8368 275.669C64.1022 274.867 64.4341 274.089 64.8291 273.342C66.436 270.395 68.2162 267.547 70.1604 264.811C71.1257 263.431 72.0097 262.033 73.0832 260.707C74.1698 259.418 75.3519 258.212 76.6193 257.1C79.134 254.861 81.7626 252.754 84.4945 250.787C89.907 246.819 95.5992 243.229 101.345 239.775C107.092 236.321 112.973 233.093 118.882 229.909C130.747 223.656 142.817 217.836 155.092 212.449C158.177 211.105 161.352 210.023 164.482 208.842C167.613 207.66 170.752 206.488 173.918 205.397C177.084 204.305 180.287 203.268 183.534 202.402C186.791 201.425 190.174 200.936 193.574 200.951C194.458 200.998 195.332 201.162 196.172 201.438C197.066 201.725 197.859 202.263 198.455 202.989C199.539 204.449 200.078 206.242 199.979 208.057C199.777 211.551 198.575 214.913 196.515 217.743C194.529 220.588 191.943 222.961 188.938 224.696C187.445 225.529 185.896 226.255 184.301 226.87C182.762 227.507 181.225 228.165 179.691 228.845L142.95 245.078C130.699 250.489 118.416 255.825 106.099 261.086L87.6157 268.941C81.4635 271.547 75.3474 274.271 69.1772 276.95ZM69.105 276.787C75.1941 274.001 81.3102 271.268 87.3812 268.445L105.585 259.959C117.721 254.277 129.914 248.74 142.165 243.347C154.415 237.953 166.704 232.593 179.033 227.267C180.575 226.617 182.118 225.959 183.679 225.328C185.225 224.754 186.732 224.079 188.189 223.307C191.035 221.728 193.499 219.542 195.406 216.904C197.358 214.317 198.54 211.232 198.816 208.003C198.964 206.458 198.564 204.91 197.688 203.629C196.786 202.421 195.18 202.024 193.593 201.87C190.266 201.792 186.946 202.209 183.742 203.106C180.494 203.882 177.31 204.91 174.144 205.965C170.977 207.02 167.829 208.174 164.69 209.329C161.551 210.483 158.375 211.655 155.362 213.017C149.237 215.723 143.256 218.699 137.321 221.765C131.385 224.832 125.485 228.006 119.622 231.217C107.967 237.683 96.2397 244.239 85.1531 251.617C82.3774 253.464 79.7034 255.46 77.1425 257.596C75.8552 258.652 74.649 259.804 73.5342 261.041C72.9839 261.645 72.5059 262.322 72.0007 262.998L70.5213 265.018C68.5339 267.704 66.7258 270.518 65.1088 273.441C64.7156 274.17 64.3837 274.93 64.1165 275.714C63.98 276.097 63.9039 276.498 63.891 276.904C63.8733 277.089 63.9132 277.275 64.0052 277.437C64.0973 277.598 64.2369 277.727 64.4051 277.806C65.2011 277.977 66.0298 277.908 66.7866 277.608C67.5972 277.376 68.3951 277.102 69.1772 276.787H69.105Z" fill="black"/>
<path d="M255.458 169.999C218.472 165.49 191.41 159.177 168.858 156.471C146.306 153.766 149.914 164.588 146.306 163.686C142.697 162.784 72.3348 160.981 48.8806 188.036C25.4265 215.092 41.664 214.19 48.8806 211.484C56.0973 208.779 96.691 179.018 134.579 193.447C172.466 207.877 177.879 213.288 187.801 218.699C197.724 224.11 262.674 202.466 261.772 187.134C260.87 171.803 255.458 169.999 255.458 169.999Z" fill="#F9803D"/>
<path d="M255.448 170.044C244.939 168.791 234.448 167.293 223.993 165.634C213.537 163.975 203.109 162.135 192.672 160.367C187.449 159.465 182.226 158.645 176.985 157.896C174.369 157.517 171.75 157.172 169.128 156.859C166.516 156.529 163.885 156.387 161.253 156.435C158.651 156.439 156.071 156.916 153.639 157.842C152.459 158.323 151.388 159.038 150.491 159.943C149.636 160.927 148.887 161.997 148.254 163.136C148.046 163.47 147.758 163.746 147.415 163.939C147.031 164.117 146.597 164.156 146.188 164.047C145.555 163.946 144.916 163.88 144.276 163.848C142.968 163.758 141.641 163.713 140.324 163.677C137.69 163.614 135.047 163.623 132.404 163.677C121.834 163.844 111.286 164.712 100.831 166.274C90.3398 167.73 80.0493 170.381 70.1604 174.175C65.2273 176.09 60.5469 178.601 56.2232 181.651L54.6536 182.85L53.8597 183.446L53.12 184.104L51.6496 185.421C51.1355 185.845 50.7476 186.323 50.2604 186.828L48.9073 188.262L47.6263 189.777C46.7243 190.778 45.9575 191.824 45.1185 192.852C43.4948 194.935 41.9252 197.064 40.5179 199.291C39.0533 201.474 37.9223 203.863 37.1622 206.38C36.7652 207.602 36.7652 208.918 37.1622 210.14C37.4033 210.716 37.8001 211.212 38.3078 211.574C38.8332 211.928 39.4209 212.179 40.0398 212.314C41.3126 212.58 42.6215 212.626 43.9098 212.449C45.2082 212.295 46.489 212.017 47.7346 211.619C48.9916 211.216 50.2014 210.677 51.3429 210.014L54.8069 208.075C57.1072 206.777 59.4166 205.478 61.753 204.224C66.4258 201.726 71.1978 199.381 76.0961 197.334C85.8657 193.24 96.1945 190.191 106.83 189.362C112.144 188.934 117.49 189.122 122.761 189.921C125.394 190.333 127.998 190.917 130.555 191.671C131.836 192.031 133.081 192.518 134.344 192.933C135.607 193.348 136.824 193.88 138.06 194.358C147.938 198.173 157.771 202.159 167.315 206.786C172.096 209.094 176.76 211.656 181.297 214.397C183.561 215.75 185.807 217.103 188.126 218.374C189.294 218.852 190.544 219.1 191.806 219.105C193.112 219.15 194.42 219.114 195.721 218.997C200.965 218.454 206.155 217.476 211.237 216.075C216.349 214.734 221.392 213.156 226.365 211.34C231.341 209.556 236.224 207.525 240.997 205.252C245.792 203.03 250.358 200.341 254.627 197.226C256.763 195.681 258.639 193.806 260.184 191.671C260.944 190.599 261.439 189.363 261.628 188.063C261.676 187.411 261.66 186.755 261.582 186.106C261.519 185.448 261.492 184.789 261.411 184.131C261.166 181.499 260.637 178.902 259.832 176.384C259.406 175.129 258.853 173.92 258.182 172.777C257.84 172.217 257.441 171.694 256.991 171.217C256.562 170.724 256.037 170.325 255.448 170.044V170.044ZM255.448 169.954C256.062 170.237 256.609 170.645 257.054 171.153C257.505 171.64 257.912 172.165 258.272 172.723C258.952 173.865 259.514 175.074 259.95 176.33C260.779 178.851 261.33 181.454 261.591 184.095C261.682 184.753 261.718 185.421 261.781 186.079C261.866 186.743 261.885 187.414 261.835 188.081C261.652 189.417 261.154 190.691 260.383 191.797C258.838 193.97 256.952 195.879 254.799 197.451C250.542 200.617 245.982 203.353 241.186 205.622C236.423 207.949 231.525 210.014 226.555 211.863C221.584 213.712 216.541 215.353 211.427 216.742C206.31 218.202 201.081 219.237 195.794 219.835C194.457 219.965 193.113 220.013 191.77 219.98C190.379 219.982 189.002 219.706 187.72 219.168C185.356 217.896 183.11 216.517 180.837 215.155C176.327 212.449 171.69 209.87 166.927 207.57C157.428 202.917 147.658 198.957 137.735 195.134C136.5 194.656 135.273 194.16 134.028 193.709C132.783 193.258 131.556 192.807 130.293 192.464C127.772 191.721 125.204 191.143 122.608 190.733C117.403 189.935 112.124 189.744 106.875 190.164C101.62 190.591 96.414 191.497 91.3232 192.87C86.2369 194.224 81.2488 195.924 76.3938 197.956C71.5135 199.968 66.7505 202.267 62.0687 204.729C59.7323 205.965 57.423 207.246 55.1136 208.535L51.6226 210.456C50.4648 211.127 49.2365 211.668 47.9601 212.07C46.6819 212.473 45.3678 212.751 44.0361 212.9C42.693 213.079 41.3293 213.027 40.0037 212.747C39.3287 212.591 38.689 212.31 38.1184 211.917C37.5441 211.508 37.0969 210.946 36.8284 210.294C36.4048 208.98 36.4048 207.567 36.8284 206.253C37.6144 203.693 38.7724 201.262 40.2654 199.039C41.6997 196.802 43.2873 194.674 44.9201 192.581C45.768 191.562 46.5799 190.516 47.455 189.515L48.7359 188.009C49.1869 187.513 49.638 187.044 50.1071 186.557C50.5761 186.07 51.0092 185.574 51.5143 185.15L53.0118 183.833L53.7605 183.175L54.5544 182.571L56.142 181.371C60.4797 178.329 65.1569 175.802 70.0792 173.841C79.9603 169.977 90.2506 167.254 100.75 165.724C111.232 164.104 121.809 163.179 132.413 162.956C135.065 162.901 137.717 162.883 140.37 162.956C141.696 162.956 143.022 163.019 144.357 163.109C145.037 163.136 145.715 163.205 146.386 163.316C146.619 163.386 146.869 163.37 147.09 163.271C147.32 163.127 147.514 162.933 147.658 162.703C148.297 161.519 149.069 160.412 149.959 159.402C150.924 158.417 152.077 157.635 153.351 157.103C155.874 156.132 158.558 155.646 161.262 155.669C163.928 155.639 166.594 155.805 169.236 156.165C171.864 156.501 174.489 156.865 177.111 157.256C182.352 158.049 187.567 158.942 192.781 159.853C203.209 161.657 213.628 163.605 224.074 165.336C234.52 167.068 244.957 168.646 255.466 169.954H255.448Z" fill="black"/>
<path d="M260.482 178.287C260.482 178.287 265.651 183.392 262.043 198.723C258.435 214.055 241.024 220.503 217.931 232.254C194.838 244.005 170.689 236.213 131.872 252.997C92.1805 270.132 75.0409 281.856 67.8242 280.052C60.6076 278.248 65.118 274.641 67.8242 274.641L71.9828 267.742L77.8644 270.15L79.4701 263.467L86.6868 266.173L86.9484 259.499L94.4357 261.537L95.7708 254.322L103.258 257.262L106.199 248.974L111.81 252.446L114.516 245.502L121.733 248.208L125.476 239.721L131.62 241.525C131.62 241.525 135.363 235.654 136.13 235.654C136.897 235.654 145.151 236.357 145.151 236.357L149.237 229.251L155.66 230.838L157.915 224.886H168.822L171.97 218.014H181.306L185.817 212.134L192.772 212.404L196.777 205.721L207.467 207.327L209.343 201.365H212.726L214.954 194.502L221.097 197.442C221.097 197.442 221.9 192.933 222.703 192.933C223.506 192.933 233.131 193.465 233.131 193.465L234.737 187.829L241.953 188.388L245.066 180.848L253.464 182.472L260.482 178.287Z" fill="#B3B3B3"/>
<path d="M260.491 178.197C260.576 178.252 260.649 178.322 260.708 178.404C260.764 178.466 260.816 178.532 260.861 178.603C260.965 178.729 261.062 178.861 261.15 178.999C261.339 179.27 261.483 179.559 261.646 179.838C261.94 180.423 262.199 181.026 262.422 181.642C262.834 182.875 263.136 184.143 263.324 185.43C263.639 188.008 263.639 190.616 263.324 193.195C263.27 193.844 263.152 194.484 263.071 195.125C262.99 195.765 262.873 196.405 262.737 197.036C262.602 197.668 262.503 198.308 262.359 198.948L261.817 200.833C261.718 201.14 261.646 201.465 261.529 201.735L261.141 202.637C260.87 203.232 260.645 203.854 260.338 204.441C259.721 205.597 259.015 206.703 258.227 207.75C256.649 209.845 254.833 211.749 252.814 213.423C250.807 215.071 248.698 216.592 246.5 217.977C242.116 220.755 237.542 223.172 232.969 225.508L219.158 232.443C218.03 233.038 216.803 233.552 215.631 234.103L213.826 234.923L212.022 235.591C209.585 236.506 207.097 237.28 204.571 237.908C194.432 240.379 184.085 240.957 173.9 242.373C168.794 243.013 163.752 243.96 158.727 244.97L154.984 245.872C153.739 246.178 152.476 246.44 151.258 246.774L147.55 247.838C146.937 248.018 146.315 248.181 145.746 248.379L143.942 248.992C134.2 252.212 124.8 256.496 115.409 260.716C106.018 264.937 96.7811 269.509 87.4987 274.001C85.1713 275.119 82.8439 276.21 80.4714 277.247C78.1133 278.324 75.6804 279.228 73.1916 279.953C71.9216 280.319 70.6074 280.51 69.2856 280.521C68.6148 280.509 67.9493 280.4 67.31 280.196C66.6638 280.025 66.0355 279.793 65.4337 279.502C64.7766 279.211 64.2186 278.734 63.828 278.131C63.7558 277.942 63.7017 277.752 63.6476 277.563C63.6292 277.362 63.6292 277.16 63.6476 276.959C63.6987 276.77 63.7651 276.586 63.846 276.408C63.9453 276.255 64.0445 276.093 64.1527 275.949C64.6157 275.422 65.1884 275.003 65.8306 274.722C66.4626 274.417 67.1503 274.245 67.8513 274.217L67.5175 274.406L71.631 267.48L71.8295 267.155L72.1813 267.3L78.0719 269.672L77.4224 269.996L78.983 263.314L79.1183 262.736L79.6776 262.944L86.8943 265.568L86.1275 266.082L86.353 259.4V258.633L87.1017 258.84L94.598 260.933L93.7771 261.438L95.0671 254.223L95.2115 253.384L96.0143 253.7L103.511 256.586L102.554 257.028L105.441 248.722L105.766 247.82L106.614 248.343L112.243 251.797L111.043 252.194L113.695 245.24L113.993 244.465L114.778 244.753L121.994 247.405L120.894 247.865L124.61 239.369L124.926 238.648L125.684 238.873L131.827 240.677L130.808 241.056C131.556 239.883 132.323 238.729 133.144 237.593C133.55 237.016 133.965 236.456 134.452 235.888C134.713 235.551 135.016 235.248 135.354 234.986C135.431 234.931 135.512 234.883 135.598 234.842C135.75 234.769 135.916 234.726 136.085 234.716H136.365L136.888 234.761L145.196 235.392L144.294 235.861L148.389 228.755L148.75 228.132L149.445 228.304L155.868 229.972L154.758 230.549L157.022 224.597L157.248 223.993H157.897H168.803L167.955 224.525L171.113 217.662L171.356 217.121H171.952H181.306L180.585 217.472L185.149 211.601L185.429 211.241H185.88L192.826 211.538L192.068 211.953L196.109 205.297L196.389 204.828L196.93 204.91L207.611 206.569L206.772 207.092L208.676 201.14L208.838 200.626H209.37H212.753L212.076 201.122L214.341 194.268L214.584 193.528L215.27 193.862L221.395 196.847L220.493 197.307C220.716 196 221.06 194.717 221.521 193.474C221.591 193.301 221.673 193.132 221.765 192.969C221.891 192.732 222.078 192.533 222.306 192.392C222.42 192.33 222.546 192.296 222.676 192.293H222.811H223.055H223.533L225.463 192.41L233.158 192.861L232.653 193.222L234.304 187.594L234.403 187.242H234.764L241.98 187.874L241.593 188.108L244.804 180.605L244.894 180.388L245.12 180.433L253.491 182.156H253.365L260.491 178.197ZM260.491 178.377L253.599 182.598H253.545H253.473L245.084 181.092L245.399 180.92L242.377 188.487L242.269 188.748H241.989L234.773 188.261L235.233 187.937L233.681 193.582L233.573 193.961H233.176L225.517 193.627L223.605 193.546H223.127H222.793C222.838 193.555 222.884 193.555 222.928 193.546C223.01 193.483 222.928 193.546 222.856 193.682C222.79 193.801 222.733 193.924 222.685 194.051C222.28 195.225 221.978 196.432 221.783 197.659L221.638 198.452L220.908 198.11L214.737 195.215L215.64 194.818L213.448 201.699L213.294 202.186H212.771H209.388L210.083 201.672L208.279 207.642L208.089 208.265L207.44 208.165L196.687 206.524L197.499 206.145L193.53 212.837L193.268 213.27H192.763L185.817 213.035L186.547 212.693L182.037 218.591L181.766 218.942H171.952L172.782 218.401L169.642 225.282L169.39 225.815H157.897L158.799 225.21L156.553 231.163L156.255 231.947L155.444 231.749L149.021 230.162L150.076 229.711L145.99 236.826L145.692 237.349L145.079 237.304L136.915 236.637H136.41H136.175C136.258 236.638 136.341 236.622 136.419 236.592C136.419 236.592 136.464 236.592 136.419 236.592C136.219 236.758 136.035 236.943 135.868 237.142C135.444 237.629 135.038 238.17 134.642 238.711C133.857 239.802 133.09 240.948 132.35 242.084L131.971 242.661L131.322 242.463L125.188 240.659L126.261 240.163L122.49 248.64L122.157 249.389L121.399 249.1L114.182 246.395L115.265 245.908L112.559 252.843L112.198 253.745L111.359 253.222L105.757 249.732L106.93 249.317L103.944 257.578L103.682 258.308L102.96 258.029L95.5001 255.044L96.4022 254.521L95.022 261.735L94.8867 262.448L94.2011 262.249L86.7319 260.067L87.5077 259.499L87.219 266.136V266.921L86.4883 266.641L79.2717 263.936L79.9573 263.575L78.3155 270.24L78.1801 270.79L77.666 270.573L71.8024 268.129L72.3437 267.949L68.14 274.821L68.0317 275.002H67.8062C66.6139 275.049 65.4874 275.56 64.6669 276.427C64.4812 276.602 64.3539 276.83 64.3022 277.08C64.2506 277.33 64.2771 277.59 64.3783 277.824C64.7018 278.298 65.1475 278.675 65.6682 278.916C66.2309 279.184 66.8166 279.401 67.4183 279.565C68.0025 279.751 68.6097 279.854 69.2224 279.872C70.4819 279.862 71.7347 279.686 72.948 279.349C75.4101 278.634 77.8211 277.754 80.1647 276.715C82.5282 275.696 84.8555 274.605 87.1829 273.504C91.8377 271.313 96.4473 268.995 101.084 266.759C105.721 264.522 110.366 262.249 115.039 260.103C124.394 255.783 133.703 251.301 143.491 247.91L145.295 247.261C145.909 247.053 146.531 246.882 147.153 246.692L150.861 245.565C152.097 245.168 153.36 244.88 154.614 244.555L158.375 243.599C163.427 242.49 168.524 241.534 173.648 240.894C178.771 240.253 183.895 239.622 188.983 238.973C194.074 238.41 199.131 237.567 204.129 236.447C206.603 235.841 209.042 235.1 211.436 234.229L213.24 233.58L214.981 232.795C216.136 232.254 217.299 231.785 218.445 231.181L232.31 224.336C236.911 222.045 241.502 219.727 245.841 217.049C248.033 215.716 250.142 214.253 252.156 212.666C254.13 211.073 255.913 209.257 257.469 207.254C258.239 206.254 258.935 205.199 259.553 204.098C259.86 203.539 260.094 202.953 260.365 202.384L260.762 201.483C260.888 201.194 260.96 200.878 261.06 200.581L261.637 198.777C261.79 198.164 261.916 197.532 262.061 196.91C262.205 196.288 262.34 195.657 262.431 195.025C262.521 194.394 262.665 193.763 262.737 193.131C263.101 190.595 263.158 188.025 262.909 185.475C262.763 184.206 262.504 182.954 262.133 181.732C261.935 181.114 261.694 180.512 261.411 179.928C261.267 179.649 261.123 179.36 260.951 179.09C260.869 178.955 260.779 178.825 260.681 178.702C260.64 178.633 260.591 178.57 260.536 178.512C260.527 178.467 260.419 178.404 260.473 178.377H260.491Z" fill="black"/>
<path d="M48.9977 205.992C41.9705 209.167 25.4263 215.092 48.8804 188.036C72.3346 160.981 142.697 162.784 146.305 163.686C149.914 164.588 146.305 153.766 168.857 156.471L243.045 168.313C243.045 168.313 259.616 178.062 251.064 179.802C242.513 181.543 186.647 189.29 162.39 187.793C146.783 186.828 120.966 181.48 106.668 181.074C92.3698 180.668 79.9211 192.013 48.9977 205.992Z" fill="#EF783C"/>
<path d="M255.448 170.044C244.939 168.791 234.448 167.293 223.993 165.634C213.537 163.975 203.109 162.135 192.672 160.367C187.449 159.465 182.226 158.645 176.985 157.896C174.369 157.517 171.75 157.172 169.128 156.859C166.516 156.529 163.885 156.387 161.253 156.435C158.651 156.439 156.071 156.916 153.639 157.842C152.459 158.323 151.388 159.038 150.491 159.943C149.636 160.927 148.887 161.997 148.254 163.136C148.046 163.47 147.758 163.746 147.415 163.939C147.031 164.117 146.597 164.156 146.188 164.047C145.555 163.946 144.916 163.88 144.276 163.848C142.968 163.758 141.641 163.713 140.324 163.677C137.69 163.614 135.047 163.623 132.404 163.677C121.834 163.844 111.286 164.712 100.831 166.274C90.3398 167.73 80.0493 170.381 70.1604 174.175C65.2273 176.09 60.5469 178.601 56.2232 181.651L54.6536 182.85L53.8597 183.446L53.12 184.104L51.6496 185.421C51.1355 185.845 50.7476 186.323 50.2604 186.828L48.9073 188.262L47.6263 189.777C46.7243 190.778 45.9575 191.824 45.1185 192.852C43.4948 194.935 41.9252 197.064 40.5179 199.291C39.0533 201.474 37.9223 203.863 37.1622 206.38C36.7652 207.602 36.7652 208.918 37.1622 210.14C37.4033 210.716 37.8001 211.212 38.3078 211.574C38.8332 211.928 39.4209 212.179 40.0398 212.314C41.3126 212.58 42.6215 212.626 43.9098 212.449C45.2082 212.295 46.489 212.017 47.7346 211.619C48.9916 211.216 50.2014 210.677 51.3429 210.014L54.8069 208.075C57.1072 206.777 59.4166 205.478 61.753 204.224C66.4258 201.726 71.1978 199.381 76.0961 197.334C85.8657 193.24 96.1945 190.191 106.83 189.362C112.144 188.934 117.49 189.122 122.761 189.921C125.394 190.333 127.998 190.917 130.555 191.671C131.836 192.031 133.081 192.518 134.344 192.933C135.607 193.348 136.824 193.88 138.06 194.358C147.938 198.173 157.771 202.159 167.315 206.786C172.096 209.094 176.76 211.656 181.297 214.397C183.561 215.75 185.807 217.103 188.126 218.374C189.294 218.852 190.544 219.1 191.806 219.105C193.112 219.15 194.42 219.114 195.721 218.997C200.965 218.454 206.155 217.476 211.237 216.075C216.349 214.734 221.392 213.156 226.365 211.34C231.341 209.556 236.224 207.525 240.997 205.252C245.792 203.03 250.358 200.341 254.627 197.226C256.763 195.681 258.639 193.806 260.184 191.671C260.944 190.599 261.439 189.363 261.628 188.063C261.676 187.411 261.66 186.755 261.582 186.106C261.519 185.448 261.492 184.789 261.411 184.131C261.166 181.499 260.637 178.902 259.832 176.384C259.406 175.129 258.853 173.92 258.182 172.777C257.84 172.217 257.441 171.694 256.991 171.217C256.562 170.724 256.037 170.325 255.448 170.044V170.044ZM255.448 169.954C256.062 170.237 256.609 170.645 257.054 171.153C257.505 171.64 257.912 172.165 258.272 172.723C258.952 173.865 259.514 175.074 259.95 176.33C260.779 178.851 261.33 181.454 261.591 184.095C261.682 184.753 261.718 185.421 261.781 186.079C261.866 186.743 261.885 187.414 261.835 188.081C261.652 189.417 261.154 190.691 260.383 191.797C258.838 193.97 256.952 195.879 254.799 197.451C250.542 200.617 245.982 203.353 241.186 205.622C236.423 207.949 231.525 210.014 226.555 211.863C221.584 213.712 216.541 215.353 211.427 216.742C206.31 218.202 201.081 219.237 195.794 219.835C194.457 219.965 193.113 220.013 191.77 219.98C190.379 219.982 189.002 219.706 187.72 219.168C185.356 217.896 183.11 216.517 180.837 215.155C176.327 212.449 171.69 209.87 166.927 207.57C157.428 202.917 147.658 198.957 137.735 195.134C136.5 194.656 135.273 194.16 134.028 193.709C132.783 193.258 131.556 192.807 130.293 192.464C127.772 191.721 125.204 191.143 122.608 190.733C117.403 189.935 112.124 189.744 106.875 190.164C101.62 190.591 96.414 191.497 91.3232 192.87C86.2369 194.224 81.2488 195.924 76.3938 197.956C71.5135 199.968 66.7505 202.267 62.0687 204.729C59.7323 205.965 57.423 207.246 55.1136 208.535L51.6226 210.456C50.4648 211.127 49.2365 211.668 47.9601 212.07C46.6819 212.473 45.3678 212.751 44.0361 212.9C42.693 213.079 41.3293 213.027 40.0037 212.747C39.3287 212.591 38.689 212.31 38.1184 211.917C37.5441 211.508 37.0969 210.946 36.8284 210.294C36.4048 208.98 36.4048 207.567 36.8284 206.253C37.6144 203.693 38.7724 201.262 40.2654 199.039C41.6997 196.802 43.2873 194.674 44.9201 192.581C45.768 191.562 46.5799 190.516 47.455 189.515L48.7359 188.009C49.1869 187.513 49.638 187.044 50.1071 186.557C50.5761 186.07 51.0092 185.574 51.5143 185.15L53.0118 183.833L53.7605 183.175L54.5544 182.571L56.142 181.371C60.4797 178.329 65.1569 175.802 70.0792 173.841C79.9603 169.977 90.2506 167.254 100.75 165.724C111.232 164.104 121.809 163.179 132.413 162.956C135.065 162.901 137.717 162.883 140.37 162.956C141.696 162.956 143.022 163.019 144.357 163.109C145.037 163.136 145.715 163.205 146.386 163.316C146.619 163.386 146.869 163.37 147.09 163.271C147.32 163.127 147.514 162.933 147.658 162.703C148.297 161.519 149.069 160.412 149.959 159.402C150.924 158.417 152.077 157.635 153.351 157.103C155.874 156.132 158.558 155.646 161.262 155.669C163.928 155.639 166.594 155.805 169.236 156.165C171.864 156.501 174.489 156.865 177.111 157.256C182.352 158.049 187.567 158.942 192.781 159.853C203.209 161.657 213.628 163.605 224.074 165.336C234.52 167.068 244.957 168.646 255.466 169.954H255.448Z" fill="black"/>
<path d="M260.482 178.287C236.875 193.447 130.97 242.147 103.006 257.479C75.0409 272.81 70.5305 274.614 67.8242 274.614C65.118 274.614 60.6076 278.221 67.8242 280.025C75.0409 281.829 92.1805 270.105 131.872 252.969C170.662 236.213 194.847 243.996 217.931 232.227C241.015 220.458 258.435 214.028 262.043 198.696C265.651 183.365 260.482 178.287 260.482 178.287Z" fill="#FFBD9C" stroke="black" stroke-width="2" stroke-miterlimit="10"/>
<path d="M238.336 164.894C259.634 176.005 261.79 199.958 253.671 210.582C244.65 222.306 203.155 238.54 203.155 238.54C207.665 241.245 284.342 232.227 281.636 225.012C278.93 217.797 247.357 150.158 252.769 126.71C258.182 103.262 275.321 45.5434 265.398 43.7397C255.475 41.936 217.588 58.1693 204.057 67.1878C190.525 76.2064 87.6878 96.949 63.3316 96.0471C38.9753 95.1452 15.7738 119.802 20.0316 126.71C21.6012 129.262 24.4157 131.084 28.2406 132.347C39.1919 135.954 58.4694 134.89 80.832 132.879C86.5512 132.365 92.4779 131.797 98.5128 131.219L101.869 135.178L104.277 132.175L108.282 135.783L111.692 133.772L113.496 136.18L117.511 133.772L120.912 136.784L124.123 133.772L127.325 137.181L130.735 134.574L134.344 138.38L137.357 135.575L140.46 138.182L143.563 136.982L145.575 139.985L149.237 138.182L152.584 141.32L155.795 140.418L157.915 143.223L161.406 141.347L165.637 144.224L169.029 142.817L170.03 145.622L175.37 145.027V147.002L179.881 146.605L180.882 149.202L186.096 149.004L186.493 151.61L192.302 150.609L196.515 155.218L198.121 153.414L200.322 156.038H205.338L206.736 160.024L211.147 158.825L213.159 162.631L217.976 161.035L218.878 164.642L224.155 162.838L227.565 164.435H232.571C233.555 164.435 238.336 164.894 238.336 164.894Z" fill="#B3B3B3"/>
<path d="M238.363 164.804C242.572 166.937 246.354 169.822 249.522 173.318C252.682 176.838 255.097 180.961 256.621 185.439C258.167 189.929 258.721 194.701 258.245 199.426C257.999 201.798 257.431 204.125 256.558 206.344C255.675 208.579 254.37 210.625 252.715 212.368C249.305 215.645 245.506 218.492 241.403 220.845C237.389 223.298 233.284 225.508 229.054 227.636C220.634 231.845 212.079 235.693 203.389 239.18L203.489 237.954C203.779 238.063 204.082 238.136 204.391 238.17C204.76 238.224 205.148 238.251 205.536 238.278C206.321 238.323 207.115 238.332 207.918 238.332C209.505 238.332 211.111 238.269 212.717 238.188C215.928 238.017 219.14 237.764 222.342 237.467C228.756 236.871 235.161 236.114 241.547 235.23C247.934 234.346 254.294 233.327 260.608 232.092C263.766 231.478 266.923 230.802 270.017 229.999C273.116 229.292 276.138 228.28 279.038 226.978C279.67 226.682 280.242 226.273 280.725 225.77C280.914 225.544 280.923 225.409 280.905 225.337C280.887 225.264 280.905 225.337 280.905 225.292L280.851 225.156L280.752 224.877L280.526 224.327L278.641 219.88L274.852 210.97C272.345 205.018 269.912 199.033 267.554 193.014C262.794 180.984 258.713 168.697 255.331 156.21C253.618 149.944 252.438 143.546 251.804 137.081C251.496 133.821 251.617 130.534 252.165 127.305C252.869 124.122 253.68 120.992 254.474 117.881C257.713 105.381 260.996 92.8997 263.802 80.3098C265.191 73.9969 266.508 67.6839 267.41 61.3078C267.88 58.1272 268.13 54.918 268.159 51.7031C268.181 50.1138 268.014 48.5275 267.663 46.9774C267.509 46.2281 267.202 45.5187 266.761 44.8941C266.541 44.6112 266.264 44.3777 265.949 44.2087C265.609 44.07 265.25 43.9848 264.884 43.9562C263.301 43.853 261.71 43.9439 260.148 44.2267C258.561 44.4793 256.991 44.831 255.439 45.2188C252.318 46.0124 249.251 47.0225 246.202 48.0235C240.113 50.1249 234.132 52.5328 228.233 55.1391C222.333 57.7455 216.506 60.5503 210.886 63.6526C209.478 64.4282 208.08 65.2309 206.718 66.0696C206.032 66.4844 205.356 66.9083 204.688 67.3502C204.364 67.5757 203.994 67.7921 203.642 68.0176C203.29 68.2431 202.92 68.4234 202.541 68.5948C199.578 69.9819 196.525 71.169 193.403 72.1481C187.251 74.1772 181.018 75.8908 174.766 77.5592C168.515 79.2276 162.227 80.6886 155.931 82.1226C143.302 84.9965 130.648 87.6118 117.971 89.9687C105.261 92.3135 92.5052 94.4238 79.6505 95.9209C76.4301 96.2816 73.2006 96.6063 69.9621 96.8227C68.3384 96.9219 66.7056 96.9851 65.0728 96.9941C63.4401 97.0031 61.8524 96.9039 60.2738 96.9941C53.9266 97.4054 47.7382 99.1542 42.1148 102.126C36.4565 105.035 31.3225 108.866 26.9237 113.462C24.7376 115.706 22.8927 118.258 21.4481 121.037C20.7564 122.302 20.4139 123.727 20.4558 125.168C20.4779 125.48 20.5575 125.786 20.6903 126.07L20.7895 126.259L20.9339 126.485C21.0331 126.638 21.1414 126.782 21.2496 126.927C21.6961 127.514 22.2075 128.05 22.7741 128.523C25.2458 130.378 28.1094 131.643 31.1455 132.22C34.2604 132.895 37.4252 133.314 40.6083 133.474C47.0167 133.848 53.4414 133.848 59.8498 133.474C72.7135 132.843 85.5592 131.481 98.4138 130.299H98.8829L99.1806 130.651L102.527 134.619H101.165L103.583 131.616L104.16 130.895L104.837 131.517L108.833 135.124L107.841 135.025L111.25 133.032L111.9 132.662L112.342 133.258L114.146 135.665L113.064 135.458L117.078 133.068L117.592 132.762L118.034 133.149L121.426 136.171H120.362L123.582 133.176L124.15 132.644L124.683 133.203L127.876 136.621L126.857 136.54L130.275 133.952L130.808 133.546L131.268 134.033L134.876 137.848H133.848L136.87 135.052L137.33 134.619L137.808 135.025L140.902 137.641L140.207 137.523L143.32 136.333L143.834 136.143L144.131 136.594L146.125 139.607L145.277 139.381L148.949 137.577L149.354 137.379L149.688 137.686L153.026 140.833L152.413 140.689L155.624 139.787L156.039 139.67L156.292 140.012L158.402 142.826L157.627 142.655L161.127 140.788L161.451 140.617L161.749 140.824L165.962 143.719L165.412 143.656L168.812 142.267L169.363 142.042L169.561 142.601L170.553 145.415L169.967 145.045L175.307 144.468L175.903 144.395V147.002L175.325 146.479L179.836 146.091H180.224L180.359 146.452L181.351 149.058L180.864 148.742L186.069 148.562H186.511L186.574 148.986L186.962 151.592L186.412 151.195L192.231 150.221H192.474L192.645 150.402L196.831 155.028H196.191L197.805 153.225L198.13 152.864L198.446 153.234L200.638 155.867L200.322 155.714H205.338H205.608L205.69 155.966L207.07 159.97L206.646 159.745L211.066 158.573L211.319 158.509L211.427 158.735L213.411 162.55L213.069 162.414L217.895 160.845L218.156 160.764L218.22 161.026L219.122 164.633L218.824 164.471L224.119 162.712H224.191H224.264L227.655 164.335H227.592H230.298C231.201 164.335 232.103 164.335 233.005 164.335C233.907 164.335 234.809 164.471 235.711 164.552L238.363 164.804ZM238.363 164.976L235.657 164.759C234.755 164.687 233.853 164.615 232.951 164.579C232.048 164.543 231.146 164.579 230.244 164.579H227.538L224.119 163.001H224.264L218.995 164.804L218.761 164.886L218.698 164.651L217.75 161.044L218.075 161.215L213.267 162.856L213.033 162.928L212.915 162.712L210.804 158.969L211.174 159.132L206.772 160.367L206.456 160.448L206.348 160.142L204.923 156.165L205.275 156.408H200.259H200.07L199.952 156.264L197.733 153.648H198.374L196.777 155.452L196.461 155.804L196.137 155.452L191.906 150.862L192.321 150.997L186.511 152.025L186.033 152.106L185.961 151.628L185.546 149.076L186.042 149.491L180.828 149.707H180.467L180.341 149.365L179.331 146.767L179.854 147.092L175.344 147.507L174.766 147.561V144.982L175.362 145.514L170.03 146.136L169.588 146.181L169.444 145.766L168.425 142.961L169.182 143.295L165.79 144.711L165.511 144.837L165.249 144.657L161.009 141.789H161.632L158.141 143.683L157.681 143.926L157.365 143.512L155.236 140.707L155.904 140.932L152.701 141.834L152.358 141.942L152.088 141.69L148.732 138.569L149.463 138.678L145.8 140.481L145.277 140.743L144.952 140.247L142.932 137.253L143.753 137.505L140.649 138.723L140.271 138.876L139.955 138.606L136.834 136.017H137.736L134.822 138.885L134.299 139.381L133.803 138.858L130.194 135.061L131.187 135.142L127.795 137.758L127.253 138.173L126.775 137.677L123.555 134.277H124.655L121.453 137.298L120.939 137.785L120.389 137.307L116.988 134.376L117.944 134.457L113.939 136.874L113.307 137.262L112.856 136.667L111.052 134.268L112.144 134.484L108.743 136.504L108.21 136.82L107.741 136.405L103.718 132.798L104.981 132.698L102.554 135.729L101.887 136.567L101.183 135.747L97.8185 131.806L98.5852 132.121C85.7306 133.303 72.8939 134.692 59.949 135.341C53.4693 135.73 46.9725 135.745 40.4911 135.386C37.2153 135.189 33.9604 134.73 30.7576 134.015C27.5642 133.24 24.2987 132.211 21.5924 129.93C20.9194 129.367 20.314 128.729 19.7882 128.027C19.6488 127.854 19.5193 127.673 19.4004 127.486L19.2199 127.206L19.0305 126.854C18.8115 126.394 18.6713 125.9 18.6155 125.393C18.5234 123.595 18.9225 121.806 19.7702 120.217C21.2921 117.252 23.2571 114.536 25.5977 112.163C30.1562 107.422 35.4769 103.477 41.339 100.493C47.1679 97.4191 53.5801 95.609 60.1565 95.1814C61.8073 95.0912 63.4852 95.1814 65.0458 95.1814C66.6064 95.1814 68.2301 95.1273 69.8268 95.0281C73.0292 94.8387 76.2316 94.532 79.434 94.1803C92.2255 92.7464 104.963 90.636 117.664 88.4085C130.366 86.1809 143.022 83.6286 155.615 80.8419C161.918 79.4531 168.196 77.977 174.45 76.4138C180.702 74.8266 186.935 73.1582 193.06 71.1921C196.122 70.2416 199.117 69.0908 202.027 67.747C202.736 67.4037 203.42 67.012 204.075 66.5746C204.76 66.1237 205.446 65.6728 206.141 65.276C207.53 64.4342 208.937 63.6286 210.362 62.859C216.046 59.7656 221.891 56.997 227.818 54.4087C233.744 51.8203 239.752 49.4304 245.859 47.3471C248.926 46.31 252.021 45.3541 255.169 44.5694C256.738 44.1907 258.326 43.8389 259.932 43.5954C261.551 43.3084 263.199 43.2235 264.839 43.3429C265.279 43.375 265.71 43.485 266.111 43.6676C266.517 43.8872 266.869 44.1955 267.14 44.5694C267.633 45.2628 267.982 46.0478 268.168 46.8782C268.522 48.4796 268.686 50.1173 268.655 51.7572C268.605 54.9961 268.346 58.2285 267.879 61.4341C266.977 67.8462 265.732 74.1863 264.361 80.4992C261.655 93.1252 258.308 105.607 255.223 118.134C254.465 121.263 253.671 124.446 253.013 127.531C252.513 130.681 252.429 133.882 252.76 137.054C253.424 143.443 254.631 149.764 256.369 155.948C259.859 168.351 264.027 180.553 268.853 192.5C271.211 198.513 273.653 204.48 276.178 210.402L279.994 219.294L281.898 223.758L282.132 224.327L282.24 224.624L282.304 224.768L282.376 225.012C282.438 225.33 282.426 225.658 282.342 225.97C282.257 226.283 282.102 226.572 281.889 226.816C281.268 227.496 280.52 228.047 279.687 228.439C278.2 229.166 276.655 229.769 275.069 230.243C273.508 230.748 271.939 231.145 270.36 231.577C267.212 232.371 264.045 233.038 260.861 233.652C254.546 234.869 248.106 235.87 241.701 236.736C235.296 237.602 228.864 238.341 222.423 238.919C219.203 239.207 215.973 239.451 212.735 239.604C211.111 239.685 209.496 239.739 207.864 239.739C207.043 239.739 206.222 239.739 205.401 239.667C204.986 239.667 204.562 239.604 204.138 239.55C203.645 239.499 203.165 239.358 202.722 239.135L201.432 238.468L202.821 237.908C211.49 234.445 220.087 230.694 228.467 226.59C232.653 224.516 236.793 222.342 240.79 219.953C244.836 217.676 248.589 214.914 251.966 211.728C255.196 208.463 256.82 203.9 257.379 199.345C257.909 194.729 257.432 190.052 255.981 185.637C254.539 181.202 252.22 177.101 249.161 173.579C246.093 170.083 242.42 167.169 238.318 164.976H238.363Z" fill="black"/>
<path d="M20.0135 126.71C15.7557 119.802 38.9573 95.1452 63.3135 96.0471C87.6698 96.949 190.507 76.2064 204.039 67.1878C217.57 58.1693 255.457 41.936 265.38 43.7397C275.303 45.5434 258.164 103.262 252.751 126.71C247.339 150.158 278.911 217.797 281.618 225.012C284.324 232.227 207.647 241.245 203.136 238.54C203.136 238.54 244.632 222.306 253.653 210.582C262.674 198.858 259.066 170.901 231.101 161.882C203.136 152.864 136.382 127.612 98.4948 131.219C60.6073 134.827 27.2302 138.434 20.0135 126.71Z" fill="#F7931E"/>
<path d="M19.9328 126.755C19.6312 126.108 19.4608 125.407 19.4313 124.694C19.4019 123.98 19.5141 123.268 19.7614 122.598C20.1828 121.249 20.7707 119.959 21.5114 118.756C23.0036 116.364 24.7585 114.147 26.7435 112.145C30.6966 108.127 35.212 104.703 40.1485 101.981C45.063 99.2007 50.4176 97.282 55.98 96.3087C57.3718 96.0788 58.7751 95.9252 60.1837 95.8488C60.8964 95.7856 61.6 95.7947 62.3036 95.7947H64.4145C67.2019 95.7947 69.9984 95.6143 72.7949 95.3888C83.9536 94.3607 95.0492 92.6021 106.1 90.6992C117.15 88.7963 128.165 86.6048 139.152 84.3321C150.139 82.0595 161.082 79.5794 171.952 76.8287C177.364 75.4399 182.777 74.0149 188.189 72.4277C190.896 71.616 193.539 70.7953 196.155 69.8484C198.768 69.0011 201.286 67.8859 203.669 66.5205C208.444 63.5126 213.4 60.8019 218.508 58.4039C223.569 55.9418 228.729 53.6872 233.952 51.5769C239.175 49.4665 244.452 47.5185 249.847 45.8591C252.553 45.0475 255.259 44.2989 258.056 43.7488C259.452 43.4634 260.865 43.2647 262.286 43.1536C263.014 43.1129 263.742 43.1129 264.47 43.1536C264.839 43.2077 265.2 43.2347 265.588 43.3069C266.004 43.4 266.394 43.5815 266.734 43.839C267.35 44.3489 267.818 45.0156 268.087 45.7689C268.35 46.4591 268.537 47.1758 268.646 47.9063C268.857 49.3241 268.947 50.7571 268.917 52.1901C268.849 55.015 268.617 57.8335 268.222 60.6315C267.464 66.2139 266.418 71.7332 265.191 77.2255C262.837 88.2101 260.049 99.0864 257.253 109.963C255.873 115.374 254.438 120.785 253.166 126.286C252.588 129.009 252.355 131.793 252.472 134.574C252.61 137.367 252.911 140.15 253.374 142.907C254.301 148.43 255.554 153.892 257.127 159.267C258.651 164.678 260.383 169.99 262.214 175.284C265.904 185.881 270.044 196.306 274.374 206.65C276.548 211.827 278.795 216.958 281.023 222.117L281.853 224.065L282.051 224.561C282.138 224.754 282.201 224.957 282.241 225.165C282.298 225.424 282.298 225.692 282.241 225.95C282.161 226.173 282.048 226.382 281.907 226.572C281.413 227.181 280.799 227.682 280.103 228.042C279.468 228.399 278.811 228.716 278.136 228.989C275.491 230.027 272.779 230.882 270.017 231.55C264.542 232.921 259.012 233.985 253.473 234.941C247.934 235.897 242.359 236.745 236.785 237.43C231.21 238.116 225.626 238.774 220.015 239.234C217.209 239.478 214.404 239.685 211.58 239.802C210.164 239.856 208.757 239.902 207.332 239.893C206.619 239.893 205.897 239.893 205.167 239.811C204.806 239.811 204.436 239.739 204.057 239.685C203.856 239.654 203.658 239.612 203.462 239.559L203.137 239.469L202.749 239.288L201.152 238.486L202.875 237.8C209.388 235.197 215.826 232.395 222.189 229.395C228.503 226.392 234.818 223.217 240.79 219.61C243.78 217.838 246.639 215.852 249.342 213.667C250.662 212.588 251.871 211.38 252.95 210.059C253.958 208.723 254.777 207.254 255.386 205.694C256.015 204.122 256.475 202.486 256.757 200.815C257.029 199.134 257.162 197.432 257.154 195.729C257.13 194.022 256.979 192.318 256.703 190.633C256.403 188.949 255.984 187.289 255.449 185.664C253.217 179.134 249.075 173.425 243.559 169.278C240.804 167.211 237.8 165.496 234.62 164.173C231.453 162.865 228.034 161.891 224.697 160.737C211.355 156.228 198.04 151.718 184.617 147.489C171.194 143.259 157.672 139.372 143.942 136.387C137.086 134.863 130.185 133.555 123.194 132.617C116.245 131.635 109.228 131.228 102.212 131.4C98.7297 131.58 95.2116 131.941 91.7115 132.248L81.1842 133.149C74.166 133.745 67.1478 134.259 60.1116 134.601C53.074 135.021 46.0164 134.976 38.9848 134.466C35.4609 134.201 31.9747 133.566 28.5837 132.572C26.8939 132.047 25.2712 131.327 23.7486 130.426C22.2053 129.52 20.8979 128.262 19.9328 126.755V126.755ZM20.0951 126.665C21.0433 128.144 22.3256 129.38 23.8388 130.272C25.3516 131.154 26.9622 131.856 28.6379 132.365C32.0153 133.335 35.4872 133.94 38.9938 134.168C46.013 134.642 53.0562 134.642 60.0755 134.168C74.139 133.429 88.0401 131.688 102.158 130.489C109.221 130.24 116.294 130.575 123.302 131.49C130.321 132.338 137.276 133.555 144.177 134.989C157.988 137.911 171.582 141.708 185.068 145.811C198.554 149.915 211.878 154.514 225.22 158.978C228.549 160.133 231.913 161.08 235.26 162.46C238.594 163.821 241.743 165.597 244.633 167.744C250.455 172.113 254.829 178.13 257.19 185.015C257.761 186.739 258.207 188.502 258.525 190.291C258.82 192.08 258.98 193.889 259.003 195.702C259.008 197.515 258.86 199.325 258.561 201.113C258.246 202.912 257.747 204.674 257.072 206.371C256.39 208.087 255.48 209.704 254.366 211.178C253.206 212.592 251.903 213.882 250.478 215.028C247.702 217.268 244.762 219.297 241.683 221.098C235.59 224.685 229.318 227.959 222.892 230.91C216.488 233.916 210.008 236.712 203.453 239.297L203.579 237.809C203.808 237.897 204.048 237.958 204.292 237.99C204.598 237.99 204.923 238.08 205.266 238.098C205.933 238.152 206.619 238.179 207.314 238.179C208.694 238.179 210.083 238.179 211.481 238.107C214.269 237.999 217.056 237.809 219.843 237.593C225.427 237.151 231.002 236.565 236.568 235.888C242.134 235.212 247.673 234.481 253.203 233.58C258.732 232.678 264.244 231.659 269.675 230.324C272.379 229.694 275.037 228.881 277.631 227.889C278.249 227.622 278.851 227.321 279.435 226.987C279.987 226.707 280.479 226.324 280.887 225.86C280.956 225.787 281.008 225.7 281.04 225.605C281.071 225.51 281.08 225.409 281.068 225.31C281.038 225.173 280.993 225.039 280.933 224.913L280.743 224.435L279.94 222.496C277.757 217.337 275.547 212.17 273.4 206.975C269.115 196.595 265.029 186.133 261.384 175.5C259.58 170.179 257.866 164.822 256.36 159.411C254.811 154.001 253.579 148.506 252.67 142.952C252.225 140.167 251.942 137.357 251.822 134.538C251.715 131.707 251.967 128.874 252.571 126.106C253.87 120.641 255.277 115.203 256.621 109.755C259.328 98.879 262.124 87.9936 264.433 77.0181C265.552 71.5258 266.589 66.0155 267.284 60.4691C267.651 57.7029 267.853 54.9172 267.888 52.127C267.911 50.7534 267.814 49.3805 267.6 48.0236C267.494 47.3666 267.318 46.7226 267.077 46.1026C266.871 45.527 266.516 45.0164 266.048 44.6236C265.83 44.4576 265.577 44.3435 265.308 44.2899C265.011 44.2358 264.659 44.2087 264.343 44.1727C263.666 44.1382 262.988 44.1532 262.314 44.2178C260.937 44.3337 259.569 44.5386 258.218 44.831C255.512 45.3902 252.806 46.1567 250.099 46.9864C244.777 48.6729 239.536 50.666 234.367 52.8034C229.198 54.9408 224.092 57.3126 219.032 59.7206C213.996 62.1311 209.11 64.8415 204.4 67.8373C201.919 69.2859 199.291 70.4679 196.561 71.3635C193.9 72.3285 191.211 73.1672 188.523 73.9879C183.111 75.6112 177.698 77.0542 172.231 78.3979C161.316 81.1035 150.338 83.5024 139.324 85.739C128.309 87.9756 117.259 89.9507 106.163 91.7453C95.0673 93.54 83.9446 95.1453 72.7317 96.0382C69.9262 96.2366 67.1207 96.4169 64.2972 96.3538H62.1954C61.4918 96.3538 60.7971 96.3538 60.1025 96.3538C58.7103 96.4171 57.3222 96.5526 55.9439 96.7596C50.4539 97.6758 45.1644 99.5372 40.3108 102.261C35.3912 104.952 30.8855 108.339 26.9329 112.317C24.9532 114.3 23.1985 116.496 21.7008 118.864C20.9704 120.052 20.3858 121.324 19.9598 122.652C19.7149 123.296 19.6007 123.983 19.6239 124.672C19.6471 125.361 19.8073 126.039 20.0951 126.665V126.665Z" fill="black"/>
<path d="M140.442 103.713C141.551 101.061 142.246 98.1846 144.249 95.7315C145.281 94.5172 146.56 93.5364 148.001 92.8546C149.439 92.2285 150.957 91.8066 152.512 91.601C153.279 91.4838 154.036 91.4568 154.794 91.3846L156.95 91.3034L161.28 91.1411C164.238 91.0185 167.202 91.1059 170.148 91.4026C170.932 91.4977 171.709 91.6423 172.475 91.8355C173.352 92.0367 174.194 92.3681 174.974 92.8185C175.205 92.9537 175.422 93.1108 175.623 93.2875C175.855 93.4727 176.064 93.6846 176.246 93.9188C176.668 94.4377 176.942 95.0608 177.039 95.7225C177.164 96.8128 176.923 97.9136 176.354 98.8519C175.555 100.219 174.601 101.49 173.512 102.64C172.435 103.784 171.198 104.769 169.841 105.562C168.496 106.389 167.028 106.997 165.493 107.365C163.893 107.756 162.215 107.693 160.649 107.185C159.855 106.903 159.139 106.44 158.556 105.832C157.936 105.219 157.569 104.395 157.527 103.524C157.519 103.108 157.595 102.695 157.75 102.309C157.905 101.923 158.136 101.572 158.429 101.278C158.951 100.75 159.587 100.349 160.288 100.106C159.701 100.496 159.203 101.006 158.826 101.603C158.656 101.867 158.542 102.163 158.489 102.473C158.436 102.783 158.447 103.1 158.52 103.406C158.714 103.978 159.069 104.482 159.543 104.856C160.017 105.23 160.589 105.46 161.19 105.517C162.434 105.72 163.71 105.58 164.879 105.111C166.11 104.658 167.27 104.032 168.325 103.253C170.433 101.686 172.152 99.6556 173.35 97.3188C173.533 97.0178 173.624 96.6698 173.612 96.3177C173.612 96.2546 173.612 96.2456 173.53 96.1825C173.492 96.1339 173.446 96.0913 173.395 96.0562C173.322 96.0001 173.243 95.9518 173.16 95.9119C172.075 95.4078 170.908 95.1023 169.715 95.01C167.008 94.6673 164.167 94.6493 161.316 94.5772L157.004 94.487L154.83 94.4238C154.163 94.4238 153.477 94.4238 152.809 94.4238C151.486 94.4793 150.175 94.6943 148.903 95.0642C147.665 95.4638 146.523 96.1147 145.548 96.9761C143.473 98.6716 142.246 101.422 140.442 103.713Z" fill="black"/>
</g>
<defs>
<clipPath id="clip0_487_79">
<rect width="1267" height="984" fill="white"/>
</clipPath>
</defs>
</svg>
