<svg width="215" height="389" viewBox="0 0 215 389" fill="none" xmlns="http://www.w3.org/2000/svg">
<path d="M214.82 55.04H162.11V504H214.82V55.04Z" fill="#9074E6"/>
<path d="M210.39 117.04H172.99V130.44H210.39V117.04Z" fill="#D376BC"/>
<path d="M210.39 132.04H172.99V141.41H210.39V132.04Z" fill="#D376BC"/>
<path d="M169 125.51H164.99V130.44H169V125.51Z" fill="#E377B1"/>
<path d="M169 136.73H164.99V141.41H169V136.73Z" fill="#E377B1"/>
<path d="M210.39 143.04H172.99V152.41H210.39V143.04Z" fill="#D376BC"/>
<path d="M169 147.73H164.99V152.41H169V147.73Z" fill="#E377B1"/>
<path d="M210.39 154.04H172.99V163.41H210.39V154.04Z" fill="#D376BC"/>
<path d="M169 158.73H164.99V163.41H169V158.73Z" fill="#E377B1"/>
<path d="M210.39 165.04H172.99V174.41H210.39V165.04Z" fill="#D376BC"/>
<path d="M169 169.73H164.99V174.41H169V169.73Z" fill="#E377B1"/>
<path d="M210.39 176.04H172.99V185.41H210.39V176.04Z" fill="#D376BC"/>
<path d="M169 180.73H164.99V185.41H169V180.73Z" fill="#E377B1"/>
<path d="M210.39 187.04H172.99V196.41H210.39V187.04Z" fill="#D376BC"/>
<path d="M169 191.73H164.99V196.41H169V191.73Z" fill="#E377B1"/>
<path d="M210.39 198.04H172.99V207.41H210.39V198.04Z" fill="#D376BC"/>
<path d="M169 202.73H164.99V207.41H169V202.73Z" fill="#E377B1"/>
<path d="M210.39 209.04H172.99V218.41H210.39V209.04Z" fill="#D376BC"/>
<path d="M169 213.73H164.99V218.41H169V213.73Z" fill="#E377B1"/>
<path d="M210.39 220.04H172.99V229.41H210.39V220.04Z" fill="#D376BC"/>
<path d="M169 224.73H164.99V229.41H169V224.73Z" fill="#E377B1"/>
<path d="M117.78 220.55H86.48V50.19C86.476 49.0223 86.8807 47.89 87.6241 46.9896C88.3675 46.0891 89.4027 45.4772 90.55 45.26L117.78 40V220.55Z" fill="#D376BC"/>
<path d="M117.78 40H156C158.387 40 160.676 40.9482 162.364 42.636C164.052 44.3239 165 46.6131 165 49V220.8H117.78V40Z" fill="#9074E6"/>
<path d="M115.08 21.78H103V10.61C103 8.12002 103.91 5.94002 105.21 5.29002L115.13 0.390015L115.08 21.78Z" fill="#D376BC"/>
<path d="M114.75 0.390015H136.46C137.143 0.400551 137.793 0.68114 138.269 1.17033C138.745 1.65953 139.008 2.31745 139 3.00002V17.9H114.75V0.390015Z" fill="#9074E6"/>
<path d="M116.57 31.78H97.08V20.61C97.0364 19.4611 97.3572 18.3278 97.9966 17.3723C98.6361 16.4167 99.5613 15.6879 100.64 15.29L116.57 10.39V31.78Z" fill="#D376BC"/>
<path d="M114.75 10.39H151.75C152.633 10.39 153.48 10.7409 154.105 11.3653C154.729 11.9898 155.08 12.8368 155.08 13.72V27.87H114.75V10.39Z" fill="#9074E6"/>
<path d="M114.75 45.78H92.48V34.61C92.4797 33.3993 92.8781 32.2222 93.6138 31.2606C94.3494 30.299 95.3813 29.6064 96.55 29.29L114.75 24.39V45.78Z" fill="#D376BC"/>
<path d="M114.75 24.39H155.27C156.19 24.39 157.073 24.7556 157.724 25.4064C158.374 26.0571 158.74 26.9397 158.74 27.86V41.86H114.74V24.39H114.75Z" fill="#9074E6"/>
<path d="M92.22 56.0201C92.22 55.4788 91.7812 55.04 91.24 55.04C90.6988 55.04 90.26 55.4788 90.26 56.0201V75.45C90.26 75.9913 90.6988 76.43 91.24 76.43C91.7812 76.43 92.22 75.9913 92.22 75.45V56.0201Z" fill="#E377B1"/>
<path d="M98.22 55.0201C98.22 54.4788 97.7812 54.04 97.24 54.04C96.6988 54.04 96.26 54.4788 96.26 55.0201V74.45C96.26 74.9913 96.6988 75.43 97.24 75.43C97.7812 75.43 98.22 74.9913 98.22 74.45V55.0201Z" fill="#E377B1"/>
<path d="M104.22 54.0201C104.22 53.4788 103.781 53.04 103.24 53.04C102.699 53.04 102.26 53.4788 102.26 54.0201V73.45C102.26 73.9913 102.699 74.43 103.24 74.43C103.781 74.43 104.22 73.9913 104.22 73.45V54.0201Z" fill="#E377B1"/>
<path d="M92.22 89.0201C92.22 88.4788 91.7812 88.04 91.24 88.04C90.6988 88.04 90.26 88.4788 90.26 89.0201V108.45C90.26 108.991 90.6988 109.43 91.24 109.43C91.7812 109.43 92.22 108.991 92.22 108.45V89.0201Z" fill="#E377B1"/>
<path d="M98.22 88.0201C98.22 87.4788 97.7812 87.04 97.24 87.04C96.6988 87.04 96.26 87.4788 96.26 88.0201V107.45C96.26 107.991 96.6988 108.43 97.24 108.43C97.7812 108.43 98.22 107.991 98.22 107.45V88.0201Z" fill="#E377B1"/>
<path d="M104.22 87.0201C104.22 86.4788 103.781 86.04 103.24 86.04C102.699 86.04 102.26 86.4788 102.26 87.0201V106.45C102.26 106.991 102.699 107.43 103.24 107.43C103.781 107.43 104.22 106.991 104.22 106.45V87.0201Z" fill="#E377B1"/>
<path d="M92.22 120.02C92.22 119.479 91.7812 119.04 91.24 119.04C90.6988 119.04 90.26 119.479 90.26 120.02V139.45C90.26 139.991 90.6988 140.43 91.24 140.43C91.7812 140.43 92.22 139.991 92.22 139.45V120.02Z" fill="#E377B1"/>
<path d="M98.22 119.02C98.22 118.479 97.7812 118.04 97.24 118.04C96.6988 118.04 96.26 118.479 96.26 119.02V138.45C96.26 138.991 96.6988 139.43 97.24 139.43C97.7812 139.43 98.22 138.991 98.22 138.45V119.02Z" fill="#E377B1"/>
<path d="M104.22 118.02C104.22 117.479 103.781 117.04 103.24 117.04C102.699 117.04 102.26 117.479 102.26 118.02V137.45C102.26 137.991 102.699 138.43 103.24 138.43C103.781 138.43 104.22 137.991 104.22 137.45V118.02Z" fill="#E377B1"/>
<path d="M126 50.74C126.865 50.74 127.694 51.0835 128.305 51.6948C128.917 52.3062 129.26 53.1354 129.26 54V72.91H122.74V54C122.74 53.1354 123.083 52.3062 123.695 51.6948C124.306 51.0835 125.135 50.74 126 50.74Z" fill="#E377B1"/>
<path d="M138 50.74C138.865 50.74 139.694 51.0835 140.305 51.6948C140.917 52.3062 141.26 53.1354 141.26 54V72.91H134.74V54C134.74 53.1354 135.083 52.3062 135.695 51.6948C136.306 51.0835 137.135 50.74 138 50.74Z" fill="#E377B1"/>
<path d="M151 50.74C151.865 50.74 152.694 51.0835 153.305 51.6948C153.917 52.3062 154.26 53.1354 154.26 54V72.91H147.74V54C147.74 53.1354 148.083 52.3062 148.695 51.6948C149.306 51.0835 150.135 50.74 151 50.74Z" fill="#E377B1"/>
<path d="M124.61 78.74H127.39C127.886 78.74 128.362 78.937 128.712 79.2877C129.063 79.6384 129.26 80.114 129.26 80.61V86H122.74V80.57C122.75 80.081 122.952 79.6156 123.302 79.2735C123.651 78.9314 124.121 78.7399 124.61 78.74Z" fill="#E377B1"/>
<path d="M136.61 78.74H139.39C139.886 78.74 140.362 78.937 140.712 79.2877C141.063 79.6384 141.26 80.114 141.26 80.61V86H134.74V80.57C134.74 80.074 134.937 79.5984 135.288 79.2477C135.638 78.897 136.114 78.7 136.61 78.7V78.74Z" fill="#E377B1"/>
<path d="M149.61 78.74H152.39C152.886 78.74 153.362 78.937 153.712 79.2877C154.063 79.6384 154.26 80.114 154.26 80.61V86H147.74V80.57C147.74 80.074 147.937 79.5984 148.288 79.2477C148.638 78.897 149.114 78.7 149.61 78.7V78.74Z" fill="#E377B1"/>
<path d="M129.26 92.74H122.74V145.76H129.26V92.74Z" fill="#E377B1"/>
<path d="M141.26 92.74H134.74V145.76H141.26V92.74Z" fill="#E377B1"/>
<path d="M154.26 92.74H147.74V145.76H154.26V92.74Z" fill="#E377B1"/>
<path d="M129.26 152.74H122.74V205.76H129.26V152.74Z" fill="#E377B1"/>
<path d="M141.26 152.74H134.74V205.76H141.26V152.74Z" fill="#E377B1"/>
<path d="M154.26 152.74H147.74V205.76H154.26V152.74Z" fill="#E377B1"/>
<path d="M117.39 209.73H109.44V48.23L117.39 39.65V209.73Z" fill="#E377B1"/>
<path d="M128.28 30.8201H121.24V38.8401H128.28V30.8201Z" fill="#E377B1"/>
<path d="M141.52 30.8201H134.48V38.8401H141.52V30.8201Z" fill="#E377B1"/>
<path d="M153.16 30.8201H146.12V38.8401H153.16V30.8201Z" fill="#E377B1"/>
<path d="M125.75 18.49H119.77V24.46H125.75V18.49Z" fill="#E377B1"/>
<path d="M136.99 18.49H131.01V24.46H136.99V18.49Z" fill="#E377B1"/>
<path d="M146.87 18.49H140.89V24.46H146.87V18.49Z" fill="#E377B1"/>
<path d="M209.48 504H114.75V209.73L209.48 217.17V504Z" fill="#8A74EA"/>
<path d="M135.64 504H114.75V209.73L135.64 211.37V504Z" fill="#A374DA"/>
<path d="M24.78 206.73H0.52002V393.84H24.78V206.73Z" fill="#D376BC"/>
<path d="M114.75 396.06H18.3301V230.25L114.75 209.73V396.06Z" fill="#E377B1"/>
<path d="M133.66 234.78H118.89V244.66H133.66V234.78Z" fill="#A67EE0"/>
<path d="M120.45 250.73H116.93V257.38H120.45V250.73Z" fill="#A67EE0"/>
<path d="M125.19 250.73H121.67V257.38H125.19V250.73Z" fill="#A67EE0"/>
<path d="M120.45 250.73H116.93V257.38H120.45V250.73Z" fill="#A67EE0"/>
<path d="M125.19 250.73H121.67V257.38H125.19V250.73Z" fill="#A67EE0"/>
<path d="M129.45 250.73H125.93V257.38H129.45V250.73Z" fill="#A67EE0"/>
<path d="M134.19 250.73H130.67V257.38H134.19V250.73Z" fill="#A67EE0"/>
<path d="M120.45 263.73H116.93V270.38H120.45V263.73Z" fill="#A67EE0"/>
<path d="M125.19 263.73H121.67V270.38H125.19V263.73Z" fill="#A67EE0"/>
<path d="M129.45 263.73H125.93V270.38H129.45V263.73Z" fill="#A67EE0"/>
<path d="M134.19 263.73H130.67V270.38H134.19V263.73Z" fill="#A67EE0"/>
<path d="M120.45 277.73H116.93V284.38H120.45V277.73Z" fill="#A67EE0"/>
<path d="M125.19 277.73H121.67V284.38H125.19V277.73Z" fill="#A67EE0"/>
<path d="M129.45 277.73H125.93V284.38H129.45V277.73Z" fill="#A67EE0"/>
<path d="M134.19 277.73H130.67V284.38H134.19V277.73Z" fill="#A67EE0"/>
<path d="M120.45 290.73H116.93V297.38H120.45V290.73Z" fill="#A67EE0"/>
<path d="M125.19 290.73H121.67V297.38H125.19V290.73Z" fill="#A67EE0"/>
<path d="M129.45 290.73H125.93V297.38H129.45V290.73Z" fill="#A67EE0"/>
<path d="M134.19 290.73H130.67V297.38H134.19V290.73Z" fill="#A67EE0"/>
<path d="M120.45 305.73H116.93V312.38H120.45V305.73Z" fill="#A67EE0"/>
<path d="M125.19 305.73H121.67V312.38H125.19V305.73Z" fill="#A67EE0"/>
<path d="M129.45 305.73H125.93V312.38H129.45V305.73Z" fill="#A67EE0"/>
<path d="M134.19 305.73H130.67V312.38H134.19V305.73Z" fill="#A67EE0"/>
<path d="M120.45 321.73H116.93V328.38H120.45V321.73Z" fill="#A67EE0"/>
<path d="M125.19 321.73H121.67V328.38H125.19V321.73Z" fill="#A67EE0"/>
<path d="M129.45 321.73H125.93V328.38H129.45V321.73Z" fill="#A67EE0"/>
<path d="M134.19 321.73H130.67V328.38H134.19V321.73Z" fill="#A67EE0"/>
<path d="M145.89 236.02H138.98V245.02H145.89V236.02Z" fill="#8F82E8"/>
<path d="M157.89 237.02H150.98V246.02H157.89V237.02Z" fill="#8F82E8"/>
<path d="M165.98 238.02H160.98V247.02H165.98V238.02Z" fill="#8F82E8"/>
<path d="M174.98 239.02H169.98V248.02H174.98V239.02Z" fill="#8F82E8"/>
<path d="M183.98 240.02H178.98V249.02H183.98V240.02Z" fill="#8F82E8"/>
<path d="M192.98 241.02H187.98V250.02H192.98V241.02Z" fill="#8F82E8"/>
<path d="M200.98 242.02H195.98V251.02H200.98V242.02Z" fill="#8F82E8"/>
<path d="M140.35 251.12H138.98V257.9H140.35V251.12Z" fill="#8F82E8"/>
<path d="M144.35 251.12H142.98V257.9H144.35V251.12Z" fill="#8F82E8"/>
<path d="M147.35 251.12H145.98V257.9H147.35V251.12Z" fill="#8F82E8"/>
<path d="M151.35 252.12H149.98V258.9H151.35V252.12Z" fill="#8F82E8"/>
<path d="M155.35 252.12H153.98V258.9H155.35V252.12Z" fill="#8F82E8"/>
<path d="M158.35 252.12H156.98V258.9H158.35V252.12Z" fill="#8F82E8"/>
<path d="M162.35 253.12H160.98V259.9H162.35V253.12Z" fill="#8F82E8"/>
<path d="M165.35 253.12H163.98V259.9H165.35V253.12Z" fill="#8F82E8"/>
<path d="M168.35 253.12H166.98V259.9H168.35V253.12Z" fill="#8F82E8"/>
<path d="M172.35 254.12H170.98V260.9H172.35V254.12Z" fill="#8F82E8"/>
<path d="M175.35 254.12H173.98V260.9H175.35V254.12Z" fill="#8F82E8"/>
<path d="M178.35 254.12H176.98V260.9H178.35V254.12Z" fill="#8F82E8"/>
<path d="M182.35 255.12H180.98V261.9H182.35V255.12Z" fill="#8F82E8"/>
<path d="M185.35 255.12H183.98V261.9H185.35V255.12Z" fill="#8F82E8"/>
<path d="M188.35 255.12H186.98V261.9H188.35V255.12Z" fill="#8F82E8"/>
<path d="M192.35 256.12H190.98V262.9H192.35V256.12Z" fill="#8F82E8"/>
<path d="M195.35 256.12H193.98V262.9H195.35V256.12Z" fill="#8F82E8"/>
<path d="M198.35 256.12H196.98V262.9H198.35V256.12Z" fill="#8F82E8"/>
<path d="M140.35 264.12H138.98V270.9H140.35V264.12Z" fill="#8F82E8"/>
<path d="M144.35 264.12H142.98V270.9H144.35V264.12Z" fill="#8F82E8"/>
<path d="M147.35 264.12H145.98V270.9H147.35V264.12Z" fill="#8F82E8"/>
<path d="M151.35 265.12H149.98V271.9H151.35V265.12Z" fill="#8F82E8"/>
<path d="M155.35 265.12H153.98V271.9H155.35V265.12Z" fill="#8F82E8"/>
<path d="M158.35 265.12H156.98V271.9H158.35V265.12Z" fill="#8F82E8"/>
<path d="M162.35 266.12H160.98V272.9H162.35V266.12Z" fill="#8F82E8"/>
<path d="M165.35 266.12H163.98V272.9H165.35V266.12Z" fill="#8F82E8"/>
<path d="M168.35 266.12H166.98V272.9H168.35V266.12Z" fill="#8F82E8"/>
<path d="M172.35 267.12H170.98V273.9H172.35V267.12Z" fill="#8F82E8"/>
<path d="M175.35 267.12H173.98V273.9H175.35V267.12Z" fill="#8F82E8"/>
<path d="M178.35 267.12H176.98V273.9H178.35V267.12Z" fill="#8F82E8"/>
<path d="M182.35 268.12H180.98V274.9H182.35V268.12Z" fill="#8F82E8"/>
<path d="M185.35 268.12H183.98V274.9H185.35V268.12Z" fill="#8F82E8"/>
<path d="M188.35 268.12H186.98V274.9H188.35V268.12Z" fill="#8F82E8"/>
<path d="M192.35 269.12H190.98V275.9H192.35V269.12Z" fill="#8F82E8"/>
<path d="M195.35 269.12H193.98V275.9H195.35V269.12Z" fill="#8F82E8"/>
<path d="M198.35 269.12H196.98V275.9H198.35V269.12Z" fill="#8F82E8"/>
<path d="M140.35 277.12H138.98V283.9H140.35V277.12Z" fill="#8F82E8"/>
<path d="M144.35 277.12H142.98V283.9H144.35V277.12Z" fill="#8F82E8"/>
<path d="M147.35 277.12H145.98V283.9H147.35V277.12Z" fill="#8F82E8"/>
<path d="M151.35 278.12H149.98V284.9H151.35V278.12Z" fill="#8F82E8"/>
<path d="M155.35 278.12H153.98V284.9H155.35V278.12Z" fill="#8F82E8"/>
<path d="M158.35 278.12H156.98V284.9H158.35V278.12Z" fill="#8F82E8"/>
<path d="M162.35 279.12H160.98V285.9H162.35V279.12Z" fill="#8F82E8"/>
<path d="M165.35 279.12H163.98V285.9H165.35V279.12Z" fill="#8F82E8"/>
<path d="M168.35 279.12H166.98V285.9H168.35V279.12Z" fill="#8F82E8"/>
<path d="M172.35 280.12H170.98V286.9H172.35V280.12Z" fill="#8F82E8"/>
<path d="M175.35 280.12H173.98V286.9H175.35V280.12Z" fill="#8F82E8"/>
<path d="M178.35 280.12H176.98V286.9H178.35V280.12Z" fill="#8F82E8"/>
<path d="M182.35 281.12H180.98V287.9H182.35V281.12Z" fill="#8F82E8"/>
<path d="M185.35 281.12H183.98V287.9H185.35V281.12Z" fill="#8F82E8"/>
<path d="M188.35 281.12H186.98V287.9H188.35V281.12Z" fill="#8F82E8"/>
<path d="M192.35 282.12H190.98V288.9H192.35V282.12Z" fill="#8F82E8"/>
<path d="M195.35 282.12H193.98V288.9H195.35V282.12Z" fill="#8F82E8"/>
<path d="M198.35 282.12H196.98V288.9H198.35V282.12Z" fill="#8F82E8"/>
<path d="M140.35 291.12H138.98V297.9H140.35V291.12Z" fill="#8F82E8"/>
<path d="M144.35 291.12H142.98V297.9H144.35V291.12Z" fill="#8F82E8"/>
<path d="M147.35 291.12H145.98V297.9H147.35V291.12Z" fill="#8F82E8"/>
<path d="M151.35 292.12H149.98V298.9H151.35V292.12Z" fill="#8F82E8"/>
<path d="M155.35 292.12H153.98V298.9H155.35V292.12Z" fill="#8F82E8"/>
<path d="M158.35 292.12H156.98V298.9H158.35V292.12Z" fill="#8F82E8"/>
<path d="M162.35 293.12H160.98V299.9H162.35V293.12Z" fill="#8F82E8"/>
<path d="M165.35 293.12H163.98V299.9H165.35V293.12Z" fill="#8F82E8"/>
<path d="M168.35 293.12H166.98V299.9H168.35V293.12Z" fill="#8F82E8"/>
<path d="M172.35 294.12H170.98V300.9H172.35V294.12Z" fill="#8F82E8"/>
<path d="M175.35 294.12H173.98V300.9H175.35V294.12Z" fill="#8F82E8"/>
<path d="M178.35 294.12H176.98V300.9H178.35V294.12Z" fill="#8F82E8"/>
<path d="M182.35 295.12H180.98V301.9H182.35V295.12Z" fill="#8F82E8"/>
<path d="M185.35 295.12H183.98V301.9H185.35V295.12Z" fill="#8F82E8"/>
<path d="M188.35 295.12H186.98V301.9H188.35V295.12Z" fill="#8F82E8"/>
<path d="M192.35 296.12H190.98V302.9H192.35V296.12Z" fill="#8F82E8"/>
<path d="M195.35 296.12H193.98V302.9H195.35V296.12Z" fill="#8F82E8"/>
<path d="M198.35 296.12H196.98V302.9H198.35V296.12Z" fill="#8F82E8"/>
<path d="M140.35 306.12H138.98V312.9H140.35V306.12Z" fill="#8F82E8"/>
<path d="M144.35 306.12H142.98V312.9H144.35V306.12Z" fill="#8F82E8"/>
<path d="M147.35 306.12H145.98V312.9H147.35V306.12Z" fill="#8F82E8"/>
<path d="M151.35 307.12H149.98V313.9H151.35V307.12Z" fill="#8F82E8"/>
<path d="M155.35 307.12H153.98V313.9H155.35V307.12Z" fill="#8F82E8"/>
<path d="M158.35 307.12H156.98V313.9H158.35V307.12Z" fill="#8F82E8"/>
<path d="M162.35 308.12H160.98V314.9H162.35V308.12Z" fill="#8F82E8"/>
<path d="M165.35 308.12H163.98V314.9H165.35V308.12Z" fill="#8F82E8"/>
<path d="M168.35 308.12H166.98V314.9H168.35V308.12Z" fill="#8F82E8"/>
<path d="M172.35 309.12H170.98V315.9H172.35V309.12Z" fill="#8F82E8"/>
<path d="M175.35 309.12H173.98V315.9H175.35V309.12Z" fill="#8F82E8"/>
<path d="M178.35 309.12H176.98V315.9H178.35V309.12Z" fill="#8F82E8"/>
<path d="M182.35 310.12H180.98V316.9H182.35V310.12Z" fill="#8F82E8"/>
<path d="M185.35 310.12H183.98V316.9H185.35V310.12Z" fill="#8F82E8"/>
<path d="M188.35 310.12H186.98V316.9H188.35V310.12Z" fill="#8F82E8"/>
<path d="M192.35 311.12H190.98V317.9H192.35V311.12Z" fill="#8F82E8"/>
<path d="M195.35 311.12H193.98V317.9H195.35V311.12Z" fill="#8F82E8"/>
<path d="M198.35 311.12H196.98V317.9H198.35V311.12Z" fill="#8F82E8"/>
<path d="M140.35 321.12H138.98V327.9H140.35V321.12Z" fill="#8F82E8"/>
<path d="M144.35 321.12H142.98V327.9H144.35V321.12Z" fill="#8F82E8"/>
<path d="M147.35 321.12H145.98V327.9H147.35V321.12Z" fill="#8F82E8"/>
<path d="M151.35 322.12H149.98V328.9H151.35V322.12Z" fill="#8F82E8"/>
<path d="M155.35 322.12H153.98V328.9H155.35V322.12Z" fill="#8F82E8"/>
<path d="M158.35 322.12H156.98V328.9H158.35V322.12Z" fill="#8F82E8"/>
<path d="M162.35 323.12H160.98V329.9H162.35V323.12Z" fill="#8F82E8"/>
<path d="M165.35 323.12H163.98V329.9H165.35V323.12Z" fill="#8F82E8"/>
<path d="M168.35 323.12H166.98V329.9H168.35V323.12Z" fill="#8F82E8"/>
<path d="M172.35 324.12H170.98V330.9H172.35V324.12Z" fill="#8F82E8"/>
<path d="M175.35 324.12H173.98V330.9H175.35V324.12Z" fill="#8F82E8"/>
<path d="M178.35 324.12H176.98V330.9H178.35V324.12Z" fill="#8F82E8"/>
<path d="M182.35 325.12H180.98V331.9H182.35V325.12Z" fill="#8F82E8"/>
<path d="M185.35 325.12H183.98V331.9H185.35V325.12Z" fill="#8F82E8"/>
<path d="M188.35 325.12H186.98V331.9H188.35V325.12Z" fill="#8F82E8"/>
<path d="M192.35 326.12H190.98V332.9H192.35V326.12Z" fill="#8F82E8"/>
<path d="M195.35 326.12H193.98V332.9H195.35V326.12Z" fill="#8F82E8"/>
<path d="M198.35 326.12H196.98V332.9H198.35V326.12Z" fill="#8F82E8"/>
<path d="M63.0196 248.133L66.6022 247.902L66.0397 239.18L62.4571 239.411L63.0196 248.133Z" fill="#E57AB5"/>
<path d="M58.1489 248.439L61.7314 248.208L61.169 239.486L57.5864 239.717L58.1489 248.439Z" fill="#E57AB5"/>
<path d="M72.0541 247.554L75.2075 247.351L74.645 238.629L71.4916 238.832L72.0541 247.554Z" fill="#E57AB5"/>
<path d="M67.7471 247.828L70.9005 247.624L70.338 238.902L67.1846 239.106L67.7471 247.828Z" fill="#E57AB5"/>
<path d="M80.5871 246.993L83.7406 246.79L83.1781 238.068L80.0247 238.271L80.5871 246.993Z" fill="#E57AB5"/>
<path d="M76.2903 247.277L79.4437 247.073L78.8812 238.352L75.7278 238.555L76.2903 247.277Z" fill="#E57AB5"/>
<path d="M89.704 246.408L92.8574 246.205L92.2949 237.483L89.1415 237.686L89.704 246.408Z" fill="#E57AB5"/>
<path d="M86.209 244.637L89.369 244.447L88.8446 235.707L85.6846 235.897L86.209 244.637Z" fill="#E57AB5"/>
<path d="M22.8115 250.717L101.698 245.629L101.135 236.907L22.249 241.995L22.8115 250.717Z" fill="#E57AB5"/>
<path d="M94.2521 246.12L97.4055 245.917L96.843 237.195L93.6896 237.398L94.2521 246.12Z" fill="#E57AB5"/>
<path d="M107.665 245.242L110.819 245.038L110.256 236.316L107.103 236.52L107.665 245.242Z" fill="#E57AB5"/>
<path d="M103.369 245.525L106.522 245.322L105.96 236.6L102.807 236.804L103.369 245.525Z" fill="#E57AB5"/>
<path d="M63.0243 263.134L66.6068 262.903L66.0443 254.181L62.4618 254.412L63.0243 263.134Z" fill="#E57AB5"/>
<path d="M58.1435 263.44L61.7261 263.209L61.1636 254.487L57.581 254.718L58.1435 263.44Z" fill="#E57AB5"/>
<path d="M72.0487 262.545L75.2021 262.342L74.6397 253.62L71.4862 253.823L72.0487 262.545Z" fill="#E57AB5"/>
<path d="M67.7517 262.829L70.9052 262.625L70.3427 253.904L67.1892 254.107L67.7517 262.829Z" fill="#E57AB5"/>
<path d="M80.5918 261.994L83.7452 261.791L83.1827 253.069L80.0293 253.272L80.5918 261.994Z" fill="#E57AB5"/>
<path d="M76.2849 262.268L79.4384 262.065L78.8759 253.343L75.7224 253.546L76.2849 262.268Z" fill="#E57AB5"/>
<path d="M89.6986 261.409L92.8521 261.206L92.2896 252.484L89.1361 252.687L89.6986 261.409Z" fill="#E57AB5"/>
<path d="M86.279 259.597L89.439 259.407L88.9146 250.667L85.7546 250.857L86.279 259.597Z" fill="#E57AB5"/>
<path d="M22.8161 265.718L101.702 260.63L101.14 251.908L22.2537 256.996L22.8161 265.718Z" fill="#E57AB5"/>
<path d="M94.2567 261.111L97.4102 260.908L96.8477 252.186L93.6942 252.39L94.2567 261.111Z" fill="#E57AB5"/>
<path d="M107.67 260.243L110.823 260.039L110.261 251.317L107.107 251.521L107.67 260.243Z" fill="#E57AB5"/>
<path d="M103.364 260.527L106.517 260.323L105.955 251.601L102.801 251.805L103.364 260.527Z" fill="#E57AB5"/>
<path d="M63.0232 277.133L66.6057 276.902L66.0432 268.18L62.4607 268.411L63.0232 277.133Z" fill="#E57AB5"/>
<path d="M58.1524 277.439L61.735 277.208L61.1725 268.486L57.5899 268.717L58.1524 277.439Z" fill="#E57AB5"/>
<path d="M72.0476 276.554L75.201 276.351L74.6386 267.629L71.4851 267.832L72.0476 276.554Z" fill="#E57AB5"/>
<path d="M67.7507 276.828L70.9042 276.625L70.3417 267.903L67.1882 268.106L67.7507 276.828Z" fill="#E57AB5"/>
<path d="M80.5908 275.993L83.7443 275.79L83.1818 267.068L80.0283 267.271L80.5908 275.993Z" fill="#E57AB5"/>
<path d="M76.2838 276.277L79.4373 276.074L78.8748 267.352L75.7213 267.555L76.2838 276.277Z" fill="#E57AB5"/>
<path d="M89.6977 275.408L92.8511 275.205L92.2886 266.483L89.1352 266.686L89.6977 275.408Z" fill="#E57AB5"/>
<path d="M86.339 273.577L89.499 273.387L88.9746 264.647L85.8146 264.837L86.339 273.577Z" fill="#E57AB5"/>
<path d="M22.8152 279.717L101.701 274.629L101.139 265.908L22.2527 270.995L22.8152 279.717Z" fill="#E57AB5"/>
<path d="M94.2557 275.12L97.4092 274.917L96.8467 266.195L93.6932 266.399L94.2557 275.12Z" fill="#E57AB5"/>
<path d="M107.669 274.242L110.822 274.038L110.26 265.316L107.106 265.52L107.669 274.242Z" fill="#E57AB5"/>
<path d="M103.363 274.526L106.516 274.322L105.954 265.6L102.8 265.804L103.363 274.526Z" fill="#E57AB5"/>
<path d="M63.0178 292.134L66.6003 291.903L66.0379 283.181L62.4553 283.412L63.0178 292.134Z" fill="#E57AB5"/>
<path d="M58.147 292.44L61.7296 292.209L61.1671 283.487L57.5845 283.718L58.147 292.44Z" fill="#E57AB5"/>
<path d="M73.0874 289.455L76.2474 289.266L75.723 280.526L72.563 280.715L73.0874 289.455Z" fill="#E57AB5"/>
<path d="M68.8006 289.747L71.9606 289.558L71.4362 280.818L68.2762 281.007L68.8006 289.747Z" fill="#E57AB5"/>
<path d="M80.5854 290.994L83.7389 290.791L83.1764 282.069L80.0229 282.272L80.5854 290.994Z" fill="#E57AB5"/>
<path d="M76.2884 291.268L79.4419 291.065L78.8794 282.343L75.726 282.546L76.2884 291.268Z" fill="#E57AB5"/>
<path d="M89.7023 290.409L92.8557 290.206L92.2932 281.484L89.1398 281.687L89.7023 290.409Z" fill="#E57AB5"/>
<path d="M85.4054 290.683L88.5588 290.48L87.9963 281.758L84.8429 281.961L85.4054 290.683Z" fill="#E57AB5"/>
<path d="M22.8098 294.718L101.696 289.63L101.133 280.908L22.2473 285.996L22.8098 294.718Z" fill="#E57AB5"/>
<path d="M94.2504 290.112L97.4038 289.908L96.8413 281.186L93.6879 281.39L94.2504 290.112Z" fill="#E57AB5"/>
<path d="M107.664 289.243L110.817 289.039L110.255 280.318L107.101 280.521L107.664 289.243Z" fill="#E57AB5"/>
<path d="M103.367 289.527L106.521 289.323L105.958 280.601L102.805 280.805L103.367 289.527Z" fill="#E57AB5"/>
<path d="M63.0224 307.125L66.605 306.894L66.0425 298.172L62.4599 298.403L63.0224 307.125Z" fill="#E57AB5"/>
<path d="M58.1517 307.441L61.7343 307.21L61.1718 298.488L57.5892 298.719L58.1517 307.441Z" fill="#E57AB5"/>
<path d="M73.1474 304.425L76.3074 304.236L75.783 295.496L72.623 295.685L73.1474 304.425Z" fill="#E57AB5"/>
<path d="M68.8606 304.717L72.0206 304.528L71.4962 295.788L68.3362 295.977L68.8606 304.717Z" fill="#E57AB5"/>
<path d="M80.5901 305.995L83.7435 305.792L83.181 297.07L80.0276 297.273L80.5901 305.995Z" fill="#E57AB5"/>
<path d="M76.2931 306.269L79.4465 306.066L78.884 297.344L75.7306 297.547L76.2931 306.269Z" fill="#E57AB5"/>
<path d="M89.6969 305.41L92.8503 305.207L92.2879 296.485L89.1344 296.689L89.6969 305.41Z" fill="#E57AB5"/>
<path d="M85.4 305.684L88.5535 305.481L87.991 296.759L84.8375 296.962L85.4 305.684Z" fill="#E57AB5"/>
<path d="M22.8144 309.719L101.701 304.632L101.138 295.91L22.2519 300.997L22.8144 309.719Z" fill="#E57AB5"/>
<path d="M94.255 305.113L97.4084 304.909L96.846 296.187L93.6925 296.391L94.255 305.113Z" fill="#E57AB5"/>
<path d="M107.668 304.244L110.822 304.041L110.259 295.319L107.106 295.522L107.668 304.244Z" fill="#E57AB5"/>
<path d="M103.372 304.528L106.525 304.324L105.963 295.602L102.809 295.806L103.372 304.528Z" fill="#E57AB5"/>
<path d="M63.0215 321.134L66.604 320.903L66.0415 312.181L62.459 312.412L63.0215 321.134Z" fill="#E57AB5"/>
<path d="M58.1507 321.44L61.7333 321.209L61.1708 312.487L57.5882 312.718L58.1507 321.44Z" fill="#E57AB5"/>
<path d="M73.2074 318.395L76.3674 318.206L75.843 309.466L72.683 309.655L73.2074 318.395Z" fill="#E57AB5"/>
<path d="M68.9206 318.687L72.0806 318.498L71.5562 309.758L68.3962 309.947L68.9206 318.687Z" fill="#E57AB5"/>
<path d="M80.589 319.994L83.7424 319.791L83.1799 311.069L80.0265 311.273L80.589 319.994Z" fill="#E57AB5"/>
<path d="M76.2921 320.268L79.4456 320.065L78.8831 311.343L75.7296 311.546L76.2921 320.268Z" fill="#E57AB5"/>
<path d="M89.6959 319.409L92.8494 319.206L92.2869 310.484L89.1335 310.688L89.6959 319.409Z" fill="#E57AB5"/>
<path d="M85.3989 319.683L88.5524 319.48L87.9899 310.758L84.8364 310.961L85.3989 319.683Z" fill="#E57AB5"/>
<path d="M22.8133 323.718L101.699 318.631L101.137 309.909L22.2508 314.996L22.8133 323.718Z" fill="#E57AB5"/>
<path d="M94.254 319.112L97.4075 318.908L96.845 310.186L93.6915 310.39L94.254 319.112Z" fill="#E57AB5"/>
<path d="M107.667 318.243L110.821 318.04L110.258 309.318L107.105 309.521L107.667 318.243Z" fill="#E57AB5"/>
<path d="M103.371 318.527L106.524 318.323L105.962 309.601L102.808 309.805L103.371 318.527Z" fill="#E57AB5"/>
</svg>
