<svg width="103" height="88" viewBox="0 0 103 88" fill="none" xmlns="http://www.w3.org/2000/svg">
<path d="M93.8402 20.1724C93.8624 19.9212 93.9751 19.687 94.157 19.5141C94.3389 19.3412 94.5773 19.2417 94.8271 19.2344C95.0592 19.2504 95.2764 19.3556 95.4341 19.5282C95.5918 19.7009 95.678 19.9279 95.675 20.1627C95.6457 20.4089 95.5353 20.638 95.3616 20.8134C95.1878 20.9887 94.9608 21.1001 94.7169 21.1298C94.5967 21.126 94.4785 21.0982 94.369 21.0479C94.2596 20.9975 94.1613 20.9257 94.0796 20.8366C93.998 20.7475 93.9348 20.6429 93.8937 20.5288C93.8526 20.4148 93.8344 20.2936 93.8402 20.1724Z" fill="white"/>
<path d="M92.0485 56.9583C91.991 56.0444 91.9 55.0677 91.8904 54.1684C91.7664 53.4146 91.8665 52.6407 92.1778 51.9442C92.5611 51.2431 92.8964 50.5323 93.2414 49.778C93.7977 48.4813 94.0328 47.0674 93.9264 45.6585C93.9329 44.9453 93.6995 44.2509 93.2644 43.6888C92.8294 43.1268 92.2183 42.7302 91.5311 42.564C90.6456 42.3928 89.7517 42.2701 88.8531 42.1965C88.4698 42.1433 87.9572 42.1965 87.7895 41.713C87.6219 41.2295 87.986 40.9684 88.2686 40.746C89.3657 39.5904 90.4627 38.4299 91.6221 37.2888C92.1894 36.7553 92.6414 36.1093 92.9497 35.3913C93.258 34.6732 93.416 33.8986 93.4138 33.1161C93.4569 30.6985 93.4138 28.1649 93.3659 25.7473C93.3084 24.084 93.2046 22.4062 93.0545 20.7139C92.9712 19.1802 92.5524 17.6841 91.8281 16.3332C90.9108 14.8047 89.7143 13.4658 88.3021 12.3877C86.9349 11.197 85.1606 10.5932 83.3581 10.7051C80.9388 10.8598 79.0848 12.0638 77.3746 13.6594C76.129 14.8246 75.3625 16.4202 74.572 17.9095C74.3947 18.2093 74.2606 18.5284 73.9109 18.5332C73.7546 18.5243 73.6045 18.4684 73.4799 18.3728C73.3553 18.2771 73.2618 18.1461 73.2114 17.9965C72.2501 16.3115 71.0991 14.7441 69.7813 13.3257C67.7089 10.8874 65.1933 8.8719 62.3701 7.38816C61.1272 6.67957 59.7255 6.30341 58.298 6.29541C57.5943 6.31209 56.9057 6.50455 56.2937 6.85556C55.6818 7.20657 55.1655 7.7052 54.7912 8.30684C54.1817 9.28029 53.8501 10.4046 53.8331 11.5561C53.7852 13.2435 53.7277 14.9794 53.6798 16.6668C53.6865 16.8633 53.6688 17.0599 53.6271 17.2519C53.5973 17.325 53.5524 17.3908 53.4954 17.445C53.4384 17.4992 53.3706 17.5405 53.2965 17.5662C53.239 17.6 53.0426 17.3969 52.9755 17.2761C51.9503 14.9552 50.4652 13.055 48.1848 11.851C46.9488 11.1644 45.6458 10.6374 44.1367 10.7099C42.7507 10.778 41.3929 11.1301 40.146 11.7446C38.994 12.3156 38.0439 13.2306 37.4249 14.3653C37.0656 14.9697 36.7878 15.6466 36.4668 16.2655C36.3853 16.3912 36.3135 16.4734 36.232 16.5991C36.1044 16.5307 35.9945 16.433 35.9111 16.3139C35.7426 16.0558 35.5603 15.8073 35.3649 15.5693C33.4789 13.2259 31.2457 11.1905 28.7442 9.53497C26.5485 8.06953 23.9795 7.27689 21.3473 7.25277C20.3987 7.22061 19.4575 7.43189 18.6119 7.86684C17.8898 8.29856 17.2667 8.8799 16.7836 9.5725C16.3005 10.2651 15.9685 11.0532 15.8093 11.8849C14.9657 15.1862 14.6742 18.6066 14.947 22.0049C15.141 24.6914 15.5496 27.3578 16.1686 29.978C16.5758 31.6413 17.074 33.324 17.5148 35.0405C17.4094 35.0405 17.3184 35.0405 17.2561 35.0743C15.7272 35.276 14.2579 35.8016 12.9445 36.6167C11.6434 37.435 10.5381 38.5341 9.70809 39.835C8.87809 41.1359 8.34398 42.6062 8.14418 44.1402C7.78009 46.8431 7.61242 49.5508 7.43516 52.3068C7.28429 54.6372 7.33238 56.9764 7.57888 59.2985C7.72335 60.7498 7.97476 62.1882 8.33102 63.6018C9.06915 66.1872 10.2144 68.6361 11.7228 70.8545C12.6794 72.3641 13.8046 73.7577 15.0763 75.0079C16.6011 76.5852 18.3575 77.916 20.2838 78.9534C21.5617 79.6211 22.9971 79.9205 24.4326 79.8189C26.2578 79.6594 27.8771 78.7939 29.343 77.735C29.894 77.3337 30.0473 77.324 30.5167 77.7978C31.665 78.9243 33.177 79.5955 34.7757 79.6884C37.3531 79.8818 39.5664 78.8664 41.5401 77.3482C42.2617 76.7093 42.9388 76.0211 43.5666 75.2884C43.9067 74.9306 44.199 74.9596 44.496 75.3367C45.6412 76.9883 47.2744 78.2322 49.1621 78.8906C50.6358 79.4917 52.264 79.5892 53.7978 79.1684C55.3316 78.7475 56.6867 77.8314 57.656 76.56C58.1639 75.946 58.3172 75.9363 58.9927 76.3715C60.5347 77.4065 62.1926 78.2537 63.9319 78.8954C65.4676 79.4407 67.0997 79.6549 68.7226 79.524C70.7663 79.2405 72.6962 78.4052 74.3085 77.1064C75.2954 76.3715 75.075 76.4585 75.9517 77.1064C76.9743 77.9136 78.1684 78.4704 79.4403 78.733C80.7121 78.9956 82.027 78.9568 83.2815 78.6198C84.9151 78.2572 86.2182 77.2563 87.4446 76.2022C88.2207 75.506 88.9153 74.7517 89.6148 73.978C90.9096 72.6576 92.0699 71.2095 93.0785 69.6554C93.8899 68.387 94.3604 66.9273 94.4438 65.4198C94.53 63.389 93.7971 61.6435 92.9156 59.9077C92.4268 58.996 92.1315 57.9915 92.0485 56.9583V56.9583ZM74.2223 27.6717C74.3804 26.3178 74.5289 25.0027 74.7301 23.6585C75.0083 21.5995 75.6184 19.6004 76.5362 17.7402C77.2308 16.4251 77.8872 15.0471 78.9603 13.9833C79.3003 13.6592 79.6746 13.3738 80.0765 13.1323C80.8715 12.5822 81.7647 12.193 82.7066 11.9864C83.9804 11.7909 85.2811 12.0693 86.3667 12.7697C87.5857 13.5826 88.6234 14.6431 89.4136 15.8835C90.8508 18.0739 91.2772 20.4866 91.4065 23.0202C91.5167 25.051 91.5934 27.0238 91.6556 29.04C91.6707 29.1392 91.6608 29.2406 91.6269 29.335C91.6748 29.335 91.4688 32.3908 91.3203 33.9042C91.2793 34.3118 91.1413 34.7033 90.9179 35.0453C90.7333 35.3197 90.4525 35.5132 90.1322 35.5868C89.0734 35.6545 87.9812 35.6594 86.8889 35.669C86.3201 35.6692 85.7525 35.6175 85.193 35.5143C85.0469 35.4704 84.9115 35.3963 84.7954 35.2967C84.5938 35.0754 84.4066 34.8412 84.2348 34.5956L84.1342 34.4167C84.1342 33.9332 84.0528 33.3965 84.0384 32.8937C84.0384 32.4923 83.9282 32.3618 83.5593 32.3086C83.1905 32.2554 82.63 32.2602 82.1796 32.3086C82.086 32.2933 81.9902 32.2986 81.8988 32.324C81.8073 32.3493 81.7224 32.3943 81.6497 32.4558C81.577 32.5172 81.5182 32.5937 81.4774 32.6801C81.4366 32.7665 81.4147 32.8608 81.4131 32.9565C81.3508 33.3868 81.3173 33.88 81.255 34.3152C81.0969 35.4708 80.6993 35.8673 79.5256 35.7996C78.3772 35.7546 77.2329 35.6335 76.1002 35.437C75.6572 35.3699 75.247 35.1614 74.9298 34.8421C74.6126 34.5228 74.4049 34.1094 74.3373 33.6624C73.8294 31.622 73.9971 29.6638 74.2223 27.6717ZM55.1984 19.7275C55.2511 19.1424 55.3517 18.5671 55.3613 17.9723C55.3379 16.2091 55.4371 14.4464 55.6583 12.6972C55.8356 11.6431 56.1039 10.6132 56.9039 9.82992C57.2239 9.49928 57.6062 9.23655 58.0282 9.0572C58.4503 8.87784 58.9036 8.78547 59.3615 8.78552C60.6885 8.83402 61.9854 9.19851 63.1462 9.84926C65.5438 11.1001 67.726 12.7327 69.6088 14.6844C71.4094 16.5108 72.6259 18.8401 73.1013 21.3715C73.4701 23.3684 73.2881 25.375 72.0808 27.1495C71.0365 28.6726 69.9107 30.1231 68.3297 31.0466L64.8133 33.1064C64.6128 33.1894 64.4418 33.3317 64.3229 33.5147C64.204 33.6977 64.1429 33.9127 64.1474 34.1315C64.1163 34.6018 64.0587 35.0699 63.975 35.5337C63.8959 36.0128 63.641 36.4443 63.2612 36.7424C62.7704 37.1558 62.2027 37.4659 61.5913 37.6544C60.98 37.8429 60.3375 37.906 59.7017 37.84C58.6037 37.7135 57.5671 37.2627 56.7219 36.5442C56.5354 36.4158 56.3838 36.2424 56.2809 36.0397C56.1779 35.837 56.127 35.6115 56.1326 35.3838C56.1661 34.9002 55.9841 34.4457 55.9697 33.9332C55.7829 32.1829 55.6008 30.4326 55.4619 28.6919C55.323 26.9512 55.2559 25.3363 55.1409 23.702C55.0649 22.9972 55.0361 22.2881 55.0547 21.5794C55.0357 20.9586 55.0839 20.3377 55.1984 19.7275V19.7275ZM34.905 27.8989C35.0775 26.4967 35.2356 25.138 35.4991 23.7552C35.8861 21.5626 36.4386 19.403 37.1519 17.2954C37.6945 15.7053 38.7932 14.3695 40.2419 13.5385C41.1663 12.9524 42.1841 12.532 43.2504 12.2959C44.7181 12.0584 46.2211 12.3714 47.4758 13.1758C49.1621 14.1429 50.3023 15.6321 51.2509 17.2906C52.2821 19.1119 52.9373 21.1251 53.1767 23.2088C53.4594 25.1429 53.7373 27.1108 54.0199 29.0352C54.1754 30.0914 54.2777 31.1549 54.3265 32.2216C54.3262 33.7846 54.2302 35.3461 54.0391 36.8972C53.8187 38.4879 53.3492 38.5605 51.9072 38.778C50.9033 38.892 49.8944 38.955 48.8843 38.9666C48.4444 38.9795 48.0044 38.9454 47.5716 38.8651C47.1405 38.8022 46.6135 37.9609 46.6135 37.5016C46.5656 36.9407 46.5273 36.3266 46.5225 35.7754C46.5239 35.6821 46.5063 35.5896 46.4709 35.5034C46.4355 35.4173 46.3829 35.3394 46.3164 35.2746C46.25 35.2098 46.171 35.1594 46.0845 35.1267C45.998 35.0939 45.9057 35.0793 45.8134 35.084C44.9751 35.084 44.1175 35.1323 43.2696 35.1565C42.9199 35.1565 42.7522 35.4176 42.7139 35.7561C42.6324 36.4378 42.5653 37.0664 42.5318 37.7578C42.5318 38.8022 42.0815 39.2906 41.0467 39.2616C39.758 39.2616 38.5268 39.2616 37.2477 39.1939C36.736 39.1283 36.2558 38.9087 35.8696 38.5637C35.4834 38.2187 35.209 37.7644 35.0823 37.2598C34.5842 35.6596 34.3369 33.9907 34.3493 32.3134C34.5601 30.9112 34.7086 29.3978 34.905 27.8989ZM29.1562 62.8233V62.92C29.1562 64.8541 28.0974 66.3868 27.0866 67.9679C26.3393 69.1187 25.1703 69.6022 23.9535 70.0809C22.3296 70.7473 20.5762 71.0301 18.8274 70.9077C15.1721 70.6805 12.4414 68.9737 10.7791 65.7002C10.3552 64.9203 10.024 64.0926 9.79218 63.2343C9.49251 61.8533 9.26543 60.4572 9.1119 59.0519C8.98735 57.8141 8.97297 56.5618 8.89632 55.3385C8.82694 54.0388 8.82694 52.7362 8.89632 51.4365C9.05921 48.9271 9.17897 46.4079 9.53828 43.9033C9.90237 41.2005 11.512 39.2277 13.8499 37.9029C14.944 37.2058 16.1632 36.7326 17.4381 36.5104C18.759 36.2642 20.1201 36.36 21.3944 36.7887C22.6686 37.2174 23.8144 37.965 24.7248 38.9618C26.1462 40.457 27.1152 42.3307 27.5178 44.3627C27.628 44.8945 27.7956 45.3877 27.901 45.9148C27.9537 46.2822 28.0064 46.6449 28.0926 47.0704C28.1789 47.4959 26.8662 48.342 26.5309 48.5209C25.5714 49.1017 24.4422 49.3289 23.3355 49.164C22.7667 49.0788 22.2058 48.9462 21.6587 48.7675C21.4601 48.7185 21.2782 48.6163 21.1323 48.4716C20.9864 48.3269 20.8819 48.1452 20.83 47.9455C20.6814 47.2057 20.5281 46.4611 20.3509 45.7697C20.2845 45.362 20.1337 44.973 19.9084 44.6281C19.683 44.2832 19.3881 43.9901 19.043 43.7679C18.8657 43.6958 18.6749 43.6632 18.4839 43.6724C18.2929 43.6816 18.1061 43.7323 17.9364 43.8211C17.5518 43.9471 17.2205 44.2004 16.9962 44.54C16.7719 44.8795 16.6677 45.2856 16.7004 45.6923C16.7004 46.9446 16.6285 48.226 16.5519 49.4541C16.4752 50.6822 16.2261 52.0167 16.1973 53.2594C16.1303 54.8453 16.1973 56.4651 16.1973 58.0945C16.2327 58.9205 16.3143 59.7438 16.4417 60.5605C16.6217 61.5678 17.158 62.475 17.9507 63.1134C18.2939 63.4061 18.7027 63.6099 19.1415 63.7073C19.5803 63.8046 20.0361 63.7925 20.4692 63.672C20.9024 63.5515 21.2999 63.3263 21.6274 63.0158C21.9549 62.7053 22.2024 62.3189 22.3486 61.8901C22.5172 61.3476 22.6154 60.7852 22.6408 60.2172C22.6408 59.5741 22.3869 59.2985 21.7354 59.3227C21.5027 59.3011 21.2686 59.3011 21.036 59.3227C20.934 59.3429 20.8288 59.3408 20.7277 59.3163C20.6266 59.2919 20.532 59.2458 20.4501 59.1811C20.3683 59.1164 20.3012 59.0346 20.2535 58.9414C20.2058 58.8482 20.1786 58.7457 20.1736 58.6409C19.9293 56.9244 19.6562 55.1499 19.4598 53.4479C19.4379 53.2619 19.453 53.0732 19.5043 52.8932C19.5556 52.7131 19.642 52.5451 19.7585 52.3992C19.875 52.2533 20.0192 52.1323 20.1826 52.0434C20.346 51.9544 20.5254 51.8994 20.7102 51.8813C21.2851 51.7846 21.8408 51.7363 22.4013 51.6831C23.6804 51.5284 25.0218 51.335 26.3105 51.1319C26.6873 51.0162 27.0939 51.0523 27.4449 51.2326C27.796 51.4129 28.0642 51.7234 28.1933 52.0989C28.7569 53.4589 29.0968 54.9027 29.1993 56.3732C29.6085 58.5054 29.589 60.6989 29.1418 62.8233H29.1562ZM27.5082 30.9693C26.9093 31.3609 26.6075 31.3802 26.9285 32.4198C26.9957 32.9612 26.9367 33.5109 26.756 34.0251C26.4638 34.9486 25.6781 35.2871 24.7823 35.4756C24.0964 35.6573 23.3983 35.7882 22.6935 35.8673C22.1359 35.9016 21.5764 35.8854 21.0216 35.8189C20.6306 35.7673 20.2627 35.603 19.962 35.3457C19.6612 35.0885 19.4403 34.7491 19.3257 34.3684C18.5257 32.4303 18.0405 30.3748 17.8885 28.2809C17.7687 26.2985 17.6346 24.3644 17.5579 22.3917C17.5196 21.5794 17.486 20.7719 17.4621 19.9161C17.3663 17.7016 17.2465 15.4726 17.1986 13.2532C17.1581 12.4132 17.2128 11.5713 17.3615 10.7438C17.501 10.0845 17.8522 9.49009 18.3607 9.05294C18.8692 8.61578 19.5065 8.36031 20.1736 8.32618C20.4207 8.30441 20.6691 8.30441 20.9162 8.32618C22.8836 8.47077 24.7955 9.05016 26.5165 10.0233C28.644 11.1615 30.4908 12.7676 31.9204 14.7231C33.1509 16.4637 33.9149 18.4957 34.1385 20.622C34.3876 22.6866 34.1385 24.7271 32.8929 26.4919C32.1896 27.4871 31.3247 28.3552 30.3347 29.0594C29.4053 29.7798 28.4567 30.3745 27.5082 30.9693ZM45.4541 59.2405C45.284 60.1294 45.0222 60.998 44.6733 61.8321C44.1568 62.8616 43.5355 63.8338 42.8193 64.7332C42.1736 65.4689 41.4379 66.1188 40.6299 66.6673C39.8804 67.1555 39.0194 67.4419 38.1292 67.4989C37.9517 67.5147 37.7766 67.5504 37.607 67.6053C37.5952 67.6293 37.589 67.6558 37.589 67.6827C37.589 67.7095 37.5952 67.736 37.607 67.76C38.1436 68.0186 38.7491 68.0933 39.3316 67.9728C41.0467 67.6778 42.2683 66.6093 43.3798 65.4053C43.5229 65.2282 43.6834 65.0662 43.8588 64.9218C44.0457 64.9701 43.9834 65.4053 43.8876 65.5794C42.3114 68.3596 40.0071 70.1438 36.8213 70.5886C35.9918 70.6966 35.1491 70.5571 34.3972 70.1873C31.8342 69.0027 30.5886 66.7688 29.8317 64.1627C29.5778 63.244 29.9658 62.3495 30.1958 61.4598C30.5886 60.164 30.9335 58.8585 31.288 57.4998C31.6186 56.2378 31.4078 54.9807 31.2353 53.7332C31.1443 52.9596 30.991 52.2198 30.9575 51.4075C30.9809 50.6851 31.1996 49.9828 31.5899 49.3767C32.5186 47.6988 33.8944 46.3169 35.5613 45.3877C35.8584 45.2185 36.1841 45.1073 36.462 44.9816C37.362 44.7636 38.2787 44.6229 39.2023 44.5609C40.1511 44.4923 41.0955 44.7459 41.8851 45.2813C42.3006 45.6676 42.6689 46.1026 42.9821 46.5772C43.9403 47.786 44.4577 49.2704 44.8984 50.7451C45.0661 51.2286 45.2433 51.7121 45.3775 52.1956C45.4781 52.5728 45.4733 52.9693 45.5595 53.3948C45.9895 55.3237 45.9533 57.3286 45.4541 59.2405V59.2405ZM61.5844 58.2057C61.3832 59.3517 61.364 60.5508 61.0718 61.6726C60.7339 63.3637 59.9109 64.9173 58.7052 66.1402C57.7854 66.9961 56.7219 67.6585 55.3996 67.204C54.7612 66.9661 54.1401 66.6833 53.5408 66.3578C53.7563 66.8823 54.1236 67.3289 54.5948 67.6391C55.1468 67.9892 55.7937 68.1555 56.4443 68.1147C57.0949 68.074 57.7165 67.8281 58.2213 67.4119C59.314 66.5615 60.1841 65.4544 60.7556 64.1868C60.8612 63.9258 60.9928 63.6764 61.1485 63.4422C61.2855 63.6517 61.3588 63.8971 61.3593 64.1482C61.1007 65.572 60.4345 66.8882 59.443 67.9341C58.8853 68.5423 58.2029 69.0205 57.4433 69.3353C56.6838 69.6501 55.8654 69.794 55.0451 69.757C53.8235 69.8778 51.7252 69.0172 50.8724 68.4901C49.2792 67.482 48.0562 65.976 47.3896 64.2013C47.2315 63.8629 47.1309 63.4857 46.9872 63.0941C46.5327 61.8654 46.5023 60.5178 46.9009 59.2695C47.2453 57.889 47.4982 56.4869 47.6579 55.0726C47.7402 54.0397 47.4917 53.0074 46.9488 52.1279C46.5177 51.3156 46.1009 50.4501 45.6697 49.6378C45.522 49.3591 45.4392 49.0501 45.4275 48.7342C45.4159 48.4184 45.4758 48.104 45.6027 47.815C46.6374 45.3974 48.1992 43.4101 50.5754 42.2932C51.3853 41.8782 52.2714 41.6367 53.1782 41.5836C54.0849 41.5306 54.9928 41.6673 55.8447 41.9851C56.6967 42.3029 57.4744 42.7949 58.129 43.4304C58.7837 44.0659 59.3012 44.831 59.649 45.6778C60.6825 48.3662 61.3419 51.1861 61.6084 54.0572C61.6563 55.4739 61.8479 56.8277 61.5844 58.2057ZM78.2561 68.1227C77.5448 69.2712 76.5292 70.1958 75.3241 70.7917C73.8768 71.5208 72.2692 71.8653 70.6532 71.7926C67.9225 71.6088 65.4841 70.7046 63.7498 68.4418C63.1609 67.6635 62.87 66.6969 62.9306 65.7196C63.0605 63.7826 62.8843 61.8371 62.4084 59.9561C62.1941 59.141 62.2462 58.2778 62.5569 57.495C62.6893 57.1195 62.9305 56.7928 63.2491 56.5574C63.5678 56.322 63.9492 56.1888 64.3439 56.175C65.5975 56.0297 66.8648 56.2815 67.9704 56.8954C68.3558 57.1484 68.7111 57.4453 69.0292 57.7802C69.4843 58.3024 69.4172 58.9359 69.2927 59.6031C69.101 60.7007 68.8998 61.8466 69.2447 62.9877C69.3348 63.2751 69.4437 63.5561 69.5705 63.829C69.7009 64.104 69.9258 64.3218 70.2034 64.4419C70.481 64.5619 70.7924 64.5761 71.0796 64.4818C71.421 64.4202 71.7395 64.2662 72.001 64.0363C72.2626 63.8064 72.4574 63.5092 72.5647 63.1763C72.6896 62.6443 72.7172 62.0937 72.6461 61.5517C72.2821 59.8377 71.3324 58.3076 69.9633 57.229C68.7944 56.2137 67.568 55.1886 66.4182 54.1297C64.5499 52.3794 63.2085 50.3196 62.8635 47.6748C62.7995 46.1305 62.8251 44.5839 62.9402 43.0427C63.2683 40.8232 64.2003 38.7393 65.6326 37.0229C66.3382 36.2099 67.2512 35.6079 68.2722 35.2822C69.4943 34.9756 70.7497 34.8245 72.009 34.8326C73.7266 35.0375 75.3641 35.6816 76.7661 36.7038C78.4237 37.9512 78.989 39.7548 79.2286 41.6695C79.3435 42.7477 79.4106 43.8163 79.5352 44.851C79.4346 45.9728 79.3052 47.0413 79.1711 48.1051C79.0561 48.9271 78.7734 49.251 77.959 49.3332C76.634 49.5846 75.2742 49.5846 73.9492 49.3332C73.2881 49.2075 73.0965 49.0044 73.0486 48.2405C72.9384 46.9591 72.8761 45.6923 72.7515 44.4594C72.7925 43.8441 72.6235 43.2332 72.2725 42.7284C72.0424 42.4465 71.7526 42.2201 71.4245 42.066C71.2377 42.0176 70.8305 42.066 70.7346 42.2352C70.3875 42.6017 70.1342 43.0481 69.9969 43.5359C69.4843 46.2484 70.1119 48.5693 72.3156 50.3631C73.4222 51.2576 74.548 52.0602 75.602 52.9402C76.8874 54.0682 77.9085 55.4704 78.5914 57.0453C79.2201 58.4014 79.6417 59.8457 79.8418 61.3293C80.1785 63.7144 79.6123 66.1401 78.2561 68.1227V68.1227ZM92.8198 66.469C92.6873 66.9866 92.4067 67.4533 92.0131 67.811C91.6195 68.1687 91.1303 68.4016 90.6065 68.4805C88.1379 68.891 85.6054 68.6272 83.2719 67.7165C82.4009 67.4409 81.6716 66.8316 81.2407 66.0194C81.1688 65.9033 81.0682 65.7244 81.0921 65.6326C81.1063 65.1731 81.1446 64.7147 81.2071 64.2594C81.5205 62.7108 81.4828 61.1107 81.0969 59.5789C80.6065 57.4652 79.8632 55.4194 78.8836 53.4866C78.8032 53.2712 78.7748 53.0396 78.8006 52.8109C78.8264 52.5823 78.9058 52.3631 79.0321 52.1715C79.3627 51.6638 79.7316 51.2044 80.0621 50.6967C80.9253 49.5969 81.3887 48.2316 81.3748 46.8286C81.3748 46.2774 81.2838 45.6537 81.7101 45.1701C82.2405 44.5544 82.9644 44.1413 83.7606 44C84.9424 43.7391 86.1369 43.5406 87.3392 43.4053C88.2041 43.3793 89.0695 43.4278 89.9262 43.5504C90.3896 43.5981 90.8502 43.6708 91.3059 43.7679C91.7144 43.8744 92.0747 44.1184 92.3273 44.4595C92.5799 44.8005 92.7097 45.2184 92.6952 45.644C92.6952 46.1275 92.7767 46.6642 92.8054 47.1235C92.7479 47.7086 92.7527 48.2598 92.6521 48.8304C92.6414 49.0909 92.5785 49.3466 92.4674 49.5821C92.3562 49.8175 92.199 50.0279 92.0052 50.2004C91.8114 50.3729 91.5851 50.5041 91.3398 50.5861C91.0944 50.6681 90.8352 50.6991 90.5777 50.6774C89.4915 50.6959 88.4079 50.7896 87.3344 50.9578C87.2401 50.9632 87.1478 50.9879 87.0632 51.0304C86.9786 51.073 86.9035 51.1325 86.8425 51.2054C86.7815 51.2783 86.7359 51.363 86.7085 51.4542C86.681 51.5455 86.6723 51.6415 86.6829 51.7363C86.7164 52.5438 86.6829 52.9934 87.7704 53.0756C88.4411 53.1578 89.0687 53.2255 89.7298 53.3512C90.5298 53.5156 90.7214 53.7187 90.7598 54.5262C90.7981 55.3337 90.8173 55.9767 90.8173 56.7455C90.8457 57.1115 90.7322 57.4744 90.5007 57.7576C90.2692 58.0408 89.9379 58.2223 89.5765 58.2638L87.6889 58.6603C87.6142 58.6629 87.5408 58.6813 87.4736 58.7145C87.4065 58.7477 87.347 58.7948 87.299 58.8527C87.2511 58.9107 87.2158 58.9782 87.1955 59.0508C87.1752 59.1235 87.1703 59.1996 87.1811 59.2743C87.1643 59.6373 87.2014 60.0007 87.2913 60.3526C87.3488 60.517 87.5787 60.7781 87.7704 60.7829C88.7668 60.9521 89.7633 61.1165 90.7741 61.2374C91.2259 61.251 91.6602 61.4169 92.0075 61.7088C92.3549 62.0006 92.5953 62.4015 92.6904 62.8475C93.0849 64.0157 93.1299 65.2752 92.8198 66.469V66.469Z" fill="white"/>
<path d="M6.70698 36.9068C6.25798 37.1455 5.89689 37.5235 5.67698 37.9851C5.58521 38.0854 5.52276 38.2095 5.49654 38.3435C5.47033 38.4775 5.48138 38.6162 5.52846 38.7442C5.68451 39.1758 5.87351 39.5945 6.09377 39.9965C6.26243 40.2386 6.36382 40.5219 6.38741 40.817C6.411 41.112 6.35592 41.408 6.22791 41.6743C6.0267 42.0708 5.88298 42.4286 5.67698 42.8251C5.65417 42.8735 5.61999 42.9155 5.57741 42.9475C5.53482 42.9796 5.48513 43.0006 5.43265 43.0088C5.13084 43.0088 5.03502 43.2022 4.95358 43.4391C4.8784 43.6634 4.85657 43.9024 4.88986 44.1367C4.92315 44.3711 5.01063 44.5942 5.14521 44.7881C5.32725 45.0396 5.55721 45.1024 5.73446 44.7881C5.83277 44.5369 5.88629 44.2701 5.89256 44C5.83113 43.2334 6.06637 42.4726 6.54888 41.8774C6.77792 41.6151 6.91701 41.2852 6.94549 40.9368C6.97397 40.5884 6.89032 40.2399 6.70698 39.9433C6.64921 39.8146 6.63409 39.6704 6.66386 39.5323C6.84591 39.0488 7.07586 38.5411 7.25791 38.0383C7.3431 37.7235 7.37867 37.3972 7.3633 37.0712C7.34151 37.007 7.30412 36.9493 7.25455 36.9034C7.20497 36.8575 7.14479 36.8249 7.07951 36.8086C7.01423 36.7922 6.94592 36.7927 6.88084 36.8098C6.81577 36.827 6.75599 36.8603 6.70698 36.9068Z" fill="white"/>
<path d="M96.3745 28.8031C96.6715 28.6339 96.6523 28.3196 96.5853 28.0102C96.5521 27.8636 96.4866 27.7264 96.3936 27.6089C96.2499 27.019 96.0966 26.4774 95.9529 25.8924C95.8555 25.2014 95.9061 24.4973 96.1014 23.8278C96.2451 23.2669 95.8906 22.9236 95.3445 22.9236C95.1945 22.943 95.052 23.0011 94.9307 23.0921C94.8094 23.1832 94.7133 23.3043 94.6517 23.4436C94.5901 23.583 94.5651 23.736 94.579 23.8879C94.593 24.0399 94.6454 24.1857 94.7313 24.3113C94.8834 24.5708 94.9934 24.8532 95.057 25.1478C95.289 26.0092 95.3396 26.9102 95.2055 27.7926C95.2297 27.9399 95.2297 28.0902 95.2055 28.2374C95.1792 28.3812 95.2082 28.5298 95.2865 28.6528C95.3648 28.7758 95.4866 28.8642 95.6271 28.8998C95.8802 28.9192 96.1344 28.8863 96.3745 28.8031Z" fill="white"/>
<path d="M96.7194 55.9622C96.4863 55.7462 96.3071 55.4777 96.1963 55.1786C96.0856 54.8795 96.0465 54.5581 96.0822 54.2408C96.0822 53.9942 96.0535 53.7573 95.7181 53.7573C95.3828 53.7573 95.2726 53.9362 95.2391 54.2408C95.2193 54.6193 95.2532 54.9987 95.3397 55.3674C95.4662 55.8378 95.6263 56.2984 95.8187 56.7455C95.8954 57.0162 96.0056 57.345 96.3697 57.2918C96.7338 57.2386 96.9206 56.8905 97.0068 56.5617C97.0103 56.4458 96.9859 56.3308 96.9359 56.2264C96.8858 56.122 96.8116 56.0314 96.7194 55.9622Z" fill="white"/>
<path d="M9.30354 36.3024C9.59098 36.3024 9.81614 36.0364 9.84489 35.7463C9.84489 35.345 9.69158 35.2048 9.36582 35.1613C9.21353 35.1559 9.06458 35.2071 8.94717 35.3051C8.82975 35.4031 8.752 35.5412 8.72865 35.6931C8.74395 35.8447 8.80874 35.9867 8.91281 36.097C9.01688 36.2073 9.15433 36.2796 9.30354 36.3024Z" fill="white"/>
<path d="M43.4564 29.6879C43.9068 29.723 44.3597 29.71 44.8074 29.6492C45.526 29.5429 45.6697 29.3833 45.7128 28.6435C45.7346 28.5107 45.7346 28.3751 45.7128 28.2422C45.7464 27.3525 45.7703 26.5112 45.8518 25.6312C46.0242 24.2242 45.411 23.1605 44.3571 22.2805C44.0313 21.9903 43.7295 22.0097 43.3989 22.3723C43.2571 22.5344 43.1597 22.7311 43.1163 22.9429C42.666 24.2725 42.5989 25.6554 42.5414 27.3912C42.5941 27.7539 42.618 28.4114 42.7378 29.0932C42.7773 29.2577 42.8687 29.4047 42.9984 29.5121C43.1281 29.6194 43.2889 29.6811 43.4564 29.6879Z" fill="white"/>
<path d="M61.364 27.3816C62.2592 27.9079 63.303 28.1172 64.3295 27.9763C64.7189 27.9782 65.1033 27.8872 65.4513 27.7108C65.7993 27.5343 66.1011 27.2774 66.332 26.9609C66.4286 26.8258 66.4845 26.6654 66.493 26.499C66.5015 26.3326 66.4622 26.1673 66.3799 26.0229C66.2831 26.1234 66.1755 26.2126 66.0589 26.2888C65.6739 26.5279 65.272 26.7379 64.8565 26.9174C64.3602 27.0247 63.8477 27.0315 63.3488 26.9373C62.8499 26.8431 62.3745 26.6498 61.9502 26.3687C61.5259 26.0875 61.1611 25.7241 60.8771 25.2995C60.5931 24.875 60.3955 24.3977 60.2957 23.8954C60.2283 23.3343 60.3292 22.7658 60.5854 22.2632C60.8416 21.7606 61.2414 21.3473 61.7329 21.0765C62.624 20.5156 63.4001 20.593 64.4013 21.2893C64.6737 21.4718 64.8889 21.7288 65.0221 22.0301C65.1553 22.3314 65.2008 22.6648 65.1535 22.9912C65.0819 23.2836 64.9303 23.5496 64.7159 23.7591C64.5016 23.9686 64.2332 24.113 63.9414 24.1759C63.8005 24.2378 63.6457 24.2606 63.4932 24.2419C63.3406 24.2232 63.1957 24.1637 63.0736 24.0695C62.9514 23.9753 62.8564 23.8499 62.7984 23.7062C62.7405 23.5626 62.7216 23.4059 62.7438 23.2523C62.845 22.8924 62.9864 22.5453 63.1654 22.2176C63.2037 22.0774 63.2755 21.9952 63.3139 21.855C63.242 21.7389 62.9881 21.7679 62.8827 21.7921C61.2826 22.411 61.8096 24.553 62.8252 25.0268C63.3126 25.3078 63.8823 25.407 64.4349 25.3073C65.6373 25.08 66.9213 23.7745 66.5715 22.2756C66.4319 21.7549 66.1785 21.2723 65.8298 20.8633C65.4812 20.4543 65.0462 20.1294 64.5568 19.9124C64.0675 19.6953 63.5361 19.5917 63.0018 19.6091C62.4676 19.6264 61.944 19.7644 61.4694 20.0128C60.9298 20.3079 60.4529 20.7071 60.0658 21.1877C59.682 21.7204 59.4289 22.3374 59.3273 22.9879C59.2257 23.6385 59.2785 24.3042 59.4813 24.9301C59.5436 25.2444 59.5867 26.2066 61.364 27.3816Z" fill="white"/>
<path d="M54.2834 52.0506C51.6868 51.3543 48.9466 53.6703 49.4927 56.8229C49.7418 58.138 51.4425 60.1446 53.2438 60.28C53.713 60.3543 54.1934 60.3042 54.6377 60.1347C55.0819 59.9652 55.4749 59.682 55.7781 59.313C55.9278 59.1632 56.0352 58.9757 56.0891 58.77C56.143 58.5643 56.1415 58.3478 56.0847 58.1429C56.0128 58.2251 55.9553 58.2589 55.9314 58.3508C55.7239 58.7444 55.3896 59.0548 54.9837 59.2306C54.5778 59.4064 54.1245 59.4372 53.6989 59.3178C52.9176 59.15 52.2105 58.733 51.682 58.1284C50.034 56.2862 50.7239 54.3134 52.4006 53.2932C52.8713 53.0487 53.414 52.985 53.9277 53.1139C54.4414 53.2429 54.8913 53.5557 55.1936 53.9943C55.3112 54.1252 55.3798 54.2934 55.3877 54.47C55.3956 54.6465 55.3422 54.8203 55.2367 54.9613C55.1403 55.1243 54.997 55.2538 54.8258 55.3324C54.6546 55.411 54.4637 55.435 54.2786 55.4013C54.0918 55.353 53.7085 55.2998 53.7229 55.0532C53.7373 54.8066 54.0199 54.884 53.9864 54.6229C53.9059 54.4966 53.7848 54.4022 53.6435 54.3555C53.5021 54.3088 53.3491 54.3127 53.2103 54.3666C53.0402 54.4026 52.8863 54.4931 52.7714 54.6247C52.6566 54.7563 52.587 54.9219 52.5731 55.0967C52.543 55.4262 52.6154 55.757 52.7802 56.0429C52.9451 56.3289 53.1942 56.5559 53.4929 56.6923C53.9258 56.8987 54.4108 56.9672 54.8832 56.8886C55.3556 56.81 55.793 56.5881 56.1374 56.2523C56.37 56.0539 56.5462 55.7967 56.6481 55.507C56.7499 55.2173 56.7737 54.9055 56.7171 54.6035C56.6003 53.9857 56.308 53.4154 55.876 52.9622C55.4439 52.5089 54.8906 52.1922 54.2834 52.0506Z" fill="white"/>
<path d="M81.5089 28.4259C81.5339 28.5272 81.5791 28.6223 81.6417 28.7055C81.7043 28.7886 81.783 28.858 81.873 28.9094C82.2463 29.0574 82.6354 29.1612 83.0324 29.2189C83.7366 29.3591 83.8564 29.2865 83.9905 28.5758C84.1199 27.7103 84.2492 26.8448 84.3307 25.9648C84.4808 24.9016 84.3941 23.818 84.0767 22.7929C83.92 22.3875 83.7018 22.0091 83.43 21.6712C83.3788 21.5936 83.3082 21.531 83.2254 21.4896C83.1426 21.4482 83.0505 21.4295 82.9583 21.4354C82.8661 21.4413 82.7771 21.4715 82.7001 21.5231C82.6231 21.5746 82.5609 21.6457 82.5198 21.7292C82.2196 22.1425 81.9971 22.608 81.8634 23.1024C81.6383 24.3402 81.4275 26.8351 81.4275 26.8351C81.4221 27.3666 81.4493 27.8978 81.5089 28.4259Z" fill="white"/>
<path d="M27.9777 24.8431C27.595 24.9623 27.2232 25.1143 26.8662 25.2976C26.5468 25.4771 26.1902 25.5784 25.8249 25.5935C25.4597 25.6086 25.096 25.5371 24.7631 25.3846C24.1814 25.2403 23.6531 24.9302 23.2411 24.4913C22.8292 24.0523 22.5509 23.5031 22.4396 22.909C22.3251 22.5389 22.2927 22.1479 22.3446 21.7637C22.3964 21.3795 22.5314 21.0116 22.7398 20.6859C22.9482 20.3601 23.2251 20.0847 23.5507 19.879C23.8764 19.6732 24.2428 19.5423 24.6242 19.4954C25.1757 19.4669 25.7173 19.6507 26.1397 20.0097C26.5621 20.3687 26.8337 20.8761 26.8998 21.4295C26.9234 21.5751 26.9169 21.7241 26.8807 21.8671C26.8445 22.01 26.7793 22.1439 26.6893 22.2602C26.5993 22.3764 26.4864 22.4726 26.3577 22.5427C26.229 22.6128 26.0873 22.6552 25.9416 22.6673C25.7237 22.7024 25.5004 22.6757 25.2966 22.5904C25.0927 22.505 24.9164 22.3643 24.7871 22.1838C24.538 21.8163 24.7152 21.5117 24.9068 21.1635C24.9068 21.0717 24.9931 21.0378 25.017 20.9411C25.1464 20.6268 25.017 20.3899 24.6529 20.4576C24.381 20.5399 24.1382 20.6993 23.9535 20.9169C23.768 21.1872 23.6663 21.5069 23.6613 21.8356C23.6704 22.2183 23.795 22.589 24.0184 22.8983C24.2418 23.2076 24.5535 23.4408 24.9116 23.5666C25.4125 23.76 25.9618 23.7855 26.4782 23.6391C26.9592 23.477 27.3713 23.1548 27.6471 22.7253C27.9 22.3545 28.0619 21.9282 28.1194 21.4818C28.1768 21.0354 28.1283 20.5816 27.9777 20.1578C27.9777 20.0515 27.7765 19.4084 26.7177 18.7073C26.1269 18.3433 25.4407 18.1688 24.7495 18.2068C24.0584 18.2448 23.395 18.4935 22.8468 18.92C22.4211 19.2575 22.0688 19.6799 21.8121 20.161C21.5554 20.642 21.3997 21.1713 21.3547 21.7158C21.3097 22.2603 21.3765 22.8083 21.5508 23.3256C21.7251 23.8428 22.0032 24.3183 22.3678 24.7222C22.5896 24.9659 22.8264 25.1952 23.0768 25.4088C23.5426 25.8508 24.115 26.1619 24.737 26.3112C25.3589 26.4606 26.0088 26.4428 26.6219 26.2598C27.0035 26.1609 27.3577 25.9753 27.6574 25.7172C27.9571 25.4591 28.1945 25.1353 28.3513 24.7706C28.3753 24.6594 28.0352 24.8093 27.9777 24.8431Z" fill="white"/>
<path d="M39.0825 54.6374C38.7412 54.2726 38.3252 53.9873 37.8636 53.8011C37.402 53.6149 36.9057 53.5323 36.4093 53.5591C34.5457 53.6607 33.3576 54.7921 32.5767 56.4602C31.8965 57.9108 32.2366 59.2695 33.0558 60.5846C33.3246 61.0284 33.6866 61.4074 34.1161 61.6947C34.5457 61.9821 35.0325 62.1709 35.5422 62.2479C36.1889 62.422 37.3818 62.04 37.5687 61.1407C37.2196 61.2503 36.8645 61.3391 36.5051 61.4066C35.8356 61.4113 35.1848 61.1838 34.6616 60.7622C34.1384 60.3407 33.7745 59.7505 33.6307 59.0906C33.4939 58.6492 33.4498 58.1839 33.5012 57.7244C33.5526 57.2649 33.6984 56.8213 33.9292 56.4218C34.16 56.0223 34.4708 55.6758 34.8417 55.4044C35.2127 55.1329 35.6356 54.9425 36.0835 54.8453C36.3795 54.7587 36.6909 54.74 36.995 54.7907C37.299 54.8413 37.588 54.96 37.8406 55.1381C38.0933 55.3161 38.3033 55.549 38.4552 55.8196C38.6071 56.0902 38.697 56.3917 38.7184 56.702C38.7474 56.9895 38.6844 57.2789 38.5388 57.5277C38.3931 57.7765 38.1723 57.9718 37.9088 58.0849C37.6498 58.1865 37.3682 58.2149 37.0944 58.1671C36.4907 58.0075 36.4428 57.4418 36.8788 56.9099C37.0081 56.7939 37.0273 56.5473 37.1087 56.4264C37.1087 56.1798 36.6584 56.2523 36.4333 56.3442C36.125 56.4429 35.842 56.6088 35.6043 56.8302C35.3667 57.0517 35.1803 57.3232 35.0583 57.6255C34.9787 57.819 34.9493 58.0297 34.9728 58.2378C34.9962 58.4459 35.0718 58.6445 35.1925 58.815C35.4643 59.2973 35.8824 59.6788 36.3852 59.9034C36.888 60.1279 37.4489 60.1837 37.9854 60.0624C38.4766 59.9523 38.9257 59.7011 39.2785 59.339C39.6313 58.9769 39.8727 58.5195 39.9736 58.022C40.1682 57.4316 40.1875 56.7967 40.0292 56.1953C39.8708 55.594 39.5418 55.0524 39.0825 54.6374Z" fill="white"/>
</svg>
