<svg width="61" height="52" viewBox="0 0 61 52" fill="none" xmlns="http://www.w3.org/2000/svg">
<path d="M55.5753 11.92C55.5885 11.7716 55.6552 11.6332 55.7629 11.531C55.8707 11.4288 56.0119 11.37 56.1598 11.3657C56.2973 11.3752 56.4259 11.4373 56.5193 11.5394C56.6127 11.6414 56.6638 11.7755 56.662 11.9143C56.6446 12.0598 56.5792 12.1952 56.4763 12.2988C56.3734 12.4024 56.239 12.4682 56.0945 12.4857C56.0234 12.4835 55.9533 12.4671 55.8885 12.4373C55.8237 12.4076 55.7655 12.3652 55.7171 12.3125C55.6688 12.2598 55.6314 12.198 55.607 12.1306C55.5827 12.0632 55.5719 11.9916 55.5753 11.92Z" fill="#2B58A5"/>
<path d="M54.5142 33.6571C54.4801 33.1171 54.4262 32.54 54.4205 32.0085C54.3471 31.5631 54.4064 31.1058 54.5908 30.6943C54.8178 30.28 55.0164 29.86 55.2206 29.4143C55.5501 28.648 55.6894 27.8125 55.6264 26.98C55.6302 26.5585 55.492 26.1482 55.2343 25.8161C54.9766 25.484 54.6147 25.2496 54.2077 25.1514C53.6834 25.0503 53.1539 24.9778 52.6217 24.9343C52.3948 24.9028 52.0912 24.9343 51.9919 24.6485C51.8926 24.3628 52.1082 24.2085 52.2756 24.0771C52.9253 23.3943 53.5751 22.7085 54.2617 22.0343C54.5976 21.719 54.8653 21.3373 55.0479 20.913C55.2305 20.4887 55.3241 20.031 55.3228 19.5685C55.3483 18.14 55.3228 16.6428 55.2944 15.2143C55.2604 14.2314 55.1989 13.24 55.11 12.24C55.0607 11.3337 54.8126 10.4497 54.3837 9.6514C53.8404 8.74818 53.1318 7.95703 52.2955 7.31997C51.4858 6.61639 50.4349 6.25956 49.3675 6.32568C47.9347 6.41711 46.8367 7.12854 45.8238 8.0714C45.0861 8.75997 44.6322 9.70283 44.164 10.5828C44.0591 10.76 43.9796 10.9485 43.7725 10.9514C43.6799 10.9461 43.591 10.9131 43.5172 10.8566C43.4434 10.8001 43.3881 10.7227 43.3583 10.6343C42.7889 9.63854 42.1073 8.7124 41.3268 7.87426C40.0995 6.4334 38.6096 5.24244 36.9377 4.36568C36.2016 3.94697 35.3714 3.7247 34.526 3.71997C34.1093 3.72983 33.7015 3.84355 33.339 4.05097C32.9766 4.25838 32.6709 4.55303 32.4492 4.90854C32.0882 5.48376 31.8918 6.14815 31.8817 6.82854C31.8534 7.82569 31.8193 8.8514 31.791 9.84854C31.7949 9.96464 31.7844 10.0808 31.7597 10.1943C31.7421 10.2374 31.7155 10.2763 31.6818 10.3084C31.648 10.3404 31.6078 10.3648 31.564 10.38C31.5299 10.4 31.4136 10.28 31.3739 10.2085C30.7667 8.83711 29.8872 7.71426 28.5367 7.00283C27.8047 6.59711 27.033 6.28568 26.1392 6.32854C25.3184 6.3688 24.5143 6.57683 23.7758 6.93997C23.0936 7.27735 22.5309 7.81801 22.1643 8.48854C21.9515 8.84569 21.787 9.24569 21.5969 9.6114C21.5486 9.68569 21.5061 9.73426 21.4578 9.80854C21.3823 9.76809 21.3172 9.71035 21.2677 9.63997C21.168 9.48749 21.06 9.34061 20.9443 9.19997C19.8273 7.81526 18.5047 6.61252 17.0233 5.63426C15.723 4.76831 14.2015 4.29994 12.6426 4.28568C12.0808 4.26668 11.5234 4.39152 11.0226 4.64854C10.595 4.90365 10.2259 5.24717 9.93984 5.65643C9.65374 6.0657 9.45707 6.53141 9.36281 7.02283C8.86318 8.97363 8.69057 10.9948 8.85212 13.0028C8.96704 14.5903 9.20899 16.1659 9.57561 17.7143C9.81677 18.6971 10.1118 19.6914 10.3729 20.7057C10.3104 20.7057 10.2565 20.7057 10.2197 20.7257C9.31421 20.8448 8.44402 21.1554 7.66616 21.6371C6.89561 22.1207 6.24103 22.7701 5.74948 23.5388C5.25792 24.3075 4.94161 25.1763 4.82328 26.0828C4.60765 27.68 4.50835 29.28 4.40337 30.9085C4.31402 32.2856 4.3425 33.6678 4.48849 35.04C4.57405 35.8976 4.72294 36.7475 4.93393 37.5828C5.37107 39.1106 6.04931 40.5576 6.94267 41.8685C7.50916 42.7605 8.17555 43.584 8.92872 44.3228C9.83173 45.2549 10.872 46.0412 12.0128 46.6543C12.7696 47.0488 13.6197 47.2257 14.4698 47.1657C15.5508 47.0714 16.5097 46.56 17.3779 45.9343C17.7042 45.6971 17.795 45.6914 18.073 45.9714C18.7531 46.6371 19.6485 47.0337 20.5953 47.0885C22.1217 47.2028 23.4325 46.6028 24.6015 45.7057C25.0288 45.3282 25.4298 44.9215 25.8016 44.4885C26.003 44.2771 26.1761 44.2943 26.352 44.5171C27.0303 45.493 27.9975 46.2281 29.1155 46.6171C29.9882 46.9723 30.9525 47.03 31.8609 46.7813C32.7692 46.5326 33.5718 45.9913 34.1458 45.24C34.4466 44.8771 34.5374 44.8714 34.9374 45.1285C35.8506 45.7401 36.8325 46.2408 37.8626 46.62C38.7721 46.9422 39.7387 47.0687 40.6998 46.9914C41.9101 46.8239 43.0531 46.3303 44.008 45.5628C44.5924 45.1285 44.4619 45.18 44.9811 45.5628C45.5867 46.0398 46.294 46.3688 47.0472 46.524C47.8004 46.6792 48.5791 46.6563 49.3221 46.4571C50.2896 46.2428 51.0613 45.6514 51.7876 45.0285C52.2472 44.6171 52.6586 44.1714 53.0729 43.7143C53.8397 42.934 54.5269 42.0783 55.1242 41.16C55.6047 40.4104 55.8834 39.5479 55.9328 38.6571C55.9838 37.4571 55.5498 36.4257 55.0277 35.4C54.7382 34.8612 54.5633 34.2677 54.5142 33.6571ZM43.9569 16.3514C44.0505 15.5514 44.1385 14.7743 44.2577 13.98C44.4224 12.7633 44.7837 11.582 45.3273 10.4828C45.7387 9.70568 46.1274 8.8914 46.7629 8.26283C46.9643 8.0713 47.186 7.90267 47.424 7.75997C47.8948 7.4349 48.4238 7.20494 48.9816 7.08283C49.736 6.96733 50.5063 7.13182 51.1492 7.54569C51.8712 8.02605 52.4857 8.65272 52.9537 9.38568C53.8049 10.68 54.0574 12.1057 54.134 13.6028C54.1992 14.8028 54.2446 15.9685 54.2815 17.16C54.2904 17.2186 54.2846 17.2785 54.2645 17.3343C54.2929 17.3343 54.1709 19.14 54.0829 20.0343C54.0587 20.2751 53.9769 20.5064 53.8446 20.7085C53.7353 20.8707 53.569 20.985 53.3793 21.0285C52.7523 21.0685 52.1054 21.0714 51.4585 21.0771C51.1216 21.0772 50.7855 21.0466 50.4541 20.9857C50.3676 20.9598 50.2874 20.916 50.2186 20.8571C50.0993 20.7263 49.9884 20.5879 49.8867 20.4428L49.8271 20.3371C49.8271 20.0514 49.7789 19.7343 49.7704 19.4371C49.7704 19.2 49.7051 19.1228 49.4866 19.0914C49.2682 19.06 48.9362 19.0628 48.6695 19.0914C48.6141 19.0824 48.5573 19.0855 48.5032 19.1005C48.449 19.1155 48.3987 19.142 48.3557 19.1784C48.3126 19.2147 48.2778 19.2599 48.2536 19.3109C48.2295 19.362 48.2165 19.4177 48.2156 19.4743C48.1787 19.7285 48.1588 20.02 48.1219 20.2771C48.0283 20.96 47.7928 21.1943 47.0977 21.1543C46.4176 21.1277 45.7399 21.0561 45.0691 20.94C44.8067 20.9003 44.5638 20.7772 44.3759 20.5885C44.1881 20.3998 44.0651 20.1555 44.025 19.8914C43.7243 18.6857 43.8236 17.5285 43.9569 16.3514ZM32.6904 11.6571C32.7216 11.3114 32.7811 10.9714 32.7868 10.62C32.7729 9.57806 32.8317 8.53645 32.9627 7.50283C33.0677 6.87997 33.2266 6.2714 33.7004 5.80854C33.8899 5.61316 34.1163 5.45792 34.3662 5.35193C34.6162 5.24595 34.8847 5.19137 35.1559 5.1914C35.9418 5.22006 36.7098 5.43544 37.3973 5.81997C38.8172 6.55909 40.1096 7.52384 41.2247 8.67711C42.291 9.75631 43.0115 11.1327 43.293 12.6285C43.5115 13.8085 43.4037 14.9943 42.6887 16.0428C42.0702 16.9428 41.4034 17.8 40.4671 18.3457L38.3846 19.5628C38.2658 19.6119 38.1646 19.696 38.0942 19.8041C38.0238 19.9122 37.9875 20.0393 37.9903 20.1685C37.9718 20.4465 37.9377 20.7231 37.8881 20.9971C37.8413 21.2802 37.6904 21.5352 37.4654 21.7114C37.1747 21.9557 36.8385 22.1389 36.4765 22.2503C36.1144 22.3617 35.7339 22.399 35.3573 22.36C34.7071 22.2852 34.0932 22.0188 33.5926 21.5943C33.4822 21.5184 33.3924 21.4159 33.3314 21.2961C33.2705 21.1763 33.2403 21.0431 33.2436 20.9085C33.2635 20.6228 33.1557 20.3543 33.1471 20.0514C33.0365 19.0171 32.9287 17.9828 32.8464 16.9543C32.7641 15.9257 32.7244 14.9714 32.6563 14.0057C32.6113 13.5892 32.5942 13.1702 32.6052 12.7514C32.594 12.3846 32.6225 12.0177 32.6904 11.6571ZM20.6719 16.4857C20.7741 15.6571 20.8677 14.8543 21.0237 14.0371C21.2529 12.7415 21.5802 11.4654 22.0026 10.22C22.324 9.28035 22.9746 8.49103 23.8326 7.99997C24.38 7.65363 24.9828 7.40521 25.6144 7.26569C26.4836 7.12537 27.3737 7.31034 28.1168 7.78569C29.1155 8.35711 29.7907 9.23711 30.3525 10.2171C30.9632 11.2933 31.3512 12.483 31.493 13.7143C31.6604 14.8571 31.825 16.02 31.9924 17.1571C32.0845 17.7812 32.1451 18.4097 32.174 19.04C32.1738 19.9636 32.117 20.8863 32.0037 21.8028C31.8732 22.7428 31.5952 22.7857 30.7412 22.9143C30.1467 22.9816 29.5491 23.0188 28.9509 23.0257C28.6904 23.0333 28.4298 23.0132 28.1735 22.9657C27.9182 22.9285 27.6061 22.4314 27.6061 22.16C27.5777 21.8285 27.555 21.4657 27.5522 21.14C27.553 21.0849 27.5426 21.0302 27.5216 20.9793C27.5006 20.9284 27.4695 20.8823 27.4301 20.844C27.3908 20.8057 27.344 20.776 27.2928 20.7566C27.2416 20.7372 27.1869 20.7287 27.1323 20.7314C26.6357 20.7314 26.1279 20.76 25.6257 20.7743C25.4186 20.7743 25.3193 20.9285 25.2966 21.1285C25.2484 21.5314 25.2086 21.9028 25.1888 22.3114C25.1888 22.9285 24.9221 23.2171 24.3092 23.2C23.546 23.2 22.8169 23.2 22.0593 23.16C21.7563 23.1212 21.4719 22.9914 21.2432 22.7876C21.0145 22.5838 20.852 22.3153 20.7769 22.0171C20.4819 21.0715 20.3354 20.0854 20.3428 19.0943C20.4677 18.2657 20.5556 17.3714 20.6719 16.4857ZM17.2673 37.1228V37.18C17.2673 38.3228 16.6403 39.2285 16.0416 40.1628C15.599 40.8428 14.9067 41.1285 14.1861 41.4114C13.2243 41.8052 12.1859 41.9723 11.1503 41.9C8.98547 41.7657 7.36826 40.7571 6.38374 38.8228C6.13272 38.3619 5.93654 37.8728 5.79928 37.3657C5.6218 36.5496 5.48732 35.7246 5.3964 34.8943C5.32263 34.1628 5.31412 33.4228 5.26872 32.7C5.22763 31.932 5.22763 31.1623 5.26872 30.3943C5.36519 28.9114 5.43612 27.4228 5.64891 25.9428C5.86454 24.3457 6.81784 23.18 8.2024 22.3971C8.85034 21.9852 9.57239 21.7056 10.3275 21.5743C11.1097 21.4288 11.9158 21.4854 12.6705 21.7387C13.4251 21.992 14.1037 22.4338 14.6429 23.0228C15.4847 23.9064 16.0585 25.0136 16.297 26.2143C16.3622 26.5285 16.4615 26.82 16.5239 27.1314C16.5551 27.3485 16.5864 27.5628 16.6374 27.8143C16.6885 28.0657 15.9111 28.5657 15.7125 28.6714C15.1443 29.0146 14.4755 29.1489 13.8201 29.0514C13.4832 29.0011 13.1511 28.9227 12.827 28.8171C12.7094 28.7882 12.6017 28.7278 12.5153 28.6423C12.4289 28.5568 12.367 28.4494 12.3362 28.3314C12.2483 27.8943 12.1575 27.4543 12.0525 27.0457C12.0132 26.8048 11.9239 26.5749 11.7904 26.3711C11.6569 26.1673 11.4823 25.9941 11.2779 25.8628C11.1729 25.8202 11.0599 25.8009 10.9468 25.8064C10.8337 25.8118 10.7231 25.8418 10.6225 25.8943C10.3948 25.9687 10.1986 26.1184 10.0657 26.319C9.93291 26.5197 9.87117 26.7596 9.89054 27C9.89054 27.74 9.84798 28.4971 9.80258 29.2228C9.75719 29.9485 9.60965 30.7371 9.59263 31.4714C9.55291 32.4085 9.59263 33.3657 9.59263 34.3285C9.61357 34.8166 9.66188 35.3031 9.73733 35.7857C9.84397 36.3809 10.1615 36.917 10.631 37.2943C10.8343 37.4672 11.0764 37.5876 11.3363 37.6452C11.5961 37.7027 11.866 37.6955 12.1226 37.6243C12.3791 37.5531 12.6145 37.42 12.8085 37.2366C13.0024 37.0531 13.149 36.8248 13.2356 36.5714C13.3355 36.2508 13.3936 35.9185 13.4087 35.5828C13.4087 35.2028 13.2583 35.04 12.8724 35.0543C12.7347 35.0415 12.596 35.0415 12.4582 35.0543C12.3978 35.0662 12.3355 35.065 12.2757 35.0505C12.2158 35.0361 12.1597 35.0088 12.1113 34.9706C12.0628 34.9324 12.0231 34.8841 11.9948 34.829C11.9666 34.7739 11.9504 34.7133 11.9475 34.6514C11.8028 33.6371 11.6411 32.5885 11.5248 31.5828C11.5118 31.4729 11.5208 31.3614 11.5511 31.255C11.5815 31.1486 11.6327 31.0493 11.7017 30.9631C11.7706 30.8769 11.856 30.8054 11.9528 30.7529C12.0496 30.7003 12.1558 30.6678 12.2653 30.6571C12.6057 30.6 12.9349 30.5714 13.2668 30.54C14.0244 30.4485 14.8188 30.3343 15.582 30.2143C15.8051 30.1459 16.0459 30.1672 16.2538 30.2737C16.4617 30.3803 16.6205 30.5638 16.697 30.7857C17.0308 31.5893 17.2321 32.4424 17.2928 33.3114C17.5352 34.5713 17.5236 35.8675 17.2588 37.1228H17.2673ZM16.2913 18.3C15.9366 18.5314 15.7579 18.5428 15.948 19.1571C15.9878 19.477 15.9528 19.8018 15.8458 20.1057C15.6728 20.6514 15.2075 20.8514 14.6769 20.9628C14.2707 21.0702 13.8573 21.1475 13.4399 21.1943C13.1096 21.2145 12.7783 21.205 12.4497 21.1657C12.2182 21.1352 12.0003 21.0381 11.8222 20.8861C11.644 20.7341 11.5132 20.5335 11.4453 20.3085C10.9716 19.1633 10.6842 17.9487 10.5942 16.7114C10.5232 15.54 10.4438 14.3971 10.3984 13.2314C10.3757 12.7514 10.3558 12.2743 10.3417 11.7685C10.2849 10.46 10.214 9.14283 10.1856 7.8314C10.1616 7.33503 10.194 6.83752 10.2821 6.34854C10.3647 5.95896 10.5727 5.60774 10.8739 5.34942C11.175 5.0911 11.5524 4.94014 11.9475 4.91997C12.0938 4.90711 12.241 4.90711 12.3873 4.91997C13.5525 5.00541 14.6848 5.34778 15.704 5.92283C16.9639 6.59537 18.0577 7.54447 18.9043 8.69997C19.6331 9.72853 20.0856 10.9292 20.218 12.1857C20.3655 13.4057 20.218 14.6114 19.4803 15.6543C19.0638 16.2423 18.5516 16.7553 17.9652 17.1714C17.4148 17.5971 16.853 17.9485 16.2913 18.3ZM26.9195 35.0057C26.8187 35.531 26.6637 36.0442 26.457 36.5371C26.1512 37.1454 25.7832 37.72 25.359 38.2514C24.9766 38.6861 24.5409 39.0701 24.0624 39.3943C23.6185 39.6828 23.1086 39.852 22.5814 39.8857C22.4763 39.895 22.3726 39.9161 22.2721 39.9485C22.2651 39.9628 22.2615 39.9784 22.2615 39.9943C22.2615 40.0101 22.2651 40.0258 22.2721 40.04C22.5899 40.1927 22.9485 40.2369 23.2935 40.1657C24.3092 39.9914 25.0327 39.36 25.691 38.6485C25.7757 38.5439 25.8708 38.4482 25.9747 38.3628C26.0853 38.3914 26.0484 38.6485 25.9917 38.7514C25.0583 40.3943 23.6936 41.4485 21.8068 41.7114C21.3155 41.7752 20.8165 41.6928 20.3712 41.4743C18.8533 40.7743 18.1156 39.4543 17.6673 37.9143C17.517 37.3714 17.7468 36.8428 17.883 36.3171C18.1156 35.5514 18.3199 34.78 18.5298 33.9771C18.7256 33.2314 18.6008 32.4885 18.4986 31.7514C18.4447 31.2943 18.3539 30.8571 18.3341 30.3771C18.348 29.9502 18.4775 29.5353 18.7086 29.1771C19.2586 28.1856 20.0734 27.369 21.0606 26.82C21.2365 26.72 21.4295 26.6543 21.594 26.58C22.1271 26.4512 22.67 26.368 23.2169 26.3314C23.7789 26.2908 24.3381 26.4407 24.8057 26.7571C25.0519 26.9854 25.27 27.2424 25.4555 27.5228C26.0229 28.2371 26.3293 29.1143 26.5904 29.9857C26.6897 30.2714 26.7946 30.5571 26.8741 30.8428C26.9337 31.0657 26.9308 31.3 26.9819 31.5514C27.2365 32.6912 27.2151 33.876 26.9195 35.0057ZM36.4724 34.3943C36.3532 35.0714 36.3418 35.78 36.1688 36.4428C35.9687 37.4422 35.4813 38.3602 34.7672 39.0828C34.2224 39.5885 33.5926 39.98 32.8095 39.7114C32.4314 39.5708 32.0636 39.4037 31.7087 39.2114C31.8363 39.5213 32.0538 39.7852 32.3329 39.9685C32.6598 40.1754 33.0429 40.2737 33.4282 40.2496C33.8135 40.2255 34.1816 40.0802 34.4806 39.8343C35.1278 39.3318 35.643 38.6775 35.9815 37.9285C36.0441 37.7743 36.122 37.6269 36.2142 37.4885C36.2953 37.6123 36.3387 37.7573 36.339 37.9057C36.1859 38.747 35.7914 39.5248 35.2041 40.1428C34.8738 40.5022 34.4697 40.7848 34.0199 40.9708C33.57 41.1568 33.0854 41.2419 32.5996 41.22C31.8761 41.2914 30.6334 40.7828 30.1284 40.4714C29.1848 39.8757 28.4605 38.9858 28.0657 37.9371C27.9721 37.7371 27.9125 37.5143 27.8274 37.2828C27.5582 36.5568 27.5402 35.7605 27.7763 35.0228C27.9802 34.2071 28.13 33.3786 28.2246 32.5428C28.2734 31.9325 28.1262 31.3225 27.8047 30.8028C27.5493 30.3228 27.3025 29.8114 27.0471 29.3314C26.9597 29.1667 26.9106 28.9841 26.9037 28.7975C26.8968 28.6108 26.9323 28.425 27.0074 28.2543C27.6203 26.8257 28.5452 25.6514 29.9524 24.9914C30.4321 24.7462 30.9569 24.6034 31.4939 24.5721C32.0309 24.5408 32.5686 24.6215 33.0731 24.8093C33.5777 24.9971 34.0383 25.2879 34.426 25.6634C34.8137 26.0389 35.1201 26.491 35.3261 26.9914C35.9382 28.58 36.3287 30.2463 36.4865 31.9428C36.5149 32.78 36.6284 33.58 36.4724 34.3943ZM46.3458 40.2543C45.9246 40.9329 45.3231 41.4793 44.6095 41.8314C43.7523 42.2623 42.8002 42.4658 41.8432 42.4228C40.226 42.3143 38.7818 41.78 37.7548 40.4428C37.406 39.983 37.2337 39.4118 37.2696 38.8343C37.3466 37.6897 37.2422 36.5401 36.9604 35.4285C36.8334 34.9469 36.8643 34.4368 37.0483 33.9743C37.1267 33.7524 37.2695 33.5593 37.4582 33.4202C37.647 33.2811 37.8729 33.2024 38.1066 33.1943C38.849 33.1084 39.5996 33.2572 40.2544 33.62C40.4826 33.7694 40.693 33.9449 40.8814 34.1428C41.1509 34.4514 41.1112 34.8257 41.0374 35.22C40.9239 35.8685 40.8048 36.5457 41.009 37.22C41.0624 37.3898 41.1269 37.5559 41.202 37.7171C41.2792 37.8796 41.4124 38.0083 41.5768 38.0792C41.7412 38.1502 41.9256 38.1586 42.0957 38.1028C42.2979 38.0664 42.4865 37.9755 42.6414 37.8396C42.7963 37.7037 42.9117 37.5281 42.9752 37.3314C43.0492 37.017 43.0655 36.6917 43.0235 36.3714C42.8078 35.3586 42.2454 34.4545 41.4346 33.8171C40.7424 33.2171 40.016 32.6114 39.3351 31.9857C38.2286 30.9514 37.4342 29.7343 37.2299 28.1714C37.192 27.2589 37.2071 26.345 37.2753 25.4343C37.4696 24.1228 38.0216 22.8913 38.8698 21.8771C39.2877 21.3967 39.8284 21.041 40.4331 20.8485C41.1569 20.6673 41.9003 20.5781 42.6461 20.5828C43.6634 20.7039 44.6331 21.0845 45.4635 21.6885C46.4451 22.4257 46.7799 23.4914 46.9218 24.6228C46.9899 25.26 47.0296 25.8914 47.1034 26.5028C47.0438 27.1657 46.9672 27.7971 46.8877 28.4257C46.8197 28.9114 46.6523 29.1028 46.1699 29.1514C45.3852 29.3 44.5799 29.3 43.7952 29.1514C43.4037 29.0771 43.2902 28.9571 43.2618 28.5057C43.1965 27.7485 43.1597 27 43.0859 26.2714C43.1102 25.9078 43.01 25.5468 42.8022 25.2485C42.6659 25.082 42.4943 24.9482 42.3 24.8571C42.1893 24.8285 41.9482 24.8571 41.8914 24.9571C41.6858 25.1737 41.5358 25.4375 41.4545 25.7257C41.1509 27.3285 41.5226 28.7 42.8277 29.76C43.4831 30.2885 44.1498 30.7628 44.774 31.2828C45.5353 31.9494 46.14 32.7779 46.5444 33.7085C46.9168 34.5099 47.1665 35.3633 47.285 36.24C47.4844 37.6494 47.1491 39.0827 46.3458 40.2543ZM54.971 39.2771C54.8925 39.583 54.7264 39.8587 54.4933 40.0701C54.2601 40.2815 53.9704 40.4191 53.6602 40.4657C52.1982 40.7083 50.6984 40.5524 49.3164 40.0143C48.8005 39.8514 48.3686 39.4913 48.1134 39.0114C48.0709 38.9428 48.0113 38.8371 48.0255 38.7828C48.0338 38.5113 48.0566 38.2405 48.0936 37.9714C48.2791 37.0563 48.2568 36.1108 48.0283 35.2057C47.7378 33.9566 47.2977 32.7478 46.7175 31.6057C46.6699 31.4784 46.653 31.3416 46.6683 31.2064C46.6836 31.0713 46.7306 30.9418 46.8055 30.8285C47.0012 30.5285 47.2197 30.2571 47.4155 29.9571C47.9267 29.3072 48.2011 28.5004 48.1929 27.6714C48.1929 27.3457 48.139 26.9771 48.3915 26.6914C48.7056 26.3276 49.1343 26.0835 49.6058 26C50.3057 25.8458 51.0131 25.7285 51.7252 25.6485C52.2374 25.6332 52.7499 25.6618 53.2573 25.7343C53.5317 25.7625 53.8045 25.8054 54.0744 25.8628C54.3163 25.9258 54.5297 26.0699 54.6793 26.2715C54.8289 26.473 54.9058 26.7199 54.8972 26.9714C54.8972 27.2571 54.9454 27.5743 54.9624 27.8457C54.9284 28.1914 54.9312 28.5171 54.8717 28.8543C54.8653 29.0082 54.8281 29.1593 54.7623 29.2985C54.6964 29.4376 54.6033 29.5619 54.4886 29.6638C54.3738 29.7658 54.2397 29.8433 54.0944 29.8917C53.9492 29.9402 53.7957 29.9585 53.6431 29.9457C52.9999 29.9567 52.3581 30.012 51.7224 30.1114C51.6665 30.1145 51.6118 30.1291 51.5617 30.1543C51.5116 30.1795 51.4672 30.2146 51.431 30.2577C51.3949 30.3008 51.3679 30.3508 51.3516 30.4047C51.3354 30.4587 51.3302 30.5154 51.3365 30.5714C51.3564 31.0485 51.3365 31.3143 51.9805 31.3628C52.3778 31.4114 52.7494 31.4514 53.141 31.5257C53.6148 31.6228 53.7283 31.7428 53.751 32.22C53.7737 32.6971 53.785 33.0771 53.785 33.5314C53.8018 33.7477 53.7346 33.9621 53.5975 34.1294C53.4605 34.2968 53.2642 34.404 53.0502 34.4285L51.9323 34.6628C51.888 34.6644 51.8446 34.6753 51.8048 34.6949C51.765 34.7145 51.7298 34.7423 51.7014 34.7766C51.673 34.8108 51.6521 34.8507 51.6401 34.8936C51.6281 34.9366 51.6252 34.9815 51.6316 35.0257C51.6216 35.2402 51.6436 35.4549 51.6968 35.6628C51.7309 35.76 51.8671 35.9143 51.9805 35.9171C52.5707 36.0171 53.1608 36.1143 53.7595 36.1857C54.027 36.1937 54.2842 36.2918 54.4899 36.4642C54.6956 36.6367 54.838 36.8736 54.8944 37.1371C55.128 37.8274 55.1546 38.5717 54.971 39.2771Z" fill="#2B58A5"/>
<path d="M3.97232 21.8085C3.70641 21.9496 3.49256 22.1729 3.36232 22.4457C3.30797 22.505 3.27099 22.5783 3.25546 22.6575C3.23994 22.7366 3.24648 22.8186 3.27437 22.8942C3.36678 23.1493 3.47872 23.3967 3.60916 23.6342C3.70905 23.7773 3.7691 23.9447 3.78306 24.1191C3.79703 24.2934 3.76442 24.4683 3.6886 24.6257C3.56944 24.86 3.48432 25.0714 3.36232 25.3057C3.34882 25.3343 3.32857 25.3591 3.30335 25.378C3.27813 25.397 3.2487 25.4094 3.21762 25.4142C3.03888 25.4142 2.98214 25.5285 2.9339 25.6685C2.88938 25.801 2.87645 25.9423 2.89617 26.0807C2.91588 26.2192 2.96769 26.3511 3.04739 26.4657C3.15521 26.6142 3.29139 26.6514 3.39637 26.4657C3.45459 26.3172 3.48629 26.1595 3.49 26C3.45362 25.547 3.59293 25.0974 3.87869 24.7457C4.01434 24.5907 4.09671 24.3958 4.11358 24.1899C4.13045 23.984 4.08091 23.7781 3.97232 23.6028C3.93811 23.5267 3.92916 23.4416 3.94679 23.36C4.0546 23.0742 4.19079 22.7742 4.2986 22.4771C4.34906 22.2911 4.37012 22.0983 4.36102 21.9057C4.34812 21.8677 4.32597 21.8336 4.29661 21.8065C4.26725 21.7794 4.23161 21.7601 4.19295 21.7505C4.15428 21.7408 4.11383 21.7411 4.07529 21.7512C4.03675 21.7613 4.00135 21.7811 3.97232 21.8085Z" fill="#2B58A5"/>
<path d="M57.0763 17.0199C57.2522 16.9199 57.2408 16.7342 57.2011 16.5514C57.1814 16.4647 57.1427 16.3837 57.0876 16.3142C57.0025 15.9657 56.9117 15.6457 56.8266 15.2999C56.7689 14.8916 56.7989 14.4756 56.9146 14.0799C56.9997 13.7485 56.7897 13.5457 56.4663 13.5457C56.3775 13.5571 56.2931 13.5914 56.2212 13.6453C56.1494 13.6991 56.0925 13.7706 56.056 13.8529C56.0195 13.9353 56.0047 14.0257 56.013 14.1155C56.0212 14.2053 56.0523 14.2914 56.1031 14.3657C56.1932 14.519 56.2583 14.6859 56.296 14.8599C56.4334 15.369 56.4634 15.9014 56.384 16.4228C56.3983 16.5098 56.3983 16.5986 56.384 16.6857C56.3684 16.7706 56.3856 16.8584 56.4319 16.9311C56.4783 17.0038 56.5504 17.056 56.6337 17.0771C56.7835 17.0885 56.9341 17.0691 57.0763 17.0199Z" fill="#2B58A5"/>
<path d="M57.2803 33.0686C57.1423 32.941 57.0361 32.7824 56.9706 32.6056C56.905 32.4288 56.8818 32.239 56.903 32.0515C56.903 31.9057 56.886 31.7657 56.6874 31.7657C56.4888 31.7657 56.4235 31.8715 56.4036 32.0515C56.3919 32.2751 56.412 32.4993 56.4632 32.7172C56.5381 32.9951 56.633 33.2673 56.7469 33.5315C56.7923 33.6915 56.8576 33.8857 57.0732 33.8543C57.2888 33.8229 57.3995 33.6172 57.4506 33.4229C57.4526 33.3544 57.4382 33.2864 57.4085 33.2247C57.3789 33.1631 57.3349 33.1095 57.2803 33.0686Z" fill="#2B58A5"/>
<path d="M5.5099 21.4514C5.68013 21.4514 5.81348 21.2942 5.8305 21.1228C5.8305 20.8857 5.73971 20.8028 5.54678 20.7771C5.4566 20.7739 5.36838 20.8041 5.29884 20.8621C5.2293 20.92 5.18326 21.0016 5.16943 21.0914C5.1785 21.1809 5.21686 21.2649 5.2785 21.33C5.34013 21.3952 5.42154 21.4379 5.5099 21.4514Z" fill="#2B58A5"/>
<path d="M25.7362 17.5428C26.003 17.5635 26.2712 17.5559 26.5363 17.52C26.9619 17.4571 27.047 17.3628 27.0726 16.9257C27.0854 16.8472 27.0854 16.767 27.0726 16.6885C27.0924 16.1628 27.1066 15.6657 27.1548 15.1457C27.257 14.3142 26.8938 13.6857 26.2696 13.1657C26.0767 12.9942 25.898 13.0057 25.7022 13.22C25.6182 13.3158 25.5605 13.432 25.5348 13.5571C25.2681 14.3428 25.2284 15.16 25.1943 16.1857C25.2255 16.4 25.2397 16.7885 25.3107 17.1914C25.334 17.2886 25.3882 17.3755 25.465 17.4389C25.5418 17.5023 25.637 17.5388 25.7362 17.5428Z" fill="#2B58A5"/>
<path d="M36.342 16.18C36.8721 16.491 37.4903 16.6147 38.0982 16.5314C38.3289 16.5326 38.5565 16.4788 38.7626 16.3746C38.9687 16.2703 39.1474 16.1185 39.2842 15.9314C39.3414 15.8516 39.3745 15.7568 39.3795 15.6585C39.3845 15.5602 39.3613 15.4625 39.3125 15.3772C39.2552 15.4365 39.1915 15.4893 39.1224 15.5343C38.8944 15.6755 38.6564 15.7997 38.4103 15.9057C38.1164 15.9692 37.8129 15.9731 37.5174 15.9175C37.2219 15.8618 36.9404 15.7476 36.6891 15.5815C36.4378 15.4154 36.2218 15.2006 36.0536 14.9497C35.8854 14.6989 35.7684 14.4168 35.7093 14.12C35.6693 13.7885 35.7291 13.4525 35.8808 13.1555C36.0326 12.8586 36.2693 12.6143 36.5604 12.4543C37.0882 12.1229 37.5478 12.1686 38.1408 12.58C38.302 12.6879 38.4295 12.8397 38.5084 13.0178C38.5873 13.1959 38.6143 13.3928 38.5862 13.5857C38.5438 13.7585 38.454 13.9157 38.3271 14.0395C38.2001 14.1633 38.0412 14.2486 37.8684 14.2857C37.7849 14.3223 37.6933 14.3358 37.6029 14.3248C37.5125 14.3137 37.4267 14.2786 37.3544 14.2229C37.2821 14.1673 37.2258 14.0931 37.1915 14.0082C37.1571 13.9233 37.146 13.8307 37.1591 13.74C37.219 13.5273 37.3028 13.3222 37.4088 13.1286C37.4315 13.0457 37.474 12.9972 37.4967 12.9143C37.4542 12.8457 37.3038 12.8629 37.2414 12.8772C36.2938 13.2429 36.6058 14.5086 37.2073 14.7886C37.496 14.9546 37.8334 15.0133 38.1606 14.9543C38.8728 14.82 39.6331 14.0486 39.426 13.1629C39.3433 12.8551 39.1932 12.57 38.9868 12.3283C38.7803 12.0867 38.5227 11.8947 38.2329 11.7664C37.943 11.6381 37.6284 11.5769 37.3119 11.5872C36.9955 11.5974 36.6854 11.679 36.4044 11.8257C36.0848 12.0001 35.8024 12.236 35.5731 12.52C35.3458 12.8348 35.1959 13.1993 35.1357 13.5838C35.0756 13.9682 35.1068 14.3615 35.227 14.7314C35.2638 14.9172 35.2894 15.4857 36.342 16.18Z" fill="#2B58A5"/>
<path d="M32.1483 30.7572C30.6105 30.3457 28.9877 31.7143 29.3111 33.5772C29.4586 34.3543 30.4658 35.54 31.5326 35.62C31.8105 35.6639 32.095 35.6343 32.3581 35.5342C32.6212 35.434 32.854 35.2667 33.0335 35.0486C33.1222 34.9601 33.1858 34.8493 33.2177 34.7278C33.2496 34.6062 33.2487 34.4782 33.2151 34.3572C33.1725 34.4057 33.1385 34.4257 33.1243 34.48C33.0014 34.7126 32.8034 34.896 32.563 34.9999C32.3226 35.1038 32.0542 35.122 31.8022 35.0514C31.3394 34.9523 30.9206 34.7059 30.6077 34.3486C29.6317 33.26 30.0403 32.0943 31.0333 31.4914C31.312 31.347 31.6334 31.3093 31.9376 31.3855C32.2419 31.4617 32.5083 31.6466 32.6874 31.9057C32.757 31.9831 32.7977 32.0825 32.8023 32.1868C32.807 32.2911 32.7754 32.3938 32.7129 32.4772C32.6558 32.5735 32.5709 32.65 32.4695 32.6964C32.3681 32.7429 32.2551 32.7571 32.1455 32.7372C32.0348 32.7086 31.8078 32.6772 31.8163 32.5314C31.8249 32.3857 31.9923 32.4314 31.9724 32.2772C31.9248 32.2025 31.853 32.1467 31.7693 32.1192C31.6856 32.0916 31.595 32.0939 31.5128 32.1257C31.4121 32.147 31.3209 32.2005 31.2529 32.2783C31.1848 32.356 31.1436 32.4539 31.1354 32.5572C31.1176 32.7518 31.1604 32.9473 31.2581 33.1163C31.3557 33.2853 31.5033 33.4194 31.6802 33.5C31.9365 33.622 32.2237 33.6624 32.5035 33.616C32.7833 33.5696 33.0424 33.4384 33.2463 33.24C33.3841 33.1228 33.4884 32.9708 33.5488 32.7996C33.6091 32.6284 33.6232 32.4442 33.5896 32.2657C33.5204 31.9006 33.3474 31.5637 33.0915 31.2958C32.8356 31.028 32.5079 30.8409 32.1483 30.7572Z" fill="#2B58A5"/>
<path d="M48.2723 16.7972C48.2871 16.857 48.3138 16.9132 48.3509 16.9624C48.3879 17.0115 48.4346 17.0525 48.4879 17.0829C48.709 17.1703 48.9394 17.2316 49.1745 17.2657C49.5916 17.3486 49.6625 17.3057 49.7419 16.8857C49.8185 16.3743 49.8951 15.8629 49.9434 15.3429C50.0323 14.7146 49.981 14.0743 49.793 13.4686C49.7002 13.229 49.5709 13.0054 49.41 12.8057C49.3796 12.7599 49.3378 12.7229 49.2888 12.6984C49.2398 12.674 49.1852 12.6629 49.1306 12.6664C49.076 12.6699 49.0233 12.6877 48.9777 12.7182C48.9321 12.7487 48.8953 12.7907 48.8709 12.84C48.6931 13.0843 48.5614 13.3593 48.4822 13.6514C48.3489 14.3829 48.224 15.8572 48.224 15.8572C48.2208 16.1712 48.2369 16.4851 48.2723 16.7972Z" fill="#2B58A5"/>
<path d="M16.5691 14.68C16.3424 14.7504 16.1222 14.8403 15.9108 14.9486C15.7217 15.0546 15.5105 15.1145 15.2941 15.1234C15.0778 15.1323 14.8625 15.0901 14.6653 15C14.3208 14.9147 14.0079 14.7314 13.7639 14.4721C13.5199 14.2127 13.3552 13.8882 13.2893 13.5371C13.2215 13.3184 13.2022 13.0874 13.233 12.8604C13.2637 12.6333 13.3436 12.4159 13.467 12.2234C13.5905 12.031 13.7544 11.8682 13.9473 11.7466C14.1401 11.6251 14.3572 11.5477 14.583 11.52C14.9096 11.5031 15.2304 11.6118 15.4806 11.8239C15.7307 12.036 15.8916 12.3359 15.9307 12.6628C15.9447 12.7489 15.9409 12.8369 15.9194 12.9214C15.8979 13.0059 15.8593 13.085 15.806 13.1537C15.7527 13.2224 15.6859 13.2793 15.6097 13.3207C15.5335 13.3621 15.4496 13.3871 15.3633 13.3943C15.2342 13.415 15.102 13.3993 14.9812 13.3488C14.8605 13.2984 14.7561 13.2152 14.6795 13.1086C14.532 12.8914 14.6369 12.7114 14.7504 12.5057C14.7504 12.4514 14.8015 12.4314 14.8157 12.3743C14.8923 12.1886 14.8157 12.0486 14.6 12.0886C14.439 12.1372 14.2952 12.2314 14.1858 12.36C14.076 12.5197 14.0157 12.7086 14.0127 12.9028C14.0182 13.129 14.092 13.348 14.2243 13.5308C14.3566 13.7136 14.5411 13.8513 14.7533 13.9257C15.0499 14.04 15.3752 14.055 15.681 13.9686C15.9659 13.8728 16.21 13.6824 16.3733 13.4286C16.5231 13.2094 16.6189 12.9576 16.653 12.6938C16.687 12.43 16.6583 12.1618 16.5691 11.9114C16.5691 11.8486 16.4499 11.4686 15.8229 11.0543C15.473 10.8392 15.0666 10.7361 14.6573 10.7585C14.248 10.781 13.855 10.9279 13.5304 11.18C13.2783 11.3794 13.0697 11.629 12.9176 11.9133C12.7656 12.1975 12.6734 12.5103 12.6467 12.832C12.6201 13.1538 12.6596 13.4776 12.7629 13.7832C12.8661 14.0889 13.0308 14.3699 13.2467 14.6086C13.3781 14.7525 13.5183 14.888 13.6666 15.0143C13.9425 15.2754 14.2815 15.4593 14.6498 15.5475C15.0182 15.6357 15.4031 15.6253 15.7661 15.5171C15.9921 15.4587 16.2019 15.349 16.3794 15.1965C16.5569 15.044 16.6975 14.8527 16.7904 14.6371C16.8046 14.5714 16.6031 14.66 16.5691 14.68Z" fill="#2B58A5"/>
<path d="M23.1458 32.2857C22.9436 32.0702 22.6973 31.9015 22.4239 31.7915C22.1505 31.6815 21.8566 31.6327 21.5626 31.6486C20.459 31.7086 19.7553 32.3771 19.2929 33.3628C18.89 34.22 19.0914 35.0228 19.5766 35.8C19.7358 36.0622 19.9502 36.2861 20.2046 36.4559C20.459 36.6258 20.7473 36.7373 21.0491 36.7828C21.4321 36.8857 22.1386 36.66 22.2493 36.1286C22.0425 36.1933 21.8322 36.2458 21.6194 36.2857C21.2229 36.2885 20.8375 36.154 20.5276 35.9049C20.2177 35.6558 20.0022 35.3071 19.9171 34.9171C19.8361 34.6563 19.81 34.3814 19.8404 34.1099C19.8708 33.8383 19.9571 33.5762 20.0938 33.3401C20.2305 33.1041 20.4146 32.8993 20.6343 32.7389C20.854 32.5785 21.1044 32.466 21.3697 32.4086C21.545 32.3574 21.7294 32.3463 21.9095 32.3763C22.0896 32.4062 22.2607 32.4764 22.4103 32.5816C22.56 32.6868 22.6843 32.8244 22.7743 32.9843C22.8642 33.1442 22.9175 33.3224 22.9302 33.5057C22.9473 33.6756 22.9101 33.8466 22.8238 33.9936C22.7375 34.1406 22.6068 34.256 22.4507 34.3228C22.2973 34.3829 22.1305 34.3997 21.9684 34.3714C21.6109 34.2771 21.5825 33.9428 21.8407 33.6286C21.9173 33.56 21.9286 33.4143 21.9769 33.3428C21.9769 33.1971 21.7102 33.24 21.5768 33.2943C21.3943 33.3526 21.2266 33.4506 21.0859 33.5815C20.9452 33.7123 20.8348 33.8728 20.7626 34.0514C20.7154 34.1657 20.698 34.2902 20.7119 34.4132C20.7258 34.5362 20.7706 34.6536 20.842 34.7543C21.003 35.0393 21.2506 35.2647 21.5484 35.3974C21.8461 35.5301 22.1783 35.5631 22.4961 35.4914C22.787 35.4263 23.053 35.2779 23.2619 35.0639C23.4708 34.85 23.6138 34.5797 23.6735 34.2857C23.7888 33.9368 23.8002 33.5616 23.7064 33.2063C23.6127 32.8509 23.4178 32.531 23.1458 32.2857Z" fill="#2B58A5"/>
</svg>
