<svg width="92" height="92" viewBox="0 0 92 92" fill="none" xmlns="http://www.w3.org/2000/svg">
<g filter="url(#filter0_d_956_35407)">
<rect x="12" y="8" width="68" height="68" rx="34" fill="white"/>
<rect x="13" y="9" width="66" height="66" rx="33" stroke="#0055A5" stroke-width="2"/>
</g>
<path d="M69.7882 28.5265C69.8009 28.3844 69.8653 28.252 69.9693 28.1542C70.0733 28.0565 70.2096 28.0002 70.3523 27.9961C70.485 28.0052 70.6092 28.0646 70.6993 28.1622C70.7895 28.2599 70.8388 28.3882 70.837 28.521C70.8203 28.6602 70.7572 28.7897 70.6579 28.8889C70.5586 28.988 70.4288 29.051 70.2893 29.0678C70.2206 29.0657 70.1531 29.0499 70.0905 29.0215C70.028 28.993 69.9717 28.9524 69.9251 28.902C69.8784 28.8516 69.8423 28.7925 69.8188 28.728C69.7953 28.6635 69.7849 28.595 69.7882 28.5265Z" fill="#2B58A5"/>
<path d="M68.7641 49.325C68.7312 48.8083 68.6792 48.256 68.6737 47.7475C68.6029 47.3214 68.6601 46.8838 68.8381 46.49C69.0571 46.0936 69.2488 45.6917 69.446 45.2652C69.764 44.532 69.8984 43.7326 69.8376 42.936C69.8413 42.5327 69.7079 42.1401 69.4592 41.8223C69.2105 41.5045 68.8612 41.2803 68.4683 41.1863C67.9622 41.0895 67.4512 41.0202 66.9375 40.9785C66.7184 40.9485 66.4254 40.9785 66.3296 40.7051C66.2337 40.4318 66.4418 40.2841 66.6034 40.1584C67.2305 39.505 67.8577 38.8489 68.5204 38.2037C68.8447 37.902 69.103 37.5368 69.2793 37.1308C69.4555 36.7248 69.5458 36.2868 69.5446 35.8444C69.5692 34.4774 69.5446 33.0449 69.5172 31.678C69.4843 30.7375 69.425 29.7889 69.3392 28.832C69.2916 27.9649 69.0522 27.119 68.6381 26.3552C68.1138 25.4909 67.4298 24.7339 66.6226 24.1243C65.841 23.4511 64.8268 23.1097 63.7964 23.173C62.4135 23.2604 61.3537 23.9412 60.376 24.8433C59.664 25.5022 59.2259 26.4044 58.774 27.2464C58.6727 27.4159 58.596 27.5963 58.3961 27.5991C58.3068 27.594 58.221 27.5624 58.1497 27.5083C58.0785 27.4543 58.0251 27.3802 57.9963 27.2956C57.4467 26.3429 56.7888 25.4567 56.0355 24.6547C54.8509 23.276 53.4128 22.1365 51.799 21.2975C51.0885 20.8969 50.2873 20.6842 49.4713 20.6797C49.069 20.6891 48.6754 20.7979 48.3256 20.9964C47.9757 21.1949 47.6807 21.4768 47.4667 21.817C47.1182 22.3674 46.9287 23.0031 46.919 23.6541C46.8916 24.6082 46.8587 25.5897 46.8314 26.5438C46.8352 26.6549 46.8251 26.766 46.8012 26.8746C46.7842 26.9159 46.7585 26.9531 46.7259 26.9838C46.6934 27.0144 46.6546 27.0378 46.6123 27.0523C46.5794 27.0714 46.4671 26.9566 46.4288 26.8883C45.8427 25.576 44.9938 24.5016 43.6903 23.8209C42.9837 23.4327 42.2389 23.1347 41.3762 23.1757C40.584 23.2142 39.8078 23.4133 39.0951 23.7607C38.4365 24.0836 37.8934 24.6009 37.5396 25.2425C37.3342 25.5842 37.1754 25.967 36.9919 26.3169C36.9453 26.388 36.9042 26.4344 36.8577 26.5055C36.7847 26.4668 36.7219 26.4116 36.6742 26.3442C36.5779 26.1983 36.4737 26.0578 36.362 25.9232C35.2839 24.5983 34.0073 23.4474 32.5774 22.5114C31.3223 21.6828 29.8538 21.2346 28.3491 21.221C27.8069 21.2028 27.2688 21.3223 26.7854 21.5682C26.3727 21.8123 26.0165 22.141 25.7404 22.5326C25.4642 22.9242 25.2744 23.3698 25.1834 23.84C24.7011 25.7066 24.5345 27.6406 24.6905 29.562C24.8014 31.081 25.0349 32.5886 25.3888 34.0701C25.6216 35.0105 25.9064 35.9619 26.1583 36.9324C26.0981 36.9324 26.046 36.9324 26.0104 36.9516C25.1365 37.0656 24.2966 37.3628 23.5458 37.8237C22.802 38.2863 22.1702 38.9078 21.6958 39.6433C21.2213 40.3788 20.916 41.2102 20.8018 42.0775C20.5936 43.6058 20.4978 45.1367 20.3965 46.695C20.3102 48.0126 20.3377 49.3352 20.4786 50.6482C20.5612 51.4687 20.7049 52.282 20.9086 53.0813C21.3305 54.5431 21.9852 55.9277 22.8474 57.1821C23.3942 58.0356 24.0374 58.8235 24.7644 59.5304C25.636 60.4223 26.64 61.1747 27.7412 61.7613C28.4717 62.1388 29.2922 62.3081 30.1127 62.2506C31.1561 62.1604 32.0817 61.6711 32.9197 61.0723C33.2346 60.8454 33.3223 60.84 33.5906 61.1079C34.247 61.7448 35.1113 62.1243 36.0252 62.1768C37.4985 62.2862 38.7637 61.7121 39.892 60.8536C40.3044 60.4924 40.6915 60.1033 41.0504 59.689C41.2448 59.4867 41.4118 59.5031 41.5816 59.7164C42.2363 60.6502 43.1698 61.3535 44.2489 61.7257C45.0913 62.0656 46.022 62.1208 46.8988 61.8828C47.7756 61.6449 48.5502 61.1269 49.1043 60.408C49.3946 60.0608 49.4822 60.0553 49.8684 60.3014C50.7498 60.8866 51.6975 61.3656 52.6918 61.7285C53.5697 62.0368 54.5026 62.1579 55.4303 62.0839C56.5985 61.9236 57.7017 61.4513 58.6234 60.7169C59.1875 60.3014 59.0616 60.3506 59.5627 60.7169C60.1472 61.1733 60.8299 61.4881 61.5569 61.6366C62.2839 61.7851 63.0355 61.7632 63.7526 61.5726C64.6865 61.3676 65.4313 60.8017 66.1324 60.2057C66.576 59.812 66.9731 59.3856 67.3729 58.9481C68.1131 58.2015 68.7764 57.3828 69.3529 56.5041C69.8167 55.7869 70.0857 54.9616 70.1334 54.1092C70.1827 52.961 69.7637 51.9741 69.2598 50.9926C68.9804 50.4771 68.8116 49.9092 68.7641 49.325ZM58.5741 32.766C58.6645 32.0006 58.7494 31.257 58.8644 30.4969C59.0234 29.3328 59.3722 28.2024 59.8968 27.1507C60.2939 26.4071 60.6691 25.628 61.2825 25.0265C61.4769 24.8432 61.6908 24.6819 61.9206 24.5454C62.375 24.2343 62.8856 24.0143 63.424 23.8974C64.1521 23.7869 64.8957 23.9443 65.5162 24.3403C66.2131 24.8 66.8063 25.3996 67.2579 26.1009C68.0795 27.3393 68.3232 28.7035 68.3971 30.1361C68.4601 31.2843 68.504 32.3997 68.5396 33.5397C68.5481 33.5958 68.5425 33.6531 68.5231 33.7065C68.5505 33.7065 68.4327 35.4343 68.3479 36.29C68.3244 36.5204 68.2455 36.7418 68.1178 36.9352C68.0123 37.0903 67.8518 37.1997 67.6687 37.2414C67.0635 37.2796 66.4391 37.2824 65.8147 37.2878C65.4896 37.288 65.1651 37.2587 64.8453 37.2003C64.7618 37.1755 64.6844 37.1337 64.618 37.0773C64.5028 36.9522 64.3958 36.8198 64.2976 36.6809L64.2401 36.5798C64.2401 36.3064 64.1935 36.0029 64.1853 35.7186C64.1853 35.4917 64.1223 35.4179 63.9115 35.3878C63.7006 35.3577 63.3802 35.3605 63.1228 35.3878C63.0693 35.3792 63.0145 35.3821 62.9622 35.3965C62.91 35.4108 62.8614 35.4363 62.8198 35.471C62.7783 35.5058 62.7447 35.549 62.7213 35.5979C62.698 35.6467 62.6855 35.7 62.6846 35.7541C62.649 35.9975 62.6298 36.2763 62.5942 36.5224C62.5039 37.1757 62.2766 37.3999 61.6056 37.3616C60.9492 37.3362 60.2951 37.2677 59.6476 37.1566C59.3943 37.1187 59.1599 37.0008 58.9785 36.8203C58.7972 36.6398 58.6785 36.406 58.6398 36.1533C58.3495 34.9996 58.4454 33.8924 58.5741 32.766ZM47.6995 28.2743C47.7296 27.9435 47.7871 27.6182 47.7926 27.2819C47.7792 26.285 47.8359 25.2883 47.9624 24.2993C48.0637 23.7033 48.217 23.121 48.6744 22.6781C48.8573 22.4912 49.0758 22.3426 49.3171 22.2412C49.5583 22.1398 49.8175 22.0876 50.0792 22.0876C50.8378 22.115 51.5791 22.3211 52.2427 22.6891C53.6132 23.3963 54.8606 24.3194 55.9369 25.4229C56.9662 26.4555 57.6616 27.7726 57.9333 29.2038C58.1442 30.3329 58.0401 31.4675 57.35 32.4708C56.753 33.332 56.1094 34.1521 55.2057 34.6743L53.1957 35.8389C53.081 35.8858 52.9832 35.9663 52.9153 36.0698C52.8474 36.1732 52.8124 36.2948 52.815 36.4185C52.7972 36.6844 52.7643 36.9491 52.7164 37.2113C52.6712 37.4822 52.5255 37.7262 52.3084 37.8947C52.0278 38.1285 51.7033 38.3038 51.3539 38.4104C51.0044 38.5169 50.6371 38.5526 50.2737 38.5153C49.646 38.4438 49.0535 38.1889 48.5703 37.7827C48.4637 37.7101 48.3771 37.612 48.3182 37.4974C48.2594 37.3828 48.2302 37.2553 48.2335 37.1265C48.2526 36.8532 48.1486 36.5962 48.1404 36.3064C48.0336 35.3167 47.9295 34.3271 47.8501 33.3429C47.7707 32.3587 47.7323 31.4456 47.6666 30.5216C47.6231 30.1231 47.6067 29.7221 47.6173 29.3214C47.6064 28.9704 47.634 28.6193 47.6995 28.2743ZM36.0991 32.8945C36.1977 32.1017 36.2881 31.3335 36.4387 30.5516C36.6599 29.3119 36.9758 28.0909 37.3835 26.8992C37.6937 26.0001 38.3217 25.2449 39.1498 24.775C39.6782 24.4436 40.2601 24.2059 40.8696 24.0724C41.7086 23.9381 42.5678 24.1151 43.285 24.57C44.2489 25.1167 44.9007 25.9588 45.4429 26.8965C46.0324 27.9262 46.4069 29.0645 46.5438 30.2427C46.7054 31.3362 46.8642 32.4489 47.0258 33.537C47.1147 34.1342 47.1732 34.7355 47.2011 35.3386C47.2009 36.2223 47.146 37.1052 47.0367 37.9822C46.9108 38.8817 46.6424 38.9227 45.8181 39.0457C45.2443 39.1102 44.6675 39.1457 44.0901 39.1523C43.8387 39.1596 43.5871 39.1403 43.3397 39.0949C43.0933 39.0594 42.792 38.5837 42.792 38.324C42.7647 38.0068 42.7428 37.6596 42.74 37.348C42.7408 37.2952 42.7308 37.2429 42.7105 37.1942C42.6903 37.1455 42.6602 37.1015 42.6222 37.0648C42.5842 37.0282 42.5391 36.9997 42.4897 36.9812C42.4402 36.9626 42.3875 36.9544 42.3347 36.957C41.8555 36.957 41.3653 36.9844 40.8806 36.998C40.6806 36.998 40.5848 37.1457 40.5629 37.337C40.5163 37.7225 40.478 38.0779 40.4588 38.4689C40.4588 39.0594 40.2014 39.3355 39.6099 39.3191C38.8732 39.3191 38.1694 39.3191 37.4382 39.2808C37.1458 39.2437 36.8713 39.1196 36.6505 38.9245C36.4297 38.7295 36.2729 38.4726 36.2004 38.1873C35.9157 37.2825 35.7743 36.3389 35.7814 35.3905C35.9019 34.5977 35.9868 33.742 36.0991 32.8945ZM32.8129 52.6411V52.6958C32.8129 53.7894 32.2077 54.656 31.6299 55.55C31.2027 56.2006 30.5345 56.474 29.8389 56.7447C28.9106 57.1214 27.9083 57.2813 26.9087 57.2121C24.8192 57.0836 23.2582 56.1186 22.308 54.2678C22.0657 53.8268 21.8763 53.3588 21.7438 52.8735C21.5725 52.0927 21.4427 51.3033 21.355 50.5087C21.2838 49.8089 21.2755 49.1008 21.2317 48.4091C21.1921 47.6743 21.1921 46.9378 21.2317 46.2029C21.3248 44.7841 21.3933 43.3597 21.5987 41.9436C21.8068 40.4154 22.727 39.2999 24.0633 38.5509C24.6888 38.1567 25.3857 37.8892 26.1145 37.7635C26.8695 37.6244 27.6476 37.6785 28.376 37.9209C29.1044 38.1633 29.7594 38.586 30.2798 39.1496C31.0923 39.995 31.6462 41.0544 31.8763 42.2033C31.9393 42.504 32.0352 42.7829 32.0954 43.0809C32.1255 43.2886 32.1557 43.4937 32.2049 43.7343C32.2542 43.9748 31.5039 44.4533 31.3122 44.5544C30.7637 44.8828 30.1183 45.0113 29.4856 44.918C29.1605 44.8699 28.8399 44.7949 28.5271 44.6938C28.4135 44.6662 28.3096 44.6084 28.2262 44.5265C28.1428 44.4447 28.0831 44.342 28.0534 44.2291C27.9685 43.8108 27.8808 43.3898 27.7795 42.9988C27.7416 42.7683 27.6554 42.5484 27.5265 42.3534C27.3977 42.1584 27.2292 41.9927 27.0319 41.867C26.9305 41.8263 26.8215 41.8078 26.7123 41.813C26.6031 41.8182 26.4963 41.8469 26.3993 41.8971C26.1794 41.9683 25.9901 42.1115 25.8619 42.3035C25.7337 42.4955 25.6741 42.7251 25.6928 42.9551C25.6928 43.6632 25.6517 44.3876 25.6079 45.082C25.5641 45.7764 25.4217 46.531 25.4052 47.2336C25.3669 48.1303 25.4052 49.0461 25.4052 49.9674C25.4254 50.4344 25.4721 50.8999 25.5449 51.3617C25.6478 51.9313 25.9543 52.4442 26.4075 52.8052C26.6037 52.9707 26.8373 53.0859 27.0882 53.1409C27.339 53.196 27.5995 53.1891 27.8472 53.121C28.0948 53.0529 28.322 52.9255 28.5092 52.75C28.6964 52.5744 28.8379 52.356 28.9215 52.1135C29.0179 51.8067 29.074 51.4888 29.0885 51.1676C29.0885 50.804 28.9434 50.6482 28.5709 50.6618C28.4379 50.6497 28.3041 50.6497 28.1711 50.6618C28.1128 50.6733 28.0527 50.6721 27.9949 50.6583C27.9371 50.6444 27.883 50.6184 27.8362 50.5818C27.7895 50.5452 27.7511 50.499 27.7239 50.4463C27.6966 50.3936 27.681 50.3356 27.6782 50.2764C27.5385 49.3058 27.3824 48.3025 27.2701 47.3402C27.2576 47.235 27.2663 47.1284 27.2956 47.0265C27.3249 46.9247 27.3743 46.8297 27.4409 46.7472C27.5075 46.6647 27.5899 46.5963 27.6833 46.546C27.7767 46.4958 27.8793 46.4646 27.9849 46.4544C28.3135 46.3998 28.6312 46.3724 28.9516 46.3423C29.6828 46.2549 30.4496 46.1455 31.1862 46.0307C31.4016 45.9653 31.634 45.9857 31.8347 46.0876C32.0353 46.1895 32.1887 46.3651 32.2625 46.5775C32.5847 47.3464 32.7789 48.1627 32.8375 48.9942C33.0715 50.1998 33.0603 51.44 32.8047 52.6411H32.8129ZM31.8708 34.6305C31.5285 34.852 31.356 34.8629 31.5395 35.4507C31.5779 35.7568 31.5442 36.0676 31.4409 36.3583C31.2739 36.8805 30.8247 37.0719 30.3126 37.1785C29.9206 37.2812 29.5215 37.3552 29.1186 37.3999C28.7999 37.4193 28.48 37.4102 28.1629 37.3726C27.9394 37.3434 27.7291 37.2505 27.5572 37.105C27.3852 36.9596 27.259 36.7677 27.1935 36.5524C26.7362 35.4566 26.4588 34.2944 26.3719 33.1105C26.3035 31.9896 26.2268 30.8961 26.183 29.7807C26.161 29.3214 26.1419 28.8648 26.1282 28.3809C26.0734 27.1288 26.005 25.8685 25.9776 24.6137C25.9544 24.1387 25.9857 23.6627 26.0707 23.1948C26.1504 22.8221 26.3512 22.486 26.6419 22.2388C26.9326 21.9916 27.2968 21.8472 27.6782 21.8279C27.8194 21.8156 27.9614 21.8156 28.1027 21.8279C29.2273 21.9097 30.3202 22.2373 31.304 22.7875C32.5201 23.431 33.5758 24.3392 34.393 25.4448C35.0964 26.429 35.5331 27.5779 35.661 28.7801C35.8034 29.9474 35.661 31.1011 34.9489 32.099C34.5469 32.6617 34.0525 33.1525 33.4866 33.5507C32.9553 33.958 32.4131 34.2943 31.8708 34.6305ZM42.1293 50.6154C42.032 51.118 41.8824 51.6091 41.6829 52.0807C41.3877 52.6628 41.0326 53.2125 40.6231 53.721C40.254 54.137 39.8335 54.5044 39.3716 54.8146C38.9432 55.0906 38.451 55.2525 37.9421 55.2848C37.8407 55.2937 37.7406 55.3139 37.6436 55.3449C37.6369 55.3585 37.6334 55.3735 37.6334 55.3887C37.6334 55.4038 37.6369 55.4188 37.6436 55.4324C37.9504 55.5786 38.2965 55.6208 38.6295 55.5527C39.6099 55.3859 40.3082 54.7817 40.9435 54.101C41.0254 54.0009 41.1171 53.9093 41.2174 53.8276C41.3242 53.855 41.2886 54.101 41.2338 54.1994C40.3329 55.7714 39.0156 56.7802 37.1945 57.0317C36.7203 57.0928 36.2386 57.0139 35.8088 56.8048C34.3437 56.135 33.6317 54.872 33.199 53.3984C33.0539 52.879 33.2757 52.3732 33.4072 51.8702C33.6317 51.1375 33.8289 50.3994 34.0315 49.6312C34.2205 48.9176 34.1 48.2068 34.0014 47.5015C33.9494 47.0641 33.8618 46.6458 33.8426 46.1865C33.856 45.778 33.981 45.381 34.2041 45.0383C34.7349 44.0896 35.5214 43.3083 36.4743 42.7829C36.6441 42.6872 36.8303 42.6243 36.9891 42.5532C37.5036 42.43 38.0276 42.3504 38.5556 42.3154C39.098 42.2766 39.6378 42.42 40.0891 42.7227C40.3267 42.9411 40.5372 43.1871 40.7162 43.4554C41.264 44.1389 41.5597 44.9782 41.8117 45.812C41.9075 46.0854 42.0088 46.3588 42.0855 46.6321C42.143 46.8454 42.1403 47.0696 42.1896 47.3101C42.4353 48.4008 42.4147 49.5344 42.1293 50.6154ZM51.3499 50.0303C51.2349 50.6782 51.2239 51.3562 51.0569 51.9905C50.8637 52.9467 50.3933 53.8251 49.7041 54.5166C49.1783 55.0005 48.5703 55.375 47.8145 55.118C47.4495 54.9835 47.0945 54.8236 46.7519 54.6396C46.8751 54.9361 47.0851 55.1887 47.3544 55.3641C47.6699 55.562 48.0397 55.656 48.4117 55.633C48.7836 55.6099 49.1389 55.4709 49.4275 55.2356C50.0521 54.7548 50.5494 54.1287 50.8761 53.4121C50.9365 53.2645 51.0117 53.1235 51.1007 52.9911C51.179 53.1095 51.2209 53.2483 51.2212 53.3902C51.0734 54.1953 50.6926 54.9395 50.1258 55.5308C49.807 55.8747 49.4169 56.1451 48.9827 56.3231C48.5485 56.5011 48.0807 56.5824 47.6118 56.5615C46.9135 56.6298 45.714 56.1432 45.2266 55.8452C44.3159 55.2752 43.6167 54.4237 43.2357 53.4203C43.1453 53.2289 43.0878 53.0157 43.0056 52.7942C42.7459 52.0995 42.7285 51.3376 42.9564 50.6318C43.1532 49.8512 43.2978 49.0585 43.389 48.2588C43.4361 47.6748 43.2941 47.0911 42.9837 46.5939C42.7373 46.1346 42.499 45.6452 42.2526 45.1859C42.1681 45.0283 42.1208 44.8536 42.1141 44.675C42.1075 44.4964 42.1417 44.3187 42.2142 44.1553C42.8057 42.7883 43.6985 41.6647 45.0568 41.0332C45.5198 40.7986 46.0263 40.662 46.5446 40.632C47.063 40.602 47.5819 40.6793 48.0689 40.859C48.5559 41.0387 49.0005 41.3169 49.3747 41.6762C49.7489 42.0355 50.0447 42.4681 50.2435 42.9469C50.8343 44.4669 51.2113 46.0613 51.3636 47.6847C51.391 48.4857 51.5005 49.2512 51.3499 50.0303ZM60.8799 55.6374C60.4734 56.2868 59.8928 56.8096 59.204 57.1465C58.3766 57.5588 57.4576 57.7536 56.5339 57.7124C54.973 57.6086 53.5791 57.0973 52.5877 55.8179C52.2511 55.3779 52.0848 54.8313 52.1194 54.2787C52.1937 53.1835 52.0929 52.0835 51.8209 51.02C51.6984 50.5591 51.7282 50.0711 51.9058 49.6284C51.9815 49.4161 52.1193 49.2314 52.3015 49.0983C52.4837 48.9652 52.7017 48.8899 52.9273 48.8821C53.6439 48.8 54.3684 48.9423 55.0003 49.2894C55.2206 49.4325 55.4237 49.6003 55.6055 49.7897C55.8657 50.085 55.8274 50.4431 55.7562 50.8204C55.6466 51.441 55.5316 52.0889 55.7288 52.7341C55.7803 52.8966 55.8425 53.0555 55.915 53.2098C55.9895 53.3652 56.1181 53.4884 56.2768 53.5563C56.4355 53.6242 56.6135 53.6322 56.7776 53.5789C56.9728 53.544 57.1549 53.457 57.3044 53.327C57.4539 53.197 57.5652 53.0289 57.6266 52.8407C57.698 52.5399 57.7137 52.2286 57.6731 51.9221C57.465 50.9531 56.9221 50.0879 56.1396 49.4781C55.4714 48.904 54.7703 48.3244 54.1131 47.7257C53.045 46.736 52.2783 45.5714 52.0811 44.076C52.0445 43.2029 52.0591 42.3284 52.1249 41.457C52.3124 40.2021 52.8452 39.0238 53.6639 38.0533C54.0673 37.5937 54.5892 37.2532 55.1729 37.0691C55.8715 36.8957 56.5891 36.8103 57.3089 36.8149C58.2908 36.9307 59.2268 37.2949 60.0283 37.8729C60.9758 38.5782 61.2989 39.5979 61.4358 40.6805C61.5016 41.2902 61.5399 41.8944 61.6111 42.4794C61.5536 43.1137 61.4797 43.7179 61.403 44.3193C61.3373 44.7841 61.1757 44.9672 60.7101 45.0137C59.9527 45.1559 59.1754 45.1559 58.418 45.0137C58.0401 44.9426 57.9305 44.8278 57.9032 44.3958C57.8402 43.6714 57.8046 42.9551 57.7334 42.258C57.7568 41.9101 57.6602 41.5647 57.4595 41.2793C57.328 41.1199 57.1624 40.9919 56.9748 40.9047C56.868 40.8774 56.6352 40.9047 56.5805 41.0004C56.382 41.2076 56.2372 41.4601 56.1587 41.7358C55.8657 43.2695 56.2245 44.5817 57.4842 45.596C58.1168 46.1018 58.7603 46.5556 59.3628 47.0532C60.0976 47.6909 60.6813 48.4837 61.0716 49.3742C61.431 50.1409 61.672 50.9576 61.7864 51.7964C61.9789 53.145 61.6552 54.5165 60.8799 55.6374ZM69.205 54.7025C69.1293 54.9951 68.9689 55.259 68.7439 55.4613C68.5189 55.6635 68.2393 55.7951 67.9398 55.8397C66.5287 56.0719 65.0811 55.9227 63.7472 55.4078C63.2492 55.252 62.8324 54.9075 62.586 54.4482C62.5449 54.3826 62.4874 54.2815 62.5011 54.2295C62.5092 53.9697 62.5311 53.7105 62.5669 53.4531C62.746 52.5775 62.7244 51.6728 62.5039 50.8067C62.2235 49.6116 61.7986 48.4549 61.2387 47.3621C61.1927 47.2403 61.1764 47.1093 61.1912 46.98C61.206 46.8507 61.2513 46.7268 61.3236 46.6185C61.5125 46.3314 61.7234 46.0717 61.9123 45.7846C62.4058 45.1628 62.6706 44.3908 62.6627 43.5976C62.6627 43.2859 62.6107 42.9332 62.8544 42.6599C63.1576 42.3117 63.5714 42.0781 64.0265 41.9983C64.702 41.8507 65.3849 41.7385 66.0722 41.662C66.5665 41.6473 67.0613 41.6747 67.5509 41.744C67.8158 41.771 68.0791 41.8121 68.3396 41.867C68.5732 41.9272 68.7791 42.0652 68.9235 42.258C69.0679 42.4509 69.1421 42.6871 69.1338 42.9278C69.1338 43.2012 69.1804 43.5046 69.1968 43.7643C69.1639 44.0951 69.1667 44.4068 69.1092 44.7294C69.103 44.8767 69.0671 45.0213 69.0036 45.1544C68.94 45.2875 68.8502 45.4065 68.7394 45.504C68.6286 45.6016 68.4992 45.6757 68.359 45.7221C68.2188 45.7684 68.0706 45.786 67.9234 45.7737C67.3025 45.7842 66.683 45.8372 66.0694 45.9323C66.0155 45.9353 65.9627 45.9492 65.9144 45.9733C65.866 45.9974 65.8231 46.0311 65.7882 46.0723C65.7534 46.1135 65.7273 46.1613 65.7116 46.2129C65.6959 46.2646 65.6909 46.3188 65.697 46.3724C65.7161 46.829 65.697 47.0832 66.3186 47.1297C66.702 47.1762 67.0608 47.2144 67.4387 47.2855C67.896 47.3785 68.0055 47.4933 68.0275 47.9499C68.0494 48.4064 68.0603 48.77 68.0603 49.2047C68.0765 49.4116 68.0117 49.6168 67.8794 49.7769C67.7471 49.9371 67.5576 50.0397 67.351 50.0631L66.2721 50.2873C66.2293 50.2888 66.1874 50.2992 66.149 50.318C66.1106 50.3367 66.0766 50.3634 66.0492 50.3961C66.0218 50.4289 66.0016 50.4671 65.99 50.5081C65.9784 50.5492 65.9756 50.5923 65.9818 50.6345C65.9721 50.8397 65.9934 51.0452 66.0448 51.2441C66.0776 51.3371 66.2091 51.4847 66.3186 51.4875C66.8882 51.5831 67.4578 51.6761 68.0357 51.7444C68.2939 51.7521 68.5421 51.8459 68.7407 52.011C68.9393 52.176 69.0767 52.4027 69.1311 52.6548C69.3565 53.3153 69.3823 54.0275 69.205 54.7025Z" fill="#2B58A5"/>
<path d="M19.9802 37.9881C19.7236 38.123 19.5172 38.3368 19.3914 38.5977C19.339 38.6545 19.3033 38.7246 19.2883 38.8004C19.2733 38.8761 19.2796 38.9546 19.3066 39.027C19.3958 39.271 19.5038 39.5077 19.6297 39.735C19.7261 39.8719 19.7841 40.0321 19.7976 40.1989C19.811 40.3657 19.7796 40.5331 19.7064 40.6837C19.5914 40.9078 19.5092 41.1101 19.3914 41.3343C19.3784 41.3617 19.3589 41.3855 19.3345 41.4036C19.3102 41.4217 19.2818 41.4336 19.2518 41.4382C19.0793 41.4382 19.0245 41.5476 18.9779 41.6815C18.935 41.8083 18.9225 41.9434 18.9415 42.0759C18.9605 42.2085 19.0105 42.3346 19.0875 42.4443C19.1915 42.5864 19.323 42.622 19.4243 42.4443C19.4805 42.3022 19.5111 42.1513 19.5147 41.9986C19.4796 41.5652 19.614 41.1351 19.8899 40.7985C20.0208 40.6502 20.1003 40.4637 20.1166 40.2667C20.1329 40.0697 20.085 39.8727 19.9802 39.7049C19.9472 39.6321 19.9386 39.5507 19.9556 39.4726C20.0596 39.1992 20.1911 38.9121 20.2952 38.6278C20.3439 38.4498 20.3642 38.2653 20.3554 38.081C20.343 38.0447 20.3216 38.0121 20.2932 37.9862C20.2649 37.9602 20.2305 37.9418 20.1932 37.9325C20.1559 37.9233 20.1168 37.9235 20.0796 37.9332C20.0424 37.9429 20.0082 37.9618 19.9802 37.9881Z" fill="#2B58A5"/>
<path d="M71.237 33.4064C71.4067 33.3107 71.3958 33.133 71.3575 32.958C71.3385 32.8752 71.301 32.7976 71.2479 32.7311C71.1658 32.3976 71.0781 32.0914 70.996 31.7606C70.9403 31.3699 70.9692 30.9718 71.0809 30.5933C71.163 30.2761 70.9604 30.082 70.6482 30.082C70.5625 30.093 70.481 30.1258 70.4117 30.1773C70.3423 30.2288 70.2874 30.2973 70.2522 30.3761C70.217 30.4549 70.2027 30.5414 70.2106 30.6273C70.2186 30.7132 70.2486 30.7956 70.2977 30.8666C70.3846 31.0134 70.4475 31.173 70.4839 31.3396C70.6165 31.8267 70.6454 32.3361 70.5688 32.835C70.5826 32.9183 70.5826 33.0033 70.5688 33.0865C70.5537 33.1678 70.5703 33.2518 70.615 33.3214C70.6598 33.391 70.7294 33.4409 70.8098 33.4611C70.9544 33.472 71.0998 33.4534 71.237 33.4064Z" fill="#2B58A5"/>
<path d="M71.434 48.7623C71.3008 48.6402 71.1983 48.4884 71.1351 48.3192C71.0718 48.1501 71.0494 47.9684 71.0698 47.789C71.0698 47.6496 71.0534 47.5156 70.8617 47.5156C70.67 47.5156 70.607 47.6168 70.5878 47.789C70.5765 48.003 70.5959 48.2175 70.6454 48.426C70.7177 48.692 70.8092 48.9524 70.9192 49.2051C70.963 49.3582 71.026 49.5441 71.2341 49.5141C71.4423 49.484 71.5491 49.2872 71.5984 49.1013C71.6003 49.0357 71.5864 48.9707 71.5578 48.9117C71.5292 48.8526 71.4867 48.8014 71.434 48.7623Z" fill="#2B58A5"/>
<path d="M21.4644 37.6454C21.6287 37.6454 21.7574 37.495 21.7738 37.331C21.7738 37.1041 21.6862 37.0248 21.5 37.0002C21.4129 36.9972 21.3278 37.0261 21.2607 37.0815C21.1935 37.137 21.1491 37.215 21.1357 37.3009C21.1445 37.3866 21.1815 37.4669 21.241 37.5293C21.3005 37.5917 21.3791 37.6325 21.4644 37.6454Z" fill="#2B58A5"/>
<path d="M40.9874 33.9072C41.2449 33.927 41.5037 33.9196 41.7597 33.8853C42.1704 33.8251 42.2526 33.7349 42.2773 33.3167C42.2897 33.2415 42.2897 33.1649 42.2773 33.0897C42.2964 32.5867 42.3101 32.111 42.3567 31.6135C42.4553 30.8179 42.1047 30.2165 41.5023 29.7189C41.316 29.5549 41.1435 29.5658 40.9545 29.7708C40.8735 29.8625 40.8178 29.9737 40.793 30.0934C40.5356 30.8453 40.4972 31.6271 40.4644 32.6086C40.4945 32.8136 40.5082 33.1854 40.5766 33.5709C40.5992 33.6639 40.6515 33.747 40.7256 33.8077C40.7997 33.8684 40.8916 33.9033 40.9874 33.9072Z" fill="#2B58A5"/>
<path d="M51.2238 32.6028C51.7355 32.9003 52.3321 33.0187 52.9189 32.939C53.1415 32.9401 53.3613 32.8887 53.5602 32.7889C53.7591 32.6891 53.9316 32.5439 54.0636 32.3649C54.1188 32.2885 54.1508 32.1978 54.1557 32.1038C54.1605 32.0097 54.1381 31.9162 54.091 31.8345C54.0357 31.8914 53.9741 31.9418 53.9075 31.9849C53.6875 32.1201 53.4577 32.2388 53.2202 32.3403C52.9365 32.401 52.6435 32.4048 52.3583 32.3515C52.0731 32.2983 51.8014 32.189 51.5588 32.03C51.3163 31.8711 51.1078 31.6656 50.9454 31.4256C50.7831 31.1855 50.6701 30.9156 50.6131 30.6316C50.5745 30.3144 50.6322 29.9929 50.7787 29.7088C50.9252 29.4246 51.1537 29.1909 51.4347 29.0378C51.944 28.7207 52.3877 28.7644 52.96 29.1581C53.1157 29.2613 53.2387 29.4066 53.3149 29.577C53.391 29.7474 53.417 29.9358 53.39 30.1204C53.349 30.2857 53.2623 30.4361 53.1398 30.5546C53.0173 30.673 52.8639 30.7547 52.6971 30.7902C52.6166 30.8252 52.5281 30.8381 52.4409 30.8276C52.3536 30.817 52.2708 30.7833 52.201 30.7301C52.1312 30.6768 52.0769 30.6059 52.0437 30.5247C52.0106 30.4434 51.9998 30.3548 52.0125 30.268C52.0703 30.0645 52.1512 29.8683 52.2535 29.683C52.2754 29.6037 52.3165 29.5572 52.3384 29.478C52.2973 29.4123 52.1521 29.4288 52.0919 29.4424C51.1772 29.7924 51.4785 31.0034 52.059 31.2714C52.3377 31.4302 52.6633 31.4863 52.9792 31.4299C53.6665 31.3014 54.4005 30.5633 54.2006 29.7158C54.1207 29.4214 53.9759 29.1485 53.7766 28.9173C53.5773 28.686 53.3286 28.5023 53.0489 28.3796C52.7691 28.2569 52.4654 28.1983 52.16 28.2081C51.8546 28.2179 51.5553 28.2959 51.284 28.4364C50.9756 28.6032 50.7029 28.8289 50.4817 29.1007C50.2623 29.4019 50.1176 29.7507 50.0595 30.1185C50.0014 30.4864 50.0316 30.8627 50.1476 31.2167C50.1832 31.3944 50.2078 31.9384 51.2238 32.6028Z" fill="#2B58A5"/>
<path d="M47.1763 46.5507C45.6921 46.1571 44.1256 47.4666 44.4378 49.2491C44.5802 49.9927 45.5524 51.1272 46.5821 51.2038C46.8503 51.2458 47.1249 51.2175 47.3788 51.1216C47.6328 51.0258 47.8575 50.8656 48.0308 50.657C48.1164 50.5723 48.1777 50.4663 48.2086 50.35C48.2394 50.2337 48.2385 50.1113 48.206 49.9954C48.1649 50.0419 48.1321 50.061 48.1184 50.113C47.9998 50.3355 47.8087 50.511 47.5766 50.6104C47.3446 50.7098 47.0855 50.7272 46.8422 50.6597C46.3956 50.5649 45.9914 50.3291 45.6893 49.9872C44.7473 48.9456 45.1416 47.8302 46.1001 47.2533C46.3692 47.1151 46.6793 47.0791 46.973 47.152C47.2667 47.2249 47.5238 47.4018 47.6967 47.6498C47.7639 47.7238 47.8031 47.8189 47.8076 47.9187C47.8121 48.0185 47.7816 48.1168 47.7213 48.1965C47.6662 48.2887 47.5842 48.3619 47.4864 48.4063C47.3885 48.4508 47.2794 48.4644 47.1736 48.4453C47.0668 48.418 46.8477 48.3879 46.8559 48.2485C46.8641 48.109 47.0257 48.1528 47.0065 48.0052C46.9606 47.9338 46.8913 47.8804 46.8105 47.854C46.7297 47.8276 46.6423 47.8298 46.5629 47.8603C46.4657 47.8806 46.3777 47.9318 46.312 48.0062C46.2464 48.0806 46.2066 48.1742 46.1987 48.2731C46.1815 48.4594 46.2228 48.6464 46.3171 48.8081C46.4113 48.9698 46.5537 49.0981 46.7245 49.1752C46.9719 49.292 47.2491 49.3307 47.5192 49.2862C47.7892 49.2418 48.0393 49.1163 48.2361 48.9265C48.3691 48.8143 48.4699 48.6689 48.5281 48.5051C48.5863 48.3413 48.5999 48.165 48.5675 47.9942C48.5007 47.6449 48.3337 47.3225 48.0867 47.0662C47.8397 46.8099 47.5234 46.6308 47.1763 46.5507Z" fill="#2B58A5"/>
<path d="M62.7393 33.1914C62.7536 33.2487 62.7794 33.3025 62.8152 33.3495C62.851 33.3965 62.896 33.4357 62.9474 33.4648C63.1609 33.5484 63.3832 33.6071 63.6102 33.6397C64.0127 33.719 64.0812 33.678 64.1579 33.2761C64.2318 32.7868 64.3058 32.2974 64.3523 31.7999C64.4382 31.1987 64.3886 30.586 64.2072 30.0064C64.1175 29.7772 63.9928 29.5632 63.8375 29.3722C63.8082 29.3283 63.7678 29.2929 63.7205 29.2695C63.6732 29.2461 63.6205 29.2356 63.5678 29.2389C63.5151 29.2422 63.4642 29.2593 63.4202 29.2885C63.3762 29.3176 63.3407 29.3578 63.3171 29.405C63.1455 29.6387 63.0184 29.9019 62.942 30.1814C62.8133 30.8813 62.6928 32.2919 62.6928 32.2919C62.6897 32.5924 62.7052 32.8928 62.7393 33.1914Z" fill="#2B58A5"/>
<path d="M32.1391 31.1692C31.9204 31.2366 31.7078 31.3226 31.5038 31.4262C31.3212 31.5276 31.1173 31.585 30.9086 31.5935C30.6998 31.602 30.4919 31.5616 30.3016 31.4754C29.9691 31.3938 29.6671 31.2184 29.4316 30.9703C29.1961 30.7221 29.037 30.4116 28.9734 30.0757C28.908 29.8664 28.8894 29.6453 28.9191 29.4281C28.9487 29.2109 29.0258 29.0028 29.145 28.8187C29.2641 28.6345 29.4224 28.4787 29.6085 28.3624C29.7947 28.2461 30.0042 28.1721 30.2222 28.1456C30.5374 28.1295 30.847 28.2334 31.0885 28.4364C31.3299 28.6393 31.4852 28.9262 31.523 29.2391C31.5365 29.3214 31.5328 29.4057 31.5121 29.4865C31.4914 29.5673 31.4541 29.643 31.4026 29.7088C31.3512 29.7745 31.2867 29.8289 31.2131 29.8685C31.1395 29.9082 31.0586 29.9321 30.9753 29.939C30.8507 29.9588 30.723 29.9438 30.6065 29.8955C30.49 29.8472 30.3892 29.7676 30.3153 29.6656C30.1729 29.4578 30.2742 29.2856 30.3837 29.0887C30.3837 29.0368 30.433 29.0177 30.4467 28.963C30.5207 28.7853 30.4467 28.6513 30.2386 28.6896C30.0831 28.7361 29.9444 28.8263 29.8388 28.9493C29.7328 29.1021 29.6746 29.2829 29.6717 29.4687C29.677 29.6851 29.7482 29.8947 29.8759 30.0696C30.0036 30.2445 30.1817 30.3763 30.3865 30.4475C30.6728 30.5568 30.9868 30.5712 31.282 30.4885C31.5569 30.3968 31.7925 30.2146 31.9502 29.9718C32.0947 29.7621 32.1873 29.5211 32.2201 29.2687C32.253 29.0163 32.2252 28.7597 32.1391 28.5201C32.1391 28.46 32.0241 28.0964 31.4189 27.6999C31.0812 27.4941 30.6889 27.3955 30.2938 27.417C29.8988 27.4384 29.5195 27.579 29.2062 27.8202C28.9628 28.011 28.7615 28.2499 28.6147 28.5219C28.4679 28.7938 28.3789 29.0931 28.3532 29.401C28.3275 29.7088 28.3657 30.0187 28.4653 30.3112C28.565 30.6036 28.724 30.8725 28.9323 31.1009C29.0591 31.2386 29.1945 31.3683 29.3376 31.4891C29.6039 31.739 29.9311 31.9149 30.2866 31.9993C30.6422 32.0837 31.0137 32.0737 31.3641 31.9702C31.5823 31.9143 31.7847 31.8094 31.9561 31.6634C32.1274 31.5175 32.2631 31.3344 32.3527 31.1282C32.3664 31.0653 32.172 31.1501 32.1391 31.1692Z" fill="#2B58A5"/>
<path d="M38.487 48.0148C38.2918 47.8086 38.0541 47.6472 37.7902 47.5419C37.5263 47.4367 37.2426 47.39 36.9589 47.4051C35.8936 47.4626 35.2144 48.1023 34.7681 49.0455C34.3792 49.8656 34.5736 50.6338 35.0419 51.3774C35.1956 51.6284 35.4025 51.8426 35.648 52.0051C35.8936 52.1676 36.1718 52.2743 36.4632 52.3179C36.8329 52.4163 37.5148 52.2003 37.6216 51.6918C37.4221 51.7538 37.2191 51.804 37.0136 51.8422C36.6309 51.8448 36.2589 51.7162 35.9598 51.4778C35.6607 51.2395 35.4527 50.9058 35.3705 50.5327C35.2923 50.2831 35.2671 50.02 35.2965 49.7602C35.3259 49.5004 35.4092 49.2496 35.5411 49.0237C35.6731 48.7978 35.8507 48.6019 36.0628 48.4484C36.2748 48.295 36.5166 48.1873 36.7727 48.1323C36.9418 48.0834 37.1199 48.0728 37.2937 48.1015C37.4675 48.1301 37.6326 48.1972 37.7771 48.2979C37.9215 48.3986 38.0415 48.5302 38.1284 48.6832C38.2152 48.8362 38.2666 49.0067 38.2788 49.1821C38.2954 49.3447 38.2594 49.5083 38.1761 49.649C38.0929 49.7897 37.9667 49.9001 37.816 49.964C37.668 50.0215 37.507 50.0376 37.3505 50.0105C37.0054 49.9203 36.978 49.6004 37.2272 49.2997C37.3012 49.2341 37.3121 49.0947 37.3587 49.0263C37.3587 48.8869 37.1013 48.9279 36.9726 48.9798C36.7963 49.0356 36.6346 49.1294 36.4987 49.2547C36.3629 49.3799 36.2563 49.5334 36.1866 49.7043C36.1411 49.8137 36.1243 49.9328 36.1377 50.0505C36.1511 50.1682 36.1943 50.2805 36.2633 50.3768C36.4187 50.6495 36.6577 50.8653 36.9451 50.9922C37.2325 51.1192 37.5531 51.1507 37.8598 51.0822C38.1406 51.0199 38.3973 50.8778 38.599 50.6731C38.8007 50.4684 38.9387 50.2098 38.9963 49.9285C39.1075 49.5947 39.1186 49.2357 39.0281 48.8957C38.9376 48.5556 38.7495 48.2495 38.487 48.0148Z" fill="#2B58A5"/>
<defs>
<filter id="filter0_d_956_35407" x="0" y="0" width="92" height="92" filterUnits="userSpaceOnUse" color-interpolation-filters="sRGB">
<feFlood flood-opacity="0" result="BackgroundImageFix"/>
<feColorMatrix in="SourceAlpha" type="matrix" values="0 0 0 0 0 0 0 0 0 0 0 0 0 0 0 0 0 0 127 0" result="hardAlpha"/>
<feOffset dy="4"/>
<feGaussianBlur stdDeviation="6"/>
<feComposite in2="hardAlpha" operator="out"/>
<feColorMatrix type="matrix" values="0 0 0 0 0 0 0 0 0 0 0 0 0 0 0 0 0 0 0.2 0"/>
<feBlend mode="normal" in2="BackgroundImageFix" result="effect1_dropShadow_956_35407"/>
<feBlend mode="normal" in="SourceGraphic" in2="effect1_dropShadow_956_35407" result="shape"/>
</filter>
</defs>
</svg>
