<svg width="92" height="92" viewBox="0 0 92 92" fill="none" xmlns="http://www.w3.org/2000/svg">
<g filter="url(#filter0_d_1007_643)">
<rect x="12" y="8" width="68" height="68" rx="34" fill="white"/>
<rect x="13" y="9" width="66" height="66" rx="33" stroke="#0055A5" stroke-width="2"/>
</g>
<path d="M69.7887 28.5265C69.8014 28.3844 69.8658 28.252 69.9698 28.1542C70.0738 28.0565 70.21 28.0002 70.3528 27.9961C70.4855 28.0052 70.6097 28.0646 70.6998 28.1622C70.79 28.2599 70.8392 28.3882 70.8375 28.521C70.8208 28.6602 70.7577 28.7897 70.6583 28.8889C70.559 28.988 70.4293 29.051 70.2898 29.0678C70.2211 29.0657 70.1535 29.0499 70.091 29.0215C70.0285 28.993 69.9722 28.9524 69.9256 28.902C69.8789 28.8516 69.8428 28.7925 69.8193 28.728C69.7958 28.6635 69.7854 28.595 69.7887 28.5265V28.5265Z" fill="#2B58A5"/>
<path d="M68.7644 49.325C68.7315 48.8083 68.6795 48.256 68.674 47.7475C68.6031 47.3214 68.6603 46.8838 68.8383 46.49C69.0574 46.0936 69.2491 45.6917 69.4462 45.2652C69.7643 44.532 69.8987 43.7326 69.8379 42.936C69.8415 42.5327 69.7081 42.1401 69.4594 41.8223C69.2107 41.5045 68.8614 41.2803 68.4686 41.1863C67.9624 41.0895 67.4514 41.0202 66.9378 40.9785C66.7187 40.9485 66.4257 40.9785 66.3298 40.7051C66.234 40.4318 66.4421 40.2841 66.6037 40.1584C67.2308 39.505 67.8579 38.8489 68.5206 38.2037C68.8449 37.902 69.1033 37.5368 69.2795 37.1308C69.4558 36.7248 69.5461 36.2868 69.5448 35.8444C69.5695 34.4774 69.5448 33.0449 69.5174 31.678C69.4846 30.7375 69.4253 29.7889 69.3394 28.832C69.2918 27.9649 69.0524 27.119 68.6384 26.3552C68.114 25.4909 67.4301 24.7339 66.6228 24.1243C65.8413 23.4511 64.827 23.1097 63.7967 23.173C62.4137 23.2604 61.3539 23.9412 60.3763 24.8433C59.6643 25.5022 59.2261 26.4044 58.7743 27.2464C58.6729 27.4159 58.5963 27.5963 58.3963 27.5991C58.307 27.594 58.2212 27.5624 58.15 27.5083C58.0787 27.4543 58.0253 27.3802 57.9965 27.2956C57.447 26.3429 56.789 25.4567 56.0357 24.6547C54.8511 23.276 53.4131 22.1365 51.7993 21.2975C51.0888 20.8969 50.2875 20.6842 49.4715 20.6797C49.0693 20.6891 48.6756 20.7979 48.3258 20.9964C47.976 21.1949 47.6809 21.4768 47.4669 21.817C47.1185 22.3674 46.929 23.0031 46.9192 23.6541C46.8918 24.6082 46.859 25.5897 46.8316 26.5438C46.8354 26.6549 46.8253 26.766 46.8015 26.8746C46.7844 26.9159 46.7588 26.9531 46.7262 26.9838C46.6936 27.0144 46.6549 27.0378 46.6125 27.0523C46.5797 27.0714 46.4674 26.9566 46.429 26.8883C45.843 25.576 44.9941 24.5016 43.6905 23.8209C42.984 23.4327 42.2391 23.1347 41.3765 23.1757C40.5842 23.2142 39.8081 23.4133 39.0953 23.7607C38.4367 24.0836 37.8937 24.6009 37.5398 25.2425C37.3344 25.5842 37.1756 25.967 36.9921 26.3169C36.9456 26.388 36.9045 26.4344 36.8579 26.5055C36.785 26.4668 36.7221 26.4116 36.6744 26.3442C36.5781 26.1983 36.4739 26.0578 36.3623 25.9232C35.2841 24.5983 34.0076 23.4474 32.5776 22.5114C31.3225 21.6828 29.854 21.2346 28.3494 21.221C27.8071 21.2028 27.2691 21.3223 26.7857 21.5682C26.3729 21.8123 26.0167 22.141 25.7406 22.5326C25.4645 22.9242 25.2746 23.3698 25.1836 23.84C24.7014 25.7066 24.5348 27.6406 24.6907 29.562C24.8016 31.081 25.0352 32.5886 25.389 34.0701C25.6218 35.0105 25.9066 35.9619 26.1586 36.9324C26.0983 36.9324 26.0463 36.9324 26.0107 36.9516C25.1367 37.0656 24.2968 37.3628 23.546 37.8237C22.8023 38.2863 22.1705 38.9078 21.696 39.6433C21.2215 40.3788 20.9162 41.2102 20.802 42.0775C20.5939 43.6058 20.498 45.1367 20.3967 46.695C20.3105 48.0126 20.338 49.3352 20.4789 50.6482C20.5615 51.4687 20.7052 52.282 20.9088 53.0813C21.3308 54.5431 21.9854 55.9277 22.8477 57.1821C23.3945 58.0356 24.0377 58.8235 24.7647 59.5304C25.6362 60.4223 26.6403 61.1747 27.7414 61.7613C28.4719 62.1388 29.2924 62.3081 30.113 62.2506C31.1563 62.1604 32.082 61.6711 32.9199 61.0723C33.2349 60.8454 33.3225 60.84 33.5909 61.1079C34.2473 61.7448 35.1116 62.1243 36.0254 62.1768C37.4987 62.2862 38.7639 61.7121 39.8922 60.8536C40.3046 60.4924 40.6917 60.1033 41.0506 59.689C41.245 59.4867 41.4121 59.5031 41.5819 59.7163C42.2365 60.6502 43.1701 61.3535 44.2492 61.7257C45.0916 62.0656 46.0223 62.1208 46.8991 61.8828C47.7758 61.6449 48.5505 61.1269 49.1046 60.408C49.3948 60.0608 49.4825 60.0553 49.8686 60.3014C50.7501 60.8866 51.6978 61.3656 52.692 61.7285C53.5699 62.0368 54.5028 62.1579 55.4305 62.0839C56.5988 61.9236 57.702 61.4513 58.6236 60.7169C59.1878 60.3014 59.0618 60.3506 59.5629 60.7169C60.1475 61.1733 60.8301 61.4881 61.5571 61.6366C62.2841 61.7851 63.0358 61.7632 63.7529 61.5726C64.6867 61.3676 65.4316 60.8017 66.1326 60.2057C66.5763 59.812 66.9734 59.3856 67.3732 58.9481C68.1133 58.2015 68.7766 57.3828 69.3531 56.5041C69.817 55.7869 70.0859 54.9616 70.1336 54.1092C70.1829 52.961 69.7639 51.9741 69.26 50.9926C68.9806 50.4771 68.8118 49.9092 68.7644 49.325V49.325ZM58.5743 32.766C58.6647 32.0006 58.7496 31.257 58.8646 30.4969C59.0237 29.3328 59.3724 28.2024 59.897 27.1507C60.2941 26.4071 60.6693 25.628 61.2827 25.0265C61.4771 24.8432 61.6911 24.6819 61.9208 24.5454C62.3752 24.2343 62.8858 24.0143 63.4243 23.8974C64.1524 23.7869 64.8959 23.9443 65.5165 24.3403C66.2133 24.8 66.8065 25.3996 67.2582 26.1009C68.0797 27.3393 68.3235 28.7035 68.3974 30.1361C68.4604 31.2843 68.5042 32.3997 68.5398 33.5397C68.5484 33.5958 68.5427 33.6531 68.5234 33.7065C68.5507 33.7065 68.433 35.4343 68.3481 36.29C68.3247 36.5204 68.2458 36.7418 68.1181 36.9352C68.0126 37.0903 67.8521 37.1997 67.6689 37.2414C67.0637 37.2796 66.4394 37.2824 65.815 37.2878C65.4898 37.288 65.1654 37.2587 64.8455 37.2004C64.762 37.1755 64.6846 37.1337 64.6182 37.0773C64.503 36.9522 64.396 36.8198 64.2978 36.6809L64.2403 36.5798C64.2403 36.3064 64.1938 36.0029 64.1856 35.7186C64.1856 35.4917 64.1226 35.4179 63.9117 35.3878C63.7008 35.3577 63.3804 35.3605 63.123 35.3878C63.0695 35.3792 63.0147 35.3821 62.9625 35.3965C62.9102 35.4108 62.8616 35.4363 62.8201 35.471C62.7785 35.5058 62.7449 35.549 62.7216 35.5979C62.6983 35.6467 62.6857 35.7 62.6849 35.7541C62.6493 35.9975 62.6301 36.2763 62.5945 36.5224C62.5041 37.1757 62.2768 37.3999 61.6059 37.3616C60.9494 37.3362 60.2953 37.2677 59.6478 37.1566C59.3946 37.1187 59.1601 37.0008 58.9788 36.8203C58.7974 36.6398 58.6787 36.406 58.6401 36.1533C58.3498 34.9996 58.4456 33.8924 58.5743 32.766ZM47.6997 28.2743C47.7298 27.9435 47.7873 27.6182 47.7928 27.2819C47.7794 26.285 47.8362 25.2883 47.9626 24.2993C48.0639 23.7033 48.2173 23.121 48.6746 22.6781C48.8575 22.4912 49.076 22.3426 49.3173 22.2412C49.5586 22.1398 49.8177 22.0876 50.0795 22.0876C50.838 22.115 51.5793 22.3211 52.2429 22.6891C53.6135 23.3963 54.8609 24.3194 55.9372 25.4229C56.9664 26.4555 57.6618 27.7726 57.9335 29.2038C58.1444 30.3329 58.0403 31.4675 57.3502 32.4708C56.7532 33.332 56.1097 34.1521 55.206 34.6743L53.1959 35.8389C53.0812 35.8858 52.9835 35.9663 52.9155 36.0698C52.8476 36.1732 52.8126 36.2948 52.8152 36.4185C52.7974 36.6844 52.7645 36.9491 52.7167 37.2113C52.6714 37.4822 52.5258 37.7262 52.3086 37.8947C52.0281 38.1285 51.7035 38.3038 51.3541 38.4104C51.0047 38.5169 50.6374 38.5526 50.2739 38.5153C49.6463 38.4438 49.0537 38.1889 48.5706 37.7827C48.464 37.7101 48.3773 37.612 48.3185 37.4974C48.2596 37.3828 48.2305 37.2553 48.2337 37.1265C48.2529 36.8532 48.1488 36.5962 48.1406 36.3064C48.0338 35.3167 47.9297 34.3271 47.8503 33.3429C47.7709 32.3587 47.7326 31.4456 47.6668 30.5216C47.6234 30.1231 47.6069 29.7221 47.6175 29.3214C47.6067 28.9704 47.6342 28.6193 47.6997 28.2743V28.2743ZM36.0994 32.8945C36.1979 32.1017 36.2883 31.3335 36.4389 30.5516C36.6602 29.3119 36.976 28.0909 37.3837 26.8992C37.6939 26.0001 38.3219 25.2449 39.1501 24.775C39.6785 24.4436 40.2603 24.2059 40.8699 24.0724C41.7088 23.9381 42.568 24.1151 43.2852 24.57C44.2492 25.1167 44.9009 25.9588 45.4432 26.8965C46.0327 27.9262 46.4072 29.0645 46.5441 30.2427C46.7056 31.3362 46.8645 32.4489 47.026 33.537C47.1149 34.1342 47.1734 34.7355 47.2013 35.3386C47.2011 36.2223 47.1463 37.1052 47.037 37.9822C46.911 38.8817 46.6426 38.9227 45.8183 39.0457C45.2445 39.1102 44.6678 39.1457 44.0903 39.1523C43.8389 39.1596 43.5874 39.1403 43.34 39.0949C43.0935 39.0594 42.7923 38.5837 42.7923 38.324C42.7649 38.0068 42.743 37.6596 42.7403 37.348C42.7411 37.2952 42.731 37.2429 42.7108 37.1942C42.6905 37.1455 42.6605 37.1015 42.6225 37.0648C42.5845 37.0282 42.5394 36.9997 42.4899 36.9812C42.4405 36.9626 42.3877 36.9544 42.335 36.957C41.8557 36.957 41.3655 36.9844 40.8808 36.998C40.6809 36.998 40.585 37.1457 40.5631 37.337C40.5166 37.7225 40.4782 38.0779 40.4591 38.4689C40.4591 39.0594 40.2017 39.3355 39.6101 39.3191C38.8735 39.3191 38.1697 39.3191 37.4385 39.2808C37.146 39.2437 36.8715 39.1196 36.6507 38.9245C36.43 38.7295 36.2731 38.4726 36.2007 38.1873C35.916 37.2825 35.7746 36.3389 35.7817 35.3905C35.9022 34.5977 35.9871 33.742 36.0994 32.8945ZM32.8131 52.6411V52.6958C32.8131 53.7894 32.2079 54.656 31.6301 55.55C31.2029 56.2006 30.5347 56.474 29.8391 56.7447C28.9109 57.1214 27.9086 57.2813 26.9089 57.2121C24.8194 57.0836 23.2585 56.1186 22.3082 54.2678C22.0659 53.8268 21.8766 53.3588 21.7441 52.8735C21.5728 52.0927 21.443 51.3033 21.3552 50.5087C21.284 49.8089 21.2758 49.1008 21.232 48.4091C21.1923 47.6743 21.1923 46.9378 21.232 46.2029C21.3251 44.7841 21.3935 43.3597 21.5989 41.9436C21.8071 40.4154 22.7272 39.2999 24.0636 38.5509C24.689 38.1567 25.3859 37.8892 26.1147 37.7635C26.8698 37.6244 27.6478 37.6785 28.3762 37.9209C29.1046 38.1633 29.7596 38.586 30.28 39.1496C31.0925 39.995 31.6464 41.0544 31.8766 42.2033C31.9396 42.504 32.0354 42.7829 32.0957 43.0809C32.1258 43.2886 32.1559 43.4937 32.2052 43.7343C32.2545 43.9748 31.5041 44.4533 31.3124 44.5544C30.764 44.8828 30.1185 45.0113 29.4858 44.918C29.1607 44.8699 28.8401 44.7949 28.5274 44.6938C28.4138 44.6662 28.3098 44.6084 28.2264 44.5265C28.143 44.4447 28.0833 44.342 28.0536 44.2291C27.9687 43.8108 27.8811 43.3898 27.7798 42.9988C27.7418 42.7683 27.6556 42.5484 27.5268 42.3534C27.398 42.1584 27.2294 41.9927 27.0321 41.867C26.9308 41.8263 26.8217 41.8078 26.7125 41.813C26.6034 41.8182 26.4966 41.8469 26.3995 41.8971C26.1797 41.9683 25.9903 42.1116 25.8621 42.3035C25.7339 42.4955 25.6743 42.7251 25.693 42.9551C25.693 43.6632 25.6519 44.3876 25.6081 45.082C25.5643 45.7764 25.4219 46.531 25.4055 47.2336C25.3671 48.1303 25.4055 49.0461 25.4055 49.9674C25.4257 50.4344 25.4723 50.8999 25.5451 51.3617C25.6481 51.9313 25.9546 52.4442 26.4078 52.8052C26.6039 52.9707 26.8376 53.0859 27.0884 53.1409C27.3393 53.196 27.5998 53.1891 27.8474 53.121C28.095 53.0529 28.3222 52.9255 28.5094 52.75C28.6966 52.5744 28.8381 52.356 28.9217 52.1135C29.0181 51.8067 29.0743 51.4888 29.0888 51.1676C29.0888 50.804 28.9436 50.6482 28.5712 50.6618C28.4382 50.6497 28.3044 50.6497 28.1714 50.6618C28.1131 50.6733 28.053 50.6721 27.9952 50.6583C27.9374 50.6444 27.8833 50.6184 27.8365 50.5818C27.7897 50.5452 27.7514 50.499 27.7241 50.4463C27.6968 50.3936 27.6812 50.3356 27.6784 50.2764C27.5388 49.3058 27.3827 48.3025 27.2704 47.3402C27.2579 47.235 27.2665 47.1284 27.2958 47.0265C27.3252 46.9247 27.3746 46.8297 27.4411 46.7472C27.5077 46.6647 27.5901 46.5963 27.6835 46.546C27.777 46.4958 27.8795 46.4646 27.9851 46.4544C28.3138 46.3998 28.6314 46.3724 28.9518 46.3423C29.683 46.2549 30.4498 46.1455 31.1865 46.0307C31.4019 45.9653 31.6343 45.9857 31.8349 46.0876C32.0356 46.1895 32.1889 46.3651 32.2627 46.5775C32.5849 47.3464 32.7792 48.1627 32.8378 48.9942C33.0717 50.1998 33.0605 51.44 32.8049 52.6411H32.8131ZM31.8711 34.6305C31.5288 34.852 31.3563 34.8629 31.5397 35.4507C31.5782 35.7568 31.5444 36.0676 31.4411 36.3583C31.2741 36.8805 30.825 37.0719 30.3129 37.1785C29.9208 37.2812 29.5217 37.3552 29.1189 37.3999C28.8001 37.4193 28.4803 37.4102 28.1631 37.3726C27.9397 37.3434 27.7294 37.2505 27.5574 37.105C27.3855 36.9596 27.2592 36.7677 27.1937 36.5524C26.7364 35.4566 26.459 34.2944 26.3722 33.1105C26.3037 31.9896 26.227 30.8961 26.1832 29.7807C26.1613 29.3214 26.1421 28.8648 26.1284 28.3809C26.0737 27.1288 26.0052 25.8685 25.9778 24.6137C25.9547 24.1387 25.9859 23.6627 26.0709 23.1948C26.1507 22.8221 26.3515 22.486 26.6421 22.2388C26.9328 21.9916 27.2971 21.8472 27.6784 21.8279C27.8197 21.8156 27.9617 21.8156 28.1029 21.8279C29.2276 21.9097 30.3205 22.2373 31.3042 22.7875C32.5203 23.431 33.576 24.3392 34.3933 25.4448C35.0966 26.429 35.5334 27.5779 35.6612 28.7801C35.8036 29.9474 35.6612 31.1011 34.9492 32.099C34.5472 32.6617 34.0527 33.1525 33.4868 33.5507C32.9555 33.958 32.4133 34.2943 31.8711 34.6305ZM42.1296 50.6154C42.0323 51.118 41.8827 51.6091 41.6832 52.0807C41.388 52.6628 41.0328 53.2125 40.6234 53.721C40.2543 54.137 39.8338 54.5044 39.3719 54.8146C38.9434 55.0906 38.4513 55.2525 37.9424 55.2848C37.8409 55.2937 37.7408 55.3139 37.6439 55.3449C37.6371 55.3585 37.6336 55.3735 37.6336 55.3887C37.6336 55.4038 37.6371 55.4188 37.6439 55.4324C37.9506 55.5786 38.2968 55.6208 38.6297 55.5527C39.6101 55.3859 40.3085 54.7817 40.9438 54.101C41.0256 54.0009 41.1173 53.9093 41.2176 53.8276C41.3244 53.855 41.2888 54.101 41.2341 54.1994C40.3331 55.7714 39.0159 56.7802 37.1948 57.0317C36.7206 57.0928 36.2389 57.0139 35.8091 56.8048C34.344 56.135 33.632 54.872 33.1993 53.3984C33.0541 52.879 33.276 52.3732 33.4074 51.8702C33.632 51.1375 33.8291 50.3994 34.0318 49.6312C34.2207 48.9176 34.1002 48.2068 34.0017 47.5015C33.9496 47.0641 33.862 46.6458 33.8428 46.1865C33.8562 45.778 33.9812 45.381 34.2043 45.0383C34.7352 44.0896 35.5216 43.3083 36.4745 42.7829C36.6443 42.6872 36.8305 42.6243 36.9894 42.5532C37.5039 42.43 38.0279 42.3504 38.5558 42.3154C39.0982 42.2766 39.638 42.42 40.0894 42.7227C40.3269 42.9411 40.5375 43.1871 40.7165 43.4554C41.2642 44.1389 41.56 44.9782 41.8119 45.812C41.9077 46.0854 42.0091 46.3588 42.0858 46.6321C42.1433 46.8454 42.1405 47.0696 42.1898 47.3101C42.4356 48.4008 42.4149 49.5344 42.1296 50.6154V50.6154ZM51.3501 50.0303C51.2351 50.6782 51.2242 51.3562 51.0571 51.9905C50.864 52.9467 50.3935 53.8251 49.7043 54.5166C49.1785 55.0005 48.5706 55.375 47.8147 55.118C47.4498 54.9835 47.0947 54.8236 46.7522 54.6396C46.8753 54.9361 47.0853 55.1887 47.3547 55.3641C47.6702 55.562 48.04 55.656 48.4119 55.633C48.7838 55.6099 49.1391 55.4709 49.4277 55.2356C50.0523 54.7548 50.5497 54.1288 50.8764 53.4121C50.9367 53.2645 51.012 53.1235 51.1009 52.9911C51.1793 53.1095 51.2211 53.2483 51.2214 53.3902C51.0737 54.1953 50.6928 54.9395 50.126 55.5308C49.8072 55.8747 49.4171 56.1451 48.983 56.3231C48.5488 56.5011 48.081 56.5824 47.6121 56.5615C46.9138 56.6298 45.7143 56.1432 45.2268 55.8452C44.3161 55.2752 43.617 54.4237 43.2359 53.4203C43.1456 53.2289 43.088 53.0157 43.0059 52.7942C42.7461 52.0995 42.7288 51.3376 42.9566 50.6318C43.1534 49.8512 43.298 49.0585 43.3893 48.2588C43.4364 47.6748 43.2943 47.0911 42.984 46.5939C42.7375 46.1346 42.4993 45.6452 42.2528 45.1859C42.1684 45.0283 42.121 44.8536 42.1144 44.675C42.1077 44.4964 42.142 44.3187 42.2145 44.1553C42.806 42.7883 43.6987 41.6647 45.057 41.0332C45.52 40.7986 46.0265 40.662 46.5449 40.632C47.0632 40.602 47.5822 40.6793 48.0692 40.859C48.5562 41.0387 49.0007 41.3169 49.3749 41.6762C49.7492 42.0355 50.045 42.4681 50.2438 42.9469C50.8346 44.4669 51.2115 46.0613 51.3638 47.6847C51.3912 48.4857 51.5008 49.2512 51.3501 50.0303ZM60.8802 55.6374C60.4736 56.2868 59.893 56.8096 59.2042 57.1465C58.3769 57.5588 57.4579 57.7536 56.5341 57.7124C54.9732 57.6085 53.5793 57.0973 52.588 55.8179C52.2513 55.3779 52.085 54.8313 52.1197 54.2787C52.1939 53.1835 52.0932 52.0835 51.8212 51.02C51.6987 50.5591 51.7284 50.0711 51.9061 49.6284C51.9817 49.4161 52.1196 49.2314 52.3017 49.0983C52.4839 48.9652 52.7019 48.8899 52.9275 48.8821C53.6441 48.8 54.3686 48.9423 55.0006 49.2894C55.2209 49.4325 55.424 49.6003 55.6058 49.7897C55.866 50.085 55.8276 50.4431 55.7564 50.8204C55.6469 51.441 55.5319 52.0889 55.729 52.7341C55.7805 52.8966 55.8427 53.0555 55.9152 53.2098C55.9898 53.3652 56.1183 53.4884 56.277 53.5563C56.4357 53.6242 56.6137 53.6322 56.7779 53.5789C56.973 53.544 57.1551 53.457 57.3046 53.327C57.4541 53.197 57.5655 53.0289 57.6268 52.8407C57.6982 52.5399 57.714 52.2286 57.6734 51.9221C57.4652 50.9531 56.9224 50.0879 56.1398 49.4781C55.4716 48.904 54.7705 48.3244 54.1133 47.7257C53.0453 46.736 52.2785 45.5714 52.0813 44.076C52.0447 43.2029 52.0594 42.3284 52.1251 41.457C52.3127 40.2021 52.8455 39.0238 53.6642 38.0533C54.0675 37.5937 54.5894 37.2532 55.1731 37.0691C55.8717 36.8957 56.5893 36.8103 57.3091 36.8149C58.291 36.9307 59.227 37.2949 60.0285 37.8729C60.976 38.5782 61.2992 39.5979 61.4361 40.6805C61.5018 41.2902 61.5402 41.8944 61.6114 42.4794C61.5538 43.1137 61.4799 43.7179 61.4032 44.3193C61.3375 44.7841 61.1759 44.9672 60.7104 45.0137C59.953 45.1559 59.1757 45.1559 58.4182 45.0137C58.0403 44.9426 57.9308 44.8278 57.9034 44.3958C57.8404 43.6714 57.8048 42.9551 57.7336 42.258C57.7571 41.9101 57.6604 41.5647 57.4598 41.2793C57.3282 41.1199 57.1626 40.9919 56.9751 40.9047C56.8682 40.8774 56.6355 40.9047 56.5807 41.0004C56.3822 41.2076 56.2375 41.4601 56.159 41.7358C55.866 43.2695 56.2247 44.5817 57.4844 45.596C58.117 46.1018 58.7606 46.5556 59.363 47.0532C60.0978 47.6909 60.6815 48.4837 61.0719 49.3742C61.4313 50.1409 61.6723 50.9576 61.7866 51.7964C61.9791 53.145 61.6555 54.5165 60.8802 55.6374V55.6374ZM69.2053 54.7025C69.1295 54.9951 68.9692 55.259 68.7442 55.4613C68.5192 55.6635 68.2395 55.7951 67.9401 55.8398C66.5289 56.0719 65.0813 55.9227 63.7474 55.4078C63.2495 55.252 62.8326 54.9075 62.5863 54.4482C62.5452 54.3826 62.4877 54.2815 62.5014 54.2295C62.5094 53.9697 62.5314 53.7105 62.5671 53.4531C62.7462 52.5775 62.7247 51.6728 62.5041 50.8067C62.2237 49.6116 61.7989 48.4549 61.2389 47.3621C61.193 47.2403 61.1767 47.1093 61.1914 46.98C61.2062 46.8507 61.2516 46.7268 61.3238 46.6185C61.5128 46.3314 61.7236 46.0717 61.9126 45.7846C62.406 45.1628 62.6709 44.3908 62.6629 43.5976C62.6629 43.2859 62.6109 42.9332 62.8546 42.6599C63.1578 42.3117 63.5716 42.0781 64.0267 41.9983C64.7023 41.8507 65.3851 41.7385 66.0724 41.662C66.5668 41.6473 67.0615 41.6747 67.5512 41.744C67.8161 41.771 68.0794 41.8121 68.3399 41.867C68.5734 41.9272 68.7794 42.0652 68.9238 42.258C69.0682 42.4509 69.1423 42.6871 69.1341 42.9278C69.1341 43.2012 69.1806 43.5046 69.197 43.7643C69.1642 44.0951 69.1669 44.4068 69.1094 44.7294C69.1033 44.8767 69.0674 45.0213 69.0038 45.1544C68.9403 45.2875 68.8504 45.4065 68.7396 45.504C68.6289 45.6016 68.4995 45.6757 68.3592 45.7221C68.219 45.7684 68.0708 45.786 67.9236 45.7737C67.3027 45.7842 66.6833 45.8372 66.0697 45.9323C66.0157 45.9353 65.963 45.9492 65.9146 45.9733C65.8663 45.9974 65.8233 46.0311 65.7885 46.0723C65.7536 46.1135 65.7275 46.1613 65.7118 46.2129C65.6961 46.2646 65.6912 46.3188 65.6972 46.3724C65.7164 46.829 65.6972 47.0832 66.3189 47.1297C66.7023 47.1762 67.061 47.2144 67.4389 47.2855C67.8962 47.3785 68.0058 47.4933 68.0277 47.9499C68.0496 48.4064 68.0606 48.77 68.0606 49.2047C68.0768 49.4116 68.0119 49.6168 67.8796 49.7769C67.7473 49.9371 67.5579 50.0397 67.3513 50.0631L66.2723 50.2873C66.2296 50.2888 66.1876 50.2992 66.1492 50.318C66.1108 50.3367 66.0768 50.3634 66.0494 50.3961C66.022 50.4289 66.0019 50.4671 65.9903 50.5081C65.9786 50.5492 65.9758 50.5923 65.982 50.6345C65.9724 50.8397 65.9936 51.0452 66.045 51.2441C66.0779 51.3371 66.2093 51.4847 66.3189 51.4875C66.8885 51.5831 67.4581 51.6761 68.0359 51.7444C68.2942 51.7521 68.5424 51.8459 68.7409 52.011C68.9395 52.176 69.0769 52.4027 69.1313 52.6548C69.3568 53.3153 69.3825 54.0275 69.2053 54.7025V54.7025Z" fill="#2B58A5"/>
<path d="M19.9805 37.9881C19.7238 38.123 19.5174 38.3368 19.3917 38.5977C19.3392 38.6545 19.3035 38.7246 19.2886 38.8004C19.2736 38.8761 19.2799 38.9546 19.3068 39.027C19.396 39.271 19.504 39.5077 19.6299 39.735C19.7264 39.8719 19.7843 40.0321 19.7978 40.1989C19.8113 40.3657 19.7798 40.5331 19.7066 40.6837C19.5916 40.9078 19.5094 41.1101 19.3917 41.3343C19.3787 41.3617 19.3591 41.3855 19.3348 41.4036C19.3104 41.4217 19.282 41.4336 19.252 41.4382C19.0795 41.4382 19.0247 41.5476 18.9782 41.6815C18.9352 41.8083 18.9227 41.9434 18.9418 42.0759C18.9608 42.2085 19.0108 42.3346 19.0877 42.4443C19.1918 42.5864 19.3232 42.622 19.4246 42.4443C19.4807 42.3022 19.5113 42.1513 19.5149 41.9986C19.4798 41.5652 19.6143 41.1351 19.8901 40.7985C20.021 40.6502 20.1005 40.4637 20.1168 40.2667C20.1331 40.0697 20.0853 39.8727 19.9805 39.7049C19.9475 39.6321 19.9388 39.5507 19.9558 39.4726C20.0599 39.1992 20.1913 38.9121 20.2954 38.6278C20.3441 38.4498 20.3644 38.2653 20.3556 38.081C20.3432 38.0447 20.3218 38.0121 20.2935 37.9862C20.2651 37.9602 20.2307 37.9418 20.1934 37.9325C20.1561 37.9233 20.1171 37.9235 20.0799 37.9332C20.0427 37.9429 20.0085 37.9618 19.9805 37.9881Z" fill="#2B58A5"/>
<path d="M71.237 33.4064C71.4067 33.3107 71.3958 33.133 71.3575 32.958C71.3385 32.8752 71.301 32.7976 71.2479 32.7311C71.1658 32.3976 71.0781 32.0914 70.996 31.7606C70.9403 31.3699 70.9692 30.9718 71.0809 30.5933C71.163 30.2761 70.9604 30.082 70.6482 30.082C70.5625 30.093 70.481 30.1258 70.4117 30.1773C70.3423 30.2288 70.2874 30.2973 70.2522 30.3761C70.217 30.4549 70.2027 30.5414 70.2106 30.6273C70.2186 30.7132 70.2486 30.7956 70.2977 30.8666C70.3846 31.0134 70.4475 31.173 70.4839 31.3396C70.6165 31.8267 70.6454 32.3361 70.5688 32.835C70.5826 32.9183 70.5826 33.0033 70.5688 33.0865C70.5537 33.1678 70.5703 33.2518 70.615 33.3214C70.6598 33.391 70.7294 33.4409 70.8098 33.4611C70.9544 33.472 71.0998 33.4534 71.237 33.4064V33.4064Z" fill="#2B58A5"/>
<path d="M71.4343 48.7623C71.301 48.6402 71.1986 48.4884 71.1353 48.3192C71.072 48.1501 71.0496 47.9684 71.0701 47.789C71.0701 47.6496 71.0536 47.5156 70.8619 47.5156C70.6702 47.5156 70.6073 47.6168 70.5881 47.789C70.5768 48.003 70.5961 48.2175 70.6456 48.426C70.7179 48.692 70.8094 48.9524 70.9195 49.2051C70.9633 49.3582 71.0263 49.5441 71.2344 49.5141C71.4425 49.484 71.5493 49.2872 71.5986 49.1013C71.6006 49.0357 71.5867 48.9707 71.558 48.9117C71.5294 48.8526 71.487 48.8014 71.4343 48.7623V48.7623Z" fill="#2B58A5"/>
<path d="M21.4649 37.6454C21.6292 37.6454 21.7579 37.495 21.7743 37.331C21.7743 37.1041 21.6867 37.0248 21.5005 37.0002C21.4134 36.9972 21.3283 37.0261 21.2611 37.0815C21.194 37.137 21.1496 37.215 21.1362 37.3009C21.145 37.3866 21.182 37.4669 21.2415 37.5293C21.301 37.5917 21.3796 37.6325 21.4649 37.6454V37.6454Z" fill="#2B58A5"/>
<path d="M40.9874 33.9072C41.2449 33.927 41.5037 33.9196 41.7597 33.8853C42.1704 33.8251 42.2526 33.7349 42.2773 33.3167C42.2897 33.2415 42.2897 33.1649 42.2773 33.0897C42.2964 32.5867 42.3101 32.111 42.3567 31.6135C42.4553 30.8179 42.1047 30.2165 41.5023 29.7189C41.316 29.5549 41.1435 29.5658 40.9545 29.7708C40.8735 29.8625 40.8178 29.9737 40.793 30.0934C40.5356 30.8453 40.4972 31.6271 40.4644 32.6086C40.4945 32.8136 40.5082 33.1854 40.5766 33.5709C40.5992 33.6639 40.6515 33.747 40.7256 33.8077C40.7997 33.8684 40.8916 33.9033 40.9874 33.9072Z" fill="#2B58A5"/>
<path d="M51.2243 32.6028C51.736 32.9003 52.3326 33.0187 52.9194 32.939C53.142 32.9401 53.3618 32.8887 53.5607 32.7889C53.7596 32.6891 53.9321 32.5439 54.0641 32.3649C54.1193 32.2885 54.1513 32.1978 54.1561 32.1038C54.161 32.0097 54.1386 31.9162 54.0915 31.8345C54.0362 31.8914 53.9746 31.9418 53.908 31.9849C53.688 32.1201 53.4582 32.2388 53.2207 32.3403C52.937 32.401 52.644 32.4048 52.3588 32.3515C52.0736 32.2983 51.8019 32.189 51.5593 32.03C51.3168 31.8711 51.1083 31.6656 50.9459 31.4256C50.7836 31.1855 50.6706 30.9156 50.6136 30.6316C50.575 30.3144 50.6327 29.9929 50.7792 29.7088C50.9256 29.4246 51.1542 29.1909 51.4351 29.0378C51.9445 28.7207 52.3881 28.7644 52.9605 29.1581C53.1162 29.2613 53.2392 29.4066 53.3153 29.577C53.3915 29.7474 53.4175 29.9358 53.3904 30.1204C53.3495 30.2857 53.2628 30.4361 53.1403 30.5546C53.0178 30.673 52.8644 30.7547 52.6976 30.7902C52.617 30.8252 52.5286 30.8381 52.4413 30.8276C52.3541 30.817 52.2713 30.7833 52.2015 30.7301C52.1317 30.6768 52.0774 30.6059 52.0442 30.5247C52.0111 30.4434 52.0003 30.3548 52.013 30.268C52.0708 30.0645 52.1517 29.8683 52.254 29.683C52.2759 29.6037 52.3169 29.5572 52.3389 29.478C52.2978 29.4123 52.1526 29.4288 52.0924 29.4424C51.1777 29.7924 51.479 31.0034 52.0595 31.2714C52.3382 31.4302 52.6638 31.4863 52.9797 31.4299C53.667 31.3014 54.401 30.5633 54.201 29.7158C54.1212 29.4214 53.9764 29.1485 53.7771 28.9173C53.5778 28.686 53.3291 28.5023 53.0494 28.3796C52.7696 28.2569 52.4659 28.1983 52.1605 28.2081C51.8551 28.2179 51.5558 28.2959 51.2845 28.4364C50.9761 28.6032 50.7034 28.8289 50.4821 29.1007C50.2628 29.4019 50.1181 29.7507 50.06 30.1185C50.0019 30.4864 50.0321 30.8627 50.148 31.2167C50.1836 31.3944 50.2083 31.9384 51.2243 32.6028Z" fill="#2B58A5"/>
<path d="M47.1766 46.5507C45.6923 46.1571 44.1259 47.4666 44.4381 49.2491C44.5805 49.9927 45.5526 51.1272 46.5823 51.2038C46.8506 51.2458 47.1251 51.2175 47.3791 51.1216C47.6331 51.0258 47.8577 50.8656 48.031 50.657C48.1166 50.5723 48.178 50.4663 48.2088 50.35C48.2396 50.2337 48.2387 50.1113 48.2063 49.9954C48.1652 50.0419 48.1323 50.061 48.1186 50.113C48 50.3355 47.8089 50.511 47.5769 50.6104C47.3448 50.7098 47.0858 50.7272 46.8425 50.6597C46.3958 50.5649 45.9916 50.3291 45.6896 49.9872C44.7475 48.9456 45.1419 47.8302 46.1003 47.2533C46.3694 47.1151 46.6796 47.0791 46.9733 47.152C47.2669 47.2249 47.5241 47.4018 47.6969 47.6498C47.7641 47.7238 47.8033 47.8189 47.8078 47.9187C47.8123 48.0185 47.7818 48.1168 47.7215 48.1965C47.6664 48.2887 47.5845 48.3619 47.4866 48.4063C47.3888 48.4508 47.2796 48.4644 47.1738 48.4453C47.067 48.418 46.848 48.3879 46.8562 48.2485C46.8644 48.109 47.026 48.1528 47.0068 48.0052C46.9608 47.9338 46.8916 47.8804 46.8108 47.854C46.73 47.8276 46.6425 47.8298 46.5632 47.8603C46.4659 47.8806 46.3779 47.9318 46.3123 48.0062C46.2466 48.0806 46.2069 48.1742 46.1989 48.2731C46.1817 48.4594 46.2231 48.6464 46.3173 48.8081C46.4116 48.9698 46.554 49.0981 46.7247 49.1752C46.9722 49.292 47.2494 49.3307 47.5194 49.2862C47.7895 49.2418 48.0395 49.1163 48.2364 48.9265C48.3694 48.8143 48.4701 48.6689 48.5283 48.5051C48.5865 48.3413 48.6001 48.165 48.5677 47.9942C48.501 47.6449 48.3339 47.3225 48.0869 47.0662C47.84 46.8099 47.5237 46.6308 47.1766 46.5507Z" fill="#2B58A5"/>
<path d="M62.7393 33.1914C62.7536 33.2487 62.7794 33.3025 62.8152 33.3495C62.851 33.3965 62.896 33.4357 62.9474 33.4648C63.1609 33.5484 63.3832 33.6071 63.6102 33.6397C64.0127 33.719 64.0812 33.678 64.1579 33.2761C64.2318 32.7868 64.3058 32.2974 64.3523 31.7999C64.4382 31.1987 64.3886 30.586 64.2072 30.0064C64.1175 29.7772 63.9928 29.5632 63.8375 29.3722C63.8082 29.3283 63.7678 29.2929 63.7205 29.2695C63.6732 29.2461 63.6205 29.2356 63.5678 29.2389C63.5151 29.2422 63.4642 29.2593 63.4202 29.2885C63.3762 29.3176 63.3407 29.3578 63.3171 29.405C63.1455 29.6387 63.0184 29.9019 62.942 30.1814C62.8133 30.8813 62.6928 32.2919 62.6928 32.2919C62.6897 32.5924 62.7052 32.8928 62.7393 33.1914V33.1914Z" fill="#2B58A5"/>
<path d="M32.1394 31.1692C31.9206 31.2366 31.7081 31.3226 31.504 31.4262C31.3215 31.5276 31.1176 31.585 30.9088 31.5935C30.7 31.602 30.4921 31.5616 30.3018 31.4754C29.9693 31.3938 29.6673 31.2184 29.4318 30.9703C29.1963 30.7221 29.0373 30.4116 28.9737 30.0757C28.9082 29.8664 28.8897 29.6453 28.9193 29.4281C28.949 29.2109 29.0261 29.0028 29.1452 28.8187C29.2644 28.6345 29.4226 28.4787 29.6088 28.3624C29.7949 28.2461 30.0044 28.1721 30.2224 28.1456C30.5377 28.1295 30.8473 28.2334 31.0887 28.4364C31.3302 28.6393 31.4855 28.9262 31.5232 29.2391C31.5367 29.3214 31.533 29.4057 31.5123 29.4865C31.4916 29.5673 31.4543 29.643 31.4029 29.7088C31.3514 29.7745 31.2869 29.8289 31.2133 29.8685C31.1398 29.9082 31.0588 29.9321 30.9755 29.939C30.8509 29.9588 30.7233 29.9438 30.6068 29.8955C30.4903 29.8472 30.3894 29.7676 30.3155 29.6656C30.1731 29.4578 30.2745 29.2856 30.384 29.0887C30.384 29.0368 30.4333 29.0177 30.447 28.963C30.5209 28.7853 30.447 28.6513 30.2389 28.6896C30.0834 28.7361 29.9446 28.8263 29.839 28.9493C29.733 29.1021 29.6749 29.2829 29.672 29.4687C29.6772 29.6851 29.7484 29.8947 29.8761 30.0696C30.0039 30.2445 30.182 30.3763 30.3867 30.4475C30.6731 30.5568 30.9871 30.5712 31.2822 30.4885C31.5572 30.3968 31.7928 30.2146 31.9504 29.9718C32.095 29.7621 32.1875 29.5211 32.2204 29.2687C32.2532 29.0163 32.2255 28.7597 32.1394 28.5201C32.1394 28.46 32.0244 28.0964 31.4191 27.6999C31.0814 27.4941 30.6891 27.3955 30.2941 27.417C29.899 27.4384 29.5198 27.579 29.2064 27.8202C28.9631 28.011 28.7617 28.2499 28.6149 28.5219C28.4682 28.7938 28.3792 29.0931 28.3535 29.401C28.3278 29.7088 28.3659 30.0187 28.4656 30.3112C28.5652 30.6036 28.7242 30.8725 28.9326 31.1009C29.0594 31.2386 29.1948 31.3683 29.3379 31.4891C29.6041 31.739 29.9313 31.9149 30.2869 31.9993C30.6424 32.0837 31.0139 32.0737 31.3644 31.9702C31.5825 31.9143 31.785 31.8094 31.9563 31.6634C32.1276 31.5175 32.2633 31.3344 32.353 31.1282C32.3667 31.0653 32.1722 31.1501 32.1394 31.1692Z" fill="#2B58A5"/>
<path d="M38.4872 48.0148C38.2921 47.8086 38.0543 47.6472 37.7904 47.5419C37.5266 47.4367 37.2429 47.39 36.9591 47.4051C35.8938 47.4626 35.2147 48.1023 34.7683 49.0455C34.3794 49.8656 34.5739 50.6338 35.0422 51.3774C35.1958 51.6284 35.4027 51.8426 35.6483 52.0051C35.8938 52.1676 36.1721 52.2743 36.4634 52.3179C36.8331 52.4163 37.515 52.2003 37.6218 51.6918C37.4223 51.7538 37.2193 51.804 37.0139 51.8422C36.6312 51.8448 36.2592 51.7162 35.9601 51.4778C35.661 51.2395 35.453 50.9058 35.3708 50.5327C35.2926 50.2831 35.2674 50.02 35.2968 49.7602C35.3261 49.5004 35.4095 49.2496 35.5414 49.0237C35.6733 48.7978 35.851 48.6019 36.063 48.4484C36.2751 48.295 36.5168 48.1873 36.7729 48.1323C36.9421 48.0834 37.1201 48.0728 37.2939 48.1015C37.4677 48.1301 37.6329 48.1972 37.7773 48.2979C37.9217 48.3986 38.0418 48.5302 38.1286 48.6832C38.2154 48.8362 38.2668 49.0067 38.2791 49.1821C38.2956 49.3447 38.2596 49.5083 38.1764 49.649C38.0931 49.7897 37.9669 49.9001 37.8163 49.964C37.6682 50.0215 37.5073 50.0376 37.3507 50.0105C37.0057 49.9203 36.9783 49.6004 37.2275 49.2997C37.3014 49.2341 37.3124 49.0947 37.3589 49.0263C37.3589 48.8869 37.1015 48.9279 36.9728 48.9798C36.7966 49.0356 36.6348 49.1294 36.499 49.2547C36.3631 49.3799 36.2566 49.5334 36.1869 49.7043C36.1414 49.8137 36.1245 49.9328 36.1379 50.0505C36.1514 50.1682 36.1946 50.2805 36.2635 50.3768C36.4189 50.6495 36.6579 50.8653 36.9453 50.9922C37.2327 51.1192 37.5534 51.1507 37.8601 51.0822C38.1409 51.0199 38.3976 50.8778 38.5992 50.6731C38.8009 50.4684 38.9389 50.2098 38.9966 49.9285C39.1078 49.5947 39.1188 49.2357 39.0283 48.8957C38.9378 48.5556 38.7497 48.2495 38.4872 48.0148V48.0148Z" fill="#2B58A5"/>
<defs>
<filter id="filter0_d_1007_643" x="0" y="0" width="92" height="92" filterUnits="userSpaceOnUse" color-interpolation-filters="sRGB">
<feFlood flood-opacity="0" result="BackgroundImageFix"/>
<feColorMatrix in="SourceAlpha" type="matrix" values="0 0 0 0 0 0 0 0 0 0 0 0 0 0 0 0 0 0 127 0" result="hardAlpha"/>
<feOffset dy="4"/>
<feGaussianBlur stdDeviation="6"/>
<feComposite in2="hardAlpha" operator="out"/>
<feColorMatrix type="matrix" values="0 0 0 0 0 0 0 0 0 0 0 0 0 0 0 0 0 0 0.2 0"/>
<feBlend mode="normal" in2="BackgroundImageFix" result="effect1_dropShadow_1007_643"/>
<feBlend mode="normal" in="SourceGraphic" in2="effect1_dropShadow_1007_643" result="shape"/>
</filter>
</defs>
</svg>
