<svg width="119" height="101" viewBox="0 0 119 101" fill="none" xmlns="http://www.w3.org/2000/svg">
<path d="M15.0627 77.5308C10.5523 80.2363 6.94394 90.1567 11.4544 95.5678C15.9648 100.979 16.8669 100.077 16.8669 100.077C16.8669 100.077 16.7676 89.9222 23.1814 85.6474C25.8877 83.8437 15.0627 77.5308 15.0627 77.5308Z" fill="#666666"/>
<path d="M15.0626 77.5758C13.309 79.0103 11.9571 80.8746 11.1386 82.9869C10.2633 85.0542 9.79766 87.2716 9.76739 89.5162C9.67817 91.7706 10.4016 93.9821 11.8061 95.7481C12.5217 96.6405 13.2962 97.4841 14.1245 98.2732C14.5321 98.6661 14.9661 99.0308 15.4235 99.3645C15.6497 99.5214 15.888 99.66 16.1361 99.7793C16.2502 99.8373 16.3716 99.8798 16.4969 99.9056C16.5962 99.9056 16.7676 99.9056 16.7044 99.9056L16.6413 100.068C16.5918 97.6245 16.9329 95.189 17.6516 92.8531C18.013 91.6812 18.4905 90.5483 19.0769 89.4712C19.6783 88.3818 20.4383 87.388 21.3321 86.5221C21.783 86.0891 22.2687 85.6939 22.7844 85.3407C23.0551 85.1332 23.1182 85.0972 23.1453 84.9529C23.1646 84.7502 23.1238 84.5464 23.028 84.3667C22.4302 83.3939 21.6634 82.5357 20.7638 81.8325C18.9377 80.3167 17.0348 78.8959 15.0626 77.5758V77.5758ZM15.0626 77.4856C17.224 78.573 19.2831 79.8527 21.2148 81.3094C22.239 82.0449 23.1196 82.9619 23.8128 84.015C24.0129 84.3612 24.0922 84.7641 24.0384 85.1603C23.9916 85.389 23.8894 85.6027 23.7407 85.7826C23.5873 85.9269 23.4069 86.0712 23.3167 86.1433C22.8504 86.4759 22.4129 86.847 22.0087 87.2526C21.1847 88.0584 20.469 88.9679 19.8798 89.9582C19.2998 90.9705 18.8194 92.0366 18.4454 93.1417C17.6882 95.3831 17.2331 97.7153 17.0923 100.077V100.203H17.0291C16.9382 100.267 16.8328 100.307 16.7226 100.319C16.6123 100.332 16.5006 100.317 16.3977 100.275C16.2456 100.236 16.0999 100.175 15.9647 100.095C15.6988 99.9592 15.4478 99.796 15.216 99.608C14.7591 99.2442 14.3224 98.8559 13.9079 98.4446C13.096 97.6239 12.3293 96.7762 11.5716 95.9014C9.98275 94.1318 9.07198 91.857 9.00064 89.4802C8.97922 87.1217 9.49759 84.7896 10.5161 82.6622C11.4563 80.506 13.0455 78.6965 15.0626 77.4856V77.4856Z" fill="black"/>
<path d="M7.20942 77.5308C2.699 80.2363 -0.909333 90.1567 3.60109 95.5678C8.1115 100.979 9.01359 100.077 9.01359 100.077C9.01359 100.077 8.91436 89.9222 15.3282 85.6474C18.0344 83.8437 7.20942 77.5308 7.20942 77.5308Z" fill="#666666"/>
<path d="M7.20934 77.5758C5.45577 79.0103 4.10386 80.8746 3.2853 82.9869C2.41007 85.0542 1.94439 87.2716 1.91412 89.5162C1.8249 91.7706 2.54838 93.9821 3.95283 95.7481C4.66841 96.6405 5.44293 97.4841 6.27119 98.2732C6.67881 98.6661 7.11282 99.0308 7.5702 99.3645C7.79642 99.5214 8.03469 99.66 8.28282 99.7793C8.39693 99.8373 8.5183 99.8798 8.64368 99.9056C8.74291 99.9056 8.91428 99.9056 8.85114 99.9056L8.78799 100.068C8.73857 97.6245 9.07963 95.189 9.79832 92.8531C10.1597 91.6812 10.6372 90.5483 11.2236 89.4712C11.825 88.3818 12.5851 87.388 13.4788 86.5221C13.9297 86.0891 14.4154 85.6939 14.9312 85.3407C15.2018 85.1332 15.265 85.0972 15.292 84.9529C15.3113 84.7502 15.2705 84.5464 15.1748 84.3667C14.577 83.3939 13.8102 82.5357 12.9105 81.8325C11.0845 80.3167 9.18155 78.8959 7.20934 77.5758ZM7.20934 77.4856C9.37075 78.573 11.4298 79.8527 13.3616 81.3094C14.3858 82.0449 15.2663 82.9619 15.9596 84.015C16.1596 84.3612 16.239 84.7641 16.1851 85.1603C16.1383 85.389 16.0361 85.6027 15.8874 85.7826C15.734 85.9269 15.5536 86.0712 15.4634 86.1433C14.9972 86.4759 14.5596 86.847 14.1554 87.2526C13.3314 88.0584 12.6158 88.9679 12.0265 89.9582C11.4465 90.9705 10.9662 92.0366 10.5922 93.1417C9.83489 95.3831 9.37984 97.7153 9.23903 100.077V100.203H9.17588C9.08491 100.267 8.97956 100.307 8.86931 100.319C8.75905 100.332 8.64736 100.317 8.54441 100.275C8.39237 100.236 8.24665 100.175 8.11142 100.095C7.84553 99.9592 7.59456 99.796 7.36268 99.608C6.90583 99.2442 6.46917 98.8559 6.05465 98.4446C5.24277 97.6239 4.47603 96.7762 3.71828 95.9014C2.12948 94.1318 1.21871 91.857 1.14737 89.4802C1.12595 87.1217 1.64432 84.7896 2.66286 82.6622C3.603 80.506 5.19224 78.6965 7.20934 77.4856Z" fill="black"/>
<path d="M75.7677 5.38242C74.8656 21.6157 86.5927 30.6343 69.4531 34.2417C52.3135 37.8491 34.2719 40.5546 29.7615 47.7694C25.251 54.9842 -2.71354 68.512 1.79688 77.5305C6.30729 86.549 24.349 90.1564 29.7615 82.9416C35.174 75.7268 45.0969 56.7879 55.0198 56.7879C64.9427 56.7879 81.1802 54.9842 92.9073 51.3768C104.634 47.7694 123.578 27.0269 115.459 10.7935C107.341 -5.4398 75.7677 5.38242 75.7677 5.38242Z" fill="#F2F2F2" stroke="black" stroke-width="2" stroke-miterlimit="10"/>
</svg>
