<svg width="1280" height="315" viewBox="0 0 1280 315" fill="none" xmlns="http://www.w3.org/2000/svg">
<g clip-path="url(#clip0_1018_660)">
<rect width="1280" height="315" rx="20" fill="url(#paint0_linear_1018_660)"/>
<path d="M880.355 50.945C878.023 27.4095 896.51 7 920.16 7H1119.49C1143.27 7 1161.8 27.6134 1159.27 51.2531L1136.41 265H901.57L880.355 50.945Z" fill="#333333"/>
<path d="M1003.84 129.887C1008.45 131.833 1011.89 132.478 1016.49 137.038C1019.92 140.44 1018.14 188.504 1009.87 206.514L1054.32 212.334C1055.69 197.486 1057.42 176.367 1059.2 171.985C1059.2 171.985 1062.76 167.741 1063.49 151.81C1064.22 135.879 1053.22 106.875 1051.21 102.881C1049.2 98.8865 1043.96 97.2099 1037.48 92.8298C1031 88.4498 1021.46 87.6044 1014.84 87.6688C1008.22 87.7331 1005 91.3737 998.229 96.7185C991.454 102.063 992.169 103.841 990.136 109.143C988.104 114.444 990.858 114.608 994.411 122.422C997.964 130.237 999.226 127.94 1003.84 129.887Z" fill="#252525"/>
<path d="M994.8 136.087C999.16 137.927 1002.41 138.536 1006.75 142.846C1009.99 146.061 1008.31 191.48 1000.5 208.5L1042.5 214C1043.8 199.968 1045.44 180.011 1047.12 175.87C1047.12 175.87 1050.48 171.86 1051.17 156.805C1051.86 141.75 1041.47 114.342 1039.56 110.567C1037.66 106.793 1032.71 105.208 1026.59 101.069C1020.46 96.93 1011.45 96.1311 1005.19 96.1919C998.935 96.2527 995.9 99.6931 989.498 104.744C983.095 109.795 983.771 111.474 981.85 116.485C979.929 121.495 982.532 121.649 985.889 129.034C989.247 136.418 990.44 134.248 994.8 136.087Z" fill="white"/>
<path d="M1003.5 107.955C1003.4 107.706 1003.39 107.446 1003.45 107.19C1003.52 106.933 1003.67 106.685 1003.89 106.46C1004.11 106.234 1004.4 106.036 1004.74 105.877C1005.08 105.718 1005.46 105.6 1005.87 105.531C1006.48 105.424 1007.13 105.431 1007.71 105.551C1008.3 105.671 1008.81 105.899 1009.18 106.205C1009.55 106.512 1009.75 106.883 1009.77 107.273C1009.79 107.662 1009.63 108.052 1009.29 108.393C1008.96 108.733 1008.47 109.009 1007.9 109.186C1007.32 109.363 1006.69 109.432 1006.07 109.385C1005.44 109.339 1004.87 109.177 1004.41 108.923C1003.95 108.668 1003.63 108.331 1003.5 107.955Z" fill="black"/>
<path d="M990.84 111.532C992.022 114.192 986.254 114.267 988.589 118.875C990.925 123.484 993.619 121.836 995.684 125.795C997.749 129.753 999.718 130.167 997.389 132.589C995.061 135.01 961.891 143.166 957.851 143.039C953.811 142.913 951.28 141.795 953.87 139.646C956.46 137.497 964.224 129.657 970.889 123.845C977.554 118.034 978.624 115.126 983.597 112.906C988.57 110.687 990.224 110.103 990.84 111.532Z" fill="#F7931E"/>
<path d="M1014.34 166.228C1013.59 172.213 1011.62 186.635 1010.03 193.5C1008.7 199.2 1007.07 204.829 1005.14 210.362C1003.17 216.208 1001.29 218.811 999.349 226.032C997.404 233.252 991.773 239.359 994.114 243.25C996.455 247.14 1002.08 248.892 1003.95 245.961C1007.19 240.838 1009.21 235.068 1009.88 229.077C1010.76 221.017 1014.34 208.798 1015.09 202.628C1015.84 196.458 1017.81 182.056 1017.87 176.762C1017.93 171.468 1019.98 168.676 1017.48 166.163C1014.98 163.65 1014.34 166.228 1014.34 166.228Z" fill="#F2F2F2"/>
<path d="M1030.89 141.574C1029.25 138.294 1030.04 137.158 1025.42 134.96C1020.8 132.761 1021.8 130.154 1013.51 130.398C1005.23 130.643 1001.16 131.665 999.761 132.703C998.364 133.742 1000.25 135.603 1001.3 136.027C1002.36 136.451 1008.06 137.23 1009.59 140.913C1011.12 144.596 1010.8 144.78 1009.94 147.539C1009.08 150.299 1009.96 152.832 1011.86 153.313C1015.58 153.497 1019.3 152.903 1022.79 151.572C1025.59 150.409 1031.99 149.138 1031.5 146.257C1031.02 143.376 1030.89 141.574 1030.89 141.574Z" fill="#F2F2F2"/>
<path d="M1005.23 106.113L1001.44 107.608C1001.38 107.635 1001.33 107.672 1001.31 107.715C1001.28 107.758 1001.28 107.806 1001.3 107.852C1001.33 107.899 1001.37 107.942 1001.44 107.979C1001.5 108.016 1001.58 108.044 1001.67 108.061L1006.94 109.094L1005.23 106.113Z" fill="black"/>
<path d="M1007.71 106.113L1011.5 107.608C1011.56 107.635 1011.61 107.672 1011.63 107.715C1011.66 107.758 1011.66 107.806 1011.63 107.852C1011.61 107.899 1011.56 107.942 1011.5 107.979C1011.44 108.016 1011.36 108.044 1011.27 108.061L1006 109.094L1007.71 106.113Z" fill="black"/>
<path d="M1298 315H702V183L1294 202.748L1298 315Z" fill="#42210B"/>
<path d="M962 259C982.987 259 1000 250.717 1000 240.5C1000 230.283 982.987 222 962 222C941.013 222 924 230.283 924 240.5C924 250.717 941.013 259 962 259Z" fill="#CFC212"/>
<path d="M962 255C982.987 255 1000 246.717 1000 236.5C1000 226.283 982.987 218 962 218C941.013 218 924 226.283 924 236.5C924 246.717 941.013 255 962 255Z" fill="#FEED01"/>
<path d="M986 241.335L942.218 241.087C942.218 241.087 934.978 234.556 942.218 228.43C945.22 225.911 959.152 226.999 959.136 229.534L959.043 246" stroke="#141414" stroke-width="1.62" stroke-linecap="round" stroke-linejoin="round"/>
<path d="M964 246L965 229" stroke="#141414" stroke-width="1.62" stroke-linecap="round" stroke-linejoin="round"/>
<g clip-path="url(#clip1_1018_660)">
<path d="M336.799 197.295C335.84 212.634 332.002 240.41 336.799 256.708C341.595 273.006 341.585 276.821 343.503 284.485C345.422 292.149 344.463 293.593 349.248 281.618C354.034 269.643 357.397 266.28 366.98 255.749C376.562 245.218 380.108 252.149 382.663 236.347C385.217 220.545 395.489 203.504 382.663 199.699C369.836 195.894 336.799 197.295 336.799 197.295Z" fill="#B29797"/>
<path d="M337.277 350.117C337.277 332.871 337.04 300.535 340.629 294.067C344.218 287.6 341.588 272.51 358.36 258.142C375.132 243.774 389.974 232.273 396.679 228.92C403.383 225.568 423.507 262.453 429.252 297.42C434.997 332.386 429.252 350.117 429.252 350.117H337.277Z" fill="#231B14"/>
<path d="M331.489 141.332C326.38 124.086 320.635 87.6749 331.489 65.9556C342.344 44.2363 345.502 21.8811 373.645 23.1638C401.789 24.4465 429.221 37.8553 433.694 53.8187C438.167 69.7821 426.623 126.64 421.557 134.304C416.491 141.968 398.598 169.152 386.418 174.724C374.238 180.297 346.181 187.487 337.914 174.627C329.646 161.768 331.489 141.332 331.489 141.332Z" fill="#B29797"/>
<path d="M396.647 37.2194C380.037 32.7462 372.373 19.3266 361.508 37.2194C350.643 55.1122 355.763 71.0648 349.371 84.4844C342.979 97.904 335.359 100.448 334.044 115.139C332.729 129.831 331.489 124.722 338.517 147.077C345.545 169.432 351.29 200.098 352.529 232.671C353.769 265.245 360.193 276.746 358.274 304.889C356.356 333.033 349.328 317.662 356.356 341.3C363.384 364.938 338.474 366.846 325.701 364.938C312.928 363.03 305.221 367.816 305.9 352.327C306.579 336.838 309.134 320.217 309.134 294.671C309.134 269.125 307.14 251.879 305.9 223.132C304.661 194.385 302.742 187.368 302.742 156.702C302.742 126.037 295.078 124.129 302.742 91.5553C310.406 58.9818 307.215 37.2625 332.125 23.2069C357.035 9.15137 378.754 -4.30057 406.865 13.5815C434.976 31.4635 446.467 65.3197 450.336 86.403C454.206 107.486 453.57 175.867 454.173 198.179C454.777 220.491 453.537 291.437 454.173 315.668C454.809 339.899 454.54 350.796 454.357 359.743C454.173 368.689 374.712 360.82 365.97 356.509C357.229 352.197 362.737 330.963 368.525 318.783C374.313 306.603 376.167 233.631 379.994 217.064C379.994 217.064 384.532 165.886 409.096 147.357C418.431 140.319 421.546 121.973 424.424 109.998C425.2 106.764 425.804 104.091 426.278 101.644C427.561 95.0261 427.905 90.0894 428.261 80.2915C428.735 66.8826 434.481 60.6525 423.465 50.1108C412.449 39.5691 414.842 39.1703 405.744 38.1356L396.647 37.2194Z" fill="#3F3328"/>
<path d="M356.117 134.067C359.351 130.553 364.428 125.756 371.768 127.039C379.108 128.322 378.796 124.485 384.541 128.311C390.286 132.138 394.878 135.856 393.487 140.448C392.097 145.04 385.608 156.778 376.931 156.616C368.254 156.455 362.347 153.232 359.232 149.071C356.117 144.91 356.117 134.067 356.117 134.067Z" fill="#070707"/>
<path d="M392.334 136.6C384.099 135.889 368.804 135.835 357.508 138.68C357.848 140.173 358.431 141.601 359.232 142.906C362.348 147.476 368.254 151.011 376.931 151.205C384.131 151.367 389.812 142.528 392.334 136.6Z" fill="white"/>
<path d="M356.117 134.067C359.351 130.553 364.428 125.756 371.768 127.039C379.108 128.322 378.796 124.485 384.541 128.311C390.286 132.138 394.878 135.856 393.487 140.448C392.097 145.04 385.608 156.778 376.931 156.616C368.254 156.455 362.347 153.232 359.232 149.071C356.117 144.91 356.117 134.067 356.117 134.067Z" stroke="#665757" stroke-width="6" stroke-miterlimit="10"/>
<path d="M421.746 120.496C426.693 118.578 429.722 117.931 429.722 120.496C429.722 123.062 423.503 136.665 419.665 136.934C415.828 137.203 421.746 120.496 421.746 120.496Z" fill="#B29797"/>
<path d="M419.882 141.073C420.804 141.073 421.552 140.04 421.552 138.767C421.552 137.493 420.804 136.46 419.882 136.46C418.959 136.46 418.211 137.493 418.211 138.767C418.211 140.04 418.959 141.073 419.882 141.073Z" fill="#C69C6D"/>
<path d="M420.788 181.213C427.229 181.213 432.45 174.023 432.45 165.153C432.45 156.283 427.229 149.093 420.788 149.093C414.347 149.093 409.125 156.283 409.125 165.153C409.125 174.023 414.347 181.213 420.788 181.213Z" fill="#C69C6D"/>
<path d="M372.889 116.821C371.423 114.665 369.935 112.984 371.929 113.07C373.923 113.156 376.241 114.342 376.931 115.7C377.283 116.248 377.484 116.881 377.513 117.532C377.513 117.532 373.579 117.823 372.889 116.821Z" fill="#8E7B7B"/>
<path d="M382.633 117.931C383.327 116.78 384.358 115.87 385.586 115.323C386.384 114.902 387.817 115.635 386.783 116.627C385.748 117.618 382.633 117.931 382.633 117.931Z" fill="#8E7B7B"/>
<path d="M313.325 364.453C313.325 332.515 321.624 257.139 306.297 236.067C290.969 214.994 245.343 187.239 219.29 210.693C193.238 234.148 175.798 272.434 182.642 312.014C189.487 351.594 200.966 386.765 232.225 388.684C263.483 390.602 313.325 364.453 313.325 364.453Z" fill="#8C8989"/>
<path d="M186.519 170.273C183.005 153.35 179.814 130.391 186.519 102.884C193.223 75.3763 187.801 65.8371 206.319 60.7279C224.837 55.6188 231.865 49.8737 250.071 57.4943C268.276 65.1149 281.696 88.4726 284.886 97.3759C288.077 106.279 289.672 123.568 293.833 134.433C297.993 145.298 300.85 180.103 296.7 191.281C292.55 202.458 296.064 229.923 283.927 238.222C271.79 246.522 249.435 245.886 240.661 238.222C231.887 230.559 207.915 205.013 198.979 194.795C190.043 184.576 186.519 170.273 186.519 170.273Z" fill="#EFC5C5"/>
<path d="M329.93 208.117C329.93 208.117 283.139 290.834 279.787 298.497C276.435 306.161 243.376 369.885 229.482 378.983C215.588 388.08 150.797 401.5 139.846 387.606C128.894 373.712 115.949 313.836 114.99 306.161C112.619 287.244 129.358 275.032 150.916 272.628C172.473 270.225 182.056 266.409 190.204 278.384C198.353 290.36 194.516 301.375 194.516 301.375C194.516 301.375 291.277 206.522 293.196 199.333C295.114 192.143 297.507 181.612 306.13 177.775C314.753 173.938 333.918 158.136 343.975 152.391C354.031 146.646 354.84 141.526 364.454 140.092C374.069 138.659 383.457 134.39 394.473 138.228C405.489 142.065 411.558 148.554 424.967 149.513C438.375 150.472 445.576 147.594 448.443 150.472C451.31 153.35 449.521 158.912 444.25 163.763C438.979 168.613 406.966 158.061 394.15 161.327C394.15 161.327 390.076 165.487 390.798 174.584C391.52 183.682 399.097 193.825 397.19 198.136C395.282 202.448 383.501 204.366 383.501 204.366C383.501 204.366 378.478 210.618 370.34 209.659C370.34 209.659 362.191 222.593 354.527 218.045C354.527 218.045 340.396 199.343 338.715 198.395C337.033 197.446 329.93 208.117 329.93 208.117Z" fill="#D8B6B6"/>
<path d="M393.729 168.079C400.102 168.121 402.254 167.152 404.665 171.01C407.075 174.867 406.708 184.072 399.476 186.464C392.244 188.856 391.968 182.697 390.759 178.766C390.183 176.903 388.381 168.038 393.729 168.079Z" fill="#D8B6B6" stroke="#DBB4B4" stroke-miterlimit="10"/>
<path d="M123.613 266.883C123.613 241.974 115.464 224.242 144.686 226.161C173.907 228.08 199.302 222.809 202.654 250.597C206.006 278.384 201.221 286.048 198.828 293.227C196.435 300.405 179.243 320.055 159.539 321.974C139.835 323.892 116.909 325.326 115.949 307.121C114.99 288.915 123.613 266.883 123.613 266.883Z" fill="#CCC6C6"/>
<path d="M228.05 62.9592C206.967 64.5652 207.926 55.9422 202.817 69.987C197.708 84.0317 196.425 95.2201 197.072 109.588C197.719 123.956 198.667 130.068 194.83 149.049C190.993 168.031 184.299 165.487 192.922 179.855C201.545 194.223 242.742 232.229 248.487 248.204C254.232 264.178 280.748 294.833 281.707 303.768C282.666 312.704 280.748 325.811 281.707 331.233C282.666 336.654 271.165 343.37 271.478 341.462C271.791 339.554 266.369 331.233 257.746 320.055C248.741 308.779 237.825 299.173 225.496 291.675C214.318 284.97 208.885 287.525 205.372 277.306C201.858 267.088 185.409 235.064 163.14 232.197C140.871 229.33 134.156 250.597 133.671 262.572C133.186 274.547 135.59 287.244 130.082 302.572C124.574 317.899 119.303 318.147 119.303 318.147C119.303 318.147 107.328 170.596 145.646 104.479C183.965 38.362 175.773 43.6436 199.756 38.847C223.739 34.0504 235.229 24.9639 252.96 38.847C270.691 52.7301 308.05 126.522 309.01 133.226C309.969 139.931 310.443 163.881 309.01 179.219C307.576 194.558 300.861 229.513 298.468 227.12C296.075 224.727 298.684 175.382 296.183 154.31C293.682 133.237 276.91 67.1198 245.771 60.4046L228.05 62.9592Z" fill="#C69C6D"/>
<path d="M250.45 161.855C248.747 160.723 251.161 157.662 254.632 158.858C255.793 159.201 256.854 159.819 257.725 160.658C257.841 160.781 257.923 160.931 257.964 161.094C258.005 161.257 258.003 161.429 257.959 161.591C257.915 161.753 257.829 161.902 257.711 162.021C257.592 162.141 257.445 162.229 257.283 162.275C255.656 162.771 252.681 163.342 250.45 161.855Z" fill="#D8AFAF"/>
<path d="M281.104 209.842C279.67 202.458 280.468 196.713 280.942 186.204C281.071 183.585 281.287 181.278 281.502 179.241C279.05 176.258 275.941 173.881 272.42 172.296C268.898 170.711 265.058 169.96 261.199 170.102C257.339 170.244 253.565 171.275 250.169 173.114C246.773 174.953 243.848 177.552 241.621 180.707C240.598 186.255 240.384 191.923 240.985 197.532C241.783 205.25 242.763 206.393 243.701 214.283C243.701 214.38 243.701 214.466 243.701 214.563C246.046 217.112 248.895 219.146 252.066 220.538C255.238 221.93 258.664 222.648 262.127 222.648C265.591 222.648 269.017 221.93 272.189 220.538C275.36 219.146 278.209 217.112 280.554 214.563C281.155 213.066 281.345 211.436 281.104 209.842Z" fill="#070707"/>
<path d="M261.259 168.796C251.677 169.475 249.284 171.232 244.973 173.927C243.822 174.731 242.934 175.856 242.418 177.161C244.574 179.424 248.433 180.901 253.121 180.901C258.381 180.901 273.515 179.37 281.642 176.967C282.235 172.72 282.644 170.057 280.898 168.214C278.344 165.563 270.842 168.16 261.259 168.796Z" fill="white"/>
<path d="M266.012 158.017C268.631 156.12 272.156 157.489 271.024 159.181C269.44 161.553 266.195 162.092 264.557 162.221C264.126 162.221 263.328 161.779 263.533 161.413C263.598 161.37 263.425 159.882 266.012 158.017Z" fill="#D8AFAF"/>
<path d="M264.699 190.354C260.387 191.151 257.746 193.792 254.394 192.757C251.969 192.003 245.771 192.553 240.727 193.997C240.727 195.258 240.867 196.476 240.985 197.576C241.783 205.293 242.764 206.436 243.701 214.326C243.701 214.423 243.701 214.509 243.701 214.606C246.047 217.155 248.895 219.189 252.067 220.581C255.238 221.973 258.664 222.691 262.128 222.691C265.591 222.691 269.017 221.973 272.189 220.581C275.361 219.189 278.209 217.155 280.554 214.606C281.129 213.118 281.3 211.504 281.05 209.928C279.897 203.978 280.188 199.085 280.597 191.917C274.076 190.354 267.091 189.858 264.699 190.354Z" fill="#470808"/>
<path d="M281.103 210.198C280.764 208.507 280.533 206.797 280.413 205.078C277.977 205.132 277.794 210.941 275.994 214.423C273.838 218.616 266.174 218.853 258.036 218.982C249.898 219.112 247.494 209.519 246.05 207.956C245.36 207.212 244.175 208.3 243.086 210.111C243.312 211.34 243.528 212.741 243.743 214.509C243.743 222.054 251.72 225.525 261.582 226.959C271.445 228.392 282.504 217.376 281.103 210.198Z" fill="white"/>
<path d="M240.984 198.222C240.186 190.677 240.66 178.422 244.972 175.22C249.283 172.019 251.676 169.95 261.259 169.152C270.841 168.354 278.343 165.325 280.898 168.516C283.452 171.707 281.383 176.977 280.898 187.196C280.413 197.414 279.626 203.008 281.059 210.198C282.493 217.387 271.402 228.403 261.539 227.002C251.676 225.601 243.7 222.054 243.7 214.552C242.762 206.835 241.781 205.724 240.984 198.222Z" stroke="#C48383" stroke-width="4" stroke-miterlimit="10"/>
<path d="M329.929 208.117C329.929 208.117 295.836 268.382 283.775 290.801C281.694 294.649 251.805 244.291 251.805 244.291C251.805 244.291 292.549 201.747 293.195 199.333C295.114 192.154 297.507 181.612 306.13 177.775C314.753 173.938 333.918 158.136 343.974 152.391C354.031 146.646 354.839 141.526 364.454 140.092C374.069 138.659 383.457 134.39 394.473 138.228C405.489 142.065 411.557 148.554 424.966 149.513C438.375 150.472 445.575 147.594 448.442 150.472C451.309 153.35 449.52 158.912 444.249 163.763C438.979 168.613 406.966 158.061 394.15 161.327C394.15 161.327 390.075 165.487 390.797 174.584C391.519 183.682 399.097 193.825 397.189 198.136C395.281 202.448 383.5 204.366 383.5 204.366C383.5 204.366 378.477 210.618 370.339 209.659C370.339 209.659 362.19 222.593 354.527 218.045C354.527 218.045 340.68 209.066 338.998 208.117C337.317 207.169 329.929 208.117 329.929 208.117Z" fill="#D8B6B6"/>
<path d="M340 176.116C342.83 175.745 349.742 176.116 351.47 179.422C353.198 182.728 370 210 370 210" stroke="#C6A3A3" stroke-miterlimit="10"/>
<path d="M356 161.183C359.592 161.043 364.496 159.656 367.107 167.423C369.719 175.19 384 204 384 204" stroke="#C6A3A3" stroke-miterlimit="10"/>
<path d="M364 143C371.243 143.232 378.604 144.141 381.17 152.164C383.736 160.188 391 170 391 170" stroke="#C6A3A3" stroke-miterlimit="10"/>
<path d="M390.78 170.478C390.78 170.478 388.624 180.815 393.733 186.183" stroke="#C6A3A3" stroke-miterlimit="10"/>
<path d="M1124.5 19.5C1107.5 11.5 1087.5 16.5 1077 17C1080.67 19.8334 1091.4 25.5001 1105 25.5001C1122 25.5001 1130 33.5001 1138.5 38.5001C1147 43.5001 1145 64.5001 1147.5 62.5001C1150 60.5001 1151 53.0001 1147.5 41.0001C1144 29.0001 1141.5 27.5 1124.5 19.5Z" fill="#3E3E3E"/>
</g>
</g>
<rect x="1" y="1" width="1278" height="313" rx="19" stroke="#141414" stroke-width="2"/>
<g clip-path="url(#clip2_1018_660)">
<path fill-rule="evenodd" clip-rule="evenodd" d="M870 482.5L796.858 385.472L771 409.5L549 115L684.201 236.024L648 188L738.521 269.029L692 216L1012 462.132L950.798 511L900.738 453.937L870 482.5Z" fill="white"/>
<path d="M796.858 385.472L797.657 384.87L796.989 383.985L796.177 384.739L796.858 385.472ZM870 482.5L869.201 483.102L869.869 483.987L870.681 483.233L870 482.5ZM771 409.5L770.201 410.102L770.869 410.987L771.681 410.233L771 409.5ZM549 115L549.667 114.255L548.201 115.602L549 115ZM684.201 236.024L683.534 236.769L685 235.422L684.201 236.024ZM648 188L648.667 187.255L647.201 188.602L648 188ZM738.521 269.029L737.854 269.774L739.273 268.37L738.521 269.029ZM692 216L692.61 215.207L691.248 216.659L692 216ZM1012 462.132L1012.62 462.914L1013.62 462.118L1012.61 461.34L1012 462.132ZM950.798 511L950.046 511.659L950.676 512.377L951.422 511.781L950.798 511ZM900.738 453.937L901.49 453.278L900.811 452.504L900.057 453.205L900.738 453.937ZM796.06 386.074L869.201 483.102L870.799 481.898L797.657 384.87L796.06 386.074ZM771.681 410.233L797.539 386.204L796.177 384.739L770.319 408.767L771.681 410.233ZM548.201 115.602L770.201 410.102L771.799 408.898L549.799 114.398L548.201 115.602ZM684.868 235.278L549.667 114.255L548.333 115.745L683.534 236.769L684.868 235.278ZM647.201 188.602L683.403 236.626L685 235.422L648.799 187.398L647.201 188.602ZM739.188 268.284L648.667 187.255L647.333 188.745L737.854 269.774L739.188 268.284ZM691.248 216.659L737.77 269.689L739.273 268.37L692.752 215.341L691.248 216.659ZM1012.61 461.34L692.61 215.207L691.39 216.793L1011.39 462.925L1012.61 461.34ZM951.422 511.781L1012.62 462.914L1011.38 461.351L950.174 510.219L951.422 511.781ZM899.986 454.597L950.046 511.659L951.55 510.341L901.49 453.278L899.986 454.597ZM870.681 483.233L901.419 454.67L900.057 453.205L869.319 481.767L870.681 483.233Z" fill="black"/>
</g>
<g clip-path="url(#clip3_1018_660)">
<path fill-rule="evenodd" clip-rule="evenodd" d="M585.5 127.5L311 -118.215L363.5 -167L450.294 -51.8609L479.5 -79L527.558 -15.2475L558.5 -44L780.5 250.5L618.717 105.682L701.5 215.5L548.795 78.8082L585.5 127.5Z" fill="white"/>
<path d="M311 -118.215L310.319 -118.948L309.516 -118.201L310.333 -117.47L311 -118.215ZM585.5 127.5L584.833 128.245L586.299 126.898L585.5 127.5ZM363.5 -167L364.299 -167.602L363.631 -168.487L362.819 -167.733L363.5 -167ZM450.294 -51.8609L449.496 -51.259L450.163 -50.3738L450.975 -51.1284L450.294 -51.8609ZM479.5 -79L480.299 -79.602L479.631 -80.4871L478.819 -79.7326L479.5 -79ZM527.558 -15.2475L526.759 -14.6456L527.427 -13.7604L528.239 -14.515L527.558 -15.2475ZM558.5 -44L559.299 -44.602L558.631 -45.4871L557.819 -44.7326L558.5 -44ZM780.5 250.5L779.833 251.245L781.299 249.898L780.5 250.5ZM618.717 105.682L619.384 104.937L617.918 106.284L618.717 105.682ZM701.5 215.5L700.833 216.245L702.299 214.898L701.5 215.5ZM548.795 78.8082L549.462 78.0631L547.997 79.4101L548.795 78.8082ZM310.333 -117.47L584.833 128.245L586.167 126.755L311.667 -118.96L310.333 -117.47ZM362.819 -167.733L310.319 -118.948L311.681 -117.483L364.181 -166.267L362.819 -167.733ZM451.093 -52.4629L364.299 -167.602L362.701 -166.398L449.496 -51.259L451.093 -52.4629ZM450.975 -51.1284L480.181 -78.2674L478.819 -79.7326L449.613 -52.5935L450.975 -51.1284ZM478.701 -78.398L526.759 -14.6456L528.356 -15.8495L480.299 -79.602L478.701 -78.398ZM528.239 -14.515L559.181 -43.2674L557.819 -44.7326L526.877 -15.9801L528.239 -14.515ZM557.701 -43.398L779.701 251.102L781.299 249.898L559.299 -44.602L557.701 -43.398ZM781.167 249.755L619.384 104.937L618.05 106.427L779.833 251.245L781.167 249.755ZM617.918 106.284L700.701 216.102L702.299 214.898L619.516 105.08L617.918 106.284ZM702.167 214.755L549.462 78.0631L548.128 79.5533L700.833 216.245L702.167 214.755ZM586.299 126.898L549.594 78.2062L547.997 79.4101L584.701 128.102L586.299 126.898Z" fill="#141414"/>
<path d="M347.999 193C345.999 190 345.999 185 348.999 183" stroke="#C6A3A3"/>
</g>
<defs>
<linearGradient id="paint0_linear_1018_660" x1="0" y1="157.5" x2="1280" y2="157.5" gradientUnits="userSpaceOnUse">
<stop stop-color="#F5F7FA"/>
<stop offset="1" stop-color="#C3CFE2"/>
</linearGradient>
<clipPath id="clip0_1018_660">
<rect width="1280" height="315" rx="20" fill="white"/>
</clipPath>
<clipPath id="clip1_1018_660">
<rect x="7" y="5" width="1295" height="310" rx="20" fill="white"/>
</clipPath>
<clipPath id="clip2_1018_660">
<rect width="463" height="200" fill="white" transform="translate(549 115)"/>
</clipPath>
<clipPath id="clip3_1018_660">
<rect width="470" height="251" fill="white" transform="translate(311)"/>
</clipPath>
</defs>
</svg>
