<svg width="1121" height="315" viewBox="0 0 1121 315" fill="none" xmlns="http://www.w3.org/2000/svg">
<g clip-path="url(#clip0_1018_663)">
<rect width="1121" height="315" rx="20" fill="url(#paint0_linear_1018_663)"/>
<path d="M786.355 50.945C784.023 27.4095 802.51 7 826.16 7H1025.49C1049.27 7 1067.8 27.6134 1065.27 51.2531L1042.41 265H807.57L786.355 50.945Z" fill="#333333"/>
<path d="M909.84 129.887C914.454 131.833 917.89 132.478 922.487 137.038C925.917 140.44 924.138 188.504 915.873 206.514L960.318 212.334C961.694 197.486 963.424 176.367 965.204 171.985C965.204 171.985 968.757 167.741 969.49 151.81C970.223 135.879 959.222 106.875 957.211 102.881C955.199 98.8865 949.958 97.2099 943.477 92.8298C936.997 88.4498 927.457 87.6044 920.837 87.6688C914.216 87.7331 911.004 91.3737 904.229 96.7185C897.454 102.063 898.169 103.841 896.136 109.143C894.104 114.444 896.858 114.608 900.411 122.422C903.964 130.237 905.226 127.94 909.84 129.887Z" fill="#252525"/>
<path d="M900.8 136.087C905.16 137.927 908.407 138.536 912.751 142.846C915.992 146.061 914.312 191.48 906.501 208.5L948.501 214C949.801 199.968 951.437 180.011 953.118 175.87C953.118 175.87 956.476 171.86 957.169 156.805C957.861 141.75 947.465 114.342 945.565 110.567C943.664 106.793 938.711 105.208 932.587 101.069C926.463 96.93 917.448 96.1311 911.192 96.1919C904.935 96.2527 901.9 99.6931 895.498 104.744C889.095 109.795 889.771 111.474 887.85 116.485C885.929 121.495 888.532 121.649 891.889 129.034C895.247 136.418 896.44 134.248 900.8 136.087Z" fill="white"/>
<path d="M909.495 107.955C909.4 107.706 909.386 107.446 909.454 107.19C909.522 106.933 909.671 106.685 909.892 106.46C910.112 106.234 910.401 106.036 910.74 105.877C911.08 105.718 911.464 105.6 911.87 105.531C912.483 105.424 913.125 105.431 913.715 105.551C914.304 105.671 914.814 105.899 915.181 106.205C915.548 106.512 915.754 106.883 915.774 107.273C915.793 107.662 915.626 108.052 915.292 108.393C914.958 108.733 914.473 109.009 913.899 109.186C913.324 109.363 912.686 109.432 912.065 109.385C911.444 109.339 910.869 109.177 910.411 108.923C909.954 108.668 909.635 108.331 909.495 107.955V107.955Z" fill="black"/>
<path d="M896.84 111.532C898.022 114.192 892.254 114.267 894.589 118.875C896.925 123.484 899.619 121.836 901.684 125.795C903.749 129.753 905.718 130.167 903.389 132.589C901.061 135.01 867.891 143.166 863.851 143.039C859.811 142.913 857.28 141.795 859.87 139.646C862.46 137.497 870.224 129.657 876.889 123.845C883.554 118.034 884.624 115.126 889.597 112.906C894.57 110.687 896.224 110.103 896.84 111.532Z" fill="#F7931E"/>
<path d="M920.344 166.228C919.588 172.213 917.623 186.635 916.027 193.5C914.701 199.2 913.069 204.829 911.14 210.362C909.167 216.208 907.294 218.811 905.349 226.032C903.404 233.252 897.773 239.359 900.114 243.25C902.455 247.14 908.08 248.892 909.945 245.961C913.187 240.838 915.214 235.068 915.879 229.077C916.76 221.017 920.339 208.798 921.092 202.628C921.844 196.458 923.809 182.056 923.868 176.762C923.926 171.468 925.983 168.676 923.482 166.163C920.982 163.65 920.344 166.228 920.344 166.228Z" fill="#F2F2F2"/>
<path d="M936.886 141.574C935.246 138.294 936.036 137.158 931.418 134.96C926.799 132.761 927.801 130.154 919.514 130.398C911.226 130.643 907.157 131.665 905.761 132.703C904.364 133.742 906.252 135.603 907.305 136.027C908.358 136.451 914.062 137.23 915.589 140.913C917.116 144.596 916.797 144.78 915.94 147.539C915.083 150.299 915.955 152.832 917.862 153.313C921.578 153.497 925.303 152.903 928.787 151.572C931.594 150.409 937.988 149.138 937.502 146.257C937.016 143.376 936.886 141.574 936.886 141.574Z" fill="#F2F2F2"/>
<path d="M911.231 106.113L907.441 107.608C907.376 107.635 907.329 107.672 907.305 107.715C907.281 107.758 907.281 107.806 907.304 107.852C907.327 107.899 907.373 107.942 907.437 107.979C907.501 108.016 907.58 108.044 907.667 108.061L912.936 109.094L911.231 106.113Z" fill="black"/>
<path d="M913.707 106.113L917.497 107.608C917.561 107.635 917.608 107.672 917.632 107.715C917.656 107.758 917.657 107.806 917.634 107.852C917.611 107.899 917.564 107.942 917.501 107.979C917.437 108.016 917.357 108.044 917.271 108.061L912.002 109.094L913.707 106.113Z" fill="black"/>
<path d="M1204 315H608V183L1200 202.748L1204 315Z" fill="#42210B"/>
<path d="M868 259C888.987 259 906 250.717 906 240.5C906 230.283 888.987 222 868 222C847.013 222 830 230.283 830 240.5C830 250.717 847.013 259 868 259Z" fill="#CFC212"/>
<path d="M868 255C888.987 255 906 246.717 906 236.5C906 226.283 888.987 218 868 218C847.013 218 830 226.283 830 236.5C830 246.717 847.013 255 868 255Z" fill="#FEED01"/>
<path d="M892 241.335L848.218 241.087C848.218 241.087 840.978 234.556 848.218 228.43C851.22 225.911 865.152 226.999 865.136 229.534L865.043 246" stroke="#141414" stroke-width="1.62" stroke-linecap="round" stroke-linejoin="round"/>
<path d="M870 246L871 229" stroke="#141414" stroke-width="1.62" stroke-linecap="round" stroke-linejoin="round"/>
<path d="M1030.5 19.5C1013.5 11.5 993.5 16.5 983 17C986.667 19.8333 997.4 25.5 1011 25.5C1028 25.5 1036 33.5 1044.5 38.5C1053 43.5 1051 64.5 1053.5 62.5C1056 60.5 1057 53 1053.5 41C1050 29 1047.5 27.5 1030.5 19.5Z" fill="#3E3E3E"/>
<g clip-path="url(#clip1_1018_663)">
<path d="M229.076 197.295C228.117 212.634 224.28 240.41 229.076 256.708C233.873 273.006 233.862 276.821 235.781 284.485C237.699 292.149 236.74 293.593 241.526 281.618C246.312 269.643 249.675 266.28 259.257 255.749C268.839 245.218 272.385 252.149 274.94 236.347C277.495 220.545 287.767 203.504 274.94 199.699C262.113 195.894 229.076 197.295 229.076 197.295Z" fill="#B29797"/>
<path d="M229.554 350.117C229.554 332.871 229.317 300.535 232.906 294.067C236.496 287.6 233.866 272.51 250.637 258.142C267.409 243.774 282.252 232.273 288.956 228.92C295.66 225.568 315.784 262.453 321.53 297.42C327.275 332.386 321.53 350.117 321.53 350.117H229.554Z" fill="#231B14"/>
<path d="M223.767 141.332C218.658 124.086 212.913 87.6749 223.767 65.9556C234.621 44.2363 237.779 21.8811 265.923 23.1638C294.066 24.4465 321.498 37.8553 325.971 53.8187C330.445 69.7821 318.9 126.64 313.834 134.304C308.768 141.968 290.876 169.152 278.696 174.724C266.516 180.297 238.458 187.487 230.191 174.627C221.924 161.768 223.767 141.332 223.767 141.332Z" fill="#B29797"/>
<path d="M288.924 37.2194C272.314 32.7462 264.65 19.3266 253.785 37.2194C242.92 55.1122 248.04 71.0648 241.648 84.4844C235.257 97.904 227.636 100.448 226.321 115.139C225.006 129.831 223.766 124.722 230.794 147.077C237.822 169.432 243.567 200.098 244.807 232.671C246.046 265.245 252.47 276.746 250.552 304.889C248.633 333.033 241.605 317.662 248.633 341.3C255.661 364.938 230.751 366.846 217.978 364.938C205.205 363.03 197.498 367.816 198.178 352.327C198.857 336.838 201.411 320.217 201.411 294.671C201.411 269.125 199.417 251.879 198.178 223.132C196.938 194.385 195.019 187.368 195.019 156.702C195.019 126.037 187.356 124.129 195.019 91.5553C202.683 58.9818 199.493 37.2625 224.402 23.2069C249.312 9.15137 271.031 -4.30057 299.143 13.5815C327.254 31.4635 338.744 65.3197 342.613 86.403C346.483 107.486 345.847 175.867 346.451 198.179C347.054 220.491 345.815 291.437 346.451 315.668C347.087 339.899 346.817 350.796 346.634 359.743C346.451 368.689 266.989 360.821 258.248 356.509C249.506 352.197 255.014 330.963 260.802 318.783C266.591 306.603 268.445 233.631 272.271 217.064C272.271 217.064 276.809 165.886 301.374 147.357C310.708 140.319 313.823 121.973 316.701 109.998C317.477 106.764 318.081 104.091 318.555 101.644C319.838 95.0261 320.183 90.0894 320.538 80.2915C321.013 66.8826 326.758 60.6525 315.742 50.1108C304.726 39.5691 307.119 39.1703 298.022 38.1356L288.924 37.2194Z" fill="#3F3328"/>
<path d="M248.395 134.067C251.628 130.553 256.705 125.756 264.045 127.039C271.386 128.322 271.073 124.485 276.818 128.311C282.563 132.138 287.155 135.856 285.765 140.448C284.374 145.04 277.885 156.778 269.208 156.616C260.531 156.455 254.625 153.232 251.51 149.071C248.395 144.91 248.395 134.067 248.395 134.067Z" fill="#070707"/>
<path d="M284.611 136.6C276.376 135.889 261.081 135.835 249.785 138.68C250.125 140.173 250.708 141.601 251.51 142.906C254.625 147.476 260.532 151.011 269.209 151.205C276.409 151.367 282.089 142.528 284.611 136.6Z" fill="white"/>
<path d="M248.395 134.067C251.628 130.553 256.705 125.756 264.045 127.039C271.386 128.322 271.073 124.485 276.818 128.311C282.563 132.138 287.155 135.856 285.765 140.448C284.374 145.04 277.885 156.778 269.208 156.616C260.531 156.455 254.625 153.232 251.51 149.071C248.395 144.91 248.395 134.067 248.395 134.067Z" stroke="#665757" stroke-width="6" stroke-miterlimit="10"/>
<path d="M314.023 120.496C318.97 118.578 321.999 117.931 321.999 120.496C321.999 123.062 315.78 136.665 311.943 136.934C308.105 137.203 314.023 120.496 314.023 120.496Z" fill="#B29797"/>
<path d="M312.159 141.073C313.082 141.073 313.83 140.04 313.83 138.767C313.83 137.493 313.082 136.46 312.159 136.46C311.236 136.46 310.488 137.493 310.488 138.767C310.488 140.04 311.236 141.073 312.159 141.073Z" fill="#C69C6D"/>
<path d="M313.065 181.213C319.506 181.213 324.728 174.023 324.728 165.153C324.728 156.283 319.506 149.093 313.065 149.093C306.624 149.093 301.402 156.283 301.402 165.153C301.402 174.023 306.624 181.213 313.065 181.213Z" fill="#C69C6D"/>
<path d="M265.166 116.821C263.7 114.665 262.213 112.984 264.207 113.07C266.201 113.156 268.518 114.342 269.208 115.7C269.561 116.248 269.762 116.881 269.79 117.532C269.79 117.532 265.856 117.823 265.166 116.821Z" fill="#8E7B7B"/>
<path d="M274.91 117.931C275.605 116.78 276.636 115.87 277.864 115.323C278.661 114.902 280.095 115.635 279.06 116.627C278.025 117.618 274.91 117.931 274.91 117.931Z" fill="#8E7B7B"/>
<path d="M205.602 364.453C205.602 332.515 213.902 257.139 198.574 236.067C183.247 214.994 137.62 187.239 111.568 210.693C85.5153 234.148 68.0752 272.434 74.9198 312.014C81.7643 351.594 93.2437 386.765 124.502 388.684C155.761 390.602 205.602 364.453 205.602 364.453Z" fill="#8C8989"/>
<path d="M78.7961 170.273C75.2823 153.35 72.0917 130.391 78.7961 102.884C85.5006 75.3763 80.0788 65.8371 98.5968 60.7279C117.115 55.6188 124.143 49.8737 142.348 57.4943C160.553 65.1149 173.973 88.4726 177.163 97.3759C180.354 106.279 181.949 123.568 186.11 134.433C190.27 145.298 193.127 180.103 188.977 191.281C184.827 202.458 188.341 229.923 176.204 238.222C164.067 246.522 141.712 245.886 132.938 238.222C124.164 230.559 100.192 205.013 91.2564 194.795C82.3208 184.576 78.7961 170.273 78.7961 170.273Z" fill="#EFC5C5"/>
<path d="M222.207 208.117C222.207 208.117 175.416 290.834 172.064 298.497C168.712 306.161 135.653 369.885 121.76 378.983C107.866 388.08 43.0744 401.5 32.1231 387.606C21.1718 373.712 8.2265 313.836 7.26719 306.161C4.89585 287.244 21.6353 275.032 43.1929 272.628C64.7505 270.225 74.3329 266.409 82.4817 278.384C90.6304 290.36 86.7932 301.375 86.7932 301.375C86.7932 301.375 183.554 206.522 185.473 199.333C187.392 192.143 189.785 181.612 198.408 177.775C207.031 173.938 226.195 158.136 236.252 152.391C246.309 146.646 247.117 141.526 256.732 140.092C266.346 138.659 275.735 134.39 286.751 138.228C297.767 142.065 303.835 148.554 317.244 149.513C330.653 150.472 337.853 147.594 340.72 150.472C343.587 153.35 341.798 158.912 336.527 163.763C331.256 168.613 299.243 158.061 286.427 161.327C286.427 161.327 282.353 165.487 283.075 174.584C283.797 183.682 291.375 193.825 289.467 198.136C287.559 202.448 275.778 204.366 275.778 204.366C275.778 204.366 270.755 210.618 262.617 209.659C262.617 209.659 254.468 222.593 246.804 218.045C246.804 218.045 232.673 199.343 230.992 198.395C229.31 197.446 222.207 208.117 222.207 208.117Z" fill="#D8B6B6"/>
<path d="M286.006 168.079C292.379 168.121 294.531 167.152 296.942 171.01C299.353 174.867 298.986 184.072 291.753 186.464C284.521 188.856 284.246 182.697 283.036 178.766C282.461 176.903 280.659 168.038 286.006 168.079Z" fill="#D8B6B6" stroke="#DBB4B4" stroke-miterlimit="10"/>
<path d="M15.8906 266.883C15.8906 241.974 7.74179 224.242 36.9631 226.161C66.1845 228.08 91.5793 222.809 94.9315 250.597C98.2837 278.384 93.4979 286.048 91.105 293.227C88.7122 300.405 71.52 320.055 51.8163 321.974C32.1127 323.892 9.18615 325.326 8.22684 307.121C7.26752 288.915 15.8906 266.883 15.8906 266.883Z" fill="#CCC6C6"/>
<path d="M120.328 62.9592C99.2442 64.5652 100.203 55.9422 95.0943 69.987C89.9852 84.0317 88.7025 95.2201 89.3493 109.588C89.996 123.956 90.9445 130.068 87.1072 149.049C83.27 168.031 76.5764 165.487 85.1994 179.855C93.8224 194.223 135.019 232.229 140.764 248.204C146.509 264.178 173.025 294.833 173.984 303.768C174.944 312.704 173.025 325.811 173.984 331.233C174.944 336.654 163.443 343.37 163.755 341.462C164.068 339.554 158.646 331.233 150.023 320.055C141.018 308.779 130.102 299.173 117.773 291.675C106.595 284.97 101.163 287.525 97.6489 277.306C94.135 267.088 77.6866 235.064 55.4176 232.197C33.1486 229.33 26.4334 250.597 25.9483 262.572C25.4633 274.547 27.867 287.244 22.359 302.572C16.851 317.899 11.5802 318.147 11.5802 318.147C11.5802 318.147 -0.395042 170.596 37.9236 104.479C76.2422 38.362 68.0503 43.6436 92.0332 38.847C116.016 34.0504 127.506 24.9639 145.237 38.847C162.968 52.7301 200.328 126.522 201.287 133.226C202.246 139.931 202.721 163.881 201.287 179.219C199.854 194.558 193.138 229.513 190.745 227.12C188.353 224.727 190.961 175.382 188.46 154.31C185.96 133.237 169.188 67.1198 138.048 60.4046L120.328 62.9592Z" fill="#C69C6D"/>
<path d="M142.727 161.855C141.024 160.723 143.438 157.662 146.909 158.858C148.07 159.201 149.131 159.819 150.003 160.658C150.118 160.781 150.201 160.931 150.242 161.094C150.283 161.257 150.281 161.429 150.236 161.591C150.192 161.753 150.106 161.902 149.988 162.021C149.87 162.141 149.723 162.229 149.561 162.275C147.933 162.771 144.958 163.342 142.727 161.855Z" fill="#D8AFAF"/>
<path d="M173.381 209.842C171.947 202.458 172.745 196.713 173.219 186.204C173.349 183.585 173.564 181.278 173.78 179.241C171.327 176.258 168.219 173.881 164.697 172.296C161.175 170.711 157.335 169.96 153.476 170.102C149.617 170.244 145.842 171.275 142.447 173.114C139.051 174.953 136.125 177.552 133.898 180.707C132.876 186.255 132.661 191.923 133.262 197.532C134.06 205.25 135.041 206.393 135.978 214.283C135.978 214.38 135.978 214.466 135.978 214.563C138.324 217.112 141.172 219.146 144.344 220.538C147.515 221.93 150.941 222.648 154.405 222.648C157.868 222.648 161.294 221.93 164.466 220.538C167.638 219.146 170.486 217.112 172.831 214.563C173.432 213.066 173.622 211.436 173.381 209.842V209.842Z" fill="#070707"/>
<path d="M153.537 168.796C143.954 169.475 141.561 171.232 137.25 173.927C136.1 174.731 135.211 175.856 134.695 177.161C136.851 179.424 140.71 180.901 145.399 180.901C150.659 180.901 165.792 179.37 173.919 176.967C174.512 172.72 174.922 170.057 173.176 168.214C170.621 165.563 163.119 168.16 153.537 168.796Z" fill="white"/>
<path d="M158.289 158.017C160.909 156.12 164.433 157.489 163.302 159.181C161.717 161.553 158.473 162.092 156.834 162.221C156.403 162.221 155.606 161.779 155.81 161.413C155.875 161.37 155.703 159.882 158.289 158.017Z" fill="#D8AFAF"/>
<path d="M156.976 190.354C152.664 191.151 150.024 193.792 146.671 192.757C144.246 192.003 138.048 192.553 133.004 193.997C133.004 195.258 133.144 196.476 133.263 197.576C134.06 205.293 135.041 206.436 135.979 214.326C135.979 214.423 135.979 214.509 135.979 214.606C138.324 217.155 141.172 219.189 144.344 220.581C147.516 221.973 150.942 222.691 154.405 222.691C157.869 222.691 161.295 221.973 164.466 220.581C167.638 219.189 170.486 217.155 172.832 214.606C173.407 213.118 173.578 211.504 173.327 209.928C172.174 203.978 172.465 199.085 172.875 191.917C166.354 190.354 159.369 189.858 156.976 190.354Z" fill="#470808"/>
<path d="M173.38 210.198C173.041 208.507 172.811 206.797 172.69 205.078C170.254 205.132 170.071 210.941 168.271 214.423C166.115 218.616 158.451 218.853 150.313 218.982C142.175 219.112 139.772 209.519 138.327 207.956C137.638 207.212 136.452 208.3 135.363 210.111C135.59 211.34 135.805 212.741 136.021 214.509C136.021 222.054 143.997 225.525 153.86 226.959C163.722 228.392 174.781 217.376 173.38 210.198Z" fill="white"/>
<path d="M133.261 198.222C132.463 190.677 132.938 178.422 137.249 175.22C141.561 172.019 143.954 169.95 153.536 169.152C163.118 168.354 170.62 165.325 173.175 168.516C175.73 171.707 173.66 176.977 173.175 187.196C172.69 197.414 171.903 203.008 173.337 210.198C174.77 217.387 163.679 228.403 153.816 227.002C143.954 225.601 135.977 222.054 135.977 214.552C135.04 206.835 134.059 205.724 133.261 198.222Z" stroke="#C48383" stroke-width="4" stroke-miterlimit="10"/>
<path d="M222.207 208.117C222.207 208.117 188.113 268.382 176.052 290.801C173.972 294.649 144.082 244.291 144.082 244.291C144.082 244.291 184.826 201.747 185.473 199.333C187.391 192.154 189.784 181.612 198.407 177.775C207.03 173.938 226.195 158.136 236.252 152.391C246.308 146.646 247.117 141.526 256.731 140.092C266.346 138.659 275.734 134.39 286.75 138.228C297.766 142.065 303.835 148.554 317.243 149.513C330.652 150.472 337.853 147.594 340.72 150.472C343.587 153.35 341.798 158.912 336.527 163.763C331.256 168.613 299.243 158.061 286.427 161.327C286.427 161.327 282.352 165.487 283.075 174.584C283.797 183.682 291.374 193.825 289.466 198.136C287.559 202.448 275.777 204.366 275.777 204.366C275.777 204.366 270.754 210.618 262.617 209.659C262.617 209.659 254.468 222.593 246.804 218.045C246.804 218.045 232.957 209.066 231.275 208.117C229.594 207.169 222.207 208.117 222.207 208.117Z" fill="#D8B6B6"/>
<path d="M232.277 176.116C235.108 175.745 242.019 176.116 243.747 179.422C245.475 182.728 262.277 210 262.277 210" stroke="#C6A3A3" stroke-miterlimit="10"/>
<path d="M248.277 161.183C251.87 161.043 256.773 159.656 259.385 167.423C261.996 175.19 276.277 204 276.277 204" stroke="#C6A3A3" stroke-miterlimit="10"/>
<path d="M256.277 143C263.52 143.232 270.882 144.141 273.447 152.164C276.013 160.188 283.277 170 283.277 170" stroke="#C6A3A3" stroke-miterlimit="10"/>
<path d="M283.057 170.478C283.057 170.478 280.901 180.815 286.01 186.183" stroke="#C6A3A3" stroke-miterlimit="10"/>
</g>
</g>
<rect x="1" y="1" width="1119" height="313" rx="19" stroke="#141414" stroke-width="2"/>
<g clip-path="url(#clip2_1018_663)">
<path fill-rule="evenodd" clip-rule="evenodd" d="M762.277 482.5L689.135 385.472L663.277 409.5L441.277 115L576.478 236.024L540.277 188L630.799 269.029L584.277 216L904.277 462.132L843.075 511L793.015 453.937L762.277 482.5Z" fill="white"/>
<path d="M689.135 385.472L689.934 384.87L689.267 383.985L688.455 384.739L689.135 385.472ZM762.277 482.5L761.479 483.102L762.146 483.987L762.958 483.233L762.277 482.5ZM663.277 409.5L662.479 410.102L663.146 410.987L663.958 410.233L663.277 409.5ZM441.277 115L441.944 114.255L440.479 115.602L441.277 115ZM576.478 236.024L575.812 236.769L577.277 235.422L576.478 236.024ZM540.277 188L540.944 187.255L539.479 188.602L540.277 188ZM630.799 269.029L630.132 269.774L631.55 268.37L630.799 269.029ZM584.277 216L584.887 215.207L583.526 216.659L584.277 216ZM904.277 462.132L904.901 462.914L905.898 462.118L904.887 461.34L904.277 462.132ZM843.075 511L842.323 511.659L842.953 512.377L843.699 511.781L843.075 511ZM793.015 453.937L793.767 453.278L793.088 452.504L792.334 453.205L793.015 453.937ZM688.337 386.074L761.479 483.102L763.076 481.898L689.934 384.87L688.337 386.074ZM663.958 410.233L689.816 386.204L688.455 384.739L662.597 408.767L663.958 410.233ZM440.479 115.602L662.479 410.102L664.076 408.898L442.076 114.398L440.479 115.602ZM577.145 235.278L441.944 114.255L440.61 115.745L575.812 236.769L577.145 235.278ZM539.479 188.602L575.68 236.626L577.277 235.422L541.076 187.398L539.479 188.602ZM631.466 268.284L540.944 187.255L539.61 188.745L630.132 269.774L631.466 268.284ZM583.526 216.659L630.047 269.689L631.55 268.37L585.029 215.341L583.526 216.659ZM904.887 461.34L584.887 215.207L583.668 216.793L903.668 462.925L904.887 461.34ZM843.699 511.781L904.901 462.914L903.653 461.351L842.451 510.219L843.699 511.781ZM792.263 454.597L842.323 511.659L843.827 510.341L793.767 453.278L792.263 454.597ZM762.958 483.233L793.696 454.67L792.334 453.205L761.597 481.767L762.958 483.233Z" fill="black"/>
</g>
<g clip-path="url(#clip3_1018_663)">
<path fill-rule="evenodd" clip-rule="evenodd" d="M477.777 127.5L203.277 -118.215L255.777 -167L342.571 -51.8609L371.777 -79L419.835 -15.2475L450.777 -44L672.777 250.5L510.994 105.682L593.777 215.5L441.072 78.8082L477.777 127.5Z" fill="white"/>
<path d="M203.277 -118.215L202.597 -118.948L201.793 -118.201L202.61 -117.47L203.277 -118.215ZM477.777 127.5L477.11 128.245L478.576 126.898L477.777 127.5ZM255.777 -167L256.576 -167.602L255.909 -168.487L255.097 -167.733L255.777 -167ZM342.571 -51.8609L341.773 -51.259L342.44 -50.3738L343.252 -51.1284L342.571 -51.8609ZM371.777 -79L372.576 -79.602L371.909 -80.4871L371.097 -79.7326L371.777 -79ZM419.835 -15.2475L419.037 -14.6456L419.704 -13.7604L420.516 -14.515L419.835 -15.2475ZM450.777 -44L451.576 -44.602L450.909 -45.4871L450.097 -44.7326L450.777 -44ZM672.777 250.5L672.11 251.245L673.576 249.898L672.777 250.5ZM510.994 105.682L511.661 104.937L510.196 106.284L510.994 105.682ZM593.777 215.5L593.11 216.245L594.576 214.898L593.777 215.5ZM441.072 78.8082L441.739 78.0631L440.274 79.4101L441.072 78.8082ZM202.61 -117.47L477.11 128.245L478.444 126.755L203.944 -118.96L202.61 -117.47ZM255.097 -167.733L202.597 -118.948L203.958 -117.483L256.458 -166.267L255.097 -167.733ZM343.37 -52.4629L256.576 -167.602L254.979 -166.398L341.773 -51.259L343.37 -52.4629ZM343.252 -51.1284L372.458 -78.2674L371.097 -79.7326L341.891 -52.5935L343.252 -51.1284ZM370.979 -78.398L419.037 -14.6456L420.634 -15.8495L372.576 -79.602L370.979 -78.398ZM420.516 -14.515L451.458 -43.2674L450.097 -44.7326L419.155 -15.9801L420.516 -14.515ZM449.979 -43.398L671.979 251.102L673.576 249.898L451.576 -44.602L449.979 -43.398ZM673.444 249.755L511.661 104.937L510.327 106.427L672.11 251.245L673.444 249.755ZM510.196 106.284L592.979 216.102L594.576 214.898L511.793 105.08L510.196 106.284ZM594.444 214.755L441.739 78.0631L440.406 79.5533L593.11 216.245L594.444 214.755ZM478.576 126.898L441.871 78.2062L440.274 79.4101L476.979 128.102L478.576 126.898Z" fill="#141414"/>
<path d="M240.277 193C238.277 190 238.277 185 241.277 183" stroke="#C6A3A3"/>
</g>
<defs>
<linearGradient id="paint0_linear_1018_663" x1="0" y1="157.5" x2="1121" y2="157.5" gradientUnits="userSpaceOnUse">
<stop stop-color="#F5F7FA"/>
<stop offset="1" stop-color="#C3CFE2"/>
</linearGradient>
<clipPath id="clip0_1018_663">
<rect width="1121" height="315" rx="20" fill="white"/>
</clipPath>
<clipPath id="clip1_1018_663">
<rect x="7" y="5" width="1295" height="310" rx="20" fill="white"/>
</clipPath>
<clipPath id="clip2_1018_663">
<rect width="463" height="200" fill="white" transform="translate(441.277 115)"/>
</clipPath>
<clipPath id="clip3_1018_663">
<rect width="470" height="251" fill="white" transform="translate(203.277)"/>
</clipPath>
</defs>
</svg>
