<svg width="1302" height="315" viewBox="0 0 1302 315" fill="none" xmlns="http://www.w3.org/2000/svg">
<rect width="1302" height="315" rx="20" fill="url(#paint0_linear_1018_668)"/>
<path d="M880.355 50.945C878.023 27.4095 896.51 7 920.16 7H1119.49C1143.27 7 1161.8 27.6134 1159.27 51.2531L1136.41 265H901.57L880.355 50.945Z" fill="#333333"/>
<path d="M1003.84 129.887C1008.45 131.833 1011.89 132.478 1016.49 137.038C1019.92 140.44 1018.14 188.504 1009.87 206.514L1054.32 212.334C1055.69 197.486 1057.42 176.367 1059.2 171.985C1059.2 171.985 1062.76 167.741 1063.49 151.81C1064.22 135.879 1053.22 106.875 1051.21 102.881C1049.2 98.8865 1043.96 97.2099 1037.48 92.8298C1031 88.4498 1021.46 87.6044 1014.84 87.6688C1008.22 87.7331 1005 91.3737 998.229 96.7185C991.454 102.063 992.169 103.841 990.136 109.143C988.104 114.444 990.858 114.608 994.411 122.422C997.964 130.237 999.226 127.94 1003.84 129.887Z" fill="#252525"/>
<path d="M994.8 136.087C999.16 137.927 1002.41 138.536 1006.75 142.846C1009.99 146.061 1008.31 191.48 1000.5 208.5L1042.5 214C1043.8 199.968 1045.44 180.011 1047.12 175.87C1047.12 175.87 1050.48 171.86 1051.17 156.805C1051.86 141.75 1041.47 114.342 1039.56 110.567C1037.66 106.793 1032.71 105.208 1026.59 101.069C1020.46 96.93 1011.45 96.1311 1005.19 96.1919C998.935 96.2527 995.9 99.6931 989.498 104.744C983.095 109.795 983.771 111.474 981.85 116.485C979.929 121.495 982.532 121.649 985.889 129.034C989.247 136.418 990.44 134.248 994.8 136.087Z" fill="white"/>
<path d="M1003.5 107.955C1003.4 107.706 1003.39 107.446 1003.45 107.19C1003.52 106.933 1003.67 106.685 1003.89 106.46C1004.11 106.234 1004.4 106.036 1004.74 105.877C1005.08 105.718 1005.46 105.6 1005.87 105.531C1006.48 105.424 1007.13 105.431 1007.71 105.551C1008.3 105.671 1008.81 105.899 1009.18 106.205C1009.55 106.512 1009.75 106.883 1009.77 107.273C1009.79 107.662 1009.63 108.052 1009.29 108.393C1008.96 108.733 1008.47 109.009 1007.9 109.186C1007.32 109.363 1006.69 109.432 1006.07 109.385C1005.44 109.339 1004.87 109.177 1004.41 108.923C1003.95 108.668 1003.63 108.331 1003.5 107.955V107.955Z" fill="black"/>
<path d="M990.84 111.532C992.022 114.192 986.254 114.267 988.589 118.875C990.925 123.484 993.619 121.836 995.684 125.795C997.749 129.753 999.718 130.167 997.389 132.589C995.061 135.01 961.891 143.166 957.851 143.039C953.811 142.913 951.28 141.795 953.87 139.646C956.46 137.497 964.224 129.657 970.889 123.845C977.554 118.034 978.624 115.126 983.597 112.906C988.57 110.687 990.224 110.103 990.84 111.532Z" fill="#F7931E"/>
<path d="M1014.34 166.228C1013.59 172.213 1011.62 186.635 1010.03 193.5C1008.7 199.2 1007.07 204.829 1005.14 210.362C1003.17 216.208 1001.29 218.811 999.349 226.032C997.404 233.252 991.773 239.359 994.114 243.25C996.455 247.14 1002.08 248.892 1003.95 245.961C1007.19 240.838 1009.21 235.068 1009.88 229.077C1010.76 221.017 1014.34 208.798 1015.09 202.628C1015.84 196.458 1017.81 182.056 1017.87 176.762C1017.93 171.468 1019.98 168.676 1017.48 166.163C1014.98 163.65 1014.34 166.228 1014.34 166.228Z" fill="#F2F2F2"/>
<path d="M1030.89 141.574C1029.25 138.294 1030.04 137.158 1025.42 134.96C1020.8 132.761 1021.8 130.154 1013.51 130.398C1005.23 130.643 1001.16 131.665 999.761 132.703C998.364 133.742 1000.25 135.603 1001.3 136.027C1002.36 136.451 1008.06 137.23 1009.59 140.913C1011.12 144.596 1010.8 144.78 1009.94 147.539C1009.08 150.299 1009.96 152.832 1011.86 153.313C1015.58 153.497 1019.3 152.903 1022.79 151.572C1025.59 150.409 1031.99 149.138 1031.5 146.257C1031.02 143.376 1030.89 141.574 1030.89 141.574Z" fill="#F2F2F2"/>
<path d="M1005.23 106.113L1001.44 107.608C1001.38 107.635 1001.33 107.672 1001.31 107.715C1001.28 107.758 1001.28 107.806 1001.3 107.852C1001.33 107.899 1001.37 107.942 1001.44 107.979C1001.5 108.016 1001.58 108.044 1001.67 108.061L1006.94 109.094L1005.23 106.113Z" fill="black"/>
<path d="M1007.71 106.113L1011.5 107.608C1011.56 107.635 1011.61 107.672 1011.63 107.715C1011.66 107.758 1011.66 107.806 1011.63 107.852C1011.61 107.899 1011.56 107.942 1011.5 107.979C1011.44 108.016 1011.36 108.044 1011.27 108.061L1006 109.094L1007.71 106.113Z" fill="black"/>
<path d="M1298 315H702V183L1294 202.748L1298 315Z" fill="#42210B"/>
<path d="M962 259C982.987 259 1000 250.717 1000 240.5C1000 230.283 982.987 222 962 222C941.013 222 924 230.283 924 240.5C924 250.717 941.013 259 962 259Z" fill="#CFC212"/>
<path d="M962 255C982.987 255 1000 246.717 1000 236.5C1000 226.283 982.987 218 962 218C941.013 218 924 226.283 924 236.5C924 246.717 941.013 255 962 255Z" fill="#FEED01"/>
<path d="M986 241.335L942.218 241.087C942.218 241.087 934.978 234.556 942.218 228.43C945.22 225.911 959.152 226.999 959.136 229.534L959.043 246" stroke="#141414" stroke-width="1.62" stroke-linecap="round" stroke-linejoin="round"/>
<path d="M964 246L965 229" stroke="#141414" stroke-width="1.62" stroke-linecap="round" stroke-linejoin="round"/>
<g clip-path="url(#clip0_1018_668)">
<path d="M336.797 197.295C335.838 212.634 332 240.41 336.797 256.708C341.594 273.006 341.583 276.821 343.501 284.485C345.42 292.149 344.461 293.593 349.246 281.618C354.032 269.643 357.395 266.28 366.978 255.749C376.56 245.218 380.106 252.149 382.661 236.347C385.215 220.545 395.488 203.504 382.661 199.699C369.834 195.894 336.797 197.295 336.797 197.295Z" fill="#B29797"/>
<path d="M337.273 350.117C337.273 332.871 337.036 300.535 340.625 294.067C344.214 287.6 341.584 272.51 358.356 258.142C375.128 243.774 389.97 232.273 396.675 228.92C403.379 225.568 423.503 262.453 429.248 297.42C434.993 332.386 429.248 350.117 429.248 350.117H337.273Z" fill="#231B14"/>
<path d="M331.486 141.332C326.376 124.086 320.631 87.6749 331.486 65.9556C342.34 44.2363 345.498 21.8811 373.641 23.1638C401.785 24.4465 429.217 37.8553 433.69 53.8187C438.163 69.7821 426.619 126.64 421.553 134.304C416.487 141.968 398.594 169.152 386.414 174.724C374.234 180.297 346.177 187.487 337.91 174.627C329.642 161.768 331.486 141.332 331.486 141.332Z" fill="#B29797"/>
<path d="M396.643 37.2194C380.033 32.7462 372.369 19.3266 361.504 37.2194C350.639 55.1122 355.759 71.0648 349.367 84.4844C342.975 97.904 335.355 100.448 334.04 115.139C332.725 129.831 331.485 124.722 338.513 147.077C345.541 169.432 351.286 200.098 352.525 232.671C353.765 265.245 360.189 276.746 358.27 304.889C356.352 333.033 349.324 317.662 356.352 341.3C363.38 364.938 338.47 366.846 325.697 364.938C312.924 363.03 305.217 367.816 305.896 352.327C306.575 336.838 309.13 320.217 309.13 294.671C309.13 269.125 307.136 251.879 305.896 223.132C304.657 194.385 302.738 187.368 302.738 156.702C302.738 126.037 295.074 124.129 302.738 91.5553C310.402 58.9818 307.211 37.2625 332.121 23.2069C357.031 9.15137 378.75 -4.30057 406.861 13.5815C434.972 31.4635 446.463 65.3197 450.332 86.403C454.202 107.486 453.566 175.867 454.169 198.179C454.773 220.491 453.534 291.437 454.169 315.668C454.805 339.899 454.536 350.796 454.353 359.743C454.169 368.689 374.708 360.821 365.967 356.509C357.225 352.197 362.733 330.963 368.521 318.783C374.309 306.603 376.163 233.631 379.99 217.064C379.99 217.064 384.528 165.886 409.093 147.357C418.427 140.319 421.542 121.973 424.42 109.998C425.196 106.764 425.8 104.091 426.274 101.644C427.557 95.0261 427.902 90.0894 428.257 80.2915C428.732 66.8826 434.477 60.6525 423.461 50.1108C412.445 39.5691 414.838 39.1703 405.74 38.1356L396.643 37.2194Z" fill="#3F3328"/>
<path d="M356.113 134.067C359.347 130.553 364.424 125.756 371.764 127.039C379.104 128.322 378.792 124.485 384.537 128.311C390.282 132.138 394.874 135.856 393.483 140.448C392.093 145.04 385.604 156.778 376.927 156.616C368.25 156.455 362.343 153.232 359.228 149.071C356.113 144.91 356.113 134.067 356.113 134.067Z" fill="#070707"/>
<path d="M392.33 136.6C384.095 135.889 368.8 135.835 357.504 138.68C357.844 140.173 358.427 141.601 359.229 142.906C362.344 147.476 368.25 151.011 376.927 151.205C384.128 151.367 389.808 142.528 392.33 136.6Z" fill="white"/>
<path d="M356.113 134.067C359.347 130.553 364.424 125.756 371.764 127.039C379.104 128.322 378.792 124.485 384.537 128.311C390.282 132.138 394.874 135.856 393.483 140.448C392.093 145.04 385.604 156.778 376.927 156.616C368.25 156.455 362.343 153.232 359.228 149.071C356.113 144.91 356.113 134.067 356.113 134.067Z" stroke="#665757" stroke-width="6" stroke-miterlimit="10"/>
<path d="M421.746 120.496C426.693 118.578 429.722 117.931 429.722 120.496C429.722 123.062 423.503 136.665 419.665 136.934C415.828 137.204 421.746 120.496 421.746 120.496Z" fill="#B29797"/>
<path d="M419.88 141.073C420.802 141.073 421.55 140.04 421.55 138.767C421.55 137.493 420.802 136.46 419.88 136.46C418.957 136.46 418.209 137.493 418.209 138.767C418.209 140.04 418.957 141.073 419.88 141.073Z" fill="#C69C6D"/>
<path d="M420.786 181.213C427.227 181.213 432.448 174.023 432.448 165.153C432.448 156.283 427.227 149.093 420.786 149.093C414.345 149.093 409.123 156.283 409.123 165.153C409.123 174.023 414.345 181.213 420.786 181.213Z" fill="#C69C6D"/>
<path d="M372.887 116.821C371.421 114.665 369.933 112.984 371.927 113.07C373.922 113.156 376.239 114.342 376.929 115.7C377.282 116.248 377.482 116.881 377.511 117.532C377.511 117.532 373.577 117.823 372.887 116.821Z" fill="#8E7B7B"/>
<path d="M382.629 117.931C383.324 116.78 384.354 115.87 385.582 115.323C386.38 114.902 387.814 115.635 386.779 116.627C385.744 117.618 382.629 117.931 382.629 117.931Z" fill="#8E7B7B"/>
<path d="M313.323 364.453C313.323 332.515 321.622 257.139 306.295 236.067C290.967 214.994 245.341 187.239 219.288 210.693C193.236 234.148 175.796 272.434 182.64 312.014C189.485 351.594 200.964 386.765 232.223 388.684C263.481 390.602 313.323 364.453 313.323 364.453Z" fill="#8C8989"/>
<path d="M186.519 170.273C183.005 153.35 179.814 130.391 186.519 102.884C193.223 75.3763 187.801 65.8371 206.319 60.7279C224.837 55.6188 231.865 49.8737 250.071 57.4943C268.276 65.1149 281.696 88.4726 284.886 97.3759C288.077 106.279 289.672 123.568 293.833 134.433C297.993 145.298 300.85 180.103 296.7 191.281C292.55 202.458 296.064 229.923 283.927 238.222C271.79 246.522 249.435 245.886 240.661 238.222C231.887 230.559 207.915 205.013 198.979 194.795C190.043 184.576 186.519 170.273 186.519 170.273Z" fill="#EFC5C5"/>
<path d="M329.932 208.117C329.932 208.117 283.141 290.834 279.789 298.497C276.437 306.161 243.378 369.885 229.484 378.983C215.59 388.08 150.799 401.5 139.848 387.606C128.896 373.712 115.951 313.836 114.992 306.161C112.62 287.244 129.36 275.032 150.918 272.628C172.475 270.225 182.058 266.409 190.206 278.384C198.355 290.36 194.518 301.375 194.518 301.375C194.518 301.375 291.279 206.522 293.198 199.333C295.116 192.143 297.509 181.612 306.132 177.775C314.755 173.938 333.92 158.136 343.977 152.391C354.033 146.646 354.842 141.526 364.456 140.092C374.071 138.659 383.459 134.39 394.475 138.228C405.491 142.065 411.56 148.554 424.969 149.513C438.377 150.472 445.578 147.594 448.445 150.472C451.312 153.35 449.523 158.912 444.252 163.763C438.981 168.613 406.968 158.061 394.152 161.327C394.152 161.327 390.078 165.487 390.8 174.584C391.522 183.682 399.099 193.825 397.192 198.136C395.284 202.448 383.502 204.366 383.502 204.366C383.502 204.366 378.48 210.618 370.342 209.659C370.342 209.659 362.193 222.593 354.529 218.045C354.529 218.045 340.398 199.343 338.717 198.395C337.035 197.446 329.932 208.117 329.932 208.117Z" fill="#D8B6B6"/>
<path d="M393.729 168.079C400.102 168.121 402.254 167.152 404.665 171.01C407.075 174.867 406.708 184.072 399.476 186.464C392.244 188.856 391.968 182.697 390.759 178.766C390.183 176.903 388.381 168.038 393.729 168.079Z" fill="#D8B6B6" stroke="#DBB4B4" stroke-miterlimit="10"/>
<path d="M123.615 266.883C123.615 241.974 115.466 224.242 144.688 226.161C173.909 228.08 199.304 222.809 202.656 250.597C206.008 278.384 201.223 286.048 198.83 293.227C196.437 300.405 179.245 320.055 159.541 321.974C139.837 323.892 116.911 325.326 115.951 307.121C114.992 288.915 123.615 266.883 123.615 266.883Z" fill="#CCC6C6"/>
<path d="M228.05 62.9592C206.967 64.5652 207.926 55.9422 202.817 69.987C197.708 84.0317 196.425 95.2201 197.072 109.588C197.719 123.956 198.667 130.068 194.83 149.049C190.993 168.031 184.299 165.487 192.922 179.855C201.545 194.223 242.742 232.229 248.487 248.204C254.232 264.178 280.748 294.833 281.707 303.768C282.666 312.704 280.748 325.811 281.707 331.233C282.666 336.654 271.165 343.37 271.478 341.462C271.791 339.554 266.369 331.233 257.746 320.055C248.741 308.779 237.825 299.173 225.496 291.675C214.318 284.97 208.885 287.525 205.372 277.306C201.858 267.088 185.409 235.064 163.14 232.197C140.871 229.33 134.156 250.597 133.671 262.572C133.186 274.547 135.59 287.244 130.082 302.572C124.574 317.899 119.303 318.147 119.303 318.147C119.303 318.147 107.328 170.596 145.646 104.479C183.965 38.362 175.773 43.6436 199.756 38.847C223.739 34.0504 235.229 24.9639 252.96 38.847C270.691 52.7301 308.05 126.522 309.01 133.226C309.969 139.931 310.443 163.881 309.01 179.219C307.576 194.558 300.861 229.513 298.468 227.12C296.075 224.727 298.684 175.382 296.183 154.31C293.682 133.237 276.91 67.1198 245.771 60.4046L228.05 62.9592Z" fill="#C69C6D"/>
<path d="M250.45 161.855C248.747 160.723 251.161 157.662 254.632 158.858C255.793 159.201 256.854 159.819 257.725 160.658C257.841 160.781 257.923 160.931 257.964 161.094C258.005 161.257 258.003 161.429 257.959 161.591C257.915 161.753 257.829 161.902 257.711 162.021C257.592 162.141 257.445 162.229 257.283 162.275C255.656 162.771 252.681 163.342 250.45 161.855Z" fill="#D8AFAF"/>
<path d="M281.104 209.842C279.67 202.458 280.468 196.713 280.942 186.204C281.071 183.585 281.287 181.278 281.502 179.241C279.05 176.258 275.941 173.881 272.42 172.296C268.898 170.711 265.058 169.96 261.199 170.102C257.339 170.244 253.565 171.275 250.169 173.114C246.773 174.953 243.848 177.552 241.621 180.707C240.598 186.255 240.384 191.923 240.985 197.532C241.783 205.25 242.763 206.393 243.701 214.283C243.701 214.38 243.701 214.466 243.701 214.563C246.046 217.112 248.895 219.146 252.066 220.538C255.238 221.93 258.664 222.648 262.127 222.648C265.591 222.648 269.017 221.93 272.189 220.538C275.36 219.146 278.209 217.112 280.554 214.563C281.155 213.066 281.345 211.436 281.104 209.842V209.842Z" fill="#070707"/>
<path d="M261.259 168.796C251.677 169.475 249.284 171.232 244.973 173.927C243.822 174.731 242.934 175.856 242.418 177.161C244.574 179.424 248.433 180.901 253.121 180.901C258.381 180.901 273.515 179.37 281.642 176.967C282.235 172.72 282.644 170.057 280.898 168.214C278.344 165.563 270.842 168.16 261.259 168.796Z" fill="white"/>
<path d="M266.014 158.017C268.633 156.12 272.158 157.489 271.026 159.181C269.442 161.553 266.197 162.092 264.559 162.221C264.128 162.221 263.33 161.779 263.535 161.413C263.6 161.37 263.427 159.882 266.014 158.017Z" fill="#D8AFAF"/>
<path d="M264.699 190.354C260.387 191.151 257.746 193.792 254.394 192.757C251.969 192.003 245.771 192.553 240.727 193.997C240.727 195.258 240.867 196.476 240.985 197.576C241.783 205.293 242.764 206.436 243.701 214.326C243.701 214.423 243.701 214.509 243.701 214.606C246.047 217.155 248.895 219.189 252.067 220.581C255.238 221.973 258.664 222.691 262.128 222.691C265.591 222.691 269.017 221.973 272.189 220.581C275.361 219.189 278.209 217.155 280.554 214.606C281.129 213.118 281.3 211.504 281.05 209.928C279.897 203.978 280.188 199.085 280.597 191.917C274.076 190.354 267.091 189.858 264.699 190.354Z" fill="#470808"/>
<path d="M281.105 210.198C280.766 208.507 280.535 206.797 280.415 205.078C277.979 205.132 277.796 210.941 275.996 214.423C273.84 218.616 266.176 218.853 258.038 218.982C249.9 219.112 247.496 209.519 246.052 207.956C245.362 207.212 244.177 208.3 243.088 210.111C243.314 211.34 243.53 212.741 243.745 214.509C243.745 222.054 251.722 225.525 261.584 226.959C271.447 228.392 282.506 217.376 281.105 210.198Z" fill="white"/>
<path d="M240.986 198.222C240.188 190.677 240.662 178.422 244.974 175.22C249.285 172.019 251.678 169.95 261.261 169.152C270.843 168.354 278.345 165.325 280.9 168.516C283.454 171.707 281.385 176.977 280.9 187.196C280.415 197.414 279.628 203.008 281.061 210.198C282.495 217.387 271.403 228.403 261.541 227.002C251.678 225.601 243.702 222.054 243.702 214.552C242.764 206.835 241.783 205.724 240.986 198.222Z" stroke="#C48383" stroke-width="4" stroke-miterlimit="10"/>
<path d="M329.931 208.117C329.931 208.117 295.838 268.382 283.777 290.801C281.696 294.649 251.807 244.291 251.807 244.291C251.807 244.291 292.55 201.747 293.197 199.333C295.116 192.154 297.509 181.612 306.132 177.775C314.755 173.938 333.92 158.136 343.976 152.391C354.033 146.646 354.841 141.526 364.456 140.092C374.071 138.659 383.459 134.39 394.475 138.228C405.491 142.065 411.559 148.554 424.968 149.513C438.377 150.472 445.577 147.594 448.444 150.472C451.311 153.35 449.522 158.912 444.251 163.763C438.98 168.613 406.967 158.061 394.151 161.327C394.151 161.327 390.077 165.487 390.799 174.584C391.521 183.682 399.099 193.825 397.191 198.136C395.283 202.448 383.502 204.366 383.502 204.366C383.502 204.366 378.479 210.618 370.341 209.659C370.341 209.659 362.192 222.593 354.529 218.045C354.529 218.045 340.681 209.066 339 208.117C337.319 207.169 329.931 208.117 329.931 208.117Z" fill="#D8B6B6"/>
<path d="M340 176.116C342.83 175.745 349.742 176.116 351.47 179.422C353.198 182.728 370 210 370 210" stroke="#C6A3A3" stroke-miterlimit="10"/>
<path d="M356 161.183C359.592 161.043 364.496 159.656 367.107 167.423C369.719 175.19 384 204 384 204" stroke="#C6A3A3" stroke-miterlimit="10"/>
<path d="M364 143C371.243 143.232 378.604 144.141 381.17 152.164C383.736 160.188 391 170 391 170" stroke="#C6A3A3" stroke-miterlimit="10"/>
<path d="M390.778 170.478C390.778 170.478 388.622 180.815 393.731 186.182" stroke="#C6A3A3" stroke-miterlimit="10"/>
<path d="M1124.5 19.5C1107.5 11.5 1087.5 16.5 1077 17C1080.67 19.8334 1091.4 25.5001 1105 25.5001C1122 25.5001 1130 33.5001 1138.5 38.5001C1147 43.5001 1145 64.5001 1147.5 62.5001C1150 60.5001 1151 53.0001 1147.5 41.0001C1144 29.0001 1141.5 27.5 1124.5 19.5Z" fill="#3E3E3E"/>
</g>
<rect x="1" y="1" width="1300" height="313" rx="19" stroke="#141414" stroke-width="2"/>
<g clip-path="url(#clip1_1018_668)">
<path fill-rule="evenodd" clip-rule="evenodd" d="M852 482.5L778.858 385.472L753 409.5L531 115L666.201 236.024L630 188L720.521 269.029L674 216L994 462.132L932.798 511L882.738 453.937L852 482.5Z" fill="white"/>
<path d="M778.858 385.472L779.657 384.87L778.989 383.985L778.177 384.739L778.858 385.472ZM852 482.5L851.201 483.102L851.869 483.987L852.681 483.233L852 482.5ZM753 409.5L752.201 410.102L752.869 410.987L753.681 410.233L753 409.5ZM531 115L531.667 114.255L530.201 115.602L531 115ZM666.201 236.024L665.534 236.769L667 235.422L666.201 236.024ZM630 188L630.667 187.255L629.201 188.602L630 188ZM720.521 269.029L719.854 269.774L721.273 268.37L720.521 269.029ZM674 216L674.61 215.207L673.248 216.659L674 216ZM994 462.132L994.624 462.914L995.621 462.118L994.61 461.34L994 462.132ZM932.798 511L932.046 511.659L932.676 512.377L933.422 511.781L932.798 511ZM882.738 453.937L883.49 453.278L882.811 452.504L882.057 453.205L882.738 453.937ZM778.06 386.074L851.201 483.102L852.799 481.898L779.657 384.87L778.06 386.074ZM753.681 410.233L779.539 386.204L778.177 384.739L752.319 408.767L753.681 410.233ZM530.201 115.602L752.201 410.102L753.799 408.898L531.799 114.398L530.201 115.602ZM666.868 235.278L531.667 114.255L530.333 115.745L665.534 236.769L666.868 235.278ZM629.201 188.602L665.403 236.626L667 235.422L630.799 187.398L629.201 188.602ZM721.188 268.284L630.667 187.255L629.333 188.745L719.854 269.774L721.188 268.284ZM673.248 216.659L719.77 269.689L721.273 268.37L674.752 215.341L673.248 216.659ZM994.61 461.34L674.61 215.207L673.39 216.793L993.39 462.925L994.61 461.34ZM933.422 511.781L994.624 462.914L993.376 461.351L932.174 510.219L933.422 511.781ZM881.986 454.597L932.046 511.659L933.55 510.341L883.49 453.278L881.986 454.597ZM852.681 483.233L883.419 454.67L882.057 453.205L851.319 481.767L852.681 483.233Z" fill="black"/>
</g>
<g clip-path="url(#clip2_1018_668)">
<path fill-rule="evenodd" clip-rule="evenodd" d="M567.5 127.5L293 -118.215L345.5 -167L432.294 -51.8609L461.5 -79L509.558 -15.2475L540.5 -44L762.5 250.5L600.717 105.682L683.5 215.5L530.795 78.8082L567.5 127.5Z" fill="white"/>
<path d="M293 -118.215L292.319 -118.948L291.516 -118.201L292.333 -117.47L293 -118.215ZM567.5 127.5L566.833 128.245L568.299 126.898L567.5 127.5ZM345.5 -167L346.299 -167.602L345.631 -168.487L344.819 -167.733L345.5 -167ZM432.294 -51.8609L431.496 -51.259L432.163 -50.3738L432.975 -51.1284L432.294 -51.8609ZM461.5 -79L462.299 -79.602L461.631 -80.4871L460.819 -79.7326L461.5 -79ZM509.558 -15.2475L508.759 -14.6456L509.427 -13.7604L510.239 -14.515L509.558 -15.2475ZM540.5 -44L541.299 -44.602L540.631 -45.4871L539.819 -44.7326L540.5 -44ZM762.5 250.5L761.833 251.245L763.299 249.898L762.5 250.5ZM600.717 105.682L601.384 104.937L599.918 106.284L600.717 105.682ZM683.5 215.5L682.833 216.245L684.299 214.898L683.5 215.5ZM530.795 78.8082L531.462 78.0631L529.997 79.4101L530.795 78.8082ZM292.333 -117.47L566.833 128.245L568.167 126.755L293.667 -118.96L292.333 -117.47ZM344.819 -167.733L292.319 -118.948L293.681 -117.483L346.181 -166.267L344.819 -167.733ZM433.093 -52.4629L346.299 -167.602L344.701 -166.398L431.496 -51.259L433.093 -52.4629ZM432.975 -51.1284L462.181 -78.2674L460.819 -79.7326L431.613 -52.5935L432.975 -51.1284ZM460.701 -78.398L508.759 -14.6456L510.356 -15.8495L462.299 -79.602L460.701 -78.398ZM510.239 -14.515L541.181 -43.2674L539.819 -44.7326L508.877 -15.9801L510.239 -14.515ZM539.701 -43.398L761.701 251.102L763.299 249.898L541.299 -44.602L539.701 -43.398ZM763.167 249.755L601.384 104.937L600.05 106.427L761.833 251.245L763.167 249.755ZM599.918 106.284L682.701 216.102L684.299 214.898L601.516 105.08L599.918 106.284ZM684.167 214.755L531.462 78.0631L530.128 79.5533L682.833 216.245L684.167 214.755ZM568.299 126.898L531.594 78.2062L529.997 79.4101L566.701 128.102L568.299 126.898Z" fill="#141414"/>
<path d="M329.999 193C327.999 190 327.999 185 330.999 183" stroke="#C6A3A3"/>
</g>
<defs>
<linearGradient id="paint0_linear_1018_668" x1="0" y1="157.5" x2="1302" y2="157.5" gradientUnits="userSpaceOnUse">
<stop stop-color="#F5F7FA"/>
<stop offset="1" stop-color="#C3CFE2"/>
</linearGradient>
<clipPath id="clip0_1018_668">
<rect x="7" y="5" width="1295" height="310" rx="20" fill="white"/>
</clipPath>
<clipPath id="clip1_1018_668">
<rect width="463" height="200" fill="white" transform="translate(531 115)"/>
</clipPath>
<clipPath id="clip2_1018_668">
<rect width="470" height="251" fill="white" transform="translate(293)"/>
</clipPath>
</defs>
</svg>
