<svg width="1121" height="315" viewBox="0 0 1121 315" fill="none" xmlns="http://www.w3.org/2000/svg">
<g clip-path="url(#clip0_1020_706)">
<path d="M412.48 281.06V346.96L749.78 343.83V281.06H412.48Z" fill="#B2B2B2"/>
<path d="M581.13 301.87C674.273 301.87 749.78 294.796 749.78 286.07C749.78 277.343 674.273 270.27 581.13 270.27C487.988 270.27 412.48 277.343 412.48 286.07C412.48 294.796 487.988 301.87 581.13 301.87Z" fill="#CBCBCB"/>
<path d="M581.13 296.87C674.273 296.87 749.78 289.796 749.78 281.07C749.78 272.343 674.273 265.27 581.13 265.27C487.988 265.27 412.48 272.343 412.48 281.07C412.48 289.796 487.988 296.87 581.13 296.87Z" fill="#E5E5E5"/>
<path d="M595.393 240.47C595.393 242.77 592.683 249.4 593.143 254.47C593.603 259.54 596.583 270.28 596.813 272C597.043 273.72 595.553 274.63 600.933 275.78C604.889 276.653 608.898 277.264 612.933 277.61C617.403 278.07 621.303 278.87 622.673 280.13C624.043 281.39 620.953 282.53 618.673 282.65C616.393 282.77 617.983 283.22 614.783 284.02C611.583 284.82 611.293 283.56 608.053 284.02C604.813 284.48 607.913 285.62 600.693 285.28C593.473 284.94 592.223 285.05 590.153 284.02C588.083 282.99 586.493 284.25 586.383 281.84C586.273 279.43 585.923 277.61 586.383 277.26C586.843 276.91 584.663 279.33 584.313 278.52C583.963 277.71 583.973 277.52 584.313 275.66C584.653 273.8 586.153 272.22 586.833 269.59C587.513 266.96 588.213 262.83 587.833 260.2C587.453 257.57 586.693 250.92 586.693 248.98C586.693 247.04 586.573 242.91 586.573 242.91L595.393 240.47Z" fill="#F6921E"/>
<path d="M593.693 282.44C592.233 281.67 591.023 281.84 591.023 279.7C591.023 277.56 591.113 277.12 591.633 277.12C592.153 277.12 597.383 279.44 600.303 279.78C603.223 280.12 607.093 280.98 607.003 281.67C606.913 282.36 605.763 282.87 603.553 283.3C601.343 283.73 593.693 282.44 593.693 282.44Z" fill="#E2801E"/>
<path d="M605.48 277.81C607.72 279.81 610.64 281.81 611.93 282.27C613.22 282.73 613.3 282.36 615.1 281.84C616.9 281.32 618.71 281.41 619.91 280.98C621.11 280.55 621.12 279.61 619.23 279.52C616.55 279.393 613.878 279.109 611.23 278.67C609.06 278.24 605.48 277.81 605.48 277.81Z" fill="#E2801E"/>
<path d="M480.485 195C482.545 193.85 492.855 194.77 502.705 192C512.555 189.23 520.115 187.88 532.255 180.55C544.395 173.22 546.255 170.93 560.885 165.43C575.515 159.93 589.745 156.96 592.715 154.66C595.685 152.36 594.785 155.12 598.715 140.92C602.645 126.72 600.085 118.48 601.005 110.23C601.925 101.98 600.485 77.05 602.085 73.84C603.685 70.63 624.755 72.01 623.835 82.55C622.915 93.09 621.095 91.48 620.635 100.64C620.175 109.8 619.485 122.4 622.005 131.33C624.525 140.26 634.605 150.33 636.005 162.71C637.405 175.09 640.135 186.71 636.005 195.01C631.875 203.31 617.195 218.6 606.485 223.87C595.775 229.14 592.965 226.16 588.615 233.03C584.265 239.9 589.305 243.11 579.225 248.15C569.145 253.19 574.645 256.62 562.045 254.56C549.445 252.5 547.385 252.73 538.455 248.15C529.525 243.57 524.025 243.56 520.815 233.94C517.605 224.32 517.615 216.77 513.485 212.41C509.355 208.05 483.945 198.67 481.655 198.21C479.365 197.75 480.485 195 480.485 195Z" fill="#861D24"/>
<path d="M480.483 195C482.543 193.85 492.853 194.77 502.703 192C512.553 189.23 520.113 187.881 532.253 180.551C544.393 173.221 592.943 226.131 588.593 233C584.243 239.87 589.283 243.08 579.203 248.12C569.123 253.16 574.623 256.59 562.023 254.53C549.423 252.47 547.363 252.7 538.433 248.12C529.503 243.54 524.003 243.531 520.793 233.911C517.583 224.291 517.593 216.741 513.463 212.381C509.333 208.021 483.923 198.64 481.633 198.18C479.343 197.72 480.483 195 480.483 195Z" fill="#0C4A79"/>
<path d="M554.482 245.53C553.192 248.26 551.962 246.97 550.992 252.77C550.022 258.57 548.902 263.46 549.242 268.1C549.582 272.74 548.302 273.68 550.702 275.1C552.853 276.478 555.369 277.175 557.922 277.1C561.012 277.19 559.722 276.41 564.102 277.1C568.482 277.79 571.102 276.15 573.812 277.79C576.522 279.43 579.562 279.59 577.502 280.24C575.442 280.89 573.892 280.54 571.922 281.91C569.952 283.28 569.852 282.08 568.312 283.91C566.772 285.74 567.452 286.84 564.532 287.52C562.251 288.181 559.903 288.584 557.532 288.72C555.532 288.72 551.092 288.3 549.722 287.35C547.979 285.979 546.47 284.334 545.252 282.48C543.622 280.22 544.482 279.48 542.672 278.93C540.862 278.38 540.182 279.88 539.842 277.82C539.502 275.76 540.842 274.29 539.842 273.52C538.842 272.75 537.432 274.47 537.182 273.18C536.932 271.89 536.752 271.46 538.032 270.09C539.312 268.72 539.842 266.14 541.732 262.09C543.622 258.04 543.792 252.64 544.562 248.69C545.332 244.74 544.912 243.28 545.682 242.42C546.452 241.56 546.452 241.65 547.052 242.42C547.652 243.19 548.512 243.36 550.832 243.97C552.132 244.269 553.368 244.797 554.482 245.53Z" fill="#F6921E"/>
<path d="M509.864 260.63C506.474 259.74 500.714 256.01 503.084 244.82C505.454 233.63 511.894 223.82 517.664 215.32C523.434 206.82 528.854 198 530.884 194.64C532.914 191.28 538.684 208.2 536.654 213.8C534.624 219.4 534.954 235.16 530.884 246.26C526.814 257.36 521.394 254.99 517.664 258.38C516.644 259.361 515.401 260.078 514.042 260.47C512.683 260.862 511.249 260.917 509.864 260.63Z" fill="#861D24"/>
<path d="M515.486 253.15C514.796 250.23 514.156 244.69 517.336 241.26C520.516 237.83 524.006 235.92 525.476 233.51C526.946 231.1 527.126 225.05 527.126 225.05C527.783 227.875 528.251 230.742 528.526 233.63C528.716 237 529.666 241.77 526.526 246.16C523.386 250.55 521.946 252.16 518.956 252.71C517.711 253.027 516.43 253.175 515.146 253.15" fill="black"/>
<path d="M517.482 250.8C517.453 248.814 517.91 246.85 518.812 245.08C520.682 242.495 522.813 240.109 525.172 237.96C526.762 236.49 526.572 235.29 526.572 235.29C526.572 235.29 527.792 241.58 526.572 243.74C525.352 245.9 523.132 248.74 521.042 249.65C519.913 250.193 518.715 250.58 517.482 250.8Z" fill="white"/>
<path d="M506.486 248.699C507.626 246.919 511.636 241.529 512.396 239.109C513.156 236.689 512.456 234.969 513.856 229.749C514.857 226.436 516.066 223.19 517.476 220.029C514.61 223.011 511.916 226.152 509.406 229.439C508.646 230.769 504.956 238.209 505.336 241.519C505.716 244.829 506.486 248.699 506.486 248.699Z" fill="black"/>
<path d="M507.252 244.57C507.252 244.19 506.492 238.91 507.632 235.73C508.305 233.849 509.201 232.056 510.302 230.39C510.578 232.286 510.578 234.213 510.302 236.11C509.802 238.21 507.252 244.57 507.252 244.57Z" fill="white"/>
<path d="M549.75 280.81C548.89 279.09 546.88 277.21 548.25 277.12C549.62 277.03 551.38 279.52 553.92 280C556.46 280.48 559.42 282.19 563.07 281.71C566.72 281.23 570.41 280.6 569.94 281.07C569.47 281.54 566.46 283.56 564.83 284.59C563.2 285.62 560.23 286.91 558.69 286.83C557.15 286.75 556.07 286.18 553.92 284.59C552.43 283.444 551.036 282.18 549.75 280.81Z" fill="#E2801E"/>
<path d="M556.926 278.49C558.253 278.869 559.625 279.071 561.006 279.09C564.916 279.4 566.126 279.61 568.566 279.09C571.006 278.57 571.566 278.32 571.566 278.32" fill="#E2801E"/>
<path d="M578.213 162.2C570.753 164.43 543.613 169.58 538.113 173.02C532.613 176.46 535.713 177.31 527.463 179.37C519.213 181.43 519.563 179.89 510.293 183.84C501.023 187.79 498.293 190.02 498.293 190.02C498.293 190.02 503.073 188 506.483 188C509.893 188 507.163 191.61 505.963 194.53C504.763 197.45 508.023 199 512.963 200.72C517.903 202.44 512.283 208.62 522.763 209.13C533.243 209.64 539.253 206.38 540.623 208.13C541.993 209.88 556.253 192.84 561.753 191.13C567.253 189.42 576.753 187.86 579.553 184.43C582.353 181 587.693 173.95 585.283 168.11C582.873 162.27 578.213 162.2 578.213 162.2Z" fill="white"/>
<path d="M514.48 191.43C513.974 191.88 513.533 192.399 513.17 192.97C513.009 193.22 512.91 193.505 512.88 193.8C512.88 194.04 512.96 194.02 513.24 194.02C513.392 193.993 513.543 193.956 513.69 193.91L513.94 193.83H514.02C514.02 193.83 514.02 193.83 514.19 193.83C514.36 193.83 514.28 193.83 514.4 194C514.436 194.09 514.436 194.19 514.4 194.28C514.31 194.49 514.33 194.41 514.31 194.45V194.53C514.274 194.642 514.261 194.76 514.272 194.876C514.282 194.993 514.315 195.107 514.37 195.21C514.657 195.775 515.035 196.289 515.49 196.73C515.914 197.188 516.497 197.467 517.12 197.51C517.457 197.523 517.793 197.49 518.12 197.41C518.227 197.398 518.334 197.398 518.44 197.41C518.493 197.413 518.545 197.432 518.587 197.464C518.63 197.496 518.662 197.54 518.68 197.59C518.702 197.659 518.702 197.732 518.68 197.8C518.63 198 518.55 198.14 518.5 198.31C518.241 198.925 518.202 199.61 518.39 200.25C518.54 200.96 519.29 200.75 519.95 200.61C520.678 200.411 521.451 200.442 522.16 200.7C522.375 200.766 522.574 200.874 522.746 201.018C522.917 201.163 523.058 201.34 523.16 201.54C523.233 201.945 523.198 202.363 523.06 202.75C523.004 202.982 523.032 203.227 523.14 203.44C523.14 203.44 523.07 203.44 523.21 203.44L523.7 203.38C524.106 203.318 524.522 203.355 524.91 203.49C525.104 203.561 525.291 203.648 525.47 203.75C525.695 203.872 525.888 204.047 526.03 204.26C526.085 204.355 526.118 204.46 526.127 204.57C526.136 204.679 526.12 204.788 526.08 204.89C526.053 204.97 526.013 205.044 525.96 205.11C525.931 205.165 525.89 205.213 525.84 205.25C525.76 205.328 525.687 205.411 525.62 205.5C525.62 205.45 525.62 205.41 525.67 205.5C525.757 205.601 525.858 205.689 525.97 205.76C526.5 206.129 527.093 206.397 527.72 206.55C529.031 206.851 530.403 206.743 531.65 206.24V206.32C530.742 206.933 529.677 207.274 528.582 207.3C527.487 207.327 526.407 207.039 525.47 206.47C525.287 206.367 525.118 206.239 524.97 206.09C524.851 205.977 524.765 205.833 524.721 205.675C524.677 205.516 524.677 205.349 524.72 205.19C524.812 204.975 524.949 204.78 525.12 204.62C525.17 204.62 525.19 204.52 525.17 204.56C525.16 204.606 525.16 204.654 525.17 204.7C525.107 204.635 525.032 204.58 524.95 204.54C524.831 204.466 524.703 204.406 524.57 204.36C524.303 204.272 524.02 204.242 523.74 204.27C523.59 204.27 523.43 204.27 523.2 204.27C523.054 204.273 522.908 204.249 522.77 204.2C522.606 204.133 522.467 204.018 522.37 203.87C522.154 203.462 522.097 202.988 522.21 202.54C522.3 202.15 522.43 201.83 522.38 201.74C522.33 201.65 522.11 201.42 521.83 201.29C521.251 201.027 520.608 200.94 519.98 201.04C519.618 201.081 519.252 201.081 518.89 201.04C518.686 201.011 518.495 200.92 518.345 200.779C518.194 200.637 518.091 200.453 518.05 200.25C517.885 199.542 517.933 198.801 518.19 198.12C518.19 197.96 518.3 197.79 518.33 197.65C518.36 197.51 518.33 197.6 518.33 197.6C518.33 197.6 518.33 197.66 518.33 197.65H518.14C517.796 197.777 517.436 197.858 517.07 197.89C516.297 197.933 515.537 197.675 514.95 197.17C514.367 196.691 513.904 196.081 513.6 195.39C513.506 195.185 513.457 194.961 513.457 194.735C513.457 194.509 513.506 194.286 513.6 194.08L513.69 193.93C513.69 193.93 513.74 193.82 513.69 193.99C513.661 194.078 513.661 194.173 513.69 194.26C513.737 194.335 513.807 194.391 513.89 194.42C514.03 194.42 514.02 194.42 514.03 194.42L513.79 194.48C513.62 194.48 513.44 194.55 513.22 194.58C512.964 194.6 512.709 194.53 512.5 194.38C512.398 194.29 512.32 194.176 512.271 194.049C512.222 193.922 512.205 193.785 512.22 193.65C512.293 193.262 512.461 192.897 512.71 192.59C513.168 192.042 513.724 191.584 514.35 191.24L514.48 191.43Z" fill="#F1F1F1"/>
<path d="M524.845 187.81C524.697 188.128 524.589 188.464 524.525 188.81C524.492 188.947 524.495 189.09 524.536 189.226C524.576 189.361 524.652 189.483 524.755 189.58C524.872 189.651 525.002 189.698 525.138 189.717C525.274 189.736 525.412 189.726 525.545 189.69C525.787 189.617 526.048 189.638 526.275 189.75C526.476 189.913 526.611 190.144 526.655 190.4C526.735 190.78 526.795 191.1 526.875 191.4C526.938 191.693 527.049 191.973 527.205 192.23C527.406 192.432 527.652 192.584 527.923 192.673C528.194 192.761 528.483 192.784 528.765 192.74C529.099 192.735 529.433 192.712 529.765 192.67C529.894 192.64 530.029 192.643 530.157 192.676C530.286 192.709 530.405 192.772 530.505 192.86C530.644 193.042 530.727 193.261 530.745 193.49C530.756 194.186 530.836 194.879 530.985 195.56C531.075 195.876 531.247 196.162 531.485 196.39C531.726 196.597 532.036 196.707 532.355 196.7C532.698 196.686 533.037 196.612 533.355 196.48C533.68 196.364 534.014 196.277 534.355 196.22C534.55 196.189 534.749 196.189 534.945 196.22C535.072 196.223 535.196 196.256 535.309 196.315C535.421 196.374 535.519 196.457 535.595 196.56C535.697 196.763 535.75 196.987 535.75 197.215C535.75 197.442 535.697 197.666 535.595 197.87L535.205 198.87C535.067 199.137 534.973 199.423 534.925 199.72C534.925 199.83 534.925 199.78 534.925 199.81C535.023 199.856 535.127 199.89 535.235 199.91C535.525 199.965 535.824 199.965 536.115 199.91C536.415 199.84 536.735 199.74 537.055 199.63C537.419 199.488 537.798 199.387 538.185 199.33C538.348 199.313 538.513 199.337 538.665 199.4C538.856 199.499 539.002 199.667 539.075 199.87C539.103 200.005 539.103 200.144 539.075 200.28C539.092 200.389 539.092 200.5 539.075 200.61C539.002 201 538.856 201.373 538.645 201.71C538.48 201.954 538.336 202.211 538.215 202.48C538.215 202.48 538.215 202.48 538.285 202.53C538.42 202.585 538.56 202.626 538.705 202.65C540.062 202.839 541.441 202.798 542.785 202.53V202.61C541.451 203.157 540.014 203.403 538.575 203.33C538.37 203.312 538.168 203.268 537.975 203.2C537.842 203.146 537.723 203.064 537.625 202.96C537.503 202.822 537.439 202.643 537.445 202.46C537.521 202.059 537.67 201.676 537.885 201.33C538.025 201.062 538.127 200.776 538.185 200.48C538.188 200.416 538.188 200.353 538.185 200.29C538.188 200.256 538.188 200.223 538.185 200.19C538.185 200.19 538.185 200.25 538.265 200.27C538.345 200.29 538.265 200.27 538.265 200.27C537.785 200.34 537.045 200.7 536.265 200.82C535.865 200.9 535.454 200.9 535.055 200.82C534.818 200.778 534.593 200.686 534.395 200.55C534.269 200.453 534.171 200.326 534.11 200.181C534.048 200.035 534.026 199.876 534.045 199.72C534.116 199.33 534.251 198.955 534.445 198.61C534.605 198.29 534.765 197.98 534.895 197.68C535.021 197.462 535.074 197.209 535.045 196.96C535.045 196.84 534.665 196.76 534.355 196.79C533.695 196.79 533.045 197.09 532.275 197.1C531.902 197.082 531.548 196.933 531.275 196.68C531.012 196.415 530.813 196.093 530.695 195.74C530.506 195.059 530.356 194.367 530.245 193.67C530.224 193.549 530.172 193.435 530.095 193.34C530.095 193.34 530.095 193.34 529.835 193.34C529.485 193.421 529.131 193.484 528.775 193.53C528.387 193.575 527.994 193.552 527.615 193.46C527.182 193.359 526.801 193.103 526.545 192.74C526.336 192.399 526.194 192.023 526.125 191.63C526.045 191.27 526.005 190.9 525.955 190.63C525.942 190.537 525.918 190.447 525.885 190.36C525.885 190.36 525.805 190.36 525.605 190.36C525.393 190.389 525.177 190.373 524.972 190.312C524.767 190.252 524.577 190.149 524.415 190.01C524.271 189.853 524.176 189.659 524.138 189.45C524.101 189.241 524.124 189.026 524.205 188.83C524.329 188.489 524.508 188.172 524.735 187.89L524.845 187.81Z" fill="#F1F1F1"/>
<path d="M608.785 87.71C608.606 87.6284 608.52 87.3939 608.494 87.1583C608.492 87.4177 608.508 87.7078 608.775 87.9C608.919 87.9716 609.075 88.0157 609.235 88.03C609.246 88.0795 609.246 88.1305 609.235 88.18C608.98 88.6918 608.675 89.1774 608.325 89.63C607.917 90.0887 607.543 90.5767 607.205 91.09C607.128 91.2839 607.111 91.4962 607.155 91.7C607.202 91.8802 607.276 92.0522 607.375 92.21C607.561 92.4731 607.784 92.7087 608.035 92.91C608.12 92.9648 608.19 93.0404 608.237 93.1297C608.284 93.219 608.308 93.319 608.305 93.42C608.289 93.6789 608.239 93.9345 608.155 94.18C607.947 94.7541 607.78 95.3422 607.655 95.94C607.621 96.1318 607.621 96.3282 607.655 96.52C607.704 96.673 607.76 96.8233 607.825 96.97C607.927 97.216 608.007 97.4703 608.065 97.73C608.106 97.9452 608.071 98.1681 607.965 98.36C607.798 98.6422 607.676 98.9494 607.605 99.27C607.511 99.9511 607.683 100.642 608.085 101.2C608.275 101.438 608.49 101.656 608.725 101.85C608.797 101.93 608.846 102.028 608.868 102.134C608.889 102.239 608.881 102.348 608.845 102.45C608.701 103.01 608.513 103.558 608.285 104.09C608.133 104.387 608.082 104.725 608.14 105.054C608.197 105.382 608.361 105.683 608.605 105.91C608.885 106.1 609.235 106.11 609.345 106.26C609.455 106.41 609.385 106.73 609.275 106.98C609.054 107.52 608.79 108.042 608.485 108.54C608.323 108.822 608.243 109.145 608.255 109.47C608.265 109.784 608.326 110.095 608.435 110.39C608.665 110.98 609.005 111.46 609.215 111.98C609.327 112.202 609.372 112.452 609.345 112.7C609.263 112.955 609.159 113.202 609.035 113.44C608.781 113.99 608.567 114.558 608.395 115.14C608.217 115.734 608.123 116.35 608.115 116.97V118.73C608.055 119.91 608.135 121.08 608.055 122.25C607.975 123.42 607.915 124.59 607.775 125.74C607.642 126.889 607.431 128.029 607.145 129.15C606.765 130.31 606.599 131.53 606.655 132.75C606.735 133.99 607.215 135.11 607.215 136.23C607.216 136.809 607.173 137.388 607.085 137.96C606.958 138.548 606.911 139.15 606.945 139.75C606.988 139.171 607.102 138.6 607.285 138.05C607.438 137.467 607.535 136.871 607.575 136.27C607.615 135.03 607.255 133.87 607.255 132.75C607.259 131.607 607.472 130.475 607.885 129.41C608.211 128.253 608.448 127.073 608.595 125.88C608.752 124.702 608.848 123.517 608.885 122.33V118.78V117C608.863 116.441 608.92 115.882 609.055 115.34C609.2 114.785 609.373 114.237 609.575 113.7C609.71 113.409 609.81 113.104 609.875 112.79C609.894 112.442 609.815 112.095 609.645 111.79C609.375 111.25 609.005 110.76 608.775 110.25C608.652 110.008 608.588 109.741 608.588 109.47C608.588 109.199 608.652 108.932 608.775 108.69C609.08 108.181 609.337 107.645 609.545 107.09C609.624 106.935 609.664 106.764 609.664 106.59C609.664 106.416 609.624 106.245 609.545 106.09C609.265 105.77 608.925 105.81 608.735 105.65C608.644 105.566 608.57 105.464 608.518 105.35C608.467 105.237 608.439 105.114 608.435 104.99C608.422 104.722 608.473 104.454 608.585 104.21C608.868 103.679 609.102 103.123 609.285 102.55C609.348 102.373 609.365 102.184 609.336 101.998C609.306 101.813 609.23 101.638 609.115 101.49C608.915 101.286 608.728 101.068 608.555 100.84C608.305 100.404 608.21 99.8967 608.285 99.4C608.354 99.1448 608.462 98.9018 608.605 98.68C608.78 98.3523 608.846 97.9778 608.795 97.61C608.739 97.2911 608.649 96.9793 608.525 96.68C608.412 96.475 608.353 96.2442 608.355 96.01C608.464 95.4515 608.607 94.9004 608.785 94.36C608.888 94.037 608.935 93.6988 608.925 93.36C608.923 93.1574 608.872 92.9583 608.775 92.78C608.681 92.6167 608.555 92.4739 608.405 92.36C608.192 92.2027 608 92.0177 607.835 91.81C607.764 91.7396 607.713 91.6516 607.687 91.5551C607.66 91.4586 607.66 91.3568 607.685 91.26C607.967 90.773 608.281 90.3053 608.625 89.86C608.969 89.3588 609.245 88.814 609.445 88.24C609.467 88.1479 609.467 88.0521 609.445 87.96C609.435 87.8847 609.395 87.8165 609.335 87.77C609.282 87.7595 609.228 87.7595 609.175 87.77C609.043 87.7761 608.91 87.7557 608.785 87.71Z" fill="#771D26"/>
<path d="M611.895 87C611.895 87.28 611.975 87.61 612.185 87.71C612.313 87.7541 612.449 87.7744 612.585 87.77C612.637 87.7595 612.692 87.7595 612.745 87.77C612.801 87.8194 612.84 87.8862 612.855 87.96C612.866 88.053 612.866 88.147 612.855 88.24C612.654 88.814 612.379 89.3588 612.035 89.86C611.674 90.3065 611.34 90.774 611.035 91.26C610.975 91.44 611.035 91.59 611.195 91.81C611.36 92.0177 611.551 92.2027 611.765 92.36C611.915 92.4739 612.041 92.6167 612.135 92.78C612.231 92.9583 612.282 93.1574 612.285 93.36C612.284 93.6982 612.237 94.0347 612.145 94.36C611.959 94.8989 611.812 95.4503 611.705 96.01C611.712 96.2442 611.774 96.4735 611.885 96.68C612.008 96.9793 612.099 97.2911 612.155 97.61C612.206 97.9778 612.139 98.3523 611.965 98.68C611.821 98.9018 611.713 99.1448 611.645 99.4C611.559 99.8968 611.655 100.408 611.915 100.84C612.081 101.073 612.269 101.291 612.475 101.49C612.589 101.638 612.665 101.813 612.695 101.998C612.725 102.184 612.707 102.373 612.645 102.55C612.458 103.122 612.223 103.677 611.945 104.21C611.823 104.451 611.771 104.721 611.795 104.99C611.796 105.115 611.824 105.238 611.875 105.352C611.927 105.465 612.002 105.567 612.095 105.65C612.285 105.81 612.625 105.77 612.905 106.09C612.978 106.247 613.016 106.417 613.016 106.59C613.016 106.763 612.978 106.933 612.905 107.09C612.688 107.642 612.431 108.177 612.135 108.69C612.009 108.931 611.944 109.198 611.944 109.47C611.944 109.742 612.009 110.009 612.135 110.25C612.365 110.76 612.725 111.25 613.005 111.79C613.174 112.095 613.254 112.442 613.235 112.79C613.17 113.104 613.069 113.409 612.935 113.7C612.728 114.236 612.555 114.783 612.415 115.34C612.274 115.882 612.217 116.441 612.245 117V118.78C612.245 119.96 612.295 121.14 612.245 122.33C612.195 123.52 612.095 124.7 611.945 125.88C611.806 127.073 611.572 128.254 611.245 129.41C610.827 130.474 610.613 131.607 610.615 132.75C610.615 133.87 610.975 135.03 610.935 136.27C610.896 136.872 610.795 137.468 610.635 138.05C610.455 138.601 610.344 139.172 610.305 139.75C610.27 139.15 610.317 138.548 610.445 137.96C610.529 137.387 610.569 136.809 610.565 136.23C610.565 135.11 610.095 133.99 610.015 132.75C609.958 131.53 610.124 130.31 610.505 129.15C610.781 128.027 610.991 126.888 611.135 125.74C611.275 124.59 611.335 123.42 611.415 122.25C611.495 121.08 611.415 119.91 611.475 118.73V116.97C611.477 116.35 611.572 115.733 611.755 115.14C611.918 114.557 612.129 113.989 612.385 113.44C612.515 113.204 612.622 112.957 612.705 112.7C612.732 112.452 612.687 112.202 612.575 111.98C612.365 111.46 612.025 110.98 611.795 110.39C611.682 110.096 611.618 109.785 611.605 109.47C611.601 109.144 611.684 108.823 611.845 108.54C612.146 108.04 612.41 107.519 612.635 106.98C612.745 106.73 612.815 106.41 612.705 106.26C612.595 106.11 612.245 106.1 611.955 105.91C611.715 105.68 611.555 105.379 611.499 105.051C611.443 104.723 611.494 104.386 611.645 104.09C611.87 103.558 612.054 103.01 612.195 102.45C612.23 102.348 612.238 102.239 612.217 102.134C612.196 102.028 612.147 101.93 612.075 101.85C611.844 101.651 611.63 101.434 611.435 101.2C611.036 100.641 610.867 99.9498 610.965 99.27C611.037 98.9514 611.155 98.6449 611.315 98.36C611.419 98.1677 611.458 97.9464 611.425 97.73C611.366 97.4703 611.286 97.216 611.185 96.97C611.115 96.8251 611.059 96.6745 611.015 96.52C610.98 96.3282 610.98 96.1318 611.015 95.94C611.135 95.3411 611.302 94.7526 611.515 94.18C611.6 93.9354 611.647 93.679 611.655 93.42C611.661 93.3195 611.641 93.219 611.595 93.1293C611.549 93.0395 611.48 92.9638 611.395 92.91C611.14 92.7115 610.918 92.4755 610.735 92.21C610.632 92.0543 610.557 91.8817 610.515 91.7C610.454 91.5011 610.454 91.2888 610.515 91.09C610.849 90.5744 611.223 90.0862 611.635 89.63C611.984 89.1774 612.289 88.6918 612.545 88.18C612.555 88.1305 612.555 88.0795 612.545 88.03C612.385 88.0157 612.229 87.9716 612.085 87.9C611.765 87.67 611.805 87.3 611.805 87.01L611.895 87Z" fill="#771D26"/>
<path d="M606.483 223.87C595.713 229.13 592.963 226.16 588.613 233.03C585.113 238.56 587.683 241.71 583.613 245.36C584.606 245.508 585.611 245.558 586.613 245.51C589.943 245.36 589.363 245.05 593.943 243.45C598.523 241.85 604.133 236.01 608.373 231.08C611.693 227.22 611.703 224.08 610.673 221.49C609.324 222.365 607.925 223.159 606.483 223.87Z" fill="#0C4A79"/>
<path d="M616.06 45.1499C620.06 40.7899 622.82 42.8999 631.38 43.3499C639.94 43.7999 641.9 46.0499 644.46 48.4599C647.02 50.8699 646.86 57.0199 646.86 58.5199C646.86 60.0199 645.96 62.5799 645.06 64.9799C644.16 67.3799 646.26 68.4399 645.06 72.3499C643.86 76.2599 640.4 86.3499 639.2 90.5299C638 94.7099 633.79 92.9299 630.48 92.7799C627.17 92.6299 622.48 88.5699 621.62 88.7199C620.76 88.8699 614.4 92.1799 610.93 88.7199C607.46 85.2599 602.83 79.5399 602.38 75.3499C601.93 71.1599 602.98 69.7899 603.28 66.9399C603.58 64.0899 616.06 45.1499 616.06 45.1499Z" fill="#BB886A"/>
<path d="M612.001 63.6304V58.8204L617.711 55.5204C617.711 55.5204 616.361 50.2604 617.711 49.2104C618.819 48.3222 620.122 47.7088 621.512 47.4203C622.903 47.1318 624.342 47.1763 625.711 47.5504C629.281 48.6104 638.481 52.2104 639.051 53.0004C639.621 53.7904 642.051 49.5504 643.401 50.6004C644.751 51.6504 644.451 55.4104 645.661 56.6004C646.871 57.7904 650.771 59.6004 653.171 58.1004L655.571 56.6004C655.571 56.6004 651.521 56.7504 650.921 56.3004C650.321 55.8504 653.921 53.1404 654.221 50.7404L654.521 48.3304C654.521 48.3304 651.371 49.5404 650.021 49.2404C648.671 48.9404 649.711 46.9804 650.921 46.0804C652.131 45.1804 655.571 45.0804 655.571 45.0804C655.571 45.0804 650.921 41.4704 650.171 40.7204C649.146 39.9871 648.034 39.3826 646.861 38.9204L650.021 37.1204C650.021 37.1204 644.761 37.2704 642.951 37.1204C640.865 36.7614 638.807 36.2569 636.791 35.6104L640.251 32.9104C638.759 33.6147 637.132 33.9866 635.481 34.0004L632.481 34.1504L635.481 31.9004C635.481 31.9004 631.121 32.8004 629.621 33.2504C626.716 34.4311 623.531 34.7437 620.451 34.1504C615.651 33.2504 613.841 32.3504 610.991 34.9004C608.141 37.4504 602.271 43.6204 601.671 45.5704C601.071 47.5204 601.301 63.5704 602.311 65.2504C603.321 66.9304 606.481 66.9104 608.311 65.2504C609.322 64.3073 610.623 63.736 612.001 63.6304Z" fill="#4F3924"/>
<path d="M611.149 64.4802C609.729 61.1502 607.339 57.8202 605.389 58.4202C603.439 59.0202 600.329 65.9402 603.129 69.3402C605.929 72.7402 606.289 72.6002 607.739 71.5402C609.189 70.4802 611.479 65.1502 611.149 64.4802Z" fill="#B1826B"/>
<path d="M634.731 75.2403C634.731 75.2403 633.671 73.4703 634.431 73.7003C635.191 73.9303 635.781 75.4303 635.551 75.5403C635.321 75.6503 634.731 75.2403 634.731 75.2403Z" fill="black"/>
<path d="M638.161 75.3608C638.161 75.3608 639.211 73.6008 638.461 73.8208C637.711 74.0408 637.111 75.5508 637.331 75.6608C637.551 75.7708 638.161 75.3608 638.161 75.3608Z" fill="black"/>
<path d="M920.04 88.51C917.37 94.16 916.04 103.22 902.96 103.96C889.88 104.7 869.38 104.96 862.84 103.07C856.3 101.18 859.43 96.83 853.34 94.9C847.25 92.97 841 98.7599 841 92.82C841 86.88 843.23 81.6799 846.35 80.3399C849.47 78.9999 848.73 73.65 851.85 69.79C854.97 65.93 863.85 62.2099 863.85 62.2099C863.85 62.2099 873.21 54.2099 881.98 53.8899C890.75 53.5699 903.98 54.3399 907.53 57.1599C911.08 59.9799 915.7 69.64 918.53 71.16C921.36 72.68 943.78 75.16 951.06 75.32C958.34 75.4799 962.95 75.9099 966.22 78.5899C969.49 81.2699 970.08 82.45 968.59 83.04C962.865 85.4744 956.789 86.9799 950.59 87.5C941.73 88.06 920.04 88.51 920.04 88.51Z" fill="#FEFEFE"/>
<path d="M969.398 89.3999C969.218 84.0499 967.638 80.0399 969.398 71.5699C971.158 63.0999 972.338 48.3999 972.338 48.3999C972.338 48.3999 970.608 46.3199 969.398 47.9499C968.188 49.5799 962.558 66.5799 962.528 71.5699C962.498 76.5599 960.598 97.4199 964.168 102.92C967.738 108.42 970.848 109.16 970.848 106.92C970.848 104.68 969.398 89.3999 969.398 89.3999Z" fill="#2C6787"/>
<path d="M902.66 101.141C904.89 108.141 910.83 118.971 910.83 118.971" stroke="#CBCBCB" stroke-width="2.28" stroke-linecap="round" stroke-linejoin="round"/>
<path d="M889.397 39.5706C889.317 43.9106 889.517 53.3706 889.567 55.7306C889.57 55.8006 889.559 55.8703 889.534 55.9357C889.509 56.0012 889.471 56.0609 889.422 56.1113C889.374 56.1617 889.316 56.2018 889.251 56.2292C889.187 56.2566 889.117 56.2707 889.047 56.2706H886.047C885.978 56.2706 885.91 56.2568 885.846 56.2301C885.782 56.2033 885.725 56.1641 885.676 56.1148C885.628 56.0654 885.59 56.0069 885.564 55.9427C885.539 55.8784 885.526 55.8097 885.527 55.7406V39.5706C885.526 39.5015 885.539 39.4328 885.564 39.3685C885.59 39.3043 885.628 39.2458 885.676 39.1964C885.725 39.1471 885.782 39.1079 885.846 39.0811C885.91 39.0544 885.978 39.0406 886.047 39.0406H888.817C888.891 39.032 888.966 39.0394 889.037 39.0622C889.108 39.0851 889.173 39.123 889.228 39.1732C889.283 39.2235 889.327 39.285 889.356 39.3535C889.385 39.4221 889.399 39.4961 889.397 39.5706Z" fill="#808080"/>
<path d="M887.57 39.1807C894.26 39.1807 931.25 41.8607 932.29 43.1807C933.33 44.5007 933.19 44.8107 927.29 44.5107C921.39 44.2107 887.57 39.1807 887.57 39.1807Z" fill="#808080"/>
<path d="M886.299 39.3603C887.429 38.8903 845.139 38.0203 844.989 40.1003C844.839 42.1803 880.199 41.8803 886.299 39.3603Z" fill="#808080"/>
<path d="M886.621 101.88C890.621 111.54 892.561 115.88 892.561 115.88" stroke="#CBCBCB" stroke-width="2.28" stroke-linecap="round" stroke-linejoin="round"/>
<path d="M921.829 120.15C921.829 120.15 888.399 117.63 885.719 116.74C883.039 115.85 880.379 111.83 880.379 111.83" stroke="#CBCBCB" stroke-width="2.28" stroke-linecap="round" stroke-linejoin="round"/>
<path d="M876.359 102.62C876.359 102.62 869.359 119.26 868.789 120.15" stroke="#CBCBCB" stroke-width="2.28" stroke-linecap="round" stroke-linejoin="round"/>
<path d="M862.251 101.141C859.251 104.701 847.391 118.221 847.391 118.221" stroke="#CBCBCB" stroke-width="2.28" stroke-linecap="round" stroke-linejoin="round"/>
<path d="M879.04 122.09C875.62 122.09 847.54 118.97 843.98 117.48" stroke="#CBCBCB" stroke-width="2.28" stroke-linecap="round" stroke-linejoin="round"/>
<path d="M851.852 69.79C854.972 65.93 863.852 62.2099 863.852 62.2099C863.852 62.2099 873.212 54.2099 881.982 53.8899C890.752 53.5699 903.982 54.3399 907.532 57.1599C911.082 59.9799 915.702 69.64 918.532 71.16C921.362 72.68 943.782 75.16 951.062 75.32C958.342 75.4799 962.952 75.9099 966.222 78.5899C966.98 79.1857 967.699 79.8304 968.372 80.5199C969.692 81.8599 848.732 73.65 851.852 69.79Z" fill="#2C6787"/>
<path d="M903.401 86.2803C903.701 82.4203 904.401 76.2803 903.401 74.5403C902.401 72.8003 897.311 71.7203 896.401 71.8703C895.491 72.0203 896.401 83.1603 896.401 84.5003C896.401 85.8403 903.401 86.2803 903.401 86.2803Z" fill="#27343D"/>
<path d="M891.821 71.8607C892.711 76.6207 891.821 84.9407 891.821 84.9407H886.621V70.6807L891.821 71.8607Z" fill="#27343D"/>
<path d="M883.479 69.3407C883.029 74.1007 883.029 84.8007 882.139 85.6907C881.249 86.5807 866.139 80.1907 861.489 80.4907C856.839 80.7907 858.219 80.0407 858.219 80.0407C858.219 80.0407 860.299 71.2807 863.219 68.6007C866.139 65.9207 867.829 64.7407 871.689 65.0407C875.549 65.3407 883.479 69.3407 883.479 69.3407Z" fill="#27343D"/>
<path d="M862.248 65.0003C860.908 67.1303 856.008 76.4003 855.418 79.1903L848.578 79.9003C848.578 79.9003 848.518 72.7004 851.848 69.8004C854.628 67.5012 857.606 65.4532 860.748 63.6803C861.288 63.4003 862.248 65.0003 862.248 65.0003Z" fill="#27343D"/>
<path d="M277.798 66.6782C280.468 72.3282 281.798 81.3882 294.878 82.1282C307.958 82.8682 328.458 83.1282 334.988 81.2382C341.518 79.3482 338.408 74.9982 344.498 73.0682C350.588 71.1382 356.828 76.9282 356.828 70.9882C356.828 65.0482 354.608 59.8482 351.488 58.5082C348.368 57.1682 349.108 51.8282 345.988 47.9582C342.868 44.0882 333.988 40.3882 333.988 40.3882C333.988 40.3882 324.628 32.3882 315.868 32.0682C307.108 31.7482 293.868 32.5082 290.318 35.3382C286.768 38.1682 282.138 47.8082 279.318 49.3382C276.498 50.8682 254.058 53.3382 246.778 53.4982C239.498 53.6582 234.898 54.0882 231.628 56.7682C228.358 59.4482 227.768 60.6282 229.248 61.2282C234.977 63.6495 241.051 65.1513 247.248 65.6782C256.098 66.2482 277.798 66.6782 277.798 66.6782Z" fill="#FEFEFE"/>
<path d="M228.741 67.3198C228.921 61.9798 230.501 57.9598 228.741 49.4998C226.981 41.0398 225.801 26.3198 225.801 26.3198C225.801 26.3198 227.531 24.2398 228.741 25.8698C229.951 27.4998 235.581 44.4998 235.611 49.4998C235.641 54.4998 237.541 75.3498 233.971 80.8398C230.401 86.3298 227.291 87.0798 227.291 84.8398C227.291 82.5998 228.741 67.3198 228.741 67.3198Z" fill="#2C6787"/>
<path d="M295.479 79.0605C293.249 86.0605 287.309 96.8905 287.309 96.8905" stroke="#CBCBCB" stroke-width="2.28" stroke-linecap="round" stroke-linejoin="round"/>
<path d="M308.739 17.5001C308.819 21.8301 308.619 31.3001 308.559 33.6501C308.559 33.7916 308.614 33.9274 308.713 34.0284C308.812 34.1294 308.947 34.1874 309.089 34.1901H312.029C312.099 34.1914 312.168 34.1786 312.233 34.1525C312.298 34.1263 312.357 34.0873 312.406 34.0379C312.456 33.9884 312.495 33.9294 312.521 33.8645C312.547 33.7996 312.56 33.73 312.559 33.6601V17.4901C312.559 17.3495 312.503 17.2147 312.403 17.1153C312.304 17.0159 312.169 16.9601 312.029 16.9601H309.269C309.198 16.9586 309.127 16.9717 309.062 16.9985C308.996 17.0253 308.937 17.0652 308.887 17.1157C308.837 17.1663 308.799 17.2265 308.773 17.2926C308.748 17.3587 308.736 17.4293 308.739 17.5001Z" fill="#808080"/>
<path d="M310.56 17.1104C303.88 17.1104 266.88 19.7804 265.84 21.1104C264.8 22.4404 264.95 22.7404 270.9 22.4504C276.85 22.1604 310.56 17.1104 310.56 17.1104Z" fill="#808080"/>
<path d="M311.839 17.2802C310.709 16.8102 352.999 15.9402 353.139 18.0202C353.279 20.1002 317.929 19.8002 311.839 17.2802Z" fill="#808080"/>
<path d="M311.479 79.7998C307.479 89.4598 305.539 93.7998 305.539 93.7998" stroke="#CBCBCB" stroke-width="2.28" stroke-linecap="round" stroke-linejoin="round"/>
<path d="M276.309 98.0798C276.309 98.0798 309.739 95.5498 312.409 94.6598C315.079 93.7698 317.759 89.7598 317.759 89.7598" stroke="#CBCBCB" stroke-width="2.28" stroke-linecap="round" stroke-linejoin="round"/>
<path d="M321.77 80.5498C321.77 80.5498 328.77 97.1898 329.35 98.0798" stroke="#CBCBCB" stroke-width="2.28" stroke-linecap="round" stroke-linejoin="round"/>
<path d="M335.891 79.0605C338.891 82.6305 350.751 96.1506 350.751 96.1506" stroke="#CBCBCB" stroke-width="2.28" stroke-linecap="round" stroke-linejoin="round"/>
<path d="M319.098 100.001C322.518 100.001 350.598 96.8806 354.158 95.3906" stroke="#CBCBCB" stroke-width="2.28" stroke-linecap="round" stroke-linejoin="round"/>
<path d="M346.29 47.7101C343.17 43.8501 334.29 40.1401 334.29 40.1401C334.29 40.1401 324.93 32.1401 316.17 31.8201C307.41 31.5001 294.17 32.2601 290.62 35.0901C287.07 37.9201 282.44 47.5601 279.62 49.0901C276.8 50.6201 254.36 53.0901 247.08 53.2501C239.8 53.4101 235.2 53.8401 231.93 56.5201C231.174 57.1217 230.456 57.7696 229.78 58.4601C228.48 59.7801 349.41 51.5801 346.29 47.7101Z" fill="#2C6787"/>
<path d="M294.742 64.2C294.442 60.34 293.742 54.2 294.742 52.47C295.742 50.74 300.832 49.64 301.742 49.79C302.652 49.94 301.742 61.08 301.742 62.42C301.742 63.76 294.742 64.2 294.742 64.2Z" fill="#27343D"/>
<path d="M306.321 49.7806C305.431 54.5506 306.321 62.8706 306.321 62.8706H311.481V48.6006L306.321 49.7806Z" fill="#27343D"/>
<path d="M314.641 47.2706C315.091 52.0206 315.091 62.7206 315.981 63.6106C316.871 64.5006 332.031 58.1106 336.631 58.4106C341.231 58.7106 339.901 57.9606 339.901 57.9606C339.901 57.9606 337.821 49.2006 334.851 46.5206C331.881 43.8406 330.241 42.6606 326.381 42.9606C322.521 43.2606 314.641 47.2706 314.641 47.2706Z" fill="#27343D"/>
<path d="M335.891 42.9104C337.231 45.0404 342.131 54.3104 342.721 57.1004L349.561 57.8204C349.561 57.8204 349.611 50.6204 346.291 47.7104C343.508 45.4149 340.53 43.3671 337.391 41.5904C336.851 41.3304 335.891 42.9104 335.891 42.9104Z" fill="#27343D"/>
<path d="M185.179 193.83C187.029 197.74 187.959 204.02 197.019 204.53C206.079 205.04 220.269 205.25 224.799 203.91C229.329 202.57 227.169 199.59 231.389 198.25C235.609 196.91 239.929 200.93 239.929 196.81C239.929 192.69 238.379 189.1 236.218 188.17C234.058 187.24 234.578 183.54 232.409 180.86C230.239 178.18 224.079 175.62 224.079 175.62C224.079 175.62 217.599 170.06 211.519 169.85C205.439 169.64 196.289 170.16 193.829 172.12C191.369 174.08 188.169 180.76 186.209 181.79C184.249 182.82 168.719 184.57 163.669 184.67C158.619 184.77 155.439 185.08 153.179 186.93C150.919 188.78 150.499 189.61 151.529 190.02C155.49 191.7 159.692 192.743 163.979 193.11C170.159 193.52 185.179 193.83 185.179 193.83Z" fill="#FEFEFE"/>
<path d="M151 194.451C151.12 190.741 152.21 187.961 151 182.101C149.79 176.241 149 166.101 149 166.101C149 166.101 150.19 164.651 151 165.791C151.81 166.931 155.73 178.691 155.75 182.151C155.77 185.611 157.09 200.051 154.62 203.861C152.15 207.671 149.99 208.181 149.99 206.641C149.99 205.101 151 194.451 151 194.451Z" fill="#2C6787"/>
<path d="M197.219 202.58C195.679 207.41 191.559 214.92 191.559 214.92" stroke="#CBCBCB" stroke-width="1.58" stroke-linecap="round" stroke-linejoin="round"/>
<path d="M206.399 159.931C206.459 162.931 206.319 169.491 206.289 171.131C206.288 171.179 206.296 171.227 206.314 171.271C206.331 171.316 206.357 171.357 206.391 171.392C206.425 171.426 206.465 171.454 206.509 171.472C206.553 171.491 206.601 171.501 206.649 171.501H208.649C208.747 171.498 208.839 171.458 208.908 171.389C208.977 171.321 209.017 171.228 209.019 171.131V159.931C209.017 159.833 208.977 159.741 208.908 159.672C208.839 159.603 208.747 159.563 208.649 159.561H206.729C206.639 159.573 206.556 159.616 206.496 159.684C206.435 159.752 206.401 159.84 206.399 159.931Z" fill="#808080"/>
<path d="M207.671 159.66C203.041 159.66 177.421 161.52 176.671 162.44C175.921 163.36 176.051 163.58 180.161 163.37C184.271 163.16 207.671 159.66 207.671 159.66Z" fill="#808080"/>
<path d="M208.559 159.78C207.769 159.46 237.059 158.86 237.159 160.3C237.259 161.74 212.779 161.53 208.559 159.78Z" fill="#808080"/>
<path d="M208.333 203.09C205.563 209.78 204.223 212.76 204.223 212.76" stroke="#CBCBCB" stroke-width="1.58" stroke-linecap="round" stroke-linejoin="round"/>
<path d="M183.949 215.75C183.949 215.75 207.099 214 208.949 213.38C210.799 212.76 212.659 209.99 212.659 209.99" stroke="#CBCBCB" stroke-width="1.58" stroke-linecap="round" stroke-linejoin="round"/>
<path d="M215.48 203.61C215.48 203.61 220.31 215.13 220.72 215.75" stroke="#CBCBCB" stroke-width="1.58" stroke-linecap="round" stroke-linejoin="round"/>
<path d="M225.211 202.58C227.271 205.05 235.501 214.41 235.501 214.41" stroke="#CBCBCB" stroke-width="1.58" stroke-linecap="round" stroke-linejoin="round"/>
<path d="M213.578 217.09C215.948 217.09 235.398 214.92 237.868 213.9" stroke="#CBCBCB" stroke-width="1.58" stroke-linecap="round" stroke-linejoin="round"/>
<path d="M232.411 180.86C230.251 178.19 224.081 175.62 224.081 175.62C224.081 175.62 217.601 170.06 211.521 169.85C205.441 169.64 196.291 170.16 193.831 172.12C191.371 174.08 188.171 180.76 186.211 181.79C184.251 182.82 168.721 184.57 163.671 184.67C158.621 184.77 155.441 185.08 153.181 186.93C152.656 187.348 152.158 187.799 151.691 188.28C150.801 189.22 234.581 183.54 232.411 180.86Z" fill="#2C6787"/>
<path d="M196.712 192.291C196.502 189.611 195.992 185.391 196.712 184.161C197.432 182.931 200.932 182.161 201.542 182.301C202.152 182.441 201.542 190.121 201.542 191.051C201.542 191.981 196.712 192.291 196.712 192.291Z" fill="#27343D"/>
<path d="M204.728 182.29C204.118 185.6 204.728 191.36 204.728 191.36H208.328V181.48L204.728 182.29Z" fill="#27343D"/>
<path d="M210.48 180.55C210.78 183.85 210.78 191.26 211.4 191.87C212.02 192.48 222.52 188.07 225.71 188.27C228.9 188.47 227.97 187.96 227.97 187.96C227.97 187.96 226.53 181.89 224.47 180.04C222.41 178.19 221.28 177.36 218.61 177.57C215.94 177.78 210.48 180.55 210.48 180.55Z" fill="#27343D"/>
<path d="M225.211 177.54C226.141 179.01 229.531 185.43 229.941 187.37L234.681 187.86C234.681 187.86 234.681 182.86 232.411 180.86C230.485 179.271 228.424 177.852 226.251 176.62C225.881 176.44 225.211 177.54 225.211 177.54Z" fill="#27343D"/>
<path d="M848.48 171.28C846.99 174.43 846.24 179.49 838.94 179.91C831.64 180.33 820.19 180.49 816.54 179.41C812.89 178.33 814.63 175.92 811.23 174.84C807.83 173.76 804.34 177 804.34 173.68C804.34 170.36 805.58 167.46 807.34 166.68C809.1 165.9 808.66 162.95 810.41 160.79C812.16 158.63 817.13 156.56 817.13 156.56C817.13 156.56 822.36 152.08 827.25 151.91C832.14 151.74 839.53 152.16 841.52 153.74C843.51 155.32 846.09 160.74 847.66 161.54C849.23 162.34 861.77 163.78 865.83 163.86C869.89 163.94 872.47 164.19 874.3 165.69C876.13 167.19 876.46 167.84 875.63 168.18C872.446 169.524 869.072 170.364 865.63 170.67C860.59 171 848.48 171.28 848.48 171.28Z" fill="#FEFEFE"/>
<path d="M876.041 171.77C875.941 168.77 875.041 166.55 876.041 161.77C877.041 156.99 877.681 148.82 877.681 148.82C877.681 148.82 876.681 147.66 876.041 148.57C875.401 149.48 872.221 158.98 872.201 161.77C872.181 164.56 871.131 176.2 873.121 179.27C875.111 182.34 876.851 182.76 876.851 181.52C876.851 180.28 876.041 171.77 876.041 171.77Z" fill="#2C6787"/>
<path d="M838.762 178.33C840.04 181.77 841.567 185.112 843.332 188.33" stroke="#CBCBCB" stroke-width="1.27" stroke-linecap="round" stroke-linejoin="round"/>
<path d="M831.36 143.94C831.36 146.37 831.43 151.65 831.46 152.94C831.46 152.98 831.452 153.019 831.437 153.055C831.422 153.092 831.4 153.125 831.372 153.153C831.344 153.18 831.311 153.202 831.275 153.218C831.238 153.233 831.199 153.24 831.16 153.24H829.48C829.44 153.242 829.4 153.235 829.363 153.22C829.326 153.206 829.293 153.184 829.265 153.156C829.237 153.127 829.214 153.094 829.2 153.057C829.185 153.02 829.178 152.98 829.18 152.94V143.94C829.18 143.901 829.188 143.862 829.203 143.826C829.218 143.789 829.24 143.756 829.268 143.728C829.296 143.7 829.329 143.678 829.365 143.663C829.401 143.648 829.44 143.64 829.48 143.64H831.02C831.062 143.635 831.106 143.638 831.147 143.651C831.188 143.663 831.226 143.684 831.258 143.713C831.291 143.741 831.316 143.776 831.334 143.816C831.351 143.855 831.36 143.897 831.36 143.94Z" fill="#808080"/>
<path d="M830.34 143.73C834.07 143.73 854.73 145.22 855.34 145.97C855.95 146.72 855.84 146.88 852.52 146.72C849.2 146.56 830.34 143.73 830.34 143.73Z" fill="#808080"/>
<path d="M829.619 143.82C830.259 143.56 806.619 143.08 806.559 144.24C806.499 145.4 826.219 145.23 829.619 143.82Z" fill="#808080"/>
<path d="M829.801 178.74C832.041 184.14 833.121 186.54 833.121 186.54" stroke="#CBCBCB" stroke-width="1.27" stroke-linecap="round" stroke-linejoin="round"/>
<path d="M849.48 189.001C849.48 189.001 830.81 187.591 829.32 187.091C827.83 186.591 826.32 184.351 826.32 184.351" stroke="#CBCBCB" stroke-width="1.27" stroke-linecap="round" stroke-linejoin="round"/>
<path d="M824.078 179.16C824.078 179.16 820.178 188.45 819.848 188.95" stroke="#CBCBCB" stroke-width="1.27" stroke-linecap="round" stroke-linejoin="round"/>
<path d="M816.192 178.33C814.542 180.33 807.902 187.87 807.902 187.87" stroke="#CBCBCB" stroke-width="1.27" stroke-linecap="round" stroke-linejoin="round"/>
<path d="M825.568 190.001C823.658 190.001 807.978 188.261 805.988 187.431" stroke="#CBCBCB" stroke-width="1.27" stroke-linecap="round" stroke-linejoin="round"/>
<path d="M810.389 160.82C812.129 158.66 817.109 156.59 817.109 156.59C817.109 156.59 822.339 152.11 827.229 151.94C832.119 151.77 839.509 152.19 841.499 153.77C843.489 155.35 846.069 160.77 847.639 161.57C849.209 162.37 861.749 163.81 865.809 163.89C869.869 163.97 872.449 164.22 874.279 165.72C874.7 166.056 875.101 166.416 875.479 166.8C876.199 167.56 808.639 163 810.389 160.82Z" fill="#2C6787"/>
<path d="M839.181 170.001C839.351 167.841 839.761 164.441 839.181 163.451C838.601 162.461 835.781 161.871 835.281 161.951C834.781 162.031 835.281 168.261 835.281 169.011C835.281 169.761 839.181 170.001 839.181 170.001Z" fill="#27343D"/>
<path d="M832.711 162.001C832.976 164.43 832.976 166.881 832.711 169.311H829.801V161.311L832.711 162.001Z" fill="#27343D"/>
<path d="M828.062 160.57C827.812 163.23 827.812 169.2 827.312 169.7C826.812 170.2 818.312 166.63 815.782 166.8C813.252 166.97 813.952 166.55 813.952 166.55C813.952 166.55 815.122 161.65 816.782 160.16C818.442 158.67 819.352 158 821.512 158.16C823.672 158.32 828.062 160.57 828.062 160.57Z" fill="#27343D"/>
<path d="M816.189 158.14C815.449 159.33 812.709 164.51 812.379 166.07L808.559 166.46C808.559 166.46 808.559 162.46 810.389 160.82C811.95 159.534 813.624 158.389 815.389 157.4C815.659 157.25 816.189 158.14 816.189 158.14Z" fill="#27343D"/>
<path d="M443.04 85.16C476.299 85.16 503.26 70.1347 503.26 51.6C503.26 33.0654 476.299 18.04 443.04 18.04C409.782 18.04 382.82 33.0654 382.82 51.6C382.82 70.1347 409.782 85.16 443.04 85.16Z" fill="#BCCBD3"/>
<path d="M373.78 66.9405C372.31 65.9405 380.57 66.2005 382.22 62.0505C382.961 60.0004 383.97 58.0569 385.22 56.2705C386.021 58.1173 386.964 59.8993 388.04 61.6005C390.07 65.0005 382.67 73.0005 373.78 66.9405Z" fill="#BCCBD3"/>
<path d="M409.578 39.32C411.478 37.32 412.748 38.32 416.758 38.48C420.768 38.64 421.688 39.74 422.878 40.87C424.068 42 424.008 44.87 424.008 45.59C423.871 46.6258 423.585 47.6362 423.158 48.59C422.738 49.72 423.728 50.21 423.158 52.04C422.588 53.87 420.978 58.58 420.418 60.55C419.858 62.52 417.888 61.68 416.338 61.61C414.788 61.54 412.608 59.61 412.188 59.71C411.768 59.81 408.808 61.33 407.188 59.71C405.568 58.09 403.398 55.41 403.188 53.45C402.978 51.49 403.468 50.84 403.608 49.51C403.748 48.18 409.578 39.32 409.578 39.32Z" fill="#BB886A"/>
<path d="M407.679 48.0004V45.7304L410.359 44.1804C410.359 44.1804 409.729 41.7204 410.359 41.1804C410.878 40.7701 411.485 40.4867 412.133 40.3531C412.78 40.2194 413.45 40.239 414.089 40.4104C416.25 41.0823 418.345 41.9492 420.349 43.0004C420.629 43.3504 421.759 41.3804 422.349 41.8804C422.939 42.3804 422.839 44.1304 423.409 44.6904C423.979 45.2504 425.799 46.1004 426.919 45.3904L428.049 44.6904C427.319 44.7406 426.586 44.6935 425.869 44.5504C425.589 44.3404 427.279 43.0704 427.419 41.9504L427.559 40.8204C426.888 41.0924 426.172 41.2349 425.449 41.2404C424.809 41.1004 425.309 40.2404 425.869 39.7604C426.555 39.4521 427.297 39.2854 428.049 39.2704C428.049 39.2704 425.869 37.5804 425.519 37.2704C425.039 36.9269 424.519 36.6448 423.969 36.4304L425.449 35.5804C425.449 35.5804 422.979 35.6504 422.139 35.5804C421.161 35.4133 420.195 35.1794 419.249 34.8804L420.869 33.6104C420.171 33.9662 419.402 34.161 418.619 34.1804L417.209 34.2504L418.619 33.1904C418.619 33.1904 416.619 33.6104 415.879 33.8204C414.521 34.3754 413.03 34.5248 411.589 34.2504C409.329 33.8204 408.489 33.4004 407.149 34.6004C405.809 35.8004 403.069 38.6804 402.789 39.6004C402.509 40.5204 402.619 48.0504 403.089 48.8204C403.559 49.5904 405.089 49.6004 405.889 48.8204C406.368 48.3417 407.003 48.0507 407.679 48.0004Z" fill="#4F3924"/>
<path d="M407.29 48.3806C406.62 46.8206 405.5 45.2606 404.59 45.5406C403.68 45.8206 402.22 49.0606 403.53 50.6506C404.84 52.2406 405.01 52.1806 405.69 51.6506C406.505 50.7224 407.057 49.5936 407.29 48.3806Z" fill="#B1826B"/>
<path d="M481.579 48.5501C481.579 55.5501 479.129 61.7001 473.189 61.7001C471.599 61.7001 465.299 59.5301 462.919 55.7001C461.759 53.8501 460.379 50.8201 460.379 48.5401C460.379 41.5401 464.289 35.8701 470.229 35.8701C476.169 35.8701 481.579 41.5501 481.579 48.5501Z" fill="#861D24"/>
<path d="M462.551 44.2505C462.551 44.2505 467.551 42.4805 470.231 43.9405C471.058 44.4482 471.759 45.1383 472.279 45.9581C472.799 46.7779 473.124 47.7056 473.231 48.6705C472.885 49.1292 472.428 49.4926 471.903 49.727C471.379 49.9613 470.803 50.0588 470.231 50.0105C467.231 50.0105 464.591 49.4305 463.471 47.0905C463.092 46.1689 462.784 45.2194 462.551 44.2505Z" fill="black"/>
<path d="M475.258 48.7402C475.068 48.2402 476.258 44.0202 477.258 43.3702C477.638 43.1302 478.788 42.1702 479.408 42.7902C480.384 44.1553 480.905 45.7925 480.898 47.4702C480.248 48.8102 475.478 49.2402 475.258 48.7402Z" fill="black"/>
<path d="M464.348 45.0701C464.348 45.0701 467.648 43.9001 469.428 44.8701C469.978 45.2047 470.444 45.6607 470.791 46.2032C471.137 46.7457 471.355 47.3604 471.428 48.0001C471.198 48.3072 470.894 48.5502 470.544 48.706C470.194 48.8619 469.809 48.9252 469.428 48.8901C467.428 48.8901 465.698 48.5101 464.958 46.9601C464.707 46.3463 464.503 45.7145 464.348 45.0701Z" fill="white"/>
<path d="M476.151 47.8107C476.021 47.4707 476.811 44.5607 477.551 44.1207C477.811 43.9607 478.551 43.3007 479.031 43.7207C479.688 44.6652 480.038 45.7899 480.031 46.9407C479.581 47.8607 476.281 48.1507 476.151 47.8107Z" fill="white"/>
<path d="M435.973 50.0098H449.373" stroke="white" stroke-width="2" stroke-miterlimit="10" stroke-linecap="round"/>
<path d="M435.973 54.6807H449.373" stroke="white" stroke-width="2" stroke-miterlimit="10" stroke-linecap="round"/>
<path d="M737.441 166.06C763.575 166.06 784.761 154.254 784.761 139.69C784.761 125.127 763.575 113.32 737.441 113.32C711.307 113.32 690.121 125.127 690.121 139.69C690.121 154.254 711.307 166.06 737.441 166.06Z" fill="#BCCBD3"/>
<path d="M791.87 151.74C793.02 150.95 786.53 151.16 785.23 147.9C784.657 146.293 783.877 144.767 782.91 143.36C782.28 144.812 781.538 146.213 780.69 147.55C779.06 150.23 784.89 156.51 791.87 151.74Z" fill="#BCCBD3"/>
<path d="M763.729 130C762.239 128.4 761.239 129.17 758.089 129.34C754.939 129.51 754.219 130.34 753.279 131.22C752.339 132.1 752.399 134.37 752.399 134.92C752.504 135.741 752.727 136.543 753.059 137.3C753.389 138.19 752.619 138.57 753.059 140.01C753.499 141.45 754.769 145.15 755.219 146.7C755.669 148.25 757.219 147.59 758.419 147.53C759.619 147.47 761.349 145.98 761.689 146.04C762.029 146.1 764.339 147.31 765.619 146.04C766.899 144.77 768.619 142.66 768.759 141.12C768.817 140.076 768.705 139.029 768.429 138.02C768.319 137 763.729 130 763.729 130Z" fill="#BB886A"/>
<path d="M765.231 136.841V135.071L763.121 133.861C763.121 133.861 763.621 131.921 763.121 131.541C762.716 131.215 762.239 130.989 761.73 130.883C761.22 130.777 760.693 130.793 760.191 130.931C758.493 131.444 756.846 132.114 755.271 132.931C755.051 133.201 754.171 131.661 753.671 132.041C753.171 132.421 753.281 133.811 752.841 134.261C752.401 134.711 750.961 135.361 750.071 134.811L749.191 134.261C749.764 134.299 750.339 134.258 750.901 134.141C751.131 133.981 749.801 132.981 749.691 132.141L749.581 131.251C750.108 131.47 750.671 131.585 751.241 131.591C751.731 131.481 751.351 130.761 750.901 130.421C750.363 130.179 749.781 130.05 749.191 130.041C749.191 130.041 750.901 128.711 751.191 128.431C751.571 128.164 751.98 127.942 752.411 127.771L751.251 127.111C751.251 127.111 753.181 127.111 753.841 127.111C754.61 126.976 755.368 126.789 756.111 126.551L754.841 125.551C755.391 125.828 755.996 125.979 756.611 125.991L757.721 126.051L756.611 125.221C756.611 125.221 758.211 125.551 758.771 125.711C759.837 126.152 761.009 126.27 762.141 126.051C763.911 125.711 764.571 125.381 765.621 126.321C766.671 127.261 768.831 129.531 769.051 130.251C769.271 130.971 769.191 136.881 768.811 137.491C768.669 137.637 768.499 137.753 768.31 137.832C768.122 137.911 767.92 137.952 767.716 137.952C767.512 137.952 767.31 137.911 767.122 137.832C766.934 137.753 766.764 137.637 766.621 137.491C766.249 137.117 765.757 136.887 765.231 136.841Z" fill="#4F3924"/>
<path d="M765.539 137.16C766.059 135.93 766.939 134.71 767.659 134.93C768.379 135.15 769.519 137.69 768.489 138.93C767.459 140.17 767.329 140.12 766.789 139.74C766.15 139.007 765.718 138.116 765.539 137.16Z" fill="#B1826B"/>
<path d="M707.16 137.29C707.16 142.79 709.08 147.62 713.75 147.62C715 147.62 719.95 145.92 721.82 142.92C722.935 141.234 723.622 139.301 723.82 137.29C723.82 131.8 720.75 127.34 716.09 127.34C711.43 127.34 707.16 131.8 707.16 137.29Z" fill="#861D24"/>
<path d="M722.107 133.92C722.107 133.92 718.187 132.53 716.107 133.67C715.462 134.072 714.916 134.616 714.512 135.26C714.109 135.905 713.857 136.633 713.777 137.39C714.047 137.746 714.402 138.028 714.809 138.212C715.216 138.395 715.662 138.474 716.107 138.44C718.457 138.44 720.537 137.99 721.417 136.15C721.705 135.425 721.935 134.68 722.107 133.92Z" fill="black"/>
<path d="M712.12 137.451C712.27 137.051 711.37 133.731 710.52 133.221C710.22 133.041 709.32 132.281 708.83 132.771C708.06 133.842 707.65 135.131 707.66 136.451C708.2 137.501 711.97 137.841 712.12 137.451Z" fill="black"/>
<path d="M720.7 134.56C720.7 134.56 718.1 133.64 716.7 134.4C716.273 134.666 715.913 135.026 715.646 135.453C715.379 135.879 715.213 136.36 715.16 136.86C715.338 137.096 715.572 137.284 715.841 137.406C716.11 137.529 716.405 137.582 716.7 137.56C718.26 137.56 719.64 137.26 720.22 136.04C720.415 135.559 720.575 135.064 720.7 134.56Z" fill="white"/>
<path d="M711.418 136.71C711.528 136.44 710.898 134.16 710.318 133.81C710.118 133.68 709.498 133.17 709.158 133.5C708.632 134.239 708.349 135.123 708.348 136.03C708.728 136.75 711.318 137 711.418 136.71Z" fill="white"/>
<path d="M743.003 138.44H732.473" stroke="white" stroke-width="1.57" stroke-miterlimit="10" stroke-linecap="round"/>
<path d="M743.003 142.11H732.473" stroke="white" stroke-width="1.57" stroke-miterlimit="10" stroke-linecap="round"/>
<path d="M624.28 183.1C626.09 182.7 627.01 183.36 627.05 183.76C627.09 184.16 629.59 183.28 630.72 183.64L631.86 184C631.86 184 632.02 178.46 631.86 178.07L632.52 184.74C631.041 184.661 629.559 184.661 628.08 184.74C627.809 184.837 627.565 184.999 627.37 185.21H630.66L632.78 187.43C632.78 187.43 634.48 183.06 634.53 180.64L634.59 178.22C635.052 178.96 635.335 179.796 635.419 180.664C635.502 181.532 635.383 182.407 635.07 183.22C633.94 185.86 633.2 187.14 633.22 187.36C633.24 187.58 630.49 186.65 630.31 186.49C630.13 186.33 627.13 185.59 627.13 185.59C627.816 186.199 628.6 186.686 629.45 187.03C630.21 187.16 631.45 190.18 631.45 190.18L629.45 187.78L626.93 186.33L626.54 186.45C626.54 186.45 628.6 190.31 628.62 190.45C628.64 190.59 621.25 203.35 620.72 204.09L627.72 190.65L626.12 187.52L625.55 187.81L625.84 190.81L622.75 195.45L621.28 195.16V189.09L623.42 186.5L619.86 187.16C619.967 189.197 619.924 191.24 619.73 193.27C619.41 194.45 616.79 201.57 616.79 201.57C616.79 201.57 619.21 192.97 619.23 192.83C619.25 192.69 619.23 186.67 619.23 186.67L623.15 185.6V185L613.7 184.87L613.52 196.45L613 184.33L622.31 184.17C622.31 184.17 620.96 182.27 620.43 182.17C619.9 182.07 615.78 182.23 615.78 182.23C615.78 182.23 617.89 174.56 618.78 174.01C619.959 173.388 621.175 172.837 622.42 172.36L618.84 174.6L616.74 181.45L620.57 181.34L623.13 183.34C622.872 182.502 622.562 181.68 622.2 180.88C622.07 180.88 618.68 180.57 618.96 179.88C619.24 179.19 623.76 175.06 624.96 174.94C624.96 174.94 621.38 178.17 621.08 178.55C620.78 178.93 620.43 179.43 620.43 179.43L622.43 180.43L623.88 182.71L624.28 183.1Z" fill="black"/>
</g>
<defs>
<clipPath id="clip0_1020_706">
<rect width="1121" height="315" fill="white"/>
</clipPath>
</defs>
</svg>
