<svg width="1280" height="315" viewBox="0 0 1280 315" fill="none" xmlns="http://www.w3.org/2000/svg">
<g clip-path="url(#clip0_1020_704)">
<path d="M702.421 183.1C704.231 182.7 705.151 183.36 705.191 183.76C705.231 184.16 707.731 183.28 708.861 183.64L710.001 184C710.001 184 710.161 178.46 710.001 178.07L710.661 184.74C709.182 184.661 707.7 184.661 706.221 184.74C705.949 184.837 705.706 184.999 705.511 185.21H708.801L710.921 187.43C710.921 187.43 712.621 183.06 712.671 180.64L712.731 178.22C713.192 178.96 713.476 179.796 713.559 180.664C713.642 181.532 713.523 182.407 713.211 183.22C712.081 185.86 711.341 187.14 711.361 187.36C711.381 187.58 708.631 186.65 708.451 186.49C708.271 186.33 705.271 185.59 705.271 185.59C705.956 186.199 706.741 186.686 707.591 187.03C708.351 187.16 709.591 190.18 709.591 190.18L707.591 187.78L705.071 186.33L704.681 186.45C704.681 186.45 706.741 190.31 706.761 190.45C706.781 190.59 699.391 203.35 698.861 204.09L705.861 190.65L704.261 187.52L703.691 187.81L703.981 190.81L700.891 195.45L699.421 195.16V189.09L701.561 186.5L698.001 187.16C698.108 189.197 698.064 191.24 697.871 193.27C697.551 194.45 694.931 201.57 694.931 201.57C694.931 201.57 697.351 192.97 697.371 192.83C697.391 192.69 697.371 186.67 697.371 186.67L701.291 185.6V185L691.841 184.87L691.661 196.45L691.141 184.33L700.451 184.17C700.451 184.17 699.101 182.27 698.571 182.17C698.041 182.07 693.921 182.23 693.921 182.23C693.921 182.23 696.031 174.56 696.921 174.01C698.1 173.388 699.315 172.837 700.561 172.36L696.981 174.6L694.881 181.45L698.711 181.34L701.271 183.34C701.013 182.502 700.702 181.68 700.341 180.88C700.211 180.88 696.821 180.57 697.101 179.88C697.381 179.19 701.901 175.06 703.101 174.94C703.101 174.94 699.521 178.17 699.221 178.55C698.921 178.93 698.571 179.43 698.571 179.43L700.571 180.43L702.021 182.71L702.421 183.1Z" fill="black"/>
<path d="M491.48 281.06V346.96L828.78 343.83V281.06H491.48Z" fill="#B2B2B2"/>
<path d="M660.13 301.87C753.273 301.87 828.78 294.796 828.78 286.07C828.78 277.343 753.273 270.27 660.13 270.27C566.988 270.27 491.48 277.343 491.48 286.07C491.48 294.796 566.988 301.87 660.13 301.87Z" fill="#CBCBCB"/>
<path d="M660.13 296.87C753.273 296.87 828.78 289.796 828.78 281.07C828.78 272.343 753.273 265.27 660.13 265.27C566.988 265.27 491.48 272.343 491.48 281.07C491.48 289.796 566.988 296.87 660.13 296.87Z" fill="#E5E5E5"/>
<path d="M674.393 240.47C674.393 242.77 671.683 249.4 672.143 254.47C672.603 259.54 675.583 270.28 675.813 272C676.043 273.72 674.553 274.63 679.933 275.78C683.889 276.653 687.898 277.264 691.933 277.61C696.403 278.07 700.303 278.87 701.673 280.13C703.043 281.39 699.953 282.53 697.673 282.65C695.393 282.77 696.983 283.22 693.783 284.02C690.583 284.82 690.293 283.56 687.053 284.02C683.813 284.48 686.913 285.62 679.693 285.28C672.473 284.94 671.223 285.05 669.153 284.02C667.083 282.99 665.493 284.25 665.383 281.84C665.273 279.43 664.923 277.61 665.383 277.26C665.843 276.91 663.663 279.33 663.313 278.52C662.963 277.71 662.973 277.52 663.313 275.66C663.653 273.8 665.153 272.22 665.833 269.59C666.513 266.96 667.213 262.83 666.833 260.2C666.453 257.57 665.693 250.92 665.693 248.98C665.693 247.04 665.573 242.91 665.573 242.91L674.393 240.47Z" fill="#F6921E"/>
<path d="M672.693 282.44C671.233 281.67 670.023 281.84 670.023 279.7C670.023 277.56 670.113 277.12 670.633 277.12C671.153 277.12 676.383 279.44 679.303 279.78C682.223 280.12 686.093 280.98 686.003 281.67C685.913 282.36 684.763 282.87 682.553 283.3C680.343 283.73 672.693 282.44 672.693 282.44Z" fill="#E2801E"/>
<path d="M684.48 277.81C686.72 279.81 689.64 281.81 690.93 282.27C692.22 282.73 692.3 282.36 694.1 281.84C695.9 281.32 697.71 281.41 698.91 280.98C700.11 280.55 700.12 279.61 698.23 279.52C695.55 279.393 692.878 279.109 690.23 278.67C688.06 278.24 684.48 277.81 684.48 277.81Z" fill="#E2801E"/>
<path d="M559.485 195C561.545 193.85 571.855 194.77 581.705 192C591.555 189.23 599.115 187.88 611.255 180.55C623.395 173.22 625.255 170.93 639.885 165.43C654.515 159.93 668.745 156.96 671.715 154.66C674.685 152.36 673.785 155.12 677.715 140.92C681.645 126.72 679.085 118.48 680.005 110.23C680.925 101.98 679.485 77.05 681.085 73.84C682.685 70.63 703.755 72.01 702.835 82.55C701.915 93.09 700.095 91.48 699.635 100.64C699.175 109.8 698.485 122.4 701.005 131.33C703.525 140.26 713.605 150.33 715.005 162.71C716.405 175.09 719.135 186.71 715.005 195.01C710.875 203.31 696.195 218.6 685.485 223.87C674.775 229.14 671.965 226.16 667.615 233.03C663.265 239.9 668.305 243.11 658.225 248.15C648.145 253.19 653.645 256.62 641.045 254.56C628.445 252.5 626.385 252.73 617.455 248.15C608.525 243.57 603.025 243.56 599.815 233.94C596.605 224.32 596.615 216.77 592.485 212.41C588.355 208.05 562.945 198.67 560.655 198.21C558.365 197.75 559.485 195 559.485 195Z" fill="#861D24"/>
<path d="M559.483 195C561.543 193.85 571.853 194.77 581.703 192C591.553 189.23 599.113 187.881 611.253 180.551C623.393 173.221 671.943 226.131 667.593 233C663.243 239.87 668.283 243.08 658.203 248.12C648.123 253.16 653.623 256.59 641.023 254.53C628.423 252.47 626.363 252.7 617.433 248.12C608.503 243.54 603.003 243.531 599.793 233.911C596.583 224.291 596.593 216.741 592.463 212.381C588.333 208.021 562.923 198.64 560.633 198.18C558.343 197.72 559.483 195 559.483 195Z" fill="#0C4A79"/>
<path d="M633.482 245.53C632.192 248.26 630.962 246.97 629.992 252.77C629.022 258.57 627.902 263.46 628.242 268.1C628.582 272.74 627.302 273.68 629.702 275.1C631.853 276.478 634.369 277.175 636.922 277.1C640.012 277.19 638.722 276.41 643.102 277.1C647.482 277.79 650.102 276.15 652.812 277.79C655.522 279.43 658.562 279.59 656.502 280.24C654.442 280.89 652.892 280.54 650.922 281.91C648.952 283.28 648.852 282.08 647.312 283.91C645.772 285.74 646.452 286.84 643.532 287.52C641.251 288.181 638.903 288.584 636.532 288.72C634.532 288.72 630.092 288.3 628.722 287.35C626.979 285.979 625.47 284.334 624.252 282.48C622.622 280.22 623.482 279.48 621.672 278.93C619.862 278.38 619.182 279.88 618.842 277.82C618.502 275.76 619.842 274.29 618.842 273.52C617.842 272.75 616.432 274.47 616.182 273.18C615.932 271.89 615.752 271.46 617.032 270.09C618.312 268.72 618.842 266.14 620.732 262.09C622.622 258.04 622.792 252.64 623.562 248.69C624.332 244.74 623.912 243.28 624.682 242.42C625.452 241.56 625.452 241.65 626.052 242.42C626.652 243.19 627.512 243.36 629.832 243.97C631.132 244.269 632.368 244.797 633.482 245.53Z" fill="#F6921E"/>
<path d="M588.864 260.63C585.474 259.74 579.714 256.01 582.084 244.82C584.454 233.63 590.894 223.82 596.664 215.32C602.434 206.82 607.854 198 609.884 194.64C611.914 191.28 617.684 208.2 615.654 213.8C613.624 219.4 613.954 235.16 609.884 246.26C605.814 257.36 600.394 254.99 596.664 258.38C595.644 259.361 594.401 260.078 593.042 260.47C591.683 260.862 590.249 260.917 588.864 260.63Z" fill="#861D24"/>
<path d="M594.486 253.15C593.796 250.23 593.156 244.69 596.336 241.26C599.516 237.83 603.006 235.92 604.476 233.51C605.946 231.1 606.126 225.05 606.126 225.05C606.783 227.875 607.251 230.742 607.526 233.63C607.716 237 608.666 241.77 605.526 246.16C602.386 250.55 600.946 252.16 597.956 252.71C596.711 253.027 595.43 253.175 594.146 253.15" fill="black"/>
<path d="M596.482 250.8C596.453 248.814 596.91 246.85 597.812 245.08C599.682 242.495 601.813 240.109 604.172 237.96C605.762 236.49 605.572 235.29 605.572 235.29C605.572 235.29 606.792 241.58 605.572 243.74C604.352 245.9 602.132 248.74 600.042 249.65C598.913 250.193 597.715 250.58 596.482 250.8Z" fill="white"/>
<path d="M585.486 248.699C586.626 246.919 590.636 241.529 591.396 239.109C592.156 236.689 591.456 234.969 592.856 229.749C593.857 226.436 595.066 223.19 596.476 220.029C593.61 223.011 590.916 226.152 588.406 229.439C587.646 230.769 583.956 238.209 584.336 241.519C584.716 244.829 585.486 248.699 585.486 248.699Z" fill="black"/>
<path d="M586.252 244.57C586.252 244.19 585.492 238.91 586.632 235.73C587.305 233.849 588.201 232.056 589.302 230.39C589.578 232.286 589.578 234.213 589.302 236.11C588.802 238.21 586.252 244.57 586.252 244.57Z" fill="white"/>
<path d="M628.75 280.81C627.89 279.09 625.88 277.21 627.25 277.12C628.62 277.03 630.38 279.52 632.92 280C635.46 280.48 638.42 282.19 642.07 281.71C645.72 281.23 649.41 280.6 648.94 281.07C648.47 281.54 645.46 283.56 643.83 284.59C642.2 285.62 639.23 286.91 637.69 286.83C636.15 286.75 635.07 286.18 632.92 284.59C631.43 283.444 630.036 282.18 628.75 280.81Z" fill="#E2801E"/>
<path d="M635.926 278.49C637.253 278.869 638.625 279.071 640.006 279.09C643.916 279.4 645.126 279.61 647.566 279.09C650.006 278.57 650.566 278.32 650.566 278.32" fill="#E2801E"/>
<path d="M657.213 162.2C649.753 164.43 622.613 169.58 617.113 173.02C611.613 176.46 614.713 177.31 606.463 179.37C598.213 181.43 598.563 179.89 589.293 183.84C580.023 187.79 577.293 190.02 577.293 190.02C577.293 190.02 582.073 188 585.483 188C588.893 188 586.163 191.61 584.963 194.53C583.763 197.45 587.023 199 591.963 200.72C596.903 202.44 591.283 208.62 601.763 209.13C612.243 209.64 618.253 206.38 619.623 208.13C620.993 209.88 635.253 192.84 640.753 191.13C646.253 189.42 655.753 187.86 658.553 184.43C661.353 181 666.693 173.95 664.283 168.11C661.873 162.27 657.213 162.2 657.213 162.2Z" fill="white"/>
<path d="M593.48 191.43C592.974 191.88 592.533 192.399 592.17 192.97C592.009 193.22 591.91 193.505 591.88 193.8C591.88 194.04 591.96 194.02 592.24 194.02C592.392 193.993 592.543 193.956 592.69 193.91L592.94 193.83H593.02C593.02 193.83 593.02 193.83 593.19 193.83C593.36 193.83 593.28 193.83 593.4 194C593.436 194.09 593.436 194.19 593.4 194.28C593.31 194.49 593.33 194.41 593.31 194.45V194.53C593.274 194.642 593.261 194.76 593.272 194.876C593.282 194.993 593.315 195.107 593.37 195.21C593.657 195.775 594.035 196.289 594.49 196.73C594.914 197.188 595.497 197.467 596.12 197.51C596.457 197.523 596.793 197.49 597.12 197.41C597.227 197.398 597.334 197.398 597.44 197.41C597.493 197.413 597.545 197.432 597.587 197.464C597.63 197.496 597.662 197.54 597.68 197.59C597.702 197.659 597.702 197.732 597.68 197.8C597.63 198 597.55 198.14 597.5 198.31C597.241 198.925 597.202 199.61 597.39 200.25C597.54 200.96 598.29 200.75 598.95 200.61C599.678 200.411 600.451 200.442 601.16 200.7C601.375 200.766 601.574 200.874 601.746 201.018C601.917 201.163 602.058 201.34 602.16 201.54C602.233 201.945 602.198 202.363 602.06 202.75C602.004 202.982 602.032 203.227 602.14 203.44C602.14 203.44 602.07 203.44 602.21 203.44L602.7 203.38C603.106 203.318 603.522 203.355 603.91 203.49C604.104 203.561 604.291 203.648 604.47 203.75C604.695 203.872 604.888 204.047 605.03 204.26C605.085 204.355 605.118 204.46 605.127 204.57C605.136 204.679 605.12 204.788 605.08 204.89C605.053 204.97 605.013 205.044 604.96 205.11C604.931 205.165 604.89 205.213 604.84 205.25C604.76 205.328 604.687 205.411 604.62 205.5C604.62 205.45 604.62 205.41 604.67 205.5C604.757 205.601 604.858 205.689 604.97 205.76C605.5 206.129 606.093 206.397 606.72 206.55C608.031 206.851 609.403 206.743 610.65 206.24V206.32C609.742 206.933 608.677 207.274 607.582 207.3C606.487 207.327 605.407 207.039 604.47 206.47C604.287 206.367 604.118 206.239 603.97 206.09C603.851 205.977 603.765 205.833 603.721 205.675C603.677 205.516 603.677 205.349 603.72 205.19C603.812 204.975 603.949 204.78 604.12 204.62C604.17 204.62 604.19 204.52 604.17 204.56C604.16 204.606 604.16 204.654 604.17 204.7C604.107 204.635 604.032 204.58 603.95 204.54C603.831 204.466 603.703 204.406 603.57 204.36C603.303 204.272 603.02 204.242 602.74 204.27C602.59 204.27 602.43 204.27 602.2 204.27C602.054 204.273 601.908 204.249 601.77 204.2C601.606 204.133 601.467 204.018 601.37 203.87C601.154 203.462 601.097 202.988 601.21 202.54C601.3 202.15 601.43 201.83 601.38 201.74C601.33 201.65 601.11 201.42 600.83 201.29C600.251 201.027 599.608 200.94 598.98 201.04C598.618 201.081 598.252 201.081 597.89 201.04C597.686 201.011 597.495 200.92 597.345 200.779C597.194 200.637 597.091 200.453 597.05 200.25C596.885 199.542 596.933 198.801 597.19 198.12C597.19 197.96 597.3 197.79 597.33 197.65C597.36 197.51 597.33 197.6 597.33 197.6C597.33 197.6 597.33 197.66 597.33 197.65H597.14C596.796 197.777 596.436 197.858 596.07 197.89C595.297 197.933 594.537 197.675 593.95 197.17C593.367 196.691 592.904 196.081 592.6 195.39C592.506 195.185 592.457 194.961 592.457 194.735C592.457 194.509 592.506 194.286 592.6 194.08L592.69 193.93C592.69 193.93 592.74 193.82 592.69 193.99C592.661 194.078 592.661 194.173 592.69 194.26C592.737 194.335 592.807 194.391 592.89 194.42C593.03 194.42 593.02 194.42 593.03 194.42L592.79 194.48C592.62 194.48 592.44 194.55 592.22 194.58C591.964 194.6 591.709 194.53 591.5 194.38C591.398 194.29 591.32 194.176 591.271 194.049C591.222 193.922 591.205 193.785 591.22 193.65C591.293 193.262 591.461 192.897 591.71 192.59C592.168 192.042 592.724 191.584 593.35 191.24L593.48 191.43Z" fill="#F1F1F1"/>
<path d="M603.845 187.81C603.697 188.128 603.589 188.464 603.525 188.81C603.492 188.947 603.495 189.09 603.536 189.226C603.576 189.361 603.652 189.483 603.755 189.58C603.872 189.651 604.002 189.698 604.138 189.717C604.274 189.736 604.412 189.726 604.545 189.69C604.787 189.617 605.048 189.638 605.275 189.75C605.476 189.913 605.611 190.144 605.655 190.4C605.735 190.78 605.795 191.1 605.875 191.4C605.938 191.693 606.049 191.973 606.205 192.23C606.406 192.432 606.652 192.584 606.923 192.673C607.194 192.761 607.483 192.784 607.765 192.74C608.099 192.735 608.433 192.712 608.765 192.67C608.894 192.64 609.029 192.643 609.157 192.676C609.286 192.709 609.405 192.772 609.505 192.86C609.644 193.042 609.727 193.261 609.745 193.49C609.756 194.186 609.836 194.879 609.985 195.56C610.075 195.876 610.247 196.162 610.485 196.39C610.726 196.597 611.036 196.707 611.355 196.7C611.698 196.686 612.037 196.612 612.355 196.48C612.68 196.364 613.014 196.277 613.355 196.22C613.55 196.189 613.749 196.189 613.945 196.22C614.072 196.223 614.196 196.256 614.309 196.315C614.421 196.374 614.519 196.457 614.595 196.56C614.697 196.763 614.75 196.987 614.75 197.215C614.75 197.442 614.697 197.666 614.595 197.87L614.205 198.87C614.067 199.137 613.973 199.423 613.925 199.72C613.925 199.83 613.925 199.78 613.925 199.81C614.023 199.856 614.127 199.89 614.235 199.91C614.525 199.965 614.824 199.965 615.115 199.91C615.415 199.84 615.735 199.74 616.055 199.63C616.419 199.488 616.798 199.387 617.185 199.33C617.348 199.313 617.513 199.337 617.665 199.4C617.856 199.499 618.002 199.667 618.075 199.87C618.103 200.005 618.103 200.144 618.075 200.28C618.092 200.389 618.092 200.5 618.075 200.61C618.002 201 617.856 201.373 617.645 201.71C617.48 201.954 617.336 202.211 617.215 202.48C617.215 202.48 617.215 202.48 617.285 202.53C617.42 202.585 617.56 202.626 617.705 202.65C619.062 202.839 620.441 202.798 621.785 202.53V202.61C620.451 203.157 619.014 203.403 617.575 203.33C617.37 203.312 617.168 203.268 616.975 203.2C616.842 203.146 616.723 203.064 616.625 202.96C616.503 202.822 616.439 202.643 616.445 202.46C616.521 202.059 616.67 201.676 616.885 201.33C617.025 201.062 617.127 200.776 617.185 200.48C617.188 200.416 617.188 200.353 617.185 200.29C617.188 200.256 617.188 200.223 617.185 200.19C617.185 200.19 617.185 200.25 617.265 200.27C617.345 200.29 617.265 200.27 617.265 200.27C616.785 200.34 616.045 200.7 615.265 200.82C614.865 200.9 614.454 200.9 614.055 200.82C613.818 200.778 613.593 200.686 613.395 200.55C613.269 200.453 613.171 200.326 613.11 200.181C613.048 200.035 613.026 199.876 613.045 199.72C613.116 199.33 613.251 198.955 613.445 198.61C613.605 198.29 613.765 197.98 613.895 197.68C614.021 197.462 614.074 197.209 614.045 196.96C614.045 196.84 613.665 196.76 613.355 196.79C612.695 196.79 612.045 197.09 611.275 197.1C610.902 197.082 610.548 196.933 610.275 196.68C610.012 196.415 609.813 196.093 609.695 195.74C609.506 195.059 609.356 194.367 609.245 193.67C609.224 193.549 609.172 193.435 609.095 193.34C609.095 193.34 609.095 193.34 608.835 193.34C608.485 193.421 608.131 193.484 607.775 193.53C607.387 193.575 606.994 193.552 606.615 193.46C606.182 193.359 605.801 193.103 605.545 192.74C605.336 192.399 605.194 192.023 605.125 191.63C605.045 191.27 605.005 190.9 604.955 190.63C604.942 190.537 604.918 190.447 604.885 190.36C604.885 190.36 604.805 190.36 604.605 190.36C604.393 190.389 604.177 190.373 603.972 190.312C603.767 190.252 603.577 190.149 603.415 190.01C603.271 189.853 603.176 189.659 603.138 189.45C603.101 189.241 603.124 189.026 603.205 188.83C603.329 188.489 603.508 188.172 603.735 187.89L603.845 187.81Z" fill="#F1F1F1"/>
<path d="M687.785 87.71C687.606 87.6284 687.52 87.3939 687.494 87.1583C687.492 87.4177 687.508 87.7078 687.775 87.9C687.919 87.9716 688.075 88.0157 688.235 88.03C688.246 88.0795 688.246 88.1305 688.235 88.18C687.98 88.6918 687.675 89.1774 687.325 89.63C686.917 90.0887 686.543 90.5767 686.205 91.09C686.128 91.2839 686.111 91.4962 686.155 91.7C686.202 91.8802 686.276 92.0522 686.375 92.21C686.561 92.4731 686.784 92.7087 687.035 92.91C687.12 92.9648 687.19 93.0404 687.237 93.1297C687.284 93.219 687.308 93.319 687.305 93.42C687.289 93.6789 687.239 93.9345 687.155 94.18C686.947 94.7541 686.78 95.3422 686.655 95.94C686.621 96.1318 686.621 96.3282 686.655 96.52C686.704 96.673 686.76 96.8233 686.825 96.97C686.927 97.216 687.007 97.4703 687.065 97.73C687.106 97.9452 687.071 98.1681 686.965 98.36C686.798 98.6422 686.676 98.9494 686.605 99.27C686.511 99.9511 686.683 100.642 687.085 101.2C687.275 101.438 687.49 101.656 687.725 101.85C687.797 101.93 687.846 102.028 687.868 102.134C687.889 102.239 687.881 102.348 687.845 102.45C687.701 103.01 687.513 103.558 687.285 104.09C687.133 104.387 687.082 104.725 687.14 105.054C687.197 105.382 687.361 105.683 687.605 105.91C687.885 106.1 688.235 106.11 688.345 106.26C688.455 106.41 688.385 106.73 688.275 106.98C688.054 107.52 687.79 108.042 687.485 108.54C687.323 108.822 687.243 109.145 687.255 109.47C687.265 109.784 687.326 110.095 687.435 110.39C687.665 110.98 688.005 111.46 688.215 111.98C688.327 112.202 688.372 112.452 688.345 112.7C688.263 112.955 688.159 113.202 688.035 113.44C687.781 113.99 687.567 114.558 687.395 115.14C687.217 115.734 687.123 116.35 687.115 116.97V118.73C687.055 119.91 687.135 121.08 687.055 122.25C686.975 123.42 686.915 124.59 686.775 125.74C686.642 126.889 686.431 128.029 686.145 129.15C685.765 130.31 685.599 131.53 685.655 132.75C685.735 133.99 686.215 135.11 686.215 136.23C686.216 136.809 686.173 137.388 686.085 137.96C685.958 138.548 685.911 139.15 685.945 139.75C685.988 139.171 686.102 138.6 686.285 138.05C686.438 137.467 686.535 136.871 686.575 136.27C686.615 135.03 686.255 133.87 686.255 132.75C686.259 131.607 686.472 130.475 686.885 129.41C687.211 128.253 687.448 127.073 687.595 125.88C687.752 124.702 687.848 123.517 687.885 122.33V118.78V117C687.863 116.441 687.92 115.882 688.055 115.34C688.2 114.785 688.373 114.237 688.575 113.7C688.71 113.409 688.81 113.104 688.875 112.79C688.894 112.442 688.815 112.095 688.645 111.79C688.375 111.25 688.005 110.76 687.775 110.25C687.652 110.008 687.588 109.741 687.588 109.47C687.588 109.199 687.652 108.932 687.775 108.69C688.08 108.181 688.337 107.645 688.545 107.09C688.624 106.935 688.664 106.764 688.664 106.59C688.664 106.416 688.624 106.245 688.545 106.09C688.265 105.77 687.925 105.81 687.735 105.65C687.644 105.566 687.57 105.464 687.518 105.35C687.467 105.237 687.439 105.114 687.435 104.99C687.422 104.722 687.473 104.454 687.585 104.21C687.868 103.679 688.102 103.123 688.285 102.55C688.348 102.373 688.365 102.184 688.336 101.998C688.306 101.813 688.23 101.638 688.115 101.49C687.915 101.286 687.728 101.068 687.555 100.84C687.305 100.404 687.21 99.8967 687.285 99.4C687.354 99.1448 687.462 98.9018 687.605 98.68C687.78 98.3523 687.846 97.9778 687.795 97.61C687.739 97.2911 687.649 96.9793 687.525 96.68C687.412 96.475 687.353 96.2442 687.355 96.01C687.464 95.4515 687.607 94.9004 687.785 94.36C687.888 94.037 687.935 93.6988 687.925 93.36C687.923 93.1574 687.872 92.9583 687.775 92.78C687.681 92.6167 687.555 92.4739 687.405 92.36C687.192 92.2027 687 92.0177 686.835 91.81C686.764 91.7396 686.713 91.6516 686.687 91.5551C686.66 91.4586 686.66 91.3568 686.685 91.26C686.967 90.773 687.281 90.3053 687.625 89.86C687.969 89.3588 688.245 88.814 688.445 88.24C688.467 88.1479 688.467 88.0521 688.445 87.96C688.435 87.8847 688.395 87.8165 688.335 87.77C688.282 87.7595 688.228 87.7595 688.175 87.77C688.043 87.7761 687.91 87.7557 687.785 87.71Z" fill="#771D26"/>
<path d="M690.895 87C690.895 87.28 690.975 87.61 691.185 87.71C691.313 87.7541 691.449 87.7744 691.585 87.77C691.637 87.7595 691.692 87.7595 691.745 87.77C691.801 87.8194 691.84 87.8862 691.855 87.96C691.866 88.053 691.866 88.147 691.855 88.24C691.654 88.814 691.379 89.3588 691.035 89.86C690.674 90.3065 690.34 90.774 690.035 91.26C689.975 91.44 690.035 91.59 690.195 91.81C690.36 92.0177 690.551 92.2027 690.765 92.36C690.915 92.4739 691.041 92.6167 691.135 92.78C691.231 92.9583 691.282 93.1574 691.285 93.36C691.284 93.6982 691.237 94.0347 691.145 94.36C690.959 94.8989 690.812 95.4503 690.705 96.01C690.712 96.2442 690.774 96.4735 690.885 96.68C691.008 96.9793 691.099 97.2911 691.155 97.61C691.206 97.9778 691.139 98.3523 690.965 98.68C690.821 98.9018 690.713 99.1448 690.645 99.4C690.559 99.8968 690.655 100.408 690.915 100.84C691.081 101.073 691.269 101.291 691.475 101.49C691.589 101.638 691.665 101.813 691.695 101.998C691.725 102.184 691.707 102.373 691.645 102.55C691.458 103.122 691.223 103.677 690.945 104.21C690.823 104.451 690.771 104.721 690.795 104.99C690.796 105.115 690.824 105.238 690.875 105.352C690.927 105.465 691.002 105.567 691.095 105.65C691.285 105.81 691.625 105.77 691.905 106.09C691.978 106.247 692.016 106.417 692.016 106.59C692.016 106.763 691.978 106.933 691.905 107.09C691.688 107.642 691.431 108.177 691.135 108.69C691.009 108.931 690.944 109.198 690.944 109.47C690.944 109.742 691.009 110.009 691.135 110.25C691.365 110.76 691.725 111.25 692.005 111.79C692.174 112.095 692.254 112.442 692.235 112.79C692.17 113.104 692.069 113.409 691.935 113.7C691.728 114.236 691.555 114.783 691.415 115.34C691.274 115.882 691.217 116.441 691.245 117V118.78C691.245 119.96 691.295 121.14 691.245 122.33C691.195 123.52 691.095 124.7 690.945 125.88C690.806 127.073 690.572 128.254 690.245 129.41C689.827 130.474 689.613 131.607 689.615 132.75C689.615 133.87 689.975 135.03 689.935 136.27C689.896 136.872 689.795 137.468 689.635 138.05C689.455 138.601 689.344 139.172 689.305 139.75C689.27 139.15 689.317 138.548 689.445 137.96C689.529 137.387 689.569 136.809 689.565 136.23C689.565 135.11 689.095 133.99 689.015 132.75C688.958 131.53 689.124 130.31 689.505 129.15C689.781 128.027 689.991 126.888 690.135 125.74C690.275 124.59 690.335 123.42 690.415 122.25C690.495 121.08 690.415 119.91 690.475 118.73V116.97C690.477 116.35 690.572 115.733 690.755 115.14C690.918 114.557 691.129 113.989 691.385 113.44C691.515 113.204 691.622 112.957 691.705 112.7C691.732 112.452 691.687 112.202 691.575 111.98C691.365 111.46 691.025 110.98 690.795 110.39C690.682 110.096 690.618 109.785 690.605 109.47C690.601 109.144 690.684 108.823 690.845 108.54C691.146 108.04 691.41 107.519 691.635 106.98C691.745 106.73 691.815 106.41 691.705 106.26C691.595 106.11 691.245 106.1 690.955 105.91C690.715 105.68 690.555 105.379 690.499 105.051C690.443 104.723 690.494 104.386 690.645 104.09C690.87 103.558 691.054 103.01 691.195 102.45C691.23 102.348 691.238 102.239 691.217 102.134C691.196 102.028 691.147 101.93 691.075 101.85C690.844 101.651 690.63 101.434 690.435 101.2C690.036 100.641 689.867 99.9498 689.965 99.27C690.037 98.9514 690.155 98.6449 690.315 98.36C690.419 98.1677 690.458 97.9464 690.425 97.73C690.366 97.4703 690.286 97.216 690.185 96.97C690.115 96.8251 690.059 96.6745 690.015 96.52C689.98 96.3282 689.98 96.1318 690.015 95.94C690.135 95.3411 690.302 94.7526 690.515 94.18C690.6 93.9354 690.647 93.679 690.655 93.42C690.661 93.3195 690.641 93.219 690.595 93.1293C690.549 93.0395 690.48 92.9638 690.395 92.91C690.14 92.7115 689.918 92.4755 689.735 92.21C689.632 92.0543 689.557 91.8817 689.515 91.7C689.454 91.5011 689.454 91.2888 689.515 91.09C689.849 90.5744 690.223 90.0862 690.635 89.63C690.984 89.1774 691.289 88.6918 691.545 88.18C691.555 88.1305 691.555 88.0795 691.545 88.03C691.385 88.0157 691.229 87.9716 691.085 87.9C690.765 87.67 690.805 87.3 690.805 87.01L690.895 87Z" fill="#771D26"/>
<path d="M685.483 223.87C674.713 229.13 671.963 226.16 667.613 233.03C664.113 238.56 666.683 241.71 662.613 245.36C663.606 245.508 664.611 245.558 665.613 245.51C668.943 245.36 668.363 245.05 672.943 243.45C677.523 241.85 683.133 236.01 687.373 231.08C690.693 227.22 690.703 224.08 689.673 221.49C688.324 222.365 686.925 223.159 685.483 223.87Z" fill="#0C4A79"/>
<path d="M695.06 45.1499C699.06 40.7899 701.82 42.8999 710.38 43.3499C718.94 43.7999 720.9 46.0499 723.46 48.4599C726.02 50.8699 725.86 57.0199 725.86 58.5199C725.86 60.0199 724.96 62.5799 724.06 64.9799C723.16 67.3799 725.26 68.4399 724.06 72.3499C722.86 76.2599 719.4 86.3499 718.2 90.5299C717 94.7099 712.79 92.9299 709.48 92.7799C706.17 92.6299 701.48 88.5699 700.62 88.7199C699.76 88.8699 693.4 92.1799 689.93 88.7199C686.46 85.2599 681.83 79.5399 681.38 75.3499C680.93 71.1599 681.98 69.7899 682.28 66.9399C682.58 64.0899 695.06 45.1499 695.06 45.1499Z" fill="#BB886A"/>
<path d="M691.001 63.6304V58.8204L696.711 55.5204C696.711 55.5204 695.361 50.2604 696.711 49.2104C697.819 48.3222 699.122 47.7088 700.512 47.4203C701.903 47.1318 703.342 47.1763 704.711 47.5504C708.281 48.6104 717.481 52.2104 718.051 53.0004C718.621 53.7904 721.051 49.5504 722.401 50.6004C723.751 51.6504 723.451 55.4104 724.661 56.6004C725.871 57.7904 729.771 59.6004 732.171 58.1004L734.571 56.6004C734.571 56.6004 730.521 56.7504 729.921 56.3004C729.321 55.8504 732.921 53.1404 733.221 50.7404L733.521 48.3304C733.521 48.3304 730.371 49.5404 729.021 49.2404C727.671 48.9404 728.711 46.9804 729.921 46.0804C731.131 45.1804 734.571 45.0804 734.571 45.0804C734.571 45.0804 729.921 41.4704 729.171 40.7204C728.146 39.9871 727.034 39.3826 725.861 38.9204L729.021 37.1204C729.021 37.1204 723.761 37.2704 721.951 37.1204C719.865 36.7614 717.807 36.2569 715.791 35.6104L719.251 32.9104C717.759 33.6147 716.132 33.9866 714.481 34.0004L711.481 34.1504L714.481 31.9004C714.481 31.9004 710.121 32.8004 708.621 33.2504C705.716 34.4311 702.531 34.7437 699.451 34.1504C694.651 33.2504 692.841 32.3504 689.991 34.9004C687.141 37.4504 681.271 43.6204 680.671 45.5704C680.071 47.5204 680.301 63.5704 681.311 65.2504C682.321 66.9304 685.481 66.9104 687.311 65.2504C688.322 64.3073 689.623 63.736 691.001 63.6304Z" fill="#4F3924"/>
<path d="M690.149 64.4802C688.729 61.1502 686.339 57.8202 684.389 58.4202C682.439 59.0202 679.329 65.9402 682.129 69.3402C684.929 72.7402 685.289 72.6002 686.739 71.5402C688.189 70.4802 690.479 65.1502 690.149 64.4802Z" fill="#B1826B"/>
<path d="M713.731 75.2403C713.731 75.2403 712.671 73.4703 713.431 73.7003C714.191 73.9303 714.781 75.4303 714.551 75.5403C714.321 75.6503 713.731 75.2403 713.731 75.2403Z" fill="black"/>
<path d="M717.161 75.3608C717.161 75.3608 718.211 73.6008 717.461 73.8208C716.711 74.0408 716.111 75.5508 716.331 75.6608C716.551 75.7708 717.161 75.3608 717.161 75.3608Z" fill="black"/>
<path d="M999.04 88.51C996.37 94.16 995.04 103.22 981.96 103.96C968.88 104.7 948.38 104.96 941.84 103.07C935.3 101.18 938.43 96.83 932.34 94.9C926.25 92.97 920 98.7599 920 92.82C920 86.88 922.23 81.6799 925.35 80.3399C928.47 78.9999 927.73 73.65 930.85 69.79C933.97 65.93 942.85 62.2099 942.85 62.2099C942.85 62.2099 952.21 54.2099 960.98 53.8899C969.75 53.5699 982.98 54.3399 986.53 57.1599C990.08 59.9799 994.7 69.64 997.53 71.16C1000.36 72.68 1022.78 75.16 1030.06 75.32C1037.34 75.4799 1041.95 75.9099 1045.22 78.5899C1048.49 81.2699 1049.08 82.45 1047.59 83.04C1041.87 85.4744 1035.79 86.9799 1029.59 87.5C1020.73 88.06 999.04 88.51 999.04 88.51Z" fill="#FEFEFE"/>
<path d="M1048.4 89.3999C1048.22 84.0499 1046.64 80.0399 1048.4 71.5699C1050.16 63.0999 1051.34 48.3999 1051.34 48.3999C1051.34 48.3999 1049.61 46.3199 1048.4 47.9499C1047.19 49.5799 1041.56 66.5799 1041.53 71.5699C1041.5 76.5599 1039.6 97.4199 1043.17 102.92C1046.74 108.42 1049.85 109.16 1049.85 106.92C1049.85 104.68 1048.4 89.3999 1048.4 89.3999Z" fill="#2C6787"/>
<path d="M981.66 101.141C983.89 108.141 989.83 118.971 989.83 118.971" stroke="#CBCBCB" stroke-width="2.28" stroke-linecap="round" stroke-linejoin="round"/>
<path d="M968.397 39.5706C968.317 43.9106 968.517 53.3706 968.567 55.7306C968.57 55.8006 968.559 55.8703 968.534 55.9357C968.509 56.0012 968.471 56.0609 968.422 56.1113C968.374 56.1617 968.316 56.2018 968.251 56.2292C968.187 56.2566 968.117 56.2707 968.047 56.2706H965.047C964.978 56.2706 964.91 56.2568 964.846 56.2301C964.782 56.2033 964.725 56.1641 964.676 56.1148C964.628 56.0654 964.59 56.0069 964.564 55.9427C964.539 55.8784 964.526 55.8097 964.527 55.7406V39.5706C964.526 39.5015 964.539 39.4328 964.564 39.3685C964.59 39.3043 964.628 39.2458 964.676 39.1964C964.725 39.1471 964.782 39.1079 964.846 39.0811C964.91 39.0544 964.978 39.0406 965.047 39.0406H967.817C967.891 39.032 967.966 39.0394 968.037 39.0622C968.108 39.0851 968.173 39.123 968.228 39.1732C968.283 39.2235 968.327 39.285 968.356 39.3535C968.385 39.4221 968.399 39.4961 968.397 39.5706Z" fill="#808080"/>
<path d="M966.57 39.1807C973.26 39.1807 1010.25 41.8607 1011.29 43.1807C1012.33 44.5007 1012.19 44.8107 1006.29 44.5107C1000.39 44.2107 966.57 39.1807 966.57 39.1807Z" fill="#808080"/>
<path d="M965.299 39.3603C966.429 38.8903 924.139 38.0203 923.989 40.1003C923.839 42.1803 959.199 41.8803 965.299 39.3603Z" fill="#808080"/>
<path d="M965.621 101.88C969.621 111.54 971.561 115.88 971.561 115.88" stroke="#CBCBCB" stroke-width="2.28" stroke-linecap="round" stroke-linejoin="round"/>
<path d="M1000.83 120.15C1000.83 120.15 967.399 117.63 964.719 116.74C962.039 115.85 959.379 111.83 959.379 111.83" stroke="#CBCBCB" stroke-width="2.28" stroke-linecap="round" stroke-linejoin="round"/>
<path d="M955.359 102.62C955.359 102.62 948.359 119.26 947.789 120.15" stroke="#CBCBCB" stroke-width="2.28" stroke-linecap="round" stroke-linejoin="round"/>
<path d="M941.251 101.141C938.251 104.701 926.391 118.221 926.391 118.221" stroke="#CBCBCB" stroke-width="2.28" stroke-linecap="round" stroke-linejoin="round"/>
<path d="M958.04 122.09C954.62 122.09 926.54 118.97 922.98 117.48" stroke="#CBCBCB" stroke-width="2.28" stroke-linecap="round" stroke-linejoin="round"/>
<path d="M930.852 69.79C933.972 65.93 942.852 62.2099 942.852 62.2099C942.852 62.2099 952.212 54.2099 960.982 53.8899C969.752 53.5699 982.982 54.3399 986.532 57.1599C990.082 59.9799 994.702 69.64 997.532 71.16C1000.36 72.68 1022.78 75.16 1030.06 75.32C1037.34 75.4799 1041.95 75.9099 1045.22 78.5899C1045.98 79.1857 1046.7 79.8304 1047.37 80.5199C1048.69 81.8599 927.732 73.65 930.852 69.79Z" fill="#2C6787"/>
<path d="M982.401 86.2803C982.701 82.4203 983.401 76.2803 982.401 74.5403C981.401 72.8003 976.311 71.7203 975.401 71.8703C974.491 72.0203 975.401 83.1603 975.401 84.5003C975.401 85.8403 982.401 86.2803 982.401 86.2803Z" fill="#27343D"/>
<path d="M970.821 71.8607C971.711 76.6207 970.821 84.9407 970.821 84.9407H965.621V70.6807L970.821 71.8607Z" fill="#27343D"/>
<path d="M962.479 69.3407C962.029 74.1007 962.029 84.8007 961.139 85.6907C960.249 86.5807 945.139 80.1907 940.489 80.4907C935.839 80.7907 937.219 80.0407 937.219 80.0407C937.219 80.0407 939.299 71.2807 942.219 68.6007C945.139 65.9207 946.829 64.7407 950.689 65.0407C954.549 65.3407 962.479 69.3407 962.479 69.3407Z" fill="#27343D"/>
<path d="M941.248 65.0003C939.908 67.1303 935.008 76.4003 934.418 79.1903L927.578 79.9003C927.578 79.9003 927.518 72.7004 930.848 69.8004C933.628 67.5012 936.606 65.4532 939.748 63.6803C940.288 63.4003 941.248 65.0003 941.248 65.0003Z" fill="#27343D"/>
<path d="M356.798 66.6782C359.468 72.3282 360.798 81.3882 373.878 82.1282C386.958 82.8682 407.458 83.1282 413.988 81.2382C420.518 79.3482 417.408 74.9982 423.498 73.0682C429.588 71.1382 435.828 76.9282 435.828 70.9882C435.828 65.0482 433.608 59.8482 430.488 58.5082C427.368 57.1682 428.108 51.8282 424.988 47.9582C421.868 44.0882 412.988 40.3882 412.988 40.3882C412.988 40.3882 403.628 32.3882 394.868 32.0682C386.108 31.7482 372.868 32.5082 369.318 35.3382C365.768 38.1682 361.138 47.8082 358.318 49.3382C355.498 50.8682 333.058 53.3382 325.778 53.4982C318.498 53.6582 313.898 54.0882 310.628 56.7682C307.358 59.4482 306.768 60.6282 308.248 61.2282C313.977 63.6495 320.051 65.1513 326.248 65.6782C335.098 66.2482 356.798 66.6782 356.798 66.6782Z" fill="#FEFEFE"/>
<path d="M307.741 67.3198C307.921 61.9798 309.501 57.9598 307.741 49.4998C305.981 41.0398 304.801 26.3198 304.801 26.3198C304.801 26.3198 306.531 24.2398 307.741 25.8698C308.951 27.4998 314.581 44.4998 314.611 49.4998C314.641 54.4998 316.541 75.3498 312.971 80.8398C309.401 86.3298 306.291 87.0798 306.291 84.8398C306.291 82.5998 307.741 67.3198 307.741 67.3198Z" fill="#2C6787"/>
<path d="M374.479 79.0605C372.249 86.0605 366.309 96.8905 366.309 96.8905" stroke="#CBCBCB" stroke-width="2.28" stroke-linecap="round" stroke-linejoin="round"/>
<path d="M387.739 17.5001C387.819 21.8301 387.619 31.3001 387.559 33.6501C387.559 33.7916 387.614 33.9274 387.713 34.0284C387.812 34.1294 387.947 34.1874 388.089 34.1901H391.029C391.099 34.1914 391.168 34.1786 391.233 34.1525C391.298 34.1263 391.357 34.0873 391.406 34.0379C391.456 33.9884 391.495 33.9294 391.521 33.8645C391.547 33.7996 391.56 33.73 391.559 33.6601V17.4901C391.559 17.3495 391.503 17.2147 391.403 17.1153C391.304 17.0159 391.169 16.9601 391.029 16.9601H388.269C388.198 16.9586 388.127 16.9717 388.062 16.9985C387.996 17.0253 387.937 17.0652 387.887 17.1157C387.837 17.1663 387.799 17.2265 387.773 17.2926C387.748 17.3587 387.736 17.4293 387.739 17.5001Z" fill="#808080"/>
<path d="M389.56 17.1104C382.88 17.1104 345.88 19.7804 344.84 21.1104C343.8 22.4404 343.95 22.7404 349.9 22.4504C355.85 22.1604 389.56 17.1104 389.56 17.1104Z" fill="#808080"/>
<path d="M390.839 17.2802C389.709 16.8102 431.999 15.9402 432.139 18.0202C432.279 20.1002 396.929 19.8002 390.839 17.2802Z" fill="#808080"/>
<path d="M390.479 79.7998C386.479 89.4598 384.539 93.7998 384.539 93.7998" stroke="#CBCBCB" stroke-width="2.28" stroke-linecap="round" stroke-linejoin="round"/>
<path d="M355.309 98.0798C355.309 98.0798 388.739 95.5498 391.409 94.6598C394.079 93.7698 396.759 89.7598 396.759 89.7598" stroke="#CBCBCB" stroke-width="2.28" stroke-linecap="round" stroke-linejoin="round"/>
<path d="M400.77 80.5498C400.77 80.5498 407.77 97.1898 408.35 98.0798" stroke="#CBCBCB" stroke-width="2.28" stroke-linecap="round" stroke-linejoin="round"/>
<path d="M414.891 79.0605C417.891 82.6305 429.751 96.1506 429.751 96.1506" stroke="#CBCBCB" stroke-width="2.28" stroke-linecap="round" stroke-linejoin="round"/>
<path d="M398.098 100.001C401.518 100.001 429.598 96.8806 433.158 95.3906" stroke="#CBCBCB" stroke-width="2.28" stroke-linecap="round" stroke-linejoin="round"/>
<path d="M425.29 47.7101C422.17 43.8501 413.29 40.1401 413.29 40.1401C413.29 40.1401 403.93 32.1401 395.17 31.8201C386.41 31.5001 373.17 32.2601 369.62 35.0901C366.07 37.9201 361.44 47.5601 358.62 49.0901C355.8 50.6201 333.36 53.0901 326.08 53.2501C318.8 53.4101 314.2 53.8401 310.93 56.5201C310.174 57.1217 309.456 57.7696 308.78 58.4601C307.48 59.7801 428.41 51.5801 425.29 47.7101Z" fill="#2C6787"/>
<path d="M373.742 64.2C373.442 60.34 372.742 54.2 373.742 52.47C374.742 50.74 379.832 49.64 380.742 49.79C381.652 49.94 380.742 61.08 380.742 62.42C380.742 63.76 373.742 64.2 373.742 64.2Z" fill="#27343D"/>
<path d="M385.321 49.7806C384.431 54.5506 385.321 62.8706 385.321 62.8706H390.481V48.6006L385.321 49.7806Z" fill="#27343D"/>
<path d="M393.641 47.2706C394.091 52.0206 394.091 62.7206 394.981 63.6106C395.871 64.5006 411.031 58.1106 415.631 58.4106C420.231 58.7106 418.901 57.9606 418.901 57.9606C418.901 57.9606 416.821 49.2006 413.851 46.5206C410.881 43.8406 409.241 42.6606 405.381 42.9606C401.521 43.2606 393.641 47.2706 393.641 47.2706Z" fill="#27343D"/>
<path d="M414.891 42.9104C416.231 45.0404 421.131 54.3104 421.721 57.1004L428.561 57.8204C428.561 57.8204 428.611 50.6204 425.291 47.7104C422.508 45.4149 419.53 43.3671 416.391 41.5904C415.851 41.3304 414.891 42.9104 414.891 42.9104Z" fill="#27343D"/>
<path d="M264.179 193.83C266.029 197.74 266.959 204.02 276.019 204.53C285.079 205.04 299.269 205.25 303.799 203.91C308.329 202.57 306.169 199.59 310.389 198.25C314.609 196.91 318.929 200.93 318.929 196.81C318.929 192.69 317.379 189.1 315.218 188.17C313.058 187.24 313.578 183.54 311.409 180.86C309.239 178.18 303.079 175.62 303.079 175.62C303.079 175.62 296.599 170.06 290.519 169.85C284.439 169.64 275.289 170.16 272.829 172.12C270.369 174.08 267.169 180.76 265.209 181.79C263.249 182.82 247.719 184.57 242.669 184.67C237.619 184.77 234.439 185.08 232.179 186.93C229.919 188.78 229.499 189.61 230.529 190.02C234.49 191.7 238.692 192.743 242.979 193.11C249.159 193.52 264.179 193.83 264.179 193.83Z" fill="#FEFEFE"/>
<path d="M230 194.451C230.12 190.741 231.21 187.961 230 182.101C228.79 176.241 228 166.101 228 166.101C228 166.101 229.19 164.651 230 165.791C230.81 166.931 234.73 178.691 234.75 182.151C234.77 185.611 236.09 200.051 233.62 203.861C231.15 207.671 228.99 208.181 228.99 206.641C228.99 205.101 230 194.451 230 194.451Z" fill="#2C6787"/>
<path d="M276.219 202.58C274.679 207.41 270.559 214.92 270.559 214.92" stroke="#CBCBCB" stroke-width="1.58" stroke-linecap="round" stroke-linejoin="round"/>
<path d="M285.399 159.931C285.459 162.931 285.319 169.491 285.289 171.131C285.288 171.179 285.296 171.227 285.314 171.271C285.331 171.316 285.357 171.357 285.391 171.392C285.425 171.426 285.465 171.454 285.509 171.472C285.553 171.491 285.601 171.501 285.649 171.501H287.649C287.747 171.498 287.839 171.458 287.908 171.389C287.977 171.321 288.017 171.228 288.019 171.131V159.931C288.017 159.833 287.977 159.741 287.908 159.672C287.839 159.603 287.747 159.563 287.649 159.561H285.729C285.639 159.573 285.556 159.616 285.496 159.684C285.435 159.752 285.401 159.84 285.399 159.931Z" fill="#808080"/>
<path d="M286.671 159.66C282.041 159.66 256.421 161.52 255.671 162.44C254.921 163.36 255.051 163.58 259.161 163.37C263.271 163.16 286.671 159.66 286.671 159.66Z" fill="#808080"/>
<path d="M287.559 159.78C286.769 159.46 316.059 158.86 316.159 160.3C316.259 161.74 291.779 161.53 287.559 159.78Z" fill="#808080"/>
<path d="M287.333 203.09C284.563 209.78 283.223 212.76 283.223 212.76" stroke="#CBCBCB" stroke-width="1.58" stroke-linecap="round" stroke-linejoin="round"/>
<path d="M262.949 215.75C262.949 215.75 286.099 214 287.949 213.38C289.799 212.76 291.659 209.99 291.659 209.99" stroke="#CBCBCB" stroke-width="1.58" stroke-linecap="round" stroke-linejoin="round"/>
<path d="M294.48 203.61C294.48 203.61 299.31 215.13 299.72 215.75" stroke="#CBCBCB" stroke-width="1.58" stroke-linecap="round" stroke-linejoin="round"/>
<path d="M304.211 202.58C306.271 205.05 314.501 214.41 314.501 214.41" stroke="#CBCBCB" stroke-width="1.58" stroke-linecap="round" stroke-linejoin="round"/>
<path d="M292.578 217.09C294.948 217.09 314.398 214.92 316.868 213.9" stroke="#CBCBCB" stroke-width="1.58" stroke-linecap="round" stroke-linejoin="round"/>
<path d="M311.411 180.86C309.251 178.19 303.081 175.62 303.081 175.62C303.081 175.62 296.601 170.06 290.521 169.85C284.441 169.64 275.291 170.16 272.831 172.12C270.371 174.08 267.171 180.76 265.211 181.79C263.251 182.82 247.721 184.57 242.671 184.67C237.621 184.77 234.441 185.08 232.181 186.93C231.656 187.348 231.158 187.799 230.691 188.28C229.801 189.22 313.581 183.54 311.411 180.86Z" fill="#2C6787"/>
<path d="M275.712 192.291C275.502 189.611 274.992 185.391 275.712 184.161C276.432 182.931 279.932 182.161 280.542 182.301C281.152 182.441 280.542 190.121 280.542 191.051C280.542 191.981 275.712 192.291 275.712 192.291Z" fill="#27343D"/>
<path d="M283.728 182.29C283.118 185.6 283.728 191.36 283.728 191.36H287.328V181.48L283.728 182.29Z" fill="#27343D"/>
<path d="M289.48 180.55C289.78 183.85 289.78 191.26 290.4 191.87C291.02 192.48 301.52 188.07 304.71 188.27C307.9 188.47 306.97 187.96 306.97 187.96C306.97 187.96 305.53 181.89 303.47 180.04C301.41 178.19 300.28 177.36 297.61 177.57C294.94 177.78 289.48 180.55 289.48 180.55Z" fill="#27343D"/>
<path d="M304.211 177.54C305.141 179.01 308.531 185.43 308.941 187.37L313.681 187.86C313.681 187.86 313.681 182.86 311.411 180.86C309.485 179.271 307.424 177.852 305.251 176.62C304.881 176.44 304.211 177.54 304.211 177.54Z" fill="#27343D"/>
<path d="M927.48 171.28C925.99 174.43 925.24 179.49 917.94 179.91C910.64 180.33 899.19 180.49 895.54 179.41C891.89 178.33 893.63 175.92 890.23 174.84C886.83 173.76 883.34 177 883.34 173.68C883.34 170.36 884.58 167.46 886.34 166.68C888.1 165.9 887.66 162.95 889.41 160.79C891.16 158.63 896.13 156.56 896.13 156.56C896.13 156.56 901.36 152.08 906.25 151.91C911.14 151.74 918.53 152.16 920.52 153.74C922.51 155.32 925.09 160.74 926.66 161.54C928.23 162.34 940.77 163.78 944.83 163.86C948.89 163.94 951.47 164.19 953.3 165.69C955.13 167.19 955.46 167.84 954.63 168.18C951.446 169.524 948.072 170.364 944.63 170.67C939.59 171 927.48 171.28 927.48 171.28Z" fill="#FEFEFE"/>
<path d="M955.041 171.77C954.941 168.77 954.041 166.55 955.041 161.77C956.041 156.99 956.681 148.82 956.681 148.82C956.681 148.82 955.681 147.66 955.041 148.57C954.401 149.48 951.221 158.98 951.201 161.77C951.181 164.56 950.131 176.2 952.121 179.27C954.111 182.34 955.851 182.76 955.851 181.52C955.851 180.28 955.041 171.77 955.041 171.77Z" fill="#2C6787"/>
<path d="M917.762 178.33C919.04 181.77 920.567 185.112 922.332 188.33" stroke="#CBCBCB" stroke-width="1.27" stroke-linecap="round" stroke-linejoin="round"/>
<path d="M910.36 143.94C910.36 146.37 910.43 151.65 910.46 152.94C910.46 152.98 910.452 153.019 910.437 153.055C910.422 153.092 910.4 153.125 910.372 153.153C910.344 153.18 910.311 153.202 910.275 153.218C910.238 153.233 910.199 153.24 910.16 153.24H908.48C908.44 153.242 908.4 153.235 908.363 153.22C908.326 153.206 908.293 153.184 908.265 153.156C908.237 153.127 908.214 153.094 908.2 153.057C908.185 153.02 908.178 152.98 908.18 152.94V143.94C908.18 143.901 908.188 143.862 908.203 143.826C908.218 143.789 908.24 143.756 908.268 143.728C908.296 143.7 908.329 143.678 908.365 143.663C908.401 143.648 908.44 143.64 908.48 143.64H910.02C910.062 143.635 910.106 143.638 910.147 143.651C910.188 143.663 910.226 143.684 910.258 143.713C910.291 143.741 910.316 143.776 910.334 143.816C910.351 143.855 910.36 143.897 910.36 143.94Z" fill="#808080"/>
<path d="M909.34 143.73C913.07 143.73 933.73 145.22 934.34 145.97C934.95 146.72 934.84 146.88 931.52 146.72C928.2 146.56 909.34 143.73 909.34 143.73Z" fill="#808080"/>
<path d="M908.619 143.82C909.259 143.56 885.619 143.08 885.559 144.24C885.499 145.4 905.219 145.23 908.619 143.82Z" fill="#808080"/>
<path d="M908.801 178.74C911.041 184.14 912.121 186.54 912.121 186.54" stroke="#CBCBCB" stroke-width="1.27" stroke-linecap="round" stroke-linejoin="round"/>
<path d="M928.48 189.001C928.48 189.001 909.81 187.591 908.32 187.091C906.83 186.591 905.32 184.351 905.32 184.351" stroke="#CBCBCB" stroke-width="1.27" stroke-linecap="round" stroke-linejoin="round"/>
<path d="M903.078 179.16C903.078 179.16 899.178 188.45 898.848 188.95" stroke="#CBCBCB" stroke-width="1.27" stroke-linecap="round" stroke-linejoin="round"/>
<path d="M895.192 178.33C893.542 180.33 886.902 187.87 886.902 187.87" stroke="#CBCBCB" stroke-width="1.27" stroke-linecap="round" stroke-linejoin="round"/>
<path d="M904.568 190.001C902.658 190.001 886.978 188.261 884.988 187.431" stroke="#CBCBCB" stroke-width="1.27" stroke-linecap="round" stroke-linejoin="round"/>
<path d="M889.389 160.82C891.129 158.66 896.109 156.59 896.109 156.59C896.109 156.59 901.339 152.11 906.229 151.94C911.119 151.77 918.509 152.19 920.499 153.77C922.489 155.35 925.069 160.77 926.639 161.57C928.209 162.37 940.749 163.81 944.809 163.89C948.869 163.97 951.449 164.22 953.279 165.72C953.7 166.056 954.101 166.416 954.479 166.8C955.199 167.56 887.639 163 889.389 160.82Z" fill="#2C6787"/>
<path d="M918.181 170.001C918.351 167.841 918.761 164.441 918.181 163.451C917.601 162.461 914.781 161.871 914.281 161.951C913.781 162.031 914.281 168.261 914.281 169.011C914.281 169.761 918.181 170.001 918.181 170.001Z" fill="#27343D"/>
<path d="M911.711 162.001C911.976 164.43 911.976 166.881 911.711 169.311H908.801V161.311L911.711 162.001Z" fill="#27343D"/>
<path d="M907.062 160.57C906.812 163.23 906.812 169.2 906.312 169.7C905.812 170.2 897.312 166.63 894.782 166.8C892.252 166.97 892.952 166.55 892.952 166.55C892.952 166.55 894.122 161.65 895.782 160.16C897.442 158.67 898.352 158 900.512 158.16C902.672 158.32 907.062 160.57 907.062 160.57Z" fill="#27343D"/>
<path d="M895.189 158.14C894.449 159.33 891.709 164.51 891.379 166.07L887.559 166.46C887.559 166.46 887.559 162.46 889.389 160.82C890.95 159.534 892.624 158.389 894.389 157.4C894.659 157.25 895.189 158.14 895.189 158.14Z" fill="#27343D"/>
<path d="M522.04 85.16C555.299 85.16 582.26 70.1347 582.26 51.6C582.26 33.0654 555.299 18.04 522.04 18.04C488.782 18.04 461.82 33.0654 461.82 51.6C461.82 70.1347 488.782 85.16 522.04 85.16Z" fill="#BCCBD3"/>
<path d="M452.78 66.9405C451.31 65.9405 459.57 66.2005 461.22 62.0505C461.961 60.0004 462.97 58.0569 464.22 56.2705C465.021 58.1173 465.964 59.8993 467.04 61.6005C469.07 65.0005 461.67 73.0005 452.78 66.9405Z" fill="#BCCBD3"/>
<path d="M488.578 39.32C490.478 37.32 491.748 38.32 495.758 38.48C499.768 38.64 500.688 39.74 501.878 40.87C503.068 42 503.008 44.87 503.008 45.59C502.871 46.6258 502.585 47.6362 502.158 48.59C501.738 49.72 502.728 50.21 502.158 52.04C501.588 53.87 499.978 58.58 499.418 60.55C498.858 62.52 496.888 61.68 495.338 61.61C493.788 61.54 491.608 59.61 491.188 59.71C490.768 59.81 487.808 61.33 486.188 59.71C484.568 58.09 482.398 55.41 482.188 53.45C481.978 51.49 482.468 50.84 482.608 49.51C482.748 48.18 488.578 39.32 488.578 39.32Z" fill="#BB886A"/>
<path d="M486.679 48.0004V45.7304L489.359 44.1804C489.359 44.1804 488.729 41.7204 489.359 41.1804C489.878 40.7701 490.485 40.4867 491.133 40.3531C491.78 40.2194 492.45 40.239 493.089 40.4104C495.25 41.0823 497.345 41.9492 499.349 43.0004C499.629 43.3504 500.759 41.3804 501.349 41.8804C501.939 42.3804 501.839 44.1304 502.409 44.6904C502.979 45.2504 504.799 46.1004 505.919 45.3904L507.049 44.6904C506.319 44.7406 505.586 44.6935 504.869 44.5504C504.589 44.3404 506.279 43.0704 506.419 41.9504L506.559 40.8204C505.888 41.0924 505.172 41.2349 504.449 41.2404C503.809 41.1004 504.309 40.2404 504.869 39.7604C505.555 39.4521 506.297 39.2854 507.049 39.2704C507.049 39.2704 504.869 37.5804 504.519 37.2704C504.039 36.9269 503.519 36.6448 502.969 36.4304L504.449 35.5804C504.449 35.5804 501.979 35.6504 501.139 35.5804C500.161 35.4133 499.195 35.1794 498.249 34.8804L499.869 33.6104C499.171 33.9662 498.402 34.161 497.619 34.1804L496.209 34.2504L497.619 33.1904C497.619 33.1904 495.619 33.6104 494.879 33.8204C493.521 34.3754 492.03 34.5248 490.589 34.2504C488.329 33.8204 487.489 33.4004 486.149 34.6004C484.809 35.8004 482.069 38.6804 481.789 39.6004C481.509 40.5204 481.619 48.0504 482.089 48.8204C482.559 49.5904 484.089 49.6004 484.889 48.8204C485.368 48.3417 486.003 48.0507 486.679 48.0004Z" fill="#4F3924"/>
<path d="M486.29 48.3806C485.62 46.8206 484.5 45.2606 483.59 45.5406C482.68 45.8206 481.22 49.0606 482.53 50.6506C483.84 52.2406 484.01 52.1806 484.69 51.6506C485.505 50.7224 486.057 49.5936 486.29 48.3806Z" fill="#B1826B"/>
<path d="M560.579 48.5501C560.579 55.5501 558.129 61.7001 552.189 61.7001C550.599 61.7001 544.299 59.5301 541.919 55.7001C540.759 53.8501 539.379 50.8201 539.379 48.5401C539.379 41.5401 543.289 35.8701 549.229 35.8701C555.169 35.8701 560.579 41.5501 560.579 48.5501Z" fill="#861D24"/>
<path d="M541.551 44.2505C541.551 44.2505 546.551 42.4805 549.231 43.9405C550.058 44.4482 550.759 45.1383 551.279 45.9581C551.799 46.7779 552.124 47.7056 552.231 48.6705C551.885 49.1292 551.428 49.4926 550.903 49.727C550.379 49.9613 549.803 50.0588 549.231 50.0105C546.231 50.0105 543.591 49.4305 542.471 47.0905C542.092 46.1689 541.784 45.2194 541.551 44.2505Z" fill="black"/>
<path d="M554.258 48.7402C554.068 48.2402 555.258 44.0202 556.258 43.3702C556.638 43.1302 557.788 42.1702 558.408 42.7902C559.384 44.1553 559.905 45.7925 559.898 47.4702C559.248 48.8102 554.478 49.2402 554.258 48.7402Z" fill="black"/>
<path d="M543.348 45.0701C543.348 45.0701 546.648 43.9001 548.428 44.8701C548.978 45.2047 549.444 45.6607 549.791 46.2032C550.137 46.7457 550.355 47.3604 550.428 48.0001C550.198 48.3072 549.894 48.5502 549.544 48.706C549.194 48.8619 548.809 48.9252 548.428 48.8901C546.428 48.8901 544.698 48.5101 543.958 46.9601C543.707 46.3463 543.503 45.7145 543.348 45.0701Z" fill="white"/>
<path d="M555.151 47.8107C555.021 47.4707 555.811 44.5607 556.551 44.1207C556.811 43.9607 557.551 43.3007 558.031 43.7207C558.688 44.6652 559.038 45.7899 559.031 46.9407C558.581 47.8607 555.281 48.1507 555.151 47.8107Z" fill="white"/>
<path d="M514.973 50.0098H528.373" stroke="white" stroke-width="2" stroke-miterlimit="10" stroke-linecap="round"/>
<path d="M514.973 54.6807H528.373" stroke="white" stroke-width="2" stroke-miterlimit="10" stroke-linecap="round"/>
<path d="M816.441 166.06C842.575 166.06 863.761 154.254 863.761 139.69C863.761 125.127 842.575 113.32 816.441 113.32C790.307 113.32 769.121 125.127 769.121 139.69C769.121 154.254 790.307 166.06 816.441 166.06Z" fill="#BCCBD3"/>
<path d="M870.87 151.74C872.02 150.95 865.53 151.16 864.23 147.9C863.657 146.293 862.877 144.767 861.91 143.36C861.28 144.812 860.538 146.213 859.69 147.55C858.06 150.23 863.89 156.51 870.87 151.74Z" fill="#BCCBD3"/>
<path d="M842.729 130C841.239 128.4 840.239 129.17 837.089 129.34C833.939 129.51 833.219 130.34 832.279 131.22C831.339 132.1 831.399 134.37 831.399 134.92C831.504 135.741 831.727 136.543 832.059 137.3C832.389 138.19 831.619 138.57 832.059 140.01C832.499 141.45 833.769 145.15 834.219 146.7C834.669 148.25 836.219 147.59 837.419 147.53C838.619 147.47 840.349 145.98 840.689 146.04C841.029 146.1 843.339 147.31 844.619 146.04C845.899 144.77 847.619 142.66 847.759 141.12C847.817 140.076 847.705 139.029 847.429 138.02C847.319 137 842.729 130 842.729 130Z" fill="#BB886A"/>
<path d="M844.231 136.841V135.071L842.121 133.861C842.121 133.861 842.621 131.921 842.121 131.541C841.716 131.215 841.239 130.989 840.73 130.883C840.22 130.777 839.693 130.793 839.191 130.931C837.493 131.444 835.846 132.114 834.271 132.931C834.051 133.201 833.171 131.661 832.671 132.041C832.171 132.421 832.281 133.811 831.841 134.261C831.401 134.711 829.961 135.361 829.071 134.811L828.191 134.261C828.764 134.299 829.339 134.258 829.901 134.141C830.131 133.981 828.801 132.981 828.691 132.141L828.581 131.251C829.108 131.47 829.671 131.585 830.241 131.591C830.731 131.481 830.351 130.761 829.901 130.421C829.363 130.179 828.781 130.05 828.191 130.041C828.191 130.041 829.901 128.711 830.191 128.431C830.571 128.164 830.98 127.942 831.411 127.771L830.251 127.111C830.251 127.111 832.181 127.111 832.841 127.111C833.61 126.976 834.368 126.789 835.111 126.551L833.841 125.551C834.391 125.828 834.996 125.979 835.611 125.991L836.721 126.051L835.611 125.221C835.611 125.221 837.211 125.551 837.771 125.711C838.837 126.152 840.009 126.27 841.141 126.051C842.911 125.711 843.571 125.381 844.621 126.321C845.671 127.261 847.831 129.531 848.051 130.251C848.271 130.971 848.191 136.881 847.811 137.491C847.669 137.637 847.499 137.753 847.31 137.832C847.122 137.911 846.92 137.952 846.716 137.952C846.512 137.952 846.31 137.911 846.122 137.832C845.934 137.753 845.764 137.637 845.621 137.491C845.249 137.117 844.757 136.887 844.231 136.841Z" fill="#4F3924"/>
<path d="M844.539 137.16C845.059 135.93 845.939 134.71 846.659 134.93C847.379 135.15 848.519 137.69 847.489 138.93C846.459 140.17 846.329 140.12 845.789 139.74C845.15 139.007 844.718 138.116 844.539 137.16Z" fill="#B1826B"/>
<path d="M786.16 137.29C786.16 142.79 788.08 147.62 792.75 147.62C794 147.62 798.95 145.92 800.82 142.92C801.935 141.234 802.622 139.301 802.82 137.29C802.82 131.8 799.75 127.34 795.09 127.34C790.43 127.34 786.16 131.8 786.16 137.29Z" fill="#861D24"/>
<path d="M801.107 133.92C801.107 133.92 797.187 132.53 795.107 133.67C794.462 134.072 793.916 134.616 793.512 135.26C793.109 135.905 792.857 136.633 792.777 137.39C793.047 137.746 793.402 138.028 793.809 138.212C794.216 138.395 794.662 138.474 795.107 138.44C797.457 138.44 799.537 137.99 800.417 136.15C800.705 135.425 800.935 134.68 801.107 133.92Z" fill="black"/>
<path d="M791.12 137.451C791.27 137.051 790.37 133.731 789.52 133.221C789.22 133.041 788.32 132.281 787.83 132.771C787.06 133.842 786.65 135.131 786.66 136.451C787.2 137.501 790.97 137.841 791.12 137.451Z" fill="black"/>
<path d="M799.7 134.56C799.7 134.56 797.1 133.64 795.7 134.4C795.273 134.666 794.913 135.026 794.646 135.453C794.379 135.879 794.213 136.36 794.16 136.86C794.338 137.096 794.572 137.284 794.841 137.406C795.11 137.529 795.405 137.582 795.7 137.56C797.26 137.56 798.64 137.26 799.22 136.04C799.415 135.559 799.575 135.064 799.7 134.56Z" fill="white"/>
<path d="M790.418 136.71C790.528 136.44 789.898 134.16 789.318 133.81C789.118 133.68 788.498 133.17 788.158 133.5C787.632 134.239 787.349 135.123 787.348 136.03C787.728 136.75 790.318 137 790.418 136.71Z" fill="white"/>
<path d="M822.003 138.44H811.473" stroke="white" stroke-width="1.57" stroke-miterlimit="10" stroke-linecap="round"/>
<path d="M822.003 142.11H811.473" stroke="white" stroke-width="1.57" stroke-miterlimit="10" stroke-linecap="round"/>
<path d="M702.28 183.1C704.09 182.7 705.01 183.36 705.05 183.76C705.09 184.16 707.59 183.28 708.72 183.64L709.86 184C709.86 184 710.02 178.46 709.86 178.07L710.52 184.74C709.041 184.661 707.559 184.661 706.08 184.74C705.809 184.837 705.565 184.999 705.37 185.21H708.66L710.78 187.43C710.78 187.43 712.48 183.06 712.53 180.64L712.59 178.22C713.052 178.96 713.335 179.796 713.419 180.664C713.502 181.532 713.383 182.407 713.07 183.22C711.94 185.86 711.2 187.14 711.22 187.36C711.24 187.58 708.49 186.65 708.31 186.49C708.13 186.33 705.13 185.59 705.13 185.59C705.816 186.199 706.6 186.686 707.45 187.03C708.21 187.16 709.45 190.18 709.45 190.18L707.45 187.78L704.93 186.33L704.54 186.45C704.54 186.45 706.6 190.31 706.62 190.45C706.64 190.59 699.25 203.35 698.72 204.09L705.72 190.65L704.12 187.52L703.55 187.81L703.84 190.81L700.75 195.45L699.28 195.16V189.09L701.42 186.5L697.86 187.16C697.967 189.197 697.924 191.24 697.73 193.27C697.41 194.45 694.79 201.57 694.79 201.57C694.79 201.57 697.21 192.97 697.23 192.83C697.25 192.69 697.23 186.67 697.23 186.67L701.15 185.6V185L691.7 184.87L691.52 196.45L691 184.33L700.31 184.17C700.31 184.17 698.96 182.27 698.43 182.17C697.9 182.07 693.78 182.23 693.78 182.23C693.78 182.23 695.89 174.56 696.78 174.01C697.959 173.388 699.175 172.837 700.42 172.36L696.84 174.6L694.74 181.45L698.57 181.34L701.13 183.34C700.872 182.502 700.562 181.68 700.2 180.88C700.07 180.88 696.68 180.57 696.96 179.88C697.24 179.19 701.76 175.06 702.96 174.94C702.96 174.94 699.38 178.17 699.08 178.55C698.78 178.93 698.43 179.43 698.43 179.43L700.43 180.43L701.88 182.71L702.28 183.1Z" fill="black"/>
</g>
<defs>
<clipPath id="clip0_1020_704">
<rect width="1280" height="315" fill="white"/>
</clipPath>
</defs>
</svg>
