<svg width="992" height="315" viewBox="0 0 992 315" fill="none" xmlns="http://www.w3.org/2000/svg">
<g clip-path="url(#clip0_1020_709)">
<path d="M347.48 281.06V346.96L684.78 343.83V281.06H347.48Z" fill="#B2B2B2"/>
<path d="M516.13 301.87C609.273 301.87 684.78 294.796 684.78 286.07C684.78 277.343 609.273 270.27 516.13 270.27C422.988 270.27 347.48 277.343 347.48 286.07C347.48 294.796 422.988 301.87 516.13 301.87Z" fill="#CBCBCB"/>
<path d="M516.13 296.87C609.273 296.87 684.78 289.796 684.78 281.07C684.78 272.343 609.273 265.27 516.13 265.27C422.988 265.27 347.48 272.343 347.48 281.07C347.48 289.796 422.988 296.87 516.13 296.87Z" fill="#E5E5E5"/>
<path d="M530.393 240.47C530.393 242.77 527.683 249.4 528.143 254.47C528.603 259.54 531.583 270.28 531.813 272C532.043 273.72 530.553 274.63 535.933 275.78C539.889 276.653 543.898 277.264 547.933 277.61C552.403 278.07 556.303 278.87 557.673 280.13C559.043 281.39 555.953 282.53 553.673 282.65C551.393 282.77 552.983 283.22 549.783 284.02C546.583 284.82 546.293 283.56 543.053 284.02C539.813 284.48 542.913 285.62 535.693 285.28C528.473 284.94 527.223 285.05 525.153 284.02C523.083 282.99 521.493 284.25 521.383 281.84C521.273 279.43 520.923 277.61 521.383 277.26C521.843 276.91 519.663 279.33 519.313 278.52C518.963 277.71 518.973 277.52 519.313 275.66C519.653 273.8 521.153 272.22 521.833 269.59C522.513 266.96 523.213 262.83 522.833 260.2C522.453 257.57 521.693 250.92 521.693 248.98C521.693 247.04 521.573 242.91 521.573 242.91L530.393 240.47Z" fill="#F6921E"/>
<path d="M528.693 282.44C527.233 281.67 526.023 281.84 526.023 279.7C526.023 277.56 526.113 277.12 526.633 277.12C527.153 277.12 532.383 279.44 535.303 279.78C538.223 280.12 542.093 280.98 542.003 281.67C541.913 282.36 540.763 282.87 538.553 283.3C536.343 283.73 528.693 282.44 528.693 282.44Z" fill="#E2801E"/>
<path d="M540.48 277.81C542.72 279.81 545.64 281.81 546.93 282.27C548.22 282.73 548.3 282.36 550.1 281.84C551.9 281.32 553.71 281.41 554.91 280.98C556.11 280.55 556.12 279.61 554.23 279.52C551.55 279.393 548.878 279.109 546.23 278.67C544.06 278.24 540.48 277.81 540.48 277.81Z" fill="#E2801E"/>
<path d="M415.485 195C417.545 193.85 427.855 194.77 437.705 192C447.555 189.23 455.115 187.88 467.255 180.55C479.395 173.22 481.255 170.93 495.885 165.43C510.515 159.93 524.745 156.96 527.715 154.66C530.685 152.36 529.785 155.12 533.715 140.92C537.645 126.72 535.085 118.48 536.005 110.23C536.925 101.98 535.485 77.05 537.085 73.84C538.685 70.63 559.755 72.01 558.835 82.55C557.915 93.09 556.095 91.48 555.635 100.64C555.175 109.8 554.485 122.4 557.005 131.33C559.525 140.26 569.605 150.33 571.005 162.71C572.405 175.09 575.135 186.71 571.005 195.01C566.875 203.31 552.195 218.6 541.485 223.87C530.775 229.14 527.965 226.16 523.615 233.03C519.265 239.9 524.305 243.11 514.225 248.15C504.145 253.19 509.645 256.62 497.045 254.56C484.445 252.5 482.385 252.73 473.455 248.15C464.525 243.57 459.025 243.56 455.815 233.94C452.605 224.32 452.615 216.77 448.485 212.41C444.355 208.05 418.945 198.67 416.655 198.21C414.365 197.75 415.485 195 415.485 195Z" fill="#861D24"/>
<path d="M415.483 195C417.543 193.85 427.853 194.77 437.703 192C447.553 189.23 455.113 187.881 467.253 180.551C479.393 173.221 527.943 226.131 523.593 233C519.243 239.87 524.283 243.08 514.203 248.12C504.123 253.16 509.623 256.59 497.023 254.53C484.423 252.47 482.363 252.7 473.433 248.12C464.503 243.54 459.003 243.531 455.793 233.911C452.583 224.291 452.593 216.741 448.463 212.381C444.333 208.021 418.923 198.64 416.633 198.18C414.343 197.72 415.483 195 415.483 195Z" fill="#0C4A79"/>
<path d="M489.482 245.53C488.192 248.26 486.962 246.97 485.992 252.77C485.022 258.57 483.902 263.46 484.242 268.1C484.582 272.74 483.302 273.68 485.702 275.1C487.853 276.478 490.369 277.175 492.922 277.1C496.012 277.19 494.722 276.41 499.102 277.1C503.482 277.79 506.102 276.15 508.812 277.79C511.522 279.43 514.562 279.59 512.502 280.24C510.442 280.89 508.892 280.54 506.922 281.91C504.952 283.28 504.852 282.08 503.312 283.91C501.772 285.74 502.452 286.84 499.532 287.52C497.251 288.181 494.903 288.584 492.532 288.72C490.532 288.72 486.092 288.3 484.722 287.35C482.979 285.979 481.47 284.334 480.252 282.48C478.622 280.22 479.482 279.48 477.672 278.93C475.862 278.38 475.182 279.88 474.842 277.82C474.502 275.76 475.842 274.29 474.842 273.52C473.842 272.75 472.432 274.47 472.182 273.18C471.932 271.89 471.752 271.46 473.032 270.09C474.312 268.72 474.842 266.14 476.732 262.09C478.622 258.04 478.792 252.64 479.562 248.69C480.332 244.74 479.912 243.28 480.682 242.42C481.452 241.56 481.452 241.65 482.052 242.42C482.652 243.19 483.512 243.36 485.832 243.97C487.132 244.269 488.368 244.797 489.482 245.53Z" fill="#F6921E"/>
<path d="M444.864 260.63C441.474 259.74 435.714 256.01 438.084 244.82C440.454 233.63 446.894 223.82 452.664 215.32C458.434 206.82 463.854 198 465.884 194.64C467.914 191.28 473.684 208.2 471.654 213.8C469.624 219.4 469.954 235.16 465.884 246.26C461.814 257.36 456.394 254.99 452.664 258.38C451.644 259.361 450.401 260.078 449.042 260.47C447.683 260.862 446.249 260.917 444.864 260.63Z" fill="#861D24"/>
<path d="M450.486 253.15C449.796 250.23 449.156 244.69 452.336 241.26C455.516 237.83 459.006 235.92 460.476 233.51C461.946 231.1 462.126 225.05 462.126 225.05C462.783 227.875 463.251 230.742 463.526 233.63C463.716 237 464.666 241.77 461.526 246.16C458.386 250.55 456.946 252.16 453.956 252.71C452.711 253.027 451.43 253.175 450.146 253.15" fill="black"/>
<path d="M452.482 250.8C452.453 248.814 452.91 246.85 453.812 245.08C455.682 242.495 457.813 240.109 460.172 237.96C461.762 236.49 461.572 235.29 461.572 235.29C461.572 235.29 462.792 241.58 461.572 243.74C460.352 245.9 458.132 248.74 456.042 249.65C454.913 250.193 453.715 250.58 452.482 250.8Z" fill="white"/>
<path d="M441.486 248.699C442.626 246.919 446.636 241.529 447.396 239.109C448.156 236.689 447.456 234.969 448.856 229.749C449.857 226.436 451.066 223.19 452.476 220.029C449.61 223.011 446.916 226.152 444.406 229.439C443.646 230.769 439.956 238.209 440.336 241.519C440.716 244.829 441.486 248.699 441.486 248.699Z" fill="black"/>
<path d="M442.252 244.57C442.252 244.19 441.492 238.91 442.632 235.73C443.305 233.849 444.201 232.056 445.302 230.39C445.578 232.286 445.578 234.213 445.302 236.11C444.802 238.21 442.252 244.57 442.252 244.57Z" fill="white"/>
<path d="M484.75 280.81C483.89 279.09 481.88 277.21 483.25 277.12C484.62 277.03 486.38 279.52 488.92 280C491.46 280.48 494.42 282.19 498.07 281.71C501.72 281.23 505.41 280.6 504.94 281.07C504.47 281.54 501.46 283.56 499.83 284.59C498.2 285.62 495.23 286.91 493.69 286.83C492.15 286.75 491.07 286.18 488.92 284.59C487.43 283.444 486.036 282.18 484.75 280.81Z" fill="#E2801E"/>
<path d="M491.926 278.49C493.253 278.869 494.625 279.071 496.006 279.09C499.916 279.4 501.126 279.61 503.566 279.09C506.006 278.57 506.566 278.32 506.566 278.32" fill="#E2801E"/>
<path d="M513.213 162.2C505.753 164.43 478.613 169.58 473.113 173.02C467.613 176.46 470.713 177.31 462.463 179.37C454.213 181.43 454.563 179.89 445.293 183.84C436.023 187.79 433.293 190.02 433.293 190.02C433.293 190.02 438.073 188 441.483 188C444.893 188 442.163 191.61 440.963 194.53C439.763 197.45 443.023 199 447.963 200.72C452.903 202.44 447.283 208.62 457.763 209.13C468.243 209.64 474.253 206.38 475.623 208.13C476.993 209.88 491.253 192.84 496.753 191.13C502.253 189.42 511.753 187.86 514.553 184.43C517.353 181 522.693 173.95 520.283 168.11C517.873 162.27 513.213 162.2 513.213 162.2Z" fill="white"/>
<path d="M449.48 191.43C448.974 191.88 448.533 192.399 448.17 192.97C448.009 193.22 447.91 193.505 447.88 193.8C447.88 194.04 447.96 194.02 448.24 194.02C448.392 193.993 448.543 193.956 448.69 193.91L448.94 193.83H449.02C449.02 193.83 449.02 193.83 449.19 193.83C449.36 193.83 449.28 193.83 449.4 194C449.436 194.09 449.436 194.19 449.4 194.28C449.31 194.49 449.33 194.41 449.31 194.45V194.53C449.274 194.642 449.261 194.76 449.272 194.876C449.282 194.993 449.315 195.107 449.37 195.21C449.657 195.775 450.035 196.289 450.49 196.73C450.914 197.188 451.497 197.467 452.12 197.51C452.457 197.523 452.793 197.49 453.12 197.41C453.227 197.398 453.334 197.398 453.44 197.41C453.493 197.413 453.545 197.432 453.587 197.464C453.63 197.496 453.662 197.54 453.68 197.59C453.702 197.659 453.702 197.732 453.68 197.8C453.63 198 453.55 198.14 453.5 198.31C453.241 198.925 453.202 199.61 453.39 200.25C453.54 200.96 454.29 200.75 454.95 200.61C455.678 200.411 456.451 200.442 457.16 200.7C457.375 200.766 457.574 200.874 457.746 201.018C457.917 201.163 458.058 201.34 458.16 201.54C458.233 201.945 458.198 202.363 458.06 202.75C458.004 202.982 458.032 203.227 458.14 203.44C458.14 203.44 458.07 203.44 458.21 203.44L458.7 203.38C459.106 203.318 459.522 203.355 459.91 203.49C460.104 203.561 460.291 203.648 460.47 203.75C460.695 203.872 460.888 204.047 461.03 204.26C461.085 204.355 461.118 204.46 461.127 204.57C461.136 204.679 461.12 204.788 461.08 204.89C461.053 204.97 461.013 205.044 460.96 205.11C460.931 205.165 460.89 205.213 460.84 205.25C460.76 205.328 460.687 205.411 460.62 205.5C460.62 205.45 460.62 205.41 460.67 205.5C460.757 205.601 460.858 205.689 460.97 205.76C461.5 206.129 462.093 206.397 462.72 206.55C464.031 206.851 465.403 206.743 466.65 206.24V206.32C465.742 206.933 464.677 207.274 463.582 207.3C462.487 207.327 461.407 207.039 460.47 206.47C460.287 206.367 460.118 206.239 459.97 206.09C459.851 205.977 459.765 205.833 459.721 205.675C459.677 205.516 459.677 205.349 459.72 205.19C459.812 204.975 459.949 204.78 460.12 204.62C460.17 204.62 460.19 204.52 460.17 204.56C460.16 204.606 460.16 204.654 460.17 204.7C460.107 204.635 460.032 204.58 459.95 204.54C459.831 204.466 459.703 204.406 459.57 204.36C459.303 204.272 459.02 204.242 458.74 204.27C458.59 204.27 458.43 204.27 458.2 204.27C458.054 204.273 457.908 204.249 457.77 204.2C457.606 204.133 457.467 204.018 457.37 203.87C457.154 203.462 457.097 202.988 457.21 202.54C457.3 202.15 457.43 201.83 457.38 201.74C457.33 201.65 457.11 201.42 456.83 201.29C456.251 201.027 455.608 200.94 454.98 201.04C454.618 201.081 454.252 201.081 453.89 201.04C453.686 201.011 453.495 200.92 453.345 200.779C453.194 200.637 453.091 200.453 453.05 200.25C452.885 199.542 452.933 198.801 453.19 198.12C453.19 197.96 453.3 197.79 453.33 197.65C453.36 197.51 453.33 197.6 453.33 197.6C453.33 197.6 453.33 197.66 453.33 197.65H453.14C452.796 197.777 452.436 197.858 452.07 197.89C451.297 197.933 450.537 197.675 449.95 197.17C449.367 196.691 448.904 196.081 448.6 195.39C448.506 195.185 448.457 194.961 448.457 194.735C448.457 194.509 448.506 194.286 448.6 194.08L448.69 193.93C448.69 193.93 448.74 193.82 448.69 193.99C448.661 194.078 448.661 194.173 448.69 194.26C448.737 194.335 448.807 194.391 448.89 194.42C449.03 194.42 449.02 194.42 449.03 194.42L448.79 194.48C448.62 194.48 448.44 194.55 448.22 194.58C447.964 194.6 447.709 194.53 447.5 194.38C447.398 194.29 447.32 194.176 447.271 194.049C447.222 193.922 447.205 193.785 447.22 193.65C447.293 193.262 447.461 192.897 447.71 192.59C448.168 192.042 448.724 191.584 449.35 191.24L449.48 191.43Z" fill="#F1F1F1"/>
<path d="M459.845 187.81C459.697 188.128 459.589 188.464 459.525 188.81C459.492 188.947 459.495 189.09 459.536 189.226C459.576 189.361 459.652 189.483 459.755 189.58C459.872 189.651 460.002 189.698 460.138 189.717C460.274 189.736 460.412 189.726 460.545 189.69C460.787 189.617 461.048 189.638 461.275 189.75C461.476 189.913 461.611 190.144 461.655 190.4C461.735 190.78 461.795 191.1 461.875 191.4C461.938 191.693 462.049 191.973 462.205 192.23C462.406 192.432 462.652 192.584 462.923 192.673C463.194 192.761 463.483 192.784 463.765 192.74C464.099 192.735 464.433 192.712 464.765 192.67C464.894 192.64 465.029 192.643 465.157 192.676C465.286 192.709 465.405 192.772 465.505 192.86C465.644 193.042 465.727 193.261 465.745 193.49C465.756 194.186 465.836 194.879 465.985 195.56C466.075 195.876 466.247 196.162 466.485 196.39C466.726 196.597 467.036 196.707 467.355 196.7C467.698 196.686 468.037 196.612 468.355 196.48C468.68 196.364 469.014 196.277 469.355 196.22C469.55 196.189 469.749 196.189 469.945 196.22C470.072 196.223 470.196 196.256 470.309 196.315C470.421 196.374 470.519 196.457 470.595 196.56C470.697 196.763 470.75 196.987 470.75 197.215C470.75 197.442 470.697 197.666 470.595 197.87L470.205 198.87C470.067 199.137 469.973 199.423 469.925 199.72C469.925 199.83 469.925 199.78 469.925 199.81C470.023 199.856 470.127 199.89 470.235 199.91C470.525 199.965 470.824 199.965 471.115 199.91C471.415 199.84 471.735 199.74 472.055 199.63C472.419 199.488 472.798 199.387 473.185 199.33C473.348 199.313 473.513 199.337 473.665 199.4C473.856 199.499 474.002 199.667 474.075 199.87C474.103 200.005 474.103 200.144 474.075 200.28C474.092 200.389 474.092 200.5 474.075 200.61C474.002 201 473.856 201.373 473.645 201.71C473.48 201.954 473.336 202.211 473.215 202.48C473.215 202.48 473.215 202.48 473.285 202.53C473.42 202.585 473.56 202.626 473.705 202.65C475.062 202.839 476.441 202.798 477.785 202.53V202.61C476.451 203.157 475.014 203.403 473.575 203.33C473.37 203.312 473.168 203.268 472.975 203.2C472.842 203.146 472.723 203.064 472.625 202.96C472.503 202.822 472.439 202.643 472.445 202.46C472.521 202.059 472.67 201.676 472.885 201.33C473.025 201.062 473.127 200.776 473.185 200.48C473.188 200.416 473.188 200.353 473.185 200.29C473.188 200.256 473.188 200.223 473.185 200.19C473.185 200.19 473.185 200.25 473.265 200.27C473.345 200.29 473.265 200.27 473.265 200.27C472.785 200.34 472.045 200.7 471.265 200.82C470.865 200.9 470.454 200.9 470.055 200.82C469.818 200.778 469.593 200.686 469.395 200.55C469.269 200.453 469.171 200.326 469.11 200.181C469.048 200.035 469.026 199.876 469.045 199.72C469.116 199.33 469.251 198.955 469.445 198.61C469.605 198.29 469.765 197.98 469.895 197.68C470.021 197.462 470.074 197.209 470.045 196.96C470.045 196.84 469.665 196.76 469.355 196.79C468.695 196.79 468.045 197.09 467.275 197.1C466.902 197.082 466.548 196.933 466.275 196.68C466.012 196.415 465.813 196.093 465.695 195.74C465.506 195.059 465.356 194.367 465.245 193.67C465.224 193.549 465.172 193.435 465.095 193.34C465.095 193.34 465.095 193.34 464.835 193.34C464.485 193.421 464.131 193.484 463.775 193.53C463.387 193.575 462.994 193.552 462.615 193.46C462.182 193.359 461.801 193.103 461.545 192.74C461.336 192.399 461.194 192.023 461.125 191.63C461.045 191.27 461.005 190.9 460.955 190.63C460.942 190.537 460.918 190.447 460.885 190.36C460.885 190.36 460.805 190.36 460.605 190.36C460.393 190.389 460.177 190.373 459.972 190.312C459.767 190.252 459.577 190.149 459.415 190.01C459.271 189.853 459.176 189.659 459.138 189.45C459.101 189.241 459.124 189.026 459.205 188.83C459.329 188.489 459.508 188.172 459.735 187.89L459.845 187.81Z" fill="#F1F1F1"/>
<path d="M543.785 87.71C543.606 87.6284 543.52 87.3939 543.494 87.1583C543.492 87.4177 543.508 87.7078 543.775 87.9C543.919 87.9716 544.075 88.0157 544.235 88.03C544.246 88.0795 544.246 88.1305 544.235 88.18C543.98 88.6918 543.675 89.1774 543.325 89.63C542.917 90.0887 542.543 90.5767 542.205 91.09C542.128 91.2839 542.111 91.4962 542.155 91.7C542.202 91.8802 542.276 92.0522 542.375 92.21C542.561 92.4731 542.784 92.7087 543.035 92.91C543.12 92.9648 543.19 93.0404 543.237 93.1297C543.284 93.219 543.308 93.319 543.305 93.42C543.289 93.6789 543.239 93.9345 543.155 94.18C542.947 94.7541 542.78 95.3422 542.655 95.94C542.621 96.1318 542.621 96.3282 542.655 96.52C542.704 96.673 542.76 96.8233 542.825 96.97C542.927 97.216 543.007 97.4703 543.065 97.73C543.106 97.9452 543.071 98.1681 542.965 98.36C542.798 98.6422 542.676 98.9494 542.605 99.27C542.511 99.9511 542.683 100.642 543.085 101.2C543.275 101.438 543.49 101.656 543.725 101.85C543.797 101.93 543.846 102.028 543.868 102.134C543.889 102.239 543.881 102.348 543.845 102.45C543.701 103.01 543.513 103.558 543.285 104.09C543.133 104.387 543.082 104.725 543.14 105.054C543.197 105.382 543.361 105.683 543.605 105.91C543.885 106.1 544.235 106.11 544.345 106.26C544.455 106.41 544.385 106.73 544.275 106.98C544.054 107.52 543.79 108.042 543.485 108.54C543.323 108.822 543.243 109.145 543.255 109.47C543.265 109.784 543.326 110.095 543.435 110.39C543.665 110.98 544.005 111.46 544.215 111.98C544.327 112.202 544.372 112.452 544.345 112.7C544.263 112.955 544.159 113.202 544.035 113.44C543.781 113.99 543.567 114.558 543.395 115.14C543.217 115.734 543.123 116.35 543.115 116.97V118.73C543.055 119.91 543.135 121.08 543.055 122.25C542.975 123.42 542.915 124.59 542.775 125.74C542.642 126.889 542.431 128.029 542.145 129.15C541.765 130.31 541.599 131.53 541.655 132.75C541.735 133.99 542.215 135.11 542.215 136.23C542.216 136.809 542.173 137.388 542.085 137.96C541.958 138.548 541.911 139.15 541.945 139.75C541.988 139.171 542.102 138.6 542.285 138.05C542.438 137.467 542.535 136.871 542.575 136.27C542.615 135.03 542.255 133.87 542.255 132.75C542.259 131.607 542.472 130.475 542.885 129.41C543.211 128.253 543.448 127.073 543.595 125.88C543.752 124.702 543.848 123.517 543.885 122.33V118.78V117C543.863 116.441 543.92 115.882 544.055 115.34C544.2 114.785 544.373 114.237 544.575 113.7C544.71 113.409 544.81 113.104 544.875 112.79C544.894 112.442 544.815 112.095 544.645 111.79C544.375 111.25 544.005 110.76 543.775 110.25C543.652 110.008 543.588 109.741 543.588 109.47C543.588 109.199 543.652 108.932 543.775 108.69C544.08 108.181 544.337 107.645 544.545 107.09C544.624 106.935 544.664 106.764 544.664 106.59C544.664 106.416 544.624 106.245 544.545 106.09C544.265 105.77 543.925 105.81 543.735 105.65C543.644 105.566 543.57 105.464 543.518 105.35C543.467 105.237 543.439 105.114 543.435 104.99C543.422 104.722 543.473 104.454 543.585 104.21C543.868 103.679 544.102 103.123 544.285 102.55C544.348 102.373 544.365 102.184 544.336 101.998C544.306 101.813 544.23 101.638 544.115 101.49C543.915 101.286 543.728 101.068 543.555 100.84C543.305 100.404 543.21 99.8967 543.285 99.4C543.354 99.1448 543.462 98.9018 543.605 98.68C543.78 98.3523 543.846 97.9778 543.795 97.61C543.739 97.2911 543.649 96.9793 543.525 96.68C543.412 96.475 543.353 96.2442 543.355 96.01C543.464 95.4515 543.607 94.9004 543.785 94.36C543.888 94.037 543.935 93.6988 543.925 93.36C543.923 93.1574 543.872 92.9583 543.775 92.78C543.681 92.6167 543.555 92.4739 543.405 92.36C543.192 92.2027 543 92.0177 542.835 91.81C542.764 91.7396 542.713 91.6516 542.687 91.5551C542.66 91.4586 542.66 91.3568 542.685 91.26C542.967 90.773 543.281 90.3053 543.625 89.86C543.969 89.3588 544.245 88.814 544.445 88.24C544.467 88.1479 544.467 88.0521 544.445 87.96C544.435 87.8847 544.395 87.8165 544.335 87.77C544.282 87.7595 544.228 87.7595 544.175 87.77C544.043 87.7761 543.91 87.7557 543.785 87.71Z" fill="#771D26"/>
<path d="M546.895 87C546.895 87.28 546.975 87.61 547.185 87.71C547.313 87.7541 547.449 87.7744 547.585 87.77C547.637 87.7595 547.692 87.7595 547.745 87.77C547.801 87.8194 547.84 87.8862 547.855 87.96C547.866 88.053 547.866 88.147 547.855 88.24C547.654 88.814 547.379 89.3588 547.035 89.86C546.674 90.3065 546.34 90.774 546.035 91.26C545.975 91.44 546.035 91.59 546.195 91.81C546.36 92.0177 546.551 92.2027 546.765 92.36C546.915 92.4739 547.041 92.6167 547.135 92.78C547.231 92.9583 547.282 93.1574 547.285 93.36C547.284 93.6982 547.237 94.0347 547.145 94.36C546.959 94.8989 546.812 95.4503 546.705 96.01C546.712 96.2442 546.774 96.4735 546.885 96.68C547.008 96.9793 547.099 97.2911 547.155 97.61C547.206 97.9778 547.139 98.3523 546.965 98.68C546.821 98.9018 546.713 99.1448 546.645 99.4C546.559 99.8968 546.655 100.408 546.915 100.84C547.081 101.073 547.269 101.291 547.475 101.49C547.589 101.638 547.665 101.813 547.695 101.998C547.725 102.184 547.707 102.373 547.645 102.55C547.458 103.122 547.223 103.677 546.945 104.21C546.823 104.451 546.771 104.721 546.795 104.99C546.796 105.115 546.824 105.238 546.875 105.352C546.927 105.465 547.002 105.567 547.095 105.65C547.285 105.81 547.625 105.77 547.905 106.09C547.978 106.247 548.016 106.417 548.016 106.59C548.016 106.763 547.978 106.933 547.905 107.09C547.688 107.642 547.431 108.177 547.135 108.69C547.009 108.931 546.944 109.198 546.944 109.47C546.944 109.742 547.009 110.009 547.135 110.25C547.365 110.76 547.725 111.25 548.005 111.79C548.174 112.095 548.254 112.442 548.235 112.79C548.17 113.104 548.069 113.409 547.935 113.7C547.728 114.236 547.555 114.783 547.415 115.34C547.274 115.882 547.217 116.441 547.245 117V118.78C547.245 119.96 547.295 121.14 547.245 122.33C547.195 123.52 547.095 124.7 546.945 125.88C546.806 127.073 546.572 128.254 546.245 129.41C545.827 130.474 545.613 131.607 545.615 132.75C545.615 133.87 545.975 135.03 545.935 136.27C545.896 136.872 545.795 137.468 545.635 138.05C545.455 138.601 545.344 139.172 545.305 139.75C545.27 139.15 545.317 138.548 545.445 137.96C545.529 137.387 545.569 136.809 545.565 136.23C545.565 135.11 545.095 133.99 545.015 132.75C544.958 131.53 545.124 130.31 545.505 129.15C545.781 128.027 545.991 126.888 546.135 125.74C546.275 124.59 546.335 123.42 546.415 122.25C546.495 121.08 546.415 119.91 546.475 118.73V116.97C546.477 116.35 546.572 115.733 546.755 115.14C546.918 114.557 547.129 113.989 547.385 113.44C547.515 113.204 547.622 112.957 547.705 112.7C547.732 112.452 547.687 112.202 547.575 111.98C547.365 111.46 547.025 110.98 546.795 110.39C546.682 110.096 546.618 109.785 546.605 109.47C546.601 109.144 546.684 108.823 546.845 108.54C547.146 108.04 547.41 107.519 547.635 106.98C547.745 106.73 547.815 106.41 547.705 106.26C547.595 106.11 547.245 106.1 546.955 105.91C546.715 105.68 546.555 105.379 546.499 105.051C546.443 104.723 546.494 104.386 546.645 104.09C546.87 103.558 547.054 103.01 547.195 102.45C547.23 102.348 547.238 102.239 547.217 102.134C547.196 102.028 547.147 101.93 547.075 101.85C546.844 101.651 546.63 101.434 546.435 101.2C546.036 100.641 545.867 99.9498 545.965 99.27C546.037 98.9514 546.155 98.6449 546.315 98.36C546.419 98.1677 546.458 97.9464 546.425 97.73C546.366 97.4703 546.286 97.216 546.185 96.97C546.115 96.8251 546.059 96.6745 546.015 96.52C545.98 96.3282 545.98 96.1318 546.015 95.94C546.135 95.3411 546.302 94.7526 546.515 94.18C546.6 93.9354 546.647 93.679 546.655 93.42C546.661 93.3195 546.641 93.219 546.595 93.1293C546.549 93.0395 546.48 92.9638 546.395 92.91C546.14 92.7115 545.918 92.4755 545.735 92.21C545.632 92.0543 545.557 91.8817 545.515 91.7C545.454 91.5011 545.454 91.2888 545.515 91.09C545.849 90.5744 546.223 90.0862 546.635 89.63C546.984 89.1774 547.289 88.6918 547.545 88.18C547.555 88.1305 547.555 88.0795 547.545 88.03C547.385 88.0157 547.229 87.9716 547.085 87.9C546.765 87.67 546.805 87.3 546.805 87.01L546.895 87Z" fill="#771D26"/>
<path d="M541.483 223.87C530.713 229.13 527.963 226.16 523.613 233.03C520.113 238.56 522.683 241.71 518.613 245.36C519.606 245.508 520.611 245.558 521.613 245.51C524.943 245.36 524.363 245.05 528.943 243.45C533.523 241.85 539.133 236.01 543.373 231.08C546.693 227.22 546.703 224.08 545.673 221.49C544.324 222.365 542.925 223.159 541.483 223.87Z" fill="#0C4A79"/>
<path d="M551.06 45.1499C555.06 40.7899 557.82 42.8999 566.38 43.3499C574.94 43.7999 576.9 46.0499 579.46 48.4599C582.02 50.8699 581.86 57.0199 581.86 58.5199C581.86 60.0199 580.96 62.5799 580.06 64.9799C579.16 67.3799 581.26 68.4399 580.06 72.3499C578.86 76.2599 575.4 86.3499 574.2 90.5299C573 94.7099 568.79 92.9299 565.48 92.7799C562.17 92.6299 557.48 88.5699 556.62 88.7199C555.76 88.8699 549.4 92.1799 545.93 88.7199C542.46 85.2599 537.83 79.5399 537.38 75.3499C536.93 71.1599 537.98 69.7899 538.28 66.9399C538.58 64.0899 551.06 45.1499 551.06 45.1499Z" fill="#BB886A"/>
<path d="M547.001 63.6304V58.8204L552.711 55.5204C552.711 55.5204 551.361 50.2604 552.711 49.2104C553.819 48.3222 555.122 47.7088 556.512 47.4203C557.903 47.1318 559.342 47.1763 560.711 47.5504C564.281 48.6104 573.481 52.2104 574.051 53.0004C574.621 53.7904 577.051 49.5504 578.401 50.6004C579.751 51.6504 579.451 55.4104 580.661 56.6004C581.871 57.7904 585.771 59.6004 588.171 58.1004L590.571 56.6004C590.571 56.6004 586.521 56.7504 585.921 56.3004C585.321 55.8504 588.921 53.1404 589.221 50.7404L589.521 48.3304C589.521 48.3304 586.371 49.5404 585.021 49.2404C583.671 48.9404 584.711 46.9804 585.921 46.0804C587.131 45.1804 590.571 45.0804 590.571 45.0804C590.571 45.0804 585.921 41.4704 585.171 40.7204C584.146 39.9871 583.034 39.3826 581.861 38.9204L585.021 37.1204C585.021 37.1204 579.761 37.2704 577.951 37.1204C575.865 36.7614 573.807 36.2569 571.791 35.6104L575.251 32.9104C573.759 33.6147 572.132 33.9866 570.481 34.0004L567.481 34.1504L570.481 31.9004C570.481 31.9004 566.121 32.8004 564.621 33.2504C561.716 34.4311 558.531 34.7437 555.451 34.1504C550.651 33.2504 548.841 32.3504 545.991 34.9004C543.141 37.4504 537.271 43.6204 536.671 45.5704C536.071 47.5204 536.301 63.5704 537.311 65.2504C538.321 66.9304 541.481 66.9104 543.311 65.2504C544.322 64.3073 545.623 63.736 547.001 63.6304Z" fill="#4F3924"/>
<path d="M546.149 64.4802C544.729 61.1502 542.339 57.8202 540.389 58.4202C538.439 59.0202 535.329 65.9402 538.129 69.3402C540.929 72.7402 541.289 72.6002 542.739 71.5402C544.189 70.4802 546.479 65.1502 546.149 64.4802Z" fill="#B1826B"/>
<path d="M569.731 75.2403C569.731 75.2403 568.671 73.4703 569.431 73.7003C570.191 73.9303 570.781 75.4303 570.551 75.5403C570.321 75.6503 569.731 75.2403 569.731 75.2403Z" fill="black"/>
<path d="M573.161 75.3608C573.161 75.3608 574.211 73.6008 573.461 73.8208C572.711 74.0408 572.111 75.5508 572.331 75.6608C572.551 75.7708 573.161 75.3608 573.161 75.3608Z" fill="black"/>
<path d="M855.04 88.51C852.37 94.16 851.04 103.22 837.96 103.96C824.88 104.7 804.38 104.96 797.84 103.07C791.3 101.18 794.43 96.83 788.34 94.9C782.25 92.97 776 98.7599 776 92.82C776 86.88 778.23 81.6799 781.35 80.3399C784.47 78.9999 783.73 73.65 786.85 69.79C789.97 65.93 798.85 62.2099 798.85 62.2099C798.85 62.2099 808.21 54.2099 816.98 53.8899C825.75 53.5699 838.98 54.3399 842.53 57.1599C846.08 59.9799 850.7 69.64 853.53 71.16C856.36 72.68 878.78 75.16 886.06 75.32C893.34 75.4799 897.95 75.9099 901.22 78.5899C904.49 81.2699 905.08 82.45 903.59 83.04C897.865 85.4744 891.789 86.9799 885.59 87.5C876.73 88.06 855.04 88.51 855.04 88.51Z" fill="#FEFEFE"/>
<path d="M904.398 89.3999C904.218 84.0499 902.638 80.0399 904.398 71.5699C906.158 63.0999 907.338 48.3999 907.338 48.3999C907.338 48.3999 905.608 46.3199 904.398 47.9499C903.188 49.5799 897.558 66.5799 897.528 71.5699C897.498 76.5599 895.598 97.4199 899.168 102.92C902.738 108.42 905.848 109.16 905.848 106.92C905.848 104.68 904.398 89.3999 904.398 89.3999Z" fill="#2C6787"/>
<path d="M837.66 101.141C839.89 108.141 845.83 118.971 845.83 118.971" stroke="#CBCBCB" stroke-width="2.28" stroke-linecap="round" stroke-linejoin="round"/>
<path d="M824.397 39.5706C824.317 43.9106 824.517 53.3706 824.567 55.7306C824.57 55.8006 824.559 55.8703 824.534 55.9357C824.509 56.0012 824.471 56.0609 824.422 56.1113C824.374 56.1617 824.316 56.2018 824.251 56.2292C824.187 56.2566 824.117 56.2707 824.047 56.2706H821.047C820.978 56.2706 820.91 56.2568 820.846 56.2301C820.782 56.2033 820.725 56.1641 820.676 56.1148C820.628 56.0654 820.59 56.0069 820.564 55.9427C820.539 55.8784 820.526 55.8097 820.527 55.7406V39.5706C820.526 39.5015 820.539 39.4328 820.564 39.3685C820.59 39.3043 820.628 39.2458 820.676 39.1964C820.725 39.1471 820.782 39.1079 820.846 39.0811C820.91 39.0544 820.978 39.0406 821.047 39.0406H823.817C823.891 39.032 823.966 39.0394 824.037 39.0622C824.108 39.0851 824.173 39.123 824.228 39.1732C824.283 39.2235 824.327 39.285 824.356 39.3535C824.385 39.4221 824.399 39.4961 824.397 39.5706Z" fill="#808080"/>
<path d="M822.57 39.1807C829.26 39.1807 866.25 41.8607 867.29 43.1807C868.33 44.5007 868.19 44.8107 862.29 44.5107C856.39 44.2107 822.57 39.1807 822.57 39.1807Z" fill="#808080"/>
<path d="M821.299 39.3603C822.429 38.8903 780.139 38.0203 779.989 40.1003C779.839 42.1803 815.199 41.8803 821.299 39.3603Z" fill="#808080"/>
<path d="M821.621 101.88C825.621 111.54 827.561 115.88 827.561 115.88" stroke="#CBCBCB" stroke-width="2.28" stroke-linecap="round" stroke-linejoin="round"/>
<path d="M856.829 120.15C856.829 120.15 823.399 117.63 820.719 116.74C818.039 115.85 815.379 111.83 815.379 111.83" stroke="#CBCBCB" stroke-width="2.28" stroke-linecap="round" stroke-linejoin="round"/>
<path d="M811.359 102.62C811.359 102.62 804.359 119.26 803.789 120.15" stroke="#CBCBCB" stroke-width="2.28" stroke-linecap="round" stroke-linejoin="round"/>
<path d="M797.251 101.141C794.251 104.701 782.391 118.221 782.391 118.221" stroke="#CBCBCB" stroke-width="2.28" stroke-linecap="round" stroke-linejoin="round"/>
<path d="M814.04 122.09C810.62 122.09 782.54 118.97 778.98 117.48" stroke="#CBCBCB" stroke-width="2.28" stroke-linecap="round" stroke-linejoin="round"/>
<path d="M786.852 69.79C789.972 65.93 798.852 62.2099 798.852 62.2099C798.852 62.2099 808.212 54.2099 816.982 53.8899C825.752 53.5699 838.982 54.3399 842.532 57.1599C846.082 59.9799 850.702 69.64 853.532 71.16C856.362 72.68 878.782 75.16 886.062 75.32C893.342 75.4799 897.952 75.9099 901.222 78.5899C901.98 79.1857 902.699 79.8304 903.372 80.5199C904.692 81.8599 783.732 73.65 786.852 69.79Z" fill="#2C6787"/>
<path d="M838.401 86.2803C838.701 82.4203 839.401 76.2803 838.401 74.5403C837.401 72.8003 832.311 71.7203 831.401 71.8703C830.491 72.0203 831.401 83.1603 831.401 84.5003C831.401 85.8403 838.401 86.2803 838.401 86.2803Z" fill="#27343D"/>
<path d="M826.821 71.8607C827.711 76.6207 826.821 84.9407 826.821 84.9407H821.621V70.6807L826.821 71.8607Z" fill="#27343D"/>
<path d="M818.479 69.3407C818.029 74.1007 818.029 84.8007 817.139 85.6907C816.249 86.5807 801.139 80.1907 796.489 80.4907C791.839 80.7907 793.219 80.0407 793.219 80.0407C793.219 80.0407 795.299 71.2807 798.219 68.6007C801.139 65.9207 802.829 64.7407 806.689 65.0407C810.549 65.3407 818.479 69.3407 818.479 69.3407Z" fill="#27343D"/>
<path d="M797.248 65.0003C795.908 67.1303 791.008 76.4003 790.418 79.1903L783.578 79.9003C783.578 79.9003 783.518 72.7004 786.848 69.8004C789.628 67.5012 792.606 65.4532 795.748 63.6803C796.288 63.4003 797.248 65.0003 797.248 65.0003Z" fill="#27343D"/>
<path d="M212.798 66.6782C215.468 72.3282 216.798 81.3882 229.878 82.1282C242.958 82.8682 263.458 83.1282 269.988 81.2382C276.518 79.3482 273.408 74.9982 279.498 73.0682C285.588 71.1382 291.828 76.9282 291.828 70.9882C291.828 65.0482 289.608 59.8482 286.488 58.5082C283.368 57.1682 284.108 51.8282 280.988 47.9582C277.868 44.0882 268.988 40.3882 268.988 40.3882C268.988 40.3882 259.628 32.3882 250.868 32.0682C242.108 31.7482 228.868 32.5082 225.318 35.3382C221.768 38.1682 217.138 47.8082 214.318 49.3382C211.498 50.8682 189.058 53.3382 181.778 53.4982C174.498 53.6582 169.898 54.0882 166.628 56.7682C163.358 59.4482 162.768 60.6282 164.248 61.2282C169.977 63.6495 176.051 65.1513 182.248 65.6782C191.098 66.2482 212.798 66.6782 212.798 66.6782Z" fill="#FEFEFE"/>
<path d="M163.741 67.3198C163.921 61.9798 165.501 57.9598 163.741 49.4998C161.981 41.0398 160.801 26.3198 160.801 26.3198C160.801 26.3198 162.531 24.2398 163.741 25.8698C164.951 27.4998 170.581 44.4998 170.611 49.4998C170.641 54.4998 172.541 75.3498 168.971 80.8398C165.401 86.3298 162.291 87.0798 162.291 84.8398C162.291 82.5998 163.741 67.3198 163.741 67.3198Z" fill="#2C6787"/>
<path d="M230.479 79.0605C228.249 86.0605 222.309 96.8905 222.309 96.8905" stroke="#CBCBCB" stroke-width="2.28" stroke-linecap="round" stroke-linejoin="round"/>
<path d="M243.739 17.5001C243.819 21.8301 243.619 31.3001 243.559 33.6501C243.559 33.7916 243.614 33.9274 243.713 34.0284C243.812 34.1294 243.947 34.1874 244.089 34.1901H247.029C247.099 34.1914 247.168 34.1786 247.233 34.1525C247.298 34.1263 247.357 34.0873 247.406 34.0379C247.456 33.9884 247.495 33.9294 247.521 33.8645C247.547 33.7996 247.56 33.73 247.559 33.6601V17.4901C247.559 17.3495 247.503 17.2147 247.403 17.1153C247.304 17.0159 247.169 16.9601 247.029 16.9601H244.269C244.198 16.9586 244.127 16.9717 244.062 16.9985C243.996 17.0253 243.937 17.0652 243.887 17.1157C243.837 17.1663 243.799 17.2265 243.773 17.2926C243.748 17.3587 243.736 17.4293 243.739 17.5001Z" fill="#808080"/>
<path d="M245.56 17.1104C238.88 17.1104 201.88 19.7804 200.84 21.1104C199.8 22.4404 199.95 22.7404 205.9 22.4504C211.85 22.1604 245.56 17.1104 245.56 17.1104Z" fill="#808080"/>
<path d="M246.839 17.2802C245.709 16.8102 287.999 15.9402 288.139 18.0202C288.279 20.1002 252.929 19.8002 246.839 17.2802Z" fill="#808080"/>
<path d="M246.479 79.7998C242.479 89.4598 240.539 93.7998 240.539 93.7998" stroke="#CBCBCB" stroke-width="2.28" stroke-linecap="round" stroke-linejoin="round"/>
<path d="M211.309 98.0798C211.309 98.0798 244.739 95.5498 247.409 94.6598C250.079 93.7698 252.759 89.7598 252.759 89.7598" stroke="#CBCBCB" stroke-width="2.28" stroke-linecap="round" stroke-linejoin="round"/>
<path d="M256.77 80.5498C256.77 80.5498 263.77 97.1898 264.35 98.0798" stroke="#CBCBCB" stroke-width="2.28" stroke-linecap="round" stroke-linejoin="round"/>
<path d="M270.891 79.0605C273.891 82.6305 285.751 96.1506 285.751 96.1506" stroke="#CBCBCB" stroke-width="2.28" stroke-linecap="round" stroke-linejoin="round"/>
<path d="M254.098 100.001C257.518 100.001 285.598 96.8806 289.158 95.3906" stroke="#CBCBCB" stroke-width="2.28" stroke-linecap="round" stroke-linejoin="round"/>
<path d="M281.29 47.7101C278.17 43.8501 269.29 40.1401 269.29 40.1401C269.29 40.1401 259.93 32.1401 251.17 31.8201C242.41 31.5001 229.17 32.2601 225.62 35.0901C222.07 37.9201 217.44 47.5601 214.62 49.0901C211.8 50.6201 189.36 53.0901 182.08 53.2501C174.8 53.4101 170.2 53.8401 166.93 56.5201C166.174 57.1217 165.456 57.7696 164.78 58.4601C163.48 59.7801 284.41 51.5801 281.29 47.7101Z" fill="#2C6787"/>
<path d="M229.742 64.2C229.442 60.34 228.742 54.2 229.742 52.47C230.742 50.74 235.832 49.64 236.742 49.79C237.652 49.94 236.742 61.08 236.742 62.42C236.742 63.76 229.742 64.2 229.742 64.2Z" fill="#27343D"/>
<path d="M241.321 49.7806C240.431 54.5506 241.321 62.8706 241.321 62.8706H246.481V48.6006L241.321 49.7806Z" fill="#27343D"/>
<path d="M249.641 47.2706C250.091 52.0206 250.091 62.7206 250.981 63.6106C251.871 64.5006 267.031 58.1106 271.631 58.4106C276.231 58.7106 274.901 57.9606 274.901 57.9606C274.901 57.9606 272.821 49.2006 269.851 46.5206C266.881 43.8406 265.241 42.6606 261.381 42.9606C257.521 43.2606 249.641 47.2706 249.641 47.2706Z" fill="#27343D"/>
<path d="M270.891 42.9104C272.231 45.0404 277.131 54.3104 277.721 57.1004L284.561 57.8204C284.561 57.8204 284.611 50.6204 281.291 47.7104C278.508 45.4149 275.53 43.3671 272.391 41.5904C271.851 41.3304 270.891 42.9104 270.891 42.9104Z" fill="#27343D"/>
<path d="M120.179 193.83C122.029 197.74 122.959 204.02 132.019 204.53C141.079 205.04 155.269 205.25 159.799 203.91C164.329 202.57 162.169 199.59 166.389 198.25C170.609 196.91 174.929 200.93 174.929 196.81C174.929 192.69 173.379 189.1 171.218 188.17C169.058 187.24 169.578 183.54 167.409 180.86C165.239 178.18 159.079 175.62 159.079 175.62C159.079 175.62 152.599 170.06 146.519 169.85C140.439 169.64 131.289 170.16 128.829 172.12C126.369 174.08 123.169 180.76 121.209 181.79C119.249 182.82 103.719 184.57 98.6685 184.67C93.6185 184.77 90.4385 185.08 88.1785 186.93C85.9185 188.78 85.4985 189.61 86.5285 190.02C90.4897 191.7 94.6916 192.743 98.9785 193.11C105.159 193.52 120.179 193.83 120.179 193.83Z" fill="#FEFEFE"/>
<path d="M86 194.451C86.12 190.741 87.21 187.961 86 182.101C84.79 176.241 84 166.101 84 166.101C84 166.101 85.19 164.651 86 165.791C86.81 166.931 90.73 178.691 90.75 182.151C90.77 185.611 92.09 200.051 89.62 203.861C87.15 207.671 84.99 208.181 84.99 206.641C84.99 205.101 86 194.451 86 194.451Z" fill="#2C6787"/>
<path d="M132.219 202.58C130.679 207.41 126.559 214.92 126.559 214.92" stroke="#CBCBCB" stroke-width="1.58" stroke-linecap="round" stroke-linejoin="round"/>
<path d="M141.399 159.931C141.459 162.931 141.319 169.491 141.289 171.131C141.288 171.179 141.296 171.227 141.314 171.271C141.331 171.316 141.357 171.357 141.391 171.392C141.425 171.426 141.465 171.454 141.509 171.472C141.553 171.491 141.601 171.501 141.649 171.501H143.649C143.747 171.498 143.839 171.458 143.908 171.389C143.977 171.321 144.017 171.228 144.019 171.131V159.931C144.017 159.833 143.977 159.741 143.908 159.672C143.839 159.603 143.747 159.563 143.649 159.561H141.729C141.639 159.573 141.556 159.616 141.496 159.684C141.435 159.752 141.401 159.84 141.399 159.931Z" fill="#808080"/>
<path d="M142.671 159.66C138.041 159.66 112.421 161.52 111.671 162.44C110.921 163.36 111.051 163.58 115.161 163.37C119.271 163.16 142.671 159.66 142.671 159.66Z" fill="#808080"/>
<path d="M143.559 159.78C142.769 159.46 172.059 158.86 172.159 160.3C172.259 161.74 147.779 161.53 143.559 159.78Z" fill="#808080"/>
<path d="M143.333 203.09C140.563 209.78 139.223 212.76 139.223 212.76" stroke="#CBCBCB" stroke-width="1.58" stroke-linecap="round" stroke-linejoin="round"/>
<path d="M118.949 215.75C118.949 215.75 142.099 214 143.949 213.38C145.799 212.76 147.659 209.99 147.659 209.99" stroke="#CBCBCB" stroke-width="1.58" stroke-linecap="round" stroke-linejoin="round"/>
<path d="M150.48 203.61C150.48 203.61 155.31 215.13 155.72 215.75" stroke="#CBCBCB" stroke-width="1.58" stroke-linecap="round" stroke-linejoin="round"/>
<path d="M160.211 202.58C162.271 205.05 170.501 214.41 170.501 214.41" stroke="#CBCBCB" stroke-width="1.58" stroke-linecap="round" stroke-linejoin="round"/>
<path d="M148.578 217.09C150.948 217.09 170.398 214.92 172.868 213.9" stroke="#CBCBCB" stroke-width="1.58" stroke-linecap="round" stroke-linejoin="round"/>
<path d="M167.411 180.86C165.251 178.19 159.081 175.62 159.081 175.62C159.081 175.62 152.601 170.06 146.521 169.85C140.441 169.64 131.291 170.16 128.831 172.12C126.371 174.08 123.171 180.76 121.211 181.79C119.251 182.82 103.721 184.57 98.6706 184.67C93.6206 184.77 90.4406 185.08 88.1806 186.93C87.656 187.348 87.1584 187.799 86.6906 188.28C85.8006 189.22 169.581 183.54 167.411 180.86Z" fill="#2C6787"/>
<path d="M131.712 192.291C131.502 189.611 130.992 185.391 131.712 184.161C132.432 182.931 135.932 182.161 136.542 182.301C137.152 182.441 136.542 190.121 136.542 191.051C136.542 191.981 131.712 192.291 131.712 192.291Z" fill="#27343D"/>
<path d="M139.728 182.29C139.118 185.6 139.728 191.36 139.728 191.36H143.328V181.48L139.728 182.29Z" fill="#27343D"/>
<path d="M145.48 180.55C145.78 183.85 145.78 191.26 146.4 191.87C147.02 192.48 157.52 188.07 160.71 188.27C163.9 188.47 162.97 187.96 162.97 187.96C162.97 187.96 161.53 181.89 159.47 180.04C157.41 178.19 156.28 177.36 153.61 177.57C150.94 177.78 145.48 180.55 145.48 180.55Z" fill="#27343D"/>
<path d="M160.211 177.54C161.141 179.01 164.531 185.43 164.941 187.37L169.681 187.86C169.681 187.86 169.681 182.86 167.411 180.86C165.485 179.271 163.424 177.852 161.251 176.62C160.881 176.44 160.211 177.54 160.211 177.54Z" fill="#27343D"/>
<path d="M783.48 171.28C781.99 174.43 781.24 179.49 773.94 179.91C766.64 180.33 755.19 180.49 751.54 179.41C747.89 178.33 749.63 175.92 746.23 174.84C742.83 173.76 739.34 177 739.34 173.68C739.34 170.36 740.58 167.46 742.34 166.68C744.1 165.9 743.66 162.95 745.41 160.79C747.16 158.63 752.13 156.56 752.13 156.56C752.13 156.56 757.36 152.08 762.25 151.91C767.14 151.74 774.53 152.16 776.52 153.74C778.51 155.32 781.09 160.74 782.66 161.54C784.23 162.34 796.77 163.78 800.83 163.86C804.89 163.94 807.47 164.19 809.3 165.69C811.13 167.19 811.46 167.84 810.63 168.18C807.446 169.524 804.072 170.364 800.63 170.67C795.59 171 783.48 171.28 783.48 171.28Z" fill="#FEFEFE"/>
<path d="M811.041 171.77C810.941 168.77 810.041 166.55 811.041 161.77C812.041 156.99 812.681 148.82 812.681 148.82C812.681 148.82 811.681 147.66 811.041 148.57C810.401 149.48 807.221 158.98 807.201 161.77C807.181 164.56 806.131 176.2 808.121 179.27C810.111 182.34 811.851 182.76 811.851 181.52C811.851 180.28 811.041 171.77 811.041 171.77Z" fill="#2C6787"/>
<path d="M773.762 178.33C775.04 181.77 776.567 185.112 778.332 188.33" stroke="#CBCBCB" stroke-width="1.27" stroke-linecap="round" stroke-linejoin="round"/>
<path d="M766.36 143.94C766.36 146.37 766.43 151.65 766.46 152.94C766.46 152.98 766.452 153.019 766.437 153.055C766.422 153.092 766.4 153.125 766.372 153.153C766.344 153.18 766.311 153.202 766.275 153.218C766.238 153.233 766.199 153.24 766.16 153.24H764.48C764.44 153.242 764.4 153.235 764.363 153.22C764.326 153.206 764.293 153.184 764.265 153.156C764.237 153.127 764.214 153.094 764.2 153.057C764.185 153.02 764.178 152.98 764.18 152.94V143.94C764.18 143.901 764.188 143.862 764.203 143.826C764.218 143.789 764.24 143.756 764.268 143.728C764.296 143.7 764.329 143.678 764.365 143.663C764.401 143.648 764.44 143.64 764.48 143.64H766.02C766.062 143.635 766.106 143.638 766.147 143.651C766.188 143.663 766.226 143.684 766.258 143.713C766.291 143.741 766.316 143.776 766.334 143.816C766.351 143.855 766.36 143.897 766.36 143.94Z" fill="#808080"/>
<path d="M765.34 143.73C769.07 143.73 789.73 145.22 790.34 145.97C790.95 146.72 790.84 146.88 787.52 146.72C784.2 146.56 765.34 143.73 765.34 143.73Z" fill="#808080"/>
<path d="M764.619 143.82C765.259 143.56 741.619 143.08 741.559 144.24C741.499 145.4 761.219 145.23 764.619 143.82Z" fill="#808080"/>
<path d="M764.801 178.74C767.041 184.14 768.121 186.54 768.121 186.54" stroke="#CBCBCB" stroke-width="1.27" stroke-linecap="round" stroke-linejoin="round"/>
<path d="M784.48 189.001C784.48 189.001 765.81 187.591 764.32 187.091C762.83 186.591 761.32 184.351 761.32 184.351" stroke="#CBCBCB" stroke-width="1.27" stroke-linecap="round" stroke-linejoin="round"/>
<path d="M759.078 179.16C759.078 179.16 755.178 188.45 754.848 188.95" stroke="#CBCBCB" stroke-width="1.27" stroke-linecap="round" stroke-linejoin="round"/>
<path d="M751.192 178.33C749.542 180.33 742.902 187.87 742.902 187.87" stroke="#CBCBCB" stroke-width="1.27" stroke-linecap="round" stroke-linejoin="round"/>
<path d="M760.568 190.001C758.658 190.001 742.978 188.261 740.988 187.431" stroke="#CBCBCB" stroke-width="1.27" stroke-linecap="round" stroke-linejoin="round"/>
<path d="M745.389 160.82C747.129 158.66 752.109 156.59 752.109 156.59C752.109 156.59 757.339 152.11 762.229 151.94C767.119 151.77 774.509 152.19 776.499 153.77C778.489 155.35 781.069 160.77 782.639 161.57C784.209 162.37 796.749 163.81 800.809 163.89C804.869 163.97 807.449 164.22 809.279 165.72C809.7 166.056 810.101 166.416 810.479 166.8C811.199 167.56 743.639 163 745.389 160.82Z" fill="#2C6787"/>
<path d="M774.181 170.001C774.351 167.841 774.761 164.441 774.181 163.451C773.601 162.461 770.781 161.871 770.281 161.951C769.781 162.031 770.281 168.261 770.281 169.011C770.281 169.761 774.181 170.001 774.181 170.001Z" fill="#27343D"/>
<path d="M767.711 162.001C767.976 164.43 767.976 166.881 767.711 169.311H764.801V161.311L767.711 162.001Z" fill="#27343D"/>
<path d="M763.062 160.57C762.812 163.23 762.812 169.2 762.312 169.7C761.812 170.2 753.312 166.63 750.782 166.8C748.252 166.97 748.952 166.55 748.952 166.55C748.952 166.55 750.122 161.65 751.782 160.16C753.442 158.67 754.352 158 756.512 158.16C758.672 158.32 763.062 160.57 763.062 160.57Z" fill="#27343D"/>
<path d="M751.189 158.14C750.449 159.33 747.709 164.51 747.379 166.07L743.559 166.46C743.559 166.46 743.559 162.46 745.389 160.82C746.95 159.534 748.624 158.389 750.389 157.4C750.659 157.25 751.189 158.14 751.189 158.14Z" fill="#27343D"/>
<path d="M378.04 85.16C411.299 85.16 438.26 70.1347 438.26 51.6C438.26 33.0654 411.299 18.04 378.04 18.04C344.782 18.04 317.82 33.0654 317.82 51.6C317.82 70.1347 344.782 85.16 378.04 85.16Z" fill="#BCCBD3"/>
<path d="M308.78 66.9405C307.31 65.9405 315.57 66.2005 317.22 62.0505C317.961 60.0004 318.97 58.0569 320.22 56.2705C321.021 58.1173 321.964 59.8993 323.04 61.6005C325.07 65.0005 317.67 73.0005 308.78 66.9405Z" fill="#BCCBD3"/>
<path d="M344.578 39.32C346.478 37.32 347.748 38.32 351.758 38.48C355.768 38.64 356.688 39.74 357.878 40.87C359.068 42 359.008 44.87 359.008 45.59C358.871 46.6258 358.585 47.6362 358.158 48.59C357.738 49.72 358.728 50.21 358.158 52.04C357.588 53.87 355.978 58.58 355.418 60.55C354.858 62.52 352.888 61.68 351.338 61.61C349.788 61.54 347.608 59.61 347.188 59.71C346.768 59.81 343.808 61.33 342.188 59.71C340.568 58.09 338.398 55.41 338.188 53.45C337.978 51.49 338.468 50.84 338.608 49.51C338.748 48.18 344.578 39.32 344.578 39.32Z" fill="#BB886A"/>
<path d="M342.679 48.0004V45.7304L345.359 44.1804C345.359 44.1804 344.729 41.7204 345.359 41.1804C345.878 40.7701 346.485 40.4867 347.133 40.3531C347.78 40.2194 348.45 40.239 349.089 40.4104C351.25 41.0823 353.345 41.9492 355.349 43.0004C355.629 43.3504 356.759 41.3804 357.349 41.8804C357.939 42.3804 357.839 44.1304 358.409 44.6904C358.979 45.2504 360.799 46.1004 361.919 45.3904L363.049 44.6904C362.319 44.7406 361.586 44.6935 360.869 44.5504C360.589 44.3404 362.279 43.0704 362.419 41.9504L362.559 40.8204C361.888 41.0924 361.172 41.2349 360.449 41.2404C359.809 41.1004 360.309 40.2404 360.869 39.7604C361.555 39.4521 362.297 39.2854 363.049 39.2704C363.049 39.2704 360.869 37.5804 360.519 37.2704C360.039 36.9269 359.519 36.6448 358.969 36.4304L360.449 35.5804C360.449 35.5804 357.979 35.6504 357.139 35.5804C356.161 35.4133 355.195 35.1794 354.249 34.8804L355.869 33.6104C355.171 33.9662 354.402 34.161 353.619 34.1804L352.209 34.2504L353.619 33.1904C353.619 33.1904 351.619 33.6104 350.879 33.8204C349.521 34.3754 348.03 34.5248 346.589 34.2504C344.329 33.8204 343.489 33.4004 342.149 34.6004C340.809 35.8004 338.069 38.6804 337.789 39.6004C337.509 40.5204 337.619 48.0504 338.089 48.8204C338.559 49.5904 340.089 49.6004 340.889 48.8204C341.368 48.3417 342.003 48.0507 342.679 48.0004Z" fill="#4F3924"/>
<path d="M342.29 48.3806C341.62 46.8206 340.5 45.2606 339.59 45.5406C338.68 45.8206 337.22 49.0606 338.53 50.6506C339.84 52.2406 340.01 52.1806 340.69 51.6506C341.505 50.7224 342.057 49.5936 342.29 48.3806Z" fill="#B1826B"/>
<path d="M416.579 48.5501C416.579 55.5501 414.129 61.7001 408.189 61.7001C406.599 61.7001 400.299 59.5301 397.919 55.7001C396.759 53.8501 395.379 50.8201 395.379 48.5401C395.379 41.5401 399.289 35.8701 405.229 35.8701C411.169 35.8701 416.579 41.5501 416.579 48.5501Z" fill="#861D24"/>
<path d="M397.551 44.2505C397.551 44.2505 402.551 42.4805 405.231 43.9405C406.058 44.4482 406.759 45.1383 407.279 45.9581C407.799 46.7779 408.124 47.7056 408.231 48.6705C407.885 49.1292 407.428 49.4926 406.903 49.727C406.379 49.9613 405.803 50.0588 405.231 50.0105C402.231 50.0105 399.591 49.4305 398.471 47.0905C398.092 46.1689 397.784 45.2194 397.551 44.2505Z" fill="black"/>
<path d="M410.258 48.7402C410.068 48.2402 411.258 44.0202 412.258 43.3702C412.638 43.1302 413.788 42.1702 414.408 42.7902C415.384 44.1553 415.905 45.7925 415.898 47.4702C415.248 48.8102 410.478 49.2402 410.258 48.7402Z" fill="black"/>
<path d="M399.348 45.0701C399.348 45.0701 402.648 43.9001 404.428 44.8701C404.978 45.2047 405.444 45.6607 405.791 46.2032C406.137 46.7457 406.355 47.3604 406.428 48.0001C406.198 48.3072 405.894 48.5502 405.544 48.706C405.194 48.8619 404.809 48.9252 404.428 48.8901C402.428 48.8901 400.698 48.5101 399.958 46.9601C399.707 46.3463 399.503 45.7145 399.348 45.0701Z" fill="white"/>
<path d="M411.151 47.8107C411.021 47.4707 411.811 44.5607 412.551 44.1207C412.811 43.9607 413.551 43.3007 414.031 43.7207C414.688 44.6652 415.038 45.7899 415.031 46.9407C414.581 47.8607 411.281 48.1507 411.151 47.8107Z" fill="white"/>
<path d="M370.973 50.0098H384.373" stroke="white" stroke-width="2" stroke-miterlimit="10" stroke-linecap="round"/>
<path d="M370.973 54.6807H384.373" stroke="white" stroke-width="2" stroke-miterlimit="10" stroke-linecap="round"/>
<path d="M672.441 166.06C698.575 166.06 719.761 154.254 719.761 139.69C719.761 125.127 698.575 113.32 672.441 113.32C646.307 113.32 625.121 125.127 625.121 139.69C625.121 154.254 646.307 166.06 672.441 166.06Z" fill="#BCCBD3"/>
<path d="M726.87 151.74C728.02 150.95 721.53 151.16 720.23 147.9C719.657 146.293 718.877 144.767 717.91 143.36C717.28 144.812 716.538 146.213 715.69 147.55C714.06 150.23 719.89 156.51 726.87 151.74Z" fill="#BCCBD3"/>
<path d="M698.729 130C697.239 128.4 696.239 129.17 693.089 129.34C689.939 129.51 689.219 130.34 688.279 131.22C687.339 132.1 687.399 134.37 687.399 134.92C687.504 135.741 687.727 136.543 688.059 137.3C688.389 138.19 687.619 138.57 688.059 140.01C688.499 141.45 689.769 145.15 690.219 146.7C690.669 148.25 692.219 147.59 693.419 147.53C694.619 147.47 696.349 145.98 696.689 146.04C697.029 146.1 699.339 147.31 700.619 146.04C701.899 144.77 703.619 142.66 703.759 141.12C703.817 140.076 703.705 139.029 703.429 138.02C703.319 137 698.729 130 698.729 130Z" fill="#BB886A"/>
<path d="M700.231 136.841V135.071L698.121 133.861C698.121 133.861 698.621 131.921 698.121 131.541C697.716 131.215 697.239 130.989 696.73 130.883C696.22 130.777 695.693 130.793 695.191 130.931C693.493 131.444 691.846 132.114 690.271 132.931C690.051 133.201 689.171 131.661 688.671 132.041C688.171 132.421 688.281 133.811 687.841 134.261C687.401 134.711 685.961 135.361 685.071 134.811L684.191 134.261C684.764 134.299 685.339 134.258 685.901 134.141C686.131 133.981 684.801 132.981 684.691 132.141L684.581 131.251C685.108 131.47 685.671 131.585 686.241 131.591C686.731 131.481 686.351 130.761 685.901 130.421C685.363 130.179 684.781 130.05 684.191 130.041C684.191 130.041 685.901 128.711 686.191 128.431C686.571 128.164 686.98 127.942 687.411 127.771L686.251 127.111C686.251 127.111 688.181 127.111 688.841 127.111C689.61 126.976 690.368 126.789 691.111 126.551L689.841 125.551C690.391 125.828 690.996 125.979 691.611 125.991L692.721 126.051L691.611 125.221C691.611 125.221 693.211 125.551 693.771 125.711C694.837 126.152 696.009 126.27 697.141 126.051C698.911 125.711 699.571 125.381 700.621 126.321C701.671 127.261 703.831 129.531 704.051 130.251C704.271 130.971 704.191 136.881 703.811 137.491C703.669 137.637 703.499 137.753 703.31 137.832C703.122 137.911 702.92 137.952 702.716 137.952C702.512 137.952 702.31 137.911 702.122 137.832C701.934 137.753 701.764 137.637 701.621 137.491C701.249 137.117 700.757 136.887 700.231 136.841Z" fill="#4F3924"/>
<path d="M700.539 137.16C701.059 135.93 701.939 134.71 702.659 134.93C703.379 135.15 704.519 137.69 703.489 138.93C702.459 140.17 702.329 140.12 701.789 139.74C701.15 139.007 700.718 138.116 700.539 137.16Z" fill="#B1826B"/>
<path d="M642.16 137.29C642.16 142.79 644.08 147.62 648.75 147.62C650 147.62 654.95 145.92 656.82 142.92C657.935 141.234 658.622 139.301 658.82 137.29C658.82 131.8 655.75 127.34 651.09 127.34C646.43 127.34 642.16 131.8 642.16 137.29Z" fill="#861D24"/>
<path d="M657.107 133.92C657.107 133.92 653.187 132.53 651.107 133.67C650.462 134.072 649.916 134.616 649.512 135.26C649.109 135.905 648.857 136.633 648.777 137.39C649.047 137.746 649.402 138.028 649.809 138.212C650.216 138.395 650.662 138.474 651.107 138.44C653.457 138.44 655.537 137.99 656.417 136.15C656.705 135.425 656.935 134.68 657.107 133.92Z" fill="black"/>
<path d="M647.12 137.451C647.27 137.051 646.37 133.731 645.52 133.221C645.22 133.041 644.32 132.281 643.83 132.771C643.06 133.842 642.65 135.131 642.66 136.451C643.2 137.501 646.97 137.841 647.12 137.451Z" fill="black"/>
<path d="M655.7 134.56C655.7 134.56 653.1 133.64 651.7 134.4C651.273 134.666 650.913 135.026 650.646 135.453C650.379 135.879 650.213 136.36 650.16 136.86C650.338 137.096 650.572 137.284 650.841 137.406C651.11 137.529 651.405 137.582 651.7 137.56C653.26 137.56 654.64 137.26 655.22 136.04C655.415 135.559 655.575 135.064 655.7 134.56Z" fill="white"/>
<path d="M646.418 136.71C646.528 136.44 645.898 134.16 645.318 133.81C645.118 133.68 644.498 133.17 644.158 133.5C643.632 134.239 643.349 135.123 643.348 136.03C643.728 136.75 646.318 137 646.418 136.71Z" fill="white"/>
<path d="M678.003 138.44H667.473" stroke="white" stroke-width="1.57" stroke-miterlimit="10" stroke-linecap="round"/>
<path d="M678.003 142.11H667.473" stroke="white" stroke-width="1.57" stroke-miterlimit="10" stroke-linecap="round"/>
<path d="M558.28 183.1C560.09 182.7 561.01 183.36 561.05 183.76C561.09 184.16 563.59 183.28 564.72 183.64L565.86 184C565.86 184 566.02 178.46 565.86 178.07L566.52 184.74C565.041 184.661 563.559 184.661 562.08 184.74C561.809 184.837 561.565 184.999 561.37 185.21H564.66L566.78 187.43C566.78 187.43 568.48 183.06 568.53 180.64L568.59 178.22C569.052 178.96 569.335 179.796 569.419 180.664C569.502 181.532 569.383 182.407 569.07 183.22C567.94 185.86 567.2 187.14 567.22 187.36C567.24 187.58 564.49 186.65 564.31 186.49C564.13 186.33 561.13 185.59 561.13 185.59C561.816 186.199 562.6 186.686 563.45 187.03C564.21 187.16 565.45 190.18 565.45 190.18L563.45 187.78L560.93 186.33L560.54 186.45C560.54 186.45 562.6 190.31 562.62 190.45C562.64 190.59 555.25 203.35 554.72 204.09L561.72 190.65L560.12 187.52L559.55 187.81L559.84 190.81L556.75 195.45L555.28 195.16V189.09L557.42 186.5L553.86 187.16C553.967 189.197 553.924 191.24 553.73 193.27C553.41 194.45 550.79 201.57 550.79 201.57C550.79 201.57 553.21 192.97 553.23 192.83C553.25 192.69 553.23 186.67 553.23 186.67L557.15 185.6V185L547.7 184.87L547.52 196.45L547 184.33L556.31 184.17C556.31 184.17 554.96 182.27 554.43 182.17C553.9 182.07 549.78 182.23 549.78 182.23C549.78 182.23 551.89 174.56 552.78 174.01C553.959 173.388 555.175 172.837 556.42 172.36L552.84 174.6L550.74 181.45L554.57 181.34L557.13 183.34C556.872 182.502 556.562 181.68 556.2 180.88C556.07 180.88 552.68 180.57 552.96 179.88C553.24 179.19 557.76 175.06 558.96 174.94C558.96 174.94 555.38 178.17 555.08 178.55C554.78 178.93 554.43 179.43 554.43 179.43L556.43 180.43L557.88 182.71L558.28 183.1Z" fill="black"/>
</g>
<defs>
<clipPath id="clip0_1020_709">
<rect width="992" height="315" fill="white"/>
</clipPath>
</defs>
</svg>
