<svg width="1302" height="315" viewBox="0 0 1302 315" fill="none" xmlns="http://www.w3.org/2000/svg">
<g clip-path="url(#clip0_1020_712)">
<path d="M492 281.06V346.96L829.3 343.83V281.06H492Z" fill="#B2B2B2"/>
<path d="M660.65 301.87C753.793 301.87 829.3 294.796 829.3 286.07C829.3 277.343 753.793 270.27 660.65 270.27C567.507 270.27 492 277.343 492 286.07C492 294.796 567.507 301.87 660.65 301.87Z" fill="#CBCBCB"/>
<path d="M660.65 296.87C753.793 296.87 829.3 289.796 829.3 281.07C829.3 272.343 753.793 265.27 660.65 265.27C567.507 265.27 492 272.343 492 281.07C492 289.796 567.507 296.87 660.65 296.87Z" fill="#E5E5E5"/>
<path d="M674.911 240.47C674.911 242.77 672.201 249.4 672.661 254.47C673.121 259.54 676.101 270.28 676.331 272C676.561 273.72 675.071 274.63 680.451 275.78C684.406 276.653 688.415 277.264 692.451 277.61C696.921 278.07 700.821 278.87 702.191 280.13C703.561 281.39 700.471 282.53 698.191 282.65C695.911 282.77 697.501 283.22 694.301 284.02C691.101 284.82 690.811 283.56 687.571 284.02C684.331 284.48 687.431 285.62 680.211 285.28C672.991 284.94 671.741 285.05 669.671 284.02C667.601 282.99 666.011 284.25 665.901 281.84C665.791 279.43 665.441 277.61 665.901 277.26C666.361 276.91 664.181 279.33 663.831 278.52C663.481 277.71 663.491 277.52 663.831 275.66C664.171 273.8 665.671 272.22 666.351 269.59C667.031 266.96 667.731 262.83 667.351 260.2C666.971 257.57 666.211 250.92 666.211 248.98C666.211 247.04 666.091 242.91 666.091 242.91L674.911 240.47Z" fill="#F6921E"/>
<path d="M673.211 282.44C671.751 281.67 670.541 281.84 670.541 279.7C670.541 277.56 670.631 277.12 671.151 277.12C671.671 277.12 676.901 279.44 679.821 279.78C682.741 280.12 686.611 280.98 686.521 281.67C686.431 282.36 685.281 282.87 683.071 283.3C680.861 283.73 673.211 282.44 673.211 282.44Z" fill="#E2801E"/>
<path d="M685 277.81C687.24 279.81 690.16 281.81 691.45 282.27C692.74 282.73 692.82 282.36 694.62 281.84C696.42 281.32 698.23 281.41 699.43 280.98C700.63 280.55 700.64 279.61 698.75 279.52C696.069 279.393 693.398 279.109 690.75 278.67C688.58 278.24 685 277.81 685 277.81Z" fill="#E2801E"/>
<path d="M560 195C562.06 193.85 572.37 194.77 582.22 192C592.07 189.23 599.63 187.88 611.77 180.55C623.91 173.22 625.77 170.93 640.4 165.43C655.03 159.93 669.26 156.96 672.23 154.66C675.2 152.36 674.3 155.12 678.23 140.92C682.16 126.72 679.6 118.48 680.52 110.23C681.44 101.98 680 77.05 681.6 73.84C683.2 70.63 704.27 72.01 703.35 82.55C702.43 93.09 700.61 91.48 700.15 100.64C699.69 109.8 699 122.4 701.52 131.33C704.04 140.26 714.12 150.33 715.52 162.71C716.92 175.09 719.65 186.71 715.52 195.01C711.39 203.31 696.71 218.6 686 223.87C675.29 229.14 672.48 226.16 668.13 233.03C663.78 239.9 668.82 243.11 658.74 248.15C648.66 253.19 654.16 256.62 641.56 254.56C628.96 252.5 626.9 252.73 617.97 248.15C609.04 243.57 603.54 243.56 600.33 233.94C597.12 224.32 597.13 216.77 593 212.41C588.87 208.05 563.46 198.67 561.17 198.21C558.88 197.75 560 195 560 195Z" fill="#861D24"/>
<path d="M560.001 195C562.061 193.85 572.371 194.77 582.221 192C592.071 189.23 599.631 187.881 611.771 180.551C623.911 173.221 672.461 226.131 668.111 233C663.761 239.87 668.801 243.08 658.721 248.12C648.641 253.16 654.141 256.59 641.541 254.53C628.941 252.47 626.881 252.7 617.951 248.12C609.021 243.54 603.521 243.531 600.311 233.911C597.101 224.291 597.111 216.741 592.981 212.381C588.851 208.021 563.441 198.64 561.151 198.18C558.861 197.72 560.001 195 560.001 195Z" fill="#0C4A79"/>
<path d="M634 245.53C632.71 248.26 631.48 246.97 630.51 252.77C629.54 258.57 628.42 263.46 628.76 268.1C629.1 272.74 627.82 273.68 630.22 275.1C632.371 276.478 634.887 277.175 637.44 277.1C640.53 277.19 639.24 276.41 643.62 277.1C648 277.79 650.62 276.15 653.33 277.79C656.04 279.43 659.08 279.59 657.02 280.24C654.96 280.89 653.41 280.54 651.44 281.91C649.47 283.28 649.37 282.08 647.83 283.91C646.29 285.74 646.97 286.84 644.05 287.52C641.769 288.181 639.421 288.584 637.05 288.72C635.05 288.72 630.61 288.3 629.24 287.35C627.497 285.979 625.987 284.334 624.77 282.48C623.14 280.22 624 279.48 622.19 278.93C620.38 278.38 619.7 279.88 619.36 277.82C619.02 275.76 620.36 274.29 619.36 273.52C618.36 272.75 616.95 274.47 616.7 273.18C616.45 271.89 616.27 271.46 617.55 270.09C618.83 268.72 619.36 266.14 621.25 262.09C623.14 258.04 623.31 252.64 624.08 248.69C624.85 244.74 624.43 243.28 625.2 242.42C625.97 241.56 625.97 241.65 626.57 242.42C627.17 243.19 628.03 243.36 630.35 243.97C631.65 244.269 632.886 244.797 634 245.53Z" fill="#F6921E"/>
<path d="M589.381 260.63C585.991 259.74 580.231 256.01 582.601 244.82C584.971 233.63 591.411 223.82 597.181 215.32C602.951 206.82 608.371 198 610.401 194.64C612.431 191.28 618.201 208.2 616.171 213.8C614.141 219.4 614.471 235.16 610.401 246.26C606.331 257.36 600.911 254.99 597.181 258.38C596.162 259.361 594.919 260.078 593.56 260.47C592.201 260.862 590.766 260.917 589.381 260.63Z" fill="#861D24"/>
<path d="M595.001 253.15C594.311 250.23 593.671 244.69 596.851 241.26C600.031 237.83 603.521 235.92 604.991 233.51C606.461 231.1 606.641 225.05 606.641 225.05C607.299 227.875 607.766 230.742 608.041 233.63C608.231 237 609.181 241.77 606.041 246.16C602.901 250.55 601.461 252.16 598.471 252.71C597.227 253.027 595.945 253.175 594.661 253.15" fill="black"/>
<path d="M597.001 250.8C596.973 248.814 597.429 246.85 598.331 245.08C600.201 242.495 602.332 240.109 604.691 237.96C606.281 236.49 606.091 235.29 606.091 235.29C606.091 235.29 607.311 241.58 606.091 243.74C604.871 245.9 602.651 248.74 600.561 249.65C599.432 250.193 598.235 250.58 597.001 250.8Z" fill="white"/>
<path d="M586.002 248.699C587.142 246.919 591.152 241.529 591.912 239.109C592.672 236.689 591.972 234.969 593.372 229.749C594.373 226.436 595.582 223.19 596.992 220.029C594.126 223.011 591.431 226.152 588.922 229.439C588.162 230.769 584.472 238.209 584.852 241.519C585.232 244.829 586.002 248.699 586.002 248.699Z" fill="black"/>
<path d="M586.772 244.57C586.772 244.19 586.012 238.91 587.152 235.73C587.824 233.849 588.721 232.056 589.822 230.39C590.097 232.286 590.097 234.213 589.822 236.11C589.322 238.21 586.772 244.57 586.772 244.57Z" fill="white"/>
<path d="M629.27 280.81C628.41 279.09 626.4 277.21 627.77 277.12C629.14 277.03 630.9 279.52 633.44 280C635.98 280.48 638.94 282.19 642.59 281.71C646.24 281.23 649.93 280.6 649.46 281.07C648.99 281.54 645.98 283.56 644.35 284.59C642.72 285.62 639.75 286.91 638.21 286.83C636.67 286.75 635.59 286.18 633.44 284.59C631.95 283.444 630.555 282.18 629.27 280.81Z" fill="#E2801E"/>
<path d="M636.441 278.49C637.769 278.869 639.141 279.071 640.521 279.09C644.431 279.4 645.641 279.61 648.081 279.09C650.521 278.57 651.081 278.32 651.081 278.32" fill="#E2801E"/>
<path d="M657.731 162.2C650.271 164.43 623.131 169.58 617.631 173.02C612.131 176.46 615.231 177.31 606.981 179.37C598.731 181.43 599.081 179.89 589.811 183.84C580.541 187.79 577.811 190.02 577.811 190.02C577.811 190.02 582.591 188 586.001 188C589.411 188 586.681 191.61 585.481 194.53C584.281 197.45 587.541 199 592.481 200.72C597.421 202.44 591.801 208.62 602.281 209.13C612.761 209.64 618.771 206.38 620.141 208.13C621.511 209.88 635.771 192.84 641.271 191.13C646.771 189.42 656.271 187.86 659.071 184.43C661.871 181 667.211 173.95 664.801 168.11C662.391 162.27 657.731 162.2 657.731 162.2Z" fill="white"/>
<path d="M594 191.43C593.494 191.88 593.053 192.399 592.69 192.97C592.529 193.22 592.429 193.505 592.4 193.8C592.4 194.04 592.48 194.02 592.76 194.02C592.912 193.993 593.062 193.956 593.21 193.91L593.46 193.83H593.54C593.54 193.83 593.54 193.83 593.71 193.83C593.88 193.83 593.8 193.83 593.92 194C593.955 194.09 593.955 194.19 593.92 194.28C593.83 194.49 593.85 194.41 593.83 194.45V194.53C593.794 194.642 593.781 194.76 593.791 194.876C593.801 194.993 593.835 195.107 593.89 195.21C594.177 195.775 594.555 196.289 595.01 196.73C595.434 197.188 596.017 197.467 596.64 197.51C596.976 197.523 597.313 197.49 597.64 197.41C597.746 197.398 597.853 197.398 597.96 197.41C598.013 197.413 598.064 197.432 598.107 197.464C598.15 197.496 598.182 197.54 598.2 197.59C598.221 197.659 598.221 197.732 598.2 197.8C598.15 198 598.07 198.14 598.02 198.31C597.76 198.925 597.721 199.61 597.91 200.25C598.06 200.96 598.81 200.75 599.47 200.61C600.198 200.411 600.97 200.442 601.68 200.7C601.894 200.766 602.093 200.874 602.265 201.018C602.437 201.163 602.578 201.34 602.68 201.54C602.752 201.945 602.718 202.363 602.58 202.75C602.523 202.982 602.551 203.227 602.66 203.44C602.66 203.44 602.59 203.44 602.73 203.44L603.22 203.38C603.626 203.318 604.041 203.355 604.43 203.49C604.623 203.561 604.811 203.648 604.99 203.75C605.215 203.872 605.407 204.047 605.55 204.26C605.605 204.355 605.638 204.46 605.646 204.57C605.655 204.679 605.639 204.788 605.6 204.89C605.573 204.97 605.532 205.044 605.48 205.11C605.45 205.165 605.409 205.213 605.36 205.25C605.28 205.328 605.206 205.411 605.14 205.5C605.14 205.45 605.14 205.41 605.19 205.5C605.276 205.601 605.377 205.689 605.49 205.76C606.019 206.129 606.613 206.397 607.24 206.55C608.551 206.851 609.922 206.743 611.17 206.24V206.32C610.262 206.933 609.197 207.274 608.102 207.3C607.006 207.327 605.926 207.039 604.99 206.47C604.806 206.367 604.638 206.239 604.49 206.09C604.371 205.977 604.284 205.833 604.24 205.675C604.196 205.516 604.196 205.349 604.24 205.19C604.332 204.975 604.468 204.78 604.64 204.62C604.69 204.62 604.71 204.52 604.69 204.56C604.68 204.606 604.68 204.654 604.69 204.7C604.626 204.635 604.552 204.58 604.47 204.54C604.35 204.466 604.223 204.406 604.09 204.36C603.822 204.272 603.54 204.242 603.26 204.27C603.11 204.27 602.95 204.27 602.72 204.27C602.573 204.273 602.428 204.249 602.29 204.2C602.126 204.133 601.986 204.018 601.89 203.87C601.674 203.462 601.617 202.988 601.73 202.54C601.82 202.15 601.95 201.83 601.9 201.74C601.85 201.65 601.63 201.42 601.35 201.29C600.771 201.027 600.128 200.94 599.5 201.04C599.138 201.081 598.772 201.081 598.41 201.04C598.205 201.011 598.015 200.92 597.864 200.779C597.714 200.637 597.611 200.453 597.57 200.25C597.404 199.542 597.453 198.801 597.71 198.12C597.71 197.96 597.82 197.79 597.85 197.65C597.88 197.51 597.85 197.6 597.85 197.6C597.85 197.6 597.85 197.66 597.85 197.65H597.66C597.315 197.777 596.955 197.858 596.59 197.89C595.817 197.933 595.057 197.675 594.47 197.17C593.886 196.691 593.424 196.081 593.12 195.39C593.025 195.185 592.977 194.961 592.977 194.735C592.977 194.509 593.025 194.286 593.12 194.08L593.21 193.93C593.21 193.93 593.26 193.82 593.21 193.99C593.181 194.078 593.181 194.173 593.21 194.26C593.256 194.335 593.327 194.391 593.41 194.42C593.55 194.42 593.54 194.42 593.55 194.42L593.31 194.48C593.14 194.48 592.96 194.55 592.74 194.58C592.484 194.6 592.229 194.53 592.02 194.38C591.918 194.29 591.839 194.176 591.791 194.049C591.742 193.922 591.725 193.785 591.74 193.65C591.812 193.262 591.98 192.897 592.23 192.59C592.687 192.042 593.244 191.584 593.87 191.24L594 191.43Z" fill="#F1F1F1"/>
<path d="M604.36 187.81C604.212 188.128 604.105 188.464 604.04 188.81C604.007 188.947 604.011 189.09 604.052 189.226C604.092 189.361 604.167 189.483 604.27 189.58C604.387 189.651 604.518 189.698 604.654 189.717C604.79 189.736 604.928 189.726 605.06 189.69C605.302 189.617 605.563 189.638 605.79 189.75C605.991 189.913 606.126 190.144 606.17 190.4C606.25 190.78 606.31 191.1 606.39 191.4C606.453 191.693 606.565 191.973 606.72 192.23C606.921 192.432 607.167 192.584 607.439 192.673C607.71 192.761 607.998 192.784 608.28 192.74C608.615 192.735 608.948 192.712 609.28 192.67C609.41 192.64 609.544 192.643 609.673 192.676C609.802 192.709 609.921 192.772 610.02 192.86C610.159 193.042 610.243 193.261 610.26 193.49C610.271 194.186 610.352 194.879 610.5 195.56C610.591 195.876 610.763 196.162 611 196.39C611.242 196.597 611.552 196.707 611.87 196.7C612.214 196.686 612.553 196.612 612.87 196.48C613.195 196.364 613.53 196.277 613.87 196.22C614.066 196.189 614.265 196.189 614.46 196.22C614.587 196.223 614.712 196.256 614.824 196.315C614.937 196.374 615.035 196.457 615.11 196.56C615.212 196.763 615.265 196.987 615.265 197.215C615.265 197.442 615.212 197.666 615.11 197.87L614.72 198.87C614.583 199.137 614.489 199.423 614.44 199.72C614.44 199.83 614.44 199.78 614.44 199.81C614.539 199.856 614.643 199.89 614.75 199.91C615.041 199.965 615.339 199.965 615.63 199.91C615.93 199.84 616.25 199.74 616.57 199.63C616.934 199.488 617.313 199.387 617.7 199.33C617.864 199.313 618.028 199.337 618.18 199.4C618.371 199.499 618.518 199.667 618.59 199.87C618.619 200.005 618.619 200.144 618.59 200.28C618.607 200.389 618.607 200.5 618.59 200.61C618.517 201 618.371 201.373 618.16 201.71C617.996 201.954 617.852 202.211 617.73 202.48C617.73 202.48 617.73 202.48 617.8 202.53C617.935 202.585 618.076 202.626 618.22 202.65C619.577 202.839 620.957 202.798 622.3 202.53V202.61C620.967 203.157 619.529 203.403 618.09 203.33C617.885 203.312 617.684 203.268 617.49 203.2C617.358 203.146 617.238 203.064 617.14 202.96C617.019 202.822 616.954 202.643 616.96 202.46C617.037 202.059 617.186 201.676 617.4 201.33C617.541 201.062 617.642 200.776 617.7 200.48C617.704 200.416 617.704 200.353 617.7 200.29C617.704 200.256 617.704 200.223 617.7 200.19C617.7 200.19 617.7 200.25 617.78 200.27C617.86 200.29 617.78 200.27 617.78 200.27C617.3 200.34 616.56 200.7 615.78 200.82C615.381 200.9 614.97 200.9 614.57 200.82C614.333 200.778 614.108 200.686 613.91 200.55C613.785 200.453 613.687 200.326 613.625 200.181C613.564 200.035 613.541 199.876 613.56 199.72C613.631 199.33 613.767 198.955 613.96 198.61C614.12 198.29 614.28 197.98 614.41 197.68C614.537 197.462 614.59 197.209 614.56 196.96C614.56 196.84 614.18 196.76 613.87 196.79C613.21 196.79 612.56 197.09 611.79 197.1C611.418 197.082 611.063 196.933 610.79 196.68C610.527 196.415 610.329 196.093 610.21 195.74C610.021 195.059 609.871 194.367 609.76 193.67C609.739 193.549 609.687 193.435 609.61 193.34C609.61 193.34 609.61 193.34 609.35 193.34C609 193.421 608.646 193.484 608.29 193.53C607.902 193.575 607.51 193.552 607.13 193.46C606.697 193.359 606.316 193.103 606.06 192.74C605.852 192.399 605.709 192.023 605.64 191.63C605.56 191.27 605.52 190.9 605.47 190.63C605.457 190.537 605.434 190.447 605.4 190.36C605.4 190.36 605.32 190.36 605.12 190.36C604.908 190.389 604.693 190.373 604.488 190.312C604.282 190.252 604.092 190.149 603.93 190.01C603.787 189.853 603.691 189.659 603.654 189.45C603.617 189.241 603.64 189.026 603.72 188.83C603.844 188.489 604.023 188.172 604.25 187.89L604.36 187.81Z" fill="#F1F1F1"/>
<path d="M688.301 87.71C688.122 87.6284 688.035 87.3939 688.009 87.1583C688.008 87.4177 688.023 87.7078 688.291 87.9C688.435 87.9716 688.591 88.0157 688.751 88.03C688.761 88.0795 688.761 88.1305 688.751 88.18C688.495 88.6918 688.191 89.1774 687.841 89.63C687.433 90.0887 687.058 90.5767 686.721 91.09C686.644 91.2839 686.627 91.4962 686.671 91.7C686.718 91.8802 686.792 92.0522 686.891 92.21C687.077 92.4731 687.299 92.7087 687.551 92.91C687.636 92.9648 687.705 93.0404 687.753 93.1297C687.8 93.219 687.823 93.319 687.821 93.42C687.805 93.6789 687.755 93.9345 687.671 94.18C687.463 94.7541 687.296 95.3422 687.171 95.94C687.136 96.1318 687.136 96.3282 687.171 96.52C687.219 96.673 687.276 96.8233 687.341 96.97C687.442 97.216 687.523 97.4703 687.581 97.73C687.622 97.9452 687.587 98.1681 687.481 98.36C687.313 98.6422 687.192 98.9494 687.121 99.27C687.026 99.9511 687.198 100.642 687.601 101.2C687.791 101.438 688.006 101.656 688.241 101.85C688.313 101.93 688.362 102.028 688.383 102.134C688.404 102.239 688.397 102.348 688.361 102.45C688.216 103.01 688.029 103.558 687.801 104.09C687.649 104.387 687.597 104.725 687.655 105.054C687.713 105.382 687.876 105.683 688.121 105.91C688.401 106.1 688.751 106.11 688.861 106.26C688.971 106.41 688.901 106.73 688.791 106.98C688.57 107.52 688.306 108.042 688.001 108.54C687.839 108.822 687.759 109.145 687.771 109.47C687.781 109.784 687.841 110.095 687.951 110.39C688.181 110.98 688.521 111.46 688.731 111.98C688.843 112.202 688.888 112.452 688.861 112.7C688.779 112.955 688.675 113.202 688.551 113.44C688.296 113.99 688.082 114.558 687.911 115.14C687.733 115.734 687.639 116.35 687.631 116.97V118.73C687.571 119.91 687.651 121.08 687.571 122.25C687.491 123.42 687.431 124.59 687.291 125.74C687.157 126.889 686.947 128.029 686.661 129.15C686.28 130.31 686.114 131.53 686.171 132.75C686.251 133.99 686.731 135.11 686.731 136.23C686.732 136.809 686.689 137.388 686.601 137.96C686.473 138.548 686.426 139.15 686.461 139.75C686.503 139.171 686.618 138.6 686.801 138.05C686.953 137.467 687.05 136.871 687.091 136.27C687.131 135.03 686.771 133.87 686.771 132.75C686.774 131.607 686.988 130.475 687.401 129.41C687.727 128.253 687.964 127.073 688.111 125.88C688.267 124.702 688.364 123.517 688.401 122.33V118.78V117C688.378 116.441 688.435 115.882 688.571 115.34C688.715 114.785 688.889 114.237 689.091 113.7C689.225 113.409 689.326 113.104 689.391 112.79C689.41 112.442 689.33 112.095 689.161 111.79C688.891 111.25 688.521 110.76 688.291 110.25C688.168 110.008 688.104 109.741 688.104 109.47C688.104 109.199 688.168 108.932 688.291 108.69C688.595 108.181 688.853 107.645 689.061 107.09C689.139 106.935 689.18 106.764 689.18 106.59C689.18 106.416 689.139 106.245 689.061 106.09C688.781 105.77 688.441 105.81 688.251 105.65C688.159 105.566 688.086 105.464 688.034 105.35C687.982 105.237 687.954 105.114 687.951 104.99C687.938 104.722 687.989 104.454 688.101 104.21C688.384 103.679 688.618 103.123 688.801 102.55C688.864 102.373 688.881 102.184 688.851 101.998C688.822 101.813 688.746 101.638 688.631 101.49C688.43 101.286 688.243 101.068 688.071 100.84C687.821 100.404 687.725 99.8967 687.801 99.4C687.869 99.1448 687.977 98.9018 688.121 98.68C688.296 98.3523 688.362 97.9778 688.311 97.61C688.255 97.2911 688.164 96.9793 688.041 96.68C687.928 96.475 687.869 96.2442 687.871 96.01C687.979 95.4515 688.123 94.9004 688.301 94.36C688.404 94.037 688.451 93.6988 688.441 93.36C688.439 93.1574 688.387 92.9583 688.291 92.78C688.197 92.6167 688.071 92.4739 687.921 92.36C687.707 92.2027 687.516 92.0177 687.351 91.81C687.28 91.7396 687.229 91.6516 687.202 91.5551C687.176 91.4586 687.175 91.3568 687.201 91.26C687.483 90.773 687.797 90.3053 688.141 89.86C688.485 89.3588 688.761 88.814 688.961 88.24C688.983 88.1479 688.983 88.0521 688.961 87.96C688.951 87.8847 688.911 87.8165 688.851 87.77C688.798 87.7595 688.744 87.7595 688.691 87.77C688.558 87.7761 688.426 87.7557 688.301 87.71Z" fill="#771D26"/>
<path d="M691.41 87C691.41 87.28 691.49 87.61 691.7 87.71C691.829 87.7541 691.964 87.7744 692.1 87.77C692.153 87.7595 692.207 87.7595 692.26 87.77C692.317 87.8194 692.356 87.8862 692.37 87.96C692.382 88.053 692.382 88.147 692.37 88.24C692.17 88.814 691.894 89.3588 691.55 89.86C691.19 90.3065 690.856 90.774 690.55 91.26C690.49 91.44 690.55 91.59 690.71 91.81C690.875 92.0177 691.067 92.2027 691.28 92.36C691.43 92.4739 691.556 92.6167 691.65 92.78C691.747 92.9583 691.798 93.1574 691.8 93.36C691.8 93.6982 691.753 94.0347 691.66 94.36C691.475 94.8989 691.328 95.4503 691.22 96.01C691.228 96.2442 691.289 96.4735 691.4 96.68C691.524 96.9793 691.614 97.2911 691.67 97.61C691.721 97.9778 691.655 98.3523 691.48 98.68C691.337 98.9018 691.229 99.1448 691.16 99.4C691.074 99.8968 691.17 100.408 691.43 100.84C691.597 101.073 691.784 101.291 691.99 101.49C692.105 101.638 692.181 101.813 692.211 101.998C692.24 102.184 692.223 102.373 692.16 102.55C691.973 103.122 691.739 103.677 691.46 104.21C691.339 104.451 691.287 104.721 691.31 104.99C691.312 105.115 691.339 105.238 691.391 105.352C691.443 105.465 691.517 105.567 691.61 105.65C691.8 105.81 692.14 105.77 692.42 106.09C692.493 106.247 692.531 106.417 692.531 106.59C692.531 106.763 692.493 106.933 692.42 107.09C692.204 107.642 691.947 108.177 691.65 108.69C691.525 108.931 691.46 109.198 691.46 109.47C691.46 109.742 691.525 110.009 691.65 110.25C691.88 110.76 692.24 111.25 692.52 111.79C692.69 112.095 692.769 112.442 692.75 112.79C692.685 113.104 692.585 113.409 692.45 113.7C692.244 114.236 692.07 114.783 691.93 115.34C691.79 115.882 691.733 116.441 691.76 117V118.78C691.76 119.96 691.81 121.14 691.76 122.33C691.71 123.52 691.61 124.7 691.46 125.88C691.322 127.073 691.088 128.254 690.76 129.41C690.343 130.474 690.129 131.607 690.13 132.75C690.13 133.87 690.49 135.03 690.45 136.27C690.411 136.872 690.311 137.468 690.15 138.05C689.97 138.601 689.859 139.172 689.82 139.75C689.786 139.15 689.833 138.548 689.96 137.96C690.045 137.387 690.085 136.809 690.08 136.23C690.08 135.11 689.61 133.99 689.53 132.75C689.474 131.53 689.64 130.31 690.02 129.15C690.297 128.027 690.507 126.888 690.65 125.74C690.79 124.59 690.85 123.42 690.93 122.25C691.01 121.08 690.93 119.91 690.99 118.73V116.97C690.993 116.35 691.087 115.733 691.27 115.14C691.434 114.557 691.645 113.989 691.9 113.44C692.031 113.204 692.138 112.957 692.22 112.7C692.247 112.452 692.202 112.202 692.09 111.98C691.88 111.46 691.54 110.98 691.31 110.39C691.197 110.096 691.133 109.785 691.12 109.47C691.117 109.144 691.199 108.823 691.36 108.54C691.661 108.04 691.925 107.519 692.15 106.98C692.26 106.73 692.33 106.41 692.22 106.26C692.11 106.11 691.76 106.1 691.47 105.91C691.23 105.68 691.071 105.379 691.015 105.051C690.959 104.723 691.01 104.386 691.16 104.09C691.385 103.558 691.569 103.01 691.71 102.45C691.746 102.348 691.754 102.239 691.733 102.134C691.711 102.028 691.662 101.93 691.59 101.85C691.36 101.651 691.146 101.434 690.95 101.2C690.551 100.641 690.383 99.9498 690.48 99.27C690.552 98.9514 690.67 98.6449 690.83 98.36C690.935 98.1677 690.974 97.9464 690.94 97.73C690.882 97.4703 690.802 97.216 690.7 96.97C690.631 96.8251 690.574 96.6745 690.53 96.52C690.496 96.3282 690.496 96.1318 690.53 95.94C690.65 95.3411 690.818 94.7526 691.03 94.18C691.116 93.9354 691.163 93.679 691.17 93.42C691.177 93.3195 691.156 93.219 691.11 93.1293C691.065 93.0395 690.995 92.9638 690.91 92.91C690.656 92.7115 690.434 92.4755 690.25 92.21C690.147 92.0543 690.073 91.8817 690.03 91.7C689.97 91.5011 689.97 91.2888 690.03 91.09C690.364 90.5744 690.739 90.0862 691.15 89.63C691.5 89.1774 691.805 88.6918 692.06 88.18C692.071 88.1305 692.071 88.0795 692.06 88.03C691.9 88.0157 691.744 87.9716 691.6 87.9C691.28 87.67 691.32 87.3 691.32 87.01L691.41 87Z" fill="#771D26"/>
<path d="M686.001 223.87C675.231 229.13 672.481 226.16 668.131 233.03C664.631 238.56 667.201 241.71 663.131 245.36C664.124 245.508 665.128 245.558 666.131 245.51C669.461 245.36 668.881 245.05 673.461 243.45C678.041 241.85 683.651 236.01 687.891 231.08C691.211 227.22 691.221 224.08 690.191 221.49C688.842 222.365 687.443 223.159 686.001 223.87Z" fill="#0C4A79"/>
<path d="M695.582 45.1499C699.582 40.7899 702.342 42.8999 710.902 43.3499C719.462 43.7999 721.421 46.0499 723.981 48.4599C726.541 50.8699 726.382 57.0199 726.382 58.5199C726.382 60.0199 725.482 62.5799 724.582 64.9799C723.682 67.3799 725.782 68.4399 724.582 72.3499C723.382 76.2599 719.921 86.3499 718.721 90.5299C717.521 94.7099 713.312 92.9299 710.002 92.7799C706.692 92.6299 702.002 88.5699 701.142 88.7199C700.282 88.8699 693.922 92.1799 690.452 88.7199C686.982 85.2599 682.352 79.5399 681.902 75.3499C681.452 71.1599 682.502 69.7899 682.802 66.9399C683.102 64.0899 695.582 45.1499 695.582 45.1499Z" fill="#BB886A"/>
<path d="M691.521 63.6304V58.8204L697.231 55.5204C697.231 55.5204 695.881 50.2604 697.231 49.2104C698.339 48.3222 699.641 47.7088 701.032 47.4203C702.422 47.1318 703.861 47.1763 705.231 47.5504C708.801 48.6104 718.001 52.2104 718.571 53.0004C719.141 53.7904 721.571 49.5504 722.921 50.6004C724.271 51.6504 723.971 55.4104 725.181 56.6004C726.391 57.7904 730.291 59.6004 732.691 58.1004L735.091 56.6004C735.091 56.6004 731.041 56.7504 730.441 56.3004C729.841 55.8504 733.441 53.1404 733.741 50.7404L734.041 48.3304C734.041 48.3304 730.891 49.5404 729.541 49.2404C728.191 48.9404 729.231 46.9804 730.441 46.0804C731.651 45.1804 735.091 45.0804 735.091 45.0804C735.091 45.0804 730.441 41.4704 729.691 40.7204C728.666 39.9871 727.554 39.3826 726.381 38.9204L729.541 37.1204C729.541 37.1204 724.281 37.2704 722.471 37.1204C720.385 36.7614 718.327 36.2569 716.311 35.6104L719.771 32.9104C718.279 33.6147 716.651 33.9866 715.001 34.0004L712.001 34.1504L715.001 31.9004C715.001 31.9004 710.641 32.8004 709.141 33.2504C706.236 34.4311 703.05 34.7437 699.971 34.1504C695.171 33.2504 693.361 32.3504 690.511 34.9004C687.661 37.4504 681.791 43.6204 681.191 45.5704C680.591 47.5204 680.821 63.5704 681.831 65.2504C682.841 66.9304 686.001 66.9104 687.831 65.2504C688.842 64.3073 690.143 63.736 691.521 63.6304Z" fill="#4F3924"/>
<path d="M690.671 64.4802C689.251 61.1502 686.861 57.8202 684.911 58.4202C682.961 59.0202 679.851 65.9402 682.651 69.3402C685.451 72.7402 685.811 72.6002 687.261 71.5402C688.711 70.4802 691.001 65.1502 690.671 64.4802Z" fill="#B1826B"/>
<path d="M714.25 75.2403C714.25 75.2403 713.19 73.4703 713.95 73.7003C714.71 73.9303 715.3 75.4303 715.07 75.5403C714.84 75.6503 714.25 75.2403 714.25 75.2403Z" fill="black"/>
<path d="M717.681 75.3608C717.681 75.3608 718.731 73.6008 717.981 73.8208C717.231 74.0408 716.631 75.5508 716.851 75.6608C717.071 75.7708 717.681 75.3608 717.681 75.3608Z" fill="black"/>
<path d="M702.421 183.1C704.231 182.7 705.151 183.36 705.191 183.76C705.231 184.16 707.731 183.28 708.861 183.64L710.001 184C710.001 184 710.161 178.46 710.001 178.07L710.661 184.74C709.182 184.661 707.7 184.661 706.221 184.74C705.949 184.837 705.706 184.999 705.511 185.21H708.801L710.921 187.43C710.921 187.43 712.621 183.06 712.671 180.64L712.731 178.22C713.192 178.96 713.476 179.796 713.559 180.664C713.642 181.532 713.523 182.407 713.211 183.22C712.081 185.86 711.341 187.14 711.361 187.36C711.381 187.58 708.631 186.65 708.451 186.49C708.271 186.33 705.271 185.59 705.271 185.59C705.956 186.199 706.741 186.686 707.591 187.03C708.351 187.16 709.591 190.18 709.591 190.18L707.591 187.78L705.071 186.33L704.681 186.45C704.681 186.45 706.741 190.31 706.761 190.45C706.781 190.59 699.391 203.35 698.861 204.09L705.861 190.65L704.261 187.52L703.691 187.81L703.981 190.81L700.891 195.45L699.421 195.16V189.09L701.561 186.5L698.001 187.16C698.108 189.197 698.064 191.24 697.871 193.27C697.551 194.45 694.931 201.57 694.931 201.57C694.931 201.57 697.351 192.97 697.371 192.83C697.391 192.69 697.371 186.67 697.371 186.67L701.291 185.6V185L691.841 184.87L691.661 196.45L691.141 184.33L700.451 184.17C700.451 184.17 699.101 182.27 698.571 182.17C698.041 182.07 693.921 182.23 693.921 182.23C693.921 182.23 696.031 174.56 696.921 174.01C698.1 173.388 699.315 172.837 700.561 172.36L696.981 174.6L694.881 181.45L698.711 181.34L701.271 183.34C701.013 182.502 700.702 181.68 700.341 180.88C700.211 180.88 696.821 180.57 697.101 179.88C697.381 179.19 701.901 175.06 703.101 174.94C703.101 174.94 699.521 178.17 699.221 178.55C698.921 178.93 698.571 179.43 698.571 179.43L700.571 180.43L702.021 182.71L702.421 183.1Z" fill="black"/>
<path d="M999.56 88.51C996.89 94.16 995.559 103.22 982.479 103.96C969.399 104.7 948.899 104.96 942.359 103.07C935.819 101.18 938.949 96.83 932.859 94.9C926.769 92.97 920.52 98.7599 920.52 92.82C920.52 86.88 922.75 81.6799 925.87 80.3399C928.99 78.9999 928.25 73.65 931.37 69.79C934.49 65.93 943.37 62.2099 943.37 62.2099C943.37 62.2099 952.73 54.2099 961.5 53.8899C970.27 53.5699 983.5 54.3399 987.049 57.1599C990.6 59.9799 995.219 69.64 998.049 71.16C1000.88 72.68 1023.3 75.16 1030.58 75.32C1037.86 75.4799 1042.47 75.9099 1045.74 78.5899C1049.01 81.2699 1049.6 82.45 1048.11 83.04C1042.38 85.4744 1036.31 86.9799 1030.11 87.5C1021.25 88.06 999.56 88.51 999.56 88.51Z" fill="#FEFEFE"/>
<path d="M1048.92 89.3999C1048.74 84.0499 1047.16 80.0399 1048.92 71.5699C1050.68 63.0999 1051.86 48.3999 1051.86 48.3999C1051.86 48.3999 1050.13 46.3199 1048.92 47.9499C1047.71 49.5799 1042.08 66.5799 1042.05 71.5699C1042.02 76.5599 1040.12 97.4199 1043.69 102.92C1047.26 108.42 1050.37 109.16 1050.37 106.92C1050.37 104.68 1048.92 89.3999 1048.92 89.3999Z" fill="#2C6787"/>
<path d="M982.18 101.141C984.41 108.141 990.35 118.971 990.35 118.971" stroke="#CBCBCB" stroke-width="2.28" stroke-linecap="round" stroke-linejoin="round"/>
<path d="M968.919 39.5706C968.839 43.9106 969.039 53.3706 969.089 55.7306C969.092 55.8006 969.08 55.8703 969.055 55.9357C969.03 56.0012 968.992 56.0609 968.944 56.1113C968.895 56.1617 968.837 56.2018 968.773 56.2292C968.708 56.2566 968.639 56.2707 968.569 56.2706H965.569C965.5 56.2706 965.431 56.2568 965.368 56.2301C965.304 56.2033 965.246 56.1641 965.198 56.1148C965.149 56.0654 965.111 56.0069 965.086 55.9427C965.06 55.8784 965.048 55.8097 965.049 55.7406V39.5706C965.048 39.5015 965.06 39.4328 965.086 39.3685C965.111 39.3043 965.149 39.2458 965.198 39.1964C965.246 39.1471 965.304 39.1079 965.368 39.0811C965.431 39.0544 965.5 39.0406 965.569 39.0406H968.339C968.413 39.032 968.488 39.0394 968.559 39.0622C968.63 39.0851 968.695 39.123 968.75 39.1732C968.805 39.2235 968.848 39.285 968.878 39.3535C968.907 39.4221 968.921 39.4961 968.919 39.5706Z" fill="#808080"/>
<path d="M967.09 39.1807C973.78 39.1807 1010.77 41.8607 1011.81 43.1807C1012.85 44.5007 1012.71 44.8107 1006.81 44.5107C1000.91 44.2107 967.09 39.1807 967.09 39.1807Z" fill="#808080"/>
<path d="M965.82 39.3603C966.95 38.8903 924.66 38.0203 924.51 40.1003C924.36 42.1803 959.72 41.8803 965.82 39.3603Z" fill="#808080"/>
<path d="M966.139 101.88C970.139 111.54 972.079 115.88 972.079 115.88" stroke="#CBCBCB" stroke-width="2.28" stroke-linecap="round" stroke-linejoin="round"/>
<path d="M1001.35 120.15C1001.35 120.15 967.92 117.63 965.24 116.74C962.56 115.85 959.9 111.83 959.9 111.83" stroke="#CBCBCB" stroke-width="2.28" stroke-linecap="round" stroke-linejoin="round"/>
<path d="M955.879 102.62C955.879 102.62 948.879 119.26 948.309 120.15" stroke="#CBCBCB" stroke-width="2.28" stroke-linecap="round" stroke-linejoin="round"/>
<path d="M941.77 101.141C938.77 104.701 926.91 118.221 926.91 118.221" stroke="#CBCBCB" stroke-width="2.28" stroke-linecap="round" stroke-linejoin="round"/>
<path d="M958.56 122.09C955.14 122.09 927.06 118.97 923.5 117.48" stroke="#CBCBCB" stroke-width="2.28" stroke-linecap="round" stroke-linejoin="round"/>
<path d="M931.37 69.79C934.49 65.93 943.37 62.2099 943.37 62.2099C943.37 62.2099 952.73 54.2099 961.5 53.8899C970.27 53.5699 983.5 54.3399 987.05 57.1599C990.6 59.9799 995.22 69.64 998.05 71.16C1000.88 72.68 1023.3 75.16 1030.58 75.32C1037.86 75.4799 1042.47 75.9099 1045.74 78.5899C1046.5 79.1857 1047.22 79.8304 1047.89 80.5199C1049.21 81.8599 928.25 73.65 931.37 69.79Z" fill="#2C6787"/>
<path d="M982.92 86.2803C983.22 82.4203 983.92 76.2803 982.92 74.5403C981.92 72.8003 976.83 71.7203 975.92 71.8703C975.01 72.0203 975.92 83.1603 975.92 84.5003C975.92 85.8403 982.92 86.2803 982.92 86.2803Z" fill="#27343D"/>
<path d="M971.339 71.8607C972.229 76.6207 971.339 84.9407 971.339 84.9407H966.139V70.6807L971.339 71.8607Z" fill="#27343D"/>
<path d="M963 69.3407C962.55 74.1007 962.55 84.8007 961.66 85.6907C960.77 86.5807 945.66 80.1907 941.01 80.4907C936.36 80.7907 937.74 80.0407 937.74 80.0407C937.74 80.0407 939.82 71.2807 942.74 68.6007C945.66 65.9207 947.35 64.7407 951.21 65.0407C955.07 65.3407 963 69.3407 963 69.3407Z" fill="#27343D"/>
<path d="M941.77 65.0003C940.43 67.1303 935.53 76.4003 934.94 79.1903L928.1 79.9003C928.1 79.9003 928.04 72.7004 931.37 69.8004C934.15 67.5012 937.128 65.4532 940.27 63.6803C940.81 63.4003 941.77 65.0003 941.77 65.0003Z" fill="#27343D"/>
<path d="M357.318 66.6782C359.988 72.3282 361.318 81.3882 374.398 82.1282C387.478 82.8682 407.978 83.1282 414.508 81.2382C421.038 79.3482 417.928 74.9982 424.018 73.0682C430.108 71.1382 436.348 76.9282 436.348 70.9882C436.348 65.0482 434.128 59.8482 431.008 58.5082C427.888 57.1682 428.628 51.8282 425.508 47.9582C422.388 44.0882 413.508 40.3882 413.508 40.3882C413.508 40.3882 404.148 32.3882 395.388 32.0682C386.628 31.7482 373.388 32.5082 369.838 35.3382C366.288 38.1682 361.658 47.8082 358.838 49.3382C356.018 50.8682 333.578 53.3382 326.298 53.4982C319.018 53.6582 314.418 54.0882 311.148 56.7682C307.878 59.4482 307.288 60.6282 308.768 61.2282C314.496 63.6495 320.571 65.1513 326.768 65.6782C335.618 66.2482 357.318 66.6782 357.318 66.6782Z" fill="#FEFEFE"/>
<path d="M308.26 67.3198C308.44 61.9798 310.02 57.9598 308.26 49.4998C306.5 41.0398 305.32 26.3198 305.32 26.3198C305.32 26.3198 307.05 24.2398 308.26 25.8698C309.47 27.4998 315.1 44.4998 315.13 49.4998C315.16 54.4998 317.06 75.3498 313.49 80.8398C309.92 86.3298 306.81 87.0798 306.81 84.8398C306.81 82.5998 308.26 67.3198 308.26 67.3198Z" fill="#2C6787"/>
<path d="M375 79.0605C372.77 86.0605 366.83 96.8905 366.83 96.8905" stroke="#CBCBCB" stroke-width="2.28" stroke-linecap="round" stroke-linejoin="round"/>
<path d="M388.26 17.5001C388.34 21.8301 388.14 31.3001 388.08 33.6501C388.08 33.7916 388.136 33.9274 388.235 34.0284C388.334 34.1294 388.469 34.1874 388.61 34.1901H391.55C391.62 34.1914 391.69 34.1786 391.755 34.1525C391.819 34.1263 391.878 34.0873 391.928 34.0379C391.977 33.9884 392.016 33.9294 392.043 33.8645C392.069 33.7996 392.081 33.73 392.08 33.6601V17.4901C392.08 17.3495 392.024 17.2147 391.925 17.1153C391.825 17.0159 391.691 16.9601 391.55 16.9601H388.79C388.719 16.9586 388.649 16.9717 388.583 16.9985C388.518 17.0253 388.458 17.0652 388.409 17.1157C388.359 17.1663 388.32 17.2265 388.295 17.2926C388.269 17.3587 388.257 17.4293 388.26 17.5001Z" fill="#808080"/>
<path d="M390.08 17.1104C383.4 17.1104 346.4 19.7804 345.36 21.1104C344.32 22.4404 344.47 22.7404 350.42 22.4504C356.37 22.1604 390.08 17.1104 390.08 17.1104Z" fill="#808080"/>
<path d="M391.36 17.2802C390.23 16.8102 432.52 15.9402 432.66 18.0202C432.8 20.1002 397.45 19.8002 391.36 17.2802Z" fill="#808080"/>
<path d="M390.999 79.7998C386.999 89.4598 385.059 93.7998 385.059 93.7998" stroke="#CBCBCB" stroke-width="2.28" stroke-linecap="round" stroke-linejoin="round"/>
<path d="M355.83 98.0798C355.83 98.0798 389.26 95.5498 391.93 94.6598C394.6 93.7698 397.28 89.7598 397.28 89.7598" stroke="#CBCBCB" stroke-width="2.28" stroke-linecap="round" stroke-linejoin="round"/>
<path d="M401.289 80.5498C401.289 80.5498 408.289 97.1898 408.869 98.0798" stroke="#CBCBCB" stroke-width="2.28" stroke-linecap="round" stroke-linejoin="round"/>
<path d="M415.41 79.0605C418.41 82.6305 430.27 96.1506 430.27 96.1506" stroke="#CBCBCB" stroke-width="2.28" stroke-linecap="round" stroke-linejoin="round"/>
<path d="M398.619 100.001C402.039 100.001 430.119 96.8806 433.679 95.3906" stroke="#CBCBCB" stroke-width="2.28" stroke-linecap="round" stroke-linejoin="round"/>
<path d="M425.809 47.7101C422.689 43.8501 413.809 40.1401 413.809 40.1401C413.809 40.1401 404.449 32.1401 395.689 31.8201C386.929 31.5001 373.689 32.2601 370.139 35.0901C366.589 37.9201 361.959 47.5601 359.139 49.0901C356.319 50.6201 333.879 53.0901 326.599 53.2501C319.319 53.4101 314.719 53.8401 311.449 56.5201C310.693 57.1217 309.975 57.7696 309.299 58.4601C307.999 59.7801 428.929 51.5801 425.809 47.7101Z" fill="#2C6787"/>
<path d="M374.259 64.2C373.959 60.34 373.259 54.2 374.259 52.47C375.259 50.74 380.349 49.64 381.259 49.79C382.169 49.94 381.259 61.08 381.259 62.42C381.259 63.76 374.259 64.2 374.259 64.2Z" fill="#27343D"/>
<path d="M385.839 49.7806C384.949 54.5506 385.839 62.8706 385.839 62.8706H390.999V48.6006L385.839 49.7806Z" fill="#27343D"/>
<path d="M394.16 47.2706C394.61 52.0206 394.61 62.7206 395.5 63.6106C396.39 64.5006 411.55 58.1106 416.15 58.4106C420.75 58.7106 419.42 57.9606 419.42 57.9606C419.42 57.9606 417.34 49.2006 414.37 46.5206C411.4 43.8406 409.76 42.6606 405.9 42.9606C402.04 43.2606 394.16 47.2706 394.16 47.2706Z" fill="#27343D"/>
<path d="M415.41 42.9104C416.75 45.0404 421.65 54.3104 422.24 57.1004L429.08 57.8204C429.08 57.8204 429.13 50.6204 425.81 47.7104C423.028 45.4149 420.05 43.3671 416.91 41.5904C416.37 41.3304 415.41 42.9104 415.41 42.9104Z" fill="#27343D"/>
<path d="M264.7 193.83C266.55 197.74 267.48 204.02 276.54 204.53C285.6 205.04 299.79 205.25 304.32 203.91C308.85 202.57 306.69 199.59 310.91 198.25C315.13 196.91 319.45 200.93 319.45 196.81C319.45 192.69 317.9 189.1 315.74 188.17C313.58 187.24 314.1 183.54 311.93 180.86C309.76 178.18 303.6 175.62 303.6 175.62C303.6 175.62 297.12 170.06 291.04 169.85C284.96 169.64 275.81 170.16 273.35 172.12C270.89 174.08 267.69 180.76 265.73 181.79C263.77 182.82 248.24 184.57 243.19 184.67C238.14 184.77 234.96 185.08 232.7 186.93C230.44 188.78 230.02 189.61 231.05 190.02C235.011 191.7 239.213 192.743 243.5 193.11C249.68 193.52 264.7 193.83 264.7 193.83Z" fill="#FEFEFE"/>
<path d="M230.52 194.451C230.64 190.741 231.73 187.961 230.52 182.101C229.31 176.241 228.52 166.101 228.52 166.101C228.52 166.101 229.71 164.651 230.52 165.791C231.33 166.931 235.25 178.691 235.27 182.151C235.29 185.611 236.61 200.051 234.14 203.861C231.67 207.671 229.51 208.181 229.51 206.641C229.51 205.101 230.52 194.451 230.52 194.451Z" fill="#2C6787"/>
<path d="M276.74 202.58C275.2 207.41 271.08 214.92 271.08 214.92" stroke="#CBCBCB" stroke-width="1.58" stroke-linecap="round" stroke-linejoin="round"/>
<path d="M285.919 159.931C285.979 162.931 285.839 169.491 285.809 171.131C285.807 171.179 285.816 171.227 285.833 171.271C285.851 171.316 285.877 171.357 285.911 171.392C285.944 171.426 285.984 171.454 286.029 171.472C286.073 171.491 286.121 171.501 286.169 171.501H288.169C288.266 171.498 288.359 171.458 288.428 171.389C288.496 171.321 288.536 171.228 288.539 171.131V159.931C288.536 159.833 288.496 159.741 288.428 159.672C288.359 159.603 288.266 159.563 288.169 159.561H286.249C286.159 159.573 286.076 159.616 286.015 159.684C285.955 159.752 285.92 159.84 285.919 159.931Z" fill="#808080"/>
<path d="M287.189 159.66C282.559 159.66 256.939 161.52 256.189 162.44C255.439 163.36 255.569 163.58 259.679 163.37C263.789 163.16 287.189 159.66 287.189 159.66Z" fill="#808080"/>
<path d="M288.08 159.78C287.29 159.46 316.58 158.86 316.68 160.3C316.78 161.74 292.3 161.53 288.08 159.78Z" fill="#808080"/>
<path d="M287.85 203.09C285.08 209.78 283.74 212.76 283.74 212.76" stroke="#CBCBCB" stroke-width="1.58" stroke-linecap="round" stroke-linejoin="round"/>
<path d="M263.469 215.75C263.469 215.75 286.619 214 288.469 213.38C290.319 212.76 292.179 209.99 292.179 209.99" stroke="#CBCBCB" stroke-width="1.58" stroke-linecap="round" stroke-linejoin="round"/>
<path d="M295 203.61C295 203.61 299.83 215.13 300.24 215.75" stroke="#CBCBCB" stroke-width="1.58" stroke-linecap="round" stroke-linejoin="round"/>
<path d="M304.73 202.58C306.79 205.05 315.02 214.41 315.02 214.41" stroke="#CBCBCB" stroke-width="1.58" stroke-linecap="round" stroke-linejoin="round"/>
<path d="M293.1 217.09C295.47 217.09 314.92 214.92 317.39 213.9" stroke="#CBCBCB" stroke-width="1.58" stroke-linecap="round" stroke-linejoin="round"/>
<path d="M311.93 180.86C309.77 178.19 303.6 175.62 303.6 175.62C303.6 175.62 297.12 170.06 291.04 169.85C284.96 169.64 275.81 170.16 273.35 172.12C270.89 174.08 267.69 180.76 265.73 181.79C263.77 182.82 248.24 184.57 243.19 184.67C238.14 184.77 234.96 185.08 232.7 186.93C232.176 187.348 231.678 187.799 231.21 188.28C230.32 189.22 314.1 183.54 311.93 180.86Z" fill="#2C6787"/>
<path d="M276.229 192.291C276.019 189.611 275.509 185.391 276.229 184.161C276.949 182.931 280.449 182.161 281.059 182.301C281.669 182.441 281.059 190.121 281.059 191.051C281.059 191.981 276.229 192.291 276.229 192.291Z" fill="#27343D"/>
<path d="M284.25 182.29C283.64 185.6 284.25 191.36 284.25 191.36H287.85V181.48L284.25 182.29Z" fill="#27343D"/>
<path d="M290 180.55C290.3 183.85 290.3 191.26 290.92 191.87C291.54 192.48 302.04 188.07 305.23 188.27C308.42 188.47 307.49 187.96 307.49 187.96C307.49 187.96 306.05 181.89 303.99 180.04C301.93 178.19 300.8 177.36 298.13 177.57C295.46 177.78 290 180.55 290 180.55Z" fill="#27343D"/>
<path d="M304.73 177.54C305.66 179.01 309.05 185.43 309.46 187.37L314.2 187.86C314.2 187.86 314.2 182.86 311.93 180.86C310.004 179.271 307.943 177.852 305.77 176.62C305.4 176.44 304.73 177.54 304.73 177.54Z" fill="#27343D"/>
<path d="M927.999 171.28C926.509 174.43 925.759 179.49 918.459 179.91C911.159 180.33 899.709 180.49 896.059 179.41C892.409 178.33 894.149 175.92 890.749 174.84C887.349 173.76 883.859 177 883.859 173.68C883.859 170.36 885.099 167.46 886.859 166.68C888.619 165.9 888.179 162.95 889.929 160.79C891.679 158.63 896.649 156.56 896.649 156.56C896.649 156.56 901.879 152.08 906.769 151.91C911.659 151.74 919.049 152.16 921.039 153.74C923.029 155.32 925.609 160.74 927.179 161.54C928.749 162.34 941.289 163.78 945.349 163.86C949.409 163.94 951.989 164.19 953.819 165.69C955.649 167.19 955.979 167.84 955.149 168.18C951.966 169.524 948.592 170.364 945.149 170.67C940.109 171 927.999 171.28 927.999 171.28Z" fill="#FEFEFE"/>
<path d="M955.56 171.77C955.46 168.77 954.56 166.55 955.56 161.77C956.56 156.99 957.2 148.82 957.2 148.82C957.2 148.82 956.2 147.66 955.56 148.57C954.92 149.48 951.74 158.98 951.72 161.77C951.7 164.56 950.65 176.2 952.64 179.27C954.63 182.34 956.37 182.76 956.37 181.52C956.37 180.28 955.56 171.77 955.56 171.77Z" fill="#2C6787"/>
<path d="M918.279 178.33C919.557 181.77 921.085 185.112 922.849 188.33" stroke="#CBCBCB" stroke-width="1.27" stroke-linecap="round" stroke-linejoin="round"/>
<path d="M910.879 143.94C910.879 146.37 910.949 151.65 910.979 152.94C910.979 152.98 910.972 153.019 910.957 153.055C910.941 153.092 910.919 153.125 910.892 153.153C910.864 153.18 910.831 153.202 910.794 153.218C910.758 153.233 910.719 153.24 910.679 153.24H908.999C908.96 153.242 908.92 153.235 908.883 153.22C908.846 153.206 908.812 153.184 908.784 153.156C908.756 153.127 908.734 153.094 908.719 153.057C908.705 153.02 908.698 152.98 908.699 152.94V143.94C908.699 143.901 908.707 143.862 908.722 143.826C908.737 143.789 908.759 143.756 908.787 143.728C908.815 143.7 908.848 143.678 908.885 143.663C908.921 143.648 908.96 143.64 908.999 143.64H910.539C910.582 143.635 910.625 143.638 910.667 143.651C910.708 143.663 910.746 143.684 910.778 143.713C910.81 143.741 910.836 143.776 910.853 143.816C910.871 143.855 910.88 143.897 910.879 143.94Z" fill="#808080"/>
<path d="M909.859 143.73C913.589 143.73 934.249 145.22 934.859 145.97C935.469 146.72 935.359 146.88 932.039 146.72C928.719 146.56 909.859 143.73 909.859 143.73Z" fill="#808080"/>
<path d="M909.14 143.82C909.78 143.56 886.14 143.08 886.08 144.24C886.02 145.4 905.74 145.23 909.14 143.82Z" fill="#808080"/>
<path d="M909.32 178.74C911.56 184.14 912.64 186.54 912.64 186.54" stroke="#CBCBCB" stroke-width="1.27" stroke-linecap="round" stroke-linejoin="round"/>
<path d="M929 189.001C929 189.001 910.33 187.591 908.84 187.091C907.35 186.591 905.84 184.351 905.84 184.351" stroke="#CBCBCB" stroke-width="1.27" stroke-linecap="round" stroke-linejoin="round"/>
<path d="M903.599 179.16C903.599 179.16 899.699 188.45 899.369 188.95" stroke="#CBCBCB" stroke-width="1.27" stroke-linecap="round" stroke-linejoin="round"/>
<path d="M895.71 178.33C894.06 180.33 887.42 187.87 887.42 187.87" stroke="#CBCBCB" stroke-width="1.27" stroke-linecap="round" stroke-linejoin="round"/>
<path d="M905.09 190.001C903.18 190.001 887.5 188.261 885.51 187.431" stroke="#CBCBCB" stroke-width="1.27" stroke-linecap="round" stroke-linejoin="round"/>
<path d="M889.91 160.82C891.65 158.66 896.63 156.59 896.63 156.59C896.63 156.59 901.86 152.11 906.75 151.94C911.64 151.77 919.03 152.19 921.02 153.77C923.01 155.35 925.59 160.77 927.16 161.57C928.73 162.37 941.27 163.81 945.33 163.89C949.39 163.97 951.97 164.22 953.8 165.72C954.222 166.056 954.623 166.416 955 166.8C955.72 167.56 888.16 163 889.91 160.82Z" fill="#2C6787"/>
<path d="M918.7 170.001C918.87 167.841 919.28 164.441 918.7 163.451C918.12 162.461 915.3 161.871 914.8 161.951C914.3 162.031 914.8 168.261 914.8 169.011C914.8 169.761 918.7 170.001 918.7 170.001Z" fill="#27343D"/>
<path d="M912.23 162.001C912.495 164.43 912.495 166.881 912.23 169.311H909.32V161.311L912.23 162.001Z" fill="#27343D"/>
<path d="M907.58 160.57C907.33 163.23 907.33 169.2 906.83 169.7C906.33 170.2 897.83 166.63 895.3 166.8C892.77 166.97 893.47 166.55 893.47 166.55C893.47 166.55 894.64 161.65 896.3 160.16C897.96 158.67 898.87 158 901.03 158.16C903.19 158.32 907.58 160.57 907.58 160.57Z" fill="#27343D"/>
<path d="M895.71 158.14C894.97 159.33 892.23 164.51 891.9 166.07L888.08 166.46C888.08 166.46 888.08 162.46 889.91 160.82C891.472 159.534 893.145 158.389 894.91 157.4C895.18 157.25 895.71 158.14 895.71 158.14Z" fill="#27343D"/>
<path d="M522.56 85.16C555.818 85.16 582.78 70.1347 582.78 51.6C582.78 33.0654 555.818 18.04 522.56 18.04C489.301 18.04 462.34 33.0654 462.34 51.6C462.34 70.1347 489.301 85.16 522.56 85.16Z" fill="#BCCBD3"/>
<path d="M453.299 66.9405C451.829 65.9405 460.089 66.2005 461.739 62.0505C462.481 60.0004 463.49 58.0569 464.739 56.2705C465.54 58.1173 466.483 59.8993 467.559 61.6005C469.589 65.0005 462.189 73.0005 453.299 66.9405Z" fill="#BCCBD3"/>
<path d="M489.1 39.32C491 37.32 492.27 38.32 496.28 38.48C500.29 38.64 501.21 39.74 502.4 40.87C503.59 42 503.53 44.87 503.53 45.59C503.393 46.6258 503.106 47.6362 502.68 48.59C502.26 49.72 503.25 50.21 502.68 52.04C502.11 53.87 500.5 58.58 499.94 60.55C499.38 62.52 497.41 61.68 495.86 61.61C494.31 61.54 492.13 59.61 491.71 59.71C491.29 59.81 488.33 61.33 486.71 59.71C485.09 58.09 482.92 55.41 482.71 53.45C482.5 51.49 482.99 50.84 483.13 49.51C483.27 48.18 489.1 39.32 489.1 39.32Z" fill="#BB886A"/>
<path d="M487.2 48.0004V45.7304L489.88 44.1804C489.88 44.1804 489.25 41.7204 489.88 41.1804C490.399 40.7701 491.006 40.4867 491.654 40.3531C492.302 40.2194 492.972 40.239 493.61 40.4104C495.771 41.0823 497.867 41.9492 499.87 43.0004C500.15 43.3504 501.28 41.3804 501.87 41.8804C502.46 42.3804 502.36 44.1304 502.93 44.6904C503.5 45.2504 505.32 46.1004 506.44 45.3904L507.57 44.6904C506.841 44.7406 506.108 44.6935 505.39 44.5504C505.11 44.3404 506.8 43.0704 506.94 41.9504L507.08 40.8204C506.41 41.0924 505.694 41.2349 504.97 41.2404C504.33 41.1004 504.83 40.2404 505.39 39.7604C506.077 39.4521 506.818 39.2854 507.57 39.2704C507.57 39.2704 505.39 37.5804 505.04 37.2704C504.561 36.9269 504.04 36.6448 503.49 36.4304L504.97 35.5804C504.97 35.5804 502.5 35.6504 501.66 35.5804C500.682 35.4133 499.717 35.1794 498.77 34.8804L500.39 33.6104C499.692 33.9662 498.924 34.161 498.14 34.1804L496.73 34.2504L498.14 33.1904C498.14 33.1904 496.14 33.6104 495.4 33.8204C494.042 34.3754 492.552 34.5248 491.11 34.2504C488.85 33.8204 488.01 33.4004 486.67 34.6004C485.33 35.8004 482.59 38.6804 482.31 39.6004C482.03 40.5204 482.14 48.0504 482.61 48.8204C483.08 49.5904 484.61 49.6004 485.41 48.8204C485.89 48.3417 486.525 48.0507 487.2 48.0004Z" fill="#4F3924"/>
<path d="M486.809 48.3806C486.139 46.8206 485.019 45.2606 484.109 45.5406C483.199 45.8206 481.739 49.0606 483.049 50.6506C484.359 52.2406 484.529 52.1806 485.209 51.6506C486.024 50.7224 486.576 49.5936 486.809 48.3806Z" fill="#B1826B"/>
<path d="M561.1 48.5501C561.1 55.5501 558.65 61.7001 552.71 61.7001C551.12 61.7001 544.82 59.5301 542.44 55.7001C541.28 53.8501 539.9 50.8201 539.9 48.5401C539.9 41.5401 543.81 35.8701 549.75 35.8701C555.69 35.8701 561.1 41.5501 561.1 48.5501Z" fill="#861D24"/>
<path d="M542.07 44.2505C542.07 44.2505 547.07 42.4805 549.75 43.9405C550.578 44.4482 551.278 45.1383 551.798 45.9581C552.318 46.7779 552.644 47.7056 552.75 48.6705C552.404 49.1292 551.948 49.4926 551.423 49.727C550.898 49.9613 550.323 50.0588 549.75 50.0105C546.75 50.0105 544.11 49.4305 542.99 47.0905C542.611 46.1689 542.304 45.2194 542.07 44.2505Z" fill="black"/>
<path d="M554.78 48.7402C554.59 48.2402 555.78 44.0202 556.78 43.3702C557.16 43.1302 558.31 42.1702 558.93 42.7902C559.905 44.1553 560.426 45.7925 560.42 47.4702C559.77 48.8102 555 49.2402 554.78 48.7402Z" fill="black"/>
<path d="M543.869 45.0701C543.869 45.0701 547.169 43.9001 548.949 44.8701C549.499 45.2047 549.965 45.6607 550.312 46.2032C550.659 46.7457 550.877 47.3604 550.949 48.0001C550.72 48.3072 550.415 48.5502 550.065 48.706C549.715 48.8619 549.331 48.9252 548.949 48.8901C546.949 48.8901 545.219 48.5101 544.479 46.9601C544.229 46.3463 544.025 45.7145 543.869 45.0701Z" fill="white"/>
<path d="M555.67 47.8107C555.54 47.4707 556.33 44.5607 557.07 44.1207C557.33 43.9607 558.07 43.3007 558.55 43.7207C559.208 44.6652 559.557 45.7899 559.55 46.9407C559.1 47.8607 555.8 48.1507 555.67 47.8107Z" fill="white"/>
<path d="M515.49 50.0098H528.89" stroke="white" stroke-width="2" stroke-miterlimit="10" stroke-linecap="round"/>
<path d="M515.49 54.6807H528.89" stroke="white" stroke-width="2" stroke-miterlimit="10" stroke-linecap="round"/>
<path d="M816.959 166.06C843.093 166.06 864.279 154.254 864.279 139.69C864.279 125.127 843.093 113.32 816.959 113.32C790.825 113.32 769.639 125.127 769.639 139.69C769.639 154.254 790.825 166.06 816.959 166.06Z" fill="#BCCBD3"/>
<path d="M871.39 151.74C872.54 150.95 866.05 151.16 864.75 147.9C864.176 146.293 863.397 144.767 862.43 143.36C861.799 144.812 861.057 146.213 860.21 147.55C858.58 150.23 864.41 156.51 871.39 151.74Z" fill="#BCCBD3"/>
<path d="M843.249 130C841.759 128.4 840.759 129.17 837.609 129.34C834.459 129.51 833.739 130.34 832.799 131.22C831.859 132.1 831.919 134.37 831.919 134.92C832.024 135.741 832.246 136.543 832.579 137.3C832.909 138.19 832.139 138.57 832.579 140.01C833.019 141.45 834.289 145.15 834.739 146.7C835.189 148.25 836.739 147.59 837.939 147.53C839.139 147.47 840.869 145.98 841.209 146.04C841.549 146.1 843.859 147.31 845.139 146.04C846.419 144.77 848.139 142.66 848.279 141.12C848.336 140.076 848.225 139.029 847.949 138.02C847.839 137 843.249 130 843.249 130Z" fill="#BB886A"/>
<path d="M844.749 136.841V135.071L842.639 133.861C842.639 133.861 843.139 131.921 842.639 131.541C842.234 131.215 841.757 130.989 841.247 130.883C840.738 130.777 840.211 130.793 839.709 130.931C838.011 131.444 836.364 132.114 834.789 132.931C834.569 133.201 833.689 131.661 833.189 132.041C832.689 132.421 832.799 133.811 832.359 134.261C831.919 134.711 830.479 135.361 829.589 134.811L828.709 134.261C829.282 134.299 829.857 134.258 830.419 134.141C830.649 133.981 829.319 132.981 829.209 132.141L829.099 131.251C829.625 131.47 830.189 131.585 830.759 131.591C831.249 131.481 830.869 130.761 830.419 130.421C829.881 130.179 829.299 130.05 828.709 130.041C828.709 130.041 830.419 128.711 830.709 128.431C831.088 128.164 831.498 127.942 831.929 127.771L830.769 127.111C830.769 127.111 832.699 127.111 833.359 127.111C834.128 126.976 834.886 126.789 835.629 126.551L834.359 125.551C834.908 125.828 835.513 125.979 836.129 125.991L837.239 126.051L836.129 125.221C836.129 125.221 837.729 125.551 838.289 125.711C839.355 126.152 840.527 126.27 841.659 126.051C843.429 125.711 844.089 125.381 845.139 126.321C846.189 127.261 848.349 129.531 848.569 130.251C848.789 130.971 848.709 136.881 848.329 137.491C848.186 137.637 848.016 137.753 847.828 137.832C847.64 137.911 847.438 137.952 847.234 137.952C847.03 137.952 846.828 137.911 846.64 137.832C846.452 137.753 846.282 137.637 846.139 137.491C845.767 137.117 845.274 136.887 844.749 136.841Z" fill="#4F3924"/>
<path d="M845.059 137.16C845.579 135.93 846.459 134.71 847.179 134.93C847.899 135.15 849.039 137.69 848.009 138.93C846.979 140.17 846.849 140.12 846.309 139.74C845.67 139.007 845.238 138.116 845.059 137.16Z" fill="#B1826B"/>
<path d="M786.68 137.29C786.68 142.79 788.6 147.62 793.27 147.62C794.52 147.62 799.47 145.92 801.34 142.92C802.455 141.234 803.141 139.301 803.34 137.29C803.34 131.8 800.27 127.34 795.61 127.34C790.95 127.34 786.68 131.8 786.68 137.29Z" fill="#861D24"/>
<path d="M801.629 133.92C801.629 133.92 797.709 132.53 795.629 133.67C794.983 134.072 794.438 134.616 794.034 135.26C793.63 135.905 793.379 136.633 793.299 137.39C793.568 137.746 793.923 138.028 794.33 138.212C794.737 138.395 795.184 138.474 795.629 138.44C797.979 138.44 800.059 137.99 800.939 136.15C801.226 135.425 801.457 134.68 801.629 133.92Z" fill="black"/>
<path d="M791.64 137.451C791.79 137.051 790.89 133.731 790.04 133.221C789.74 133.041 788.84 132.281 788.35 132.771C787.579 133.842 787.17 135.131 787.18 136.451C787.72 137.501 791.49 137.841 791.64 137.451Z" fill="black"/>
<path d="M800.22 134.56C800.22 134.56 797.62 133.64 796.22 134.4C795.793 134.666 795.433 135.026 795.166 135.453C794.899 135.879 794.733 136.36 794.68 136.86C794.858 137.096 795.092 137.284 795.361 137.406C795.63 137.529 795.925 137.582 796.22 137.56C797.78 137.56 799.16 137.26 799.74 136.04C799.934 135.559 800.095 135.064 800.22 134.56Z" fill="white"/>
<path d="M790.939 136.71C791.049 136.44 790.419 134.16 789.839 133.81C789.639 133.68 789.019 133.17 788.679 133.5C788.154 134.239 787.871 135.123 787.869 136.03C788.249 136.75 790.839 137 790.939 136.71Z" fill="white"/>
<path d="M822.52 138.44H811.99" stroke="white" stroke-width="1.57" stroke-miterlimit="10" stroke-linecap="round"/>
<path d="M822.52 142.11H811.99" stroke="white" stroke-width="1.57" stroke-miterlimit="10" stroke-linecap="round"/>
</g>
<defs>
<clipPath id="clip0_1020_712">
<rect width="1302" height="315" fill="white"/>
</clipPath>
</defs>
</svg>
