<svg width="324" height="252" viewBox="0 0 324 252" fill="none" xmlns="http://www.w3.org/2000/svg">
<g clip-path="url(#clip0_1020_702)">
<path d="M64.5469 231.205V271.582L271.279 269.664V231.205H64.5469Z" fill="#B2B2B2"/>
<path d="M167.913 243.955C225.001 243.955 271.279 239.621 271.279 234.274C271.279 228.928 225.001 224.594 167.913 224.594C110.825 224.594 64.5469 228.928 64.5469 234.274C64.5469 239.621 110.825 243.955 167.913 243.955Z" fill="#CBCBCB"/>
<path d="M167.913 240.892C225.001 240.892 271.279 236.557 271.279 231.211C271.279 225.864 225.001 221.53 167.913 221.53C110.825 221.53 64.5469 225.864 64.5469 231.211C64.5469 236.557 110.825 240.892 167.913 240.892Z" fill="#E5E5E5"/>
<path d="M176.653 206.336C176.653 207.745 174.992 211.807 175.274 214.914C175.556 218.02 177.382 224.6 177.523 225.654C177.664 226.708 176.751 227.266 180.048 227.97C182.472 228.505 184.929 228.88 187.403 229.092C190.143 229.373 192.533 229.864 193.373 230.636C194.212 231.408 192.318 232.106 190.921 232.18C189.524 232.253 190.498 232.529 188.537 233.019C186.576 233.509 186.398 232.737 184.412 233.019C182.426 233.301 184.326 233.999 179.901 233.791C175.476 233.583 174.71 233.65 173.441 233.019C172.172 232.388 171.198 233.16 171.13 231.683C171.063 230.207 170.849 229.092 171.13 228.877C171.412 228.663 170.076 230.145 169.862 229.649C169.647 229.153 169.653 229.036 169.862 227.897C170.07 226.757 170.989 225.789 171.406 224.178C171.823 222.566 172.252 220.036 172.019 218.424C171.786 216.813 171.32 212.739 171.32 211.55C171.32 210.361 171.247 207.831 171.247 207.831L176.653 206.336Z" fill="#F6921E"/>
<path d="M175.613 232.051C174.718 231.579 173.977 231.683 173.977 230.372C173.977 229.061 174.032 228.791 174.35 228.791C174.669 228.791 177.875 230.212 179.664 230.421C181.454 230.629 183.826 231.156 183.771 231.579C183.716 232.002 183.011 232.314 181.656 232.577C180.302 232.841 175.613 232.051 175.613 232.051Z" fill="#E2801E"/>
<path d="M182.836 229.214C184.209 230.439 185.999 231.665 186.789 231.946C187.58 232.228 187.629 232.002 188.732 231.683C189.835 231.364 190.945 231.42 191.68 231.156C192.416 230.893 192.422 230.317 191.263 230.262C189.62 230.184 187.983 230.01 186.36 229.741C185.03 229.477 182.836 229.214 182.836 229.214Z" fill="#E2801E"/>
<path d="M106.226 178.477C107.489 177.772 113.808 178.336 119.845 176.638C125.882 174.941 130.516 174.114 137.956 169.623C145.397 165.132 146.537 163.729 155.504 160.359C164.471 156.989 173.192 155.169 175.013 153.76C176.833 152.351 176.281 154.042 178.69 145.342C181.099 136.641 179.53 131.593 180.094 126.538C180.657 121.483 179.775 106.209 180.755 104.242C181.736 102.275 194.65 103.121 194.086 109.579C193.522 116.036 192.407 115.05 192.125 120.662C191.843 126.275 191.42 133.995 192.965 139.466C194.509 144.937 200.687 151.107 201.545 158.692C202.403 166.278 204.076 173.397 201.545 178.483C199.014 183.568 190.016 192.936 183.452 196.165C176.888 199.394 175.166 197.568 172.5 201.777C169.834 205.987 172.923 207.953 166.745 211.041C160.566 214.129 163.937 216.231 156.215 214.969C148.492 213.707 147.23 213.848 141.756 211.041C136.283 208.235 132.912 208.229 130.945 202.335C128.977 196.441 128.984 191.815 126.452 189.144C123.921 186.472 108.347 180.725 106.944 180.443C105.54 180.161 106.226 178.477 106.226 178.477Z" fill="#861D24"/>
<path d="M106.225 178.477C107.487 177.772 113.806 178.336 119.843 176.639C125.88 174.941 130.514 174.114 137.955 169.623C145.395 165.132 175.152 197.55 172.486 201.759C169.82 205.968 172.909 207.935 166.73 211.023C160.552 214.111 163.923 216.213 156.201 214.951C148.478 213.688 147.216 213.829 141.742 211.023C136.269 208.217 132.898 208.211 130.931 202.317C128.963 196.423 128.97 191.797 126.438 189.125C123.907 186.454 108.333 180.707 106.93 180.425C105.526 180.143 106.225 178.477 106.225 178.477Z" fill="#0C4A79"/>
<path d="M151.58 209.437C150.789 211.109 150.035 210.319 149.441 213.872C148.846 217.426 148.16 220.422 148.368 223.265C148.577 226.108 147.792 226.684 149.263 227.554C150.581 228.398 152.123 228.825 153.688 228.779C155.582 228.835 154.791 228.357 157.476 228.779C160.16 229.202 161.766 228.197 163.427 229.202C165.088 230.207 166.951 230.305 165.689 230.703C164.426 231.102 163.476 230.887 162.269 231.727C161.061 232.566 161 231.831 160.056 232.952C159.112 234.073 159.529 234.747 157.739 235.164C156.341 235.569 154.902 235.815 153.449 235.899C152.223 235.899 149.502 235.642 148.662 235.06C147.594 234.219 146.669 233.212 145.923 232.076C144.924 230.691 145.451 230.238 144.341 229.901C143.232 229.564 142.815 230.483 142.607 229.221C142.398 227.958 143.22 227.058 142.607 226.586C141.994 226.114 141.13 227.168 140.977 226.378C140.823 225.587 140.713 225.324 141.498 224.484C142.282 223.645 142.607 222.064 143.765 219.583C144.924 217.101 145.028 213.793 145.5 211.373C145.972 208.953 145.714 208.058 146.186 207.531C146.658 207.004 146.658 207.059 147.026 207.531C147.394 208.003 147.921 208.107 149.343 208.481C150.139 208.664 150.897 208.987 151.58 209.437Z" fill="#F6921E"/>
<path d="M124.231 218.688C122.153 218.143 118.623 215.858 120.075 209.002C121.528 202.145 125.475 196.135 129.012 190.927C132.548 185.719 135.87 180.315 137.114 178.256C138.358 176.198 141.895 186.565 140.651 189.996C139.406 193.427 139.609 203.083 137.114 209.884C134.62 216.685 131.298 215.233 129.012 217.31C128.387 217.911 127.625 218.35 126.792 218.591C125.959 218.831 125.08 218.864 124.231 218.688Z" fill="#861D24"/>
<path d="M127.674 214.105C127.251 212.316 126.858 208.922 128.808 206.821C130.757 204.719 132.896 203.549 133.797 202.072C134.698 200.595 134.808 196.889 134.808 196.889C135.211 198.62 135.497 200.376 135.666 202.146C135.782 204.21 136.365 207.133 134.44 209.823C132.516 212.512 131.633 213.499 129.8 213.836C129.038 214.03 128.252 214.121 127.465 214.105" fill="black"/>
<path d="M128.899 212.665C128.882 211.448 129.161 210.245 129.714 209.16C130.86 207.576 132.167 206.115 133.612 204.798C134.587 203.897 134.471 203.162 134.471 203.162C134.471 203.162 135.218 207.016 134.471 208.339C133.723 209.663 132.362 211.403 131.081 211.96C130.389 212.293 129.655 212.53 128.899 212.665Z" fill="white"/>
<path d="M122.159 211.379C122.858 210.288 125.316 206.986 125.781 205.503C126.247 204.02 125.818 202.966 126.676 199.768C127.29 197.738 128.031 195.749 128.895 193.812C127.138 195.639 125.487 197.564 123.949 199.578C123.483 200.393 121.221 204.951 121.454 206.979C121.687 209.007 122.159 211.379 122.159 211.379Z" fill="black"/>
<path d="M122.633 208.848C122.633 208.615 122.167 205.38 122.865 203.432C123.278 202.28 123.827 201.181 124.502 200.16C124.671 201.322 124.671 202.503 124.502 203.665C124.195 204.951 122.633 208.848 122.633 208.848Z" fill="white"/>
<path d="M148.681 231.052C148.154 229.999 146.922 228.847 147.762 228.791C148.601 228.736 149.68 230.262 151.237 230.556C152.793 230.85 154.608 231.898 156.845 231.604C159.082 231.31 161.343 230.924 161.055 231.212C160.767 231.5 158.922 232.737 157.923 233.368C156.924 233.999 155.104 234.79 154.16 234.741C153.216 234.692 152.554 234.343 151.237 233.368C150.324 232.667 149.469 231.892 148.681 231.052Z" fill="#E2801E"/>
<path d="M153.074 229.631C153.888 229.863 154.729 229.986 155.575 229.998C157.971 230.188 158.713 230.317 160.208 229.998C161.704 229.68 162.047 229.526 162.047 229.526" fill="#E2801E"/>
<path d="M166.124 158.38C161.552 159.746 144.917 162.902 141.546 165.009C138.175 167.117 140.075 167.638 135.019 168.9C129.963 170.162 130.177 169.219 124.495 171.639C118.814 174.059 117.141 175.425 117.141 175.425C117.141 175.425 120.07 174.188 122.16 174.188C124.25 174.188 122.577 176.399 121.842 178.188C121.106 179.978 123.104 180.927 126.132 181.981C129.16 183.035 125.715 186.821 132.138 187.134C138.562 187.446 142.245 185.449 143.085 186.521C143.925 187.593 152.665 177.153 156.035 176.105C159.406 175.058 165.229 174.102 166.945 172C168.661 169.899 171.934 165.579 170.457 162.001C168.98 158.423 166.124 158.38 166.124 158.38Z" fill="white"/>
<path d="M127.064 176.289C126.754 176.565 126.484 176.883 126.261 177.233C126.163 177.386 126.102 177.56 126.084 177.741C126.084 177.888 126.133 177.876 126.304 177.876C126.397 177.86 126.49 177.837 126.58 177.809L126.733 177.76H126.782C126.782 177.76 126.782 177.76 126.886 177.76C126.991 177.76 126.942 177.76 127.015 177.864C127.037 177.919 127.037 177.98 127.015 178.035C126.96 178.164 126.972 178.115 126.96 178.14V178.189C126.938 178.257 126.93 178.329 126.936 178.401C126.943 178.472 126.963 178.542 126.997 178.605C127.173 178.951 127.405 179.266 127.683 179.537C127.943 179.817 128.301 179.988 128.682 180.014C128.888 180.022 129.095 180.002 129.295 179.953C129.36 179.946 129.426 179.946 129.491 179.953C129.524 179.955 129.555 179.966 129.582 179.986C129.608 180.006 129.628 180.033 129.638 180.063C129.652 180.105 129.652 180.15 129.638 180.192C129.608 180.315 129.559 180.4 129.528 180.505C129.369 180.881 129.345 181.301 129.461 181.693C129.553 182.128 130.012 182 130.417 181.914C130.863 181.792 131.336 181.811 131.771 181.969C131.903 182.009 132.025 182.076 132.13 182.164C132.235 182.252 132.322 182.361 132.384 182.484C132.429 182.732 132.408 182.987 132.323 183.225C132.288 183.367 132.306 183.517 132.372 183.648C132.372 183.648 132.329 183.648 132.415 183.648L132.715 183.611C132.964 183.573 133.219 183.596 133.457 183.678C133.576 183.721 133.69 183.775 133.8 183.838C133.938 183.913 134.056 184.02 134.143 184.15C134.177 184.208 134.197 184.273 134.203 184.34C134.208 184.407 134.198 184.474 134.174 184.536C134.157 184.585 134.133 184.631 134.1 184.671C134.082 184.705 134.057 184.734 134.027 184.757C133.978 184.804 133.933 184.855 133.892 184.91C133.892 184.879 133.892 184.855 133.923 184.91C133.976 184.972 134.038 185.026 134.106 185.069C134.431 185.295 134.795 185.459 135.179 185.553C135.982 185.738 136.823 185.671 137.588 185.363V185.412C137.031 185.788 136.379 185.996 135.707 186.013C135.036 186.029 134.374 185.853 133.8 185.504C133.688 185.441 133.584 185.363 133.494 185.271C133.421 185.202 133.368 185.114 133.341 185.017C133.314 184.92 133.314 184.817 133.34 184.72C133.397 184.588 133.48 184.469 133.585 184.371C133.616 184.371 133.628 184.309 133.616 184.334C133.61 184.362 133.61 184.392 133.616 184.42C133.577 184.38 133.532 184.346 133.481 184.322C133.408 184.276 133.33 184.239 133.248 184.211C133.085 184.158 132.911 184.139 132.74 184.156C132.648 184.156 132.55 184.156 132.409 184.156C132.319 184.158 132.23 184.143 132.145 184.113C132.045 184.073 131.959 184.002 131.9 183.911C131.768 183.661 131.733 183.371 131.802 183.096C131.857 182.857 131.937 182.661 131.906 182.606C131.875 182.551 131.741 182.41 131.569 182.33C131.214 182.169 130.82 182.116 130.435 182.177C130.213 182.202 129.989 182.202 129.767 182.177C129.642 182.16 129.525 182.104 129.433 182.017C129.341 181.93 129.278 181.817 129.252 181.693C129.151 181.259 129.181 180.805 129.338 180.388C129.338 180.29 129.405 180.186 129.424 180.1C129.442 180.014 129.424 180.07 129.424 180.07C129.424 180.07 129.424 180.106 129.424 180.1H129.307C129.096 180.178 128.876 180.227 128.652 180.247C128.178 180.273 127.712 180.115 127.352 179.806C126.995 179.513 126.711 179.139 126.525 178.716C126.467 178.59 126.437 178.453 126.437 178.314C126.437 178.176 126.467 178.039 126.525 177.913L126.58 177.821C126.58 177.821 126.611 177.754 126.58 177.858C126.562 177.911 126.562 177.969 126.58 178.023C126.609 178.069 126.652 178.103 126.703 178.121C126.788 178.121 126.782 178.121 126.788 178.121L126.641 178.158C126.537 178.158 126.427 178.201 126.292 178.219C126.135 178.232 125.979 178.188 125.851 178.097C125.788 178.041 125.74 177.972 125.71 177.894C125.68 177.816 125.67 177.732 125.679 177.649C125.723 177.411 125.827 177.188 125.979 177C126.26 176.664 126.601 176.383 126.985 176.173L127.064 176.289Z" fill="#F1F1F1"/>
<path d="M133.412 174.071C133.322 174.267 133.256 174.472 133.216 174.684C133.196 174.768 133.198 174.856 133.223 174.939C133.248 175.022 133.294 175.097 133.357 175.156C133.429 175.2 133.509 175.228 133.592 175.24C133.675 175.251 133.76 175.246 133.841 175.223C133.99 175.178 134.149 175.192 134.289 175.26C134.412 175.36 134.495 175.502 134.522 175.658C134.571 175.891 134.607 176.087 134.656 176.271C134.695 176.45 134.763 176.622 134.859 176.779C134.982 176.904 135.133 176.997 135.299 177.051C135.465 177.105 135.642 177.119 135.815 177.092C136.02 177.089 136.224 177.075 136.428 177.049C136.507 177.031 136.59 177.032 136.668 177.053C136.747 177.073 136.82 177.112 136.881 177.165C136.966 177.277 137.018 177.411 137.028 177.551C137.035 177.978 137.084 178.403 137.175 178.82C137.231 179.013 137.337 179.189 137.482 179.328C137.63 179.455 137.82 179.523 138.015 179.518C138.226 179.51 138.433 179.464 138.628 179.383C138.827 179.313 139.032 179.259 139.241 179.224C139.361 179.206 139.483 179.206 139.602 179.224C139.68 179.226 139.757 179.246 139.826 179.282C139.895 179.319 139.955 179.37 140.001 179.432C140.063 179.557 140.096 179.694 140.096 179.834C140.096 179.973 140.063 180.11 140.001 180.235L139.762 180.848C139.678 181.011 139.62 181.187 139.59 181.369C139.59 181.436 139.59 181.405 139.59 181.424C139.651 181.452 139.714 181.473 139.78 181.485C139.958 181.519 140.141 181.519 140.32 181.485C140.503 181.442 140.7 181.381 140.896 181.313C141.119 181.226 141.351 181.165 141.588 181.13C141.688 181.12 141.789 181.134 141.882 181.172C142 181.233 142.09 181.336 142.134 181.46C142.151 181.543 142.151 181.629 142.134 181.712C142.144 181.779 142.144 181.847 142.134 181.914C142.089 182.153 142 182.382 141.87 182.588C141.769 182.737 141.681 182.895 141.607 183.06C141.607 183.06 141.607 183.06 141.65 183.09C141.732 183.124 141.819 183.149 141.907 183.164C142.739 183.28 143.584 183.255 144.408 183.09V183.139C143.591 183.475 142.709 183.625 141.827 183.58C141.702 183.57 141.578 183.543 141.46 183.501C141.378 183.468 141.305 183.417 141.245 183.354C141.171 183.269 141.131 183.16 141.135 183.047C141.182 182.802 141.273 182.567 141.404 182.355C141.491 182.191 141.553 182.016 141.588 181.834C141.59 181.795 141.59 181.757 141.588 181.718C141.591 181.697 141.591 181.677 141.588 181.656C141.588 181.656 141.588 181.693 141.637 181.706C141.686 181.718 141.637 181.706 141.637 181.706C141.343 181.748 140.89 181.969 140.412 182.043C140.167 182.092 139.915 182.092 139.67 182.043C139.525 182.017 139.387 181.961 139.265 181.877C139.189 181.818 139.128 181.74 139.091 181.651C139.053 181.562 139.039 181.465 139.051 181.369C139.095 181.13 139.177 180.9 139.296 180.688C139.394 180.492 139.492 180.302 139.572 180.119C139.65 179.985 139.682 179.831 139.664 179.677C139.664 179.604 139.431 179.555 139.241 179.573C138.836 179.573 138.438 179.757 137.966 179.763C137.738 179.752 137.521 179.661 137.353 179.506C137.192 179.344 137.07 179.147 136.998 178.93C136.882 178.513 136.79 178.089 136.722 177.662C136.709 177.588 136.677 177.518 136.63 177.46C136.63 177.46 136.63 177.46 136.471 177.46C136.256 177.509 136.039 177.548 135.821 177.576C135.583 177.604 135.342 177.589 135.11 177.533C134.845 177.471 134.611 177.314 134.454 177.092C134.326 176.883 134.239 176.653 134.197 176.412C134.148 176.191 134.123 175.965 134.092 175.799C134.084 175.743 134.07 175.687 134.05 175.634C134.05 175.634 134.001 175.634 133.878 175.634C133.748 175.652 133.616 175.642 133.49 175.605C133.365 175.568 133.248 175.505 133.149 175.419C133.061 175.323 133.002 175.204 132.979 175.076C132.957 174.948 132.971 174.817 133.02 174.696C133.096 174.488 133.206 174.293 133.345 174.12L133.412 174.071Z" fill="#F1F1F1"/>
<path d="M184.859 112.74C184.749 112.69 184.696 112.546 184.68 112.402C184.679 112.561 184.689 112.738 184.853 112.856C184.941 112.9 185.037 112.927 185.135 112.936C185.141 112.966 185.141 112.997 185.135 113.028C184.978 113.341 184.791 113.639 184.577 113.916C184.327 114.197 184.097 114.496 183.891 114.811C183.843 114.929 183.833 115.06 183.86 115.184C183.889 115.295 183.934 115.4 183.995 115.497C184.109 115.658 184.245 115.802 184.399 115.926C184.451 115.959 184.494 116.006 184.523 116.06C184.552 116.115 184.566 116.176 184.565 116.238C184.555 116.397 184.524 116.553 184.473 116.704C184.345 117.056 184.243 117.416 184.166 117.782C184.145 117.9 184.145 118.02 184.166 118.138C184.196 118.231 184.231 118.323 184.271 118.413C184.333 118.564 184.382 118.72 184.418 118.879C184.443 119.011 184.421 119.147 184.356 119.265C184.254 119.438 184.179 119.626 184.136 119.822C184.078 120.24 184.183 120.663 184.43 121.005C184.546 121.151 184.678 121.284 184.822 121.403C184.866 121.452 184.896 121.512 184.909 121.577C184.922 121.642 184.918 121.709 184.896 121.771C184.807 122.114 184.692 122.45 184.553 122.776C184.459 122.958 184.428 123.165 184.463 123.366C184.499 123.568 184.599 123.752 184.749 123.891C184.92 124.007 185.135 124.013 185.202 124.105C185.27 124.197 185.227 124.393 185.159 124.546C185.024 124.877 184.862 125.197 184.675 125.502C184.576 125.675 184.527 125.873 184.534 126.072C184.54 126.265 184.577 126.455 184.644 126.636C184.785 126.997 184.994 127.291 185.123 127.61C185.191 127.746 185.219 127.899 185.202 128.051C185.152 128.207 185.088 128.359 185.012 128.504C184.856 128.842 184.725 129.19 184.62 129.546C184.511 129.91 184.453 130.287 184.448 130.667V131.746C184.412 132.469 184.461 133.185 184.412 133.902C184.363 134.619 184.326 135.336 184.24 136.041C184.158 136.745 184.029 137.443 183.854 138.13C183.621 138.841 183.519 139.588 183.553 140.336C183.603 141.095 183.897 141.782 183.897 142.468C183.897 142.823 183.871 143.177 183.817 143.528C183.739 143.888 183.71 144.257 183.731 144.625C183.757 144.27 183.827 143.92 183.94 143.583C184.033 143.226 184.093 142.861 184.117 142.492C184.142 141.733 183.921 141.022 183.921 140.336C183.923 139.636 184.054 138.942 184.307 138.289C184.507 137.58 184.652 136.857 184.743 136.126C184.838 135.405 184.898 134.679 184.92 133.951V131.776V130.686C184.906 130.343 184.941 130.001 185.024 129.669C185.113 129.328 185.219 128.993 185.343 128.664C185.426 128.485 185.487 128.298 185.527 128.106C185.539 127.893 185.49 127.68 185.386 127.493C185.221 127.163 184.994 126.862 184.853 126.55C184.777 126.402 184.738 126.238 184.738 126.072C184.738 125.906 184.777 125.742 184.853 125.594C185.039 125.282 185.197 124.954 185.325 124.614C185.373 124.519 185.398 124.414 185.398 124.307C185.398 124.201 185.373 124.096 185.325 124.001C185.153 123.805 184.945 123.83 184.828 123.732C184.772 123.68 184.727 123.617 184.695 123.548C184.664 123.479 184.646 123.403 184.644 123.327C184.636 123.163 184.668 122.999 184.736 122.849C184.91 122.524 185.053 122.183 185.165 121.832C185.204 121.724 185.214 121.608 185.196 121.494C185.178 121.381 185.132 121.274 185.061 121.183C184.938 121.057 184.824 120.924 184.718 120.784C184.565 120.518 184.506 120.206 184.553 119.902C184.594 119.746 184.661 119.597 184.749 119.461C184.856 119.26 184.896 119.031 184.865 118.805C184.831 118.61 184.775 118.419 184.7 118.236C184.63 118.11 184.594 117.969 184.595 117.825C184.662 117.483 184.75 117.145 184.859 116.814C184.922 116.616 184.951 116.409 184.945 116.201C184.943 116.077 184.912 115.955 184.853 115.846C184.795 115.746 184.718 115.659 184.626 115.589C184.495 115.492 184.378 115.379 184.277 115.252C184.233 115.209 184.202 115.155 184.186 115.096C184.169 115.036 184.169 114.974 184.185 114.915C184.358 114.616 184.55 114.33 184.761 114.057C184.972 113.75 185.141 113.416 185.264 113.064C185.277 113.008 185.277 112.949 185.264 112.893C185.257 112.847 185.233 112.805 185.196 112.776C185.164 112.77 185.13 112.77 185.098 112.776C185.017 112.78 184.935 112.768 184.859 112.74Z" fill="#771D26"/>
<path d="M186.768 112.305C186.768 112.476 186.817 112.678 186.946 112.74C187.025 112.767 187.108 112.779 187.191 112.776C187.223 112.77 187.257 112.77 187.289 112.776C187.324 112.807 187.348 112.848 187.357 112.893C187.364 112.95 187.364 113.007 187.357 113.064C187.234 113.416 187.065 113.75 186.854 114.057C186.633 114.331 186.428 114.617 186.241 114.915C186.204 115.025 186.241 115.117 186.339 115.252C186.44 115.379 186.558 115.492 186.689 115.589C186.781 115.659 186.858 115.746 186.915 115.846C186.974 115.955 187.006 116.077 187.007 116.201C187.007 116.409 186.978 116.615 186.921 116.814C186.808 117.144 186.718 117.482 186.652 117.825C186.656 117.969 186.694 118.109 186.762 118.236C186.838 118.419 186.893 118.61 186.928 118.805C186.959 119.031 186.918 119.26 186.811 119.461C186.723 119.597 186.657 119.746 186.615 119.902C186.562 120.207 186.621 120.52 186.78 120.784C186.882 120.927 186.997 121.061 187.124 121.183C187.194 121.274 187.241 121.381 187.259 121.494C187.277 121.608 187.266 121.724 187.228 121.832C187.113 122.182 186.97 122.523 186.799 122.849C186.724 122.997 186.692 123.162 186.707 123.327C186.708 123.404 186.725 123.479 186.756 123.549C186.788 123.618 186.834 123.681 186.891 123.732C187.007 123.83 187.216 123.805 187.387 124.001C187.432 124.097 187.455 124.202 187.455 124.307C187.455 124.413 187.432 124.518 187.387 124.614C187.255 124.952 187.097 125.28 186.915 125.594C186.839 125.742 186.798 125.906 186.798 126.072C186.798 126.238 186.839 126.402 186.915 126.55C187.056 126.862 187.277 127.163 187.449 127.493C187.552 127.68 187.601 127.893 187.59 128.106C187.55 128.298 187.488 128.485 187.406 128.664C187.279 128.992 187.173 129.327 187.087 129.669C187.001 130 186.966 130.343 186.983 130.686V131.776C186.983 132.499 187.013 133.222 186.983 133.951C186.952 134.68 186.891 135.403 186.799 136.126C186.714 136.858 186.57 137.581 186.37 138.289C186.114 138.941 185.983 139.635 185.984 140.336C185.984 141.022 186.204 141.733 186.18 142.492C186.156 142.861 186.094 143.227 185.996 143.583C185.886 143.92 185.818 144.27 185.794 144.625C185.773 144.257 185.801 143.888 185.88 143.528C185.931 143.177 185.956 142.823 185.953 142.468C185.953 141.782 185.665 141.095 185.616 140.336C185.581 139.588 185.683 138.841 185.916 138.13C186.086 137.442 186.215 136.744 186.302 136.041C186.388 135.336 186.425 134.619 186.474 133.902C186.523 133.185 186.474 132.469 186.511 131.746V130.667C186.512 130.287 186.57 129.909 186.682 129.546C186.783 129.189 186.912 128.841 187.069 128.504C187.149 128.36 187.214 128.208 187.265 128.051C187.281 127.899 187.254 127.746 187.185 127.61C187.056 127.291 186.848 126.997 186.707 126.636C186.638 126.455 186.598 126.265 186.59 126.072C186.588 125.872 186.639 125.676 186.738 125.502C186.922 125.196 187.084 124.876 187.222 124.546C187.289 124.393 187.332 124.197 187.265 124.105C187.197 124.013 186.983 124.007 186.805 123.891C186.658 123.75 186.56 123.565 186.526 123.365C186.492 123.164 186.523 122.957 186.615 122.776C186.753 122.45 186.866 122.114 186.952 121.771C186.974 121.709 186.979 121.642 186.966 121.577C186.953 121.512 186.923 121.452 186.879 121.403C186.737 121.281 186.606 121.148 186.486 121.005C186.242 120.663 186.139 120.239 186.198 119.822C186.242 119.627 186.315 119.439 186.413 119.265C186.477 119.147 186.501 119.012 186.48 118.879C186.444 118.72 186.395 118.564 186.333 118.413C186.291 118.324 186.256 118.232 186.229 118.138C186.208 118.02 186.208 117.9 186.229 117.782C186.303 117.415 186.405 117.055 186.535 116.704C186.588 116.554 186.617 116.397 186.621 116.238C186.625 116.177 186.612 116.115 186.584 116.06C186.556 116.005 186.514 115.959 186.462 115.926C186.306 115.804 186.17 115.659 186.057 115.497C185.994 115.401 185.949 115.296 185.922 115.184C185.885 115.063 185.885 114.932 185.922 114.811C186.127 114.495 186.357 114.196 186.609 113.916C186.823 113.639 187.01 113.341 187.167 113.028C187.173 112.997 187.173 112.966 187.167 112.936C187.068 112.927 186.973 112.9 186.885 112.856C186.689 112.715 186.713 112.488 186.713 112.311L186.768 112.305Z" fill="#771D26"/>
<path d="M183.451 196.165C176.85 199.388 175.164 197.568 172.498 201.778C170.353 205.166 171.928 207.096 169.434 209.332C170.042 209.423 170.658 209.454 171.272 209.424C173.313 209.332 172.958 209.142 175.765 208.162C178.572 207.182 182.01 203.603 184.609 200.583C186.644 198.218 186.65 196.294 186.019 194.707C185.192 195.243 184.334 195.73 183.451 196.165Z" fill="#0C4A79"/>
<path d="M189.327 86.6636C191.779 83.9922 193.47 85.285 198.717 85.5607C203.963 85.8364 205.165 87.215 206.734 88.6916C208.303 90.1682 208.205 93.9363 208.205 94.8553C208.205 95.7744 207.653 97.3429 207.101 98.8134C206.55 100.284 207.837 100.933 207.101 103.329C206.366 105.725 204.245 111.907 203.51 114.468C202.774 117.029 200.194 115.938 198.165 115.846C196.137 115.754 193.262 113.267 192.735 113.359C192.208 113.451 188.31 115.479 186.183 113.359C184.056 111.239 181.219 107.734 180.943 105.167C180.667 102.6 181.31 101.76 181.494 100.014C181.678 98.2681 189.327 86.6636 189.327 86.6636Z" fill="#BB886A"/>
<path d="M186.837 97.9858V95.0388L190.336 93.0169C190.336 93.0169 189.509 89.7941 190.336 89.1507C191.016 88.6065 191.814 88.2307 192.666 88.0539C193.518 87.8772 194.4 87.9045 195.24 88.1337C197.428 88.7831 203.067 90.9888 203.416 91.4729C203.765 91.9569 205.255 89.359 206.082 90.0024C206.909 90.6457 206.726 92.9495 207.467 93.6786C208.209 94.4077 210.599 95.5167 212.07 94.5976L213.541 93.6786C213.541 93.6786 211.059 93.7705 210.691 93.4948C210.323 93.219 212.53 91.5586 212.714 90.0882L212.897 88.6116C212.897 88.6116 210.967 89.3529 210.139 89.1691C209.312 88.9853 209.949 87.7844 210.691 87.233C211.433 86.6816 213.541 86.6203 213.541 86.6203C213.541 86.6203 210.691 84.4084 210.231 83.9489C209.603 83.4996 208.921 83.1292 208.203 82.8461L210.139 81.7432C210.139 81.7432 206.916 81.8351 205.806 81.7432C204.528 81.5233 203.266 81.2141 202.031 80.818L204.151 79.1637C203.237 79.5953 202.239 79.8231 201.228 79.8316L199.389 79.9235L201.228 78.5449C201.228 78.5449 198.556 79.0964 197.636 79.3721C195.856 80.0955 193.903 80.287 192.016 79.9235C189.074 79.3721 187.965 78.8206 186.218 80.383C184.471 81.9454 180.873 85.7257 180.506 86.9205C180.138 88.1153 180.279 97.9491 180.898 98.9784C181.517 100.008 183.454 99.9955 184.575 98.9784C185.195 98.4006 185.992 98.0505 186.837 97.9858Z" fill="#4F3924"/>
<path d="M186.315 98.5062C185.445 96.4659 183.98 94.4256 182.785 94.7932C181.59 95.1609 179.684 99.4007 181.4 101.484C183.116 103.567 183.337 103.481 184.225 102.832C185.114 102.182 186.518 98.9167 186.315 98.5062Z" fill="#B1826B"/>
<path d="M200.766 105.1C200.766 105.1 200.116 104.015 200.582 104.156C201.048 104.297 201.41 105.216 201.269 105.284C201.128 105.351 200.766 105.1 200.766 105.1Z" fill="black"/>
<path d="M202.869 105.173C202.869 105.173 203.513 104.095 203.053 104.229C202.593 104.364 202.225 105.289 202.36 105.357C202.495 105.424 202.869 105.173 202.869 105.173Z" fill="black"/>
<path d="M193.515 171.185C194.624 170.94 195.188 171.344 195.213 171.589C195.237 171.834 196.77 171.295 197.462 171.516L198.161 171.736C198.161 171.736 198.259 168.342 198.161 168.103L198.565 172.19C197.659 172.141 196.751 172.141 195.844 172.19C195.678 172.249 195.529 172.348 195.409 172.478H197.425L198.725 173.838C198.725 173.838 199.767 171.16 199.797 169.678L199.834 168.195C200.117 168.648 200.291 169.16 200.342 169.692C200.393 170.224 200.32 170.76 200.128 171.258C199.436 172.876 198.982 173.66 198.994 173.795C199.007 173.93 197.321 173.36 197.211 173.262C197.101 173.164 195.262 172.71 195.262 172.71C195.682 173.083 196.163 173.382 196.684 173.593C197.15 173.672 197.91 175.523 197.91 175.523L196.684 174.052L195.139 173.164L194.9 173.237C194.9 173.237 196.163 175.602 196.175 175.688C196.187 175.774 191.658 183.592 191.333 184.045L195.623 175.811L194.643 173.893L194.293 174.071L194.471 175.909L192.577 178.752L191.676 178.574V174.855L192.988 173.268L190.806 173.672C190.872 174.921 190.845 176.172 190.726 177.416C190.53 178.139 188.924 182.501 188.924 182.501C188.924 182.501 190.408 177.232 190.42 177.146C190.432 177.061 190.42 173.372 190.42 173.372L192.823 172.717V172.349L187.031 172.269L186.92 179.364L186.602 171.938L192.308 171.84C192.308 171.84 191.48 170.676 191.155 170.615C190.831 170.554 188.305 170.652 188.305 170.652C188.305 170.652 189.599 165.952 190.144 165.615C190.867 165.234 191.612 164.896 192.375 164.604L190.181 165.977L188.894 170.174L191.241 170.107L192.81 171.332C192.652 170.818 192.462 170.315 192.24 169.825C192.161 169.825 190.083 169.635 190.254 169.212C190.426 168.789 193.196 166.259 193.932 166.185C193.932 166.185 191.738 168.164 191.554 168.397C191.37 168.63 191.155 168.936 191.155 168.936L192.381 169.549L193.27 170.946L193.515 171.185Z" fill="black"/>
<path d="M283.444 77.4738C281.807 80.9355 280.992 86.4866 272.975 86.94C264.959 87.3934 252.394 87.5527 248.386 86.3947C244.377 85.2367 246.296 82.5714 242.563 81.3889C238.831 80.2064 235 83.754 235 80.1145C235 76.4751 236.367 73.2891 238.279 72.468C240.191 71.647 239.738 68.3691 241.65 66.0041C243.562 63.6391 249.005 61.3598 249.005 61.3598C249.005 61.3598 254.742 56.4582 260.117 56.2622C265.492 56.0661 273.601 56.5379 275.776 58.2657C277.952 59.9935 280.784 65.9122 282.518 66.8435C284.253 67.7748 297.994 69.2943 302.456 69.3923C306.918 69.4903 309.744 69.7538 311.748 71.3958C313.752 73.0379 314.114 73.7608 313.2 74.1223C309.692 75.6139 305.967 76.5364 302.168 76.855C296.738 77.1981 283.444 77.4738 283.444 77.4738Z" fill="#FEFEFE"/>
<path d="M313.697 78.0187C313.586 74.7408 312.618 72.2839 313.697 67.0943C314.775 61.9048 315.499 52.8981 315.499 52.8981C315.499 52.8981 314.438 51.6237 313.697 52.6224C312.955 53.6211 309.504 64.037 309.486 67.0943C309.468 70.1517 308.303 82.9326 310.491 86.3024C312.679 89.6723 314.585 90.1257 314.585 88.7532C314.585 87.3808 313.697 78.0187 313.697 78.0187Z" fill="#2C6787"/>
<path d="M272.793 85.2119C274.16 89.5008 277.8 96.1363 277.8 96.1363" stroke="#CBCBCB" stroke-width="2.28" stroke-linecap="round" stroke-linejoin="round"/>
<path d="M264.665 47.488C264.616 50.1471 264.739 55.9432 264.769 57.3892C264.771 57.4321 264.764 57.4748 264.749 57.5149C264.733 57.555 264.71 57.5916 264.68 57.6225C264.65 57.6534 264.615 57.6779 264.575 57.6947C264.536 57.7115 264.493 57.7201 264.45 57.7201H262.612C262.569 57.7201 262.527 57.7116 262.488 57.6952C262.449 57.6789 262.414 57.6548 262.384 57.6246C262.355 57.5944 262.331 57.5585 262.316 57.5191C262.3 57.4798 262.292 57.4377 262.293 57.3953V47.488C262.292 47.4457 262.3 47.4036 262.316 47.3642C262.331 47.3248 262.355 47.289 262.384 47.2587C262.414 47.2285 262.449 47.2045 262.488 47.1881C262.527 47.1717 262.569 47.1633 262.612 47.1633H264.31C264.355 47.158 264.401 47.1625 264.444 47.1765C264.488 47.1906 264.528 47.2137 264.561 47.2445C264.595 47.2753 264.622 47.313 264.64 47.355C264.658 47.397 264.666 47.4424 264.665 47.488Z" fill="#808080"/>
<path d="M263.543 47.249C267.643 47.249 290.315 48.8911 290.952 49.6998C291.589 50.5086 291.504 50.6985 287.887 50.5147C284.271 50.3309 263.543 47.249 263.543 47.249Z" fill="#808080"/>
<path d="M262.765 47.3596C263.457 47.0716 237.538 46.5386 237.446 47.813C237.354 49.0874 259.026 48.9036 262.765 47.3596Z" fill="#808080"/>
<path d="M262.961 85.666C265.413 91.5847 266.602 94.2438 266.602 94.2438" stroke="#CBCBCB" stroke-width="2.28" stroke-linecap="round" stroke-linejoin="round"/>
<path d="M284.542 96.8594C284.542 96.8594 264.052 95.3154 262.41 94.7701C260.767 94.2248 259.137 91.7617 259.137 91.7617" stroke="#CBCBCB" stroke-width="2.28" stroke-linecap="round" stroke-linejoin="round"/>
<path d="M256.671 86.1191C256.671 86.1191 252.381 96.3144 252.031 96.8597" stroke="#CBCBCB" stroke-width="2.28" stroke-linecap="round" stroke-linejoin="round"/>
<path d="M248.026 85.2119C246.187 87.3931 238.918 95.6768 238.918 95.6768" stroke="#CBCBCB" stroke-width="2.28" stroke-linecap="round" stroke-linejoin="round"/>
<path d="M258.317 98.0482C256.22 98.0482 239.01 96.1366 236.828 95.2236" stroke="#CBCBCB" stroke-width="2.28" stroke-linecap="round" stroke-linejoin="round"/>
<path d="M241.65 66.0041C243.562 63.6391 249.004 61.3598 249.004 61.3598C249.004 61.3598 254.741 56.4582 260.116 56.2622C265.492 56.0661 273.6 56.5379 275.776 58.2657C277.952 59.9935 280.784 65.9122 282.518 66.8435C284.253 67.7748 297.994 69.2943 302.456 69.3923C306.918 69.4903 309.743 69.7538 311.747 71.3958C312.212 71.7608 312.652 72.1559 313.065 72.5783C313.874 73.3993 239.737 68.3691 241.65 66.0041Z" fill="#2C6787"/>
<path d="M273.245 76.107C273.429 73.742 273.858 69.98 273.245 68.9139C272.632 67.8478 269.513 67.1861 268.955 67.278C268.397 67.3699 268.955 74.1954 268.955 75.0164C268.955 75.8374 273.245 76.107 273.245 76.107Z" fill="#27343D"/>
<path d="M266.148 67.2728C266.694 70.1892 266.148 75.2869 266.148 75.2869H262.961V66.5498L266.148 67.2728Z" fill="#27343D"/>
<path d="M261.037 65.728C260.761 68.6444 260.761 75.2003 260.215 75.7456C259.67 76.2909 250.409 72.3757 247.559 72.5596C244.709 72.7434 245.555 72.2838 245.555 72.2838C245.555 72.2838 246.83 66.9166 248.619 65.2746C250.409 63.6325 251.445 62.9096 253.811 63.0934C256.176 63.2772 261.037 65.728 261.037 65.728Z" fill="#27343D"/>
<path d="M248.023 63.0691C247.202 64.3742 244.198 70.0539 243.837 71.7633L239.645 72.1984C239.645 72.1984 239.608 67.7869 241.649 66.0101C243.353 64.6014 245.178 63.3466 247.104 62.2604C247.435 62.0888 248.023 63.0691 248.023 63.0691Z" fill="#27343D"/>
<path d="M37.1771 177.759C38.311 180.155 38.8809 184.003 44.4339 184.315C49.9868 184.627 58.6839 184.756 61.4603 183.935C64.2368 183.114 62.9129 181.288 65.4993 180.467C68.0858 179.646 70.7335 182.109 70.7335 179.585C70.7335 177.061 69.7835 174.861 68.4597 174.291C67.1358 173.721 67.4545 171.454 66.1245 169.812C64.7945 168.17 61.019 166.602 61.019 166.602C61.019 166.602 57.0474 163.195 53.3209 163.067C49.5945 162.938 43.9864 163.257 42.4787 164.457C40.9709 165.658 39.0097 169.751 37.8084 170.382C36.6071 171.013 27.0887 172.086 23.9935 172.147C20.8984 172.208 18.9493 172.398 17.5642 173.532C16.179 174.665 15.9216 175.174 16.5529 175.425C18.9807 176.454 21.556 177.093 24.1835 177.318C27.9713 177.569 37.1771 177.759 37.1771 177.759Z" fill="#FEFEFE"/>
<path d="M16.2258 178.139C16.2994 175.866 16.9674 174.163 16.2258 170.572C15.4842 166.982 15 160.769 15 160.769C15 160.769 15.7294 159.881 16.2258 160.579C16.7223 161.278 19.1248 168.483 19.1371 170.603C19.1494 172.723 19.9584 181.57 18.4445 183.905C16.9306 186.239 15.6068 186.552 15.6068 185.608C15.6068 184.665 16.2258 178.139 16.2258 178.139Z" fill="#2C6787"/>
<path d="M44.555 183.12C43.6111 186.079 41.0859 190.681 41.0859 190.681" stroke="#CBCBCB" stroke-width="1.58" stroke-linecap="round" stroke-linejoin="round"/>
<path d="M50.1808 156.988C50.2176 158.827 50.1318 162.846 50.1134 163.851C50.1125 163.88 50.1176 163.909 50.1284 163.937C50.1391 163.964 50.1552 163.989 50.1758 164.011C50.1964 164.032 50.221 164.049 50.2481 164.06C50.2753 164.071 50.3045 164.077 50.334 164.077H51.5598C51.6195 164.076 51.6763 164.051 51.7185 164.009C51.7607 163.967 51.785 163.91 51.7866 163.851V156.988C51.785 156.929 51.7607 156.872 51.7185 156.83C51.6763 156.788 51.6195 156.763 51.5598 156.762H50.383C50.3278 156.769 50.277 156.796 50.2398 156.838C50.2027 156.879 50.1818 156.933 50.1808 156.988Z" fill="#808080"/>
<path d="M50.9598 156.823C48.1221 156.823 32.4195 157.963 31.9598 158.527C31.5001 159.09 31.5798 159.225 34.0988 159.096C36.6179 158.968 50.9598 156.823 50.9598 156.823Z" fill="#808080"/>
<path d="M51.5057 156.897C51.0215 156.701 68.9735 156.333 69.0347 157.215C69.096 158.098 54.0922 157.969 51.5057 156.897Z" fill="#808080"/>
<path d="M51.3628 183.433C49.665 187.532 48.8438 189.357 48.8438 189.357" stroke="#CBCBCB" stroke-width="1.58" stroke-linecap="round" stroke-linejoin="round"/>
<path d="M36.4219 191.189C36.4219 191.189 50.6106 190.117 51.7445 189.737C52.8783 189.357 54.0183 187.66 54.0183 187.66" stroke="#CBCBCB" stroke-width="1.58" stroke-linecap="round" stroke-linejoin="round"/>
<path d="M55.7461 183.751C55.7461 183.751 58.7064 190.809 58.9577 191.189" stroke="#CBCBCB" stroke-width="1.58" stroke-linecap="round" stroke-linejoin="round"/>
<path d="M61.7109 183.12C62.9735 184.633 68.0177 190.368 68.0177 190.368" stroke="#CBCBCB" stroke-width="1.58" stroke-linecap="round" stroke-linejoin="round"/>
<path d="M54.582 192.01C56.0346 192.01 67.9556 190.681 69.4695 190.056" stroke="#CBCBCB" stroke-width="1.58" stroke-linecap="round" stroke-linejoin="round"/>
<path d="M66.1224 169.812C64.7985 168.177 61.0169 166.602 61.0169 166.602C61.0169 166.602 57.0453 163.195 53.3188 163.067C49.5924 162.938 43.9843 163.257 42.4766 164.457C40.9688 165.658 39.0076 169.751 37.8063 170.382C36.605 171.013 27.0866 172.086 23.9914 172.147C20.8963 172.208 18.9472 172.398 17.5621 173.532C17.2405 173.788 16.9355 174.064 16.6488 174.359C16.1034 174.935 67.4524 171.454 66.1224 169.812Z" fill="#2C6787"/>
<path d="M44.2436 176.815C44.1149 175.173 43.8023 172.588 44.2436 171.834C44.6849 171.081 46.83 170.609 47.2039 170.695C47.5778 170.78 47.2039 175.486 47.2039 176.056C47.2039 176.626 44.2436 176.815 44.2436 176.815Z" fill="#27343D"/>
<path d="M49.1584 170.689C48.7845 172.717 49.1584 176.246 49.1584 176.246H51.3648V170.192L49.1584 170.689Z" fill="#27343D"/>
<path d="M52.6797 169.623C52.8636 171.645 52.8636 176.185 53.2436 176.558C53.6236 176.932 60.059 174.23 62.0142 174.353C63.9694 174.475 63.3994 174.163 63.3994 174.163C63.3994 174.163 62.5168 170.444 61.2542 169.31C59.9916 168.177 59.299 167.668 57.6626 167.797C56.0261 167.926 52.6797 169.623 52.6797 169.623Z" fill="#27343D"/>
<path d="M61.7109 167.778C62.2809 168.679 64.3587 172.612 64.61 173.801L67.5151 174.101C67.5151 174.101 67.5151 171.038 66.1238 169.812C64.9433 168.838 63.68 167.969 62.3483 167.214C62.1216 167.104 61.7109 167.778 61.7109 167.778Z" fill="#27343D"/>
<path d="M41.8676 68.6252C43.5041 72.0869 44.3192 77.638 52.336 78.0914C60.3528 78.5448 72.9173 78.7041 76.9196 77.5461C80.9218 76.3881 79.0157 73.7228 82.7483 72.5403C86.4809 71.3578 90.3054 74.9054 90.3054 71.2659C90.3054 67.6265 88.9447 64.4405 87.0325 63.6194C85.1202 62.7984 85.5738 59.5266 83.6615 57.1555C81.7492 54.7843 76.3067 52.5174 76.3067 52.5174C76.3067 52.5174 70.5699 47.6158 65.2009 47.4197C59.8318 47.2236 51.717 47.6893 49.5412 49.4232C47.3654 51.1572 44.5276 57.0636 42.7993 58.001C41.0709 58.9384 27.3173 60.4518 22.8554 60.5498C18.3934 60.6479 15.5741 60.9113 13.5699 62.5534C11.5657 64.1954 11.2041 64.9184 12.1112 65.286C15.6222 66.7695 19.3454 67.6897 23.1434 68.0125C28.5676 68.3617 41.8676 68.6252 41.8676 68.6252Z" fill="#FEFEFE"/>
<path d="M11.8019 69.0187C11.9123 65.7469 12.8806 63.2839 11.8019 58.1005C10.7232 52.917 10 43.8981 10 43.8981C10 43.8981 11.0603 42.6237 11.8019 43.6224C12.5435 44.6211 15.9942 55.037 16.0126 58.1005C16.031 61.1639 17.1955 73.9387 15.0074 77.3024C12.8193 80.6661 10.9132 81.1257 10.9132 79.7532C10.9132 78.3808 11.8019 69.0187 11.8019 69.0187Z" fill="#2C6787"/>
<path d="M52.7066 76.2119C51.3399 80.5008 47.6992 87.1363 47.6992 87.1363" stroke="#CBCBCB" stroke-width="2.28" stroke-linecap="round" stroke-linejoin="round"/>
<path d="M60.833 38.494C60.882 41.147 60.7594 46.9492 60.7227 48.3891C60.7226 48.4758 60.7567 48.559 60.8174 48.6209C60.8782 48.6828 60.9608 48.7183 61.0475 48.7199H62.8494C62.8923 48.7208 62.9349 48.7129 62.9747 48.6969C63.0145 48.6809 63.0507 48.657 63.081 48.6267C63.1113 48.5964 63.1352 48.5602 63.1512 48.5205C63.1673 48.4807 63.1751 48.4381 63.1743 48.3952V38.4879C63.1743 38.4018 63.1401 38.3192 63.0791 38.2583C63.0182 38.1974 62.9356 38.1631 62.8494 38.1631H61.1578C61.1144 38.1623 61.0713 38.1703 61.0311 38.1867C60.9908 38.2031 60.9544 38.2275 60.924 38.2585C60.8936 38.2895 60.8698 38.3264 60.8542 38.3669C60.8385 38.4074 60.8313 38.4506 60.833 38.494Z" fill="#808080"/>
<path d="M61.9492 38.2559C57.855 38.2559 35.1776 39.8918 34.5402 40.7067C33.9027 41.5215 33.9947 41.7054 37.6415 41.5277C41.2882 41.35 61.9492 38.2559 61.9492 38.2559Z" fill="#808080"/>
<path d="M62.7324 38.3596C62.0398 38.0716 87.9595 37.5386 88.0453 38.813C88.1311 40.0874 66.465 39.9036 62.7324 38.3596Z" fill="#808080"/>
<path d="M62.5156 76.665C60.064 82.5837 58.875 85.2428 58.875 85.2428" stroke="#CBCBCB" stroke-width="2.28" stroke-linecap="round" stroke-linejoin="round"/>
<path d="M40.957 87.8652C40.957 87.8652 61.4464 86.3151 63.0828 85.7698C64.7193 85.2245 66.3619 82.7676 66.3619 82.7676" stroke="#CBCBCB" stroke-width="2.28" stroke-linecap="round" stroke-linejoin="round"/>
<path d="M68.8203 77.125C68.8203 77.125 73.1106 87.3203 73.4661 87.8656" stroke="#CBCBCB" stroke-width="2.28" stroke-linecap="round" stroke-linejoin="round"/>
<path d="M77.4766 76.2119C79.3153 78.3992 86.5843 86.6829 86.5843 86.6829" stroke="#CBCBCB" stroke-width="2.28" stroke-linecap="round" stroke-linejoin="round"/>
<path d="M67.1836 89.0423C69.2797 89.0423 86.49 87.1307 88.672 86.2178" stroke="#CBCBCB" stroke-width="2.28" stroke-linecap="round" stroke-linejoin="round"/>
<path d="M83.8493 57.0041C81.9371 54.6391 76.4945 52.366 76.4945 52.366C76.4945 52.366 70.7577 47.4644 65.3887 47.2683C60.0197 47.0723 51.9048 47.5379 49.729 49.2719C47.5532 51.0058 44.7155 56.9122 42.9871 57.8496C41.2587 58.7871 27.5051 60.3004 23.0432 60.3985C18.5813 60.4965 15.7619 60.76 13.7577 62.402C13.2943 62.7706 12.8542 63.1676 12.44 63.5906C11.6432 64.3994 85.7616 59.3753 83.8493 57.0041Z" fill="#2C6787"/>
<path d="M52.2555 67.1078C52.0717 64.7428 51.6426 60.9809 52.2555 59.9209C52.8684 58.8609 55.9881 58.187 56.5459 58.2789C57.1036 58.3708 56.5459 65.1962 56.5459 66.0172C56.5459 66.8383 52.2555 67.1078 52.2555 67.1078Z" fill="#27343D"/>
<path d="M59.3518 58.2718C58.8063 61.1944 59.3518 66.292 59.3518 66.292H62.5144V57.5488L59.3518 58.2718Z" fill="#27343D"/>
<path d="M64.4492 56.7341C64.725 59.6444 64.725 66.2003 65.2705 66.7456C65.816 67.2909 75.1076 63.3757 77.927 63.5596C80.7463 63.7434 79.9312 63.2838 79.9312 63.2838C79.9312 63.2838 78.6563 57.9166 76.836 56.2746C75.0157 54.6325 74.0105 53.9096 71.6447 54.0934C69.2789 54.2772 64.4492 56.7341 64.4492 56.7341Z" fill="#27343D"/>
<path d="M77.4766 54.0628C78.2979 55.3678 81.3011 61.0476 81.6627 62.757L85.8549 63.1981C85.8549 63.1981 85.8856 58.7867 83.8508 57.0037C82.1453 55.5973 80.3201 54.3426 78.3959 53.254C78.0649 53.0947 77.4766 54.0628 77.4766 54.0628Z" fill="#27343D"/>
<path d="M143.147 79.9495C163.532 79.9495 180.056 70.7435 180.056 59.3874C180.056 48.0312 163.532 38.8252 143.147 38.8252C122.763 38.8252 106.238 48.0312 106.238 59.3874C106.238 70.7435 122.763 79.9495 143.147 79.9495Z" fill="#BCCBD3"/>
<path d="M100.697 68.7865C99.7958 68.1738 104.858 68.3331 105.87 65.7904C106.324 64.5343 106.942 63.3436 107.708 62.249C108.199 63.3805 108.777 64.4724 109.437 65.5147C110.681 67.5979 106.145 72.4995 100.697 68.7865Z" fill="#BCCBD3"/>
<path d="M122.639 51.8637C123.804 50.6383 124.582 51.251 127.04 51.349C129.498 51.447 130.062 52.121 130.791 52.8133C131.52 53.5057 131.484 55.2641 131.484 55.7053C131.4 56.3399 131.224 56.959 130.963 57.5434C130.705 58.2357 131.312 58.5359 130.963 59.6572C130.613 60.7784 129.627 63.6642 129.283 64.8712C128.94 66.0783 127.733 65.5636 126.783 65.5207C125.833 65.4778 124.497 64.2953 124.239 64.3566C123.982 64.4179 122.168 65.3492 121.175 64.3566C120.182 63.364 118.852 61.722 118.723 60.5211C118.594 59.3202 118.895 58.9219 118.98 58.1071C119.066 57.2922 122.639 51.8637 122.639 51.8637Z" fill="#BB886A"/>
<path d="M121.473 57.1815V55.7907L123.116 54.841C123.116 54.841 122.73 53.3337 123.116 53.0029C123.434 52.7515 123.806 52.5779 124.203 52.4959C124.6 52.414 125.01 52.4261 125.402 52.5311C126.726 52.9428 128.01 53.4739 129.239 54.118C129.41 54.3324 130.103 53.1254 130.464 53.4318C130.826 53.7381 130.765 54.8103 131.114 55.1535C131.464 55.4966 132.579 56.0174 133.265 55.5823L133.958 55.1535C133.511 55.1842 133.062 55.1553 132.622 55.0677C132.45 54.939 133.486 54.1609 133.572 53.4747L133.658 52.7823C133.247 52.9489 132.808 53.0363 132.364 53.0396C131.972 52.9539 132.279 52.4269 132.622 52.1329C133.043 51.9439 133.497 51.8418 133.958 51.8326C133.958 51.8326 132.622 50.7972 132.407 50.6072C132.113 50.3968 131.794 50.2239 131.457 50.0926L132.364 49.5718C132.364 49.5718 130.851 49.6147 130.336 49.5718C129.736 49.4694 129.144 49.3261 128.564 49.1429L129.557 48.3648C129.13 48.5828 128.658 48.7021 128.178 48.714L127.314 48.7569L128.178 48.1074C128.178 48.1074 126.953 48.3648 126.499 48.4934C125.666 48.8335 124.753 48.925 123.87 48.7569C122.484 48.4934 121.97 48.2361 121.148 48.9713C120.327 49.7066 118.648 51.4711 118.476 52.0348C118.304 52.5985 118.372 57.2121 118.66 57.6839C118.948 58.1557 119.886 58.1618 120.376 57.6839C120.67 57.3906 121.059 57.2123 121.473 57.1815Z" fill="#4F3924"/>
<path d="M121.234 57.4145C120.823 56.4587 120.137 55.5028 119.579 55.6744C119.021 55.846 118.126 57.8311 118.929 58.8053C119.732 59.7795 119.836 59.7427 120.253 59.418C120.753 58.8493 121.091 58.1576 121.234 57.4145Z" fill="#B1826B"/>
<path d="M166.767 57.519C166.767 61.8079 165.265 65.576 161.625 65.576C160.65 65.576 156.789 64.2464 155.33 61.8998C154.619 60.7663 153.773 58.9098 153.773 57.5129C153.773 53.224 156.17 49.75 159.811 49.75C163.451 49.75 166.767 53.2301 166.767 57.519Z" fill="#861D24"/>
<path d="M155.105 54.8844C155.105 54.8844 158.17 53.8 159.813 54.6945C160.32 55.0056 160.749 55.4284 161.068 55.9307C161.386 56.4329 161.586 57.0014 161.651 57.5926C161.439 57.8736 161.159 58.0963 160.838 58.2398C160.516 58.3834 160.163 58.4432 159.813 58.4136C157.974 58.4136 156.356 58.0582 155.669 56.6245C155.437 56.0598 155.248 55.4781 155.105 54.8844Z" fill="black"/>
<path d="M162.895 57.6355C162.779 57.3292 163.508 54.7436 164.121 54.3453C164.354 54.1983 165.059 53.6101 165.439 53.99C166.036 54.8264 166.356 55.8295 166.352 56.8574C165.954 57.6784 163.03 57.9419 162.895 57.6355Z" fill="black"/>
<path d="M156.207 55.3866C156.207 55.3866 158.23 54.6697 159.321 55.264C159.658 55.4691 159.943 55.7485 160.156 56.0809C160.368 56.4133 160.502 56.7898 160.546 57.1818C160.406 57.3699 160.219 57.5189 160.005 57.6143C159.79 57.7098 159.555 57.7486 159.321 57.7271C158.095 57.7271 157.034 57.4943 156.581 56.5446C156.427 56.1685 156.302 55.7814 156.207 55.3866Z" fill="white"/>
<path d="M163.438 57.0649C163.359 56.8566 163.843 55.0736 164.296 54.804C164.456 54.706 164.909 54.3016 165.204 54.559C165.606 55.1377 165.821 55.8268 165.816 56.5319C165.541 57.0955 163.518 57.2732 163.438 57.0649Z" fill="white"/>
<path d="M138.812 58.4131H147.025" stroke="white" stroke-width="2" stroke-miterlimit="10" stroke-linecap="round"/>
<path d="M138.812 61.2744H147.025" stroke="white" stroke-width="2" stroke-miterlimit="10" stroke-linecap="round"/>
<path d="M301.061 163.942C300.148 165.872 299.688 168.973 295.214 169.23C290.74 169.487 283.722 169.585 281.485 168.924C279.248 168.262 280.315 166.785 278.231 166.123C276.147 165.462 274.008 167.447 274.008 165.413C274.008 163.379 274.768 161.602 275.847 161.124C276.925 160.646 276.656 158.838 277.728 157.515C278.801 156.192 281.847 154.923 281.847 154.923C281.847 154.923 285.052 152.178 288.049 152.074C291.047 151.97 295.576 152.227 296.796 153.196C298.015 154.164 299.597 157.484 300.559 157.975C301.521 158.465 309.207 159.347 311.695 159.396C314.184 159.445 315.765 159.598 316.887 160.517C318.008 161.436 318.21 161.835 317.702 162.043C315.75 162.866 313.683 163.381 311.573 163.569C308.484 163.771 301.061 163.942 301.061 163.942Z" fill="#FEFEFE"/>
<path d="M317.952 164.243C317.891 162.404 317.339 161.044 317.952 158.116C318.565 155.187 318.957 150.181 318.957 150.181C318.957 150.181 318.344 149.47 317.952 150.028C317.56 150.586 315.611 156.406 315.598 158.116C315.586 159.825 314.943 166.957 316.162 168.838C317.382 170.719 318.448 170.976 318.448 170.216C318.448 169.457 317.952 164.243 317.952 164.243Z" fill="#2C6787"/>
<path d="M295.102 168.262C295.885 170.369 296.821 172.417 297.902 174.389" stroke="#CBCBCB" stroke-width="1.27" stroke-linecap="round" stroke-linejoin="round"/>
<path d="M290.567 147.191C290.567 148.68 290.61 151.915 290.628 152.706C290.628 152.73 290.623 152.754 290.614 152.776C290.605 152.798 290.591 152.819 290.574 152.836C290.557 152.853 290.537 152.866 290.514 152.875C290.492 152.885 290.468 152.889 290.444 152.889H289.414C289.39 152.89 289.366 152.886 289.343 152.877C289.32 152.868 289.3 152.855 289.283 152.837C289.265 152.82 289.252 152.8 289.243 152.777C289.234 152.754 289.23 152.73 289.231 152.706V147.191C289.231 147.167 289.235 147.143 289.245 147.121C289.254 147.099 289.267 147.078 289.284 147.061C289.301 147.044 289.322 147.031 289.344 147.021C289.366 147.012 289.39 147.008 289.414 147.008H290.358C290.384 147.004 290.411 147.006 290.436 147.014C290.461 147.021 290.485 147.034 290.504 147.052C290.524 147.069 290.54 147.091 290.551 147.115C290.562 147.139 290.567 147.165 290.567 147.191Z" fill="#808080"/>
<path d="M289.941 147.062C292.228 147.062 304.89 147.975 305.264 148.435C305.638 148.894 305.57 148.993 303.536 148.894C301.501 148.796 289.941 147.062 289.941 147.062Z" fill="#808080"/>
<path d="M289.501 147.118C289.893 146.958 275.404 146.664 275.367 147.375C275.33 148.086 287.417 147.982 289.501 147.118Z" fill="#808080"/>
<path d="M289.609 168.514C290.982 171.822 291.644 173.293 291.644 173.293" stroke="#CBCBCB" stroke-width="1.27" stroke-linecap="round" stroke-linejoin="round"/>
<path d="M301.671 174.799C301.671 174.799 290.228 173.935 289.315 173.629C288.402 173.323 287.477 171.95 287.477 171.95" stroke="#CBCBCB" stroke-width="1.27" stroke-linecap="round" stroke-linejoin="round"/>
<path d="M286.104 168.771C286.104 168.771 283.714 174.462 283.512 174.769" stroke="#CBCBCB" stroke-width="1.27" stroke-linecap="round" stroke-linejoin="round"/>
<path d="M281.268 168.262C280.257 169.487 276.188 174.107 276.188 174.107" stroke="#CBCBCB" stroke-width="1.27" stroke-linecap="round" stroke-linejoin="round"/>
<path d="M287.016 175.413C285.846 175.413 276.235 174.346 275.016 173.838" stroke="#CBCBCB" stroke-width="1.27" stroke-linecap="round" stroke-linejoin="round"/>
<path d="M277.716 157.534C278.782 156.21 281.835 154.942 281.835 154.942C281.835 154.942 285.04 152.197 288.037 152.093C291.034 151.989 295.564 152.246 296.783 153.214C298.003 154.182 299.584 157.503 300.546 157.993C301.509 158.483 309.195 159.366 311.683 159.415C314.171 159.464 315.753 159.617 316.874 160.536C317.133 160.741 317.378 160.962 317.61 161.198C318.051 161.663 276.643 158.869 277.716 157.534Z" fill="#2C6787"/>
<path d="M295.359 163.158C295.463 161.835 295.714 159.752 295.359 159.145C295.003 158.539 293.275 158.177 292.968 158.226C292.662 158.275 292.968 162.092 292.968 162.552C292.968 163.011 295.359 163.158 295.359 163.158Z" fill="#27343D"/>
<path d="M291.393 158.257C291.555 159.745 291.555 161.247 291.393 162.736H289.609V157.834L291.393 158.257Z" fill="#27343D"/>
<path d="M288.542 157.38C288.389 159.01 288.389 162.668 288.083 162.974C287.776 163.281 282.567 161.093 281.016 161.198C279.465 161.302 279.894 161.044 279.894 161.044C279.894 161.044 280.611 158.042 281.629 157.129C282.646 156.216 283.204 155.806 284.528 155.904C285.852 156.002 288.542 157.38 288.542 157.38Z" fill="#27343D"/>
<path d="M281.27 155.892C280.817 156.621 279.137 159.794 278.935 160.75L276.594 160.989C276.594 160.989 276.594 158.538 277.715 157.534C278.673 156.746 279.698 156.044 280.78 155.438C280.945 155.346 281.27 155.892 281.27 155.892Z" fill="#27343D"/>
<path d="M233.003 160.744C249.02 160.744 262.005 153.511 262.005 144.588C262.005 135.664 249.02 128.431 233.003 128.431C216.985 128.431 204 135.664 204 144.588C204 153.511 216.985 160.744 233.003 160.744Z" fill="#BCCBD3"/>
<path d="M266.365 151.97C267.07 151.486 263.092 151.615 262.295 149.618C261.944 148.633 261.466 147.698 260.874 146.836C260.487 147.726 260.032 148.584 259.513 149.403C258.514 151.045 262.087 154.893 266.365 151.97Z" fill="#BCCBD3"/>
<path d="M249.117 138.65C248.203 137.67 247.59 138.142 245.66 138.246C243.729 138.35 243.288 138.859 242.712 139.398C242.136 139.937 242.172 141.328 242.172 141.665C242.237 142.168 242.373 142.659 242.577 143.123C242.779 143.668 242.307 143.901 242.577 144.783C242.847 145.666 243.625 147.933 243.901 148.882C244.177 149.832 245.127 149.428 245.862 149.391C246.598 149.354 247.658 148.441 247.866 148.478C248.075 148.515 249.49 149.256 250.275 148.478C251.059 147.7 252.114 146.407 252.199 145.463C252.235 144.824 252.166 144.182 251.997 143.564C251.93 142.939 249.117 138.65 249.117 138.65Z" fill="#BB886A"/>
<path d="M250.034 142.841V141.757L248.741 141.015C248.741 141.015 249.047 139.827 248.741 139.594C248.492 139.394 248.2 139.256 247.888 139.191C247.576 139.126 247.253 139.136 246.945 139.22C245.904 139.535 244.895 139.945 243.93 140.446C243.795 140.611 243.255 139.667 242.949 139.9C242.642 140.133 242.71 140.985 242.44 141.26C242.171 141.536 241.288 141.934 240.742 141.597L240.203 141.26C240.554 141.284 240.907 141.259 241.251 141.187C241.392 141.089 240.577 140.476 240.51 139.962L240.442 139.416C240.765 139.55 241.11 139.621 241.46 139.625C241.76 139.557 241.527 139.116 241.251 138.908C240.921 138.76 240.565 138.681 240.203 138.675C240.203 138.675 241.251 137.86 241.429 137.688C241.661 137.525 241.912 137.389 242.177 137.284L241.466 136.88C241.466 136.88 242.649 136.88 243.053 136.88C243.524 136.797 243.989 136.683 244.444 136.537L243.666 135.924C244.003 136.094 244.374 136.186 244.751 136.193L245.431 136.23L244.751 135.722C244.751 135.722 245.731 135.924 246.075 136.022C246.728 136.292 247.446 136.364 248.14 136.23C249.225 136.022 249.63 135.82 250.273 136.396C250.917 136.972 252.241 138.362 252.375 138.804C252.51 139.245 252.461 142.866 252.228 143.239C252.141 143.329 252.037 143.4 251.921 143.449C251.806 143.497 251.682 143.522 251.557 143.522C251.432 143.522 251.308 143.497 251.193 143.449C251.078 143.4 250.973 143.329 250.886 143.239C250.658 143.011 250.356 142.87 250.034 142.841Z" fill="#4F3924"/>
<path d="M250.227 143.037C250.545 142.284 251.085 141.536 251.526 141.671C251.967 141.806 252.666 143.362 252.035 144.122C251.403 144.882 251.324 144.851 250.993 144.618C250.601 144.169 250.337 143.623 250.227 143.037Z" fill="#B1826B"/>
<path d="M214.445 143.117C214.445 146.487 215.622 149.446 218.484 149.446C219.25 149.446 222.284 148.404 223.43 146.566C224.114 145.533 224.535 144.349 224.656 143.117C224.656 139.753 222.775 137.021 219.919 137.021C217.062 137.021 214.445 139.753 214.445 143.117Z" fill="#861D24"/>
<path d="M223.605 141.052C223.605 141.052 221.203 140.201 219.928 140.899C219.532 141.145 219.198 141.479 218.95 141.874C218.703 142.269 218.549 142.715 218.5 143.178C218.665 143.396 218.883 143.57 219.132 143.682C219.382 143.794 219.655 143.842 219.928 143.822C221.368 143.822 222.643 143.546 223.183 142.419C223.359 141.975 223.5 141.518 223.605 141.052Z" fill="black"/>
<path d="M217.484 143.215C217.576 142.97 217.024 140.936 216.503 140.623C216.319 140.513 215.768 140.047 215.467 140.347C214.995 141.004 214.744 141.794 214.75 142.602C215.081 143.245 217.392 143.454 217.484 143.215Z" fill="black"/>
<path d="M222.743 141.444C222.743 141.444 221.15 140.881 220.292 141.346C220.03 141.509 219.809 141.73 219.646 141.991C219.482 142.252 219.38 142.547 219.348 142.854C219.457 142.998 219.6 143.113 219.765 143.188C219.93 143.263 220.111 143.295 220.292 143.283C221.248 143.283 222.093 143.099 222.449 142.351C222.568 142.056 222.667 141.753 222.743 141.444Z" fill="white"/>
<path d="M217.053 142.761C217.121 142.596 216.735 141.199 216.379 140.984C216.257 140.905 215.877 140.592 215.668 140.795C215.346 141.247 215.173 141.789 215.172 142.345C215.405 142.786 216.992 142.939 217.053 142.761Z" fill="white"/>
<path d="M236.411 143.821H229.957" stroke="white" stroke-width="1.57" stroke-miterlimit="10" stroke-linecap="round"/>
<path d="M236.411 146.07H229.957" stroke="white" stroke-width="1.57" stroke-miterlimit="10" stroke-linecap="round"/>
</g>
<defs>
<clipPath id="clip0_1020_702">
<rect width="320" height="252" fill="white" transform="translate(2)"/>
</clipPath>
</defs>
</svg>
