<svg width="1280" height="315" viewBox="0 0 1280 315" fill="none" xmlns="http://www.w3.org/2000/svg">
<path d="M892.061 82.2602C888.511 76.2602 885.621 75.1502 886.951 72.7102C888.281 70.2702 891.621 68.6002 897.281 63.0402C902.941 57.4802 907.281 54.7102 911.731 53.8702C916.655 53.0797 921.634 52.6917 926.621 52.7102C930.841 52.7102 931.731 51.4802 931.061 54.9302C930.391 58.3802 929.511 57.2602 929.841 64.6002C930.171 71.9402 930.731 71.7102 930.171 74.4802C929.611 77.2502 929.621 82.6002 917.951 83.4802C906.281 84.3602 898.511 86.1502 895.391 84.4802C892.271 82.8102 892.061 82.2602 892.061 82.2602Z" fill="#A47261"/>
<path d="M891.062 78.71C888.842 75.71 888.172 76.71 888.282 74.6C888.392 72.49 887.622 72.04 890.172 71.26C892.722 70.48 894.512 68.93 896.842 70.43C899.172 71.93 899.732 72.04 901.392 74.82C903.052 77.6 904.062 77.15 903.842 79.71C903.622 82.27 899.392 84.26 896.842 83.37C894.292 82.48 892.842 82.48 892.172 80.93C891.867 80.159 891.496 79.4161 891.062 78.71Z" fill="#2E2420"/>
<path d="M919.621 63.4803C919.621 63.4803 922.281 62.6003 926.001 66.0003C929.721 69.4003 929.441 71.0003 929.331 72.1103C929.221 73.2203 929.111 72.5203 926.891 69.7603C924.671 67.0003 926.001 67.8903 923.221 66.1103C921.919 65.383 920.71 64.4998 919.621 63.4803Z" fill="#93665A"/>
<path d="M907.622 62.6C908.342 62.37 908.842 65.21 912.282 68.07C914.288 69.9182 916.551 71.4644 919.002 72.66C922.002 74.26 922.562 74.37 922.892 75.04C923.222 75.71 920.782 75.37 919.112 75.04C917.442 74.71 917.002 74.94 913.332 72.66C909.662 70.38 907.562 70.26 907.672 67.48C907.782 64.7 906.892 62.82 907.622 62.6Z" fill="#93665A"/>
<path d="M922.25 54.6702C923.84 54.4172 925.451 54.3167 927.06 54.3702C929.06 54.5202 929.28 53.7802 929.06 55.0402C928.71 56.3493 928.486 57.6886 928.39 59.0402C928.39 60.7402 928.28 60.8102 928.28 61.7402C928.28 62.6702 927.28 59.5202 925.02 57.7402C923.888 56.926 922.944 55.8793 922.25 54.6702Z" fill="#93665A"/>
<path d="M886.322 125.56C887.512 129.19 886.252 128.94 888.322 130.95C890.392 132.96 896.762 134.89 898.322 135.78C899.882 136.67 897.322 145.19 902.252 147.85C907.182 150.51 907.952 146.85 908.842 151.78C909.732 156.71 913.582 173.26 911.952 177.48C910.322 181.7 899.652 192.37 895.882 196.15C892.112 199.93 890.392 197.93 884.172 212.6C877.952 227.27 876.802 226.42 872.932 231.29C869.062 236.16 875.432 232.89 880.622 233.93C885.812 234.97 882.732 235.85 892.042 236.74C901.352 237.63 900.472 238.22 907.432 238.08C914.392 237.94 912.322 239.41 919.882 238.82C927.442 238.23 933.952 240.05 933.062 231.29C932.172 222.53 929.372 213.04 933.142 199.11C936.912 185.18 943.142 159.11 944.022 151.7C944.902 144.29 939.282 118.13 937.512 116.4C935.742 114.67 886.322 125.56 886.322 125.56Z" fill="#3F312E"/>
<path d="M808.617 124.45C809.617 121.45 809.507 118.04 812.907 117.54C816.307 117.04 849.907 118.22 854.537 122.22C859.167 126.22 858.687 147.56 859.207 152.89C859.727 158.22 857.797 163.56 858.097 169.48C858.397 175.4 856.607 173.78 859.207 184.3C861.807 194.82 866.687 210.22 865.647 220C864.607 229.78 862.247 230.82 867.427 244.45C872.607 258.08 874.687 258.08 875.277 265.45C875.867 272.82 879.727 275.08 870.837 274.94C861.947 274.8 858.987 275.94 848.757 275.68C838.527 275.42 843.427 274.05 828.757 273.75C814.087 273.45 797.357 275.97 791.137 274.49C784.917 273.01 782.837 277.49 784.907 270.05C786.977 262.61 786.687 253.9 788.317 247.97C789.947 242.04 791.577 223.23 795.137 215.53C798.697 207.83 798.387 210.79 800.017 199.97C801.647 189.15 801.507 188.42 802.097 183.38C802.687 178.34 808.617 124.45 808.617 124.45Z" fill="#523E3B"/>
<path d="M816.758 146.74C819.578 145.19 819.138 145.74 822.018 141.93C824.898 138.12 824.168 139.41 825.278 136.82C826.388 134.23 828.018 139.71 825.278 142.45C822.538 145.19 821.358 146.74 819.058 146.74H816.758Z" fill="#493736"/>
<path d="M853.508 160.93C853.948 168.93 852.898 164.48 852.698 177.6C852.498 190.72 852.838 189.37 852.168 192.71L851.508 196.04C851.508 196.04 853.168 197.82 854.278 193.54C855.388 189.26 855.168 188.82 855.618 180.15C856.068 171.48 853.508 160.93 853.508 160.93Z" fill="#493736"/>
<path d="M835.398 226.07C838.278 225.84 838.168 227.07 841.168 223.29L844.168 219.51C846.228 220.095 848.372 220.322 850.508 220.18C853.508 219.84 853.728 215.4 854.398 213.73C854.531 213.202 854.789 212.715 855.151 212.309C855.514 211.903 855.969 211.591 856.478 211.4C857.618 210.73 857.048 210.18 858.558 210.18C860.068 210.18 859.828 209.62 858.558 211.07C857.288 212.52 855.618 213.29 854.948 215.4C854.414 217.117 853.745 218.788 852.948 220.4C852.388 221.51 846.608 221.4 845.608 221.4C844.608 221.4 844.938 220.73 842.828 223.29C840.718 225.85 841.718 226.73 839.048 227.07C836.378 227.41 835.398 226.07 835.398 226.07Z" fill="#493736"/>
<path d="M889.055 142.84C894.835 144.15 896.055 146.28 904.315 142.84C912.575 139.4 914.785 138.26 914.385 137.2C913.695 135.35 913.505 138.37 909.795 138.52C906.085 138.67 906.025 139.52 901.795 138.08C897.565 136.64 896.045 136.02 892.935 137.2C889.825 138.38 889.055 142.84 889.055 142.84Z" fill="#2E2420"/>
<path d="M825.359 169.34C822.539 178.08 821.599 178.67 821.779 199.41C821.959 220.15 818.779 213.63 821.779 228.74C824.779 243.85 834.619 274 834.619 274C834.619 274 833.509 265.93 831.619 256.45C829.729 246.97 828.059 240.89 826.619 231.26C825.179 221.63 823.959 225.04 824.989 211.71C826.019 198.38 825.359 169.34 825.359 169.34Z" fill="#493736"/>
<path d="M834.709 196.52C835.599 205.8 835.459 214.69 834.709 226.98C833.959 239.27 833.229 237.5 834.709 250.1C836.189 262.7 838.589 274.4 838.589 274.4L836.809 274.18C836.376 273.012 836.123 271.784 836.059 270.54C835.899 265.35 833.059 251.72 832.489 244.47C831.919 237.22 830.859 227.47 832.049 220.47C833.239 213.47 832.269 201.35 833.269 197.35C833.968 194.321 834.506 191.256 834.879 188.17L834.709 196.52Z" fill="#493736"/>
<path d="M893.507 134.52C894.247 139.26 892.507 140.74 891.277 145.52C890.047 150.3 890.687 147.15 889.647 156.04C888.607 164.93 889.797 166.12 886.837 165.82C883.877 165.52 881.507 166.71 874.987 163.6C868.467 160.49 867.277 158.26 864.317 157.67C861.357 157.08 862.387 158.12 859.207 156.78C856.027 155.44 853.507 155.45 852.757 152.34C852.007 149.23 851.577 142.41 854.097 137.67C856.617 132.93 854.187 124.47 855.577 123.6C856.967 122.73 858.987 123.45 863.427 127.01C867.867 130.57 866.687 129.38 869.057 131.75C871.427 134.12 866.987 134.41 875.577 134.12C884.167 133.83 893.507 134.52 893.507 134.52Z" fill="#664A41"/>
<path d="M893.507 134.52C894.247 139.26 892.507 140.74 891.277 145.52C890.047 150.3 890.687 147.15 889.647 156.04C888.607 164.93 889.797 166.12 886.837 165.82C883.877 165.52 881.507 166.71 874.987 163.6C868.467 160.49 867.277 158.26 864.317 157.67C861.357 157.08 862.387 158.12 859.207 156.78C856.027 155.44 853.507 155.45 852.757 152.34C852.007 149.23 851.577 142.41 854.097 137.67C856.617 132.93 866.687 129.38 869.097 131.75C871.507 134.12 867.027 134.41 875.617 134.12C884.207 133.83 893.507 134.52 893.507 134.52Z" fill="#563E38"/>
<path d="M815.729 117.93C815.429 112.45 817.799 110.22 820.169 106.93C822.539 103.64 817.649 99.9299 824.019 91.2199C830.389 82.5099 834.249 80.9999 837.799 78.3699C841.349 75.7399 841.059 73.6299 843.579 73.6299C846.099 73.6299 849.509 78.3699 850.099 83.2599C850.689 88.1499 848.619 87.1099 850.839 91.4099C853.059 95.7099 853.649 94.6699 853.359 99.4099C853.069 104.15 850.539 102.82 852.469 107.85C854.399 112.88 856.469 111.85 856.469 116.74C856.469 121.63 856.909 122.22 857.799 126.37C858.689 130.52 860.019 131.85 858.539 136C857.059 140.15 857.359 143.56 856.019 145.34C854.679 147.12 852.759 148.6 852.469 145.34C852.179 142.08 853.209 140.15 850.839 137.63C848.469 135.11 847.579 134.22 841.949 132.74C836.319 131.26 838.389 129.48 835.579 130.67C832.769 131.86 830.249 134.82 825.209 131.41C820.169 128 817.509 128.3 816.619 123.11L815.729 117.93Z" fill="#A47261"/>
<path d="M816.758 114.23C818.758 110.52 816.988 110.15 820.508 108.97C824.028 107.79 828.098 106.22 834.248 109.04C840.398 111.86 843.968 113.28 844.628 116.4C844.982 117.746 845.176 119.129 845.208 120.52C845.208 120.52 843.058 113.71 838.388 112.37C833.718 111.03 829.998 109.11 826.168 110C822.338 110.89 820.288 110.93 819.278 112.89C818.268 114.85 817.948 116.08 818.388 116.74C818.828 117.4 816.758 114.23 816.758 114.23Z" fill="#93665A"/>
<path d="M819.278 122.82C818.838 119.56 816.618 116.6 819.278 112.89C821.938 109.18 821.358 108.45 825.358 108.3C829.358 108.15 829.798 108.6 834.838 111.11C839.878 113.62 842.538 111.85 843.728 116.6C844.918 121.35 845.208 121.93 842.728 123.85C840.248 125.77 840.948 127.06 836.208 128.1C831.468 129.14 827.098 130.26 825.878 128.93C824.658 127.6 825.318 126.26 823.318 125.37C821.877 124.68 820.521 123.824 819.278 122.82Z" fill="#2E2420"/>
<path d="M827.728 116.4C828.325 116.4 828.808 115.916 828.808 115.32C828.808 114.723 828.325 114.24 827.728 114.24C827.132 114.24 826.648 114.723 826.648 115.32C826.648 115.916 827.132 116.4 827.728 116.4Z" fill="#EAAF93"/>
<path d="M838.055 117.54C838.883 117.54 839.555 116.868 839.555 116.04C839.555 115.212 838.883 114.54 838.055 114.54C837.226 114.54 836.555 115.212 836.555 116.04C836.555 116.868 837.226 117.54 838.055 117.54Z" fill="#EAAF93"/>
<path d="M812.098 123.22C813.098 129.377 813.52 135.614 813.358 141.85C813.208 148.15 811.498 152.73 810.998 154.95C810.726 155.983 810.568 157.043 810.528 158.11C810.528 158.11 814.098 154.45 814.838 150.67C815.578 146.89 816.568 146.67 815.698 140.46C814.828 134.25 815.508 127.46 814.538 123.71C813.568 119.96 812.468 117.51 811.388 118.06C810.458 118.54 809.728 120.06 809.388 121.45C809.198 122.45 812.098 123.22 812.098 123.22Z" fill="#493736"/>
<path d="M788.32 182.37C789.06 178.52 791.43 181.19 791.32 172.74C791.21 164.29 788.37 164 791.32 155.85C794.27 147.7 793.24 141.93 797.54 135.41C801.84 128.89 801.39 125.34 805.09 123.26C808.79 121.18 810.87 120.89 812.35 122.37C813.83 123.85 814.87 132.89 814.57 137.19C814.521 140.578 814.125 143.952 813.39 147.26C812.2 153.34 810.87 153.34 810.57 157.93C810.27 162.52 809.57 161.34 811.02 166.67C812.47 172 812.65 169.67 810.57 172.3C808.49 174.93 806.03 181.3 801.49 183.56C796.95 185.82 796.65 186.97 793.09 185.48C789.53 183.99 788.32 182.37 788.32 182.37Z" fill="#664A41"/>
<path d="M789.906 181.85C791.003 180.383 792.358 179.128 793.906 178.15C796.606 176.15 796.826 175.63 800.676 174.22C804.526 172.81 805.276 172.41 808.016 171.52C810.756 170.63 811.916 170.02 811.786 170.52C811.656 171.02 804.646 182.69 800.016 184.27C795.386 185.85 795.826 186.52 793.456 185.07C791.086 183.62 790.166 183.4 790.126 182.52C790.086 181.64 789.906 181.85 789.906 181.85Z" fill="#2E2420"/>
<path d="M812.248 172.67C815.148 173.81 815.428 172.37 817.138 177.48C818.848 182.59 820.388 184.82 818.688 185.04C816.988 185.26 816.048 186.04 814.588 182.74C813.128 179.44 812.838 178.97 812.838 178.97C812.838 178.97 816.618 186.37 817.358 189.34C818.098 192.31 814.618 189.93 810.988 185.34L809.798 182.74C809.798 182.74 813.278 190.37 814.618 191.41C814.618 191.41 814.838 194.97 812.318 192.89C809.798 190.81 806.758 185.41 806.098 184.74C805.438 184.07 803.508 178.74 803.508 178.13C803.508 177.52 806.758 170.52 812.248 172.67Z" fill="#2E2420"/>
<path d="M810.605 118.76C811.475 120.38 819.605 133.48 824.905 138.08C830.205 142.68 832.685 145.19 837.445 149.93C842.205 154.67 844.445 154.93 849.355 158.93C852.524 161.408 855.444 164.187 858.076 167.23C860.756 170.18 863.135 167.07 863.135 163.37C863.135 159.67 863.875 156.85 860.615 154.78C857.355 152.71 854.885 147.2 852.185 144.48C849.485 141.76 846.475 137.3 842.185 134.78C837.895 132.26 826.955 132.26 823.105 127.52C819.255 122.78 816.435 119.52 815.695 117.89C814.955 116.26 810.775 118 810.605 118.76Z" fill="#483834"/>
<path d="M819.297 170.36C822.387 164.93 825.487 158.28 829.297 151.93C833.107 145.58 832.407 144.71 835.407 142.37C838.407 140.03 846.297 141.45 848.187 144.52C850.077 147.59 851.297 152.97 848.187 155.78C845.077 158.59 842.407 159.48 838.527 164.04C835.925 167.072 833.517 170.265 831.317 173.6C829.617 176 819.297 170.36 819.297 170.36Z" fill="#857779"/>
<path d="M836.555 147.26C839.725 143.56 841.935 138.97 844.605 137.78C847.275 136.59 846.095 137.04 848.605 140.78C851.115 144.52 854.825 143.78 851.125 148.04C847.425 152.3 843.505 155.6 842.205 154.71C840.905 153.82 836.555 147.26 836.555 147.26Z" fill="#584A4A"/>
<path d="M820.508 105.6C821.948 102.37 822.008 97.37 826.638 98.48C831.268 99.59 832.508 101.96 832.508 101.96C832.508 101.96 828.168 100.96 825.728 101.96C823.808 102.893 822.047 104.121 820.508 105.6Z" fill="#93665A"/>
<path d="M823.837 105.6C820.997 107.72 826.137 102.04 830.377 102.71C834.617 103.38 837.377 104.71 839.557 106.82C837.541 106.228 835.476 105.82 833.387 105.6C829.617 105.15 825.167 104.6 823.837 105.6Z" fill="#93665A"/>
<path d="M825.277 94.2598C826.617 91.8198 832.137 86.7098 837.487 90.9297C842.837 95.1497 842.757 96.4998 844.627 98.3298C844.627 98.3298 838.947 95.0397 836.557 93.8197C834.167 92.5997 834.837 91.4797 830.837 92.7097C826.837 93.9397 825.277 94.2598 825.277 94.2598Z" fill="#93665A"/>
<path d="M837.488 78.4801C840.948 77.6001 840.838 77.2601 843.388 78.4801C845.938 79.7001 846.388 80.8201 846.388 80.8201C846.388 80.8201 843.198 78.9301 841.308 78.7601C839.418 78.5901 837.488 78.4801 837.488 78.4801Z" fill="#93665A"/>
<path d="M850.07 107.45C854.25 111.19 856.62 113.08 856.02 117.54C855.42 122 855.3 123.54 855.22 124.24C855.14 124.94 855.95 118.63 853.51 114.54C852.13 112.297 850.977 109.922 850.07 107.45Z" fill="#93665A"/>
<path d="M838.887 130.54C843.557 129.6 852.277 128.08 853.507 126C853.507 126 853.247 128.48 850.067 129.93C846.887 131.38 847.757 132.16 843.617 131.82C839.477 131.48 838.887 130.54 838.887 130.54Z" fill="#93665A"/>
<path d="M797.355 151.37C801.725 150.11 803.575 148.18 806.615 150.11C808.301 151.115 809.742 152.481 810.836 154.11C808.244 152.417 805.188 151.575 802.095 151.7C800.509 151.741 798.921 151.631 797.355 151.37Z" fill="#5E443D"/>
<path d="M795.43 160.91C796.99 159.13 797.88 157.5 801.28 157.8C804.68 158.1 805.73 159.28 805.73 159.28C805.15 159.893 804.353 160.252 803.51 160.28C801.8 160.46 795.43 160.91 795.43 160.91Z" fill="#5E443D"/>
<path d="M791.527 156.41C792.717 155.08 793.087 154.19 795.747 154.12C797.279 153.973 798.824 154.175 800.267 154.71C800.654 154.914 801.051 155.098 801.457 155.26C801.457 155.26 799.157 155.45 797.087 155.6C795.017 155.75 791.527 156.41 791.527 156.41Z" fill="#5E443D"/>
<path d="M790.43 179.6C791.25 176.93 790.73 175.74 793.76 173.97C796.79 172.2 799.92 170.97 802.44 171.08L804.95 171.15C803.382 171.96 801.746 172.629 800.06 173.15C797.54 173.89 796.88 172.96 794.8 174.54C793.127 176.027 791.658 177.729 790.43 179.6Z" fill="#5E443D"/>
<path d="M998.281 70.71C995.061 65.04 994.391 70.48 993.391 62.04C992.391 53.6 989.171 53.04 992.731 50.82C996.291 48.6 999.061 46.6 1003.84 43.37C1008.62 40.14 1009.62 38.15 1014.06 36.82C1018.66 35.5839 1023.52 35.6984 1028.06 37.15C1031.84 38.48 1033.84 36.15 1036.17 36.48C1038.5 36.81 1039.51 35.37 1039.17 39.93C1038.83 44.49 1037.17 47.71 1034.95 51.04C1032.73 54.37 1032.39 55.82 1033.84 59.04C1035.29 62.26 1036.39 62.37 1035.84 65.15C1035.29 67.93 1034.17 68.93 1034.95 70.71C1035.73 72.49 1023.39 75.15 1017.84 75.93C1012.29 76.71 1012.17 78.93 1006.06 75.82C999.951 72.71 998.281 70.71 998.281 70.71Z" fill="#A47261"/>
<path d="M994.391 62.2599C993.731 57.4799 991.951 52.7099 994.391 52.1499C996.831 51.5899 999.391 52.9299 1002.28 55.3699C1005.17 57.8099 1008.39 59.2599 1009.39 62.2599C1010.39 65.2599 1012.06 65.0399 1010.51 67.0399C1008.96 69.0399 1008.95 70.7099 1004.84 70.2599C1000.73 69.8099 1000.28 71.7099 998.621 68.5999C996.961 65.4899 996.171 64.1499 995.511 63.4799C995.117 63.093 994.743 62.6858 994.391 62.2599Z" fill="#2E2420"/>
<path d="M1024.32 77.4302C1024.47 72.7402 1029.89 68.9102 1032.32 68.8902C1034.75 68.8702 1038.84 73.7802 1043.14 78.6702C1047.44 83.5602 1057.06 87.5602 1059.14 92.6002C1061.22 97.6402 1059.88 104.89 1060.47 108.6C1061.06 112.31 1054.54 116.6 1049.36 114.97C1044.18 113.34 1043.47 115.97 1042.41 109.78C1041.95 106.29 1041.1 102.863 1039.88 99.5602C1038.39 94.8202 1038.54 92.4502 1034.54 85.6302C1032.32 81.6758 1028.66 78.736 1024.32 77.4302Z" fill="#664A41"/>
<path d="M1011.14 112.74C1021.06 111.26 1030.69 106.94 1032.47 115.32C1034.25 123.7 1034.84 127.71 1032.17 140.74C1029.5 153.77 1024.76 174.37 1023.28 180.3C1021.8 186.23 1021.8 220.89 1021.95 227.11C1022.1 233.33 1022.39 234.97 1016.76 236.3C1011.13 237.63 1013.76 237.48 1007.76 238.67C1001.76 239.86 1001.39 240.6 997.241 239.85C993.091 239.1 989.391 241.93 989.391 233.34C989.391 224.75 989.681 205.63 991.761 196.74C993.841 187.85 1001.68 125.97 1005.68 120.1C1007.31 117.512 1009.14 115.051 1011.14 112.74Z" fill="#523E3B"/>
<path d="M1026.81 125C1025.81 130.33 1022.69 140.85 1025.21 143.67C1027.73 146.49 1029.21 144.11 1029.21 141.67C1029.21 139.23 1026.81 125 1026.81 125Z" fill="#493736"/>
<path d="M1019.51 112.56C1019.8 115.56 1018.91 117.56 1021.95 120.78C1024.99 124 1024.84 123.97 1028.17 124.48C1031.5 124.99 1034.88 126.71 1035.49 123.15C1036.1 119.59 1035.25 116.93 1035.49 114.63C1035.73 112.33 1034.1 110.85 1030.39 110.63C1026.68 110.41 1023.06 109.37 1021.14 110.71C1019.22 112.05 1019.51 112.56 1019.51 112.56Z" fill="#584A4A"/>
<path d="M1041.58 99.6299C1042.42 96.6999 1045.21 96.8899 1048.32 100.37C1051.09 103.333 1054.14 106.013 1057.43 108.37C1059.73 110.08 1059.95 112.6 1056.17 113.26C1052.39 113.92 1052.17 115.11 1048.91 113.41C1045.65 111.71 1044.47 112.41 1043.51 108.08C1042.55 103.75 1041.14 101.19 1041.58 99.6299Z" fill="#2E2420"/>
<path d="M1021.14 112.6C1023.4 109.85 1027.43 110.89 1027.65 108.45C1027.87 106.01 1030.1 106.45 1027.06 105.34C1024.02 104.23 1022.69 104.82 1022.84 103.71C1022.99 102.6 1021.9 101.85 1024.89 101.85C1027.25 101.955 1029.6 102.29 1031.89 102.85C1033.74 103.14 1035.67 102.57 1038.03 101.85C1040.39 101.13 1041.44 99.5601 1043.66 99.9301C1045.88 100.3 1048.33 101.56 1049.07 103.11C1049.81 104.66 1051.07 106.97 1049.52 108C1047.49 109.138 1045.18 109.701 1042.85 109.63C1040.33 109.63 1039.85 109.71 1037.44 111.85C1035.03 113.99 1033.81 115.56 1032.11 116.15C1030.58 116.867 1028.84 116.999 1027.22 116.52C1025.22 115.93 1022.77 116.37 1022.03 114.89C1021.29 113.41 1020.1 113.85 1021.14 112.6Z" fill="#2E2420"/>
<path d="M1001.17 46.6001C1003.62 46.6001 1003.73 44.7101 1006.34 48.1501C1008.95 51.5901 1009.17 53.1501 1009.34 53.8701C1008.26 53.1054 1007.3 52.17 1006.51 51.1001C1005.63 49.7172 1004.41 48.5868 1002.96 47.8201C1002.31 47.5088 1001.7 47.0972 1001.17 46.6001Z" fill="#93665A"/>
<path d="M1012 42.8198C1011.77 45.0398 1011 46.7098 1012 50.8198C1013 54.9298 1013.43 57.5398 1015.16 59.9798C1016.89 62.4198 1018.38 63.5398 1019.33 66.4298C1020.28 69.3198 1020.72 70.7598 1020.77 72.3698C1020.82 73.9798 1021.88 74.5998 1022.77 72.8198C1023.66 71.0398 1024.61 70.3198 1023.66 66.5998C1022.71 62.8798 1022.77 61.3698 1020.5 57.4798C1018.23 53.5898 1017.66 53.7098 1015.88 49.5998C1014.86 47.193 1013.56 44.9168 1012 42.8198Z" fill="#93665A"/>
<path d="M1021 41.2598C1022.83 44.0998 1022.77 43.8198 1025 48.8698C1027.23 53.9198 1026.61 54.6498 1029.38 57.1498C1032.15 59.6498 1032.33 59.8698 1032.61 60.3198C1032.89 60.7698 1030.5 61.8698 1028.77 61.8198C1027.04 61.7698 1025.01 59.4298 1024.31 56.9298C1023.61 54.4298 1022.66 53.0398 1021.72 48.6498C1021.16 46.2287 1020.92 43.744 1021 41.2598Z" fill="#93665A"/>
<path d="M1028.84 39.3199C1031.78 39.4799 1031.84 38.3199 1033.39 40.4299C1034.94 42.5399 1035.51 42.5399 1035.34 44.4299C1035.17 46.3199 1034.62 45.7099 1034.62 45.7099C1034.62 45.7099 1033.78 41.8699 1032.34 41.2599C1031.13 40.6951 1029.96 40.0468 1028.84 39.3199Z" fill="#93665A"/>
<path d="M1025.45 41.6001C1028.28 42.7601 1029.17 42.7801 1031.23 45.8001C1033.29 48.8201 1033.56 49.1001 1033.89 49.9901C1034.22 50.8801 1033.38 50.3701 1032.64 51.5401C1031.9 52.7101 1030.95 54.1501 1030.95 54.8201C1030.95 55.4901 1029.12 52.4801 1028.45 49.7601C1027.98 47.8055 1027.35 45.8926 1026.56 44.0401C1026.12 43.0001 1025.45 41.6001 1025.45 41.6001Z" fill="#93665A"/>
<path d="M1041.12 94.9998C1041.91 92.9296 1043.49 91.2554 1045.51 90.3398C1049.06 88.5598 1047.89 87.2298 1051.34 88.3898C1054.79 89.5498 1056.12 89.7498 1057.23 92.1298C1057.73 92.8535 1058.1 93.6542 1058.34 94.4998C1058.34 95.1698 1057.06 91.5598 1054.56 90.9998C1052.06 90.4398 1051.28 89.6198 1049.73 90.2298C1048.18 90.8398 1045.67 91.5598 1044.45 92.4998C1043.23 93.4398 1041.12 94.9998 1041.12 94.9998Z" fill="#5E443D"/>
<path d="M1042.41 96.2597C1043.17 95.4264 1044.1 94.7631 1045.13 94.3133C1046.17 93.8635 1047.28 93.6374 1048.41 93.6497C1052.47 93.5997 1055.24 93.9797 1056.47 95.4797C1057.28 96.7148 1057.89 98.0629 1058.3 99.4797C1058.47 99.6497 1056.13 97.0297 1054.63 96.5897C1052.63 95.9879 1050.56 95.6517 1048.47 95.5897C1046.67 95.5997 1042.41 96.2597 1042.41 96.2597Z" fill="#5E443D"/>
<path d="M1048.73 98.2598C1051.34 98.7598 1051.17 97.3698 1053.45 99.8698C1054.82 101.213 1055.93 102.796 1056.73 104.54C1057.56 106.15 1055.73 105.21 1054.51 103.54C1053.29 101.87 1054.23 102.04 1051.84 100.65C1050.66 100.053 1049.61 99.2428 1048.73 98.2598Z" fill="#5E443D"/>
<path d="M1022.39 141.71C1021.51 148.6 1015.27 161.26 1015.17 181.26C1015.07 201.26 1010.51 209.93 1011.67 222.15C1012.83 234.37 1012.95 237.35 1012.95 237.35C1012.95 237.35 1022.39 236.27 1021.72 232.99C1021.05 229.71 1015.48 213.71 1016.94 202.82C1018.4 191.93 1018.84 175.71 1020.73 163.26C1021.86 156.132 1022.41 148.926 1022.39 141.71Z" fill="#493736"/>
<path d="M1022.4 138.37C1018.84 146.82 1008.84 177.71 1008.4 188.6C1007.96 199.49 1001.74 205.26 1001.07 205.48C1000.4 205.7 1000.34 201.04 1002.15 197.04C1003.96 193.04 1006.63 174.15 1008.4 168.6C1010.17 163.05 1011.06 151.26 1015.18 145.93C1017.24 143.102 1019.67 140.56 1022.4 138.37Z" fill="#493736"/>
<path d="M932.472 74.7398C931.652 71.5598 932.102 65.4798 933.472 62.8898C934.842 60.2998 935.542 57.6698 939.542 54.8898C943.542 52.1098 942.542 52.7998 947.472 49.3898C952.402 45.9798 951.612 47.7598 954.062 45.0198C956.512 42.2798 956.432 42.0198 957.762 42.4598C959.092 42.8998 964.282 47.0898 965.542 51.1698C967.023 55.8297 967.851 60.6725 968.002 65.5598C968.002 70.2998 968.272 73.4198 967.492 76.2198C966.712 79.0198 961.632 83.5598 957.192 83.9298C952.752 84.2998 950.372 84.9298 943.932 83.4098C937.492 81.8898 934.232 79.8498 933.412 77.7798C933.002 76.7989 932.687 75.7809 932.472 74.7398Z" fill="#A47261"/>
<path d="M934.322 75.85C933.322 72.22 932.252 71.74 933.432 68.02C934.612 64.3 934.172 62.82 936.542 60.74C938.912 58.66 940.172 57.34 942.912 57.56C945.652 57.78 947.142 57.19 949.582 61.23C952.022 65.27 953.142 64.3 953.582 69C954.022 73.7 956.172 73.71 953.582 76.37C950.992 79.03 942.252 80.3 939.802 79.56C937.352 78.82 934.322 75.85 934.322 75.85Z" fill="#2E2420"/>
<path d="M946.172 72.1496C946.95 72.1496 947.582 71.5183 947.582 70.7396C947.582 69.9609 946.95 69.3296 946.172 69.3296C945.393 69.3296 944.762 69.9609 944.762 70.7396C944.762 71.5183 945.393 72.1496 946.172 72.1496Z" fill="#EAAF93"/>
<path d="M943.513 55.8497C946.023 55.8497 948.243 55.6597 950.243 57.5297C951.813 58.8598 953.231 60.3588 954.473 61.9997C955.733 63.7397 954.993 63.1597 956.623 65.2397L958.253 67.3097C958.134 65.9887 957.886 64.6824 957.513 63.4097C956.557 61.6613 955.467 59.9897 954.253 58.4097C953.164 57.0821 951.706 56.1076 950.063 55.6097C948.335 55.1485 946.551 54.9298 944.763 54.9597C943.433 54.9997 943.513 55.8497 943.513 55.8497Z" fill="#93665A"/>
<path d="M956.625 73.41C958.915 71.56 959.885 71.3 960.765 68.65C961.382 66.6735 961.797 64.6399 962.005 62.58C962.305 60.82 962.525 59.48 962.525 59.48C962.525 59.48 963.265 59.64 963.525 61.23C963.785 62.82 964.405 63.23 964.035 66.11C963.665 68.99 964.265 69.85 962.405 71.71C960.545 73.57 960.925 74.71 958.925 74.71C956.925 74.71 956.625 73.41 956.625 73.41Z" fill="#93665A"/>
<path d="M957.402 44.0796C957.402 44.0796 958.812 44.0796 960.402 46.0796C961.992 48.0796 962.172 48.9696 962.172 49.0796C962.172 49.1896 961.572 48.5196 960.402 47.6296C959.274 46.5609 958.268 45.3703 957.402 44.0796Z" fill="#93665A"/>
<path d="M1029.8 69.9302C1026.69 70.2202 1017.36 73.7802 1012.91 74.6702C1008.46 75.5602 948.17 74.0802 932.47 74.0802C916.77 74.0802 910.69 73.7802 901.21 77.6302C891.73 81.4802 882.39 89.0002 880.76 100.15C879.13 111.3 882.25 123.26 887.76 128.6C893.27 133.94 899.02 138.82 908.76 140C918.5 141.18 980.76 139.41 988.62 138.22C996.48 137.03 1011.73 119.85 1014.99 116.89L1016.62 113.34C1016.62 113.34 1032.62 120.15 1034.39 121.04C1036.16 121.93 1044.47 117.78 1044.76 115.26C1045.05 112.74 1029.8 69.9302 1029.8 69.9302Z" fill="white"/>
<path d="M919.269 74.1504C923.879 76.4504 932.019 83.5604 933.059 98.8204C934.099 114.08 929.359 140.36 929.359 140.36H926.839C926.839 140.36 930.389 123.53 930.689 117.45C930.989 111.37 931.689 104.45 931.579 99.0804C931.469 93.7104 930.839 91.0804 929.059 87.2304C927.279 83.3804 925.999 81.0004 923.139 78.6704C921.2 77.0761 919.17 75.5968 917.059 74.2404L919.269 74.1504Z" fill="#E6E6E6"/>
<path d="M900.17 132.65C899.85 130.51 900.17 127.54 901.45 126.71C902.73 125.88 905.95 126.26 909.95 127.98C913.95 129.7 915.45 130.21 916.06 131.21C916.378 131.829 916.543 132.514 916.543 133.21C916.543 133.906 916.378 134.591 916.06 135.21C915.39 136.65 916.06 137.54 913.45 137.15C910.612 136.857 907.805 136.318 905.06 135.54C901.56 134.48 900.45 134.48 900.17 132.65Z" fill="#382F3D"/>
<path d="M883.172 97.2601C883.432 96.2601 884.732 90.1901 887.172 88.5601C889.612 86.9301 894.322 90.0001 894.762 91.0001C895.202 92.0001 892.622 93.2201 890.142 96.4801C887.662 99.7401 887.992 100.37 886.692 99.4801C885.392 98.5901 883.172 97.2601 883.172 97.2601Z" fill="#382F3D"/>
<path d="M888.102 101.26C888.625 101.922 889.007 102.684 889.224 103.499C889.44 104.315 889.487 105.166 889.362 106L889.102 108.6C889.102 108.6 897.102 110.26 898.212 110.45C899.322 110.64 899.842 109.26 899.282 106.22C898.722 103.18 898.842 100.3 897.912 97.56C896.982 94.82 897.172 95 896.582 94.15C895.992 93.3 894.322 94.78 892.692 96.26C891.062 97.74 888.102 101.26 888.102 101.26Z" fill="#382F3D"/>
<path d="M886.641 117C887.194 116.034 887.682 115.032 888.101 114C888.589 113.03 888.926 111.992 889.101 110.92C889.191 110.5 888.911 110.22 890.191 110.61C891.471 111 895.941 112.47 897.301 112.86C898.661 113.25 899.241 113.25 899.081 114.19C898.67 115.951 898.159 117.687 897.551 119.39C897.101 120.53 895.661 123.75 895.131 124.69C894.601 125.63 894.521 125.92 893.331 124.69C892.141 123.46 890.581 122.75 888.991 120.56C887.401 118.37 885.751 118.6 886.641 117Z" fill="#382F3D"/>
<path d="M884 121C884 121 886 120 885.91 119.42C885.82 118.84 886.4 120 888.09 121.92C889.192 123.333 890.406 124.653 891.72 125.87C892.91 126.87 893.61 127.45 892.25 128.37C890.89 129.29 890.13 129.81 890.13 129.81C890.13 129.81 884.97 124.73 884.5 122.53C884.03 120.33 884 121 884 121Z" fill="#382F3D"/>
<path d="M884.081 114.56C885.628 114.56 886.881 111.632 886.881 108.02C886.881 104.408 885.628 101.48 884.081 101.48C882.535 101.48 881.281 104.408 881.281 108.02C881.281 111.632 882.535 114.56 884.081 114.56Z" fill="#3B2B2A"/>
<path d="M883.551 110.13C883.965 110.13 884.301 109.208 884.301 108.07C884.301 106.933 883.965 106.01 883.551 106.01C883.137 106.01 882.801 106.933 882.801 108.07C882.801 109.208 883.137 110.13 883.551 110.13Z" fill="#EFDCD5"/>
<path d="M953.58 112.9C944.89 112.9 937.84 106.66 937.84 98.97C937.84 91.28 944.89 85 953.58 85" fill="#E6E6E6"/>
<path d="M1041.89 118.39C1039.22 117.5 1022.84 111.48 1022.1 111.11C1021.36 110.74 1015.8 85.7102 1015.65 84.6002C1015.5 83.4902 1029.8 69.9302 1029.8 69.9302C1027.95 70.2341 1026.13 70.6924 1024.36 71.3002L1017.85 73.3002L1011.85 85.3002L1018.05 113.92L1034.51 121.06C1034.51 121.06 1035.38 121.37 1037.81 120.45C1039.23 119.893 1040.6 119.203 1041.89 118.39Z" fill="#E6E6E6"/>
<path d="M1039 96.39C1038.78 98.2205 1037.94 99.9214 1036.63 101.214C1035.31 102.507 1033.6 103.315 1031.77 103.507C1029.93 103.698 1028.09 103.261 1026.53 102.267C1024.98 101.273 1023.81 99.7817 1023.22 98.0364C1022.62 96.2911 1022.64 94.3956 1023.26 92.6602C1023.88 90.9248 1025.08 89.4523 1026.65 88.4838C1028.21 87.5153 1030.07 87.1082 1031.9 87.3292C1033.73 87.5501 1035.43 88.386 1036.72 89.7" fill="#E6E6E6"/>
<path d="M1003.55 85.04H955.649C947.955 85.04 941.719 91.2767 941.719 98.97C941.719 106.663 947.955 112.9 955.649 112.9H1003.55C1011.24 112.9 1017.48 106.663 1017.48 98.97C1017.48 91.2767 1011.24 85.04 1003.55 85.04Z" fill="#F2F2F2"/>
<path d="M955.58 104.03C958.374 104.03 960.64 101.765 960.64 98.9702C960.64 96.1756 958.374 93.9102 955.58 93.9102C952.785 93.9102 950.52 96.1756 950.52 98.9702C950.52 101.765 952.785 104.03 955.58 104.03Z" fill="#E6E6E6"/>
<path d="M972.097 86.1504H954.688V89.5604H972.097V86.1504Z" fill="#716152"/>
<path d="M959.729 86.3403H957.059V89.0103H959.729V86.3403Z" fill="#382F3D"/>
<path d="M967.25 86.48H964.73V89H967.25V86.48Z" fill="#382F3D"/>
<path d="M959.243 102.47C959.747 103.296 960.455 103.978 961.3 104.451C962.144 104.924 963.095 105.171 964.063 105.17H975.393C976.897 105.17 978.339 104.573 979.402 103.51C980.465 102.446 981.063 101.004 981.063 99.5002V98.1602C981.063 96.6565 980.465 95.2143 979.402 94.1509C978.339 93.0876 976.897 92.4902 975.393 92.4902H964.063C963.061 92.4893 962.076 92.7545 961.21 93.2587C960.344 93.763 959.627 94.4882 959.133 95.3602" fill="#382F3D"/>
<path d="M965.761 108.19H962.551V111.78H965.761V108.19Z" fill="#382F3D"/>
<path d="M917.059 85.0403L923.999 84.0903L925.359 87.8503L918.229 89.0003L917.059 85.0403Z" fill="#382F3D"/>
<path d="M918.508 91.6003C918.508 91.6003 921.118 97.7603 920.508 102.6H930.398C930.565 98.3274 929.646 94.0819 927.728 90.2603L918.508 91.6003Z" fill="#382F3D"/>
<path d="M920.391 104.87C920.866 106.693 921.021 108.584 920.851 110.46H929.851C930.132 108.607 930.132 106.723 929.851 104.87H920.391Z" fill="#382F3D"/>
<path d="M920.391 112.89C920.391 112.89 921.23 116.1 919.73 118.01H929.67C930.184 116.527 930.184 114.914 929.67 113.43L920.391 112.89Z" fill="#382F3D"/>
<path d="M918.999 120.1C919.187 121.869 918.879 123.656 918.109 125.26L928.049 125.55L928.659 120.71L918.999 120.1Z" fill="#382F3D"/>
<path d="M912.23 86.5504C913.16 87.582 913.741 88.8801 913.891 90.2604L916.51 89.8204L914.891 85.6504L912.23 86.5504Z" fill="#382F3D"/>
<path d="M987.58 107C989.95 103 991.58 98.3999 998.69 99.2899C1005.8 100.18 1001.97 120.29 1003.88 128.18C1006.17 137.63 1001.88 143.71 1001.39 154.83C1000.9 165.95 1000 187.41 998 194.22C996 201.03 993.86 198.82 994.45 205.34C995.04 211.86 991.78 229.04 994.45 234.22C997.12 239.4 997.7 247.85 997.85 252.89C998 257.93 996.52 260.6 991.63 262.52C986.74 264.44 990.15 266.52 981.41 265.93C972.67 265.34 975.63 265.04 967.63 265.34C959.63 265.64 956.22 266.34 955.33 264.89C954.44 263.44 950.15 245.63 950.33 239.56C950.51 233.49 952.1 226.22 955.96 215.41C959.82 204.6 963.66 149.93 964.55 145.48C965.44 141.03 986.62 125.38 987.22 117.48C987.529 113.996 987.65 110.497 987.58 107Z" fill="#523E3B"/>
<path d="M956.617 120.1C964.167 117.63 963.727 120.31 967.137 115.57C970.547 110.83 969.057 108.3 974.137 103.71C979.217 99.1202 983.317 99.2602 986.287 99.2602C989.257 99.2602 994.577 99.1102 994.427 104.89C994.277 110.67 994.577 109.19 991.767 116.3C988.957 123.41 991.027 127.23 986.767 130.95C982.507 134.67 986.327 132.89 979.957 135.85C973.587 138.81 972.957 142.22 966.247 139.11C959.537 136 956.617 120.1 956.617 120.1Z" fill="#664A41"/>
<path d="M967.51 86.93C967.39 81.04 964.17 79.6 968.17 78.37C972.17 77.14 971.95 79.15 974.84 78.37C977.73 77.59 978.39 74.04 986.73 71.26C995.07 68.48 997.39 68.15 1004.73 68.15C1012.07 68.15 1011.51 64.71 1012.06 68.15C1012.61 71.59 1013.62 74.93 1012.06 79.04C1010.5 83.15 1008.17 81.37 1009.84 87.48C1011.51 93.59 1012.28 93.71 1012.84 98.26C1013.4 102.81 1014.34 105.37 1013.68 109.71C1013.02 114.05 1013.01 114.37 1012.34 115.48C1011.67 116.59 1007.34 106.04 1002.23 103.71C997.12 101.38 992.68 99.37 988.23 100.26C983.78 101.15 977.68 103.15 974.57 105.6C971.46 108.05 970.9 110.71 970.57 108.6C970.24 106.49 970.12 103.37 970.9 101.37C971.68 99.37 973.34 99.37 971.9 96.82C970.46 94.27 967.51 86.93 967.51 86.93Z" fill="#A47261"/>
<path d="M968.171 81.4799C969.321 79.7599 969.621 77.8199 971.841 79.7099C974.061 81.5999 975.061 79.2599 974.731 84.9299C974.401 90.5999 975.421 95.3099 973.841 96.3699C972.261 97.4299 968.171 87.0399 968.171 84.2599C968.171 81.4799 967.831 81.9999 968.171 81.4799Z" fill="#2E2420"/>
<path d="M997.359 107.63C996.539 105.34 996.689 101.04 998.359 100.82C1000.03 100.6 1007.62 106.72 1009.25 109.46C1009.98 110.614 1010.41 111.937 1010.49 113.303C1010.56 114.668 1010.29 116.031 1009.69 117.26C1008.58 119.34 1008.98 123.93 1005.48 121.71C1001.98 119.49 1002.06 115.63 1000.73 113.34C999.399 111.05 997.359 107.63 997.359 107.63Z" fill="#584A4A"/>
<path d="M1002.69 124.89C1002.62 121.19 1002.49 116.6 1005.44 116.82C1008.39 117.04 1010.62 121.63 1010.62 125.48C1010.58 128.946 1010.35 132.408 1009.94 135.85C1009.51 140.67 1011.06 142.6 1007.94 142.67C1004.82 142.74 1003.26 139.92 1003.05 136.93C1002.84 133.94 1002.69 124.89 1002.69 124.89Z" fill="#584A4A"/>
<path d="M978.76 84.3699C977.65 82.0799 975.36 81.8499 976.54 80.1499C977.72 78.4499 976.91 78.8899 979.54 77.5599C982.17 76.2299 982.2 74.2199 982.42 76.8199C982.64 79.4199 983.24 81.8199 981.98 84.3699C980.72 86.9199 979.83 86.4499 979.09 89.1899C978.35 91.9299 978.2 92.5999 978.35 94.0799C978.5 95.5599 976.94 94.1499 977.02 91.7099C977.084 89.779 977.483 87.8739 978.2 86.0799L978.76 84.3699Z" fill="#93665A"/>
<path d="M973.43 102.15C975.73 99.5601 977.73 98.0001 979.14 95.4801C980.55 92.9601 984.47 85.8501 985.43 82.8901L986.43 79.8901C986.706 80.4676 986.85 81.0998 986.85 81.7401C986.85 82.3805 986.706 83.0127 986.43 83.5901C985.43 85.4401 982.73 91.3701 981.84 92.8501C980.893 94.6279 979.841 96.3476 978.69 98.0001C977.21 100 973.43 102.15 973.43 102.15Z" fill="#93665A"/>
<path d="M981.578 95.26C985.508 93.63 988.758 92.52 991.358 90.26C993.958 88 993.998 89 994.998 86.52C995.608 85.281 995.837 83.8893 995.658 82.52C995.658 82.52 997.508 85.67 996.878 87.69C996.275 89.0471 995.382 90.2559 994.263 91.2319C993.144 92.2078 991.825 92.9273 990.398 93.34C987.648 93.85 981.578 95.26 981.578 95.26Z" fill="#93665A"/>
<path d="M989.73 94.6799C992.84 93.9999 992.731 92.6799 995.951 93.8499C998.694 94.9515 1001.32 96.318 1003.8 97.9299C1006.17 99.3399 1007.34 98.8799 1009.94 100.81C1012.54 102.74 1013.94 106 1013.94 106.67C1013.94 107.34 1013.69 104.52 1009.94 102.97C1007.15 101.773 1004.45 100.386 1001.85 98.8199C999.519 97.5042 997.01 96.5309 994.401 95.9299C991.651 95.2599 989.73 94.6799 989.73 94.6799Z" fill="#93665A"/>
<path d="M1000.39 88.2998C1000.99 90.9698 999.511 91.1898 1002.99 93.9298C1005.37 95.7206 1007.92 97.2589 1010.62 98.5198C1012.54 99.6298 1013.16 100.08 1013.16 100.08C1012.72 98.1317 1011.57 96.4156 1009.94 95.2598C1007.28 93.4798 1007.48 93.8498 1004.64 91.7798C1003.14 90.7204 1001.72 89.5576 1000.39 88.2998Z" fill="#93665A"/>
<path d="M1001.43 69.4802C1003.73 69.2602 1009.58 67.9302 1010.62 69.1902C1011.55 70.5434 1012.06 72.1387 1012.1 73.7802C1012.1 74.8902 1009.8 71.7802 1007.88 71.2202C1005.96 70.6602 1001.43 69.4802 1001.43 69.4802Z" fill="#93665A"/>
<path d="M970.469 112C970.469 112 973.059 108.67 976.689 109.63C980.319 110.59 981.509 112.89 981.579 113.41C981.649 113.93 979.899 111.92 977.439 111.56C975.106 111.426 972.766 111.574 970.469 112Z" fill="#5E443D"/>
<path d="M969.648 113.5C969.648 113.5 973.108 112.3 974.788 113.78C976.576 115.494 978.025 117.53 979.058 119.78C980.318 122.28 979.278 123.78 978.058 122.28C976.838 120.78 976.058 118.49 973.988 116.79C971.918 115.09 969.648 113.5 969.648 113.5Z" fill="#5E443D"/>
<path d="M968.469 116.37C969.168 116.151 969.924 116.196 970.593 116.497C971.262 116.797 971.797 117.332 972.099 118C973.279 120.35 973.729 120.57 973.799 121.53C973.869 122.49 970.989 120.79 970.469 119.39C969.974 118.28 969.298 117.259 968.469 116.37Z" fill="#5E443D"/>
<path d="M995.172 113.5C995.172 113.5 994.062 137.71 992.282 146.26C990.502 154.81 986.282 156.15 985.512 153.71C984.742 151.27 987.192 148.6 989.292 142.04C991.392 135.48 995.172 113.5 995.172 113.5Z" fill="#493736"/>
<path d="M991.062 154.15C993.362 150.52 994.473 143.05 995.953 136.93C997.11 132.719 997.926 128.422 998.393 124.08C998.667 120.862 998.495 117.621 997.883 114.45C998.554 116.855 999.072 119.3 999.432 121.77C999.802 124.89 1000.76 128.88 1000.43 134.15C1000.1 139.42 999.772 145.93 998.662 149.04C997.552 152.15 996.952 154.52 995.292 156.04C993.632 157.56 991.062 154.15 991.062 154.15Z" fill="#493736"/>
<path d="M977.062 154.8C977.891 160.226 978.362 165.701 978.472 171.19C978.586 174.726 979.007 178.246 979.732 181.71C979.732 181.71 980.542 175.71 980.542 173.26C980.542 170.81 980.472 169.04 980.102 163.26C979.732 157.48 977.062 154.8 977.062 154.8Z" fill="#493736"/>
<path d="M984.171 159C985.171 163.66 984.101 179.44 983.731 183.74C983.361 188.04 988.101 219.29 990.251 222.11C992.401 224.93 992.911 225.81 992.911 225.81C992.911 225.81 992.021 219.88 991.281 216.11C990.541 212.34 988.971 186.18 988.281 180.55C987.591 174.92 986.361 161.96 985.771 160.63C985.633 160.262 985.419 159.927 985.143 159.646C984.868 159.366 984.537 159.146 984.171 159Z" fill="#493736"/>
<path d="M991.062 162C991.062 162 991.512 173.93 992.472 181.71C993.432 189.49 996.763 187.85 996.763 185.19C996.763 182.53 995.762 177.26 995.172 172.97C994.582 168.68 991.062 162 991.062 162Z" fill="#493736"/>
<path d="M975.508 157.34C975.428 163.41 974.098 173.19 976.508 186.52C978.918 199.85 981.248 207.85 982.578 216.45C983.908 225.05 985.098 239.45 985.398 246.97C985.698 254.49 988.098 265.52 986.808 265.74C985.518 265.96 984.508 263.56 984.358 260.74C984.208 257.92 982.878 239.11 982.138 233.04C981.398 226.97 979.248 216.13 978.838 211.55C978.428 206.97 977.838 204.15 976.208 197.34C974.578 190.53 972.658 184.34 972.658 178.97C972.629 173.866 972.963 168.766 973.658 163.71C974.058 161.53 974.678 159.395 975.508 157.34Z" fill="#493736"/>
<path d="M977.44 265C976.76 259.37 975.29 245.74 975.51 238C975.73 230.26 975.88 230.59 976.51 222C976.51 222 976.79 216.94 976.51 211.47C976.23 206 976.51 208.07 976.51 208.07C976.51 208.07 978.151 221.4 978.151 225.7C978.151 230 976.961 235.33 977.151 240.07C977.341 244.81 977.741 251.77 978.151 257.7C978.561 263.63 979.581 265.7 979.151 265.7C978.552 265.542 977.978 265.307 977.44 265Z" fill="#493736"/>
<path d="M962.539 264.6C964.169 258.97 965.359 258.97 967.139 245.78C968.919 232.59 969.799 224.89 971.139 217.48C972.479 210.07 973.949 206.97 974.139 200.74C974.329 194.51 971.619 187.41 971.029 179.85C970.439 172.29 970.029 165.63 970.029 164.85C970.029 164.07 967.659 165.85 967.219 169.44C966.779 173.03 964.839 189.44 964.839 194.78C964.839 200.12 961.999 210.37 959.999 215.56C957.999 220.75 955.259 225.04 954.999 231.11C954.739 237.18 953.999 243.26 955.999 249.93C957.762 254.995 959.95 259.903 962.539 264.6Z" fill="#493736"/>
<path d="M975.508 124.08C975.508 124.08 979.808 123.26 981.578 127.08C983.348 130.9 983.488 133.08 983.278 133.68C983.068 134.28 981.508 128.57 979.428 127.08C977.348 125.59 975.508 124.08 975.508 124.08Z" fill="#5E443D"/>
<path d="M968.102 144.45C970.892 141.87 967.102 141.39 973.562 139.63C976.689 142.347 979.961 144.894 983.362 147.26C987.802 150.26 994.362 155.48 998.362 155.56C1002.36 155.64 1001.48 148.22 1002.44 144.89C1003.4 141.56 1003.93 140.24 1003.93 140.24C1003.93 140.24 1004.77 147.62 1003.34 151.62C1001.91 155.62 1002.66 156.74 1000.73 161.11C998.802 165.48 998.442 168.6 993.622 166.6C988.802 164.6 981.552 162 978.362 158.15C975.172 154.3 968.102 144.45 968.102 144.45Z" fill="#483834"/>
<path d="M980.91 119C983.36 122.14 984.62 123.77 985.36 126.29C986.1 128.81 986.36 130.44 986.36 130.44C986.748 129.169 986.894 127.836 986.79 126.51C986.59 124.51 985.7 121.3 984.44 119.79C983.18 118.28 980.91 119 980.91 119Z" fill="#5E443D"/>
<path d="M911.997 177.15C907.217 172.6 903.997 174.21 905.997 163.85C907.997 153.49 907.327 150.85 911.997 150.37C916.667 149.89 915.437 155.48 926.437 153.6C937.437 151.72 937.217 149.21 948.667 150.35C960.117 151.49 968.117 145.67 970.557 153.04C972.997 160.41 973.107 165.37 970.107 172.82C967.107 180.27 966.217 180.93 966.327 183.04C966.437 185.15 969.217 190.82 969.217 195.26C969.217 199.7 969.847 206.08 963.627 218.6C957.407 231.12 952.367 223.71 956.217 234.67C960.067 245.63 966.887 263.41 964.217 268.74C961.547 274.07 949.407 278.32 933.107 275.74C916.807 273.16 901.697 275.74 899.627 271.05C897.557 266.36 905.557 265.18 908.217 253.92C910.877 242.66 904.067 237.62 910.887 224.29C917.707 210.96 921.887 196.29 925.407 193.53C928.927 190.77 929.777 186.88 927.037 185.03C924.297 183.18 923.927 182.36 920.037 180.03C917.571 178.554 914.84 177.576 911.997 177.15Z" fill="#523E3B"/>
<path d="M924.056 151.48C922.836 146.6 919.616 138.82 921.616 130.48C923.616 122.14 924.836 118.26 927.506 116.71C930.176 115.16 936.836 120.26 942.166 120.1C947.496 119.94 948.836 118.71 956.276 119.26C963.716 119.81 962.276 118.6 967.836 120.1C973.396 121.6 975.506 120.93 973.506 127.37C971.506 133.81 969.946 132.87 969.836 136.57C969.726 140.27 972.276 143.07 973.276 148.39C974.276 153.71 975.536 153.6 974.276 157.71C973.016 161.82 969.646 164.15 966.086 163.82C962.526 163.49 951.416 156.37 945.536 154.82C939.656 153.27 939.756 151.71 932.646 152.15C925.536 152.59 924.056 151.48 924.056 151.48Z" fill="#A47261"/>
<path d="M918.906 165.48C922.466 166.6 923.206 167.11 929.426 167.19C935.646 167.27 936.906 167.19 936.906 167.19C936.906 167.19 933.136 169.63 930.096 169.63C927.056 169.63 925.276 170.37 922.246 168.63C919.216 166.89 918.906 165.48 918.906 165.48Z" fill="#493736"/>
<path d="M924.098 175.11C926.758 175.56 927.948 176.3 931.798 175.48C934.155 174.979 936.461 174.263 938.688 173.34C938.688 173.34 936.538 176.67 934.098 177.41C931.658 178.15 932.248 179.56 929.278 178.3C927.411 177.483 925.668 176.409 924.098 175.11Z" fill="#493736"/>
<path d="M925.355 155.48C928.85 162.374 933.15 168.829 938.165 174.71C943.835 181.04 941.836 182.6 946.836 183.6C951.836 184.6 954.385 185.6 954.945 181.71C955.505 177.82 955.056 174.93 951.836 170.04C948.616 165.15 949.725 165.37 944.165 159.37C938.605 153.37 940.065 152.08 934.285 151.72C932.608 151.615 930.928 151.899 929.379 152.551C927.829 153.204 926.452 154.206 925.355 155.48Z" fill="#857779"/>
<path d="M927 186.15C926.56 188.71 923.56 189.04 928 192.71C932.44 196.38 927.22 197.37 936.78 197.6C946.34 197.83 946.56 197.81 951.89 196.6C957.22 195.39 959.67 195.05 963.33 191.72C966.99 188.39 968.67 188.38 968.89 185.72C969.11 183.06 970.11 182.27 968.89 179.49C967.67 176.71 964 176.27 960.22 178.38C956.44 180.49 953.39 184.48 946 185C938.61 185.52 935.42 185.53 931.67 185.67C930.101 185.663 928.535 185.824 927 186.15Z" fill="#483834"/>
<path d="M951.616 186.48C954.166 189.6 954.376 187.9 956.936 195.36C959.496 202.82 960.726 205.6 961.616 210.93C962.506 216.26 962.716 217.48 962.496 220.59C962.276 223.7 967.246 224.48 969.426 219.26C971.606 214.04 974.136 217.26 972.316 210.26C970.496 203.26 967.506 195.93 965.836 191.04C964.166 186.15 967.506 185.93 965.166 182.04C962.826 178.15 949.406 181.04 950.396 184.19C951.386 187.34 951.616 186.48 951.616 186.48Z" fill="#857779"/>
<path d="M899.816 267.73C902.275 267.457 904.634 266.609 906.704 265.253C908.773 263.898 910.494 262.074 911.726 259.93C915.166 253.82 916.946 250.6 918.836 245.15C920.726 239.7 920.386 243.26 921.946 233.6C923.506 223.94 923.096 225.04 925.356 213.6C927.616 202.16 927.996 199.71 927.996 199.71C927.996 199.71 928.106 200.71 927.996 204.93C927.886 209.15 926.196 218.71 925.596 224.48C924.857 231.032 923.691 237.529 922.106 243.93C920.996 247.71 916.996 258.82 913.996 262.26C910.996 265.7 909.886 267.15 906.556 267.82C904.323 268.205 902.038 268.175 899.816 267.73Z" fill="#493736"/>
<path d="M932.509 210.07C931.169 213.93 927.599 218.26 927.999 224.71C928.399 231.16 930.279 247.15 933.059 254.26C935.839 261.37 937.279 264.71 938.729 267.15C940.179 269.59 943.929 276.51 943.929 276.51L938.779 276.4C938.339 274.9 934.509 265.4 933.509 263.04C932.509 260.68 928.269 248.37 927.999 245.93C927.729 243.49 926.509 229.6 926.509 228.37C926.509 227.14 926.389 217.15 929.059 213.71C931.729 210.27 932.509 210.07 932.509 210.07Z" fill="#493736"/>
<path d="M946.055 231.48C946.055 231.48 954.105 230.42 955.055 231.13L957.145 237.48L946.055 231.48Z" fill="#493736"/>
<path d="M944.887 233.6C949.777 235.54 951.557 235.93 954.387 238.71C956.563 240.755 958.37 243.16 959.727 245.82C960.226 246.743 960.664 247.699 961.037 248.68C961.037 248.68 956.167 243.6 954.117 241.37C952.067 239.14 944.887 233.6 944.887 233.6Z" fill="#493736"/>
<path d="M940 235.15C943.33 238.82 951.11 244.6 954 248.43C956.89 252.26 959.32 254.6 960.55 257.71C961.78 260.82 962 261.15 962.78 263.04C961.522 260.239 959.835 257.652 957.78 255.37C954.56 251.93 952.86 250.48 947.54 244.6C944.781 241.654 942.26 238.494 940 235.15Z" fill="#493736"/>
<path d="M930.445 127.71C930.225 125.26 931.225 122.48 932.225 121.65C933.225 120.82 935.665 123.6 937.115 123.98C938.565 124.36 937.665 126.21 934.445 127.04C931.225 127.87 930.445 127.71 930.445 127.71Z" fill="#93665A"/>
<path d="M931.615 134.15C931.115 131.6 928.615 132.15 931.615 130.54C934.615 128.93 936.225 128.54 937.505 127.72C938.785 126.9 938.505 129.26 937.785 132.1C937.065 134.94 939.055 137.67 934.945 140.63C930.835 143.59 930.165 143.93 929.055 144.15C927.945 144.37 928.885 142.76 930.165 141.21C931.445 139.66 933.505 138.65 932.945 136.57C932.385 134.49 931.615 134.15 931.615 134.15Z" fill="#93665A"/>
<path d="M943.338 121.5C941.618 124.37 939.558 126.5 939.338 130.37C939.118 134.24 939.568 135.48 939.008 136.98C939.56 136.627 940.007 136.131 940.301 135.545C940.595 134.959 940.725 134.304 940.678 133.65C940.508 131.37 939.958 129.26 941.458 126.82C942.421 125.184 943.059 123.378 943.338 121.5Z" fill="#93665A"/>
<path d="M944.758 146.15C948.468 146.6 949.908 147.41 955.148 146.74C960.388 146.07 960.988 146.74 964.148 145.48C965.62 144.962 967.035 144.292 968.368 143.48C968.118 144.645 967.497 145.698 966.598 146.48C965.118 147.74 955.858 150.2 951.928 149.27C949.392 148.604 946.973 147.552 944.758 146.15Z" fill="#93665A"/>
<path d="M949.355 155.19C953.371 154.192 957.522 153.854 961.646 154.19C966.836 154.64 967.505 154.64 969.425 156.27C971.345 157.9 970.835 159.9 969.945 160.12C969.055 160.34 966.165 159.23 963.355 158.27C960.29 157.32 957.138 156.673 953.945 156.34C952.365 156.197 950.817 155.809 949.355 155.19Z" fill="#93665A"/>
<path d="M1095.73 123.15C1092.51 124.48 1094.62 125.48 1090.62 126.37C1086.62 127.26 1085.17 129.26 1085.17 126.37C1085.17 123.48 1086.28 121.6 1087.39 118.6C1088.5 115.6 1086.51 116.26 1089.17 111.48C1091.83 106.7 1091.69 108.04 1092.82 104.37C1093.95 100.7 1092.82 99.9304 1093.82 95.6004C1094.82 91.2704 1094.89 91.9704 1093.93 87.1704C1093.02 82.6204 1093.39 81.7404 1094.35 79.3804C1095.31 77.0204 1096.62 72.1404 1100.35 71.8704C1104.08 71.6004 1107.44 72.1904 1111.21 76.9304C1114.98 81.6704 1121.58 82.6104 1119.02 87.9304C1116.46 93.2504 1107.8 107.6 1103.24 112.26C1100.24 115.521 1097.71 119.187 1095.73 123.15Z" fill="#2E2420"/>
<path d="M1094 87.9302C1093.11 84.4802 1091.56 79.3702 1095 74.7102C1098.44 70.0502 1098.67 70.6002 1105.22 66.2602C1111.77 61.9202 1109.56 60.1502 1115.67 59.2602C1121.78 58.3702 1122.56 55.1502 1124.89 58.7102C1127.22 62.2702 1127.33 64.9302 1127.78 69.7102C1128.23 74.4902 1128.78 73.2602 1130.33 77.4302C1131.88 81.6002 1131.56 83.8202 1133.33 86.3702C1135.1 88.9202 1136.89 89.7002 1138.78 93.6502C1140.67 97.6002 1141.89 99.4802 1141.89 101.82C1141.89 101.82 1120.22 102.37 1116.89 99.8702C1113.56 97.3702 1112.67 97.0402 1113.33 94.2602C1113.99 91.4802 1114.22 91.9302 1115.33 90.0402C1116.44 88.1502 1117.89 86.7102 1116.56 84.0402C1115.23 81.3702 1108.67 72.8202 1105.56 72.6002C1102.45 72.3802 1100.78 71.0402 1098.33 74.2602C1095.88 77.4802 1094.22 77.8202 1094.11 81.3702C1094 84.9202 1094 87.9302 1094 87.9302Z" fill="#93665A"/>
<path d="M1097.28 123C1097.28 127 1097.95 125.89 1095.06 132.89C1092.17 139.89 1090.84 142.78 1088.73 145.56C1085.93 149.509 1084.04 154.021 1083.17 158.78C1082.28 164 1074.73 173.33 1073.62 179.56C1072.51 185.79 1071.62 181.33 1071.17 185.11C1070.72 188.89 1070.06 191.89 1072.84 194.78C1075.62 197.67 1077.13 201.56 1084.26 201.22C1091.39 200.88 1092.39 201 1095.17 199.11C1097.95 197.22 1097.06 200.11 1101.28 195.56C1105.5 191.01 1115.39 164.44 1117.95 157.33C1120.51 150.22 1122.39 151.44 1122.51 142.56C1122.63 133.68 1125.65 134.44 1119.63 128.89C1113.61 123.34 1109.28 120.44 1103.84 121.11C1098.4 121.78 1097.28 123 1097.28 123Z" fill="#493736"/>
<path d="M1074.78 197.07C1076.06 194.15 1075.78 197.6 1077.78 187.6C1079.78 177.6 1078.56 177.48 1080.22 173.04C1081.88 168.6 1081.89 165.26 1081.89 168.6C1081.89 171.94 1081.33 175.04 1081.89 179.04C1082.56 182.451 1082.56 185.959 1081.89 189.37C1081.11 194.26 1081.22 195.22 1079.89 197.07C1078.56 198.92 1078.23 200.26 1077.28 199.48C1076.33 198.7 1074.78 197.07 1074.78 197.07Z" fill="#3F312E"/>
<path d="M1091.18 200.82C1089.84 196.15 1087.51 191.93 1088.18 187.48C1088.85 183.03 1086.63 178.6 1089.4 168.15C1092.17 157.7 1092.74 156.04 1093.29 151.82C1093.84 147.6 1093.85 146.93 1093.85 150.37C1093.69 155.514 1092.94 160.624 1091.63 165.6C1090.28 169.574 1089.57 173.735 1089.52 177.93C1089.4 182.93 1090.19 186.93 1090.91 192.04C1091.26 194.883 1092.08 197.647 1093.33 200.22L1091.18 200.82Z" fill="#3F312E"/>
<path d="M1101.06 140.3C1101.51 146.82 1101.52 150.37 1102.4 157.48C1103.28 164.59 1104.02 164.48 1103.4 171.93C1102.78 179.38 1103.55 178.52 1101.03 186.22C1098.51 193.92 1097.48 193.34 1096.44 190.67C1095.4 188 1094.22 189.48 1094.96 185.48C1095.7 181.48 1097.33 180.09 1098.51 174.48C1099.69 168.87 1100.21 175.25 1100.03 161.77C1099.85 148.29 1098.66 147.99 1099.85 144.14L1101.06 140.3Z" fill="#3F312E"/>
<path d="M1101.8 69.7101C1103.65 68.3701 1103.06 67.2601 1105.88 67.4101C1108.7 67.5601 1110.62 68.0801 1112.17 70.0001C1113.72 71.9201 1113.95 72.0001 1114.69 74.6701C1115.06 76.1793 1115.53 77.6625 1116.1 79.1101C1116.47 80.0001 1114.32 78.4501 1113.88 77.1101C1113.44 75.7701 1113.06 72.3001 1111.21 71.3401C1109.36 70.3801 1106.47 69.4101 1104.69 69.7101C1103.73 69.894 1102.75 69.894 1101.8 69.7101Z" fill="#845B52"/>
<path d="M1119.63 60.6001C1121.39 61.1501 1121.79 59.6001 1123.37 62.4801C1124.95 65.3601 1124.95 64.4801 1125.84 68.8901C1126.73 73.3001 1126.62 73.6001 1127.17 74.7101C1127.72 75.8201 1125.28 73.2601 1124.84 71.3701C1124.4 69.4801 1124.72 68.7101 1123.44 65.8201C1122.16 62.9301 1123.28 63.2601 1120.95 62.2601C1118.62 61.2601 1119.63 60.6001 1119.63 60.6001Z" fill="#845B52"/>
<path d="M1124.78 84.1503C1125.78 82.9303 1125.39 82.4803 1127.62 82.6003C1129.85 82.7203 1129.95 82.8603 1130.56 83.3603C1131.17 83.8603 1130.67 84.5403 1129.67 84.5403C1128.67 84.5403 1128.89 83.9303 1127.25 84.5403C1126.85 84.738 1126.4 84.8066 1125.95 84.7368C1125.51 84.667 1125.1 84.4621 1124.78 84.1503Z" fill="#845B52"/>
<path d="M1126.84 88.8203C1129.01 87.3203 1128.65 86.9803 1130.84 87.2603C1133.03 87.5403 1133.18 86.9503 1133.68 88.0003C1134.18 89.0503 1134.57 90.0003 1133.68 90.0003C1132.72 89.995 1131.77 89.8844 1130.84 89.6703C1129.29 89.3903 1128.23 89.1203 1127.26 89.4503C1126.29 89.7803 1126.84 88.8203 1126.84 88.8203Z" fill="#845B52"/>
<path d="M1107.06 84.9803C1107.52 84.9803 1107.89 84.6087 1107.89 84.1503C1107.89 83.6919 1107.52 83.3203 1107.06 83.3203C1106.6 83.3203 1106.23 83.6919 1106.23 84.1503C1106.23 84.6087 1106.6 84.9803 1107.06 84.9803Z" fill="#EAAF93"/>
<path d="M1087.88 119.26C1090.99 116.6 1095.43 114.59 1098.99 110.04C1102.55 105.49 1103.28 105.04 1108.32 99.4402C1113.36 93.8402 1112.91 95.0602 1114.84 91.4402C1116.77 87.8202 1115.73 88.2802 1117.84 85.3202C1119.95 82.3602 1119.77 81.6102 1122.84 83.3902C1125.91 85.1702 1129.84 91.9802 1134.1 95.6902C1138.36 99.4002 1145.21 101.46 1148.32 106.69C1151.43 111.92 1154.99 116.32 1154.54 119.28C1154.09 122.24 1154.84 120.91 1148.02 122.39C1141.2 123.87 1133.65 128.32 1129.36 130.39C1125.07 132.46 1125.51 134.69 1119.58 135.28C1113.65 135.87 1113.36 136.47 1108.32 131.87C1103.28 127.27 1099.58 124.02 1096.47 122.54C1093.36 121.06 1087.88 119.26 1087.88 119.26Z" fill="#A47261"/>
<path d="M1109.65 160.89C1112.91 153.63 1109.36 157.19 1113.8 148.74C1118.24 140.29 1117.36 139.47 1118.39 135.66C1119.42 131.85 1124.02 125.78 1131.88 123.41C1139.74 121.04 1144.17 116.78 1148.32 120.1C1152.47 123.42 1154.03 128.74 1154.58 137.34C1155.13 145.94 1153.36 145.63 1152.91 156.6C1152.46 167.57 1146.39 204.6 1149.21 217.34C1152.03 230.08 1151.88 231.11 1153.36 239.85C1154.84 248.59 1160.62 249.04 1153.21 251.26C1145.8 253.48 1149.8 255.26 1137.8 254.67C1125.8 254.08 1122.54 255.26 1119.14 250.67C1115.74 246.08 1111.28 244.89 1106.39 246.97C1101.5 249.05 1102.69 251.11 1097.21 249.63C1091.73 248.15 1088.62 253.04 1087.28 247.11C1085.94 241.18 1086.54 243.26 1084.76 239.41C1082.98 235.56 1079.58 238.22 1083.76 231.26C1088.76 223.135 1092.86 214.491 1096 205.48C1100.6 192.89 1101.19 187.71 1103.71 179.41C1106.23 171.11 1109.65 160.89 1109.65 160.89Z" fill="#523E3B"/>
<path d="M1132.17 177.34C1131.43 185.48 1130 193.04 1133.38 200.45C1136.76 207.86 1132.68 209.45 1140.47 213.34C1148.95 217.6 1150.35 221.57 1149.75 219.81C1148.93 216.767 1148.49 213.632 1148.46 210.48C1148.53 208.15 1149.21 204.3 1147.14 202.97C1145.07 201.64 1142.69 202.52 1140.62 198.97C1138.55 195.42 1137.77 195.97 1136.08 188.3C1134.39 180.63 1134 179.41 1133.38 177.3C1132.76 175.19 1132.17 177.34 1132.17 177.34Z" fill="#493736"/>
<path d="M1118 153.63C1122.3 152.3 1128.67 152.15 1129.7 148.15C1130.73 144.15 1122 142.22 1123.85 138.97C1125.7 135.72 1128.85 133.19 1132.85 130.52C1136.85 127.85 1137.24 123.52 1144.28 123.47C1151.32 123.42 1150.43 121.06 1151.71 124.06C1152.99 127.06 1153.08 136.89 1151.71 143.41C1150.34 149.93 1152.85 156.3 1148.41 163.41C1143.97 170.52 1138.04 175.11 1133.89 178.82C1129.74 182.53 1131.23 184.3 1128.56 182.52C1125.89 180.74 1124 180 1121.32 173.93C1118.64 167.86 1114.63 165.34 1116.26 160.6C1117.11 158.352 1117.69 156.013 1118 153.63Z" fill="#664A41"/>
<path d="M1117.28 90.0802C1121.51 89.4102 1122.99 87.8502 1124.39 89.5602C1125.79 91.2702 1127.39 92.4502 1125.51 92.0802C1123.63 91.7102 1124.02 91.3402 1120.51 91.4802C1117 91.6202 1117.28 90.0802 1117.28 90.0802Z" fill="#93665A"/>
<path d="M1109.65 110.6C1112.65 113.11 1108.99 114.37 1116.32 113.11C1123.65 111.85 1125.21 111.81 1125.88 113.61C1126.55 115.41 1126.17 117.11 1124.54 117.34C1122.91 117.57 1120.08 116.6 1115.79 116.52C1111.5 116.44 1110.39 117.63 1109.36 115.19C1109.06 114.452 1108.93 113.657 1108.98 112.862C1109.03 112.068 1109.26 111.295 1109.65 110.6Z" fill="#93665A"/>
<path d="M1097.8 120.1C1102.54 120.15 1098.39 120.1 1105.36 121.19C1112.33 122.28 1110.99 123.71 1118.36 121.71C1125.73 119.71 1124.66 119.62 1130.73 117.37C1136.8 115.12 1136.06 114.3 1140.36 114.6C1144.66 114.9 1145.18 115.78 1145.18 116.08C1145.18 116.38 1143.92 117.41 1141.32 117.85C1138.72 118.29 1139.03 116.6 1132.66 119.71C1126.29 122.82 1124.88 123.48 1121.51 124.52C1118.14 125.56 1117.77 127.78 1112.51 126.97C1107.25 126.16 1104.21 125.11 1102.36 123.97C1100.51 122.83 1097.84 121.27 1097.84 120.88L1097.8 120.1Z" fill="#93665A"/>
<path d="M1123.73 108.52C1127.58 109.11 1125.51 111.23 1131.28 109.06C1137.05 106.89 1138.69 105.93 1140.62 105.63C1142.15 105.442 1143.7 105.621 1145.14 106.15C1146.02 106.45 1145.73 108 1143.58 108.15C1141.72 108.14 1139.86 108.448 1138.1 109.06C1135.43 109.93 1133.21 111.26 1131.28 111.48C1129.35 111.7 1126.69 112.74 1125.36 111.48C1124.54 110.675 1123.97 109.645 1123.73 108.52Z" fill="#93665A"/>
<path d="M1125.06 159C1125.8 161.66 1123.73 161.37 1126.91 163.14C1130.09 164.91 1130.99 165.59 1130.99 166.03C1130.99 166.47 1125.99 165.96 1125.06 165.03C1124.13 164.1 1122.25 162.81 1122.91 161.18C1123.33 160.213 1124.1 159.436 1125.06 159Z" fill="#5E443D"/>
<path d="M1127.58 152.08C1126.76 155.08 1125.07 154.6 1126.88 157.19C1128.69 159.78 1127.73 160.74 1130.17 161.41C1132.61 162.08 1132.47 162.3 1134.69 162.08C1136.91 161.86 1136.47 160.6 1135.06 160.45C1133.65 160.3 1131.65 160.67 1130.47 159.45C1129.29 158.23 1128.17 157.08 1128.1 155.23C1128.06 154.163 1127.88 153.105 1127.58 152.08Z" fill="#5E443D"/>
<path d="M1130.69 152.08C1130.39 154.15 1129.95 155.72 1132.02 157.08C1134.09 158.44 1135.19 158.78 1136.24 158.18C1137.29 157.58 1137.65 156.7 1136.54 156.48C1135.43 156.26 1133.65 156.85 1132.76 155.89C1131.87 154.93 1131.03 153.49 1131.16 152.83C1131.19 152.669 1131.16 152.502 1131.07 152.363C1130.99 152.224 1130.85 152.123 1130.69 152.08Z" fill="#5E443D"/>
<path d="M1131 140.22C1131.07 142.22 1128.92 142.22 1133.44 143.34C1137.96 144.46 1138.44 145.71 1140.18 144.67C1141.92 143.63 1142.03 142.54 1140.92 142.67C1139.81 142.8 1137.19 143.59 1136.09 143C1134.99 142.41 1134.09 142.92 1133.09 141.51C1132.09 140.1 1131 140.22 1131 140.22Z" fill="#5E443D"/>
<path d="M1110.84 180.74C1108.76 186.37 1105.65 193.63 1105.06 202.08C1104.47 210.53 1103.43 211.85 1103.28 218.08C1103.13 224.31 1101.36 224.15 1102.39 229.48C1103.42 234.81 1105.06 238.08 1104.62 241.04C1104.18 244 1104.01 245.28 1102.07 247.26C1099.31 250.08 1100.72 250.26 1098.8 250C1096.88 249.74 1099.28 245.48 1100.47 244.45C1101.66 243.42 1102.39 234.97 1101.95 232.89C1101.51 230.81 1100.17 226.82 1100.32 221.89C1100.47 216.96 1100.17 213 1101.32 206.63C1102.47 200.26 1103.39 193.44 1104.13 191.07C1104.87 188.7 1105.02 185.65 1107.13 183.18C1109.24 180.71 1110.84 180.74 1110.84 180.74Z" fill="#493736"/>
<path d="M1121.23 178.37C1118.99 183.71 1117.89 196.6 1119.33 204.45C1120.77 212.3 1120.33 218.97 1122.77 222.08C1125.21 225.19 1129.46 225.93 1126.07 229.78C1122.68 233.63 1122.88 231.26 1121.23 236C1119.58 240.74 1116.47 241.19 1120.02 244.15C1123.57 247.11 1129.59 250.22 1130.43 251.85C1131.07 252.937 1131.97 253.848 1133.05 254.5C1133.05 254.5 1135.51 254.57 1135.23 254.5C1134.23 254.24 1127.36 245.63 1126.88 244.6C1126.4 243.57 1125.82 238.08 1125.88 236.6C1125.94 235.12 1130.54 228.45 1130.54 227.26C1130.54 226.07 1127.66 220 1126.88 217.93C1126.1 215.86 1120.8 201.93 1121.23 191.26C1121.66 180.59 1121.23 178.37 1121.23 178.37Z" fill="#493736"/>
<path d="M1085.36 235.26C1087.73 234.52 1089.65 231.26 1089.8 235.26C1089.95 239.26 1087.28 237.48 1089.8 242.26C1092.32 247.04 1094.36 250.5 1092.28 249.36C1091.12 248.695 1090.12 247.78 1089.36 246.681C1088.6 245.583 1088.1 244.329 1087.88 243.01C1087.2 240.376 1086.36 237.787 1085.36 235.26Z" fill="#493736"/>
<path d="M236.799 35.9999C237.539 33.7799 240.499 12.2999 255.459 14.8199C270.419 17.3399 271.459 22.1699 270.869 25.3099C270.472 27.3954 269.875 29.4381 269.089 31.4099C268.349 33.6299 267.169 32.5999 267.319 34.5199C267.469 36.4399 270.129 39.8499 268.949 41.3399C267.769 42.8299 266.869 40.8899 266.719 42.8199C266.569 44.7499 267.719 44.74 265.539 46.08C263.359 47.4199 262.719 45.6299 263.169 48.2999C263.619 50.9699 264.059 53.9299 261.239 54.0799C258.73 54.3337 256.199 53.9233 253.899 52.8899C251.019 51.7099 252.899 50.5199 251.019 51.7099C249.139 52.8999 244.649 55.1099 240.209 47.9999C235.769 40.8899 236.799 35.9999 236.799 35.9999Z" fill="#BC896A"/>
<path d="M233.386 36.5699C232.796 32.1199 231.016 33.3099 232.496 26.0499C233.976 18.7899 240.496 8.70994 246.576 7.99994C251.853 7.22754 257.235 8.28632 261.826 10.9999C266.126 13.5099 271.906 15.8799 273.686 19.1399C275.466 22.3999 276.206 25.9599 274.686 27.8799C273.166 29.7999 272.686 31.2899 270.956 32.4799C269.226 33.6699 267.876 32.0299 268.176 30.1099C268.476 28.1899 270.396 25.9599 269.056 24.0299C267.716 22.0999 266.686 19.4399 265.206 19.0299C263.726 18.6199 262.686 17.3999 262.096 19.6199C261.506 21.8399 261.656 23.4699 260.616 25.5399C259.576 27.6099 259.876 29.2499 257.056 28.3599C254.236 27.4699 252.316 25.2499 250.986 24.9499C250.538 24.8311 250.071 24.8021 249.612 24.8647C249.153 24.9272 248.711 25.08 248.311 25.3143C247.911 25.5485 247.562 25.8596 247.283 26.2296C247.004 26.5996 246.801 27.0211 246.686 27.4699C245.946 29.9899 244.766 28.4699 245.946 31.9099C247.126 35.3499 247.876 36.2099 246.686 36.6599C244.496 37.242 242.272 37.6862 240.026 37.9899C238.096 38.2799 236.466 38.5799 235.426 37.9899C234.386 37.3999 233.386 36.5699 233.386 36.5699Z" fill="#4F3924"/>
<path d="M251.869 51.1999C251.629 50.1999 259.709 43.0099 262.929 43.1199C266.149 43.2299 266.469 43.4499 266.799 43.9899C267.569 45.2399 265.149 46.9099 263.369 46.6599C263.065 47.9467 263.099 49.2903 263.469 50.5599C264.039 53.1799 263.799 55.6799 258.469 54.0899C253.139 52.4999 252.259 52.8299 251.869 51.1999Z" fill="#4F3924"/>
<path d="M234.086 39.34L235.426 35.79C238.081 36.8418 240.367 38.6542 241.996 41C244.666 44.89 247.786 48.33 249.336 51.67C250.802 54.4991 251.666 57.6007 251.876 60.78C252.106 64.22 252.446 70.33 252.446 70.33C252.446 70.33 248.076 56.56 238.446 48.11L234.086 39.34Z" fill="#373327"/>
<path d="M251.729 29.37C252.209 28.76 252.819 28.79 252.369 27.45C251.919 26.11 251.079 25 249.929 25C249.239 24.9832 248.562 25.1878 247.997 25.5837C247.432 25.9796 247.008 26.546 246.789 27.2C246.259 28.84 245.589 29.64 246.789 30.95C247.989 32.26 248.209 33.42 249.599 33.7C250.989 33.98 251.659 34.22 251.889 33.47C252.119 32.72 251.349 31.67 251.429 30.78C251.447 30.2962 251.548 29.8192 251.729 29.37Z" fill="#B2836B"/>
<path d="M250.126 57.1602C250.126 57.1602 257.976 65.4502 258.276 66.3402C258.576 67.2302 261.396 100.58 259.336 103.68C257.276 106.78 259.336 102.94 259.336 102.94L245.086 64.0002L250.126 57.1602Z" fill="#BFAD99"/>
<path d="M229.758 43.1199C230.758 41.0099 232.868 37.8999 234.208 37.1199C235.548 36.3399 242.208 43.2299 245.538 51.4499C248.868 59.6699 252.148 68.1199 253.838 71.8999L255.538 75.6799C255.538 75.6799 252.758 74.1199 249.868 68.8999C246.978 63.6799 248.498 62.5 240.978 53.5699C233.088 45.5699 229.758 43.1199 229.758 43.1199Z" fill="#C4A06E"/>
<path d="M228.161 94.127C231.606 95.7713 234.343 100.793 240.526 100.993C246.709 101.193 247 97.0823 247 97.0823C247 97.0823 244.748 80.1397 241.099 76.8511C237.449 73.5626 230.606 75.3624 229.956 76.8511C229.306 78.3399 226.142 87.55 226.006 90.0164C225.87 92.4828 228.161 94.127 228.161 94.127Z" fill="#C4A06E"/>
<path d="M228.5 211.08C228.5 211.08 237.09 212.86 239.91 212.57C242.73 212.28 245.24 213.01 246.13 207.57C247.02 202.13 249.69 192.57 250.13 190.68C250.57 188.79 252.6 182.38 252.77 179.42C252.94 176.46 252.35 169.94 251.91 169.79C251.47 169.64 240.65 168.9 240.65 168.9C240.65 168.9 234.43 180.9 233.83 182.23C233.23 183.56 230.58 201.05 230.43 202.38C230.28 203.71 228.5 211.08 228.5 211.08Z" fill="#A08748"/>
<path d="M225.086 210.79L239.906 212.57C239.906 212.57 239.016 225.16 237.386 233.31C235.756 241.46 234.716 248.86 235.316 255.82C235.916 262.78 233.996 263.23 237.996 266.05C241.996 268.87 240.516 271.38 247.476 272.57C254.436 273.76 254.476 271.97 258.296 273.31C258.296 273.31 262.146 273.38 261.626 276.31C261.106 279.24 253.706 279.86 251.926 280.16C250.146 280.46 234.516 280.23 231.186 280.16C227.856 280.09 220.516 277.94 220.516 277.94L221.996 210.79H225.086Z" fill="#3A372E"/>
<path d="M212.797 172.27C212.797 172.27 213.537 180.71 212.797 185.01C212.057 189.31 211.607 187.23 210.127 192.86C208.647 198.49 207.907 193.75 206.867 201.86C206.34 205.506 206.007 209.178 205.867 212.86V216.27L222.997 217.9C222.997 217.9 223.997 214.07 224.197 214.19C224.397 214.31 228.257 213.96 229.297 212.48C231.754 209.588 233.378 206.083 233.997 202.34C235.187 196.12 235.477 193.45 236.227 188.42C236.977 183.39 237.997 181.66 238.887 176.59C239.777 171.52 239.887 170.94 239.887 170.94L212.797 172.27Z" fill="#AE944A"/>
<path d="M204.349 213.45C204.349 213.45 203.909 254.19 204.349 260.45C204.653 266.371 204.59 272.306 204.159 278.22C203.909 281.34 202.869 285.22 203.319 286.52C203.769 287.82 224.059 291.35 242.319 289.16C242.319 289.16 246.849 286.37 243.029 283.11C239.209 279.85 239.029 280.89 234.759 279.11C230.489 277.33 227.949 276.6 225.579 273.19C223.209 269.78 222.759 270.08 222.909 267.11C223.059 264.14 223.799 262.67 222.909 261.78C222.019 260.89 221.909 261.34 222.169 258.22C222.429 255.1 222.909 231.85 222.909 228C222.909 224.15 224.269 214.37 224.259 214.22C224.249 214.07 204.349 213.45 204.349 213.45Z" fill="#3B3421"/>
<path d="M245.09 188.42C245.09 188.42 243 124.57 243 123.23C243 121.89 260.66 123.23 260.66 123.23C260.66 123.23 264.96 172.42 260.66 187.23L245.09 188.42Z" fill="#C4A06E"/>
<path d="M218.447 120.53L246.127 124.12V173.12C246.127 173.12 226.427 178.3 215.907 175.93C205.387 173.56 202.297 171.93 202.297 171.93C202.297 171.93 209.387 133.41 209.537 132.82C209.687 132.23 218.447 120.53 218.447 120.53Z" fill="#C4A06E"/>
<path d="M231.929 42.34C230.539 41.66 222.129 39.97 217.239 45.16C212.349 50.35 205.829 51.08 205.539 58.94C205.249 66.8 205.539 72.12 205.539 72.12C205.539 72.12 205.979 64.64 209.369 58.73C212.449 53.37 219.82 50.18 221 51C227.71 55.65 232.299 71.54 233.499 74.47C234.589 77.24 242.319 91.08 244.839 96.57C247.359 102.06 246.149 105.57 246.149 105.57L260.249 107.05C260.249 107.05 262.019 106.76 261.429 103.2C260.839 99.64 255.219 85.57 253.879 81.28C252.539 76.99 248.539 58.28 235.499 45.28C234.436 44.1552 233.237 43.1675 231.929 42.34Z" fill="#CAB69E"/>
<path d="M223.758 89.75C225.758 91.54 234.758 98.05 245.088 98.64C255.418 99.23 255.158 100.06 258.088 99.42C261.018 98.78 261.548 99.08 261.548 99.08C261.548 99.08 262.858 108.57 261.548 110.49C260.238 112.41 248.388 110.42 242.018 109.35C235.648 108.28 232.838 109.45 229.018 107.82C225.198 106.19 224.418 104.63 223.828 100.52C223.483 96.9393 223.46 93.3349 223.758 89.75Z" fill="#BFAD99"/>
<path d="M260.651 109.35C261.651 113.16 262.081 114.79 261.511 117.9C260.941 121.01 261.241 120.57 258.281 120.42C255.321 120.27 243.911 118.64 237.981 118.49C232.051 118.34 226.121 118.49 225.681 118.34C225.241 118.19 224.211 111.68 224.211 108.57C224.211 105.46 225.981 103.38 227.611 103.38C229.241 103.38 260.651 109.35 260.651 109.35Z" fill="#3A372E"/>
<path d="M226.579 123.23C225.829 120.23 224.799 117.01 226.579 115.97C228.359 114.93 258.829 118.08 260.079 118.49C261.329 118.9 262.669 125.6 261.509 126.94C260.349 128.28 226.579 123.23 226.579 123.23Z" fill="#BFAD99"/>
<path d="M205.409 166.19C205.409 166.19 200.499 119.82 202.999 96.0001C205.499 72.1801 203.299 60.5601 213.809 53.1001C224.319 45.6401 228.809 58.2201 230.699 65.1901C232.589 72.1601 235.579 74.9701 233.439 80.1901C231.299 85.4101 228.189 85.9701 227.439 91.4501C226.689 96.9301 224.439 99.6001 227.149 114.56C229.859 129.52 230.999 138.56 232.779 145.91C234.559 153.26 234.999 153.82 234.189 154.86C233.379 155.9 216.779 166.56 212.779 167.45C208.779 168.34 205.609 168.16 205.409 166.19Z" fill="#CEBBA5"/>
<path d="M206.867 166.49C208.447 163.502 211.054 161.186 214.207 159.97C218.316 158.27 222.608 157.051 226.997 156.34L232.547 155.23C232.547 155.23 232.087 157.45 227.797 159.23C223.507 161.01 218.997 164.05 215.287 164.86C211.577 165.67 206.867 166.49 206.867 166.49Z" fill="#2E2420"/>
<path d="M468.369 269.73C470.949 269.15 472.789 267.31 475.789 266.98C478.789 266.65 479.959 267.4 479.959 268.35C479.959 269.3 481.369 268.35 481.539 269.73C481.709 271.11 480.789 271.73 480.459 273.17C480.129 274.61 482.219 274.88 477.539 275.59C472.859 276.3 469.949 277.06 468.789 276.15C467.629 275.24 468.369 269.73 468.369 269.73Z" fill="#F7931E"/>
<path d="M472 271.73C474.58 271.31 478.42 270.48 479.42 269.9L472 271.73Z" fill="#CC7825"/>
<path d="M332.169 278.61C335.839 283.61 383.169 291.93 415.529 290.08C447.889 288.23 440.859 295.51 462.199 289.08L483.539 282.61C483.539 282.61 474.869 267.46 461.539 261.2C448.209 254.94 439.859 248.49 422.189 248.54C404.519 248.59 400.519 244.37 386.519 249.15C372.519 253.93 363.849 257.93 355.519 259.1C347.189 260.27 345.769 260.85 347.309 258.31C348.849 255.77 350.309 255.1 352.149 253.72C353.989 252.34 354.809 253.22 355.519 249.35C356.229 245.48 357.439 245.1 355.939 242.97C354.439 240.84 354.559 239.97 350.939 238.35C347.319 236.73 345.479 235.47 342.519 236.18C339.559 236.89 335.399 238.33 332.999 241C330.599 243.67 328.449 245 327.999 247C327.549 249 325.889 263.12 327.999 270.12C330.109 277.12 332.169 278.61 332.169 278.61Z" fill="white"/>
<path d="M344.34 241.14C344.341 240.954 344.306 240.77 344.236 240.598C344.165 240.425 344.062 240.269 343.931 240.137C343.8 240.005 343.644 239.9 343.472 239.829C343.3 239.757 343.116 239.72 342.93 239.72C342.649 239.718 342.373 239.8 342.138 239.955C341.904 240.11 341.72 240.331 341.611 240.59C341.502 240.849 341.472 241.135 341.526 241.411C341.58 241.687 341.714 241.941 341.912 242.141C342.111 242.34 342.364 242.477 342.639 242.532C342.915 242.588 343.201 242.56 343.461 242.453C343.721 242.346 343.944 242.164 344.1 241.93C344.256 241.696 344.34 241.422 344.34 241.14Z" fill="black"/>
<path d="M351.138 241.64C350.898 243.04 353.598 242.39 353.048 244.85C352.498 247.31 351.048 246.85 350.548 248.97C350.048 251.09 349.178 251.52 350.548 252.39C351.918 253.26 368.348 253.18 370.218 252.64C372.088 252.1 373.138 251.27 371.678 250.56C370.218 249.85 365.678 247.06 361.888 245.1C358.098 243.14 357.258 241.89 354.678 241.43C352.098 240.97 351.258 240.89 351.138 241.64Z" fill="#F7931E"/>
<path d="M439.78 278.73C439.28 281.15 437.28 283.23 438.2 284.4C439.12 285.57 437.86 287.32 442.62 286.4C447.43 285.458 452.303 284.873 457.2 284.65C462.45 284.4 463.04 284.23 467.45 284.15C471.86 284.07 475.12 284.07 478.04 282.69C480.681 281.586 483.218 280.247 485.62 278.69C488.79 276.61 489.21 276.27 490.21 274.94C491.21 273.61 491.79 272.61 488.79 273.44C485.79 274.27 476.87 275.69 472.21 276.36C467.55 277.03 466.62 277.27 461.21 278.36C455.8 279.45 449.63 280.73 445.46 279.88C441.29 279.03 439.78 278.73 439.78 278.73Z" fill="#F7931E"/>
<path d="M387.772 279.92C391.852 280.31 405.612 284.08 410.022 286.66C414.432 289.24 414.192 289.48 412.532 289.57C407.679 289.62 402.829 289.313 398.022 288.65C392.942 287.82 390.692 286.9 387.352 284.4C384.012 281.9 387.772 279.92 387.772 279.92Z" fill="#F2F2F2"/>
<path d="M414.279 249.89C418.609 249.56 420.859 248.64 425.359 249.39C429.859 250.14 432.299 249.47 437.959 251.56C443.619 253.65 444.029 253.23 450.029 256.64C453.018 258.203 455.817 260.105 458.369 262.31C459.869 263.48 458.949 264.81 456.449 264.81C453.949 264.81 447.949 264.64 444.449 263.39C440.949 262.14 432.949 259.39 428.279 257.89C423.609 256.39 424.359 256.23 418.609 255.23C412.859 254.23 409.269 254.79 409.939 253.05C410.609 251.31 414.279 249.89 414.279 249.89Z" fill="#F2F2F2"/>
<path d="M349.181 261.31C352.091 260.89 359.101 259.81 362.431 258.98C365.196 258.291 367.923 257.456 370.601 256.48C373.431 255.48 374.681 254.56 378.181 253.56C381.681 252.56 384.601 249.81 386.521 250.89C388.441 251.97 389.351 254.64 387.941 255.56C385.476 257.159 382.684 258.184 379.771 258.56C375.851 259.06 369.931 260.89 366.931 261.31C363.931 261.73 356.931 262.81 354.351 262.89C351.771 262.97 350.431 263.98 349.181 262.81C347.931 261.64 349.181 261.31 349.181 261.31Z" fill="#F2F2F2"/>
<path d="M335.789 260.5C336.169 258.73 335.669 258.28 337.559 256.67C339.449 255.06 338.679 253.93 342.559 253.05C346.439 252.17 348.449 252.17 349.219 252.5C349.989 252.83 349.329 253.95 348.889 254.28C348.449 254.61 345.889 255.67 345.609 257.62C345.329 259.57 345.499 259.62 346.219 260.84C346.939 262.06 346.829 263.38 345.999 263.84C344.294 264.375 342.493 264.539 340.719 264.32C339.279 264.1 336.159 264.26 336.049 262.82C335.939 261.38 335.789 260.5 335.789 260.5Z" fill="#F2F2F2"/>
<path d="M344 240.25L345.58 241.43C345.607 241.451 345.627 241.48 345.639 241.512C345.652 241.544 345.655 241.579 345.649 241.613C345.642 241.647 345.627 241.678 345.604 241.704C345.582 241.73 345.552 241.75 345.52 241.76L343.52 242.42L344 240.25Z" fill="black"/>
<path d="M445.367 284.75C447.197 283.9 450.947 281.98 454.117 281.9C457.287 281.82 456.027 280.06 459.787 281.9C461.506 282.818 463.32 283.546 465.197 284.07C462.321 284.45 459.427 284.676 456.527 284.75C453.197 284.73 445.367 284.75 445.367 284.75Z" fill="#CC7825"/>
<path d="M464.117 279.92C465.117 280.81 470.697 280.06 474.037 279.48C477.377 278.9 481.207 277.4 484.367 276.73C486.288 276.322 488.142 275.649 489.877 274.73" fill="#CC7825"/>
<path d="M382.001 93.9999C415.26 93.9999 442.221 78.9746 442.221 60.4399C442.221 41.9052 415.26 26.8799 382.001 26.8799C348.743 26.8799 321.781 41.9052 321.781 60.4399C321.781 78.9746 348.743 93.9999 382.001 93.9999Z" fill="#BDCCD4"/>
<path d="M347.742 67.4797C353.204 67.4797 357.632 63.0518 357.632 57.5897C357.632 52.1276 353.204 47.6997 347.742 47.6997C342.279 47.6997 337.852 52.1276 337.852 57.5897C337.852 63.0518 342.279 67.4797 347.742 67.4797Z" fill="white"/>
<path d="M352.171 55.9298C352.811 53.7498 351.521 52.2998 354.351 52.2998C357.181 52.2998 356.441 54.1798 359.751 57.5898C363.061 60.9998 364.751 62.1298 366.521 62.6998C368.291 63.2698 365.521 65.2798 362.411 65.1998C359.301 65.1198 351.771 66.4098 351.041 65.1998C350.311 63.9898 352.171 55.9298 352.171 55.9298Z" fill="#F7931E"/>
<path d="M414.783 51.6797H401.223C400.118 51.6797 399.223 52.5751 399.223 53.6797V70.2397C399.223 71.3443 400.118 72.2397 401.223 72.2397H414.783C415.887 72.2397 416.783 71.3443 416.783 70.2397V53.6797C416.783 52.5751 415.887 51.6797 414.783 51.6797Z" fill="#F2F2F2"/>
<path d="M399.223 52.1198C399.223 49.7912 400.148 47.558 401.794 45.9114C403.441 44.2649 405.674 43.3398 408.003 43.3398C410.331 43.3398 412.564 44.2649 414.211 45.9114C415.858 47.558 416.783 49.7912 416.783 52.1198C416.783 56.9998 399.223 56.9998 399.223 52.1198Z" fill="white"/>
<path d="M403.891 51.6599C405.057 51.6599 406.001 50.7153 406.001 49.5499C406.001 48.3846 405.057 47.4399 403.891 47.4399C402.726 47.4399 401.781 48.3846 401.781 49.5499C401.781 50.7153 402.726 51.6599 403.891 51.6599Z" fill="#CCCCCC"/>
<path d="M417.621 74.6797H419.051C419.515 74.6797 419.891 74.3036 419.891 73.8397V54.8497C419.891 54.3858 419.515 54.0097 419.051 54.0097H417.621C417.157 54.0097 416.781 54.3858 416.781 54.8497V73.8397C416.781 74.3036 417.157 74.6797 417.621 74.6797Z" fill="#F2F2F2"/>
<path d="M397.621 74.6797H399.051C399.515 74.6797 399.891 74.3036 399.891 73.8397V54.8497C399.891 54.3858 399.515 54.0097 399.051 54.0097H397.621C397.157 54.0097 396.781 54.3858 396.781 54.8497V73.8397C396.781 74.3036 397.157 74.6797 397.621 74.6797Z" fill="#F2F2F2"/>
<path d="M372.523 54.8896H386.843" stroke="white" stroke-miterlimit="10"/>
<path d="M383.532 58.9798L382.852 58.2498L386.462 54.8898L382.852 51.5298L383.532 50.7998L387.932 54.8898L383.532 58.9798Z" fill="white"/>
<path d="M387.932 65.8896H373.602" stroke="white" stroke-miterlimit="10"/>
<path d="M376.923 61.7998L377.603 62.5298L373.993 65.8898L377.603 69.2498L376.923 69.9798L372.523 65.8898L376.923 61.7998Z" fill="white"/>
<path d="M312.741 75.7799C311.271 74.7799 319.531 75.0399 321.191 70.8899C321.93 68.8388 322.939 66.8951 324.191 65.1099C324.982 66.9594 325.922 68.7418 327.001 70.4399C329.001 73.8499 321.631 81.8499 312.741 75.7799Z" fill="#BDCCD4"/>
<path d="M222.74 158.78C225.64 159.92 224.79 158.762 226.5 163.872C228 169.5 227 171 227 171C227 171 226.54 172.15 225.08 168.85C223.62 165.55 223.33 165.08 223.33 165.08C224.423 167.55 229.114 180.864 222.81 179C220.29 176.92 217.25 171.52 216.59 170.85C215.93 170.18 214 164.85 214 164.24C214 163.63 217.25 156.63 222.74 158.78Z" fill="#2E2420"/>
</svg>
