<svg width="1121" height="315" viewBox="0 0 1121 315" fill="none" xmlns="http://www.w3.org/2000/svg">
<g clip-path="url(#clip0_1019_688)">
<path d="M732.928 82.2602C729.378 76.2602 726.488 75.1502 727.818 72.7102C729.148 70.2702 732.488 68.6002 738.148 63.0402C743.808 57.4802 748.148 54.7102 752.598 53.8702C757.522 53.0797 762.502 52.6917 767.488 52.7102C771.708 52.7102 772.598 51.4802 771.928 54.9302C771.258 58.3802 770.378 57.2602 770.708 64.6002C771.038 71.9402 771.598 71.7102 771.038 74.4802C770.478 77.2502 770.488 82.6002 758.818 83.4802C747.148 84.3602 739.378 86.1502 736.258 84.4802C733.138 82.8102 732.928 82.2602 732.928 82.2602Z" fill="#A47261"/>
<path d="M731.929 78.71C729.709 75.71 729.039 76.71 729.149 74.6C729.259 72.49 728.489 72.04 731.039 71.26C733.589 70.48 735.379 68.93 737.709 70.43C740.039 71.93 740.599 72.04 742.259 74.82C743.919 77.6 744.929 77.15 744.709 79.71C744.489 82.27 740.259 84.26 737.709 83.37C735.159 82.48 733.709 82.48 733.039 80.93C732.735 80.159 732.363 79.4161 731.929 78.71Z" fill="#2E2420"/>
<path d="M760.488 63.4803C760.488 63.4803 763.148 62.6003 766.868 66.0003C770.588 69.4003 770.308 71.0003 770.198 72.1103C770.088 73.2203 769.978 72.5203 767.758 69.7603C765.538 67.0003 766.868 67.8903 764.088 66.1103C762.786 65.383 761.577 64.4998 760.488 63.4803Z" fill="#93665A"/>
<path d="M748.49 62.6C749.21 62.37 749.71 65.21 753.15 68.07C755.155 69.9182 757.419 71.4644 759.87 72.66C762.87 74.26 763.43 74.37 763.76 75.04C764.09 75.71 761.65 75.37 759.98 75.04C758.31 74.71 757.87 74.94 754.2 72.66C750.53 70.38 748.43 70.26 748.54 67.48C748.65 64.7 747.76 62.82 748.49 62.6Z" fill="#93665A"/>
<path d="M763.117 54.6702C764.707 54.4172 766.318 54.3167 767.927 54.3702C769.927 54.5202 770.147 53.7802 769.927 55.0402C769.577 56.3493 769.353 57.6886 769.257 59.0402C769.257 60.7402 769.147 60.8102 769.147 61.7402C769.147 62.6702 768.147 59.5202 765.887 57.7402C764.756 56.926 763.811 55.8793 763.117 54.6702Z" fill="#93665A"/>
<path d="M727.189 125.56C728.379 129.19 727.119 128.94 729.189 130.95C731.259 132.96 737.629 134.89 739.189 135.78C740.749 136.67 738.189 145.19 743.119 147.85C748.049 150.51 748.819 146.85 749.709 151.78C750.599 156.71 754.449 173.26 752.819 177.48C751.189 181.7 740.519 192.37 736.749 196.15C732.979 199.93 731.259 197.93 725.039 212.6C718.819 227.27 717.669 226.42 713.799 231.29C709.929 236.16 716.299 232.89 721.489 233.93C726.679 234.97 723.599 235.85 732.909 236.74C742.219 237.63 741.339 238.22 748.299 238.08C755.259 237.94 753.189 239.41 760.749 238.82C768.309 238.23 774.819 240.05 773.929 231.29C773.039 222.53 770.239 213.04 774.009 199.11C777.779 185.18 784.009 159.11 784.889 151.7C785.769 144.29 780.149 118.13 778.379 116.4C776.609 114.67 727.189 125.56 727.189 125.56Z" fill="#3F312E"/>
<path d="M649.485 124.45C650.485 121.45 650.375 118.04 653.775 117.54C657.175 117.04 690.775 118.22 695.405 122.22C700.035 126.22 699.555 147.56 700.075 152.89C700.595 158.22 698.665 163.56 698.965 169.48C699.265 175.4 697.475 173.78 700.075 184.3C702.675 194.82 707.555 210.22 706.515 220C705.475 229.78 703.115 230.82 708.295 244.45C713.475 258.08 715.555 258.08 716.145 265.45C716.735 272.82 720.595 275.08 711.705 274.94C702.815 274.8 699.855 275.94 689.625 275.68C679.395 275.42 684.295 274.05 669.625 273.75C654.955 273.45 638.225 275.97 632.005 274.49C625.785 273.01 623.705 277.49 625.775 270.05C627.845 262.61 627.555 253.9 629.185 247.97C630.815 242.04 632.445 223.23 636.005 215.53C639.565 207.83 639.255 210.79 640.885 199.97C642.515 189.15 642.375 188.42 642.965 183.38C643.555 178.34 649.485 124.45 649.485 124.45Z" fill="#523E3B"/>
<path d="M657.625 146.74C660.445 145.19 660.005 145.74 662.885 141.93C665.765 138.12 665.035 139.41 666.145 136.82C667.255 134.23 668.885 139.71 666.145 142.45C663.405 145.19 662.225 146.74 659.925 146.74H657.625Z" fill="#493736"/>
<path d="M694.375 160.93C694.815 168.93 693.765 164.48 693.565 177.6C693.365 190.72 693.705 189.37 693.035 192.71L692.375 196.04C692.375 196.04 694.035 197.82 695.145 193.54C696.255 189.26 696.035 188.82 696.485 180.15C696.935 171.48 694.375 160.93 694.375 160.93Z" fill="#493736"/>
<path d="M676.266 226.07C679.146 225.84 679.036 227.07 682.036 223.29L685.036 219.51C687.095 220.095 689.239 220.322 691.376 220.18C694.376 219.84 694.596 215.4 695.266 213.73C695.398 213.202 695.656 212.715 696.018 212.309C696.381 211.903 696.836 211.591 697.346 211.4C698.486 210.73 697.916 210.18 699.426 210.18C700.936 210.18 700.696 209.62 699.426 211.07C698.156 212.52 696.486 213.29 695.816 215.4C695.281 217.117 694.612 218.788 693.816 220.4C693.256 221.51 687.476 221.4 686.476 221.4C685.476 221.4 685.806 220.73 683.696 223.29C681.586 225.85 682.586 226.73 679.916 227.07C677.246 227.41 676.266 226.07 676.266 226.07Z" fill="#493736"/>
<path d="M729.922 142.84C735.702 144.15 736.922 146.28 745.182 142.84C753.442 139.4 755.652 138.26 755.252 137.2C754.562 135.35 754.372 138.37 750.662 138.52C746.952 138.67 746.892 139.52 742.662 138.08C738.432 136.64 736.912 136.02 733.802 137.2C730.692 138.38 729.922 142.84 729.922 142.84Z" fill="#2E2420"/>
<path d="M666.226 169.34C663.406 178.08 662.466 178.67 662.646 199.41C662.826 220.15 659.646 213.63 662.646 228.74C665.646 243.85 675.486 274 675.486 274C675.486 274 674.376 265.93 672.486 256.45C670.596 246.97 668.926 240.89 667.486 231.26C666.046 221.63 664.826 225.04 665.856 211.71C666.886 198.38 666.226 169.34 666.226 169.34Z" fill="#493736"/>
<path d="M675.577 196.52C676.467 205.8 676.327 214.69 675.577 226.98C674.827 239.27 674.097 237.5 675.577 250.1C677.057 262.7 679.457 274.4 679.457 274.4L677.677 274.18C677.243 273.012 676.99 271.784 676.927 270.54C676.767 265.35 673.927 251.72 673.357 244.47C672.787 237.22 671.726 227.47 672.916 220.47C674.106 213.47 673.137 201.35 674.137 197.35C674.835 194.321 675.373 191.256 675.747 188.17L675.577 196.52Z" fill="#493736"/>
<path d="M734.374 134.52C735.114 139.26 733.374 140.74 732.144 145.52C730.914 150.3 731.554 147.15 730.514 156.04C729.474 164.93 730.664 166.12 727.704 165.82C724.744 165.52 722.374 166.71 715.854 163.6C709.334 160.49 708.144 158.26 705.184 157.67C702.224 157.08 703.254 158.12 700.074 156.78C696.894 155.44 694.374 155.45 693.624 152.34C692.874 149.23 692.444 142.41 694.964 137.67C697.484 132.93 695.054 124.47 696.444 123.6C697.834 122.73 699.854 123.45 704.294 127.01C708.734 130.57 707.554 129.38 709.924 131.75C712.294 134.12 707.854 134.41 716.444 134.12C725.034 133.83 734.374 134.52 734.374 134.52Z" fill="#664A41"/>
<path d="M734.374 134.52C735.114 139.26 733.374 140.74 732.144 145.52C730.914 150.3 731.554 147.15 730.514 156.04C729.474 164.93 730.664 166.12 727.704 165.82C724.744 165.52 722.374 166.71 715.854 163.6C709.334 160.49 708.144 158.26 705.184 157.67C702.224 157.08 703.254 158.12 700.074 156.78C696.894 155.44 694.374 155.45 693.624 152.34C692.874 149.23 692.444 142.41 694.964 137.67C697.484 132.93 707.554 129.38 709.964 131.75C712.374 134.12 707.894 134.41 716.484 134.12C725.074 133.83 734.374 134.52 734.374 134.52Z" fill="#563E38"/>
<path d="M656.596 117.93C656.296 112.45 658.666 110.22 661.036 106.93C663.406 103.64 658.516 99.9299 664.886 91.2199C671.256 82.5099 675.116 80.9999 678.666 78.3699C682.216 75.7399 681.926 73.6299 684.446 73.6299C686.966 73.6299 690.376 78.3699 690.966 83.2599C691.556 88.1499 689.486 87.1099 691.706 91.4099C693.926 95.7099 694.516 94.6699 694.226 99.4099C693.936 104.15 691.406 102.82 693.336 107.85C695.266 112.88 697.336 111.85 697.336 116.74C697.336 121.63 697.776 122.22 698.666 126.37C699.556 130.52 700.886 131.85 699.406 136C697.926 140.15 698.226 143.56 696.886 145.34C695.546 147.12 693.626 148.6 693.336 145.34C693.046 142.08 694.076 140.15 691.706 137.63C689.336 135.11 688.446 134.22 682.816 132.74C677.186 131.26 679.256 129.48 676.446 130.67C673.636 131.86 671.116 134.82 666.076 131.41C661.036 128 658.376 128.3 657.486 123.11L656.596 117.93Z" fill="#A47261"/>
<path d="M657.625 114.23C659.625 110.52 657.855 110.15 661.375 108.97C664.895 107.79 668.965 106.22 675.115 109.04C681.265 111.86 684.835 113.28 685.495 116.4C685.849 117.746 686.043 119.129 686.075 120.52C686.075 120.52 683.925 113.71 679.255 112.37C674.585 111.03 670.865 109.11 667.035 110C663.205 110.89 661.155 110.93 660.145 112.89C659.135 114.85 658.815 116.08 659.255 116.74C659.695 117.4 657.625 114.23 657.625 114.23Z" fill="#93665A"/>
<path d="M660.146 122.82C659.706 119.56 657.486 116.6 660.146 112.89C662.806 109.18 662.226 108.45 666.226 108.3C670.226 108.15 670.666 108.6 675.706 111.11C680.746 113.62 683.406 111.85 684.596 116.6C685.786 121.35 686.076 121.93 683.596 123.85C681.116 125.77 681.816 127.06 677.076 128.1C672.336 129.14 667.966 130.26 666.746 128.93C665.526 127.6 666.186 126.26 664.186 125.37C662.744 124.68 661.388 123.824 660.146 122.82Z" fill="#2E2420"/>
<path d="M668.596 116.4C669.192 116.4 669.676 115.916 669.676 115.32C669.676 114.723 669.192 114.24 668.596 114.24C667.999 114.24 667.516 114.723 667.516 115.32C667.516 115.916 667.999 116.4 668.596 116.4Z" fill="#EAAF93"/>
<path d="M678.922 117.54C679.75 117.54 680.422 116.868 680.422 116.04C680.422 115.212 679.75 114.54 678.922 114.54C678.093 114.54 677.422 115.212 677.422 116.04C677.422 116.868 678.093 117.54 678.922 117.54Z" fill="#EAAF93"/>
<path d="M652.965 123.22C653.965 129.377 654.387 135.614 654.225 141.85C654.075 148.15 652.365 152.73 651.865 154.95C651.593 155.983 651.435 157.043 651.395 158.11C651.395 158.11 654.965 154.45 655.705 150.67C656.445 146.89 657.435 146.67 656.565 140.46C655.695 134.25 656.375 127.46 655.405 123.71C654.435 119.96 653.335 117.51 652.255 118.06C651.325 118.54 650.595 120.06 650.255 121.45C650.065 122.45 652.965 123.22 652.965 123.22Z" fill="#493736"/>
<path d="M629.188 182.37C629.928 178.52 632.297 181.19 632.188 172.74C632.078 164.29 629.237 164 632.188 155.85C635.137 147.7 634.107 141.93 638.407 135.41C642.707 128.89 642.258 125.34 645.958 123.26C649.658 121.18 651.737 120.89 653.217 122.37C654.697 123.85 655.737 132.89 655.438 137.19C655.388 140.578 654.992 143.952 654.258 147.26C653.068 153.34 651.737 153.34 651.438 157.93C651.138 162.52 650.438 161.34 651.888 166.67C653.338 172 653.517 169.67 651.438 172.3C649.358 174.93 646.897 181.3 642.357 183.56C637.817 185.82 637.518 186.97 633.958 185.48C630.398 183.99 629.188 182.37 629.188 182.37Z" fill="#664A41"/>
<path d="M630.773 181.85C631.87 180.383 633.225 179.128 634.773 178.15C637.473 176.15 637.693 175.63 641.543 174.22C645.393 172.81 646.143 172.41 648.883 171.52C651.623 170.63 652.783 170.02 652.653 170.52C652.523 171.02 645.513 182.69 640.883 184.27C636.253 185.85 636.693 186.52 634.323 185.07C631.953 183.62 631.033 183.4 630.993 182.52C630.953 181.64 630.773 181.85 630.773 181.85Z" fill="#2E2420"/>
<path d="M653.115 172.67C656.015 173.81 656.295 172.37 658.005 177.48C659.715 182.59 661.255 184.82 659.555 185.04C657.855 185.26 656.915 186.04 655.455 182.74C653.995 179.44 653.705 178.97 653.705 178.97C653.705 178.97 657.485 186.37 658.225 189.34C658.965 192.31 655.485 189.93 651.855 185.34L650.665 182.74C650.665 182.74 654.145 190.37 655.485 191.41C655.485 191.41 655.705 194.97 653.185 192.89C650.665 190.81 647.625 185.41 646.965 184.74C646.305 184.07 644.375 178.74 644.375 178.13C644.375 177.52 647.625 170.52 653.115 172.67Z" fill="#2E2420"/>
<path d="M651.473 118.76C652.343 120.38 660.473 133.48 665.773 138.08C671.073 142.68 673.553 145.19 678.313 149.93C683.073 154.67 685.313 154.93 690.223 158.93C693.391 161.408 696.312 164.187 698.943 167.23C701.623 170.18 704.003 167.07 704.003 163.37C704.003 159.67 704.743 156.85 701.483 154.78C698.223 152.71 695.753 147.2 693.053 144.48C690.353 141.76 687.343 137.3 683.053 134.78C678.763 132.26 667.823 132.26 663.973 127.52C660.123 122.78 657.303 119.52 656.563 117.89C655.823 116.26 651.643 118 651.473 118.76Z" fill="#483834"/>
<path d="M660.164 170.36C663.254 164.93 666.354 158.28 670.164 151.93C673.974 145.58 673.274 144.71 676.274 142.37C679.274 140.03 687.164 141.45 689.054 144.52C690.944 147.59 692.164 152.97 689.054 155.78C685.944 158.59 683.274 159.48 679.394 164.04C676.792 167.072 674.384 170.265 672.184 173.6C670.484 176 660.164 170.36 660.164 170.36Z" fill="#857779"/>
<path d="M677.422 147.26C680.592 143.56 682.802 138.97 685.472 137.78C688.142 136.59 686.962 137.04 689.472 140.78C691.982 144.52 695.692 143.78 691.992 148.04C688.292 152.3 684.372 155.6 683.072 154.71C681.772 153.82 677.422 147.26 677.422 147.26Z" fill="#584A4A"/>
<path d="M661.375 105.6C662.815 102.37 662.875 97.37 667.505 98.48C672.135 99.59 673.375 101.96 673.375 101.96C673.375 101.96 669.035 100.96 666.595 101.96C664.675 102.893 662.914 104.121 661.375 105.6Z" fill="#93665A"/>
<path d="M664.704 105.6C661.864 107.72 667.004 102.04 671.244 102.71C675.484 103.38 678.244 104.71 680.424 106.82C678.408 106.228 676.343 105.82 674.254 105.6C670.484 105.15 666.034 104.6 664.704 105.6Z" fill="#93665A"/>
<path d="M666.145 94.2598C667.485 91.8198 673.004 86.7098 678.354 90.9297C683.704 95.1497 683.625 96.4998 685.495 98.3298C685.495 98.3298 679.814 95.0397 677.424 93.8197C675.034 92.5997 675.705 91.4797 671.705 92.7097C667.705 93.9397 666.145 94.2598 666.145 94.2598Z" fill="#93665A"/>
<path d="M678.355 78.4801C681.815 77.6001 681.705 77.2601 684.255 78.4801C686.805 79.7001 687.255 80.8201 687.255 80.8201C687.255 80.8201 684.065 78.9301 682.175 78.7601C680.285 78.5901 678.355 78.4801 678.355 78.4801Z" fill="#93665A"/>
<path d="M690.938 107.45C695.117 111.19 697.488 113.08 696.888 117.54C696.288 122 696.167 123.54 696.087 124.24C696.007 124.94 696.818 118.63 694.378 114.54C692.997 112.297 691.845 109.922 690.938 107.45Z" fill="#93665A"/>
<path d="M679.754 130.54C684.424 129.6 693.144 128.08 694.374 126C694.374 126 694.114 128.48 690.934 129.93C687.754 131.38 688.624 132.16 684.484 131.82C680.344 131.48 679.754 130.54 679.754 130.54Z" fill="#93665A"/>
<path d="M638.223 151.37C642.593 150.11 644.443 148.18 647.483 150.11C649.168 151.115 650.609 152.481 651.703 154.11C649.111 152.417 646.056 151.575 642.963 151.7C641.376 151.741 639.789 151.631 638.223 151.37Z" fill="#5E443D"/>
<path d="M636.297 160.91C637.857 159.13 638.747 157.5 642.147 157.8C645.547 158.1 646.597 159.28 646.597 159.28C646.018 159.893 645.22 160.252 644.377 160.28C642.667 160.46 636.297 160.91 636.297 160.91Z" fill="#5E443D"/>
<path d="M632.395 156.41C633.585 155.08 633.955 154.19 636.615 154.12C638.146 153.973 639.692 154.175 641.135 154.71C641.521 154.914 641.918 155.098 642.325 155.26C642.325 155.26 640.025 155.45 637.955 155.6C635.885 155.75 632.395 156.41 632.395 156.41Z" fill="#5E443D"/>
<path d="M631.297 179.6C632.117 176.93 631.597 175.74 634.627 173.97C637.657 172.2 640.787 170.97 643.307 171.08L645.817 171.15C644.249 171.96 642.613 172.629 640.927 173.15C638.407 173.89 637.747 172.96 635.667 174.54C633.994 176.027 632.525 177.729 631.297 179.6Z" fill="#5E443D"/>
<path d="M839.149 70.71C835.929 65.04 835.259 70.48 834.259 62.04C833.259 53.6 830.038 53.04 833.598 50.82C837.158 48.6 839.929 46.6 844.709 43.37C849.489 40.14 850.489 38.15 854.929 36.82C859.53 35.5839 864.39 35.6984 868.929 37.15C872.709 38.48 874.709 36.15 877.039 36.48C879.369 36.81 880.379 35.37 880.039 39.93C879.699 44.49 878.038 47.71 875.818 51.04C873.598 54.37 873.258 55.82 874.708 59.04C876.158 62.26 877.258 62.37 876.708 65.15C876.158 67.93 875.038 68.93 875.818 70.71C876.598 72.49 864.259 75.15 858.709 75.93C853.159 76.71 853.039 78.93 846.929 75.82C840.819 72.71 839.149 70.71 839.149 70.71Z" fill="#A47261"/>
<path d="M835.258 62.2599C834.598 57.4799 832.818 52.7099 835.258 52.1499C837.698 51.5899 840.258 52.9299 843.148 55.3699C846.038 57.8099 849.258 59.2599 850.258 62.2599C851.258 65.2599 852.928 65.0399 851.378 67.0399C849.828 69.0399 849.818 70.7099 845.708 70.2599C841.598 69.8099 841.148 71.7099 839.488 68.5999C837.828 65.4899 837.038 64.1499 836.378 63.4799C835.984 63.093 835.61 62.6858 835.258 62.2599Z" fill="#2E2420"/>
<path d="M865.188 77.4302C865.338 72.7402 870.757 68.9102 873.188 68.8902C875.618 68.8702 879.708 73.7802 884.008 78.6702C888.308 83.5602 897.928 87.5602 900.008 92.6002C902.088 97.6402 900.748 104.89 901.338 108.6C901.928 112.31 895.408 116.6 890.228 114.97C885.048 113.34 884.338 115.97 883.278 109.78C882.815 106.29 881.967 102.863 880.748 99.5602C879.258 94.8202 879.408 92.4502 875.408 85.6302C873.192 81.6758 869.528 78.736 865.188 77.4302Z" fill="#664A41"/>
<path d="M852.008 112.74C861.928 111.26 871.558 106.94 873.338 115.32C875.118 123.7 875.708 127.71 873.038 140.74C870.368 153.77 865.628 174.37 864.148 180.3C862.668 186.23 862.668 220.89 862.818 227.11C862.968 233.33 863.258 234.97 857.628 236.3C851.998 237.63 854.628 237.48 848.628 238.67C842.628 239.86 842.258 240.6 838.108 239.85C833.958 239.1 830.258 241.93 830.258 233.34C830.258 224.75 830.548 205.63 832.628 196.74C834.708 187.85 842.548 125.97 846.548 120.1C848.179 117.512 850.004 115.051 852.008 112.74Z" fill="#523E3B"/>
<path d="M867.678 125C866.678 130.33 863.558 140.85 866.078 143.67C868.598 146.49 870.078 144.11 870.078 141.67C870.078 139.23 867.678 125 867.678 125Z" fill="#493736"/>
<path d="M860.375 112.56C860.665 115.56 859.775 117.56 862.815 120.78C865.855 124 865.705 123.97 869.035 124.48C872.365 124.99 875.745 126.71 876.355 123.15C876.965 119.59 876.115 116.93 876.355 114.63C876.595 112.33 874.965 110.85 871.255 110.63C867.545 110.41 863.925 109.37 862.005 110.71C860.085 112.05 860.375 112.56 860.375 112.56Z" fill="#584A4A"/>
<path d="M882.45 99.6299C883.29 96.6999 886.08 96.8899 889.19 100.37C891.953 103.333 895.005 106.013 898.3 108.37C900.6 110.08 900.82 112.6 897.04 113.26C893.26 113.92 893.04 115.11 889.78 113.41C886.52 111.71 885.34 112.41 884.38 108.08C883.42 103.75 882.01 101.19 882.45 99.6299Z" fill="#2E2420"/>
<path d="M862.009 112.6C864.269 109.85 868.3 110.89 868.52 108.45C868.74 106.01 870.97 106.45 867.93 105.34C864.89 104.23 863.56 104.82 863.71 103.71C863.86 102.6 862.769 101.85 865.759 101.85C868.12 101.955 870.464 102.29 872.759 102.85C874.609 103.14 876.54 102.57 878.9 101.85C881.26 101.13 882.31 99.5601 884.53 99.9301C886.75 100.3 889.199 101.56 889.939 103.11C890.679 104.66 891.94 106.97 890.39 108C888.355 109.138 886.049 109.701 883.719 109.63C881.199 109.63 880.719 109.71 878.309 111.85C875.899 113.99 874.679 115.56 872.979 116.15C871.45 116.867 869.71 116.999 868.089 116.52C866.089 115.93 863.64 116.37 862.9 114.89C862.16 113.41 860.969 113.85 862.009 112.6Z" fill="#2E2420"/>
<path d="M842.039 46.6001C844.489 46.6001 844.599 44.7101 847.209 48.1501C849.819 51.5901 850.039 53.1501 850.209 53.8701C849.123 53.1054 848.167 52.17 847.379 51.1001C846.5 49.7172 845.277 48.5868 843.829 47.8201C843.173 47.5088 842.569 47.0972 842.039 46.6001Z" fill="#93665A"/>
<path d="M852.867 42.8198C852.637 45.0398 851.867 46.7098 852.867 50.8198C853.867 54.9298 854.297 57.5398 856.027 59.9798C857.757 62.4198 859.247 63.5398 860.197 66.4298C861.147 69.3198 861.587 70.7598 861.637 72.3698C861.687 73.9798 862.747 74.5998 863.637 72.8198C864.527 71.0398 865.477 70.3198 864.527 66.5998C863.577 62.8798 863.637 61.3698 861.367 57.4798C859.097 53.5898 858.527 53.7098 856.747 49.5998C855.729 47.193 854.427 44.9168 852.867 42.8198Z" fill="#93665A"/>
<path d="M861.868 41.2598C863.698 44.0998 863.638 43.8198 865.868 48.8698C868.098 53.9198 867.478 54.6498 870.248 57.1498C873.018 59.6498 873.198 59.8698 873.478 60.3198C873.758 60.7698 871.368 61.8698 869.638 61.8198C867.908 61.7698 865.878 59.4298 865.178 56.9298C864.478 54.4298 863.528 53.0398 862.588 48.6498C862.025 46.2287 861.783 43.744 861.868 41.2598Z" fill="#93665A"/>
<path d="M869.707 39.3199C872.647 39.4799 872.707 38.3199 874.257 40.4299C875.807 42.5399 876.377 42.5399 876.207 44.4299C876.037 46.3199 875.487 45.7099 875.487 45.7099C875.487 45.7099 874.647 41.8699 873.207 41.2599C871.997 40.6951 870.827 40.0468 869.707 39.3199Z" fill="#93665A"/>
<path d="M866.32 41.6001C869.15 42.7601 870.04 42.7801 872.1 45.8001C874.16 48.8201 874.43 49.1001 874.76 49.9901C875.09 50.8801 874.25 50.3701 873.51 51.5401C872.77 52.7101 871.82 54.1501 871.82 54.8201C871.82 55.4901 869.99 52.4801 869.32 49.7601C868.846 47.8055 868.214 45.8926 867.43 44.0401C866.99 43.0001 866.32 41.6001 866.32 41.6001Z" fill="#93665A"/>
<path d="M881.988 94.9998C882.782 92.9296 884.359 91.2554 886.378 90.3398C889.928 88.5598 888.758 87.2298 892.208 88.3898C895.658 89.5498 896.988 89.7498 898.098 92.1298C898.596 92.8535 898.971 93.6542 899.208 94.4998C899.208 95.1698 897.928 91.5598 895.428 90.9998C892.928 90.4398 892.148 89.6198 890.598 90.2298C889.048 90.8398 886.538 91.5598 885.318 92.4998C884.098 93.4398 881.988 94.9998 881.988 94.9998Z" fill="#5E443D"/>
<path d="M883.277 96.2597C884.037 95.4264 884.964 94.7631 885.998 94.3133C887.032 93.8635 888.15 93.6374 889.277 93.6497C893.337 93.5997 896.107 93.9797 897.337 95.4797C898.143 96.7148 898.759 98.0629 899.167 99.4797C899.337 99.6497 896.997 97.0297 895.497 96.5897C893.497 95.9879 891.426 95.6517 889.337 95.5897C887.537 95.5997 883.277 96.2597 883.277 96.2597Z" fill="#5E443D"/>
<path d="M889.598 98.2598C892.208 98.7598 892.038 97.3698 894.318 99.8698C895.687 101.213 896.798 102.796 897.598 104.54C898.428 106.15 896.598 105.21 895.378 103.54C894.158 101.87 895.098 102.04 892.708 100.65C891.531 100.053 890.477 99.2428 889.598 98.2598Z" fill="#5E443D"/>
<path d="M863.26 141.71C862.38 148.6 856.14 161.26 856.04 181.26C855.94 201.26 851.38 209.93 852.54 222.15C853.7 234.37 853.82 237.35 853.82 237.35C853.82 237.35 863.26 236.27 862.59 232.99C861.92 229.71 856.35 213.71 857.81 202.82C859.27 191.93 859.71 175.71 861.6 163.26C862.724 156.132 863.279 148.926 863.26 141.71Z" fill="#493736"/>
<path d="M863.269 138.37C859.709 146.82 849.709 177.71 849.269 188.6C848.829 199.49 842.609 205.26 841.939 205.48C841.269 205.7 841.209 201.04 843.019 197.04C844.829 193.04 847.499 174.15 849.269 168.6C851.039 163.05 851.929 151.26 856.049 145.93C858.11 143.102 860.538 140.56 863.269 138.37Z" fill="#493736"/>
<path d="M773.339 74.7398C772.519 71.5598 772.969 65.4798 774.339 62.8898C775.709 60.2998 776.409 57.6698 780.409 54.8898C784.409 52.1098 783.409 52.7998 788.339 49.3898C793.269 45.9798 792.479 47.7598 794.929 45.0198C797.379 42.2798 797.299 42.0198 798.629 42.4598C799.959 42.8998 805.149 47.0898 806.409 51.1698C807.891 55.8297 808.719 60.6725 808.869 65.5598C808.869 70.2998 809.139 73.4198 808.359 76.2198C807.579 79.0198 802.499 83.5598 798.059 83.9298C793.619 84.2998 791.239 84.9298 784.799 83.4098C778.359 81.8898 775.099 79.8498 774.279 77.7798C773.869 76.7989 773.555 75.7809 773.339 74.7398Z" fill="#A47261"/>
<path d="M775.189 75.85C774.189 72.22 773.119 71.74 774.299 68.02C775.479 64.3 775.039 62.82 777.409 60.74C779.779 58.66 781.039 57.34 783.779 57.56C786.519 57.78 788.009 57.19 790.449 61.23C792.889 65.27 794.009 64.3 794.449 69C794.889 73.7 797.039 73.71 794.449 76.37C791.859 79.03 783.119 80.3 780.669 79.56C778.219 78.82 775.189 75.85 775.189 75.85Z" fill="#2E2420"/>
<path d="M787.039 72.1496C787.818 72.1496 788.449 71.5183 788.449 70.7396C788.449 69.9609 787.818 69.3296 787.039 69.3296C786.26 69.3296 785.629 69.9609 785.629 70.7396C785.629 71.5183 786.26 72.1496 787.039 72.1496Z" fill="#EAAF93"/>
<path d="M784.38 55.8497C786.89 55.8497 789.11 55.6597 791.11 57.5297C792.68 58.8598 794.098 60.3588 795.34 61.9997C796.6 63.7397 795.86 63.1597 797.49 65.2397L799.12 67.3097C799.001 65.9887 798.754 64.6824 798.38 63.4097C797.424 61.6613 796.334 59.9897 795.12 58.4097C794.031 57.0821 792.573 56.1076 790.93 55.6097C789.202 55.1485 787.418 54.9298 785.63 54.9597C784.3 54.9997 784.38 55.8497 784.38 55.8497Z" fill="#93665A"/>
<path d="M797.492 73.41C799.782 71.56 800.752 71.3 801.632 68.65C802.249 66.6735 802.664 64.6399 802.872 62.58C803.172 60.82 803.392 59.48 803.392 59.48C803.392 59.48 804.132 59.64 804.392 61.23C804.652 62.82 805.272 63.23 804.902 66.11C804.532 68.99 805.132 69.85 803.272 71.71C801.412 73.57 801.792 74.71 799.792 74.71C797.792 74.71 797.492 73.41 797.492 73.41Z" fill="#93665A"/>
<path d="M798.27 44.0796C798.27 44.0796 799.68 44.0796 801.27 46.0796C802.86 48.0796 803.039 48.9696 803.039 49.0796C803.039 49.1896 802.44 48.5196 801.27 47.6296C800.141 46.5609 799.135 45.3703 798.27 44.0796Z" fill="#93665A"/>
<path d="M870.668 69.9302C867.558 70.2202 858.228 73.7802 853.778 74.6702C849.328 75.5602 789.038 74.0802 773.338 74.0802C757.638 74.0802 751.558 73.7802 742.078 77.6302C732.598 81.4802 723.258 89.0002 721.628 100.15C719.998 111.3 723.118 123.26 728.628 128.6C734.138 133.94 739.888 138.82 749.628 140C759.368 141.18 821.628 139.41 829.488 138.22C837.348 137.03 852.598 119.85 855.858 116.89L857.488 113.34C857.488 113.34 873.488 120.15 875.258 121.04C877.028 121.93 885.338 117.78 885.628 115.26C885.918 112.74 870.668 69.9302 870.668 69.9302Z" fill="white"/>
<path d="M760.136 74.1504C764.746 76.4504 772.886 83.5604 773.926 98.8204C774.966 114.08 770.226 140.36 770.226 140.36H767.706C767.706 140.36 771.256 123.53 771.556 117.45C771.856 111.37 772.556 104.45 772.446 99.0804C772.336 93.7104 771.706 91.0804 769.926 87.2304C768.146 83.3804 766.866 81.0004 764.006 78.6704C762.068 77.0761 760.037 75.5968 757.926 74.2404L760.136 74.1504Z" fill="#E6E6E6"/>
<path d="M741.037 132.65C740.717 130.51 741.037 127.54 742.317 126.71C743.597 125.88 746.817 126.26 750.817 127.98C754.817 129.7 756.317 130.21 756.927 131.21C757.245 131.829 757.411 132.514 757.411 133.21C757.411 133.906 757.245 134.591 756.927 135.21C756.257 136.65 756.927 137.54 754.317 137.15C751.479 136.857 748.672 136.318 745.927 135.54C742.427 134.48 741.317 134.48 741.037 132.65Z" fill="#382F3D"/>
<path d="M724.039 97.2601C724.299 96.2601 725.599 90.1901 728.039 88.5601C730.479 86.9301 735.189 90.0001 735.629 91.0001C736.069 92.0001 733.489 93.2201 731.009 96.4801C728.529 99.7401 728.859 100.37 727.559 99.4801C726.259 98.5901 724.039 97.2601 724.039 97.2601Z" fill="#382F3D"/>
<path d="M728.969 101.26C729.492 101.922 729.874 102.684 730.091 103.499C730.308 104.315 730.355 105.166 730.229 106L729.969 108.6C729.969 108.6 737.969 110.26 739.079 110.45C740.189 110.64 740.709 109.26 740.149 106.22C739.589 103.18 739.709 100.3 738.779 97.56C737.849 94.82 738.039 95 737.449 94.15C736.859 93.3 735.189 94.78 733.559 96.26C731.929 97.74 728.969 101.26 728.969 101.26Z" fill="#382F3D"/>
<path d="M727.508 117C728.061 116.034 728.549 115.032 728.968 114C729.456 113.03 729.793 111.992 729.968 110.92C730.058 110.5 729.778 110.22 731.058 110.61C732.338 111 736.808 112.47 738.168 112.86C739.528 113.25 740.108 113.25 739.948 114.19C739.537 115.951 739.026 117.687 738.418 119.39C737.968 120.53 736.528 123.75 735.998 124.69C735.468 125.63 735.388 125.92 734.198 124.69C733.008 123.46 731.448 122.75 729.858 120.56C728.268 118.37 726.618 118.6 727.508 117Z" fill="#382F3D"/>
<path d="M724.867 121C724.867 121 726.867 120 726.777 119.42C726.687 118.84 727.267 120 728.957 121.92C730.059 123.333 731.273 124.653 732.587 125.87C733.777 126.87 734.477 127.45 733.117 128.37C731.757 129.29 730.997 129.81 730.997 129.81C730.997 129.81 725.837 124.73 725.367 122.53C724.897 120.33 724.867 121 724.867 121Z" fill="#382F3D"/>
<path d="M724.948 114.56C726.495 114.56 727.748 111.632 727.748 108.02C727.748 104.408 726.495 101.48 724.948 101.48C723.402 101.48 722.148 104.408 722.148 108.02C722.148 111.632 723.402 114.56 724.948 114.56Z" fill="#3B2B2A"/>
<path d="M724.418 110.13C724.832 110.13 725.168 109.208 725.168 108.07C725.168 106.933 724.832 106.01 724.418 106.01C724.004 106.01 723.668 106.933 723.668 108.07C723.668 109.208 724.004 110.13 724.418 110.13Z" fill="#EFDCD5"/>
<path d="M794.447 112.9C785.757 112.9 778.707 106.66 778.707 98.97C778.707 91.28 785.757 85 794.447 85" fill="#E6E6E6"/>
<path d="M882.759 118.39C880.089 117.5 863.709 111.48 862.969 111.11C862.229 110.74 856.669 85.7102 856.519 84.6002C856.369 83.4902 870.669 69.9302 870.669 69.9302C868.82 70.2341 867.001 70.6924 865.229 71.3002L858.719 73.3002L852.719 85.3002L858.919 113.92L875.379 121.06C875.379 121.06 876.249 121.37 878.679 120.45C880.1 119.893 881.466 119.203 882.759 118.39Z" fill="#E6E6E6"/>
<path d="M879.869 96.39C879.647 98.2205 878.811 99.9214 877.496 101.214C876.181 102.507 874.467 103.315 872.633 103.507C870.799 103.698 868.954 103.261 867.401 102.267C865.848 101.273 864.678 99.7817 864.084 98.0364C863.489 96.2911 863.504 94.3956 864.127 92.6602C864.75 90.9248 865.944 89.4523 867.513 88.4838C869.082 87.5153 870.933 87.1082 872.764 87.3292C874.594 87.5501 876.296 88.386 877.589 89.7" fill="#E6E6E6"/>
<path d="M844.416 85.04H796.516C788.823 85.04 782.586 91.2767 782.586 98.97C782.586 106.663 788.823 112.9 796.516 112.9H844.416C852.109 112.9 858.346 106.663 858.346 98.97C858.346 91.2767 852.109 85.04 844.416 85.04Z" fill="#F2F2F2"/>
<path d="M796.447 104.03C799.241 104.03 801.507 101.765 801.507 98.9702C801.507 96.1756 799.241 93.9102 796.447 93.9102C793.652 93.9102 791.387 96.1756 791.387 98.9702C791.387 101.765 793.652 104.03 796.447 104.03Z" fill="#E6E6E6"/>
<path d="M812.965 86.1504H795.555V89.5604H812.965V86.1504Z" fill="#716152"/>
<path d="M800.596 86.3403H797.926V89.0103H800.596V86.3403Z" fill="#382F3D"/>
<path d="M808.118 86.48H805.598V89H808.118V86.48Z" fill="#382F3D"/>
<path d="M800.11 102.47C800.614 103.296 801.323 103.978 802.167 104.451C803.011 104.924 803.962 105.171 804.93 105.17H816.26C817.764 105.17 819.206 104.573 820.269 103.51C821.333 102.446 821.93 101.004 821.93 99.5002V98.1602C821.93 96.6565 821.333 95.2143 820.269 94.1509C819.206 93.0876 817.764 92.4902 816.26 92.4902H804.93C803.928 92.4893 802.943 92.7545 802.077 93.2587C801.211 93.763 800.494 94.4882 800 95.3602" fill="#382F3D"/>
<path d="M806.628 108.19H803.418V111.78H806.628V108.19Z" fill="#382F3D"/>
<path d="M757.926 85.0403L764.866 84.0903L766.226 87.8503L759.096 89.0003L757.926 85.0403Z" fill="#382F3D"/>
<path d="M759.375 91.6003C759.375 91.6003 761.985 97.7603 761.375 102.6H771.265C771.432 98.3274 770.514 94.0819 768.595 90.2603L759.375 91.6003Z" fill="#382F3D"/>
<path d="M761.258 104.87C761.733 106.693 761.888 108.584 761.718 110.46H770.718C770.999 108.607 770.999 106.723 770.718 104.87H761.258Z" fill="#382F3D"/>
<path d="M761.258 112.89C761.258 112.89 762.098 116.1 760.598 118.01H770.538C771.051 116.527 771.051 114.914 770.538 113.43L761.258 112.89Z" fill="#382F3D"/>
<path d="M759.867 120.1C760.054 121.869 759.746 123.656 758.977 125.26L768.917 125.55L769.527 120.71L759.867 120.1Z" fill="#382F3D"/>
<path d="M753.098 86.5504C754.027 87.582 754.608 88.8801 754.758 90.2604L757.378 89.8204L755.758 85.6504L753.098 86.5504Z" fill="#382F3D"/>
<path d="M828.447 107C830.817 103 832.447 98.3999 839.557 99.2899C846.667 100.18 842.837 120.29 844.747 128.18C847.037 137.63 842.747 143.71 842.257 154.83C841.767 165.95 840.867 187.41 838.867 194.22C836.867 201.03 834.727 198.82 835.317 205.34C835.907 211.86 832.647 229.04 835.317 234.22C837.987 239.4 838.567 247.85 838.717 252.89C838.867 257.93 837.387 260.6 832.497 262.52C827.607 264.44 831.017 266.52 822.277 265.93C813.537 265.34 816.497 265.04 808.497 265.34C800.497 265.64 797.087 266.34 796.197 264.89C795.307 263.44 791.017 245.63 791.197 239.56C791.377 233.49 792.967 226.22 796.827 215.41C800.687 204.6 804.527 149.93 805.417 145.48C806.307 141.03 827.487 125.38 828.087 117.48C828.397 113.996 828.517 110.497 828.447 107Z" fill="#523E3B"/>
<path d="M797.484 120.1C805.034 117.63 804.594 120.31 808.004 115.57C811.414 110.83 809.924 108.3 815.004 103.71C820.084 99.1202 824.184 99.2602 827.154 99.2602C830.124 99.2602 835.444 99.1102 835.294 104.89C835.144 110.67 835.444 109.19 832.634 116.3C829.824 123.41 831.894 127.23 827.634 130.95C823.374 134.67 827.194 132.89 820.824 135.85C814.454 138.81 813.824 142.22 807.114 139.11C800.404 136 797.484 120.1 797.484 120.1Z" fill="#664A41"/>
<path d="M808.378 86.93C808.258 81.04 805.038 79.6 809.038 78.37C813.038 77.14 812.818 79.15 815.708 78.37C818.598 77.59 819.258 74.04 827.598 71.26C835.938 68.48 838.258 68.15 845.598 68.15C852.938 68.15 852.378 64.71 852.928 68.15C853.478 71.59 854.488 74.93 852.928 79.04C851.368 83.15 849.038 81.37 850.708 87.48C852.378 93.59 853.148 93.71 853.708 98.26C854.268 102.81 855.208 105.37 854.548 109.71C853.888 114.05 853.878 114.37 853.208 115.48C852.538 116.59 848.208 106.04 843.098 103.71C837.988 101.38 833.548 99.37 829.098 100.26C824.648 101.15 818.548 103.15 815.438 105.6C812.328 108.05 811.768 110.71 811.438 108.6C811.108 106.49 810.988 103.37 811.768 101.37C812.548 99.37 814.208 99.37 812.768 96.82C811.328 94.27 808.378 86.93 808.378 86.93Z" fill="#A47261"/>
<path d="M809.038 81.4799C810.188 79.7599 810.488 77.8199 812.708 79.7099C814.928 81.5999 815.928 79.2599 815.598 84.9299C815.268 90.5999 816.288 95.3099 814.708 96.3699C813.128 97.4299 809.038 87.0399 809.038 84.2599C809.038 81.4799 808.698 81.9999 809.038 81.4799Z" fill="#2E2420"/>
<path d="M838.227 107.63C837.407 105.34 837.557 101.04 839.227 100.82C840.897 100.6 848.487 106.72 850.117 109.46C850.851 110.614 851.276 111.937 851.354 113.303C851.431 114.668 851.156 116.031 850.557 117.26C849.447 119.34 849.847 123.93 846.347 121.71C842.847 119.49 842.927 115.63 841.597 113.34C840.267 111.05 838.227 107.63 838.227 107.63Z" fill="#584A4A"/>
<path d="M843.557 124.89C843.487 121.19 843.357 116.6 846.307 116.82C849.257 117.04 851.487 121.63 851.487 125.48C851.444 128.946 851.217 132.408 850.807 135.85C850.377 140.67 851.927 142.6 848.807 142.67C845.687 142.74 844.127 139.92 843.917 136.93C843.707 133.94 843.557 124.89 843.557 124.89Z" fill="#584A4A"/>
<path d="M819.627 84.3699C818.517 82.0799 816.227 81.8499 817.407 80.1499C818.587 78.4499 817.777 78.8899 820.407 77.5599C823.037 76.2299 823.067 74.2199 823.287 76.8199C823.507 79.4199 824.107 81.8199 822.847 84.3699C821.587 86.9199 820.697 86.4499 819.957 89.1899C819.217 91.9299 819.067 92.5999 819.217 94.0799C819.367 95.5599 817.807 94.1499 817.887 91.7099C817.951 89.779 818.35 87.8739 819.067 86.0799L819.627 84.3699Z" fill="#93665A"/>
<path d="M814.297 102.15C816.597 99.5601 818.597 98.0001 820.007 95.4801C821.417 92.9601 825.337 85.8501 826.297 82.8901L827.297 79.8901C827.574 80.4676 827.717 81.0998 827.717 81.7401C827.717 82.3805 827.574 83.0127 827.297 83.5901C826.297 85.4401 823.597 91.3701 822.707 92.8501C821.76 94.6279 820.708 96.3476 819.557 98.0001C818.077 100 814.297 102.15 814.297 102.15Z" fill="#93665A"/>
<path d="M822.445 95.26C826.375 93.63 829.625 92.52 832.225 90.26C834.825 88 834.865 89 835.865 86.52C836.475 85.281 836.705 83.8893 836.525 82.52C836.525 82.52 838.375 85.67 837.745 87.69C837.142 89.0471 836.25 90.2559 835.13 91.2319C834.011 92.2078 832.692 92.9273 831.265 93.34C828.515 93.85 822.445 95.26 822.445 95.26Z" fill="#93665A"/>
<path d="M830.598 94.6799C833.708 93.9999 833.598 92.6799 836.818 93.8499C839.561 94.9515 842.19 96.318 844.668 97.9299C847.038 99.3399 848.208 98.8799 850.808 100.81C853.408 102.74 854.808 106 854.808 106.67C854.808 107.34 854.558 104.52 850.808 102.97C848.019 101.773 845.316 100.386 842.718 98.8199C840.386 97.5042 837.877 96.5309 835.268 95.9299C832.518 95.2599 830.598 94.6799 830.598 94.6799Z" fill="#93665A"/>
<path d="M841.258 88.2998C841.858 90.9698 840.378 91.1898 843.858 93.9298C846.235 95.7206 848.792 97.2589 851.488 98.5198C853.408 99.6298 854.028 100.08 854.028 100.08C853.584 98.1317 852.438 96.4156 850.808 95.2598C848.148 93.4798 848.348 93.8498 845.508 91.7798C844.012 90.7204 842.592 89.5576 841.258 88.2998Z" fill="#93665A"/>
<path d="M842.297 69.4802C844.597 69.2602 850.447 67.9302 851.487 69.1902C852.417 70.5434 852.931 72.1387 852.967 73.7802C852.967 74.8902 850.667 71.7802 848.747 71.2202C846.827 70.6602 842.297 69.4802 842.297 69.4802Z" fill="#93665A"/>
<path d="M811.336 112C811.336 112 813.926 108.67 817.556 109.63C821.186 110.59 822.376 112.89 822.446 113.41C822.516 113.93 820.766 111.92 818.306 111.56C815.973 111.426 813.633 111.574 811.336 112Z" fill="#5E443D"/>
<path d="M810.516 113.5C810.516 113.5 813.976 112.3 815.656 113.78C817.443 115.494 818.892 117.53 819.926 119.78C821.186 122.28 820.146 123.78 818.926 122.28C817.706 120.78 816.926 118.49 814.856 116.79C812.786 115.09 810.516 113.5 810.516 113.5Z" fill="#5E443D"/>
<path d="M809.336 116.37C810.036 116.151 810.791 116.196 811.46 116.497C812.129 116.797 812.665 117.332 812.966 118C814.146 120.35 814.596 120.57 814.666 121.53C814.736 122.49 811.856 120.79 811.336 119.39C810.841 118.28 810.165 117.259 809.336 116.37Z" fill="#5E443D"/>
<path d="M836.039 113.5C836.039 113.5 834.929 137.71 833.149 146.26C831.369 154.81 827.149 156.15 826.379 153.71C825.609 151.27 828.059 148.6 830.159 142.04C832.259 135.48 836.039 113.5 836.039 113.5Z" fill="#493736"/>
<path d="M831.93 154.15C834.23 150.52 835.34 143.05 836.82 136.93C837.977 132.719 838.793 128.422 839.26 124.08C839.534 120.862 839.362 117.621 838.75 114.45C839.421 116.855 839.939 119.3 840.3 121.77C840.67 124.89 841.63 128.88 841.3 134.15C840.97 139.42 840.64 145.93 839.53 149.04C838.42 152.15 837.82 154.52 836.16 156.04C834.5 157.56 831.93 154.15 831.93 154.15Z" fill="#493736"/>
<path d="M817.93 154.8C818.758 160.226 819.229 165.701 819.34 171.19C819.453 174.726 819.874 178.246 820.6 181.71C820.6 181.71 821.41 175.71 821.41 173.26C821.41 170.81 821.34 169.04 820.97 163.26C820.6 157.48 817.93 154.8 817.93 154.8Z" fill="#493736"/>
<path d="M825.039 159C826.039 163.66 824.969 179.44 824.599 183.74C824.229 188.04 828.969 219.29 831.119 222.11C833.269 224.93 833.779 225.81 833.779 225.81C833.779 225.81 832.889 219.88 832.149 216.11C831.409 212.34 829.839 186.18 829.149 180.55C828.459 174.92 827.229 161.96 826.639 160.63C826.5 160.262 826.286 159.927 826.01 159.646C825.735 159.366 825.404 159.146 825.039 159Z" fill="#493736"/>
<path d="M831.93 162C831.93 162 832.38 173.93 833.34 181.71C834.3 189.49 837.63 187.85 837.63 185.19C837.63 182.53 836.63 177.26 836.04 172.97C835.45 168.68 831.93 162 831.93 162Z" fill="#493736"/>
<path d="M816.375 157.34C816.295 163.41 814.965 173.19 817.375 186.52C819.785 199.85 822.115 207.85 823.445 216.45C824.775 225.05 825.965 239.45 826.265 246.97C826.565 254.49 828.965 265.52 827.675 265.74C826.385 265.96 825.375 263.56 825.225 260.74C825.075 257.92 823.745 239.11 823.005 233.04C822.265 226.97 820.115 216.13 819.705 211.55C819.295 206.97 818.705 204.15 817.075 197.34C815.445 190.53 813.525 184.34 813.525 178.97C813.496 173.866 813.83 168.766 814.525 163.71C814.926 161.53 815.546 159.395 816.375 157.34Z" fill="#493736"/>
<path d="M818.308 265C817.628 259.37 816.158 245.74 816.378 238C816.598 230.26 816.748 230.59 817.378 222C817.378 222 817.658 216.94 817.378 211.47C817.098 206 817.378 208.07 817.378 208.07C817.378 208.07 819.018 221.4 819.018 225.7C819.018 230 817.828 235.33 818.018 240.07C818.208 244.81 818.608 251.77 819.018 257.7C819.428 263.63 820.448 265.7 820.018 265.7C819.42 265.542 818.845 265.307 818.308 265Z" fill="#493736"/>
<path d="M803.406 264.6C805.036 258.97 806.226 258.97 808.006 245.78C809.786 232.59 810.666 224.89 812.006 217.48C813.346 210.07 814.816 206.97 815.006 200.74C815.196 194.51 812.486 187.41 811.896 179.85C811.306 172.29 810.896 165.63 810.896 164.85C810.896 164.07 808.526 165.85 808.086 169.44C807.646 173.03 805.706 189.44 805.706 194.78C805.706 200.12 802.866 210.37 800.866 215.56C798.866 220.75 796.126 225.04 795.866 231.11C795.606 237.18 794.866 243.26 796.866 249.93C798.629 254.995 800.817 259.903 803.406 264.6Z" fill="#493736"/>
<path d="M816.375 124.08C816.375 124.08 820.675 123.26 822.445 127.08C824.215 130.9 824.355 133.08 824.145 133.68C823.935 134.28 822.375 128.57 820.295 127.08C818.215 125.59 816.375 124.08 816.375 124.08Z" fill="#5E443D"/>
<path d="M808.969 144.45C811.759 141.87 807.969 141.39 814.429 139.63C817.557 142.347 820.828 144.894 824.229 147.26C828.669 150.26 835.229 155.48 839.229 155.56C843.229 155.64 842.349 148.22 843.309 144.89C844.269 141.56 844.799 140.24 844.799 140.24C844.799 140.24 845.639 147.62 844.209 151.62C842.779 155.62 843.529 156.74 841.599 161.11C839.669 165.48 839.309 168.6 834.489 166.6C829.669 164.6 822.419 162 819.229 158.15C816.039 154.3 808.969 144.45 808.969 144.45Z" fill="#483834"/>
<path d="M821.777 119C824.227 122.14 825.487 123.77 826.227 126.29C826.967 128.81 827.227 130.44 827.227 130.44C827.615 129.169 827.761 127.836 827.657 126.51C827.457 124.51 826.567 121.3 825.307 119.79C824.047 118.28 821.777 119 821.777 119Z" fill="#5E443D"/>
<path d="M752.864 177.15C748.084 172.6 744.864 174.21 746.864 163.85C748.864 153.49 748.194 150.85 752.864 150.37C757.534 149.89 756.304 155.48 767.304 153.6C778.304 151.72 778.084 149.21 789.534 150.35C800.984 151.49 808.984 145.67 811.424 153.04C813.864 160.41 813.974 165.37 810.974 172.82C807.974 180.27 807.084 180.93 807.194 183.04C807.304 185.15 810.084 190.82 810.084 195.26C810.084 199.7 810.714 206.08 804.494 218.6C798.274 231.12 793.234 223.71 797.084 234.67C800.934 245.63 807.754 263.41 805.084 268.74C802.414 274.07 790.274 278.32 773.974 275.74C757.674 273.16 742.564 275.74 740.494 271.05C738.424 266.36 746.424 265.18 749.084 253.92C751.744 242.66 744.934 237.62 751.754 224.29C758.574 210.96 762.754 196.29 766.274 193.53C769.794 190.77 770.644 186.88 767.904 185.03C765.164 183.18 764.794 182.36 760.904 180.03C758.438 178.554 755.707 177.576 752.864 177.15Z" fill="#523E3B"/>
<path d="M764.923 151.48C763.703 146.6 760.483 138.82 762.483 130.48C764.483 122.14 765.703 118.26 768.373 116.71C771.043 115.16 777.703 120.26 783.033 120.1C788.363 119.94 789.703 118.71 797.143 119.26C804.583 119.81 803.143 118.6 808.703 120.1C814.263 121.6 816.373 120.93 814.373 127.37C812.373 133.81 810.813 132.87 810.703 136.57C810.593 140.27 813.143 143.07 814.143 148.39C815.143 153.71 816.403 153.6 815.143 157.71C813.883 161.82 810.513 164.15 806.953 163.82C803.393 163.49 792.283 156.37 786.403 154.82C780.523 153.27 780.623 151.71 773.513 152.15C766.403 152.59 764.923 151.48 764.923 151.48Z" fill="#A47261"/>
<path d="M759.773 165.48C763.333 166.6 764.073 167.11 770.293 167.19C776.513 167.27 777.773 167.19 777.773 167.19C777.773 167.19 774.003 169.63 770.963 169.63C767.923 169.63 766.143 170.37 763.113 168.63C760.083 166.89 759.773 165.48 759.773 165.48Z" fill="#493736"/>
<path d="M764.965 175.11C767.625 175.56 768.815 176.3 772.665 175.48C775.022 174.979 777.329 174.263 779.555 173.34C779.555 173.34 777.405 176.67 774.965 177.41C772.525 178.15 773.115 179.56 770.145 178.3C768.278 177.483 766.535 176.409 764.965 175.11Z" fill="#493736"/>
<path d="M766.223 155.48C769.717 162.374 774.017 168.829 779.033 174.71C784.703 181.04 782.703 182.6 787.703 183.6C792.703 184.6 795.253 185.6 795.813 181.71C796.373 177.82 795.923 174.93 792.703 170.04C789.483 165.15 790.593 165.37 785.033 159.37C779.473 153.37 780.933 152.08 775.153 151.72C773.475 151.615 771.795 151.899 770.246 152.551C768.697 153.204 767.319 154.206 766.223 155.48Z" fill="#857779"/>
<path d="M767.867 186.15C767.427 188.71 764.427 189.04 768.867 192.71C773.307 196.38 768.087 197.37 777.647 197.6C787.207 197.83 787.427 197.81 792.757 196.6C798.087 195.39 800.537 195.05 804.197 191.72C807.857 188.39 809.537 188.38 809.757 185.72C809.977 183.06 810.977 182.27 809.757 179.49C808.537 176.71 804.867 176.27 801.087 178.38C797.307 180.49 794.257 184.48 786.867 185C779.477 185.52 776.287 185.53 772.537 185.67C770.968 185.663 769.402 185.824 767.867 186.15Z" fill="#483834"/>
<path d="M792.483 186.48C795.033 189.6 795.243 187.9 797.803 195.36C800.363 202.82 801.593 205.6 802.483 210.93C803.373 216.26 803.583 217.48 803.363 220.59C803.143 223.7 808.113 224.48 810.293 219.26C812.473 214.04 815.003 217.26 813.183 210.26C811.363 203.26 808.373 195.93 806.703 191.04C805.033 186.15 808.373 185.93 806.033 182.04C803.693 178.15 790.273 181.04 791.263 184.19C792.253 187.34 792.483 186.48 792.483 186.48Z" fill="#857779"/>
<path d="M740.684 267.73C743.142 267.457 745.502 266.609 747.571 265.253C749.64 263.898 751.361 262.074 752.594 259.93C756.034 253.82 757.814 250.6 759.704 245.15C761.594 239.7 761.254 243.26 762.814 233.6C764.374 223.94 763.964 225.04 766.224 213.6C768.484 202.16 768.864 199.71 768.864 199.71C768.864 199.71 768.974 200.71 768.864 204.93C768.754 209.15 767.064 218.71 766.464 224.48C765.724 231.032 764.559 237.529 762.974 243.93C761.864 247.71 757.864 258.82 754.864 262.26C751.864 265.7 750.754 267.15 747.424 267.82C745.191 268.205 742.906 268.175 740.684 267.73Z" fill="#493736"/>
<path d="M773.376 210.07C772.036 213.93 768.466 218.26 768.866 224.71C769.266 231.16 771.146 247.15 773.926 254.26C776.706 261.37 778.146 264.71 779.596 267.15C781.046 269.59 784.796 276.51 784.796 276.51L779.646 276.4C779.206 274.9 775.376 265.4 774.376 263.04C773.376 260.68 769.136 248.37 768.866 245.93C768.596 243.49 767.376 229.6 767.376 228.37C767.376 227.14 767.256 217.15 769.926 213.71C772.596 210.27 773.376 210.07 773.376 210.07Z" fill="#493736"/>
<path d="M786.922 231.48C786.922 231.48 794.972 230.42 795.922 231.13L798.012 237.48L786.922 231.48Z" fill="#493736"/>
<path d="M785.754 233.6C790.644 235.54 792.424 235.93 795.254 238.71C797.43 240.755 799.237 243.16 800.594 245.82C801.093 246.743 801.531 247.699 801.904 248.68C801.904 248.68 797.034 243.6 794.984 241.37C792.934 239.14 785.754 233.6 785.754 233.6Z" fill="#493736"/>
<path d="M780.867 235.15C784.197 238.82 791.977 244.6 794.867 248.43C797.757 252.26 800.187 254.6 801.417 257.71C802.647 260.82 802.867 261.15 803.647 263.04C802.389 260.239 800.702 257.652 798.647 255.37C795.427 251.93 793.727 250.48 788.407 244.6C785.648 241.654 783.127 238.494 780.867 235.15Z" fill="#493736"/>
<path d="M771.312 127.71C771.092 125.26 772.092 122.48 773.092 121.65C774.092 120.82 776.532 123.6 777.982 123.98C779.432 124.36 778.532 126.21 775.312 127.04C772.092 127.87 771.312 127.71 771.312 127.71Z" fill="#93665A"/>
<path d="M772.482 134.15C771.982 131.6 769.482 132.15 772.482 130.54C775.482 128.93 777.092 128.54 778.372 127.72C779.652 126.9 779.372 129.26 778.652 132.1C777.932 134.94 779.922 137.67 775.812 140.63C771.702 143.59 771.032 143.93 769.922 144.15C768.812 144.37 769.752 142.76 771.032 141.21C772.312 139.66 774.372 138.65 773.812 136.57C773.252 134.49 772.482 134.15 772.482 134.15Z" fill="#93665A"/>
<path d="M784.205 121.5C782.485 124.37 780.425 126.5 780.205 130.37C779.985 134.24 780.435 135.48 779.875 136.98C780.427 136.627 780.874 136.131 781.168 135.545C781.462 134.959 781.592 134.304 781.545 133.65C781.375 131.37 780.825 129.26 782.325 126.82C783.288 125.184 783.926 123.378 784.205 121.5Z" fill="#93665A"/>
<path d="M785.625 146.15C789.335 146.6 790.775 147.41 796.015 146.74C801.255 146.07 801.855 146.74 805.015 145.48C806.488 144.962 807.902 144.292 809.235 143.48C808.985 144.645 808.364 145.698 807.465 146.48C805.985 147.74 796.725 150.2 792.795 149.27C790.259 148.604 787.841 147.552 785.625 146.15Z" fill="#93665A"/>
<path d="M790.223 155.19C794.238 154.192 798.389 153.854 802.513 154.19C807.703 154.64 808.373 154.64 810.293 156.27C812.213 157.9 811.703 159.9 810.813 160.12C809.923 160.34 807.033 159.23 804.223 158.27C801.157 157.32 798.005 156.673 794.813 156.34C793.232 156.197 791.684 155.809 790.223 155.19Z" fill="#93665A"/>
<path d="M936.599 123.15C933.379 124.48 935.489 125.48 931.489 126.37C927.489 127.26 926.039 129.26 926.039 126.37C926.039 123.48 927.149 121.6 928.259 118.6C929.369 115.6 927.379 116.26 930.039 111.48C932.699 106.7 932.559 108.04 933.689 104.37C934.819 100.7 933.689 99.9304 934.689 95.6004C935.689 91.2704 935.759 91.9704 934.799 87.1704C933.889 82.6204 934.259 81.7404 935.219 79.3804C936.179 77.0204 937.489 72.1404 941.219 71.8704C944.949 71.6004 948.309 72.1904 952.079 76.9304C955.849 81.6704 962.449 82.6104 959.889 87.9304C957.329 93.2504 948.669 107.6 944.109 112.26C941.108 115.521 938.58 119.187 936.599 123.15Z" fill="#2E2420"/>
<path d="M934.865 87.9302C933.975 84.4802 932.425 79.3702 935.865 74.7102C939.305 70.0502 939.534 70.6002 946.084 66.2602C952.634 61.9202 950.425 60.1502 956.535 59.2602C962.645 58.3702 963.425 55.1502 965.755 58.7102C968.085 62.2702 968.195 64.9302 968.645 69.7102C969.095 74.4902 969.644 73.2602 971.194 77.4302C972.744 81.6002 972.424 83.8202 974.194 86.3702C975.964 88.9202 977.755 89.7002 979.645 93.6502C981.535 97.6002 982.755 99.4802 982.755 101.82C982.755 101.82 961.085 102.37 957.755 99.8702C954.425 97.3702 953.534 97.0402 954.194 94.2602C954.854 91.4802 955.084 91.9302 956.194 90.0402C957.304 88.1502 958.755 86.7102 957.425 84.0402C956.095 81.3702 949.535 72.8202 946.425 72.6002C943.315 72.3802 941.644 71.0402 939.194 74.2602C936.744 77.4802 935.084 77.8202 934.974 81.3702C934.864 84.9202 934.865 87.9302 934.865 87.9302Z" fill="#93665A"/>
<path d="M938.147 123C938.147 127 938.817 125.89 935.927 132.89C933.037 139.89 931.707 142.78 929.597 145.56C926.801 149.509 924.904 154.021 924.037 158.78C923.147 164 915.597 173.33 914.487 179.56C913.377 185.79 912.487 181.33 912.037 185.11C911.587 188.89 910.927 191.89 913.707 194.78C916.487 197.67 917.997 201.56 925.127 201.22C932.257 200.88 933.257 201 936.037 199.11C938.817 197.22 937.927 200.11 942.147 195.56C946.367 191.01 956.257 164.44 958.817 157.33C961.377 150.22 963.257 151.44 963.377 142.56C963.497 133.68 966.517 134.44 960.497 128.89C954.477 123.34 950.147 120.44 944.707 121.11C939.267 121.78 938.147 123 938.147 123Z" fill="#493736"/>
<path d="M915.648 197.07C916.928 194.15 916.648 197.6 918.648 187.6C920.648 177.6 919.428 177.48 921.088 173.04C922.748 168.6 922.758 165.26 922.758 168.6C922.758 171.94 922.198 175.04 922.758 179.04C923.426 182.451 923.426 185.959 922.758 189.37C921.978 194.26 922.088 195.22 920.758 197.07C919.428 198.92 919.098 200.26 918.148 199.48C917.198 198.7 915.648 197.07 915.648 197.07Z" fill="#3F312E"/>
<path d="M932.05 200.82C930.71 196.15 928.38 191.93 929.05 187.48C929.72 183.03 927.5 178.6 930.27 168.15C933.04 157.7 933.61 156.04 934.16 151.82C934.71 147.6 934.72 146.93 934.72 150.37C934.556 155.514 933.811 160.624 932.5 165.6C931.152 169.574 930.44 173.735 930.39 177.93C930.27 182.93 931.06 186.93 931.78 192.04C932.126 194.883 932.943 197.647 934.2 200.22L932.05 200.82Z" fill="#3F312E"/>
<path d="M941.925 140.3C942.375 146.82 942.385 150.37 943.265 157.48C944.145 164.59 944.885 164.48 944.265 171.93C943.645 179.38 944.415 178.52 941.895 186.22C939.375 193.92 938.345 193.34 937.305 190.67C936.265 188 935.085 189.48 935.825 185.48C936.565 181.48 938.195 180.09 939.375 174.48C940.555 168.87 941.075 175.25 940.895 161.77C940.715 148.29 939.525 147.99 940.715 144.14L941.925 140.3Z" fill="#3F312E"/>
<path d="M942.664 69.7101C944.514 68.3701 943.924 67.2601 946.744 67.4101C949.564 67.5601 951.484 68.0801 953.034 70.0001C954.584 71.9201 954.814 72.0001 955.554 74.6701C955.927 76.1793 956.398 77.6625 956.964 79.1101C957.334 80.0001 955.184 78.4501 954.744 77.1101C954.304 75.7701 953.924 72.3001 952.074 71.3401C950.224 70.3801 947.334 69.4101 945.554 69.7101C944.599 69.894 943.619 69.894 942.664 69.7101Z" fill="#845B52"/>
<path d="M960.499 60.6001C962.259 61.1501 962.659 59.6001 964.239 62.4801C965.819 65.3601 965.819 64.4801 966.709 68.8901C967.599 73.3001 967.489 73.6001 968.039 74.7101C968.589 75.8201 966.149 73.2601 965.709 71.3701C965.269 69.4801 965.589 68.7101 964.309 65.8201C963.029 62.9301 964.149 63.2601 961.819 62.2601C959.489 61.2601 960.499 60.6001 960.499 60.6001Z" fill="#845B52"/>
<path d="M965.648 84.1503C966.648 82.9303 966.258 82.4803 968.488 82.6003C970.718 82.7203 970.818 82.8603 971.428 83.3603C972.038 83.8603 971.538 84.5403 970.538 84.5403C969.538 84.5403 969.758 83.9303 968.118 84.5403C967.717 84.738 967.264 84.8066 966.822 84.7368C966.379 84.667 965.97 84.4621 965.648 84.1503Z" fill="#845B52"/>
<path d="M967.706 88.8203C969.876 87.3203 969.516 86.9803 971.706 87.2603C973.896 87.5403 974.046 86.9503 974.546 88.0003C975.046 89.0503 975.436 90.0003 974.546 90.0003C973.59 89.995 972.638 89.8844 971.706 89.6703C970.156 89.3903 969.096 89.1203 968.126 89.4503C967.156 89.7803 967.706 88.8203 967.706 88.8203Z" fill="#845B52"/>
<path d="M947.928 84.9803C948.386 84.9803 948.758 84.6087 948.758 84.1503C948.758 83.6919 948.386 83.3203 947.928 83.3203C947.469 83.3203 947.098 83.6919 947.098 84.1503C947.098 84.6087 947.469 84.9803 947.928 84.9803Z" fill="#EAAF93"/>
<path d="M928.746 119.26C931.856 116.6 936.296 114.59 939.856 110.04C943.416 105.49 944.146 105.04 949.186 99.4402C954.226 93.8402 953.776 95.0602 955.706 91.4402C957.636 87.8202 956.596 88.2802 958.706 85.3202C960.816 82.3602 960.636 81.6102 963.706 83.3902C966.776 85.1702 970.706 91.9802 974.966 95.6902C979.226 99.4002 986.076 101.46 989.186 106.69C992.296 111.92 995.856 116.32 995.406 119.28C994.956 122.24 995.706 120.91 988.886 122.39C982.066 123.87 974.516 128.32 970.226 130.39C965.936 132.46 966.376 134.69 960.446 135.28C954.516 135.87 954.226 136.47 949.186 131.87C944.146 127.27 940.446 124.02 937.336 122.54C934.226 121.06 928.746 119.26 928.746 119.26Z" fill="#A47261"/>
<path d="M950.517 160.89C953.777 153.63 950.227 157.19 954.667 148.74C959.107 140.29 958.227 139.47 959.257 135.66C960.287 131.85 964.887 125.78 972.747 123.41C980.607 121.04 985.037 116.78 989.187 120.1C993.337 123.42 994.897 128.74 995.447 137.34C995.997 145.94 994.227 145.63 993.777 156.6C993.327 167.57 987.257 204.6 990.077 217.34C992.897 230.08 992.747 231.11 994.227 239.85C995.707 248.59 1001.49 249.04 994.077 251.26C986.667 253.48 990.667 255.26 978.667 254.67C966.667 254.08 963.407 255.26 960.007 250.67C956.607 246.08 952.147 244.89 947.257 246.97C942.367 249.05 943.557 251.11 938.077 249.63C932.597 248.15 929.487 253.04 928.147 247.11C926.807 241.18 927.407 243.26 925.627 239.41C923.847 235.56 920.447 238.22 924.627 231.26C929.628 223.135 933.732 214.491 936.867 205.48C941.467 192.89 942.057 187.71 944.577 179.41C947.097 171.11 950.517 160.89 950.517 160.89Z" fill="#523E3B"/>
<path d="M973.035 177.34C972.295 185.48 970.865 193.04 974.245 200.45C977.625 207.86 973.545 209.45 981.335 213.34C989.815 217.6 991.215 221.57 990.615 219.81C989.794 216.767 989.361 213.632 989.325 210.48C989.395 208.15 990.075 204.3 988.005 202.97C985.935 201.64 983.555 202.52 981.485 198.97C979.415 195.42 978.635 195.97 976.945 188.3C975.255 180.63 974.865 179.41 974.245 177.3C973.625 175.19 973.035 177.34 973.035 177.34Z" fill="#493736"/>
<path d="M958.868 153.63C963.168 152.3 969.538 152.15 970.568 148.15C971.598 144.15 962.868 142.22 964.718 138.97C966.568 135.72 969.718 133.19 973.718 130.52C977.718 127.85 978.108 123.52 985.148 123.47C992.188 123.42 991.298 121.06 992.578 124.06C993.858 127.06 993.948 136.89 992.578 143.41C991.208 149.93 993.718 156.3 989.278 163.41C984.838 170.52 978.908 175.11 974.758 178.82C970.608 182.53 972.098 184.3 969.428 182.52C966.758 180.74 964.868 180 962.188 173.93C959.508 167.86 955.498 165.34 957.128 160.6C957.974 158.352 958.558 156.013 958.868 153.63Z" fill="#664A41"/>
<path d="M958.146 90.0802C962.376 89.4102 963.856 87.8502 965.256 89.5602C966.656 91.2702 968.256 92.4502 966.376 92.0802C964.496 91.7102 964.886 91.3402 961.376 91.4802C957.866 91.6202 958.146 90.0802 958.146 90.0802Z" fill="#93665A"/>
<path d="M950.517 110.6C953.517 113.11 949.857 114.37 957.187 113.11C964.517 111.85 966.077 111.81 966.747 113.61C967.417 115.41 967.037 117.11 965.407 117.34C963.777 117.57 960.947 116.6 956.657 116.52C952.367 116.44 951.257 117.63 950.227 115.19C949.929 114.452 949.8 113.657 949.85 112.862C949.901 112.068 950.128 111.295 950.517 110.6Z" fill="#93665A"/>
<path d="M938.664 120.1C943.404 120.15 939.254 120.1 946.224 121.19C953.194 122.28 951.854 123.71 959.224 121.71C966.594 119.71 965.524 119.62 971.594 117.37C977.664 115.12 976.924 114.3 981.224 114.6C985.524 114.9 986.044 115.78 986.044 116.08C986.044 116.38 984.784 117.41 982.184 117.85C979.584 118.29 979.894 116.6 973.524 119.71C967.154 122.82 965.744 123.48 962.374 124.52C959.004 125.56 958.634 127.78 953.374 126.97C948.114 126.16 945.074 125.11 943.224 123.97C941.374 122.83 938.704 121.27 938.704 120.88L938.664 120.1Z" fill="#93665A"/>
<path d="M964.598 108.52C968.448 109.11 966.378 111.23 972.148 109.06C977.918 106.89 979.558 105.93 981.488 105.63C983.014 105.442 984.564 105.621 986.008 106.15C986.888 106.45 986.598 108 984.448 108.15C982.583 108.14 980.729 108.448 978.968 109.06C976.298 109.93 974.078 111.26 972.148 111.48C970.218 111.7 967.558 112.74 966.228 111.48C965.405 110.675 964.838 109.645 964.598 108.52Z" fill="#93665A"/>
<path d="M965.928 159C966.668 161.66 964.598 161.37 967.778 163.14C970.958 164.91 971.858 165.59 971.858 166.03C971.858 166.47 966.858 165.96 965.928 165.03C964.998 164.1 963.118 162.81 963.778 161.18C964.201 160.213 964.967 159.436 965.928 159Z" fill="#5E443D"/>
<path d="M968.447 152.08C967.627 155.08 965.937 154.6 967.747 157.19C969.557 159.78 968.597 160.74 971.037 161.41C973.477 162.08 973.337 162.3 975.557 162.08C977.777 161.86 977.337 160.6 975.927 160.45C974.517 160.3 972.517 160.67 971.337 159.45C970.157 158.23 969.037 157.08 968.967 155.23C968.925 154.163 968.75 153.105 968.447 152.08Z" fill="#5E443D"/>
<path d="M971.558 152.08C971.258 154.15 970.819 155.72 972.889 157.08C974.959 158.44 976.059 158.78 977.109 158.18C978.159 157.58 978.519 156.7 977.409 156.48C976.299 156.26 974.519 156.85 973.629 155.89C972.739 154.93 971.899 153.49 972.029 152.83C972.059 152.669 972.028 152.502 971.941 152.363C971.854 152.224 971.717 152.123 971.558 152.08Z" fill="#5E443D"/>
<path d="M971.869 140.22C971.939 142.22 969.789 142.22 974.309 143.34C978.829 144.46 979.309 145.71 981.049 144.67C982.789 143.63 982.899 142.54 981.789 142.67C980.679 142.8 978.059 143.59 976.959 143C975.859 142.41 974.959 142.92 973.959 141.51C972.959 140.1 971.869 140.22 971.869 140.22Z" fill="#5E443D"/>
<path d="M951.708 180.74C949.628 186.37 946.519 193.63 945.929 202.08C945.339 210.53 944.299 211.85 944.149 218.08C943.999 224.31 942.228 224.15 943.258 229.48C944.288 234.81 945.928 238.08 945.488 241.04C945.048 244 944.878 245.28 942.938 247.26C940.178 250.08 941.589 250.26 939.669 250C937.749 249.74 940.148 245.48 941.338 244.45C942.528 243.42 943.258 234.97 942.818 232.89C942.378 230.81 941.038 226.82 941.188 221.89C941.338 216.96 941.038 213 942.188 206.63C943.338 200.26 944.258 193.44 944.998 191.07C945.738 188.7 945.888 185.65 947.998 183.18C950.108 180.71 951.708 180.74 951.708 180.74Z" fill="#493736"/>
<path d="M962.099 178.37C959.859 183.71 958.759 196.6 960.199 204.45C961.639 212.3 961.199 218.97 963.639 222.08C966.079 225.19 970.329 225.93 966.939 229.78C963.549 233.63 963.749 231.26 962.099 236C960.449 240.74 957.339 241.19 960.889 244.15C964.439 247.11 970.459 250.22 971.299 251.85C971.939 252.937 972.839 253.848 973.919 254.5C973.919 254.5 976.379 254.57 976.099 254.5C975.099 254.24 968.229 245.63 967.749 244.6C967.269 243.57 966.689 238.08 966.749 236.6C966.809 235.12 971.409 228.45 971.409 227.26C971.409 226.07 968.529 220 967.749 217.93C966.969 215.86 961.669 201.93 962.099 191.26C962.529 180.59 962.099 178.37 962.099 178.37Z" fill="#493736"/>
<path d="M926.227 235.26C928.597 234.52 930.517 231.26 930.667 235.26C930.817 239.26 928.147 237.48 930.667 242.26C933.187 247.04 935.227 250.5 933.147 249.36C931.988 248.695 930.992 247.78 930.231 246.681C929.47 245.583 928.963 244.329 928.747 243.01C928.071 240.376 927.23 237.787 926.227 235.26Z" fill="#493736"/>
<path d="M236.799 35.9999C237.539 33.7799 240.499 12.2999 255.459 14.8199C270.419 17.3399 271.459 22.1699 270.869 25.3099C270.472 27.3954 269.875 29.4381 269.089 31.4099C268.349 33.6299 267.169 32.5999 267.319 34.5199C267.469 36.4399 270.129 39.8499 268.949 41.3399C267.769 42.8299 266.869 40.8899 266.719 42.8199C266.569 44.7499 267.719 44.74 265.539 46.08C263.359 47.4199 262.719 45.6299 263.169 48.2999C263.619 50.9699 264.059 53.9299 261.239 54.0799C258.73 54.3337 256.199 53.9233 253.899 52.8899C251.019 51.7099 252.899 50.5199 251.019 51.7099C249.139 52.8999 244.649 55.1099 240.209 47.9999C235.769 40.8899 236.799 35.9999 236.799 35.9999Z" fill="#BC896A"/>
<path d="M233.386 36.5699C232.796 32.1199 231.016 33.3099 232.496 26.0499C233.976 18.7899 240.496 8.70994 246.576 7.99994C251.853 7.22754 257.235 8.28632 261.826 10.9999C266.126 13.5099 271.906 15.8799 273.686 19.1399C275.466 22.3999 276.206 25.9599 274.686 27.8799C273.166 29.7999 272.686 31.2899 270.956 32.4799C269.226 33.6699 267.876 32.0299 268.176 30.1099C268.476 28.1899 270.396 25.9599 269.056 24.0299C267.716 22.0999 266.686 19.4399 265.206 19.0299C263.726 18.6199 262.686 17.3999 262.096 19.6199C261.506 21.8399 261.656 23.4699 260.616 25.5399C259.576 27.6099 259.876 29.2499 257.056 28.3599C254.236 27.4699 252.316 25.2499 250.986 24.9499C250.538 24.8311 250.071 24.8021 249.612 24.8647C249.153 24.9272 248.711 25.08 248.311 25.3143C247.911 25.5485 247.562 25.8596 247.283 26.2296C247.004 26.5996 246.801 27.0211 246.686 27.4699C245.946 29.9899 244.766 28.4699 245.946 31.9099C247.126 35.3499 247.876 36.2099 246.686 36.6599C244.496 37.242 242.272 37.6862 240.026 37.9899C238.096 38.2799 236.466 38.5799 235.426 37.9899C234.386 37.3999 233.386 36.5699 233.386 36.5699Z" fill="#4F3924"/>
<path d="M251.869 51.1999C251.629 50.1999 259.709 43.0099 262.929 43.1199C266.149 43.2299 266.469 43.4499 266.799 43.9899C267.569 45.2399 265.149 46.9099 263.369 46.6599C263.065 47.9467 263.099 49.2903 263.469 50.5599C264.039 53.1799 263.799 55.6799 258.469 54.0899C253.139 52.4999 252.259 52.8299 251.869 51.1999Z" fill="#4F3924"/>
<path d="M234.086 39.34L235.426 35.79C238.081 36.8418 240.367 38.6542 241.996 41C244.666 44.89 247.786 48.33 249.336 51.67C250.802 54.4991 251.666 57.6007 251.876 60.78C252.106 64.22 252.446 70.33 252.446 70.33C252.446 70.33 248.076 56.56 238.446 48.11L234.086 39.34Z" fill="#373327"/>
<path d="M251.729 29.37C252.209 28.76 252.819 28.79 252.369 27.45C251.919 26.11 251.079 25 249.929 25C249.239 24.9832 248.562 25.1878 247.997 25.5837C247.432 25.9796 247.008 26.546 246.789 27.2C246.259 28.84 245.589 29.64 246.789 30.95C247.989 32.26 248.209 33.42 249.599 33.7C250.989 33.98 251.659 34.22 251.889 33.47C252.119 32.72 251.349 31.67 251.429 30.78C251.447 30.2962 251.548 29.8192 251.729 29.37Z" fill="#B2836B"/>
<path d="M250.126 57.1602C250.126 57.1602 257.976 65.4502 258.276 66.3402C258.576 67.2302 261.396 100.58 259.336 103.68C257.276 106.78 259.336 102.94 259.336 102.94L245.086 64.0002L250.126 57.1602Z" fill="#BFAD99"/>
<path d="M229.758 43.1199C230.758 41.0099 232.868 37.8999 234.208 37.1199C235.548 36.3399 242.208 43.2299 245.538 51.4499C248.868 59.6699 252.148 68.1199 253.838 71.8999L255.538 75.6799C255.538 75.6799 252.758 74.1199 249.868 68.8999C246.978 63.6799 248.498 62.5 240.978 53.5699C233.088 45.5699 229.758 43.1199 229.758 43.1199Z" fill="#C4A06E"/>
<path d="M228.161 94.127C231.606 95.7713 234.343 100.793 240.526 100.993C246.709 101.193 247 97.0823 247 97.0823C247 97.0823 244.748 80.1397 241.099 76.8511C237.449 73.5626 230.606 75.3624 229.956 76.8511C229.306 78.3399 226.142 87.55 226.006 90.0164C225.87 92.4828 228.161 94.127 228.161 94.127Z" fill="#C4A06E"/>
<path d="M228.5 211.08C228.5 211.08 237.09 212.86 239.91 212.57C242.73 212.28 245.24 213.01 246.13 207.57C247.02 202.13 249.69 192.57 250.13 190.68C250.57 188.79 252.6 182.38 252.77 179.42C252.94 176.46 252.35 169.94 251.91 169.79C251.47 169.64 240.65 168.9 240.65 168.9C240.65 168.9 234.43 180.9 233.83 182.23C233.23 183.56 230.58 201.05 230.43 202.38C230.28 203.71 228.5 211.08 228.5 211.08Z" fill="#A08748"/>
<path d="M225.086 210.79L239.906 212.57C239.906 212.57 239.016 225.16 237.386 233.31C235.756 241.46 234.716 248.86 235.316 255.82C235.916 262.78 233.996 263.23 237.996 266.05C241.996 268.87 240.516 271.38 247.476 272.57C254.436 273.76 254.476 271.97 258.296 273.31C258.296 273.31 262.146 273.38 261.626 276.31C261.106 279.24 253.706 279.86 251.926 280.16C250.146 280.46 234.516 280.23 231.186 280.16C227.856 280.09 220.516 277.94 220.516 277.94L221.996 210.79H225.086Z" fill="#3A372E"/>
<path d="M212.797 172.27C212.797 172.27 213.537 180.71 212.797 185.01C212.057 189.31 211.607 187.23 210.127 192.86C208.647 198.49 207.907 193.75 206.867 201.86C206.34 205.506 206.007 209.178 205.867 212.86V216.27L222.997 217.9C222.997 217.9 223.997 214.07 224.197 214.19C224.397 214.31 228.257 213.96 229.297 212.48C231.754 209.588 233.378 206.083 233.997 202.34C235.187 196.12 235.477 193.45 236.227 188.42C236.977 183.39 237.997 181.66 238.887 176.59C239.777 171.52 239.887 170.94 239.887 170.94L212.797 172.27Z" fill="#AE944A"/>
<path d="M204.349 213.45C204.349 213.45 203.909 254.19 204.349 260.45C204.653 266.371 204.59 272.306 204.159 278.22C203.909 281.34 202.869 285.22 203.319 286.52C203.769 287.82 224.059 291.35 242.319 289.16C242.319 289.16 246.849 286.37 243.029 283.11C239.209 279.85 239.029 280.89 234.759 279.11C230.489 277.33 227.949 276.6 225.579 273.19C223.209 269.78 222.759 270.08 222.909 267.11C223.059 264.14 223.799 262.67 222.909 261.78C222.019 260.89 221.909 261.34 222.169 258.22C222.429 255.1 222.909 231.85 222.909 228C222.909 224.15 224.269 214.37 224.259 214.22C224.249 214.07 204.349 213.45 204.349 213.45Z" fill="#3B3421"/>
<path d="M245.09 188.42C245.09 188.42 243 124.57 243 123.23C243 121.89 260.66 123.23 260.66 123.23C260.66 123.23 264.96 172.42 260.66 187.23L245.09 188.42Z" fill="#C4A06E"/>
<path d="M218.447 120.53L246.127 124.12V173.12C246.127 173.12 226.427 178.3 215.907 175.93C205.387 173.56 202.297 171.93 202.297 171.93C202.297 171.93 209.387 133.41 209.537 132.82C209.687 132.23 218.447 120.53 218.447 120.53Z" fill="#C4A06E"/>
<path d="M231.929 42.34C230.539 41.66 222.129 39.97 217.239 45.16C212.349 50.35 205.829 51.08 205.539 58.94C205.249 66.8 205.539 72.12 205.539 72.12C205.539 72.12 205.979 64.64 209.369 58.73C212.449 53.37 219.82 50.18 221 51C227.71 55.65 232.299 71.54 233.499 74.47C234.589 77.24 242.319 91.08 244.839 96.57C247.359 102.06 246.149 105.57 246.149 105.57L260.249 107.05C260.249 107.05 262.019 106.76 261.429 103.2C260.839 99.64 255.219 85.57 253.879 81.28C252.539 76.99 248.539 58.28 235.499 45.28C234.436 44.1552 233.237 43.1675 231.929 42.34Z" fill="#CAB69E"/>
<path d="M223.758 89.75C225.758 91.54 234.758 98.05 245.088 98.64C255.418 99.23 255.158 100.06 258.088 99.42C261.018 98.78 261.548 99.08 261.548 99.08C261.548 99.08 262.858 108.57 261.548 110.49C260.238 112.41 248.388 110.42 242.018 109.35C235.648 108.28 232.838 109.45 229.018 107.82C225.198 106.19 224.418 104.63 223.828 100.52C223.483 96.9393 223.46 93.3349 223.758 89.75Z" fill="#BFAD99"/>
<path d="M260.651 109.35C261.651 113.16 262.081 114.79 261.511 117.9C260.941 121.01 261.241 120.57 258.281 120.42C255.321 120.27 243.911 118.64 237.981 118.49C232.051 118.34 226.121 118.49 225.681 118.34C225.241 118.19 224.211 111.68 224.211 108.57C224.211 105.46 225.981 103.38 227.611 103.38C229.241 103.38 260.651 109.35 260.651 109.35Z" fill="#3A372E"/>
<path d="M226.579 123.23C225.829 120.23 224.799 117.01 226.579 115.97C228.359 114.93 258.829 118.08 260.079 118.49C261.329 118.9 262.669 125.6 261.509 126.94C260.349 128.28 226.579 123.23 226.579 123.23Z" fill="#BFAD99"/>
<path d="M205.409 166.19C205.409 166.19 200.499 119.82 202.999 96.0001C205.499 72.1801 203.299 60.5601 213.809 53.1001C224.319 45.6401 228.809 58.2201 230.699 65.1901C232.589 72.1601 235.579 74.9701 233.439 80.1901C231.299 85.4101 228.189 85.9701 227.439 91.4501C226.689 96.9301 224.439 99.6001 227.149 114.56C229.859 129.52 230.999 138.56 232.779 145.91C234.559 153.26 234.999 153.82 234.189 154.86C233.379 155.9 216.779 166.56 212.779 167.45C208.779 168.34 205.609 168.16 205.409 166.19Z" fill="#CEBBA5"/>
<path d="M206.867 166.49C208.447 163.502 211.054 161.186 214.207 159.97C218.316 158.27 222.608 157.051 226.997 156.34L232.547 155.23C232.547 155.23 232.087 157.45 227.797 159.23C223.507 161.01 218.997 164.05 215.287 164.86C211.577 165.67 206.867 166.49 206.867 166.49Z" fill="#2E2420"/>
<path d="M468.369 269.73C470.949 269.15 472.789 267.31 475.789 266.98C478.789 266.65 479.959 267.4 479.959 268.35C479.959 269.3 481.369 268.35 481.539 269.73C481.709 271.11 480.789 271.73 480.459 273.17C480.129 274.61 482.219 274.88 477.539 275.59C472.859 276.3 469.949 277.06 468.789 276.15C467.629 275.24 468.369 269.73 468.369 269.73Z" fill="#F7931E"/>
<path d="M472 271.73C474.58 271.31 478.42 270.48 479.42 269.9L472 271.73Z" fill="#CC7825"/>
<path d="M332.169 278.61C335.839 283.61 383.169 291.93 415.529 290.08C447.889 288.23 440.859 295.51 462.199 289.08L483.539 282.61C483.539 282.61 474.869 267.46 461.539 261.2C448.209 254.94 439.859 248.49 422.189 248.54C404.519 248.59 400.519 244.37 386.519 249.15C372.519 253.93 363.849 257.93 355.519 259.1C347.189 260.27 345.769 260.85 347.309 258.31C348.849 255.77 350.309 255.1 352.149 253.72C353.989 252.34 354.809 253.22 355.519 249.35C356.229 245.48 357.439 245.1 355.939 242.97C354.439 240.84 354.559 239.97 350.939 238.35C347.319 236.73 345.479 235.47 342.519 236.18C339.559 236.89 335.399 238.33 332.999 241C330.599 243.67 328.449 245 327.999 247C327.549 249 325.889 263.12 327.999 270.12C330.109 277.12 332.169 278.61 332.169 278.61Z" fill="white"/>
<path d="M344.34 241.14C344.341 240.954 344.306 240.77 344.236 240.598C344.165 240.425 344.062 240.269 343.931 240.137C343.8 240.005 343.644 239.9 343.472 239.829C343.3 239.757 343.116 239.72 342.93 239.72C342.649 239.718 342.373 239.8 342.138 239.955C341.904 240.11 341.72 240.331 341.611 240.59C341.502 240.849 341.472 241.135 341.526 241.411C341.58 241.687 341.714 241.941 341.912 242.141C342.111 242.34 342.364 242.477 342.639 242.532C342.915 242.588 343.201 242.56 343.461 242.453C343.721 242.346 343.944 242.164 344.1 241.93C344.256 241.696 344.34 241.422 344.34 241.14Z" fill="black"/>
<path d="M351.138 241.64C350.898 243.04 353.598 242.39 353.048 244.85C352.498 247.31 351.048 246.85 350.548 248.97C350.048 251.09 349.178 251.52 350.548 252.39C351.918 253.26 368.348 253.18 370.218 252.64C372.088 252.1 373.138 251.27 371.678 250.56C370.218 249.85 365.678 247.06 361.888 245.1C358.098 243.14 357.258 241.89 354.678 241.43C352.098 240.97 351.258 240.89 351.138 241.64Z" fill="#F7931E"/>
<path d="M439.78 278.73C439.28 281.15 437.28 283.23 438.2 284.4C439.12 285.57 437.86 287.32 442.62 286.4C447.43 285.458 452.303 284.873 457.2 284.65C462.45 284.4 463.04 284.23 467.45 284.15C471.86 284.07 475.12 284.07 478.04 282.69C480.681 281.586 483.218 280.247 485.62 278.69C488.79 276.61 489.21 276.27 490.21 274.94C491.21 273.61 491.79 272.61 488.79 273.44C485.79 274.27 476.87 275.69 472.21 276.36C467.55 277.03 466.62 277.27 461.21 278.36C455.8 279.45 449.63 280.73 445.46 279.88C441.29 279.03 439.78 278.73 439.78 278.73Z" fill="#F7931E"/>
<path d="M387.772 279.92C391.852 280.31 405.612 284.08 410.022 286.66C414.432 289.24 414.192 289.48 412.532 289.57C407.679 289.62 402.829 289.313 398.022 288.65C392.942 287.82 390.692 286.9 387.352 284.4C384.012 281.9 387.772 279.92 387.772 279.92Z" fill="#F2F2F2"/>
<path d="M414.279 249.89C418.609 249.56 420.859 248.64 425.359 249.39C429.859 250.14 432.299 249.47 437.959 251.56C443.619 253.65 444.029 253.23 450.029 256.64C453.018 258.203 455.817 260.105 458.369 262.31C459.869 263.48 458.949 264.81 456.449 264.81C453.949 264.81 447.949 264.64 444.449 263.39C440.949 262.14 432.949 259.39 428.279 257.89C423.609 256.39 424.359 256.23 418.609 255.23C412.859 254.23 409.269 254.79 409.939 253.05C410.609 251.31 414.279 249.89 414.279 249.89Z" fill="#F2F2F2"/>
<path d="M349.181 261.31C352.091 260.89 359.101 259.81 362.431 258.98C365.196 258.291 367.923 257.456 370.601 256.48C373.431 255.48 374.681 254.56 378.181 253.56C381.681 252.56 384.601 249.81 386.521 250.89C388.441 251.97 389.351 254.64 387.941 255.56C385.476 257.159 382.684 258.184 379.771 258.56C375.851 259.06 369.931 260.89 366.931 261.31C363.931 261.73 356.931 262.81 354.351 262.89C351.771 262.97 350.431 263.98 349.181 262.81C347.931 261.64 349.181 261.31 349.181 261.31Z" fill="#F2F2F2"/>
<path d="M335.789 260.5C336.169 258.73 335.669 258.28 337.559 256.67C339.449 255.06 338.679 253.93 342.559 253.05C346.439 252.17 348.449 252.17 349.219 252.5C349.989 252.83 349.329 253.95 348.889 254.28C348.449 254.61 345.889 255.67 345.609 257.62C345.329 259.57 345.499 259.62 346.219 260.84C346.939 262.06 346.829 263.38 345.999 263.84C344.294 264.375 342.493 264.539 340.719 264.32C339.279 264.1 336.159 264.26 336.049 262.82C335.939 261.38 335.789 260.5 335.789 260.5Z" fill="#F2F2F2"/>
<path d="M344 240.25L345.58 241.43C345.607 241.451 345.627 241.48 345.639 241.512C345.652 241.544 345.655 241.579 345.649 241.613C345.642 241.647 345.627 241.678 345.604 241.704C345.582 241.73 345.552 241.75 345.52 241.76L343.52 242.42L344 240.25Z" fill="black"/>
<path d="M445.367 284.75C447.197 283.9 450.947 281.98 454.117 281.9C457.287 281.82 456.027 280.06 459.787 281.9C461.506 282.818 463.32 283.546 465.197 284.07C462.321 284.45 459.427 284.676 456.527 284.75C453.197 284.73 445.367 284.75 445.367 284.75Z" fill="#CC7825"/>
<path d="M464.117 279.92C465.117 280.81 470.697 280.06 474.037 279.48C477.377 278.9 481.207 277.4 484.367 276.73C486.288 276.322 488.142 275.649 489.877 274.73" fill="#CC7825"/>
<path d="M382.001 93.9999C415.26 93.9999 442.221 78.9746 442.221 60.4399C442.221 41.9052 415.26 26.8799 382.001 26.8799C348.743 26.8799 321.781 41.9052 321.781 60.4399C321.781 78.9746 348.743 93.9999 382.001 93.9999Z" fill="#BDCCD4"/>
<path d="M347.742 67.4797C353.204 67.4797 357.632 63.0518 357.632 57.5897C357.632 52.1276 353.204 47.6997 347.742 47.6997C342.279 47.6997 337.852 52.1276 337.852 57.5897C337.852 63.0518 342.279 67.4797 347.742 67.4797Z" fill="white"/>
<path d="M352.171 55.9298C352.811 53.7498 351.521 52.2998 354.351 52.2998C357.181 52.2998 356.441 54.1798 359.751 57.5898C363.061 60.9998 364.751 62.1298 366.521 62.6998C368.291 63.2698 365.521 65.2798 362.411 65.1998C359.301 65.1198 351.771 66.4098 351.041 65.1998C350.311 63.9898 352.171 55.9298 352.171 55.9298Z" fill="#F7931E"/>
<path d="M414.783 51.6797H401.223C400.118 51.6797 399.223 52.5751 399.223 53.6797V70.2397C399.223 71.3443 400.118 72.2397 401.223 72.2397H414.783C415.887 72.2397 416.783 71.3443 416.783 70.2397V53.6797C416.783 52.5751 415.887 51.6797 414.783 51.6797Z" fill="#F2F2F2"/>
<path d="M399.223 52.1198C399.223 49.7912 400.148 47.558 401.794 45.9114C403.441 44.2649 405.674 43.3398 408.003 43.3398C410.331 43.3398 412.564 44.2649 414.211 45.9114C415.858 47.558 416.783 49.7912 416.783 52.1198C416.783 56.9998 399.223 56.9998 399.223 52.1198Z" fill="white"/>
<path d="M403.891 51.6599C405.057 51.6599 406.001 50.7153 406.001 49.5499C406.001 48.3846 405.057 47.4399 403.891 47.4399C402.726 47.4399 401.781 48.3846 401.781 49.5499C401.781 50.7153 402.726 51.6599 403.891 51.6599Z" fill="#CCCCCC"/>
<path d="M417.621 74.6797H419.051C419.515 74.6797 419.891 74.3036 419.891 73.8397V54.8497C419.891 54.3858 419.515 54.0097 419.051 54.0097H417.621C417.157 54.0097 416.781 54.3858 416.781 54.8497V73.8397C416.781 74.3036 417.157 74.6797 417.621 74.6797Z" fill="#F2F2F2"/>
<path d="M397.621 74.6797H399.051C399.515 74.6797 399.891 74.3036 399.891 73.8397V54.8497C399.891 54.3858 399.515 54.0097 399.051 54.0097H397.621C397.157 54.0097 396.781 54.3858 396.781 54.8497V73.8397C396.781 74.3036 397.157 74.6797 397.621 74.6797Z" fill="#F2F2F2"/>
<path d="M372.523 54.8896H386.843" stroke="white" stroke-miterlimit="10"/>
<path d="M383.532 58.9798L382.852 58.2498L386.462 54.8898L382.852 51.5298L383.532 50.7998L387.932 54.8898L383.532 58.9798Z" fill="white"/>
<path d="M387.932 65.8896H373.602" stroke="white" stroke-miterlimit="10"/>
<path d="M376.923 61.7998L377.603 62.5298L373.993 65.8898L377.603 69.2498L376.923 69.9798L372.523 65.8898L376.923 61.7998Z" fill="white"/>
<path d="M312.741 75.7799C311.271 74.7799 319.531 75.0399 321.191 70.8899C321.93 68.8388 322.939 66.8951 324.191 65.1099C324.982 66.9594 325.922 68.7418 327.001 70.4399C329.001 73.8499 321.631 81.8499 312.741 75.7799Z" fill="#BDCCD4"/>
<path d="M222.74 158.78C225.64 159.92 224.79 158.762 226.5 163.872C228 169.5 227 171 227 171C227 171 226.54 172.15 225.08 168.85C223.62 165.55 223.33 165.08 223.33 165.08C224.423 167.55 229.114 180.864 222.81 179C220.29 176.92 217.25 171.52 216.59 170.85C215.93 170.18 214 164.85 214 164.24C214 163.63 217.25 156.63 222.74 158.78Z" fill="#2E2420"/>
</g>
<defs>
<clipPath id="clip0_1019_688">
<rect width="1120" height="315" fill="white"/>
</clipPath>
</defs>
</svg>
