<svg width="320" height="213" viewBox="0 0 320 213" fill="none" xmlns="http://www.w3.org/2000/svg">
<g clip-path="url(#clip0_1019_683)">
<path d="M238.942 55.6236C236.543 51.5664 234.59 50.8159 235.489 49.166C236.388 47.5161 238.645 46.3868 242.47 42.6272C246.296 38.8676 249.229 36.9945 252.237 36.4265C255.565 35.892 258.931 35.6297 262.301 35.6421C265.153 35.6421 265.755 34.8104 265.302 37.1433C264.849 39.4761 264.254 38.7188 264.477 43.6821C264.7 48.6453 265.079 48.4898 264.7 50.3628C264.322 52.2359 264.329 55.8535 256.441 56.4485C248.553 57.0436 243.302 58.254 241.193 57.1247C239.084 55.9955 238.942 55.6236 238.942 55.6236Z" fill="#A47261"/>
<path d="M238.269 53.2229C236.768 51.1943 236.316 51.8705 236.39 50.4438C236.464 49.017 235.944 48.7127 237.667 48.1853C239.391 47.6579 240.601 46.6098 242.176 47.624C243.75 48.6383 244.129 48.7127 245.251 50.5925C246.373 52.4723 247.055 52.168 246.907 53.8991C246.758 55.6301 243.899 56.9758 242.176 56.374C240.452 55.7721 239.472 55.7721 239.019 54.724C238.813 54.2027 238.562 53.7004 238.269 53.2229V53.2229Z" fill="#2E2420"/>
<path d="M257.57 42.9247C257.57 42.9247 259.368 42.3296 261.882 44.6287C264.397 46.9277 264.208 48.0096 264.133 48.7602C264.059 49.5108 263.984 49.0375 262.484 47.1712C260.984 45.3049 261.882 45.9067 260.003 44.7031C259.123 44.2113 258.306 43.6141 257.57 42.9247V42.9247Z" fill="#93665A"/>
<path d="M249.462 42.3297C249.949 42.1741 250.286 44.0945 252.612 46.0284C253.967 47.2781 255.497 48.3237 257.153 49.1321C259.181 50.214 259.56 50.2884 259.783 50.7415C260.006 51.1945 258.357 50.9646 257.228 50.7415C256.099 50.5183 255.802 50.6738 253.321 49.1321C250.841 47.5904 249.421 47.5093 249.496 45.6295C249.57 43.7497 248.968 42.4784 249.462 42.3297Z" fill="#93665A"/>
<path d="M259.348 36.9675C260.422 36.7964 261.511 36.7285 262.599 36.7647C263.95 36.8661 264.099 36.3657 263.95 37.2177C263.714 38.1029 263.562 39.0086 263.498 39.9225C263.498 41.072 263.423 41.1194 263.423 41.7482C263.423 42.3771 262.747 40.2471 261.22 39.0434C260.455 38.4929 259.817 37.7851 259.348 36.9675V36.9675Z" fill="#93665A"/>
<path d="M235.065 84.9029C235.869 87.3574 235.018 87.1884 236.417 88.5475C237.816 89.9067 242.121 91.2117 243.176 91.8135C244.23 92.4153 242.5 98.1765 245.832 99.9752C249.164 101.774 249.684 99.299 250.286 102.633C250.888 105.966 253.49 117.157 252.388 120.011C251.286 122.864 244.075 130.079 241.527 132.635C238.978 135.191 237.816 133.839 233.612 143.758C229.408 153.678 228.631 153.103 226.015 156.396C223.399 159.69 227.705 157.478 231.213 158.182C234.72 158.885 232.639 159.48 238.931 160.082C245.224 160.684 244.629 161.082 249.333 160.988C254.037 160.893 252.638 161.887 257.748 161.488C262.857 161.089 267.257 162.32 266.656 156.396C266.054 150.473 264.162 144.056 266.71 134.637C269.258 125.217 273.469 107.589 274.064 102.578C274.658 97.5679 270.86 79.8788 269.664 78.709C268.467 77.5392 235.065 84.9029 235.065 84.9029Z" fill="#3F312E"/>
<path d="M182.549 84.1523C183.225 82.1237 183.15 79.8179 185.448 79.4798C187.746 79.1417 210.456 79.9397 213.585 82.6444C216.715 85.3492 216.39 99.7791 216.742 103.383C217.093 106.987 215.789 110.598 215.991 114.601C216.194 118.604 214.984 117.509 216.742 124.622C218.499 131.736 221.797 142.149 221.094 148.762C220.391 155.375 218.796 156.079 222.297 165.295C225.798 174.512 227.204 174.512 227.603 179.495C228.002 184.479 230.611 186.007 224.602 185.912C218.594 185.818 216.593 186.588 209.679 186.413C202.764 186.237 206.076 185.31 196.161 185.108C186.246 184.905 174.938 186.609 170.734 185.608C166.53 184.607 165.124 187.637 166.523 182.606C167.923 177.575 167.727 171.685 168.828 167.675C169.93 163.666 171.032 150.946 173.438 145.74C175.844 140.533 175.634 142.535 176.736 135.218C177.838 127.902 177.743 127.408 178.142 124C178.541 120.592 182.549 84.1523 182.549 84.1523Z" fill="#523E3B"/>
<path d="M188.051 99.2244C189.957 98.1764 189.659 98.5482 191.606 95.972C193.552 93.3957 193.059 94.268 193.809 92.5166C194.56 90.7653 195.661 94.4708 193.809 96.3236C191.957 98.1763 191.16 99.2244 189.605 99.2244H188.051Z" fill="#493736"/>
<path d="M212.891 108.819C213.188 114.229 212.479 111.22 212.343 120.091C212.208 128.963 212.438 128.05 211.985 130.309L211.539 132.56C211.539 132.56 212.661 133.764 213.411 130.87C214.162 127.976 214.013 127.678 214.317 121.816C214.621 115.953 212.891 108.819 212.891 108.819Z" fill="#493736"/>
<path d="M200.648 152.866C202.595 152.711 202.521 153.543 204.548 150.987L206.576 148.431C207.968 148.826 209.417 148.979 210.861 148.884C212.889 148.654 213.037 145.651 213.49 144.522C213.58 144.165 213.754 143.836 213.999 143.561C214.244 143.287 214.552 143.076 214.896 142.947C215.667 142.494 215.281 142.122 216.302 142.122C217.322 142.122 217.16 141.743 216.302 142.724C215.444 143.704 214.315 144.225 213.862 145.651C213.501 146.812 213.049 147.943 212.51 149.032C212.132 149.783 208.225 149.709 207.549 149.709C206.873 149.709 207.096 149.256 205.67 150.987C204.244 152.718 204.92 153.313 203.115 153.543C201.311 153.772 200.648 152.866 200.648 152.866Z" fill="#493736"/>
<path d="M236.918 96.5872C240.825 97.473 241.649 98.9133 247.232 96.5872C252.815 94.2611 254.308 93.4902 254.038 92.7735C253.572 91.5225 253.443 93.5646 250.936 93.6661C248.428 93.7675 248.388 94.3422 245.529 93.3685C242.67 92.3948 241.642 91.9756 239.54 92.7735C237.438 93.5714 236.918 96.5872 236.918 96.5872Z" fill="#2E2420"/>
<path d="M193.865 114.506C191.959 120.416 191.323 120.815 191.445 134.839C191.567 148.864 189.417 144.455 191.445 154.672C193.473 164.889 200.123 185.276 200.123 185.276C200.123 185.276 199.373 179.82 198.096 173.409C196.818 166.999 195.69 162.888 194.716 156.376C193.743 149.864 192.918 152.17 193.615 143.157C194.311 134.143 193.865 114.506 193.865 114.506Z" fill="#493736"/>
<path d="M200.183 132.885C200.785 139.16 200.69 145.171 200.183 153.482C199.676 161.792 199.183 160.595 200.183 169.115C201.184 177.635 202.806 185.547 202.806 185.547L201.603 185.398C201.31 184.608 201.139 183.778 201.096 182.937C200.988 179.427 199.068 170.211 198.683 165.308C198.298 160.406 197.581 153.813 198.386 149.08C199.19 144.346 198.534 136.151 199.21 133.446C199.682 131.398 200.046 129.326 200.298 127.239L200.183 132.885Z" fill="#493736"/>
<path d="M239.923 90.9615C240.423 94.1666 239.247 95.1674 238.416 98.3996C237.585 101.632 238.017 99.5018 237.314 105.513C236.611 111.524 237.416 112.329 235.415 112.126C233.414 111.923 231.813 112.728 227.406 110.625C222.999 108.522 222.195 107.014 220.194 106.615C218.194 106.216 218.89 106.92 216.74 106.013C214.591 105.107 212.888 105.114 212.381 103.011C211.874 100.908 211.583 96.2966 213.287 93.0915C214.99 89.8864 213.347 84.1658 214.287 83.5775C215.226 82.9892 216.592 83.4761 219.593 85.8833C222.594 88.2905 221.796 87.4859 223.398 89.0884C225 90.691 221.999 90.8871 227.805 90.691C233.61 90.4949 239.923 90.9615 239.923 90.9615Z" fill="#664A41"/>
<path d="M239.923 90.9612C240.423 94.1663 239.247 95.1671 238.416 98.3993C237.585 101.631 238.017 99.5015 237.314 105.513C236.611 111.524 237.416 112.329 235.415 112.126C233.414 111.923 231.813 112.728 227.406 110.625C222.999 108.522 222.195 107.014 220.194 106.615C218.194 106.216 218.89 106.919 216.74 106.013C214.591 105.107 212.888 105.114 212.381 103.011C211.874 100.908 211.583 96.2963 213.287 93.0912C214.99 89.8861 221.796 87.4856 223.425 89.0882C225.054 90.6907 222.026 90.8868 227.832 90.6907C233.637 90.4946 239.923 90.9612 239.923 90.9612Z" fill="#563E38"/>
<path d="M187.353 79.7433C187.151 76.0378 188.752 74.5299 190.354 72.3052C191.956 70.0806 188.651 67.5719 192.956 61.6823C197.262 55.7927 199.871 54.7716 202.27 52.9932C204.669 51.2149 204.474 49.7881 206.177 49.7881C207.88 49.7881 210.185 52.9932 210.583 56.2998C210.982 59.6064 209.583 58.9031 211.084 61.8108C212.584 64.7184 212.983 64.0151 212.787 67.2203C212.591 70.4254 210.881 69.5261 212.185 72.9273C213.49 76.3286 214.889 75.6321 214.889 78.9387C214.889 82.2452 215.186 82.6442 215.788 85.4504C216.389 88.2566 217.288 89.1559 216.288 91.9621C215.288 94.7683 215.49 97.0741 214.585 98.2777C213.679 99.4813 212.381 100.482 212.185 98.2777C211.989 96.0733 212.685 94.7683 211.084 93.0643C209.482 91.3603 208.88 90.7585 205.075 89.7577C201.27 88.7569 202.669 87.5533 200.77 88.358C198.87 89.1627 197.167 91.1642 193.761 88.8584C190.354 86.5526 188.556 86.7554 187.955 83.246L187.353 79.7433Z" fill="#A47261"/>
<path d="M188.051 77.2414C189.403 74.7327 188.206 74.4825 190.585 73.6846C192.964 72.8867 195.715 71.8251 199.872 73.732C204.029 75.6388 206.442 76.599 206.888 78.7087C207.127 79.6188 207.258 80.5538 207.28 81.4946C207.28 81.4946 205.827 76.8898 202.67 75.9837C199.514 75.0776 196.999 73.7793 194.411 74.3811C191.822 74.9829 190.437 75.01 189.754 76.3353C189.071 77.6606 188.855 78.4923 189.152 78.9386C189.45 79.3849 188.051 77.2414 188.051 77.2414Z" fill="#93665A"/>
<path d="M189.752 83.0501C189.455 80.8457 187.954 78.8442 189.752 76.3355C191.55 73.8268 191.158 73.3332 193.861 73.2318C196.565 73.1304 196.862 73.4346 200.269 75.1319C203.675 76.8291 205.473 75.6323 206.277 78.8442C207.082 82.0561 207.278 82.4483 205.602 83.7465C203.925 85.0448 204.399 85.9171 201.195 86.6204C197.991 87.3236 195.038 88.0809 194.213 87.1816C193.388 86.2823 193.834 85.3762 192.483 84.7744C191.508 84.3081 190.592 83.7294 189.752 83.0501V83.0501Z" fill="#2E2420"/>
<path d="M195.464 78.7086C195.867 78.7086 196.194 78.3817 196.194 77.9783C196.194 77.575 195.867 77.248 195.464 77.248C195.061 77.248 194.734 77.575 194.734 77.9783C194.734 78.3817 195.061 78.7086 195.464 78.7086Z" fill="#EAAF93"/>
<path d="M202.447 79.4797C203.007 79.4797 203.461 79.0256 203.461 78.4655C203.461 77.9053 203.007 77.4512 202.447 77.4512C201.887 77.4512 201.434 77.9053 201.434 78.4655C201.434 79.0256 201.887 79.4797 202.447 79.4797Z" fill="#EAAF93"/>
<path d="M184.9 83.3205C185.576 87.4839 185.861 91.7014 185.752 95.9179C185.65 100.178 184.495 103.275 184.157 104.776C183.973 105.474 183.866 106.191 183.839 106.913C183.839 106.913 186.252 104.438 186.752 101.882C187.252 99.3259 187.921 99.1772 187.333 94.978C186.745 90.7789 187.205 86.1875 186.549 83.6518C185.894 81.1161 185.15 79.4595 184.42 79.8314C183.792 80.1559 183.298 81.1837 183.069 82.1236C182.94 82.7998 184.9 83.3205 184.9 83.3205Z" fill="#493736"/>
<path d="M168.828 123.317C169.328 120.714 170.93 122.519 170.856 116.805C170.781 111.092 168.862 110.896 170.856 105.385C172.85 99.8737 172.153 95.972 175.06 91.5633C177.966 87.1545 177.662 84.754 180.163 83.3476C182.663 81.9411 184.069 81.745 185.07 82.7458C186.07 83.7465 186.773 89.8593 186.57 92.7669C186.536 95.0579 186.269 97.3394 185.773 99.5761C184.968 103.687 184.069 103.687 183.867 106.791C183.664 109.895 183.191 109.097 184.171 112.701C185.151 116.305 185.272 114.73 183.867 116.508C182.461 118.286 180.798 122.594 177.729 124.122C174.661 125.65 174.458 126.428 172.052 125.42C169.646 124.413 168.828 123.317 168.828 123.317Z" fill="#664A41"/>
<path d="M169.902 122.965C170.643 121.973 171.56 121.125 172.606 120.464C174.431 119.111 174.579 118.76 177.182 117.806C179.784 116.853 180.291 116.582 182.143 115.98C183.995 115.379 184.779 114.966 184.691 115.304C184.603 115.642 179.865 123.533 176.736 124.602C173.606 125.67 173.904 126.123 172.302 125.143C170.7 124.162 170.078 124.014 170.051 123.419C170.024 122.823 169.902 122.965 169.902 122.965Z" fill="#2E2420"/>
<path d="M185.001 116.758C186.961 117.529 187.15 116.555 188.306 120.01C189.462 123.466 190.503 124.974 189.354 125.122C188.205 125.271 187.569 125.799 186.583 123.567C185.596 121.336 185.4 121.018 185.4 121.018C185.4 121.018 187.955 126.022 188.455 128.03C188.955 130.038 186.603 128.429 184.149 125.325L183.345 123.567C183.345 123.567 185.697 128.726 186.603 129.43C186.603 129.43 186.752 131.837 185.048 130.43C183.345 129.024 181.29 125.373 180.844 124.92C180.398 124.466 179.094 120.862 179.094 120.45C179.094 120.037 181.29 115.304 185.001 116.758Z" fill="#2E2420"/>
<path d="M183.895 80.3047C184.483 81.4001 189.977 90.2582 193.56 93.3687C197.142 96.4791 198.818 98.1764 202.035 101.382C205.252 104.587 206.766 104.762 210.085 107.467C212.227 109.143 214.2 111.022 215.979 113.08C217.79 115.074 219.399 112.971 219.399 110.47C219.399 107.968 219.899 106.061 217.695 104.661C215.492 103.261 213.823 99.5355 211.998 97.6963C210.173 95.857 208.138 92.8412 205.239 91.1372C202.339 89.4332 194.945 89.4332 192.343 86.2281C189.741 83.0229 187.835 80.8186 187.335 79.7164C186.835 78.6142 184.009 79.7908 183.895 80.3047Z" fill="#483834"/>
<path d="M189.766 115.196C191.854 111.524 193.949 107.028 196.524 102.734C199.1 98.4399 198.626 97.8516 200.654 96.2694C202.682 94.6871 208.014 95.6473 209.292 97.7232C210.569 99.7991 211.394 103.437 209.292 105.337C207.19 107.237 205.385 107.839 202.763 110.922C201.004 112.973 199.377 115.132 197.89 117.387C196.741 119.01 189.766 115.196 189.766 115.196Z" fill="#857779"/>
<path d="M201.434 99.5762C203.576 97.0743 205.07 93.9706 206.874 93.1659C208.679 92.3613 207.882 92.6656 209.578 95.1945C211.274 97.7235 213.782 97.2231 211.281 100.104C208.78 102.984 206.131 105.216 205.252 104.614C204.374 104.012 201.434 99.5762 201.434 99.5762Z" fill="#584A4A"/>
<path d="M190.586 71.406C191.559 69.2219 191.6 65.841 194.729 66.5915C197.858 67.3421 198.697 68.9447 198.697 68.9447C198.697 68.9447 195.763 68.2685 194.114 68.9447C192.816 69.5753 191.626 70.4059 190.586 71.406V71.406Z" fill="#93665A"/>
<path d="M192.834 71.4061C190.914 72.8397 194.388 68.9989 197.254 69.4519C200.12 69.905 201.985 70.8043 203.459 72.2311C202.096 71.831 200.7 71.5548 199.288 71.4061C196.74 71.1019 193.733 70.7299 192.834 71.4061Z" fill="#93665A"/>
<path d="M193.809 63.7378C194.714 62.0879 198.445 58.6326 202.061 61.4861C205.677 64.3396 205.623 65.2525 206.887 66.4899C206.887 66.4899 203.048 64.2653 201.433 63.4403C199.817 62.6154 200.27 61.858 197.567 62.6897C194.863 63.5215 193.809 63.7378 193.809 63.7378Z" fill="#93665A"/>
<path d="M202.062 53.0677C204.401 52.4726 204.327 52.2427 206.05 53.0677C207.774 53.8926 208.078 54.65 208.078 54.65C208.078 54.65 205.922 53.372 204.644 53.257C203.367 53.1421 202.062 53.0677 202.062 53.0677Z" fill="#93665A"/>
<path d="M210.562 72.6567C213.388 75.1857 214.99 76.4637 214.584 79.4795C214.178 82.4953 214.097 83.5366 214.043 84.01C213.989 84.4833 214.537 80.2166 212.888 77.4509C211.954 75.9345 211.176 74.3285 210.562 72.6567V72.6567Z" fill="#93665A"/>
<path d="M203.008 88.2701C206.164 87.6345 212.058 86.6067 212.889 85.2002C212.889 85.2002 212.713 86.8771 210.564 87.8576C208.415 88.8381 209.003 89.3655 206.205 89.1356C203.407 88.9057 203.008 88.2701 203.008 88.2701Z" fill="#93665A"/>
<path d="M174.938 102.355C177.891 101.503 179.142 100.198 181.196 101.503C182.335 102.183 183.309 103.107 184.048 104.208C182.297 103.064 180.232 102.494 178.141 102.578C177.069 102.606 175.996 102.532 174.938 102.355V102.355Z" fill="#5E443D"/>
<path d="M173.633 108.806C174.687 107.602 175.289 106.5 177.587 106.703C179.885 106.906 180.594 107.704 180.594 107.704C180.203 108.118 179.664 108.361 179.094 108.38C177.938 108.502 173.633 108.806 173.633 108.806Z" fill="#5E443D"/>
<path d="M170.996 105.763C171.8 104.864 172.05 104.262 173.848 104.215C174.884 104.115 175.928 104.252 176.903 104.614C177.165 104.752 177.433 104.876 177.708 104.985C177.708 104.985 176.153 105.114 174.754 105.215C173.355 105.317 170.996 105.763 170.996 105.763Z" fill="#5E443D"/>
<path d="M170.254 121.444C170.808 119.639 170.457 118.834 172.505 117.637C174.553 116.44 176.668 115.608 178.371 115.683L180.068 115.73C179.008 116.278 177.902 116.73 176.763 117.083C175.059 117.583 174.613 116.954 173.208 118.022C172.077 119.028 171.084 120.178 170.254 121.444V121.444Z" fill="#5E443D"/>
<path d="M310.738 47.8134C308.562 43.9794 308.109 47.6579 307.433 41.9509C306.757 36.2438 304.581 35.8652 306.987 34.364C309.393 32.8629 311.265 31.5105 314.496 29.3264C317.727 27.1423 318.403 25.7967 321.404 24.8973C324.514 24.0615 327.799 24.139 330.866 25.1205C333.421 26.0198 334.773 24.4443 336.347 24.6674C337.922 24.8906 338.605 23.9169 338.375 27.0003C338.145 30.0837 337.023 32.2611 335.523 34.5128C334.022 36.7645 333.792 37.745 334.773 39.9223C335.753 42.0996 336.496 42.174 336.124 44.0538C335.753 45.9336 334.996 46.6098 335.523 47.8134C336.05 49.0171 327.71 50.8157 323.958 51.3432C320.207 51.8706 320.126 53.3717 315.996 51.2688C311.867 49.1658 310.738 47.8134 310.738 47.8134Z" fill="#A47261"/>
<path d="M308.108 42.0995C307.662 38.8674 306.459 35.6419 308.108 35.2633C309.757 34.8846 311.488 35.7907 313.441 37.4406C315.394 39.0905 317.57 40.071 318.246 42.0995C318.922 44.1281 320.051 43.9794 319.003 45.3317C317.956 46.6841 317.949 47.8134 315.171 47.5091C312.393 47.2048 312.089 48.4895 310.967 46.3866C309.845 44.2836 309.311 43.3775 308.865 42.9245C308.599 42.6629 308.346 42.3875 308.108 42.0995V42.0995Z" fill="#2E2420"/>
<path d="M319.431 76.2335C326.136 75.2327 332.644 72.3116 333.847 77.9781C335.051 83.6445 335.449 86.3561 333.645 95.1668C331.84 103.978 328.636 117.907 327.636 121.917C326.636 125.927 326.636 149.363 326.737 153.569C326.839 157.775 327.035 158.884 323.229 159.784C319.424 160.683 321.202 160.581 317.146 161.386C313.091 162.191 312.841 162.691 310.036 162.184C307.231 161.677 304.73 163.591 304.73 157.782C304.73 151.974 304.926 139.045 306.332 133.033C307.738 127.022 313.037 85.1795 315.741 81.2103C316.843 79.4602 318.077 77.7964 319.431 76.2335V76.2335Z" fill="#523E3B"/>
<path d="M312.691 31.5105C314.347 31.5105 314.422 30.2325 316.186 32.5586C317.95 34.8846 318.099 35.9395 318.213 36.4264C317.479 35.9093 316.833 35.2768 316.301 34.5533C315.707 33.6182 314.88 32.8539 313.901 32.3354C313.458 32.1249 313.049 31.8466 312.691 31.5105V31.5105Z" fill="#93665A"/>
<path d="M320.01 28.9546C319.854 30.4557 319.334 31.585 320.01 34.3641C320.686 37.1433 320.976 38.9081 322.146 40.558C323.315 42.2079 324.322 42.9653 324.964 44.9194C325.606 46.8736 325.904 47.8474 325.937 48.936C325.971 50.0247 326.688 50.4439 327.289 49.2403C327.891 48.0367 328.533 47.5498 327.891 45.0344C327.249 42.519 327.289 41.4979 325.755 38.8675C324.221 36.2372 323.835 36.3183 322.632 33.5392C321.944 31.9117 321.064 30.3725 320.01 28.9546V28.9546Z" fill="#93665A"/>
<path d="M327.033 95.8228C326.438 100.482 322.221 109.042 322.153 122.566C322.086 136.09 319.004 141.952 319.788 150.216C320.572 158.479 320.653 160.494 320.653 160.494C320.653 160.494 327.033 159.763 326.58 157.545C326.128 155.328 322.363 144.508 323.35 137.145C324.336 129.781 324.634 118.813 325.911 110.395C326.671 105.575 327.046 100.702 327.033 95.8228V95.8228Z" fill="#493736"/>
<path d="M327.044 93.5645C324.638 99.2783 317.879 120.166 317.581 127.53C317.284 134.893 313.08 138.795 312.627 138.944C312.174 139.092 312.134 135.941 313.357 133.237C314.58 130.532 316.385 117.759 317.581 114.006C318.778 110.253 319.379 102.281 322.164 98.6765C323.557 96.764 325.198 95.045 327.044 93.5645Z" fill="#493736"/>
<path d="M266.257 50.5384C265.703 48.3881 266.007 44.2769 266.933 42.5256C267.859 40.7742 268.332 38.9959 271.036 37.116C273.739 35.2362 273.064 35.7028 276.396 33.397C279.728 31.0912 279.194 32.2948 280.85 30.4421C282.506 28.5893 282.452 28.4135 283.351 28.711C284.249 29.0085 287.757 31.8418 288.609 34.6006C289.61 37.7516 290.17 41.0262 290.272 44.331C290.272 47.5361 290.454 49.6459 289.927 51.5392C289.4 53.4325 285.966 56.5024 282.965 56.7526C279.964 57.0028 278.356 57.4288 274.003 56.401C269.65 55.3732 267.447 53.9938 266.893 52.594C266.616 51.9308 266.403 51.2424 266.257 50.5384Z" fill="#A47261"/>
<path d="M267.506 51.2889C266.83 48.8344 266.107 48.5098 266.905 45.9944C267.702 43.4789 267.405 42.4782 269.007 41.0717C270.609 39.6652 271.46 38.7726 273.312 38.9214C275.164 39.0702 276.171 38.6712 277.82 41.403C279.469 44.1348 280.226 43.4789 280.524 46.657C280.821 49.8351 282.274 49.8419 280.524 51.6406C278.773 53.4392 272.866 54.298 271.21 53.7976C269.554 53.2972 267.506 51.2889 267.506 51.2889Z" fill="#2E2420"/>
<path d="M275.515 48.7872C276.042 48.7872 276.468 48.3604 276.468 47.8338C276.468 47.3072 276.042 46.8804 275.515 46.8804C274.989 46.8804 274.562 47.3072 274.562 47.8338C274.562 48.3604 274.989 48.7872 275.515 48.7872Z" fill="#EAAF93"/>
<path d="M273.719 37.7653C275.416 37.7653 276.916 37.6368 278.268 38.9013C279.329 39.8006 280.288 40.8143 281.127 41.9238C281.979 43.1004 281.479 42.7082 282.58 44.1147L283.682 45.5144C283.602 44.6211 283.434 43.7378 283.182 42.8773C282.536 41.695 281.799 40.5646 280.978 39.4963C280.243 38.5986 279.257 37.9396 278.146 37.603C276.978 37.2911 275.773 37.1432 274.564 37.1635C273.665 37.1905 273.719 37.7653 273.719 37.7653Z" fill="#93665A"/>
<path d="M282.578 49.6391C284.126 48.3881 284.782 48.2123 285.376 46.4204C285.793 45.0839 286.074 43.7088 286.214 42.3159C286.417 41.1258 286.566 40.2197 286.566 40.2197C286.566 40.2197 287.066 40.3279 287.242 41.4031C287.417 42.4782 287.837 42.7554 287.586 44.7029C287.336 46.6503 287.742 47.2318 286.485 48.4895C285.228 49.7473 285.484 50.5181 284.133 50.5181C282.781 50.5181 282.578 49.6391 282.578 49.6391Z" fill="#93665A"/>
<path d="M283.105 29.8066C283.105 29.8066 284.058 29.8066 285.133 31.159C286.208 32.5114 286.329 33.1132 286.329 33.1876C286.329 33.262 285.924 32.8089 285.133 32.2071C284.371 31.4845 283.69 30.6794 283.105 29.8066V29.8066Z" fill="#93665A"/>
<path d="M332.041 47.2861C329.939 47.4822 323.633 49.8895 320.626 50.4913C317.618 51.0931 276.869 50.0923 266.258 50.0923C255.646 50.0923 251.537 49.8895 245.13 52.4928C238.722 55.0961 232.409 60.1811 231.308 67.7206C230.206 75.2601 232.315 83.3474 236.039 86.9582C239.763 90.5691 243.649 93.8689 250.233 94.6668C256.816 95.4647 298.896 94.2678 304.209 93.4632C309.521 92.6585 319.828 81.0416 322.032 79.04L323.133 76.6396C323.133 76.6396 333.947 81.2444 335.144 81.8462C336.34 82.448 341.957 79.6418 342.153 77.9378C342.349 76.2338 332.041 47.2861 332.041 47.2861Z" fill="white"/>
<path d="M257.337 50.1396C260.453 51.6949 265.955 56.5026 266.658 66.8213C267.361 77.1399 264.157 94.9102 264.157 94.9102H262.454C262.454 94.9102 264.853 83.5299 265.056 79.4187C265.259 75.3075 265.732 70.6282 265.658 66.9971C265.583 63.3659 265.157 61.5876 263.954 58.9842C262.751 56.3809 261.886 54.7716 259.953 53.196C258.643 52.118 257.271 51.1177 255.844 50.2005L257.337 50.1396Z" fill="#E6E6E6"/>
<path d="M244.426 89.6969C244.209 88.2498 244.426 86.2415 245.291 85.6803C246.156 85.1191 248.332 85.376 251.036 86.5391C253.739 87.7021 254.753 88.047 255.165 88.7232C255.38 89.1416 255.492 89.6052 255.492 90.0755C255.492 90.5459 255.38 91.0095 255.165 91.4279C254.713 92.4016 255.165 93.0034 253.401 92.7397C251.483 92.5416 249.586 92.1773 247.731 91.6511C245.365 90.9343 244.615 90.9343 244.426 89.6969Z" fill="#382F3D"/>
<path d="M232.938 65.7664C233.113 65.0902 233.992 60.9857 235.641 59.8835C237.29 58.7813 240.474 60.8572 240.771 61.5334C241.068 62.2096 239.325 63.0346 237.648 65.239C235.972 67.4433 236.195 67.8693 235.317 67.2675C234.438 66.6657 232.938 65.7664 232.938 65.7664Z" fill="#382F3D"/>
<path d="M236.27 68.4713C236.623 68.9187 236.881 69.434 237.028 69.9854C237.174 70.5367 237.206 71.1123 237.121 71.6764L236.945 73.4345C236.945 73.4345 242.353 74.557 243.103 74.6855C243.853 74.8139 244.204 73.8808 243.826 71.8252C243.447 69.7695 243.529 67.8221 242.9 65.9694C242.271 64.1166 242.4 64.2383 242.001 63.6635C241.602 63.0888 240.474 64.0896 239.372 65.0903C238.27 66.0911 236.27 68.4713 236.27 68.4713Z" fill="#382F3D"/>
<path d="M235.282 79.1143C235.656 78.461 235.986 77.7833 236.269 77.0857C236.599 76.4299 236.827 75.7276 236.945 75.0031C237.006 74.7191 236.817 74.5297 237.682 74.7935C238.547 75.0572 241.568 76.0512 242.487 76.3149C243.406 76.5786 243.799 76.5786 243.69 77.2142C243.413 78.405 243.067 79.5789 242.656 80.7304C242.352 81.5013 241.379 83.6786 241.021 84.3142C240.662 84.9498 240.608 85.1459 239.804 84.3142C239 83.4825 237.945 83.0024 236.871 81.5216C235.796 80.0407 234.681 80.1962 235.282 79.1143Z" fill="#382F3D"/>
<path d="M233.5 81.8192C233.5 81.8192 234.852 81.143 234.791 80.7508C234.73 80.3586 235.122 81.143 236.264 82.4412C237.009 83.3961 237.83 84.2893 238.718 85.1122C239.522 85.7884 239.995 86.1806 239.076 86.8027C238.157 87.4248 237.643 87.7764 237.643 87.7764C237.643 87.7764 234.156 84.3413 233.838 82.8537C233.52 81.3661 233.5 81.8192 233.5 81.8192Z" fill="#382F3D"/>
<path d="M233.553 77.4647C234.598 77.4647 235.445 75.4848 235.445 73.0424C235.445 70.6 234.598 68.6201 233.553 68.6201C232.507 68.6201 231.66 70.6 231.66 73.0424C231.66 75.4848 232.507 77.4647 233.553 77.4647Z" fill="#3B2B2A"/>
<path d="M233.194 74.469C233.474 74.469 233.701 73.8454 233.701 73.0761C233.701 72.3067 233.474 71.6831 233.194 71.6831C232.914 71.6831 232.688 72.3067 232.688 73.0761C232.688 73.8454 232.914 74.469 233.194 74.469Z" fill="#EFDCD5"/>
<path d="M280.525 76.3423C274.652 76.3423 269.887 72.1228 269.887 66.9229C269.887 61.723 274.652 57.4766 280.525 57.4766" fill="#E6E6E6"/>
<path d="M340.214 80.0543C338.409 79.4525 327.338 75.3818 326.838 75.1317C326.338 74.8815 322.58 57.9564 322.479 57.2058C322.377 56.4553 332.042 47.2861 332.042 47.2861C330.793 47.4917 329.563 47.8015 328.365 48.2125L323.965 49.5649L319.91 57.6792L324.101 77.0318L335.226 81.8598C335.226 81.8598 335.814 82.0694 337.456 81.4473C338.417 81.0705 339.34 80.6041 340.214 80.0543V80.0543Z" fill="#E6E6E6"/>
<path d="M314.298 57.5034H281.923C276.723 57.5034 272.508 61.7206 272.508 66.9228C272.508 72.1249 276.723 76.3421 281.923 76.3421H314.298C319.497 76.3421 323.713 72.1249 323.713 66.9228C323.713 61.7206 319.497 57.5034 314.298 57.5034Z" fill="#F2F2F2"/>
<path d="M281.877 70.344C283.766 70.344 285.297 68.8122 285.297 66.9225C285.297 65.0328 283.766 63.501 281.877 63.501C279.988 63.501 278.457 65.0328 278.457 66.9225C278.457 68.8122 279.988 70.344 281.877 70.344Z" fill="#E6E6E6"/>
<path d="M293.041 58.2539H281.273V60.5597H293.041V58.2539Z" fill="#716152"/>
<path d="M284.684 58.3823H282.879V60.1878H284.684V58.3823Z" fill="#382F3D"/>
<path d="M289.766 58.4771H288.062V60.181H289.766V58.4771Z" fill="#382F3D"/>
<path d="M284.352 69.2894C284.693 69.8477 285.171 70.3089 285.742 70.6287C286.312 70.9484 286.956 71.1159 287.609 71.1151H295.267C296.284 71.1151 297.258 70.7112 297.977 69.9922C298.696 69.2731 299.099 68.298 299.099 67.2811V66.375C299.099 65.3582 298.696 64.383 297.977 63.664C297.258 62.945 296.284 62.541 295.267 62.541H287.609C286.932 62.5404 286.267 62.7197 285.681 63.0607C285.096 63.4016 284.611 63.892 284.277 64.4817" fill="#382F3D"/>
<path d="M288.756 73.1572H286.586V75.5847H288.756V73.1572Z" fill="#382F3D"/>
<path d="M255.844 57.5032L260.534 56.8608L261.454 59.4033L256.635 60.1809L255.844 57.5032Z" fill="#382F3D"/>
<path d="M256.824 61.9393C256.824 61.9393 258.588 66.1046 258.176 69.3774H264.86C264.973 66.4881 264.353 63.6173 263.056 61.0332L256.824 61.9393Z" fill="#382F3D"/>
<path d="M258.094 70.9121C258.415 72.1447 258.52 73.4235 258.405 74.692H264.488C264.678 73.4392 264.678 72.1649 264.488 70.9121H258.094Z" fill="#382F3D"/>
<path d="M258.095 76.3354C258.095 76.3354 258.662 78.506 257.648 79.7975H264.367C264.714 78.7944 264.714 77.7037 264.367 76.7006L258.095 76.3354Z" fill="#382F3D"/>
<path d="M257.152 81.2104C257.279 82.4068 257.071 83.6149 256.551 84.6996L263.269 84.8957L263.681 81.6229L257.152 81.2104Z" fill="#382F3D"/>
<path d="M252.578 58.5246C253.206 59.2222 253.599 60.0999 253.7 61.0333L255.471 60.7357L254.376 57.916L252.578 58.5246Z" fill="#382F3D"/>
<path d="M303.508 72.3519C305.11 69.6472 306.212 66.5367 311.018 67.1385C315.823 67.7403 313.234 81.3385 314.525 86.6737C316.073 93.0637 313.174 97.1749 312.842 104.694C312.511 112.213 311.903 126.724 310.551 131.329C309.199 135.934 307.753 134.44 308.152 138.849C308.551 143.257 306.347 154.874 308.152 158.377C309.956 161.88 310.348 167.593 310.45 171.001C310.551 174.409 309.551 176.215 306.246 177.513C302.941 178.811 305.245 180.218 299.338 179.819C293.431 179.42 295.432 179.217 290.025 179.42C284.618 179.623 282.313 180.096 281.711 179.116C281.11 178.135 278.21 166.092 278.332 161.988C278.454 157.883 279.528 152.967 282.137 145.658C284.746 138.348 287.341 101.381 287.943 98.3718C288.544 95.3627 302.86 84.7803 303.265 79.4384C303.475 77.0824 303.556 74.7168 303.508 72.3519V72.3519Z" fill="#523E3B"/>
<path d="M282.582 81.2103C287.685 79.5401 287.388 81.3523 289.692 78.1471C291.997 74.942 290.99 73.2312 294.424 70.1275C297.857 67.0238 300.628 67.1185 302.635 67.1185C304.643 67.1185 308.239 67.017 308.137 70.9254C308.036 74.8338 308.239 73.833 306.339 78.6408C304.44 83.4485 305.839 86.0315 302.96 88.5469C300.081 91.0624 302.663 89.8588 298.357 91.8603C294.052 93.8618 293.626 96.1676 289.091 94.0647C284.556 91.9617 282.582 81.2103 282.582 81.2103Z" fill="#664A41"/>
<path d="M289.944 58.781C289.863 54.7983 287.686 53.8245 290.39 52.9928C293.093 52.1611 292.945 53.5203 294.898 52.9928C296.851 52.4654 297.297 50.0649 302.934 48.1851C308.571 46.3053 310.139 46.0822 315.1 46.0822C320.061 46.0822 319.683 43.7561 320.054 46.0822C320.426 48.4083 321.109 50.6667 320.054 53.4459C319 56.225 317.425 55.0214 318.554 59.1529C319.683 63.2844 320.203 63.3656 320.582 66.4423C320.96 69.5189 321.595 71.25 321.149 74.1846C320.703 77.1193 320.696 77.3357 320.244 78.0863C319.791 78.8368 316.864 71.703 313.41 70.1275C309.957 68.552 306.956 67.1928 303.948 67.7946C300.94 68.3964 296.818 69.7488 294.716 71.4055C292.614 73.0622 292.235 74.8608 292.012 73.4341C291.789 72.0073 291.708 69.8976 292.235 68.5452C292.762 67.1928 293.884 67.1928 292.911 65.4685C291.938 63.7443 289.944 58.781 289.944 58.781Z" fill="#A47261"/>
<path d="M290.391 55.0957C291.168 53.9326 291.371 52.6208 292.872 53.8988C294.372 55.1768 295.048 53.5945 294.825 57.4285C294.602 61.2625 295.291 64.4474 294.223 65.1641C293.156 65.8809 290.391 58.8553 290.391 56.9755C290.391 55.0957 290.161 55.4473 290.391 55.0957Z" fill="#2E2420"/>
<path d="M310.12 72.7782C309.566 71.2297 309.668 68.3221 310.796 68.1733C311.925 68.0246 317.055 72.1629 318.157 74.0156C318.653 74.796 318.941 75.6906 318.993 76.614C319.045 77.5374 318.859 78.4587 318.454 79.2899C317.704 80.6964 317.974 83.8001 315.609 82.299C313.243 80.7978 313.297 78.1877 312.398 76.6392C311.499 75.0908 310.12 72.7782 310.12 72.7782Z" fill="#584A4A"/>
<path d="M313.72 84.4493C313.673 81.9474 313.585 78.8437 315.579 78.9925C317.573 79.1412 319.08 82.2449 319.08 84.8483C319.051 87.1921 318.898 89.5328 318.62 91.8604C318.33 95.1196 319.377 96.4246 317.269 96.472C315.16 96.5193 314.106 94.6124 313.964 92.5906C313.822 90.5688 313.72 84.4493 313.72 84.4493Z" fill="#584A4A"/>
<path d="M297.547 57.0499C296.797 55.5014 295.249 55.3459 296.047 54.1964C296.844 53.0469 296.297 53.3444 298.074 52.4451C299.852 51.5457 299.872 50.1866 300.021 51.9447C300.169 53.7028 300.575 55.3256 299.723 57.0499C298.872 58.7742 298.27 58.4564 297.77 60.3092C297.27 62.1619 297.169 62.615 297.27 63.6157C297.371 64.6165 296.317 63.6631 296.371 62.0132C296.414 60.7075 296.684 59.4193 297.169 58.2062L297.547 57.0499Z" fill="#93665A"/>
<path d="M293.945 69.0725C295.5 67.3212 296.852 66.2663 297.805 64.5623C298.758 62.8583 301.407 58.0506 302.056 56.0491L302.732 54.0205C302.919 54.411 303.016 54.8385 303.016 55.2715C303.016 55.7045 302.919 56.1319 302.732 56.5224C302.056 57.7734 300.231 61.7832 299.63 62.7839C298.99 63.9861 298.279 65.1489 297.5 66.2663C296.5 67.6187 293.945 69.0725 293.945 69.0725Z" fill="#93665A"/>
<path d="M299.453 64.4135C302.109 63.3113 304.306 62.5607 306.063 61.0325C307.821 59.5044 307.848 60.1805 308.523 58.5036C308.936 57.6658 309.091 56.7247 308.97 55.7988C308.97 55.7988 310.22 57.9288 309.794 59.2947C309.386 60.2124 308.783 61.0298 308.027 61.6897C307.27 62.3496 306.379 62.8362 305.414 63.1152C303.556 63.4601 299.453 64.4135 299.453 64.4135Z" fill="#93665A"/>
<path d="M304.961 64.0214C307.063 63.5616 306.989 62.669 309.165 63.4602C311.019 64.2051 312.796 65.1291 314.471 66.219C316.072 67.1725 316.863 66.8614 318.621 68.1665C320.378 69.4715 321.324 71.6759 321.324 72.1289C321.324 72.582 321.155 70.6751 318.621 69.627C316.736 68.8177 314.909 67.8801 313.153 66.8208C311.577 65.9312 309.881 65.273 308.117 64.8666C306.259 64.4136 304.961 64.0214 304.961 64.0214Z" fill="#93665A"/>
<path d="M312.168 59.7075C312.573 61.5129 311.573 61.6617 313.925 63.5145C315.532 64.7254 317.26 65.7655 319.082 66.6182C320.38 67.3688 320.799 67.673 320.799 67.673C320.499 66.3558 319.724 65.1953 318.623 64.4138C316.825 63.2102 316.96 63.4604 315.04 62.0607C314.029 61.3443 313.069 60.558 312.168 59.7075V59.7075Z" fill="#93665A"/>
<path d="M312.867 46.9815C314.422 46.8327 318.376 45.9334 319.079 46.7854C319.707 47.7004 320.055 48.7791 320.079 49.8891C320.079 50.6396 318.524 48.5367 317.227 48.158C315.929 47.7794 312.867 46.9815 312.867 46.9815Z" fill="#93665A"/>
<path d="M291.945 75.7333C291.945 75.7333 293.696 73.4816 296.149 74.1307C298.603 74.7798 299.407 76.3351 299.454 76.6867C299.502 77.0383 298.319 75.6792 296.656 75.4358C295.08 75.3451 293.498 75.445 291.945 75.7333Z" fill="#5E443D"/>
<path d="M291.391 76.7475C291.391 76.7475 293.729 75.936 294.865 76.9368C296.073 78.0957 297.052 79.4721 297.751 80.994C298.602 82.6844 297.899 83.6987 297.075 82.6844C296.25 81.6701 295.723 80.1217 294.324 78.9721C292.925 77.8226 291.391 76.7475 291.391 76.7475Z" fill="#5E443D"/>
<path d="M290.594 78.6881C291.067 78.5402 291.577 78.5706 292.029 78.7737C292.481 78.9768 292.844 79.3384 293.047 79.7903C293.845 81.3794 294.149 81.5281 294.196 82.1773C294.244 82.8264 292.297 81.6769 291.946 80.7302C291.611 79.9795 291.154 79.2894 290.594 78.6881V78.6881Z" fill="#5E443D"/>
<path d="M308.639 76.7476C308.639 76.7476 307.888 93.1181 306.685 98.8996C305.482 104.681 302.63 105.587 302.11 103.937C301.589 102.287 303.245 100.482 304.664 96.046C306.084 91.6102 308.639 76.7476 308.639 76.7476Z" fill="#493736"/>
<path d="M305.859 104.234C307.414 101.78 308.164 96.7287 309.164 92.5904C309.947 89.7431 310.498 86.8373 310.814 83.9014C310.999 81.7253 310.883 79.534 310.469 77.3896C310.923 79.0156 311.273 80.6689 311.517 82.3394C311.767 84.4491 312.415 87.1471 312.192 90.7106C311.969 94.2741 311.746 98.6761 310.996 100.779C310.246 102.882 309.84 104.485 308.718 105.512C307.596 106.54 305.859 104.234 305.859 104.234Z" fill="#493736"/>
<path d="M296.398 104.674C296.958 108.343 297.277 112.045 297.351 115.757C297.428 118.148 297.713 120.528 298.203 122.87C298.203 122.87 298.75 118.813 298.75 117.156C298.75 115.5 298.703 114.303 298.453 110.394C298.203 106.486 296.398 104.674 296.398 104.674Z" fill="#493736"/>
<path d="M301.202 107.514C301.878 110.665 301.155 121.335 300.904 124.243C300.654 127.151 303.858 148.282 305.311 150.189C306.764 152.095 307.109 152.69 307.109 152.69C307.109 152.69 306.508 148.681 306.007 146.131C305.507 143.582 304.446 125.893 303.98 122.086C303.513 118.279 302.682 109.516 302.283 108.616C302.189 108.368 302.045 108.141 301.859 107.951C301.672 107.761 301.449 107.613 301.202 107.514Z" fill="#493736"/>
<path d="M305.859 109.542C305.859 109.542 306.164 117.609 306.812 122.87C307.461 128.131 309.712 127.022 309.712 125.223C309.712 123.425 309.036 119.861 308.637 116.96C308.238 114.059 305.859 109.542 305.859 109.542Z" fill="#493736"/>
<path d="M295.349 106.392C295.295 110.496 294.396 117.109 296.025 126.123C297.654 135.136 299.229 140.546 300.128 146.361C301.027 152.176 301.831 161.914 302.034 166.999C302.237 172.084 303.859 179.542 302.987 179.691C302.115 179.839 301.432 178.217 301.331 176.31C301.23 174.403 300.331 161.684 299.83 157.579C299.33 153.475 297.877 146.145 297.6 143.048C297.323 139.951 296.924 138.044 295.822 133.439C294.721 128.834 293.423 124.649 293.423 121.018C293.403 117.566 293.629 114.118 294.099 110.699C294.37 109.225 294.789 107.782 295.349 106.392V106.392Z" fill="#493736"/>
<path d="M296.655 179.19C296.196 175.383 295.202 166.167 295.351 160.933C295.5 155.699 295.601 155.923 296.027 150.114C296.027 150.114 296.216 146.693 296.027 142.994C295.838 139.295 296.027 140.695 296.027 140.695C296.027 140.695 297.135 149.708 297.135 152.616C297.135 155.524 296.331 159.128 296.459 162.333C296.588 165.538 296.858 170.244 297.135 174.254C297.412 178.264 298.102 179.664 297.811 179.664C297.407 179.557 297.018 179.398 296.655 179.19Z" fill="#493736"/>
<path d="M286.583 178.92C287.685 175.113 288.489 175.113 289.692 166.194C290.895 157.275 291.49 152.068 292.396 147.057C293.301 142.047 294.295 139.951 294.423 135.738C294.552 131.525 292.72 126.724 292.321 121.612C291.922 116.5 291.645 111.997 291.645 111.47C291.645 110.942 290.043 112.146 289.746 114.573C289.449 117.001 288.138 128.097 288.138 131.708C288.138 135.319 286.218 142.25 284.866 145.759C283.514 149.269 281.663 152.169 281.487 156.274C281.311 160.378 280.811 164.49 282.163 169C283.355 172.425 284.833 175.743 286.583 178.92V178.92Z" fill="#493736"/>
<path d="M295.352 83.9016C295.352 83.9016 298.258 83.3471 299.454 85.9302C300.65 88.5132 300.745 89.9873 300.603 90.393C300.461 90.7987 299.407 86.9377 298.001 85.9302C296.595 84.9226 295.352 83.9016 295.352 83.9016Z" fill="#5E443D"/>
<path d="M290.344 97.6752C292.229 95.9307 289.668 95.6061 294.034 94.416C296.148 96.253 298.359 97.9753 300.658 99.5753C303.659 101.604 308.092 105.134 310.796 105.188C313.5 105.242 312.905 100.224 313.554 97.9728C314.202 95.7211 314.561 94.8285 314.561 94.8285C314.561 94.8285 315.128 99.8188 314.162 102.524C313.195 105.228 313.702 105.986 312.398 108.941C311.093 111.896 310.85 114.005 307.592 112.653C304.335 111.3 299.434 109.542 297.278 106.939C295.122 104.336 290.344 97.6752 290.344 97.6752Z" fill="#483834"/>
<path d="M299 80.4666C300.656 82.5898 301.508 83.692 302.008 85.396C302.508 87.1 302.684 88.2022 302.684 88.2022C302.946 87.3424 303.044 86.441 302.974 85.5448C302.839 84.1924 302.238 82.0218 301.386 81.0008C300.534 79.9797 299 80.4666 299 80.4666Z" fill="#5E443D"/>
<path d="M252.425 119.787C249.194 116.711 247.018 117.799 248.37 110.794C249.722 103.789 249.269 102.004 252.425 101.679C255.582 101.354 254.75 105.134 262.185 103.863C269.62 102.592 269.471 100.895 277.21 101.665C284.949 102.436 290.356 98.5009 292.005 103.484C293.654 108.468 293.728 111.822 291.701 116.859C289.673 121.897 289.072 122.343 289.146 123.77C289.22 125.197 291.099 129.031 291.099 132.033C291.099 135.035 291.525 139.35 287.321 147.815C283.117 156.281 279.711 151.271 282.313 158.682C284.915 166.093 289.524 178.116 287.72 181.72C285.915 185.324 277.71 188.198 266.693 186.453C255.676 184.708 245.464 186.453 244.065 183.282C242.665 180.11 248.073 179.312 249.87 171.699C251.668 164.085 247.065 160.677 251.675 151.663C256.285 142.649 259.11 132.73 261.489 130.863C263.868 128.997 264.442 126.367 262.59 125.116C260.739 123.865 260.488 123.31 257.859 121.735C256.192 120.737 254.346 120.075 252.425 119.787V119.787Z" fill="#523E3B"/>
<path d="M260.577 102.429C259.753 99.1296 257.577 93.8688 258.928 88.2294C260.28 82.59 261.105 79.9663 262.909 78.9182C264.714 77.8702 269.215 81.3187 272.818 81.2105C276.42 81.1023 277.326 80.2706 282.354 80.6425C287.383 81.0144 286.41 80.1962 290.168 81.2105C293.926 82.2248 295.352 81.7718 294 86.1264C292.648 90.4811 291.594 89.8455 291.519 92.3474C291.445 94.8493 293.169 96.7426 293.844 100.34C294.52 103.937 295.372 103.863 294.52 106.642C293.669 109.421 291.391 110.997 288.985 110.774C286.579 110.55 279.07 105.736 275.095 104.688C271.121 103.64 271.189 102.585 266.383 102.882C261.578 103.18 260.577 102.429 260.577 102.429Z" fill="#A47261"/>
<path d="M257.094 111.896C259.5 112.653 260 112.998 264.204 113.052C268.408 113.106 269.26 113.052 269.26 113.052C269.26 113.052 266.712 114.702 264.657 114.702C262.602 114.702 261.399 115.203 259.351 114.026C257.303 112.849 257.094 111.896 257.094 111.896Z" fill="#493736"/>
<path d="M260.602 118.408C262.399 118.712 263.204 119.212 265.806 118.658C267.399 118.319 268.958 117.835 270.463 117.211C270.463 117.211 269.01 119.463 267.36 119.963C265.711 120.463 266.11 121.417 264.103 120.565C262.841 120.012 261.663 119.286 260.602 118.408V118.408Z" fill="#493736"/>
<path d="M261.453 105.134C263.815 109.796 266.722 114.161 270.111 118.137C273.943 122.418 272.592 123.472 275.971 124.149C279.351 124.825 281.074 125.501 281.453 122.871C281.831 120.24 281.527 118.286 279.351 114.98C277.174 111.673 277.924 111.822 274.166 107.765C270.409 103.707 271.395 102.835 267.489 102.592C266.355 102.52 265.22 102.713 264.172 103.154C263.125 103.595 262.194 104.273 261.453 105.134V105.134Z" fill="#857779"/>
<path d="M262.562 125.873C262.265 127.604 260.237 127.827 263.238 130.309C266.239 132.79 262.711 133.46 269.173 133.615C275.634 133.771 275.783 133.757 279.385 132.939C282.988 132.121 284.644 131.891 287.117 129.639C289.591 127.388 290.726 127.381 290.875 125.582C291.024 123.783 291.7 123.249 290.875 121.369C290.051 119.49 287.57 119.192 285.015 120.619C282.46 122.046 280.399 124.744 275.404 125.095C270.409 125.447 268.253 125.454 265.719 125.548C264.658 125.544 263.6 125.653 262.562 125.873Z" fill="#483834"/>
<path d="M279.204 126.096C280.927 128.206 281.069 127.056 282.799 132.1C284.529 137.145 285.361 139.025 285.962 142.629C286.564 146.233 286.706 147.058 286.557 149.161C286.408 151.264 289.768 151.791 291.241 148.261C292.714 144.732 294.424 146.909 293.194 142.176C291.964 137.442 289.943 132.486 288.815 129.179C287.686 125.873 289.943 125.724 288.362 123.094C286.78 120.463 277.71 122.417 278.379 124.547C279.048 126.677 279.204 126.096 279.204 126.096Z" fill="#857779"/>
<path d="M244.195 181.036C245.857 180.852 247.452 180.278 248.85 179.362C250.249 178.446 251.412 177.212 252.245 175.762C254.57 171.631 255.773 169.453 257.051 165.768C258.328 162.083 258.098 164.49 259.153 157.958C260.207 151.426 259.93 152.17 261.457 144.434C262.985 136.699 263.242 135.042 263.242 135.042C263.242 135.042 263.316 135.718 263.242 138.572C263.167 141.425 262.025 147.89 261.62 151.791C261.12 156.222 260.332 160.615 259.261 164.943C258.511 167.499 255.807 175.012 253.779 177.338C251.752 179.664 251.001 180.644 248.751 181.097C247.241 181.358 245.697 181.337 244.195 181.036Z" fill="#493736"/>
<path d="M266.286 142.047C265.381 144.657 262.968 147.585 263.238 151.947C263.508 156.308 264.779 167.12 266.658 171.928C268.537 176.736 269.51 178.994 270.49 180.644C271.47 182.294 274.005 186.973 274.005 186.973L270.524 186.899C270.227 185.885 267.638 179.461 266.962 177.865C266.286 176.269 263.421 167.945 263.238 166.296C263.056 164.646 262.231 155.253 262.231 154.422C262.231 153.59 262.15 146.835 263.955 144.509C265.759 142.183 266.286 142.047 266.286 142.047Z" fill="#493736"/>
<path d="M275.445 156.525C275.445 156.525 280.886 155.808 281.528 156.288L282.941 160.582L275.445 156.525Z" fill="#493736"/>
<path d="M274.656 157.958C277.961 159.27 279.164 159.534 281.077 161.413C282.548 162.796 283.769 164.422 284.686 166.221C285.024 166.845 285.32 167.491 285.572 168.155C285.572 168.155 282.28 164.72 280.895 163.212C279.509 161.704 274.656 157.958 274.656 157.958Z" fill="#493736"/>
<path d="M271.352 159.006C273.602 161.488 278.861 165.396 280.814 167.986C282.767 170.576 284.41 172.158 285.241 174.261C286.072 176.364 286.221 176.587 286.748 177.865C285.898 175.972 284.757 174.222 283.369 172.679C281.192 170.353 280.043 169.372 276.448 165.396C274.583 163.404 272.879 161.268 271.352 159.006V159.006Z" fill="#493736"/>
<path d="M264.896 86.3566C264.747 84.6999 265.423 82.8201 266.099 82.2588C266.775 81.6976 268.424 83.5774 269.404 83.8344C270.384 84.0913 269.776 85.3423 267.599 85.9035C265.423 86.4647 264.896 86.3566 264.896 86.3566Z" fill="#93665A"/>
<path d="M265.688 90.7109C265.35 88.9866 263.66 89.3585 265.688 88.2698C267.716 87.1812 268.804 86.9174 269.669 86.363C270.534 85.8085 270.345 87.4043 269.858 89.3247C269.372 91.2451 270.717 93.0911 267.939 95.0926C265.161 97.0941 264.708 97.324 263.958 97.4728C263.207 97.6215 263.843 96.5329 264.708 95.4848C265.573 94.4367 266.965 93.7537 266.587 92.3473C266.208 90.9408 265.688 90.7109 265.688 90.7109Z" fill="#93665A"/>
<path d="M273.606 82.1572C272.444 84.0979 271.051 85.5382 270.903 88.155C270.754 90.7719 271.058 91.6104 270.68 92.6247C271.053 92.3858 271.355 92.0506 271.554 91.6542C271.752 91.2579 271.84 90.8152 271.808 90.3729C271.694 88.8312 271.322 87.4045 272.336 85.7546C272.986 84.6484 273.418 83.4269 273.606 82.1572V82.1572Z" fill="#93665A"/>
<path d="M274.566 98.8254C277.074 99.1297 278.047 99.6775 281.589 99.2244C285.13 98.7714 285.536 99.2244 287.672 98.3724C288.667 98.0224 289.623 97.5691 290.524 97.02C290.355 97.8078 289.935 98.5196 289.328 99.0486C288.327 99.9006 282.069 101.564 279.412 100.935C277.698 100.485 276.064 99.7736 274.566 98.8254Z" fill="#93665A"/>
<path d="M277.676 104.938C280.39 104.263 283.195 104.035 285.982 104.262C289.49 104.566 289.943 104.566 291.241 105.668C292.538 106.77 292.194 108.123 291.592 108.272C290.991 108.42 289.037 107.67 287.138 107.021C285.066 106.378 282.936 105.941 280.778 105.716C279.71 105.619 278.663 105.357 277.676 104.938V104.938Z" fill="#93665A"/>
<path d="M35.3238 24.3428C35.824 22.8417 37.8246 8.31708 47.9358 10.0211C58.047 11.7251 58.7499 14.9911 58.3512 17.1143C58.0827 18.5245 57.6798 19.9057 57.1481 21.2391C56.6479 22.7402 55.8504 22.0437 55.9518 23.342C56.0532 24.6403 57.851 26.9461 57.0535 27.9537C56.2559 28.9612 55.6476 27.6494 55.5463 28.9544C55.4449 30.2595 56.2221 30.2527 54.7487 31.1588C53.2753 32.0649 52.8427 30.8545 53.1469 32.6599C53.451 34.4654 53.7484 36.4669 51.8424 36.5683C50.1468 36.7399 48.436 36.4624 46.8814 35.7637C44.9349 34.9657 46.2055 34.1611 44.9349 34.9657C43.6642 35.7704 40.6295 37.2648 37.6286 32.4571C34.6277 27.6494 35.3238 24.3428 35.3238 24.3428Z" fill="#BC896A"/>
<path d="M33.0208 24.7283C32.6221 21.7192 31.419 22.5239 32.4193 17.6148C33.4196 12.7056 37.8264 5.88962 41.9357 5.40953C45.5022 4.88724 49.1399 5.60318 52.2429 7.4381C55.1492 9.13534 59.0559 10.7379 60.2589 12.9423C61.462 15.1467 61.9622 17.5539 60.9348 18.8522C59.9075 20.1505 59.583 21.158 58.4138 21.9627C57.2445 22.7673 56.332 21.6584 56.5348 20.3601C56.7376 19.0618 58.0353 17.5539 57.1296 16.2489C56.2239 14.9438 55.5277 13.1451 54.5274 12.8679C53.5271 12.5907 52.8242 11.7657 52.4255 13.2669C52.0267 14.768 52.1281 15.8702 51.4251 17.2699C50.7222 18.6696 50.925 19.7786 49.019 19.1768C47.113 18.575 45.8153 17.0738 44.9164 16.871C44.6137 16.7906 44.2981 16.771 43.9878 16.8133C43.6775 16.8556 43.3786 16.9589 43.1085 17.1173C42.8383 17.2757 42.6021 17.4861 42.4136 17.7363C42.2251 17.9864 42.0879 18.2715 42.0101 18.575C41.5099 20.279 40.7124 19.2511 41.5099 21.5772C42.3075 23.9033 42.8144 24.4849 42.0101 24.7891C40.5299 25.1828 39.0265 25.4831 37.5087 25.6885C36.2042 25.8846 35.1026 26.0874 34.3996 25.6885C33.6967 25.2895 33.0208 24.7283 33.0208 24.7283Z" fill="#4F3924"/>
<path d="M45.5113 34.6207C45.3491 33.9445 50.8103 29.0827 52.9866 29.1571C55.163 29.2315 55.3792 29.3802 55.6023 29.7454C56.1227 30.5906 54.4871 31.7199 53.284 31.5508C53.0787 32.421 53.1019 33.3295 53.3516 34.188C53.7369 35.9596 53.5746 37.65 49.9722 36.5749C46.3697 35.4998 45.7749 35.7229 45.5113 34.6207Z" fill="#4F3924"/>
<path d="M33.4922 26.6012L34.3979 24.2007C36.1925 24.9119 37.7373 26.1374 38.8384 27.7236C40.643 30.354 42.7518 32.6801 43.7994 34.9386C44.79 36.8516 45.3745 38.9489 45.5162 41.0987C45.6716 43.4248 45.9014 47.5563 45.9014 47.5563C45.9014 47.5563 42.9478 38.2452 36.439 32.5314L33.4922 26.6012Z" fill="#373327"/>
<path d="M45.4177 19.8599C45.7421 19.4474 46.1544 19.4677 45.8503 18.5616C45.5461 17.6555 44.9784 16.9049 44.2011 16.9049C43.735 16.8936 43.2774 17.032 42.8955 17.2996C42.5136 17.5673 42.2274 17.9503 42.0789 18.3926C41.7206 19.5015 41.2678 20.0425 42.0789 20.9283C42.8899 21.8141 43.0386 22.5985 43.9781 22.7878C44.9176 22.9771 45.3704 23.1394 45.5259 22.6323C45.6813 22.1251 45.1609 21.4151 45.215 20.8133C45.2273 20.4862 45.2958 20.1637 45.4177 19.8599V19.8599Z" fill="#B2836B"/>
<path d="M44.3361 38.6509C44.3361 38.6509 49.6418 44.2565 49.8446 44.8583C50.0474 45.4601 51.9533 68.0111 50.561 70.1073C49.1687 72.2034 50.561 69.6069 50.561 69.6069L40.9297 43.276L44.3361 38.6509Z" fill="#BFAD99"/>
<path d="M30.5664 29.1575C31.2423 27.7308 32.6684 25.6278 33.5741 25.1004C34.4798 24.573 38.9812 29.2319 41.2318 34.7902C43.4825 40.3485 45.6994 46.0623 46.8417 48.6183L47.9907 51.1743C47.9907 51.1743 46.1117 50.1194 44.1584 46.5897C42.2051 43.06 43.2326 42.2621 38.1498 36.2237C32.8171 30.8142 30.5664 29.1575 30.5664 29.1575Z" fill="#C4A06E"/>
<path d="M29.4837 63.6479C31.8126 64.7597 33.6625 68.1553 37.8414 68.2905C42.0202 68.4258 42.217 65.6462 42.217 65.6462C42.217 65.6462 40.695 54.1897 38.2284 51.9661C35.7618 49.7424 31.1369 50.9594 30.6973 51.9661C30.2578 52.9727 28.1192 59.2005 28.0274 60.8683C27.9355 62.536 29.4837 63.6479 29.4837 63.6479Z" fill="#C4A06E"/>
<path d="M29.7148 142.73C29.7148 142.73 35.5207 143.934 37.4267 143.738C39.3327 143.542 41.0291 144.035 41.6307 140.357C42.2322 136.678 44.0368 130.214 44.3342 128.936C44.6316 127.658 46.0036 123.324 46.1185 121.322C46.2334 119.32 45.8347 114.912 45.5373 114.81C45.2399 114.709 37.9268 114.208 37.9268 114.208C37.9268 114.208 33.7228 122.323 33.3173 123.222C32.9118 124.121 31.1207 135.948 31.0193 136.847C30.9179 137.747 29.7148 142.73 29.7148 142.73Z" fill="#A08748"/>
<path d="M27.4091 142.534L37.4257 143.738C37.4257 143.738 36.8241 152.251 35.7225 157.762C34.6208 163.273 33.9179 168.277 34.3234 172.983C34.7289 177.689 33.4312 177.994 36.1347 179.9C38.8383 181.807 37.838 183.505 42.5421 184.309C47.2463 185.114 47.2733 183.904 49.8552 184.81C49.8552 184.81 52.4573 184.857 52.1059 186.838C51.7544 188.819 46.7529 189.239 45.5498 189.442C44.3467 189.644 33.7827 189.489 31.532 189.442C29.2813 189.394 24.3203 187.94 24.3203 187.94L25.3206 142.534H27.4091Z" fill="#3A372E"/>
<path d="M19.1018 116.487C19.1018 116.487 19.602 122.194 19.1018 125.102C18.6017 128.01 18.2975 126.603 17.2972 130.41C16.2969 134.217 15.7968 131.012 15.0939 136.496C14.7379 138.961 14.5122 141.444 14.418 143.934V146.24L25.9959 147.342C25.9959 147.342 26.6717 144.752 26.8069 144.833C26.9421 144.914 29.551 144.678 30.2539 143.677C31.9142 141.721 33.0121 139.352 33.4306 136.82C34.2349 132.614 34.4309 130.809 34.9378 127.408C35.4447 124.006 36.1341 122.837 36.7356 119.408C37.3372 115.98 37.4115 115.588 37.4115 115.588L19.1018 116.487Z" fill="#AE944A"/>
<path d="M13.3927 144.333C13.3927 144.333 13.0953 171.881 13.3927 176.114C13.5986 180.118 13.5557 184.131 13.2642 188.13C13.0953 190.24 12.3924 192.863 12.6965 193.742C13.0007 194.621 26.7143 197.008 39.056 195.527C39.056 195.527 42.1177 193.641 39.5358 191.436C36.9539 189.232 36.8323 189.935 33.9463 188.732C31.0602 187.528 29.3435 187.034 27.7417 184.729C26.1398 182.423 25.8357 182.626 25.9371 180.617C26.0384 178.609 26.5386 177.615 25.9371 177.013C25.3355 176.411 25.2612 176.716 25.4369 174.606C25.6126 172.496 25.9371 156.775 25.9371 154.172C25.9371 151.568 26.8563 144.955 26.8495 144.854C26.8427 144.752 13.3927 144.333 13.3927 144.333Z" fill="#3B3421"/>
<path d="M40.9282 127.408C40.9282 127.408 39.5156 84.2331 39.5156 83.327C39.5156 82.4209 51.4517 83.327 51.4517 83.327C51.4517 83.327 54.358 116.589 51.4517 126.603L40.9282 127.408Z" fill="#C4A06E"/>
<path d="M22.9233 81.5015L41.6318 83.929V117.062C41.6318 117.062 28.3169 120.565 21.2066 118.962C14.0963 117.36 12.0078 116.258 12.0078 116.258C12.0078 116.258 16.7998 90.2108 16.9012 89.8119C17.0026 89.4129 22.9233 81.5015 22.9233 81.5015Z" fill="#C4A06E"/>
<path d="M32.033 28.6301C31.0936 28.1702 25.4094 27.0275 22.1043 30.5369C18.7993 34.0463 14.3925 34.54 14.1965 39.8548C14.0005 45.1697 14.1965 48.767 14.1965 48.767C14.1965 48.767 14.4939 43.7091 16.7851 39.7128C18.8668 36.0884 23.8487 33.9314 24.6463 34.4859C29.1815 37.6302 32.2831 48.3748 33.0942 50.3561C33.8309 52.2291 39.0555 61.5876 40.7587 65.2999C42.4619 69.0121 41.6441 71.3856 41.6441 71.3856L51.1741 72.3863C51.1741 72.3863 52.3704 72.1902 51.9716 69.783C51.5728 67.3758 47.7744 57.8618 46.8687 54.9609C45.963 52.0601 43.2595 39.4085 34.446 30.6181C33.7275 29.8575 32.9169 29.1897 32.033 28.6301Z" fill="#CAB69E"/>
<path d="M26.5111 60.688C27.8629 61.8984 33.9458 66.3004 40.9277 66.6993C47.9096 67.0983 47.7338 67.6595 49.7142 67.2267C51.6945 66.794 52.0527 66.9968 52.0527 66.9968C52.0527 66.9968 52.9381 73.4139 52.0527 74.7122C51.1673 76.0105 43.1581 74.6648 38.8527 73.9413C34.5473 73.2178 32.6481 74.0089 30.0662 72.9068C27.4844 71.8046 26.9572 70.7497 26.5584 67.9706C26.3256 65.5493 26.3098 63.1121 26.5111 60.688V60.688Z" fill="#BFAD99"/>
<path d="M51.4456 73.9416C52.1215 76.5179 52.4121 77.6201 52.0269 79.7231C51.6416 81.826 51.8444 81.5285 49.8437 81.4271C47.8431 81.3256 40.1313 80.2235 36.1233 80.122C32.1153 80.0206 28.1073 80.122 27.8099 80.0206C27.5126 79.9192 26.8164 75.5172 26.8164 73.4142C26.8164 71.3113 28.0127 69.9048 29.1144 69.9048C30.2161 69.9048 51.4456 73.9416 51.4456 73.9416Z" fill="#3A372E"/>
<path d="M28.4159 83.3271C27.909 81.2986 27.2129 79.1212 28.4159 78.418C29.619 77.7148 50.2132 79.8448 51.058 80.122C51.9029 80.3992 52.8086 84.9297 52.0246 85.8358C51.2405 86.7419 28.4159 83.3271 28.4159 83.3271Z" fill="#BFAD99"/>
<path d="M14.1084 112.376C14.1084 112.376 10.7898 81.0212 12.4795 64.9143C14.1692 48.8075 12.6823 40.9501 19.7858 35.9057C26.8894 30.8614 29.9241 39.3678 31.2015 44.0809C32.4789 48.7939 34.4998 50.694 33.0534 54.2238C31.607 57.7535 29.505 58.1321 28.9981 61.8377C28.4912 65.5432 26.9705 67.3486 28.8021 77.4644C30.6337 87.5802 31.4043 93.693 32.6073 98.663C33.8104 103.633 34.1078 104.012 33.5603 104.715C33.0129 105.418 21.7932 112.626 19.0897 113.228C16.3861 113.83 14.2436 113.708 14.1084 112.376Z" fill="#CEBBA5"/>
<path d="M15.0938 112.579C16.1613 110.558 17.9234 108.992 20.0547 108.17C22.8317 107.02 25.7326 106.196 28.6993 105.715L32.4504 104.965C32.4504 104.965 32.1395 106.466 29.24 107.67C26.3405 108.873 23.2922 110.929 20.7847 111.477C18.2772 112.024 15.0938 112.579 15.0938 112.579Z" fill="#2E2420"/>
<path d="M174.852 182.389C176.596 181.997 177.84 180.753 179.868 180.53C181.895 180.306 182.686 180.814 182.686 181.456C182.686 182.098 183.639 181.456 183.754 182.389C183.869 183.322 183.247 183.741 183.024 184.715C182.801 185.689 184.213 185.871 181.05 186.352C177.887 186.832 175.92 187.346 175.136 186.73C174.352 186.115 174.852 182.389 174.852 182.389Z" fill="#F7931E"/>
<path d="M177.309 183.741C179.052 183.457 181.648 182.896 182.324 182.504Z" fill="#CC7825"/>
<path d="M82.7989 188.394C85.2794 191.775 117.269 197.401 139.14 196.15C161.012 194.899 156.261 199.821 170.684 195.473L185.107 191.098C185.107 191.098 179.247 180.854 170.238 176.621C161.228 172.388 155.585 168.027 143.642 168.061C131.699 168.094 128.995 165.241 119.533 168.473C110.071 171.705 104.211 174.41 98.5807 175.201C92.9506 175.992 91.9909 176.385 93.0317 174.667C94.0726 172.949 95.0594 172.496 96.303 171.563C97.5466 170.63 98.1008 171.225 98.5807 168.608C99.0606 165.991 99.8784 165.735 98.8646 164.294C97.8508 162.854 97.9319 162.266 95.4852 161.17C93.0385 160.075 91.7949 159.223 89.7942 159.703C87.7936 160.183 84.982 161.157 83.3598 162.962C81.7377 164.768 80.2846 165.667 79.9804 167.019C79.6763 168.372 78.5543 177.919 79.9804 182.653C81.4065 187.386 82.7989 188.394 82.7989 188.394Z" fill="white"/>
<path d="M91.025 163.057C91.0259 162.931 91.0019 162.806 90.9544 162.69C90.9069 162.574 90.8368 162.468 90.7483 162.378C90.6597 162.289 90.5543 162.218 90.4382 162.17C90.3222 162.122 90.1977 162.097 90.072 162.097C89.8819 162.095 89.6957 162.151 89.537 162.255C89.3782 162.36 89.2542 162.509 89.1805 162.685C89.1068 162.86 89.0868 163.053 89.1231 163.24C89.1594 163.427 89.2502 163.598 89.3842 163.733C89.5181 163.868 89.6891 163.961 89.8755 163.998C90.0619 164.036 90.2552 164.017 90.4309 163.945C90.6067 163.872 90.757 163.749 90.8628 163.591C90.9685 163.433 91.025 163.247 91.025 163.057V163.057Z" fill="black"/>
<path d="M95.6227 163.395C95.4605 164.341 97.2854 163.902 96.9136 165.565C96.5419 167.229 95.5619 166.918 95.2239 168.351C94.886 169.785 94.298 170.076 95.2239 170.664C96.1499 171.252 107.255 171.198 108.519 170.833C109.782 170.468 110.492 169.907 109.505 169.426C108.519 168.946 105.45 167.06 102.888 165.734C100.327 164.409 99.7591 163.564 98.0153 163.253C96.2715 162.942 95.7038 162.888 95.6227 163.395Z" fill="#F7931E"/>
<path d="M155.53 188.475C155.192 190.111 153.84 191.518 154.462 192.309C155.084 193.1 154.232 194.283 157.45 193.661C160.701 193.024 163.994 192.628 167.304 192.478C170.852 192.309 171.251 192.194 174.232 192.14C177.212 192.086 179.416 192.086 181.389 191.152C183.175 190.406 184.889 189.501 186.513 188.448C188.655 187.041 188.939 186.811 189.615 185.912C190.291 185.013 190.683 184.336 188.655 184.898C186.627 185.459 180.599 186.419 177.449 186.872C174.299 187.325 173.671 187.487 170.014 188.225C166.358 188.962 162.188 189.827 159.369 189.252C156.551 188.678 155.53 188.475 155.53 188.475Z" fill="#F7931E"/>
<path d="M120.379 189.279C123.136 189.543 132.436 192.092 135.417 193.837C138.398 195.581 138.236 195.744 137.114 195.805C133.834 195.839 130.556 195.631 127.306 195.182C123.873 194.621 122.352 193.999 120.095 192.309C117.837 190.618 120.379 189.279 120.379 189.279Z" fill="#F2F2F2"/>
<path d="M138.296 168.973C141.223 168.75 142.743 168.128 145.785 168.635C148.826 169.143 150.475 168.689 154.301 170.103C158.126 171.516 158.404 171.232 162.459 173.538C164.479 174.595 166.37 175.881 168.096 177.372C169.11 178.163 168.488 179.062 166.798 179.062C165.108 179.062 161.053 178.947 158.687 178.102C156.322 177.257 150.915 175.397 147.758 174.383C144.602 173.369 145.109 173.261 141.223 172.584C137.336 171.908 134.91 172.287 135.363 171.11C135.816 169.934 138.296 168.973 138.296 168.973Z" fill="#F2F2F2"/>
<path d="M94.2974 176.695C96.2642 176.411 101.002 175.681 103.253 175.12C105.122 174.654 106.965 174.089 108.775 173.429C110.688 172.753 111.532 172.131 113.898 171.455C116.264 170.779 118.237 168.919 119.535 169.65C120.833 170.38 121.448 172.185 120.495 172.807C118.829 173.888 116.942 174.582 114.973 174.836C112.323 175.174 108.322 176.411 106.294 176.695C104.267 176.979 99.5355 177.71 97.7917 177.764C96.0479 177.818 95.1422 178.501 94.2974 177.71C93.4525 176.919 94.2974 176.695 94.2974 176.695Z" fill="#F2F2F2"/>
<path d="M85.2461 176.148C85.5029 174.951 85.165 174.647 86.4424 173.558C87.7198 172.469 87.1994 171.705 89.8218 171.11C92.4442 170.515 93.8028 170.515 94.3232 170.738C94.8436 170.962 94.3976 171.719 94.1002 171.942C93.8028 172.165 92.0725 172.882 91.8833 174.2C91.694 175.519 91.8089 175.553 92.2956 176.378C92.7822 177.203 92.7078 178.095 92.1469 178.406C90.9941 178.768 89.7773 178.879 88.5782 178.731C87.6049 178.582 85.4962 178.69 85.4218 177.717C85.3475 176.743 85.2461 176.148 85.2461 176.148Z" fill="#F2F2F2"/>
<path d="M90.7932 162.455L91.8611 163.253C91.8793 163.267 91.8933 163.287 91.9016 163.308C91.9098 163.33 91.9119 163.354 91.9078 163.377C91.9036 163.4 91.8933 163.421 91.8779 163.439C91.8626 163.456 91.8427 163.469 91.8205 163.476L90.4688 163.922L90.7932 162.455Z" fill="black"/>
<path d="M159.309 192.546C160.545 191.971 163.08 190.673 165.223 190.618C167.365 190.564 166.514 189.374 169.055 190.618C170.217 191.239 171.443 191.731 172.711 192.086C170.768 192.342 168.811 192.496 166.851 192.546C164.601 192.532 159.309 192.546 159.309 192.546Z" fill="#CC7825"/>
<path d="M171.98 189.279C172.656 189.881 176.428 189.374 178.685 188.982C180.943 188.59 183.531 187.575 185.667 187.122C186.965 186.846 188.218 186.391 189.391 185.77" fill="#CC7825"/>
<path d="M133.46 63.5617C155.938 63.5617 174.161 53.4017 174.161 40.8687C174.161 28.3358 155.938 18.1758 133.46 18.1758C110.981 18.1758 92.7578 28.3358 92.7578 40.8687C92.7578 53.4017 110.981 63.5617 133.46 63.5617Z" fill="#BDCCD4"/>
<path d="M110.306 45.629C113.997 45.629 116.99 42.6348 116.99 38.9414C116.99 35.248 113.997 32.2539 110.306 32.2539C106.614 32.2539 103.621 35.248 103.621 38.9414C103.621 42.6348 106.614 45.629 110.306 45.629Z" fill="white"/>
<path d="M113.3 37.8193C113.733 36.3452 112.861 35.3647 114.774 35.3647C116.687 35.3647 116.186 36.636 118.424 38.9418C120.661 41.2476 121.803 42.0117 122.999 42.3971C124.196 42.7826 122.323 44.1417 120.221 44.0876C118.119 44.0335 113.03 44.9058 112.537 44.0876C112.043 43.2694 113.3 37.8193 113.3 37.8193Z" fill="#F7931E"/>
<path d="M155.614 34.9453H146.449C145.703 34.9453 145.098 35.5508 145.098 36.2977V47.4954C145.098 48.2423 145.703 48.8478 146.449 48.8478H155.614C156.361 48.8478 156.966 48.2423 156.966 47.4954V36.2977C156.966 35.5508 156.361 34.9453 155.614 34.9453Z" fill="#F2F2F2"/>
<path d="M145.098 35.2426C145.098 33.668 145.723 32.158 146.836 31.0446C147.949 29.9312 149.458 29.3057 151.032 29.3057C152.606 29.3057 154.115 29.9312 155.228 31.0446C156.341 32.158 156.966 33.668 156.966 35.2426C156.966 38.5424 145.098 38.5424 145.098 35.2426Z" fill="white"/>
<path d="M148.254 34.9316C149.042 34.9316 149.68 34.2929 149.68 33.5049C149.68 32.7169 149.042 32.0781 148.254 32.0781C147.467 32.0781 146.828 32.7169 146.828 33.5049C146.828 34.2929 147.467 34.9316 148.254 34.9316Z" fill="#CCCCCC"/>
<path d="M157.536 50.4976H158.503C158.816 50.4976 159.07 50.2433 159.07 49.9296V37.0887C159.07 36.775 158.816 36.5207 158.503 36.5207H157.536C157.223 36.5207 156.968 36.775 156.968 37.0887V49.9296C156.968 50.2433 157.223 50.4976 157.536 50.4976Z" fill="#F2F2F2"/>
<path d="M144.02 50.4976H144.987C145.301 50.4976 145.555 50.2433 145.555 49.9296V37.0887C145.555 36.775 145.301 36.5207 144.987 36.5207H144.02C143.707 36.5207 143.453 36.775 143.453 37.0887V49.9296C143.453 50.2433 143.707 50.4976 144.02 50.4976Z" fill="#F2F2F2"/>
<path d="M127.055 37.1157H136.733" stroke="white" stroke-miterlimit="10"/>
<path d="M134.495 39.8813L134.035 39.3877L136.475 37.1157L134.035 34.8437L134.495 34.3501L137.469 37.1157L134.495 39.8813Z" fill="white"/>
<path d="M137.471 44.5542H127.785" stroke="white" stroke-miterlimit="10"/>
<path d="M130.029 41.7886L130.488 42.2822L128.048 44.5542L130.488 46.8262L130.029 47.3198L127.055 44.5542L130.029 41.7886Z" fill="white"/>
<path d="M86.6491 51.2413C85.6556 50.5651 91.2384 50.7409 92.3603 47.9347C92.8601 46.5478 93.542 45.2335 94.388 44.0264C94.9229 45.277 95.5581 46.4823 96.2872 47.6305C97.639 49.9363 92.6577 55.3458 86.6491 51.2413Z" fill="#BDCCD4"/>
<path d="M26.9072 107.366C28.8673 108.137 28.2928 107.353 29.4485 110.808C30.4624 114.614 29.7865 115.629 29.7865 115.629C29.7865 115.629 29.4756 116.406 28.4888 114.175C27.502 111.944 27.306 111.626 27.306 111.626C28.0448 113.295 31.2153 122.298 26.9545 121.038C25.2513 119.632 23.1966 115.98 22.7505 115.527C22.3044 115.074 21 111.47 21 111.058C21 110.645 23.1966 105.912 26.9072 107.366Z" fill="#2E2420"/>
</g>
<defs>
<clipPath id="clip0_1019_683">
<rect width="320" height="213" fill="white"/>
</clipPath>
</defs>
</svg>
