<svg width="992" height="315" viewBox="0 0 992 315" fill="none" xmlns="http://www.w3.org/2000/svg">
<g clip-path="url(#clip0_1019_684)">
<g clip-path="url(#clip1_1019_684)">
<path d="M643.928 82.2602C640.378 76.2602 637.488 75.1502 638.818 72.7102C640.148 70.2702 643.488 68.6002 649.148 63.0402C654.808 57.4802 659.148 54.7102 663.598 53.8702C668.522 53.0797 673.502 52.6917 678.488 52.7102C682.708 52.7102 683.598 51.4802 682.928 54.9302C682.258 58.3802 681.378 57.2602 681.708 64.6002C682.038 71.9402 682.598 71.7102 682.038 74.4802C681.478 77.2502 681.488 82.6002 669.818 83.4802C658.148 84.3602 650.378 86.1502 647.258 84.4802C644.138 82.8102 643.928 82.2602 643.928 82.2602Z" fill="#A47261"/>
<path d="M642.929 78.71C640.709 75.71 640.039 76.71 640.149 74.6C640.259 72.49 639.489 72.04 642.039 71.26C644.589 70.48 646.379 68.93 648.709 70.43C651.039 71.93 651.599 72.04 653.259 74.82C654.919 77.6 655.929 77.15 655.709 79.71C655.489 82.27 651.259 84.26 648.709 83.37C646.159 82.48 644.709 82.48 644.039 80.93C643.735 80.159 643.363 79.4161 642.929 78.71Z" fill="#2E2420"/>
<path d="M671.488 63.4803C671.488 63.4803 674.148 62.6003 677.868 66.0003C681.588 69.4003 681.308 71.0003 681.198 72.1103C681.088 73.2203 680.978 72.5203 678.758 69.7603C676.538 67.0003 677.868 67.8903 675.088 66.1103C673.786 65.383 672.577 64.4998 671.488 63.4803Z" fill="#93665A"/>
<path d="M659.49 62.6C660.21 62.37 660.71 65.21 664.15 68.07C666.155 69.9182 668.419 71.4644 670.87 72.66C673.87 74.26 674.43 74.37 674.76 75.04C675.09 75.71 672.65 75.37 670.98 75.04C669.31 74.71 668.87 74.94 665.2 72.66C661.53 70.38 659.43 70.26 659.54 67.48C659.65 64.7 658.76 62.82 659.49 62.6Z" fill="#93665A"/>
<path d="M674.117 54.6702C675.707 54.4172 677.318 54.3167 678.927 54.3702C680.927 54.5202 681.147 53.7802 680.927 55.0402C680.577 56.3493 680.353 57.6886 680.257 59.0402C680.257 60.7402 680.147 60.8102 680.147 61.7402C680.147 62.6702 679.147 59.5202 676.887 57.7402C675.756 56.926 674.811 55.8793 674.117 54.6702Z" fill="#93665A"/>
<path d="M638.189 125.56C639.379 129.19 638.119 128.94 640.189 130.95C642.259 132.96 648.629 134.89 650.189 135.78C651.749 136.67 649.189 145.19 654.119 147.85C659.049 150.51 659.819 146.85 660.709 151.78C661.599 156.71 665.449 173.26 663.819 177.48C662.189 181.7 651.519 192.37 647.749 196.15C643.979 199.93 642.259 197.93 636.039 212.6C629.819 227.27 628.669 226.42 624.799 231.29C620.929 236.16 627.299 232.89 632.489 233.93C637.679 234.97 634.599 235.85 643.909 236.74C653.219 237.63 652.339 238.22 659.299 238.08C666.259 237.94 664.189 239.41 671.749 238.82C679.309 238.23 685.819 240.05 684.929 231.29C684.039 222.53 681.239 213.04 685.009 199.11C688.779 185.18 695.009 159.11 695.889 151.7C696.769 144.29 691.149 118.13 689.379 116.4C687.609 114.67 638.189 125.56 638.189 125.56Z" fill="#3F312E"/>
<path d="M560.485 124.45C561.485 121.45 561.375 118.04 564.775 117.54C568.175 117.04 601.775 118.22 606.405 122.22C611.035 126.22 610.555 147.56 611.075 152.89C611.595 158.22 609.665 163.56 609.965 169.48C610.265 175.4 608.475 173.78 611.075 184.3C613.675 194.82 618.555 210.22 617.515 220C616.475 229.78 614.115 230.82 619.295 244.45C624.475 258.08 626.555 258.08 627.145 265.45C627.735 272.82 631.595 275.08 622.705 274.94C613.815 274.8 610.855 275.94 600.625 275.68C590.395 275.42 595.295 274.05 580.625 273.75C565.955 273.45 549.225 275.97 543.005 274.49C536.785 273.01 534.705 277.49 536.775 270.05C538.845 262.61 538.555 253.9 540.185 247.97C541.815 242.04 543.445 223.23 547.005 215.53C550.565 207.83 550.255 210.79 551.885 199.97C553.515 189.15 553.375 188.42 553.965 183.38C554.555 178.34 560.485 124.45 560.485 124.45Z" fill="#523E3B"/>
<path d="M568.625 146.74C571.445 145.19 571.005 145.74 573.885 141.93C576.765 138.12 576.035 139.41 577.145 136.82C578.255 134.23 579.885 139.71 577.145 142.45C574.405 145.19 573.225 146.74 570.925 146.74H568.625Z" fill="#493736"/>
<path d="M605.375 160.93C605.815 168.93 604.765 164.48 604.565 177.6C604.365 190.72 604.705 189.37 604.035 192.71L603.375 196.04C603.375 196.04 605.035 197.82 606.145 193.54C607.255 189.26 607.035 188.82 607.485 180.15C607.935 171.48 605.375 160.93 605.375 160.93Z" fill="#493736"/>
<path d="M587.266 226.07C590.146 225.84 590.036 227.07 593.036 223.29L596.036 219.51C598.095 220.095 600.239 220.322 602.376 220.18C605.376 219.84 605.596 215.4 606.266 213.73C606.398 213.202 606.656 212.715 607.018 212.309C607.381 211.903 607.836 211.591 608.346 211.4C609.486 210.73 608.916 210.18 610.426 210.18C611.936 210.18 611.696 209.62 610.426 211.07C609.156 212.52 607.486 213.29 606.816 215.4C606.281 217.117 605.612 218.788 604.816 220.4C604.256 221.51 598.476 221.4 597.476 221.4C596.476 221.4 596.806 220.73 594.696 223.29C592.586 225.85 593.586 226.73 590.916 227.07C588.246 227.41 587.266 226.07 587.266 226.07Z" fill="#493736"/>
<path d="M640.922 142.84C646.702 144.15 647.922 146.28 656.182 142.84C664.442 139.4 666.652 138.26 666.252 137.2C665.562 135.35 665.372 138.37 661.662 138.52C657.952 138.67 657.892 139.52 653.662 138.08C649.432 136.64 647.912 136.02 644.802 137.2C641.692 138.38 640.922 142.84 640.922 142.84Z" fill="#2E2420"/>
<path d="M577.226 169.34C574.406 178.08 573.466 178.67 573.646 199.41C573.826 220.15 570.646 213.63 573.646 228.74C576.646 243.85 586.486 274 586.486 274C586.486 274 585.376 265.93 583.486 256.45C581.596 246.97 579.926 240.89 578.486 231.26C577.046 221.63 575.826 225.04 576.856 211.71C577.886 198.38 577.226 169.34 577.226 169.34Z" fill="#493736"/>
<path d="M586.577 196.52C587.467 205.8 587.327 214.69 586.577 226.98C585.827 239.27 585.097 237.5 586.577 250.1C588.057 262.7 590.457 274.4 590.457 274.4L588.677 274.18C588.243 273.012 587.99 271.784 587.927 270.54C587.767 265.35 584.927 251.72 584.357 244.47C583.787 237.22 582.726 227.47 583.916 220.47C585.106 213.47 584.137 201.35 585.137 197.35C585.835 194.321 586.373 191.256 586.747 188.17L586.577 196.52Z" fill="#493736"/>
<path d="M645.374 134.52C646.114 139.26 644.374 140.74 643.144 145.52C641.914 150.3 642.554 147.15 641.514 156.04C640.474 164.93 641.664 166.12 638.704 165.82C635.744 165.52 633.374 166.71 626.854 163.6C620.334 160.49 619.144 158.26 616.184 157.67C613.224 157.08 614.254 158.12 611.074 156.78C607.894 155.44 605.374 155.45 604.624 152.34C603.874 149.23 603.444 142.41 605.964 137.67C608.484 132.93 606.054 124.47 607.444 123.6C608.834 122.73 610.854 123.45 615.294 127.01C619.734 130.57 618.554 129.38 620.924 131.75C623.294 134.12 618.854 134.41 627.444 134.12C636.034 133.83 645.374 134.52 645.374 134.52Z" fill="#664A41"/>
<path d="M645.374 134.52C646.114 139.26 644.374 140.74 643.144 145.52C641.914 150.3 642.554 147.15 641.514 156.04C640.474 164.93 641.664 166.12 638.704 165.82C635.744 165.52 633.374 166.71 626.854 163.6C620.334 160.49 619.144 158.26 616.184 157.67C613.224 157.08 614.254 158.12 611.074 156.78C607.894 155.44 605.374 155.45 604.624 152.34C603.874 149.23 603.444 142.41 605.964 137.67C608.484 132.93 618.554 129.38 620.964 131.75C623.374 134.12 618.894 134.41 627.484 134.12C636.074 133.83 645.374 134.52 645.374 134.52Z" fill="#563E38"/>
<path d="M567.596 117.93C567.296 112.45 569.666 110.22 572.036 106.93C574.406 103.64 569.516 99.9299 575.886 91.2199C582.256 82.5099 586.116 80.9999 589.666 78.3699C593.216 75.7399 592.926 73.6299 595.446 73.6299C597.966 73.6299 601.376 78.3699 601.966 83.2599C602.556 88.1499 600.486 87.1099 602.706 91.4099C604.926 95.7099 605.516 94.6699 605.226 99.4099C604.936 104.15 602.406 102.82 604.336 107.85C606.266 112.88 608.336 111.85 608.336 116.74C608.336 121.63 608.776 122.22 609.666 126.37C610.556 130.52 611.886 131.85 610.406 136C608.926 140.15 609.226 143.56 607.886 145.34C606.546 147.12 604.626 148.6 604.336 145.34C604.046 142.08 605.076 140.15 602.706 137.63C600.336 135.11 599.446 134.22 593.816 132.74C588.186 131.26 590.256 129.48 587.446 130.67C584.636 131.86 582.116 134.82 577.076 131.41C572.036 128 569.376 128.3 568.486 123.11L567.596 117.93Z" fill="#A47261"/>
<path d="M568.625 114.23C570.625 110.52 568.855 110.15 572.375 108.97C575.895 107.79 579.965 106.22 586.115 109.04C592.265 111.86 595.835 113.28 596.495 116.4C596.849 117.746 597.043 119.129 597.075 120.52C597.075 120.52 594.925 113.71 590.255 112.37C585.585 111.03 581.865 109.11 578.035 110C574.205 110.89 572.155 110.93 571.145 112.89C570.135 114.85 569.815 116.08 570.255 116.74C570.695 117.4 568.625 114.23 568.625 114.23Z" fill="#93665A"/>
<path d="M571.146 122.82C570.706 119.56 568.486 116.6 571.146 112.89C573.806 109.18 573.226 108.45 577.226 108.3C581.226 108.15 581.666 108.6 586.706 111.11C591.746 113.62 594.406 111.85 595.596 116.6C596.786 121.35 597.076 121.93 594.596 123.85C592.116 125.77 592.816 127.06 588.076 128.1C583.336 129.14 578.966 130.26 577.746 128.93C576.526 127.6 577.186 126.26 575.186 125.37C573.744 124.68 572.388 123.824 571.146 122.82Z" fill="#2E2420"/>
<path d="M579.596 116.4C580.192 116.4 580.676 115.916 580.676 115.32C580.676 114.723 580.192 114.24 579.596 114.24C578.999 114.24 578.516 114.723 578.516 115.32C578.516 115.916 578.999 116.4 579.596 116.4Z" fill="#EAAF93"/>
<path d="M589.922 117.54C590.75 117.54 591.422 116.868 591.422 116.04C591.422 115.212 590.75 114.54 589.922 114.54C589.093 114.54 588.422 115.212 588.422 116.04C588.422 116.868 589.093 117.54 589.922 117.54Z" fill="#EAAF93"/>
<path d="M563.965 123.22C564.965 129.377 565.387 135.614 565.225 141.85C565.075 148.15 563.365 152.73 562.865 154.95C562.593 155.983 562.435 157.043 562.395 158.11C562.395 158.11 565.965 154.45 566.705 150.67C567.445 146.89 568.435 146.67 567.565 140.46C566.695 134.25 567.375 127.46 566.405 123.71C565.435 119.96 564.335 117.51 563.255 118.06C562.325 118.54 561.595 120.06 561.255 121.45C561.065 122.45 563.965 123.22 563.965 123.22Z" fill="#493736"/>
<path d="M540.188 182.37C540.928 178.52 543.297 181.19 543.188 172.74C543.078 164.29 540.237 164 543.188 155.85C546.137 147.7 545.107 141.93 549.407 135.41C553.707 128.89 553.258 125.34 556.958 123.26C560.658 121.18 562.737 120.89 564.217 122.37C565.697 123.85 566.737 132.89 566.438 137.19C566.388 140.578 565.992 143.952 565.258 147.26C564.068 153.34 562.737 153.34 562.438 157.93C562.138 162.52 561.438 161.34 562.888 166.67C564.338 172 564.517 169.67 562.438 172.3C560.358 174.93 557.897 181.3 553.357 183.56C548.817 185.82 548.518 186.97 544.958 185.48C541.398 183.99 540.188 182.37 540.188 182.37Z" fill="#664A41"/>
<path d="M541.773 181.85C542.87 180.383 544.225 179.128 545.773 178.15C548.473 176.15 548.693 175.63 552.543 174.22C556.393 172.81 557.143 172.41 559.883 171.52C562.623 170.63 563.783 170.02 563.653 170.52C563.523 171.02 556.513 182.69 551.883 184.27C547.253 185.85 547.693 186.52 545.323 185.07C542.953 183.62 542.033 183.4 541.993 182.52C541.953 181.64 541.773 181.85 541.773 181.85Z" fill="#2E2420"/>
<path d="M564.115 172.67C567.015 173.81 567.295 172.37 569.005 177.48C570.715 182.59 572.255 184.82 570.555 185.04C568.855 185.26 567.915 186.04 566.455 182.74C564.995 179.44 564.705 178.97 564.705 178.97C564.705 178.97 568.485 186.37 569.225 189.34C569.965 192.31 566.485 189.93 562.855 185.34L561.665 182.74C561.665 182.74 565.145 190.37 566.485 191.41C566.485 191.41 566.705 194.97 564.185 192.89C561.665 190.81 558.625 185.41 557.965 184.74C557.305 184.07 555.375 178.74 555.375 178.13C555.375 177.52 558.625 170.52 564.115 172.67Z" fill="#2E2420"/>
<path d="M562.473 118.76C563.343 120.38 571.473 133.48 576.773 138.08C582.073 142.68 584.553 145.19 589.313 149.93C594.073 154.67 596.313 154.93 601.223 158.93C604.391 161.408 607.312 164.187 609.943 167.23C612.623 170.18 615.003 167.07 615.003 163.37C615.003 159.67 615.743 156.85 612.483 154.78C609.223 152.71 606.753 147.2 604.053 144.48C601.353 141.76 598.343 137.3 594.053 134.78C589.763 132.26 578.823 132.26 574.973 127.52C571.123 122.78 568.303 119.52 567.563 117.89C566.823 116.26 562.643 118 562.473 118.76Z" fill="#483834"/>
<path d="M571.164 170.36C574.254 164.93 577.354 158.28 581.164 151.93C584.974 145.58 584.274 144.71 587.274 142.37C590.274 140.03 598.164 141.45 600.054 144.52C601.944 147.59 603.164 152.97 600.054 155.78C596.944 158.59 594.274 159.48 590.394 164.04C587.792 167.072 585.384 170.265 583.184 173.6C581.484 176 571.164 170.36 571.164 170.36Z" fill="#857779"/>
<path d="M588.422 147.26C591.592 143.56 593.802 138.97 596.472 137.78C599.142 136.59 597.962 137.04 600.472 140.78C602.982 144.52 606.692 143.78 602.992 148.04C599.292 152.3 595.372 155.6 594.072 154.71C592.772 153.82 588.422 147.26 588.422 147.26Z" fill="#584A4A"/>
<path d="M572.375 105.6C573.815 102.37 573.875 97.37 578.505 98.48C583.135 99.59 584.375 101.96 584.375 101.96C584.375 101.96 580.035 100.96 577.595 101.96C575.675 102.893 573.914 104.121 572.375 105.6Z" fill="#93665A"/>
<path d="M575.704 105.6C572.864 107.72 578.004 102.04 582.244 102.71C586.484 103.38 589.244 104.71 591.424 106.82C589.408 106.228 587.343 105.82 585.254 105.6C581.484 105.15 577.034 104.6 575.704 105.6Z" fill="#93665A"/>
<path d="M577.145 94.2598C578.485 91.8198 584.004 86.7098 589.354 90.9297C594.704 95.1497 594.625 96.4998 596.495 98.3298C596.495 98.3298 590.814 95.0397 588.424 93.8197C586.034 92.5997 586.705 91.4797 582.705 92.7097C578.705 93.9397 577.145 94.2598 577.145 94.2598Z" fill="#93665A"/>
<path d="M589.355 78.4801C592.815 77.6001 592.705 77.2601 595.255 78.4801C597.805 79.7001 598.255 80.8201 598.255 80.8201C598.255 80.8201 595.065 78.9301 593.175 78.7601C591.285 78.5901 589.355 78.4801 589.355 78.4801Z" fill="#93665A"/>
<path d="M601.938 107.45C606.117 111.19 608.488 113.08 607.888 117.54C607.288 122 607.167 123.54 607.087 124.24C607.007 124.94 607.818 118.63 605.378 114.54C603.997 112.297 602.845 109.922 601.938 107.45Z" fill="#93665A"/>
<path d="M590.754 130.54C595.424 129.6 604.144 128.08 605.374 126C605.374 126 605.114 128.48 601.934 129.93C598.754 131.38 599.624 132.16 595.484 131.82C591.344 131.48 590.754 130.54 590.754 130.54Z" fill="#93665A"/>
<path d="M549.223 151.37C553.593 150.11 555.443 148.18 558.483 150.11C560.168 151.115 561.609 152.481 562.703 154.11C560.111 152.417 557.056 151.575 553.963 151.7C552.376 151.741 550.789 151.631 549.223 151.37Z" fill="#5E443D"/>
<path d="M547.297 160.91C548.857 159.13 549.747 157.5 553.147 157.8C556.547 158.1 557.597 159.28 557.597 159.28C557.018 159.893 556.22 160.252 555.377 160.28C553.667 160.46 547.297 160.91 547.297 160.91Z" fill="#5E443D"/>
<path d="M543.395 156.41C544.585 155.08 544.955 154.19 547.615 154.12C549.146 153.973 550.692 154.175 552.135 154.71C552.521 154.914 552.918 155.098 553.325 155.26C553.325 155.26 551.025 155.45 548.955 155.6C546.885 155.75 543.395 156.41 543.395 156.41Z" fill="#5E443D"/>
<path d="M542.297 179.6C543.117 176.93 542.597 175.74 545.627 173.97C548.657 172.2 551.787 170.97 554.307 171.08L556.817 171.15C555.249 171.96 553.613 172.629 551.927 173.15C549.407 173.89 548.747 172.96 546.667 174.54C544.994 176.027 543.525 177.729 542.297 179.6Z" fill="#5E443D"/>
<path d="M750.149 70.71C746.929 65.04 746.259 70.48 745.259 62.04C744.259 53.6 741.038 53.04 744.598 50.82C748.158 48.6 750.929 46.6 755.709 43.37C760.489 40.14 761.489 38.15 765.929 36.82C770.53 35.5839 775.39 35.6984 779.929 37.15C783.709 38.48 785.709 36.15 788.039 36.48C790.369 36.81 791.379 35.37 791.039 39.93C790.699 44.49 789.038 47.71 786.818 51.04C784.598 54.37 784.258 55.82 785.708 59.04C787.158 62.26 788.258 62.37 787.708 65.15C787.158 67.93 786.038 68.93 786.818 70.71C787.598 72.49 775.259 75.15 769.709 75.93C764.159 76.71 764.039 78.93 757.929 75.82C751.819 72.71 750.149 70.71 750.149 70.71Z" fill="#A47261"/>
<path d="M746.258 62.2599C745.598 57.4799 743.818 52.7099 746.258 52.1499C748.698 51.5899 751.258 52.9299 754.148 55.3699C757.038 57.8099 760.258 59.2599 761.258 62.2599C762.258 65.2599 763.928 65.0399 762.378 67.0399C760.828 69.0399 760.818 70.7099 756.708 70.2599C752.598 69.8099 752.148 71.7099 750.488 68.5999C748.828 65.4899 748.038 64.1499 747.378 63.4799C746.984 63.093 746.61 62.6858 746.258 62.2599Z" fill="#2E2420"/>
<path d="M776.188 77.4302C776.338 72.7402 781.757 68.9102 784.188 68.8902C786.618 68.8702 790.708 73.7802 795.008 78.6702C799.308 83.5602 808.928 87.5602 811.008 92.6002C813.088 97.6402 811.748 104.89 812.338 108.6C812.928 112.31 806.408 116.6 801.228 114.97C796.048 113.34 795.338 115.97 794.278 109.78C793.815 106.29 792.967 102.863 791.748 99.5602C790.258 94.8202 790.408 92.4502 786.408 85.6302C784.192 81.6758 780.528 78.736 776.188 77.4302Z" fill="#664A41"/>
<path d="M763.008 112.74C772.928 111.26 782.558 106.94 784.338 115.32C786.118 123.7 786.708 127.71 784.038 140.74C781.368 153.77 776.628 174.37 775.148 180.3C773.668 186.23 773.668 220.89 773.818 227.11C773.968 233.33 774.258 234.97 768.628 236.3C762.998 237.63 765.628 237.48 759.628 238.67C753.628 239.86 753.258 240.6 749.108 239.85C744.958 239.1 741.258 241.93 741.258 233.34C741.258 224.75 741.548 205.63 743.628 196.74C745.708 187.85 753.548 125.97 757.548 120.1C759.179 117.512 761.004 115.051 763.008 112.74Z" fill="#523E3B"/>
<path d="M778.678 125C777.678 130.33 774.558 140.85 777.078 143.67C779.598 146.49 781.078 144.11 781.078 141.67C781.078 139.23 778.678 125 778.678 125Z" fill="#493736"/>
<path d="M771.375 112.56C771.665 115.56 770.775 117.56 773.815 120.78C776.855 124 776.705 123.97 780.035 124.48C783.365 124.99 786.745 126.71 787.355 123.15C787.965 119.59 787.115 116.93 787.355 114.63C787.595 112.33 785.965 110.85 782.255 110.63C778.545 110.41 774.925 109.37 773.005 110.71C771.085 112.05 771.375 112.56 771.375 112.56Z" fill="#584A4A"/>
<path d="M793.45 99.6299C794.29 96.6999 797.08 96.8899 800.19 100.37C802.953 103.333 806.005 106.013 809.3 108.37C811.6 110.08 811.82 112.6 808.04 113.26C804.26 113.92 804.04 115.11 800.78 113.41C797.52 111.71 796.34 112.41 795.38 108.08C794.42 103.75 793.01 101.19 793.45 99.6299Z" fill="#2E2420"/>
<path d="M773.009 112.6C775.269 109.85 779.3 110.89 779.52 108.45C779.74 106.01 781.97 106.45 778.93 105.34C775.89 104.23 774.56 104.82 774.71 103.71C774.86 102.6 773.769 101.85 776.759 101.85C779.12 101.955 781.464 102.29 783.759 102.85C785.609 103.14 787.54 102.57 789.9 101.85C792.26 101.13 793.31 99.5601 795.53 99.9301C797.75 100.3 800.199 101.56 800.939 103.11C801.679 104.66 802.94 106.97 801.39 108C799.355 109.138 797.049 109.701 794.719 109.63C792.199 109.63 791.719 109.71 789.309 111.85C786.899 113.99 785.679 115.56 783.979 116.15C782.45 116.867 780.71 116.999 779.089 116.52C777.089 115.93 774.64 116.37 773.9 114.89C773.16 113.41 771.969 113.85 773.009 112.6Z" fill="#2E2420"/>
<path d="M753.039 46.6001C755.489 46.6001 755.599 44.7101 758.209 48.1501C760.819 51.5901 761.039 53.1501 761.209 53.8701C760.123 53.1054 759.167 52.17 758.379 51.1001C757.5 49.7172 756.277 48.5868 754.829 47.8201C754.173 47.5088 753.569 47.0972 753.039 46.6001Z" fill="#93665A"/>
<path d="M763.867 42.8198C763.637 45.0398 762.867 46.7098 763.867 50.8198C764.867 54.9298 765.297 57.5398 767.027 59.9798C768.757 62.4198 770.247 63.5398 771.197 66.4298C772.147 69.3198 772.587 70.7598 772.637 72.3698C772.687 73.9798 773.747 74.5998 774.637 72.8198C775.527 71.0398 776.477 70.3198 775.527 66.5998C774.577 62.8798 774.637 61.3698 772.367 57.4798C770.097 53.5898 769.527 53.7098 767.747 49.5998C766.729 47.193 765.427 44.9168 763.867 42.8198Z" fill="#93665A"/>
<path d="M772.868 41.2598C774.698 44.0998 774.638 43.8198 776.868 48.8698C779.098 53.9198 778.478 54.6498 781.248 57.1498C784.018 59.6498 784.198 59.8698 784.478 60.3198C784.758 60.7698 782.368 61.8698 780.638 61.8198C778.908 61.7698 776.878 59.4298 776.178 56.9298C775.478 54.4298 774.528 53.0398 773.588 48.6498C773.025 46.2287 772.783 43.744 772.868 41.2598Z" fill="#93665A"/>
<path d="M780.707 39.3199C783.647 39.4799 783.707 38.3199 785.257 40.4299C786.807 42.5399 787.377 42.5399 787.207 44.4299C787.037 46.3199 786.487 45.7099 786.487 45.7099C786.487 45.7099 785.647 41.8699 784.207 41.2599C782.997 40.6951 781.827 40.0468 780.707 39.3199Z" fill="#93665A"/>
<path d="M777.32 41.6001C780.15 42.7601 781.04 42.7801 783.1 45.8001C785.16 48.8201 785.43 49.1001 785.76 49.9901C786.09 50.8801 785.25 50.3701 784.51 51.5401C783.77 52.7101 782.82 54.1501 782.82 54.8201C782.82 55.4901 780.99 52.4801 780.32 49.7601C779.846 47.8055 779.214 45.8926 778.43 44.0401C777.99 43.0001 777.32 41.6001 777.32 41.6001Z" fill="#93665A"/>
<path d="M792.988 94.9998C793.782 92.9296 795.359 91.2554 797.378 90.3398C800.928 88.5598 799.758 87.2298 803.208 88.3898C806.658 89.5498 807.988 89.7498 809.098 92.1298C809.596 92.8535 809.971 93.6542 810.208 94.4998C810.208 95.1698 808.928 91.5598 806.428 90.9998C803.928 90.4398 803.148 89.6198 801.598 90.2298C800.048 90.8398 797.538 91.5598 796.318 92.4998C795.098 93.4398 792.988 94.9998 792.988 94.9998Z" fill="#5E443D"/>
<path d="M794.277 96.2597C795.037 95.4264 795.964 94.7631 796.998 94.3133C798.032 93.8635 799.15 93.6374 800.277 93.6497C804.337 93.5997 807.107 93.9797 808.337 95.4797C809.143 96.7148 809.759 98.0629 810.167 99.4797C810.337 99.6497 807.997 97.0297 806.497 96.5897C804.497 95.9879 802.426 95.6517 800.337 95.5897C798.537 95.5997 794.277 96.2597 794.277 96.2597Z" fill="#5E443D"/>
<path d="M800.598 98.2598C803.208 98.7598 803.038 97.3698 805.318 99.8698C806.687 101.213 807.798 102.796 808.598 104.54C809.428 106.15 807.598 105.21 806.378 103.54C805.158 101.87 806.098 102.04 803.708 100.65C802.531 100.053 801.477 99.2428 800.598 98.2598Z" fill="#5E443D"/>
<path d="M774.26 141.71C773.38 148.6 767.14 161.26 767.04 181.26C766.94 201.26 762.38 209.93 763.54 222.15C764.7 234.37 764.82 237.35 764.82 237.35C764.82 237.35 774.26 236.27 773.59 232.99C772.92 229.71 767.35 213.71 768.81 202.82C770.27 191.93 770.71 175.71 772.6 163.26C773.724 156.132 774.279 148.926 774.26 141.71Z" fill="#493736"/>
<path d="M774.269 138.37C770.709 146.82 760.709 177.71 760.269 188.6C759.829 199.49 753.609 205.26 752.939 205.48C752.269 205.7 752.209 201.04 754.019 197.04C755.829 193.04 758.499 174.15 760.269 168.6C762.039 163.05 762.929 151.26 767.049 145.93C769.11 143.102 771.538 140.56 774.269 138.37Z" fill="#493736"/>
<path d="M684.339 74.7398C683.519 71.5598 683.969 65.4798 685.339 62.8898C686.709 60.2998 687.409 57.6698 691.409 54.8898C695.409 52.1098 694.409 52.7998 699.339 49.3898C704.269 45.9798 703.479 47.7598 705.929 45.0198C708.379 42.2798 708.299 42.0198 709.629 42.4598C710.959 42.8998 716.149 47.0898 717.409 51.1698C718.891 55.8297 719.719 60.6725 719.869 65.5598C719.869 70.2998 720.139 73.4198 719.359 76.2198C718.579 79.0198 713.499 83.5598 709.059 83.9298C704.619 84.2998 702.239 84.9298 695.799 83.4098C689.359 81.8898 686.099 79.8498 685.279 77.7798C684.869 76.7989 684.555 75.7809 684.339 74.7398Z" fill="#A47261"/>
<path d="M686.189 75.85C685.189 72.22 684.119 71.74 685.299 68.02C686.479 64.3 686.039 62.82 688.409 60.74C690.779 58.66 692.039 57.34 694.779 57.56C697.519 57.78 699.009 57.19 701.449 61.23C703.889 65.27 705.009 64.3 705.449 69C705.889 73.7 708.039 73.71 705.449 76.37C702.859 79.03 694.119 80.3 691.669 79.56C689.219 78.82 686.189 75.85 686.189 75.85Z" fill="#2E2420"/>
<path d="M698.039 72.1496C698.818 72.1496 699.449 71.5183 699.449 70.7396C699.449 69.9609 698.818 69.3296 698.039 69.3296C697.26 69.3296 696.629 69.9609 696.629 70.7396C696.629 71.5183 697.26 72.1496 698.039 72.1496Z" fill="#EAAF93"/>
<path d="M695.38 55.8497C697.89 55.8497 700.11 55.6597 702.11 57.5297C703.68 58.8598 705.098 60.3588 706.34 61.9997C707.6 63.7397 706.86 63.1597 708.49 65.2397L710.12 67.3097C710.001 65.9887 709.754 64.6824 709.38 63.4097C708.424 61.6613 707.334 59.9897 706.12 58.4097C705.031 57.0821 703.573 56.1076 701.93 55.6097C700.202 55.1485 698.418 54.9298 696.63 54.9597C695.3 54.9997 695.38 55.8497 695.38 55.8497Z" fill="#93665A"/>
<path d="M708.492 73.41C710.782 71.56 711.752 71.3 712.632 68.65C713.249 66.6735 713.664 64.6399 713.872 62.58C714.172 60.82 714.392 59.48 714.392 59.48C714.392 59.48 715.132 59.64 715.392 61.23C715.652 62.82 716.272 63.23 715.902 66.11C715.532 68.99 716.132 69.85 714.272 71.71C712.412 73.57 712.792 74.71 710.792 74.71C708.792 74.71 708.492 73.41 708.492 73.41Z" fill="#93665A"/>
<path d="M709.27 44.0796C709.27 44.0796 710.68 44.0796 712.27 46.0796C713.86 48.0796 714.039 48.9696 714.039 49.0796C714.039 49.1896 713.44 48.5196 712.27 47.6296C711.141 46.5609 710.135 45.3703 709.27 44.0796Z" fill="#93665A"/>
<path d="M781.668 69.9302C778.558 70.2202 769.228 73.7802 764.778 74.6702C760.328 75.5602 700.038 74.0802 684.338 74.0802C668.638 74.0802 662.558 73.7802 653.078 77.6302C643.598 81.4802 634.258 89.0002 632.628 100.15C630.998 111.3 634.118 123.26 639.628 128.6C645.138 133.94 650.888 138.82 660.628 140C670.368 141.18 732.628 139.41 740.488 138.22C748.348 137.03 763.598 119.85 766.858 116.89L768.488 113.34C768.488 113.34 784.488 120.15 786.258 121.04C788.028 121.93 796.338 117.78 796.628 115.26C796.918 112.74 781.668 69.9302 781.668 69.9302Z" fill="white"/>
<path d="M671.136 74.1504C675.746 76.4504 683.886 83.5604 684.926 98.8204C685.966 114.08 681.226 140.36 681.226 140.36H678.706C678.706 140.36 682.256 123.53 682.556 117.45C682.856 111.37 683.556 104.45 683.446 99.0804C683.336 93.7104 682.706 91.0804 680.926 87.2304C679.146 83.3804 677.866 81.0004 675.006 78.6704C673.068 77.0761 671.037 75.5968 668.926 74.2404L671.136 74.1504Z" fill="#E6E6E6"/>
<path d="M652.037 132.65C651.717 130.51 652.037 127.54 653.317 126.71C654.597 125.88 657.817 126.26 661.817 127.98C665.817 129.7 667.317 130.21 667.927 131.21C668.245 131.829 668.411 132.514 668.411 133.21C668.411 133.906 668.245 134.591 667.927 135.21C667.257 136.65 667.927 137.54 665.317 137.15C662.479 136.857 659.672 136.318 656.927 135.54C653.427 134.48 652.317 134.48 652.037 132.65Z" fill="#382F3D"/>
<path d="M635.039 97.2601C635.299 96.2601 636.599 90.1901 639.039 88.5601C641.479 86.9301 646.189 90.0001 646.629 91.0001C647.069 92.0001 644.489 93.2201 642.009 96.4801C639.529 99.7401 639.859 100.37 638.559 99.4801C637.259 98.5901 635.039 97.2601 635.039 97.2601Z" fill="#382F3D"/>
<path d="M639.969 101.26C640.492 101.922 640.874 102.684 641.091 103.499C641.308 104.315 641.355 105.166 641.229 106L640.969 108.6C640.969 108.6 648.969 110.26 650.079 110.45C651.189 110.64 651.709 109.26 651.149 106.22C650.589 103.18 650.709 100.3 649.779 97.56C648.849 94.82 649.039 95 648.449 94.15C647.859 93.3 646.189 94.78 644.559 96.26C642.929 97.74 639.969 101.26 639.969 101.26Z" fill="#382F3D"/>
<path d="M638.508 117C639.061 116.034 639.549 115.032 639.968 114C640.456 113.03 640.793 111.992 640.968 110.92C641.058 110.5 640.778 110.22 642.058 110.61C643.338 111 647.808 112.47 649.168 112.86C650.528 113.25 651.108 113.25 650.948 114.19C650.537 115.951 650.026 117.687 649.418 119.39C648.968 120.53 647.528 123.75 646.998 124.69C646.468 125.63 646.388 125.92 645.198 124.69C644.008 123.46 642.448 122.75 640.858 120.56C639.268 118.37 637.618 118.6 638.508 117Z" fill="#382F3D"/>
<path d="M635.867 121C635.867 121 637.867 120 637.777 119.42C637.687 118.84 638.267 120 639.957 121.92C641.059 123.333 642.273 124.653 643.587 125.87C644.777 126.87 645.477 127.45 644.117 128.37C642.757 129.29 641.997 129.81 641.997 129.81C641.997 129.81 636.837 124.73 636.367 122.53C635.897 120.33 635.867 121 635.867 121Z" fill="#382F3D"/>
<path d="M635.948 114.56C637.495 114.56 638.748 111.632 638.748 108.02C638.748 104.408 637.495 101.48 635.948 101.48C634.402 101.48 633.148 104.408 633.148 108.02C633.148 111.632 634.402 114.56 635.948 114.56Z" fill="#3B2B2A"/>
<path d="M635.418 110.13C635.832 110.13 636.168 109.208 636.168 108.07C636.168 106.933 635.832 106.01 635.418 106.01C635.004 106.01 634.668 106.933 634.668 108.07C634.668 109.208 635.004 110.13 635.418 110.13Z" fill="#EFDCD5"/>
<path d="M705.447 112.9C696.757 112.9 689.707 106.66 689.707 98.97C689.707 91.28 696.757 85 705.447 85" fill="#E6E6E6"/>
<path d="M793.759 118.39C791.089 117.5 774.709 111.48 773.969 111.11C773.229 110.74 767.669 85.7102 767.519 84.6002C767.369 83.4902 781.669 69.9302 781.669 69.9302C779.82 70.2341 778.001 70.6924 776.229 71.3002L769.719 73.3002L763.719 85.3002L769.919 113.92L786.379 121.06C786.379 121.06 787.249 121.37 789.679 120.45C791.1 119.893 792.466 119.203 793.759 118.39Z" fill="#E6E6E6"/>
<path d="M790.869 96.39C790.647 98.2205 789.811 99.9214 788.496 101.214C787.181 102.507 785.467 103.315 783.633 103.507C781.799 103.698 779.954 103.261 778.401 102.267C776.848 101.273 775.678 99.7817 775.084 98.0364C774.489 96.2911 774.504 94.3956 775.127 92.6602C775.75 90.9248 776.944 89.4523 778.513 88.4838C780.082 87.5153 781.933 87.1082 783.764 87.3292C785.594 87.5501 787.296 88.386 788.589 89.7" fill="#E6E6E6"/>
<path d="M755.416 85.04H707.516C699.823 85.04 693.586 91.2767 693.586 98.97C693.586 106.663 699.823 112.9 707.516 112.9H755.416C763.109 112.9 769.346 106.663 769.346 98.97C769.346 91.2767 763.109 85.04 755.416 85.04Z" fill="#F2F2F2"/>
<path d="M707.447 104.03C710.241 104.03 712.507 101.765 712.507 98.9702C712.507 96.1756 710.241 93.9102 707.447 93.9102C704.652 93.9102 702.387 96.1756 702.387 98.9702C702.387 101.765 704.652 104.03 707.447 104.03Z" fill="#E6E6E6"/>
<path d="M723.965 86.1504H706.555V89.5604H723.965V86.1504Z" fill="#716152"/>
<path d="M711.596 86.3403H708.926V89.0103H711.596V86.3403Z" fill="#382F3D"/>
<path d="M719.118 86.48H716.598V89H719.118V86.48Z" fill="#382F3D"/>
<path d="M711.11 102.47C711.614 103.296 712.323 103.978 713.167 104.451C714.011 104.924 714.962 105.171 715.93 105.17H727.26C728.764 105.17 730.206 104.573 731.269 103.51C732.333 102.446 732.93 101.004 732.93 99.5002V98.1602C732.93 96.6565 732.333 95.2143 731.269 94.1509C730.206 93.0876 728.764 92.4902 727.26 92.4902H715.93C714.928 92.4893 713.943 92.7545 713.077 93.2587C712.211 93.763 711.494 94.4882 711 95.3602" fill="#382F3D"/>
<path d="M717.628 108.19H714.418V111.78H717.628V108.19Z" fill="#382F3D"/>
<path d="M668.926 85.0403L675.866 84.0903L677.226 87.8503L670.096 89.0003L668.926 85.0403Z" fill="#382F3D"/>
<path d="M670.375 91.6003C670.375 91.6003 672.985 97.7603 672.375 102.6H682.265C682.432 98.3274 681.514 94.0819 679.595 90.2603L670.375 91.6003Z" fill="#382F3D"/>
<path d="M672.258 104.87C672.733 106.693 672.888 108.584 672.718 110.46H681.718C681.999 108.607 681.999 106.723 681.718 104.87H672.258Z" fill="#382F3D"/>
<path d="M672.258 112.89C672.258 112.89 673.098 116.1 671.598 118.01H681.538C682.051 116.527 682.051 114.914 681.538 113.43L672.258 112.89Z" fill="#382F3D"/>
<path d="M670.867 120.1C671.054 121.869 670.746 123.656 669.977 125.26L679.917 125.55L680.527 120.71L670.867 120.1Z" fill="#382F3D"/>
<path d="M664.098 86.5504C665.027 87.582 665.608 88.8801 665.758 90.2604L668.378 89.8204L666.758 85.6504L664.098 86.5504Z" fill="#382F3D"/>
<path d="M739.447 107C741.817 103 743.447 98.3999 750.557 99.2899C757.667 100.18 753.837 120.29 755.747 128.18C758.037 137.63 753.747 143.71 753.257 154.83C752.767 165.95 751.867 187.41 749.867 194.22C747.867 201.03 745.727 198.82 746.317 205.34C746.907 211.86 743.647 229.04 746.317 234.22C748.987 239.4 749.567 247.85 749.717 252.89C749.867 257.93 748.387 260.6 743.497 262.52C738.607 264.44 742.017 266.52 733.277 265.93C724.537 265.34 727.497 265.04 719.497 265.34C711.497 265.64 708.087 266.34 707.197 264.89C706.307 263.44 702.017 245.63 702.197 239.56C702.377 233.49 703.967 226.22 707.827 215.41C711.687 204.6 715.527 149.93 716.417 145.48C717.307 141.03 738.487 125.38 739.087 117.48C739.397 113.996 739.517 110.497 739.447 107Z" fill="#523E3B"/>
<path d="M708.484 120.1C716.034 117.63 715.594 120.31 719.004 115.57C722.414 110.83 720.924 108.3 726.004 103.71C731.084 99.1202 735.184 99.2602 738.154 99.2602C741.124 99.2602 746.444 99.1102 746.294 104.89C746.144 110.67 746.444 109.19 743.634 116.3C740.824 123.41 742.894 127.23 738.634 130.95C734.374 134.67 738.194 132.89 731.824 135.85C725.454 138.81 724.824 142.22 718.114 139.11C711.404 136 708.484 120.1 708.484 120.1Z" fill="#664A41"/>
<path d="M719.378 86.93C719.258 81.04 716.038 79.6 720.038 78.37C724.038 77.14 723.818 79.15 726.708 78.37C729.598 77.59 730.258 74.04 738.598 71.26C746.938 68.48 749.258 68.15 756.598 68.15C763.938 68.15 763.378 64.71 763.928 68.15C764.478 71.59 765.488 74.93 763.928 79.04C762.368 83.15 760.038 81.37 761.708 87.48C763.378 93.59 764.148 93.71 764.708 98.26C765.268 102.81 766.208 105.37 765.548 109.71C764.888 114.05 764.878 114.37 764.208 115.48C763.538 116.59 759.208 106.04 754.098 103.71C748.988 101.38 744.548 99.37 740.098 100.26C735.648 101.15 729.548 103.15 726.438 105.6C723.328 108.05 722.768 110.71 722.438 108.6C722.108 106.49 721.988 103.37 722.768 101.37C723.548 99.37 725.208 99.37 723.768 96.82C722.328 94.27 719.378 86.93 719.378 86.93Z" fill="#A47261"/>
<path d="M720.038 81.4799C721.188 79.7599 721.488 77.8199 723.708 79.7099C725.928 81.5999 726.928 79.2599 726.598 84.9299C726.268 90.5999 727.288 95.3099 725.708 96.3699C724.128 97.4299 720.038 87.0399 720.038 84.2599C720.038 81.4799 719.698 81.9999 720.038 81.4799Z" fill="#2E2420"/>
<path d="M749.227 107.63C748.407 105.34 748.557 101.04 750.227 100.82C751.897 100.6 759.487 106.72 761.117 109.46C761.851 110.614 762.276 111.937 762.354 113.303C762.431 114.668 762.156 116.031 761.557 117.26C760.447 119.34 760.847 123.93 757.347 121.71C753.847 119.49 753.927 115.63 752.597 113.34C751.267 111.05 749.227 107.63 749.227 107.63Z" fill="#584A4A"/>
<path d="M754.557 124.89C754.487 121.19 754.357 116.6 757.307 116.82C760.257 117.04 762.487 121.63 762.487 125.48C762.444 128.946 762.217 132.408 761.807 135.85C761.377 140.67 762.927 142.6 759.807 142.67C756.687 142.74 755.127 139.92 754.917 136.93C754.707 133.94 754.557 124.89 754.557 124.89Z" fill="#584A4A"/>
<path d="M730.627 84.3699C729.517 82.0799 727.227 81.8499 728.407 80.1499C729.587 78.4499 728.777 78.8899 731.407 77.5599C734.037 76.2299 734.067 74.2199 734.287 76.8199C734.507 79.4199 735.107 81.8199 733.847 84.3699C732.587 86.9199 731.697 86.4499 730.957 89.1899C730.217 91.9299 730.067 92.5999 730.217 94.0799C730.367 95.5599 728.807 94.1499 728.887 91.7099C728.951 89.779 729.35 87.8739 730.067 86.0799L730.627 84.3699Z" fill="#93665A"/>
<path d="M725.297 102.15C727.597 99.5601 729.597 98.0001 731.007 95.4801C732.417 92.9601 736.337 85.8501 737.297 82.8901L738.297 79.8901C738.574 80.4676 738.717 81.0998 738.717 81.7401C738.717 82.3805 738.574 83.0127 738.297 83.5901C737.297 85.4401 734.597 91.3701 733.707 92.8501C732.76 94.6279 731.708 96.3476 730.557 98.0001C729.077 100 725.297 102.15 725.297 102.15Z" fill="#93665A"/>
<path d="M733.445 95.26C737.375 93.63 740.625 92.52 743.225 90.26C745.825 88 745.865 89 746.865 86.52C747.475 85.281 747.705 83.8893 747.525 82.52C747.525 82.52 749.375 85.67 748.745 87.69C748.142 89.0471 747.25 90.2559 746.13 91.2319C745.011 92.2078 743.692 92.9273 742.265 93.34C739.515 93.85 733.445 95.26 733.445 95.26Z" fill="#93665A"/>
<path d="M741.598 94.6799C744.708 93.9999 744.598 92.6799 747.818 93.8499C750.561 94.9515 753.19 96.318 755.668 97.9299C758.038 99.3399 759.208 98.8799 761.808 100.81C764.408 102.74 765.808 106 765.808 106.67C765.808 107.34 765.558 104.52 761.808 102.97C759.019 101.773 756.316 100.386 753.718 98.8199C751.386 97.5042 748.877 96.5309 746.268 95.9299C743.518 95.2599 741.598 94.6799 741.598 94.6799Z" fill="#93665A"/>
<path d="M752.258 88.2998C752.858 90.9698 751.378 91.1898 754.858 93.9298C757.235 95.7206 759.792 97.2589 762.488 98.5198C764.408 99.6298 765.028 100.08 765.028 100.08C764.584 98.1317 763.438 96.4156 761.808 95.2598C759.148 93.4798 759.348 93.8498 756.508 91.7798C755.012 90.7204 753.592 89.5576 752.258 88.2998Z" fill="#93665A"/>
<path d="M753.297 69.4802C755.597 69.2602 761.447 67.9302 762.487 69.1902C763.417 70.5434 763.931 72.1387 763.967 73.7802C763.967 74.8902 761.667 71.7802 759.747 71.2202C757.827 70.6602 753.297 69.4802 753.297 69.4802Z" fill="#93665A"/>
<path d="M722.336 112C722.336 112 724.926 108.67 728.556 109.63C732.186 110.59 733.376 112.89 733.446 113.41C733.516 113.93 731.766 111.92 729.306 111.56C726.973 111.426 724.633 111.574 722.336 112Z" fill="#5E443D"/>
<path d="M721.516 113.5C721.516 113.5 724.976 112.3 726.656 113.78C728.443 115.494 729.892 117.53 730.926 119.78C732.186 122.28 731.146 123.78 729.926 122.28C728.706 120.78 727.926 118.49 725.856 116.79C723.786 115.09 721.516 113.5 721.516 113.5Z" fill="#5E443D"/>
<path d="M720.336 116.37C721.036 116.151 721.791 116.196 722.46 116.497C723.129 116.797 723.665 117.332 723.966 118C725.146 120.35 725.596 120.57 725.666 121.53C725.736 122.49 722.856 120.79 722.336 119.39C721.841 118.28 721.165 117.259 720.336 116.37Z" fill="#5E443D"/>
<path d="M747.039 113.5C747.039 113.5 745.929 137.71 744.149 146.26C742.369 154.81 738.149 156.15 737.379 153.71C736.609 151.27 739.059 148.6 741.159 142.04C743.259 135.48 747.039 113.5 747.039 113.5Z" fill="#493736"/>
<path d="M742.93 154.15C745.23 150.52 746.34 143.05 747.82 136.93C748.977 132.719 749.793 128.422 750.26 124.08C750.534 120.862 750.362 117.621 749.75 114.45C750.421 116.855 750.939 119.3 751.3 121.77C751.67 124.89 752.63 128.88 752.3 134.15C751.97 139.42 751.64 145.93 750.53 149.04C749.42 152.15 748.82 154.52 747.16 156.04C745.5 157.56 742.93 154.15 742.93 154.15Z" fill="#493736"/>
<path d="M728.93 154.8C729.758 160.226 730.229 165.701 730.34 171.19C730.453 174.726 730.874 178.246 731.6 181.71C731.6 181.71 732.41 175.71 732.41 173.26C732.41 170.81 732.34 169.04 731.97 163.26C731.6 157.48 728.93 154.8 728.93 154.8Z" fill="#493736"/>
<path d="M736.039 159C737.039 163.66 735.969 179.44 735.599 183.74C735.229 188.04 739.969 219.29 742.119 222.11C744.269 224.93 744.779 225.81 744.779 225.81C744.779 225.81 743.889 219.88 743.149 216.11C742.409 212.34 740.839 186.18 740.149 180.55C739.459 174.92 738.229 161.96 737.639 160.63C737.5 160.262 737.286 159.927 737.01 159.646C736.735 159.366 736.404 159.146 736.039 159Z" fill="#493736"/>
<path d="M742.93 162C742.93 162 743.38 173.93 744.34 181.71C745.3 189.49 748.63 187.85 748.63 185.19C748.63 182.53 747.63 177.26 747.04 172.97C746.45 168.68 742.93 162 742.93 162Z" fill="#493736"/>
<path d="M727.375 157.34C727.295 163.41 725.965 173.19 728.375 186.52C730.785 199.85 733.115 207.85 734.445 216.45C735.775 225.05 736.965 239.45 737.265 246.97C737.565 254.49 739.965 265.52 738.675 265.74C737.385 265.96 736.375 263.56 736.225 260.74C736.075 257.92 734.745 239.11 734.005 233.04C733.265 226.97 731.115 216.13 730.705 211.55C730.295 206.97 729.705 204.15 728.075 197.34C726.445 190.53 724.525 184.34 724.525 178.97C724.496 173.866 724.83 168.766 725.525 163.71C725.926 161.53 726.546 159.395 727.375 157.34Z" fill="#493736"/>
<path d="M729.308 265C728.628 259.37 727.158 245.74 727.378 238C727.598 230.26 727.748 230.59 728.378 222C728.378 222 728.658 216.94 728.378 211.47C728.098 206 728.378 208.07 728.378 208.07C728.378 208.07 730.018 221.4 730.018 225.7C730.018 230 728.828 235.33 729.018 240.07C729.208 244.81 729.608 251.77 730.018 257.7C730.428 263.63 731.448 265.7 731.018 265.7C730.42 265.542 729.845 265.307 729.308 265Z" fill="#493736"/>
<path d="M714.406 264.6C716.036 258.97 717.226 258.97 719.006 245.78C720.786 232.59 721.666 224.89 723.006 217.48C724.346 210.07 725.816 206.97 726.006 200.74C726.196 194.51 723.486 187.41 722.896 179.85C722.306 172.29 721.896 165.63 721.896 164.85C721.896 164.07 719.526 165.85 719.086 169.44C718.646 173.03 716.706 189.44 716.706 194.78C716.706 200.12 713.866 210.37 711.866 215.56C709.866 220.75 707.126 225.04 706.866 231.11C706.606 237.18 705.866 243.26 707.866 249.93C709.629 254.995 711.817 259.903 714.406 264.6Z" fill="#493736"/>
<path d="M727.375 124.08C727.375 124.08 731.675 123.26 733.445 127.08C735.215 130.9 735.355 133.08 735.145 133.68C734.935 134.28 733.375 128.57 731.295 127.08C729.215 125.59 727.375 124.08 727.375 124.08Z" fill="#5E443D"/>
<path d="M719.969 144.45C722.759 141.87 718.969 141.39 725.429 139.63C728.557 142.347 731.828 144.894 735.229 147.26C739.669 150.26 746.229 155.48 750.229 155.56C754.229 155.64 753.349 148.22 754.309 144.89C755.269 141.56 755.799 140.24 755.799 140.24C755.799 140.24 756.639 147.62 755.209 151.62C753.779 155.62 754.529 156.74 752.599 161.11C750.669 165.48 750.309 168.6 745.489 166.6C740.669 164.6 733.419 162 730.229 158.15C727.039 154.3 719.969 144.45 719.969 144.45Z" fill="#483834"/>
<path d="M732.777 119C735.227 122.14 736.487 123.77 737.227 126.29C737.967 128.81 738.227 130.44 738.227 130.44C738.615 129.169 738.761 127.836 738.657 126.51C738.457 124.51 737.567 121.3 736.307 119.79C735.047 118.28 732.777 119 732.777 119Z" fill="#5E443D"/>
<path d="M663.864 177.15C659.084 172.6 655.864 174.21 657.864 163.85C659.864 153.49 659.194 150.85 663.864 150.37C668.534 149.89 667.304 155.48 678.304 153.6C689.304 151.72 689.084 149.21 700.534 150.35C711.984 151.49 719.984 145.67 722.424 153.04C724.864 160.41 724.974 165.37 721.974 172.82C718.974 180.27 718.084 180.93 718.194 183.04C718.304 185.15 721.084 190.82 721.084 195.26C721.084 199.7 721.714 206.08 715.494 218.6C709.274 231.12 704.234 223.71 708.084 234.67C711.934 245.63 718.754 263.41 716.084 268.74C713.414 274.07 701.274 278.32 684.974 275.74C668.674 273.16 653.564 275.74 651.494 271.05C649.424 266.36 657.424 265.18 660.084 253.92C662.744 242.66 655.934 237.62 662.754 224.29C669.574 210.96 673.754 196.29 677.274 193.53C680.794 190.77 681.644 186.88 678.904 185.03C676.164 183.18 675.794 182.36 671.904 180.03C669.438 178.554 666.707 177.576 663.864 177.15Z" fill="#523E3B"/>
<path d="M675.923 151.48C674.703 146.6 671.483 138.82 673.483 130.48C675.483 122.14 676.703 118.26 679.373 116.71C682.043 115.16 688.703 120.26 694.033 120.1C699.363 119.94 700.703 118.71 708.143 119.26C715.583 119.81 714.143 118.6 719.703 120.1C725.263 121.6 727.373 120.93 725.373 127.37C723.373 133.81 721.813 132.87 721.703 136.57C721.593 140.27 724.143 143.07 725.143 148.39C726.143 153.71 727.403 153.6 726.143 157.71C724.883 161.82 721.513 164.15 717.953 163.82C714.393 163.49 703.283 156.37 697.403 154.82C691.523 153.27 691.623 151.71 684.513 152.15C677.403 152.59 675.923 151.48 675.923 151.48Z" fill="#A47261"/>
<path d="M670.773 165.48C674.333 166.6 675.073 167.11 681.293 167.19C687.513 167.27 688.773 167.19 688.773 167.19C688.773 167.19 685.003 169.63 681.963 169.63C678.923 169.63 677.143 170.37 674.113 168.63C671.083 166.89 670.773 165.48 670.773 165.48Z" fill="#493736"/>
<path d="M675.965 175.11C678.625 175.56 679.815 176.3 683.665 175.48C686.022 174.979 688.329 174.263 690.555 173.34C690.555 173.34 688.405 176.67 685.965 177.41C683.525 178.15 684.115 179.56 681.145 178.3C679.278 177.483 677.535 176.409 675.965 175.11Z" fill="#493736"/>
<path d="M677.223 155.48C680.717 162.374 685.017 168.829 690.033 174.71C695.703 181.04 693.703 182.6 698.703 183.6C703.703 184.6 706.253 185.6 706.813 181.71C707.373 177.82 706.923 174.93 703.703 170.04C700.483 165.15 701.593 165.37 696.033 159.37C690.473 153.37 691.933 152.08 686.153 151.72C684.475 151.615 682.795 151.899 681.246 152.551C679.697 153.204 678.319 154.206 677.223 155.48Z" fill="#857779"/>
<path d="M678.867 186.15C678.427 188.71 675.427 189.04 679.867 192.71C684.307 196.38 679.087 197.37 688.647 197.6C698.207 197.83 698.427 197.81 703.757 196.6C709.087 195.39 711.537 195.05 715.197 191.72C718.857 188.39 720.537 188.38 720.757 185.72C720.977 183.06 721.977 182.27 720.757 179.49C719.537 176.71 715.867 176.27 712.087 178.38C708.307 180.49 705.257 184.48 697.867 185C690.477 185.52 687.287 185.53 683.537 185.67C681.968 185.663 680.402 185.824 678.867 186.15Z" fill="#483834"/>
<path d="M703.483 186.48C706.033 189.6 706.243 187.9 708.803 195.36C711.363 202.82 712.593 205.6 713.483 210.93C714.373 216.26 714.583 217.48 714.363 220.59C714.143 223.7 719.113 224.48 721.293 219.26C723.473 214.04 726.003 217.26 724.183 210.26C722.363 203.26 719.373 195.93 717.703 191.04C716.033 186.15 719.373 185.93 717.033 182.04C714.693 178.15 701.273 181.04 702.263 184.19C703.253 187.34 703.483 186.48 703.483 186.48Z" fill="#857779"/>
<path d="M651.684 267.73C654.142 267.457 656.502 266.609 658.571 265.253C660.64 263.898 662.361 262.074 663.594 259.93C667.034 253.82 668.814 250.6 670.704 245.15C672.594 239.7 672.254 243.26 673.814 233.6C675.374 223.94 674.964 225.04 677.224 213.6C679.484 202.16 679.864 199.71 679.864 199.71C679.864 199.71 679.974 200.71 679.864 204.93C679.754 209.15 678.064 218.71 677.464 224.48C676.724 231.032 675.559 237.529 673.974 243.93C672.864 247.71 668.864 258.82 665.864 262.26C662.864 265.7 661.754 267.15 658.424 267.82C656.191 268.205 653.906 268.175 651.684 267.73Z" fill="#493736"/>
<path d="M684.376 210.07C683.036 213.93 679.466 218.26 679.866 224.71C680.266 231.16 682.146 247.15 684.926 254.26C687.706 261.37 689.146 264.71 690.596 267.15C692.046 269.59 695.796 276.51 695.796 276.51L690.646 276.4C690.206 274.9 686.376 265.4 685.376 263.04C684.376 260.68 680.136 248.37 679.866 245.93C679.596 243.49 678.376 229.6 678.376 228.37C678.376 227.14 678.256 217.15 680.926 213.71C683.596 210.27 684.376 210.07 684.376 210.07Z" fill="#493736"/>
<path d="M697.922 231.48C697.922 231.48 705.972 230.42 706.922 231.13L709.012 237.48L697.922 231.48Z" fill="#493736"/>
<path d="M696.754 233.6C701.644 235.54 703.424 235.93 706.254 238.71C708.43 240.755 710.237 243.16 711.594 245.82C712.093 246.743 712.531 247.699 712.904 248.68C712.904 248.68 708.034 243.6 705.984 241.37C703.934 239.14 696.754 233.6 696.754 233.6Z" fill="#493736"/>
<path d="M691.867 235.15C695.197 238.82 702.977 244.6 705.867 248.43C708.757 252.26 711.187 254.6 712.417 257.71C713.647 260.82 713.867 261.15 714.647 263.04C713.389 260.239 711.702 257.652 709.647 255.37C706.427 251.93 704.727 250.48 699.407 244.6C696.648 241.654 694.127 238.494 691.867 235.15Z" fill="#493736"/>
<path d="M682.312 127.71C682.092 125.26 683.092 122.48 684.092 121.65C685.092 120.82 687.532 123.6 688.982 123.98C690.432 124.36 689.532 126.21 686.312 127.04C683.092 127.87 682.312 127.71 682.312 127.71Z" fill="#93665A"/>
<path d="M683.482 134.15C682.982 131.6 680.482 132.15 683.482 130.54C686.482 128.93 688.092 128.54 689.372 127.72C690.652 126.9 690.372 129.26 689.652 132.1C688.932 134.94 690.922 137.67 686.812 140.63C682.702 143.59 682.032 143.93 680.922 144.15C679.812 144.37 680.752 142.76 682.032 141.21C683.312 139.66 685.372 138.65 684.812 136.57C684.252 134.49 683.482 134.15 683.482 134.15Z" fill="#93665A"/>
<path d="M695.205 121.5C693.485 124.37 691.425 126.5 691.205 130.37C690.985 134.24 691.435 135.48 690.875 136.98C691.427 136.627 691.874 136.131 692.168 135.545C692.462 134.959 692.592 134.304 692.545 133.65C692.375 131.37 691.825 129.26 693.325 126.82C694.288 125.184 694.926 123.378 695.205 121.5Z" fill="#93665A"/>
<path d="M696.625 146.15C700.335 146.6 701.775 147.41 707.015 146.74C712.255 146.07 712.855 146.74 716.015 145.48C717.488 144.962 718.902 144.292 720.235 143.48C719.985 144.645 719.364 145.698 718.465 146.48C716.985 147.74 707.725 150.2 703.795 149.27C701.259 148.604 698.841 147.552 696.625 146.15Z" fill="#93665A"/>
<path d="M701.223 155.19C705.238 154.192 709.389 153.854 713.513 154.19C718.703 154.64 719.373 154.64 721.293 156.27C723.213 157.9 722.703 159.9 721.813 160.12C720.923 160.34 718.033 159.23 715.223 158.27C712.157 157.32 709.005 156.673 705.813 156.34C704.232 156.197 702.684 155.809 701.223 155.19Z" fill="#93665A"/>
<path d="M847.599 123.15C844.379 124.48 846.489 125.48 842.489 126.37C838.489 127.26 837.039 129.26 837.039 126.37C837.039 123.48 838.149 121.6 839.259 118.6C840.369 115.6 838.379 116.26 841.039 111.48C843.699 106.7 843.559 108.04 844.689 104.37C845.819 100.7 844.689 99.9304 845.689 95.6004C846.689 91.2704 846.759 91.9704 845.799 87.1704C844.889 82.6204 845.259 81.7404 846.219 79.3804C847.179 77.0204 848.489 72.1404 852.219 71.8704C855.949 71.6004 859.309 72.1904 863.079 76.9304C866.849 81.6704 873.449 82.6104 870.889 87.9304C868.329 93.2504 859.669 107.6 855.109 112.26C852.108 115.521 849.58 119.187 847.599 123.15Z" fill="#2E2420"/>
<path d="M845.865 87.9302C844.975 84.4802 843.425 79.3702 846.865 74.7102C850.305 70.0502 850.534 70.6002 857.084 66.2602C863.634 61.9202 861.425 60.1502 867.535 59.2602C873.645 58.3702 874.425 55.1502 876.755 58.7102C879.085 62.2702 879.195 64.9302 879.645 69.7102C880.095 74.4902 880.644 73.2602 882.194 77.4302C883.744 81.6002 883.424 83.8202 885.194 86.3702C886.964 88.9202 888.755 89.7002 890.645 93.6502C892.535 97.6002 893.755 99.4802 893.755 101.82C893.755 101.82 872.085 102.37 868.755 99.8702C865.425 97.3702 864.534 97.0402 865.194 94.2602C865.854 91.4802 866.084 91.9302 867.194 90.0402C868.304 88.1502 869.755 86.7102 868.425 84.0402C867.095 81.3702 860.535 72.8202 857.425 72.6002C854.315 72.3802 852.644 71.0402 850.194 74.2602C847.744 77.4802 846.084 77.8202 845.974 81.3702C845.864 84.9202 845.865 87.9302 845.865 87.9302Z" fill="#93665A"/>
<path d="M849.147 123C849.147 127 849.817 125.89 846.927 132.89C844.037 139.89 842.707 142.78 840.597 145.56C837.801 149.509 835.904 154.021 835.037 158.78C834.147 164 826.597 173.33 825.487 179.56C824.377 185.79 823.487 181.33 823.037 185.11C822.587 188.89 821.927 191.89 824.707 194.78C827.487 197.67 828.997 201.56 836.127 201.22C843.257 200.88 844.257 201 847.037 199.11C849.817 197.22 848.927 200.11 853.147 195.56C857.367 191.01 867.257 164.44 869.817 157.33C872.377 150.22 874.257 151.44 874.377 142.56C874.497 133.68 877.517 134.44 871.497 128.89C865.477 123.34 861.147 120.44 855.707 121.11C850.267 121.78 849.147 123 849.147 123Z" fill="#493736"/>
<path d="M826.648 197.07C827.928 194.15 827.648 197.6 829.648 187.6C831.648 177.6 830.428 177.48 832.088 173.04C833.748 168.6 833.758 165.26 833.758 168.6C833.758 171.94 833.198 175.04 833.758 179.04C834.426 182.451 834.426 185.959 833.758 189.37C832.978 194.26 833.088 195.22 831.758 197.07C830.428 198.92 830.098 200.26 829.148 199.48C828.198 198.7 826.648 197.07 826.648 197.07Z" fill="#3F312E"/>
<path d="M843.05 200.82C841.71 196.15 839.38 191.93 840.05 187.48C840.72 183.03 838.5 178.6 841.27 168.15C844.04 157.7 844.61 156.04 845.16 151.82C845.71 147.6 845.72 146.93 845.72 150.37C845.556 155.514 844.811 160.624 843.5 165.6C842.152 169.574 841.44 173.735 841.39 177.93C841.27 182.93 842.06 186.93 842.78 192.04C843.126 194.883 843.943 197.647 845.2 200.22L843.05 200.82Z" fill="#3F312E"/>
<path d="M852.925 140.3C853.375 146.82 853.385 150.37 854.265 157.48C855.145 164.59 855.885 164.48 855.265 171.93C854.645 179.38 855.415 178.52 852.895 186.22C850.375 193.92 849.345 193.34 848.305 190.67C847.265 188 846.085 189.48 846.825 185.48C847.565 181.48 849.195 180.09 850.375 174.48C851.555 168.87 852.075 175.25 851.895 161.77C851.715 148.29 850.525 147.99 851.715 144.14L852.925 140.3Z" fill="#3F312E"/>
<path d="M853.664 69.7101C855.514 68.3701 854.924 67.2601 857.744 67.4101C860.564 67.5601 862.484 68.0801 864.034 70.0001C865.584 71.9201 865.814 72.0001 866.554 74.6701C866.927 76.1793 867.398 77.6625 867.964 79.1101C868.334 80.0001 866.184 78.4501 865.744 77.1101C865.304 75.7701 864.924 72.3001 863.074 71.3401C861.224 70.3801 858.334 69.4101 856.554 69.7101C855.599 69.894 854.619 69.894 853.664 69.7101Z" fill="#845B52"/>
<path d="M871.499 60.6001C873.259 61.1501 873.659 59.6001 875.239 62.4801C876.819 65.3601 876.819 64.4801 877.709 68.8901C878.599 73.3001 878.489 73.6001 879.039 74.7101C879.589 75.8201 877.149 73.2601 876.709 71.3701C876.269 69.4801 876.589 68.7101 875.309 65.8201C874.029 62.9301 875.149 63.2601 872.819 62.2601C870.489 61.2601 871.499 60.6001 871.499 60.6001Z" fill="#845B52"/>
<path d="M876.648 84.1503C877.648 82.9303 877.258 82.4803 879.488 82.6003C881.718 82.7203 881.818 82.8603 882.428 83.3603C883.038 83.8603 882.538 84.5403 881.538 84.5403C880.538 84.5403 880.758 83.9303 879.118 84.5403C878.717 84.738 878.264 84.8066 877.822 84.7368C877.379 84.667 876.97 84.4621 876.648 84.1503Z" fill="#845B52"/>
<path d="M878.706 88.8203C880.876 87.3203 880.516 86.9803 882.706 87.2603C884.896 87.5403 885.046 86.9503 885.546 88.0003C886.046 89.0503 886.436 90.0003 885.546 90.0003C884.59 89.995 883.638 89.8844 882.706 89.6703C881.156 89.3903 880.096 89.1203 879.126 89.4503C878.156 89.7803 878.706 88.8203 878.706 88.8203Z" fill="#845B52"/>
<path d="M858.928 84.9803C859.386 84.9803 859.758 84.6087 859.758 84.1503C859.758 83.6919 859.386 83.3203 858.928 83.3203C858.469 83.3203 858.098 83.6919 858.098 84.1503C858.098 84.6087 858.469 84.9803 858.928 84.9803Z" fill="#EAAF93"/>
<path d="M839.746 119.26C842.856 116.6 847.296 114.59 850.856 110.04C854.416 105.49 855.146 105.04 860.186 99.4402C865.226 93.8402 864.776 95.0602 866.706 91.4402C868.636 87.8202 867.596 88.2802 869.706 85.3202C871.816 82.3602 871.636 81.6102 874.706 83.3902C877.776 85.1702 881.706 91.9802 885.966 95.6902C890.226 99.4002 897.076 101.46 900.186 106.69C903.296 111.92 906.856 116.32 906.406 119.28C905.956 122.24 906.706 120.91 899.886 122.39C893.066 123.87 885.516 128.32 881.226 130.39C876.936 132.46 877.376 134.69 871.446 135.28C865.516 135.87 865.226 136.47 860.186 131.87C855.146 127.27 851.446 124.02 848.336 122.54C845.226 121.06 839.746 119.26 839.746 119.26Z" fill="#A47261"/>
<path d="M861.517 160.89C864.777 153.63 861.227 157.19 865.667 148.74C870.107 140.29 869.227 139.47 870.257 135.66C871.287 131.85 875.887 125.78 883.747 123.41C891.607 121.04 896.037 116.78 900.187 120.1C904.337 123.42 905.897 128.74 906.447 137.34C906.997 145.94 905.227 145.63 904.777 156.6C904.327 167.57 898.257 204.6 901.077 217.34C903.897 230.08 903.747 231.11 905.227 239.85C906.707 248.59 912.487 249.04 905.077 251.26C897.667 253.48 901.667 255.26 889.667 254.67C877.667 254.08 874.407 255.26 871.007 250.67C867.607 246.08 863.147 244.89 858.257 246.97C853.367 249.05 854.557 251.11 849.077 249.63C843.597 248.15 840.487 253.04 839.147 247.11C837.807 241.18 838.407 243.26 836.627 239.41C834.847 235.56 831.447 238.22 835.627 231.26C840.628 223.135 844.732 214.491 847.867 205.48C852.467 192.89 853.057 187.71 855.577 179.41C858.097 171.11 861.517 160.89 861.517 160.89Z" fill="#523E3B"/>
<path d="M884.035 177.34C883.295 185.48 881.865 193.04 885.245 200.45C888.625 207.86 884.545 209.45 892.335 213.34C900.815 217.6 902.215 221.57 901.615 219.81C900.794 216.767 900.361 213.632 900.325 210.48C900.395 208.15 901.075 204.3 899.005 202.97C896.935 201.64 894.555 202.52 892.485 198.97C890.415 195.42 889.635 195.97 887.945 188.3C886.255 180.63 885.865 179.41 885.245 177.3C884.625 175.19 884.035 177.34 884.035 177.34Z" fill="#493736"/>
<path d="M869.868 153.63C874.168 152.3 880.538 152.15 881.568 148.15C882.598 144.15 873.868 142.22 875.718 138.97C877.568 135.72 880.718 133.19 884.718 130.52C888.718 127.85 889.108 123.52 896.148 123.47C903.188 123.42 902.298 121.06 903.578 124.06C904.858 127.06 904.948 136.89 903.578 143.41C902.208 149.93 904.718 156.3 900.278 163.41C895.838 170.52 889.908 175.11 885.758 178.82C881.608 182.53 883.098 184.3 880.428 182.52C877.758 180.74 875.868 180 873.188 173.93C870.508 167.86 866.498 165.34 868.128 160.6C868.974 158.352 869.558 156.013 869.868 153.63Z" fill="#664A41"/>
<path d="M869.146 90.0802C873.376 89.4102 874.856 87.8502 876.256 89.5602C877.656 91.2702 879.256 92.4502 877.376 92.0802C875.496 91.7102 875.886 91.3402 872.376 91.4802C868.866 91.6202 869.146 90.0802 869.146 90.0802Z" fill="#93665A"/>
<path d="M861.517 110.6C864.517 113.11 860.857 114.37 868.187 113.11C875.517 111.85 877.077 111.81 877.747 113.61C878.417 115.41 878.037 117.11 876.407 117.34C874.777 117.57 871.947 116.6 867.657 116.52C863.367 116.44 862.257 117.63 861.227 115.19C860.929 114.452 860.8 113.657 860.85 112.862C860.901 112.068 861.128 111.295 861.517 110.6Z" fill="#93665A"/>
<path d="M849.664 120.1C854.404 120.15 850.254 120.1 857.224 121.19C864.194 122.28 862.854 123.71 870.224 121.71C877.594 119.71 876.524 119.62 882.594 117.37C888.664 115.12 887.924 114.3 892.224 114.6C896.524 114.9 897.044 115.78 897.044 116.08C897.044 116.38 895.784 117.41 893.184 117.85C890.584 118.29 890.894 116.6 884.524 119.71C878.154 122.82 876.744 123.48 873.374 124.52C870.004 125.56 869.634 127.78 864.374 126.97C859.114 126.16 856.074 125.11 854.224 123.97C852.374 122.83 849.704 121.27 849.704 120.88L849.664 120.1Z" fill="#93665A"/>
<path d="M875.598 108.52C879.448 109.11 877.378 111.23 883.148 109.06C888.918 106.89 890.558 105.93 892.488 105.63C894.014 105.442 895.564 105.621 897.008 106.15C897.888 106.45 897.598 108 895.448 108.15C893.583 108.14 891.729 108.448 889.968 109.06C887.298 109.93 885.078 111.26 883.148 111.48C881.218 111.7 878.558 112.74 877.228 111.48C876.405 110.675 875.838 109.645 875.598 108.52Z" fill="#93665A"/>
<path d="M876.928 159C877.668 161.66 875.598 161.37 878.778 163.14C881.958 164.91 882.858 165.59 882.858 166.03C882.858 166.47 877.858 165.96 876.928 165.03C875.998 164.1 874.118 162.81 874.778 161.18C875.201 160.213 875.967 159.436 876.928 159Z" fill="#5E443D"/>
<path d="M879.447 152.08C878.627 155.08 876.937 154.6 878.747 157.19C880.557 159.78 879.597 160.74 882.037 161.41C884.477 162.08 884.337 162.3 886.557 162.08C888.777 161.86 888.337 160.6 886.927 160.45C885.517 160.3 883.517 160.67 882.337 159.45C881.157 158.23 880.037 157.08 879.967 155.23C879.925 154.163 879.75 153.105 879.447 152.08Z" fill="#5E443D"/>
<path d="M882.558 152.08C882.258 154.15 881.819 155.72 883.889 157.08C885.959 158.44 887.059 158.78 888.109 158.18C889.159 157.58 889.519 156.7 888.409 156.48C887.299 156.26 885.519 156.85 884.629 155.89C883.739 154.93 882.899 153.49 883.029 152.83C883.059 152.669 883.028 152.502 882.941 152.363C882.854 152.224 882.717 152.123 882.558 152.08Z" fill="#5E443D"/>
<path d="M882.869 140.22C882.939 142.22 880.789 142.22 885.309 143.34C889.829 144.46 890.309 145.71 892.049 144.67C893.789 143.63 893.899 142.54 892.789 142.67C891.679 142.8 889.059 143.59 887.959 143C886.859 142.41 885.959 142.92 884.959 141.51C883.959 140.1 882.869 140.22 882.869 140.22Z" fill="#5E443D"/>
<path d="M862.708 180.74C860.628 186.37 857.519 193.63 856.929 202.08C856.339 210.53 855.299 211.85 855.149 218.08C854.999 224.31 853.228 224.15 854.258 229.48C855.288 234.81 856.928 238.08 856.488 241.04C856.048 244 855.878 245.28 853.938 247.26C851.178 250.08 852.589 250.26 850.669 250C848.749 249.74 851.148 245.48 852.338 244.45C853.528 243.42 854.258 234.97 853.818 232.89C853.378 230.81 852.038 226.82 852.188 221.89C852.338 216.96 852.038 213 853.188 206.63C854.338 200.26 855.258 193.44 855.998 191.07C856.738 188.7 856.888 185.65 858.998 183.18C861.108 180.71 862.708 180.74 862.708 180.74Z" fill="#493736"/>
<path d="M873.099 178.37C870.859 183.71 869.759 196.6 871.199 204.45C872.639 212.3 872.199 218.97 874.639 222.08C877.079 225.19 881.329 225.93 877.939 229.78C874.549 233.63 874.749 231.26 873.099 236C871.449 240.74 868.339 241.19 871.889 244.15C875.439 247.11 881.459 250.22 882.299 251.85C882.939 252.937 883.839 253.848 884.919 254.5C884.919 254.5 887.379 254.57 887.099 254.5C886.099 254.24 879.229 245.63 878.749 244.6C878.269 243.57 877.689 238.08 877.749 236.6C877.809 235.12 882.409 228.45 882.409 227.26C882.409 226.07 879.529 220 878.749 217.93C877.969 215.86 872.669 201.93 873.099 191.26C873.529 180.59 873.099 178.37 873.099 178.37Z" fill="#493736"/>
<path d="M837.227 235.26C839.597 234.52 841.517 231.26 841.667 235.26C841.817 239.26 839.147 237.48 841.667 242.26C844.187 247.04 846.227 250.5 844.147 249.36C842.988 248.695 841.992 247.78 841.231 246.681C840.47 245.583 839.963 244.329 839.747 243.01C839.071 240.376 838.23 237.787 837.227 235.26Z" fill="#493736"/>
<path d="M147.799 35.9999C148.539 33.7799 151.499 12.2999 166.459 14.8199C181.419 17.3399 182.459 22.1699 181.869 25.3099C181.472 27.3954 180.875 29.4381 180.089 31.4099C179.349 33.6299 178.169 32.5999 178.319 34.5199C178.469 36.4399 181.129 39.8499 179.949 41.3399C178.769 42.8299 177.869 40.8899 177.719 42.8199C177.569 44.7499 178.719 44.74 176.539 46.08C174.359 47.4199 173.719 45.6299 174.169 48.2999C174.619 50.9699 175.059 53.9299 172.239 54.0799C169.73 54.3337 167.199 53.9233 164.899 52.8899C162.019 51.7099 163.899 50.5199 162.019 51.7099C160.139 52.8999 155.649 55.1099 151.209 47.9999C146.769 40.8899 147.799 35.9999 147.799 35.9999Z" fill="#BC896A"/>
<path d="M144.386 36.5699C143.796 32.1199 142.016 33.3099 143.496 26.0499C144.976 18.7899 151.496 8.70994 157.576 7.99994C162.853 7.22754 168.235 8.28632 172.826 10.9999C177.126 13.5099 182.906 15.8799 184.686 19.1399C186.466 22.3999 187.206 25.9599 185.686 27.8799C184.166 29.7999 183.686 31.2899 181.956 32.4799C180.226 33.6699 178.876 32.0299 179.176 30.1099C179.476 28.1899 181.396 25.9599 180.056 24.0299C178.716 22.0999 177.686 19.4399 176.206 19.0299C174.726 18.6199 173.686 17.3999 173.096 19.6199C172.506 21.8399 172.656 23.4699 171.616 25.5399C170.576 27.6099 170.876 29.2499 168.056 28.3599C165.236 27.4699 163.316 25.2499 161.986 24.9499C161.538 24.8311 161.071 24.8021 160.612 24.8647C160.153 24.9272 159.711 25.08 159.311 25.3143C158.911 25.5485 158.562 25.8596 158.283 26.2296C158.004 26.5996 157.801 27.0211 157.686 27.4699C156.946 29.9899 155.766 28.4699 156.946 31.9099C158.126 35.3499 158.876 36.2099 157.686 36.6599C155.496 37.242 153.272 37.6862 151.026 37.9899C149.096 38.2799 147.466 38.5799 146.426 37.9899C145.386 37.3999 144.386 36.5699 144.386 36.5699Z" fill="#4F3924"/>
<path d="M162.869 51.1999C162.629 50.1999 170.709 43.0099 173.929 43.1199C177.149 43.2299 177.469 43.4499 177.799 43.9899C178.569 45.2399 176.149 46.9099 174.369 46.6599C174.065 47.9467 174.099 49.2903 174.469 50.5599C175.039 53.1799 174.799 55.6799 169.469 54.0899C164.139 52.4999 163.259 52.8299 162.869 51.1999Z" fill="#4F3924"/>
<path d="M145.086 39.34L146.426 35.79C149.081 36.8418 151.367 38.6542 152.996 41C155.666 44.89 158.786 48.33 160.336 51.67C161.802 54.4991 162.666 57.6007 162.876 60.78C163.106 64.22 163.446 70.33 163.446 70.33C163.446 70.33 159.076 56.56 149.446 48.11L145.086 39.34Z" fill="#373327"/>
<path d="M162.729 29.37C163.209 28.76 163.819 28.79 163.369 27.45C162.919 26.11 162.079 25 160.929 25C160.239 24.9832 159.562 25.1878 158.997 25.5837C158.432 25.9796 158.008 26.546 157.789 27.2C157.259 28.84 156.589 29.64 157.789 30.95C158.989 32.26 159.209 33.42 160.599 33.7C161.989 33.98 162.659 34.22 162.889 33.47C163.119 32.72 162.349 31.67 162.429 30.78C162.447 30.2962 162.548 29.8192 162.729 29.37Z" fill="#B2836B"/>
<path d="M161.126 57.1602C161.126 57.1602 168.976 65.4502 169.276 66.3402C169.576 67.2302 172.396 100.58 170.336 103.68C168.276 106.78 170.336 102.94 170.336 102.94L156.086 64.0002L161.126 57.1602Z" fill="#BFAD99"/>
<path d="M140.758 43.1199C141.758 41.0099 143.868 37.8999 145.208 37.1199C146.548 36.3399 153.208 43.2299 156.538 51.4499C159.868 59.6699 163.148 68.1199 164.838 71.8999L166.538 75.6799C166.538 75.6799 163.758 74.1199 160.868 68.8999C157.978 63.6799 159.498 62.5 151.978 53.5699C144.088 45.5699 140.758 43.1199 140.758 43.1199Z" fill="#C4A06E"/>
<path d="M139.161 94.127C142.606 95.7713 145.343 100.793 151.526 100.993C157.709 101.193 158 97.0823 158 97.0823C158 97.0823 155.748 80.1397 152.099 76.8511C148.449 73.5626 141.606 75.3624 140.956 76.8511C140.306 78.3399 137.142 87.55 137.006 90.0164C136.87 92.4828 139.161 94.127 139.161 94.127Z" fill="#C4A06E"/>
<path d="M139.5 211.08C139.5 211.08 148.09 212.86 150.91 212.57C153.73 212.28 156.24 213.01 157.13 207.57C158.02 202.13 160.69 192.57 161.13 190.68C161.57 188.79 163.6 182.38 163.77 179.42C163.94 176.46 163.35 169.94 162.91 169.79C162.47 169.64 151.65 168.9 151.65 168.9C151.65 168.9 145.43 180.9 144.83 182.23C144.23 183.56 141.58 201.05 141.43 202.38C141.28 203.71 139.5 211.08 139.5 211.08Z" fill="#A08748"/>
<path d="M136.086 210.79L150.906 212.57C150.906 212.57 150.016 225.16 148.386 233.31C146.756 241.46 145.716 248.86 146.316 255.82C146.916 262.78 144.996 263.23 148.996 266.05C152.996 268.87 151.516 271.38 158.476 272.57C165.436 273.76 165.476 271.97 169.296 273.31C169.296 273.31 173.146 273.38 172.626 276.31C172.106 279.24 164.706 279.86 162.926 280.16C161.146 280.46 145.516 280.23 142.186 280.16C138.856 280.09 131.516 277.94 131.516 277.94L132.996 210.79H136.086Z" fill="#3A372E"/>
<path d="M123.797 172.27C123.797 172.27 124.537 180.71 123.797 185.01C123.057 189.31 122.607 187.23 121.127 192.86C119.647 198.49 118.907 193.75 117.867 201.86C117.34 205.506 117.007 209.178 116.867 212.86V216.27L133.997 217.9C133.997 217.9 134.997 214.07 135.197 214.19C135.397 214.31 139.257 213.96 140.297 212.48C142.754 209.588 144.378 206.083 144.997 202.34C146.187 196.12 146.477 193.45 147.227 188.42C147.977 183.39 148.997 181.66 149.887 176.59C150.777 171.52 150.887 170.94 150.887 170.94L123.797 172.27Z" fill="#AE944A"/>
<path d="M115.349 213.45C115.349 213.45 114.909 254.19 115.349 260.45C115.653 266.371 115.59 272.306 115.159 278.22C114.909 281.34 113.869 285.22 114.319 286.52C114.769 287.82 135.059 291.35 153.319 289.16C153.319 289.16 157.849 286.37 154.029 283.11C150.209 279.85 150.029 280.89 145.759 279.11C141.489 277.33 138.949 276.6 136.579 273.19C134.209 269.78 133.759 270.08 133.909 267.11C134.059 264.14 134.799 262.67 133.909 261.78C133.019 260.89 132.909 261.34 133.169 258.22C133.429 255.1 133.909 231.85 133.909 228C133.909 224.15 135.269 214.37 135.259 214.22C135.249 214.07 115.349 213.45 115.349 213.45Z" fill="#3B3421"/>
<path d="M156.09 188.42C156.09 188.42 154 124.57 154 123.23C154 121.89 171.66 123.23 171.66 123.23C171.66 123.23 175.96 172.42 171.66 187.23L156.09 188.42Z" fill="#C4A06E"/>
<path d="M129.447 120.53L157.127 124.12V173.12C157.127 173.12 137.427 178.3 126.907 175.93C116.387 173.56 113.297 171.93 113.297 171.93C113.297 171.93 120.387 133.41 120.537 132.82C120.687 132.23 129.447 120.53 129.447 120.53Z" fill="#C4A06E"/>
<path d="M142.929 42.34C141.539 41.66 133.129 39.97 128.239 45.16C123.349 50.35 116.829 51.08 116.539 58.94C116.249 66.8 116.539 72.12 116.539 72.12C116.539 72.12 116.979 64.64 120.369 58.73C123.449 53.37 130.82 50.18 132 51C138.71 55.65 143.299 71.54 144.499 74.47C145.589 77.24 153.319 91.08 155.839 96.57C158.359 102.06 157.149 105.57 157.149 105.57L171.249 107.05C171.249 107.05 173.019 106.76 172.429 103.2C171.839 99.64 166.219 85.57 164.879 81.28C163.539 76.99 159.539 58.28 146.499 45.28C145.436 44.1552 144.237 43.1675 142.929 42.34Z" fill="#CAB69E"/>
<path d="M134.758 89.75C136.758 91.54 145.758 98.05 156.088 98.64C166.418 99.23 166.158 100.06 169.088 99.42C172.018 98.78 172.548 99.08 172.548 99.08C172.548 99.08 173.858 108.57 172.548 110.49C171.238 112.41 159.388 110.42 153.018 109.35C146.648 108.28 143.838 109.45 140.018 107.82C136.198 106.19 135.418 104.63 134.828 100.52C134.483 96.9393 134.46 93.3349 134.758 89.75Z" fill="#BFAD99"/>
<path d="M171.651 109.35C172.651 113.16 173.081 114.79 172.511 117.9C171.941 121.01 172.241 120.57 169.281 120.42C166.321 120.27 154.911 118.64 148.981 118.49C143.051 118.34 137.121 118.49 136.681 118.34C136.241 118.19 135.211 111.68 135.211 108.57C135.211 105.46 136.981 103.38 138.611 103.38C140.241 103.38 171.651 109.35 171.651 109.35Z" fill="#3A372E"/>
<path d="M137.579 123.23C136.829 120.23 135.799 117.01 137.579 115.97C139.359 114.93 169.829 118.08 171.079 118.49C172.329 118.9 173.669 125.6 172.509 126.94C171.349 128.28 137.579 123.23 137.579 123.23Z" fill="#BFAD99"/>
<path d="M116.409 166.19C116.409 166.19 111.499 119.82 113.999 96.0001C116.499 72.1801 114.299 60.5601 124.809 53.1001C135.319 45.6401 139.809 58.2201 141.699 65.1901C143.589 72.1601 146.579 74.9701 144.439 80.1901C142.299 85.4101 139.189 85.9701 138.439 91.4501C137.689 96.9301 135.439 99.6001 138.149 114.56C140.859 129.52 141.999 138.56 143.779 145.91C145.559 153.26 145.999 153.82 145.189 154.86C144.379 155.9 127.779 166.56 123.779 167.45C119.779 168.34 116.609 168.16 116.409 166.19Z" fill="#CEBBA5"/>
<path d="M117.867 166.49C119.447 163.502 122.054 161.186 125.207 159.97C129.316 158.27 133.608 157.051 137.997 156.34L143.547 155.23C143.547 155.23 143.087 157.45 138.797 159.23C134.507 161.01 129.997 164.05 126.287 164.86C122.577 165.67 117.867 166.49 117.867 166.49Z" fill="#2E2420"/>
<path d="M379.369 269.73C381.949 269.15 383.789 267.31 386.789 266.98C389.789 266.65 390.959 267.4 390.959 268.35C390.959 269.3 392.369 268.35 392.539 269.73C392.709 271.11 391.789 271.73 391.459 273.17C391.129 274.61 393.219 274.88 388.539 275.59C383.859 276.3 380.949 277.06 379.789 276.15C378.629 275.24 379.369 269.73 379.369 269.73Z" fill="#F7931E"/>
<path d="M383 271.73C385.58 271.31 389.42 270.48 390.42 269.9L383 271.73Z" fill="#CC7825"/>
<path d="M243.169 278.61C246.839 283.61 294.169 291.93 326.529 290.08C358.889 288.23 351.859 295.51 373.199 289.08L394.539 282.61C394.539 282.61 385.869 267.46 372.539 261.2C359.209 254.94 350.859 248.49 333.189 248.54C315.519 248.59 311.519 244.37 297.519 249.15C283.519 253.93 274.849 257.93 266.519 259.1C258.189 260.27 256.769 260.85 258.309 258.31C259.849 255.77 261.309 255.1 263.149 253.72C264.989 252.34 265.809 253.22 266.519 249.35C267.229 245.48 268.439 245.1 266.939 242.97C265.439 240.84 265.559 239.97 261.939 238.35C258.319 236.73 256.479 235.47 253.519 236.18C250.559 236.89 246.399 238.33 243.999 241C241.599 243.67 239.449 245 238.999 247C238.549 249 236.889 263.12 238.999 270.12C241.109 277.12 243.169 278.61 243.169 278.61Z" fill="white"/>
<path d="M255.34 241.14C255.341 240.954 255.306 240.77 255.236 240.598C255.165 240.425 255.062 240.269 254.931 240.137C254.8 240.005 254.644 239.9 254.472 239.829C254.3 239.757 254.116 239.72 253.93 239.72C253.649 239.718 253.373 239.8 253.138 239.955C252.904 240.11 252.72 240.331 252.611 240.59C252.502 240.849 252.472 241.135 252.526 241.411C252.58 241.687 252.714 241.941 252.912 242.141C253.111 242.34 253.364 242.477 253.639 242.532C253.915 242.588 254.201 242.56 254.461 242.453C254.721 242.346 254.944 242.164 255.1 241.93C255.256 241.696 255.34 241.422 255.34 241.14Z" fill="black"/>
<path d="M262.138 241.64C261.898 243.04 264.598 242.39 264.048 244.85C263.498 247.31 262.048 246.85 261.548 248.97C261.048 251.09 260.178 251.52 261.548 252.39C262.918 253.26 279.348 253.18 281.218 252.64C283.088 252.1 284.138 251.27 282.678 250.56C281.218 249.85 276.678 247.06 272.888 245.1C269.098 243.14 268.258 241.89 265.678 241.43C263.098 240.97 262.258 240.89 262.138 241.64Z" fill="#F7931E"/>
<path d="M350.78 278.73C350.28 281.15 348.28 283.23 349.2 284.4C350.12 285.57 348.86 287.32 353.62 286.4C358.43 285.458 363.303 284.873 368.2 284.65C373.45 284.4 374.04 284.23 378.45 284.15C382.86 284.07 386.12 284.07 389.04 282.69C391.681 281.586 394.218 280.247 396.62 278.69C399.79 276.61 400.21 276.27 401.21 274.94C402.21 273.61 402.79 272.61 399.79 273.44C396.79 274.27 387.87 275.69 383.21 276.36C378.55 277.03 377.62 277.27 372.21 278.36C366.8 279.45 360.63 280.73 356.46 279.88C352.29 279.03 350.78 278.73 350.78 278.73Z" fill="#F7931E"/>
<path d="M298.772 279.92C302.852 280.31 316.612 284.08 321.022 286.66C325.432 289.24 325.192 289.48 323.532 289.57C318.679 289.62 313.829 289.313 309.022 288.65C303.942 287.82 301.692 286.9 298.352 284.4C295.012 281.9 298.772 279.92 298.772 279.92Z" fill="#F2F2F2"/>
<path d="M325.279 249.89C329.609 249.56 331.859 248.64 336.359 249.39C340.859 250.14 343.299 249.47 348.959 251.56C354.619 253.65 355.029 253.23 361.029 256.64C364.018 258.203 366.817 260.105 369.369 262.31C370.869 263.48 369.949 264.81 367.449 264.81C364.949 264.81 358.949 264.64 355.449 263.39C351.949 262.14 343.949 259.39 339.279 257.89C334.609 256.39 335.359 256.23 329.609 255.23C323.859 254.23 320.269 254.79 320.939 253.05C321.609 251.31 325.279 249.89 325.279 249.89Z" fill="#F2F2F2"/>
<path d="M260.181 261.31C263.091 260.89 270.101 259.81 273.431 258.98C276.196 258.291 278.923 257.456 281.601 256.48C284.431 255.48 285.681 254.56 289.181 253.56C292.681 252.56 295.601 249.81 297.521 250.89C299.441 251.97 300.351 254.64 298.941 255.56C296.476 257.159 293.684 258.184 290.771 258.56C286.851 259.06 280.931 260.89 277.931 261.31C274.931 261.73 267.931 262.81 265.351 262.89C262.771 262.97 261.431 263.98 260.181 262.81C258.931 261.64 260.181 261.31 260.181 261.31Z" fill="#F2F2F2"/>
<path d="M246.789 260.5C247.169 258.73 246.669 258.28 248.559 256.67C250.449 255.06 249.679 253.93 253.559 253.05C257.439 252.17 259.449 252.17 260.219 252.5C260.989 252.83 260.329 253.95 259.889 254.28C259.449 254.61 256.889 255.67 256.609 257.62C256.329 259.57 256.499 259.62 257.219 260.84C257.939 262.06 257.829 263.38 256.999 263.84C255.294 264.375 253.493 264.539 251.719 264.32C250.279 264.1 247.159 264.26 247.049 262.82C246.939 261.38 246.789 260.5 246.789 260.5Z" fill="#F2F2F2"/>
<path d="M255 240.25L256.58 241.43C256.607 241.451 256.627 241.48 256.639 241.512C256.652 241.544 256.655 241.579 256.649 241.613C256.642 241.647 256.627 241.678 256.604 241.704C256.582 241.73 256.552 241.75 256.52 241.76L254.52 242.42L255 240.25Z" fill="black"/>
<path d="M356.367 284.75C358.197 283.9 361.947 281.98 365.117 281.9C368.287 281.82 367.027 280.06 370.787 281.9C372.506 282.818 374.32 283.546 376.197 284.07C373.321 284.45 370.427 284.676 367.527 284.75C364.197 284.73 356.367 284.75 356.367 284.75Z" fill="#CC7825"/>
<path d="M375.117 279.92C376.117 280.81 381.697 280.06 385.037 279.48C388.377 278.9 392.207 277.4 395.367 276.73C397.288 276.322 399.142 275.649 400.877 274.73" fill="#CC7825"/>
<path d="M293.001 93.9999C326.26 93.9999 353.221 78.9746 353.221 60.4399C353.221 41.9052 326.26 26.8799 293.001 26.8799C259.743 26.8799 232.781 41.9052 232.781 60.4399C232.781 78.9746 259.743 93.9999 293.001 93.9999Z" fill="#BDCCD4"/>
<path d="M258.742 67.4797C264.204 67.4797 268.632 63.0518 268.632 57.5897C268.632 52.1276 264.204 47.6997 258.742 47.6997C253.279 47.6997 248.852 52.1276 248.852 57.5897C248.852 63.0518 253.279 67.4797 258.742 67.4797Z" fill="white"/>
<path d="M263.171 55.9298C263.811 53.7498 262.521 52.2998 265.351 52.2998C268.181 52.2998 267.441 54.1798 270.751 57.5898C274.061 60.9998 275.751 62.1298 277.521 62.6998C279.291 63.2698 276.521 65.2798 273.411 65.1998C270.301 65.1198 262.771 66.4098 262.041 65.1998C261.311 63.9898 263.171 55.9298 263.171 55.9298Z" fill="#F7931E"/>
<path d="M325.783 51.6797H312.223C311.118 51.6797 310.223 52.5751 310.223 53.6797V70.2397C310.223 71.3443 311.118 72.2397 312.223 72.2397H325.783C326.887 72.2397 327.783 71.3443 327.783 70.2397V53.6797C327.783 52.5751 326.887 51.6797 325.783 51.6797Z" fill="#F2F2F2"/>
<path d="M310.223 52.1198C310.223 49.7912 311.148 47.558 312.794 45.9114C314.441 44.2649 316.674 43.3398 319.003 43.3398C321.331 43.3398 323.564 44.2649 325.211 45.9114C326.858 47.558 327.783 49.7912 327.783 52.1198C327.783 56.9998 310.223 56.9998 310.223 52.1198Z" fill="white"/>
<path d="M314.891 51.6599C316.057 51.6599 317.001 50.7153 317.001 49.5499C317.001 48.3846 316.057 47.4399 314.891 47.4399C313.726 47.4399 312.781 48.3846 312.781 49.5499C312.781 50.7153 313.726 51.6599 314.891 51.6599Z" fill="#CCCCCC"/>
<path d="M328.621 74.6797H330.051C330.515 74.6797 330.891 74.3036 330.891 73.8397V54.8497C330.891 54.3858 330.515 54.0097 330.051 54.0097H328.621C328.157 54.0097 327.781 54.3858 327.781 54.8497V73.8397C327.781 74.3036 328.157 74.6797 328.621 74.6797Z" fill="#F2F2F2"/>
<path d="M308.621 74.6797H310.051C310.515 74.6797 310.891 74.3036 310.891 73.8397V54.8497C310.891 54.3858 310.515 54.0097 310.051 54.0097H308.621C308.157 54.0097 307.781 54.3858 307.781 54.8497V73.8397C307.781 74.3036 308.157 74.6797 308.621 74.6797Z" fill="#F2F2F2"/>
<path d="M283.523 54.8896H297.843" stroke="white" stroke-miterlimit="10"/>
<path d="M294.532 58.9798L293.852 58.2498L297.462 54.8898L293.852 51.5298L294.532 50.7998L298.932 54.8898L294.532 58.9798Z" fill="white"/>
<path d="M298.932 65.8896H284.602" stroke="white" stroke-miterlimit="10"/>
<path d="M287.923 61.7998L288.603 62.5298L284.993 65.8898L288.603 69.2498L287.923 69.9798L283.523 65.8898L287.923 61.7998Z" fill="white"/>
<path d="M223.741 75.7799C222.271 74.7799 230.531 75.0399 232.191 70.8899C232.93 68.8388 233.939 66.8951 235.191 65.1099C235.982 66.9594 236.922 68.7418 238.001 70.4399C240.001 73.8499 232.631 81.8499 223.741 75.7799Z" fill="#BDCCD4"/>
<path d="M133.74 158.78C136.64 159.92 135.79 158.762 137.5 163.872C139 169.5 138 171 138 171C138 171 137.54 172.15 136.08 168.85C134.62 165.55 134.33 165.08 134.33 165.08C135.423 167.55 140.114 180.864 133.81 179C131.29 176.92 128.25 171.52 127.59 170.85C126.93 170.18 125 164.85 125 164.24C125 163.63 128.25 156.63 133.74 158.78Z" fill="#2E2420"/>
</g>
</g>
<defs>
<clipPath id="clip0_1019_684">
<rect width="992" height="315" rx="20" fill="white"/>
</clipPath>
<clipPath id="clip1_1019_684">
<rect width="1120" height="315" fill="white" transform="translate(-89)"/>
</clipPath>
</defs>
</svg>
