<svg class="group-hover:fill-black group-hover:stroke-yellow stroke-white group-hover:black" width="30" height="20" viewBox="0 0 30 20" fill="none" xmlns="http://www.w3.org/2000/svg">
<path d="M2.75 1.125H1.72957L1.7502 2.14522C1.85258 7.20777 3.13369 11.3934 5.59057 14.3308C8.07003 17.2952 11.6533 18.875 16.0941 18.875H16.5686H17.5686V17.875V13.4644C19.6323 14.0978 21.23 15.8648 21.9491 18.1725L22.168 18.875H22.9038H27.25H28.5515L28.2163 17.6174C27.1856 13.7514 24.809 11.2633 22.796 9.89214C24.6917 8.3233 26.7384 5.6782 27.3174 2.29361L27.5173 1.125H26.3317H22.3834H21.621L21.4191 1.86027C21.0341 3.26264 20.2654 4.61191 19.326 5.63114C18.7522 6.2538 18.1495 6.71722 17.5686 7.00885V2.125V1.125H16.5686H12.6203H11.6203V2.125V11.4905C9.92512 10.3628 8.0483 7.63586 7.94282 2.10593L7.92411 1.125H6.94301H2.75Z" stroke-width="2" /></svg>