<svg width="1035" height="1035" viewBox="0 0 1035 1035" fill="none" xmlns="http://www.w3.org/2000/svg">
<g clip-path="url(#clip0_1008_646)">
<path d="M483.045 285.065C504.141 267.251 530.55 259.929 581.968 251.192C633.386 242.455 658.234 220.501 695.148 233.212C732.062 245.923 790.401 293.877 795.869 331.456C801.336 369.036 787.599 374.374 793.443 398.455C799.288 422.537 813.762 453.454 796.168 485.941C778.575 518.427 780.557 527.144 756.077 567.226C731.597 607.307 729.362 593.418 714.127 621.123C698.892 648.828 688.395 646.231 665.984 686.212C643.573 726.192 624.982 748.877 600.56 758.367C576.139 767.857 568.116 773.434 542.573 791.792C517.03 810.151 493.463 794.714 461.07 810.815C428.677 826.917 440.193 818.576 410.361 834.034C380.528 849.492 364.809 846.113 335.817 825.757C306.824 805.4 259.842 777.629 247.929 746.067C236.015 714.506 219.813 680.044 231.829 639.535C243.845 599.026 239.165 598.737 244.106 572.573C249.048 546.408 259.754 521.517 276.378 501.002C293.002 480.488 290.036 472.856 309.221 451.698C328.405 430.54 333.021 418.908 353.189 396.665C373.357 374.421 378.175 366.927 397.815 355.079C417.455 343.23 414.793 341.805 438.166 321.479C461.539 301.153 466.118 299.373 483.045 285.065Z" fill="#A374DA"/>
<path d="M548.745 523.315C555.024 524.698 563.067 515.828 552.924 516.329C542.782 516.83 536.603 517.693 520.531 523.534C504.46 529.375 481.66 537.894 493.396 523.762C505.132 509.631 530.624 499.342 529.276 494.887C527.928 490.432 538.647 478.61 517.404 494.897C496.161 511.184 468.38 520.465 461.831 537.184C455.282 553.904 432.697 588.329 433.911 613.125C435.124 637.92 424.761 633.911 435.951 654.833C447.142 675.755 457.703 683.176 447.047 685.366C436.391 687.557 421.8 665.697 411.301 647.567C400.802 629.438 392.383 630.415 402.61 608.44C412.838 586.465 415.594 584.625 416.035 571.066C416.476 557.508 403.782 563.189 425.5 545.178C447.218 527.167 496.498 483.513 510.34 477.776C524.182 472.039 530.72 467.172 524.386 464.662C518.052 462.151 516.493 465.048 508.29 470.53C500.086 476.012 490.971 486.065 496.108 475.647C501.244 465.229 510.95 455.712 527.106 450.966C543.262 446.22 551.325 449.2 565.692 442.862C580.06 436.523 586.559 430.544 578.982 425.828C571.405 421.113 538.18 423.304 528.295 428.308C518.409 433.313 512.845 435.84 508.807 434.363C504.768 432.886 513.998 425.073 504.076 430.074C494.154 435.075 494.835 426.005 485.073 434.394C475.312 442.783 481.601 444.166 462.984 456.379C444.368 468.592 430.232 491.313 421.432 496.264C412.633 501.216 445.877 464.562 432.631 470.83C419.385 477.099 421.14 466.867 408.182 490.665C395.223 514.464 394.617 525.816 384.776 531.928C374.934 538.04 361.504 552.84 353.586 563.949C345.669 575.058 303.842 621.189 309.71 637.285C315.578 653.381 313.935 665.889 320.94 647.467C327.945 629.046 325.369 622.391 335.978 608.314C346.586 594.238 361.158 568.66 349.969 594.072C338.78 619.485 333.112 630.489 331.384 664.47C329.656 698.451 327.637 714.938 338.03 730.797C348.423 746.656 350.59 756.193 357.561 748.506C364.531 740.818 368.45 740.061 360.432 726.336C352.414 712.611 342.055 720.439 341.073 700.163C340.091 679.888 333.119 653.093 341.834 669.615C350.548 686.137 344.676 704.508 351.182 698.554C357.687 692.6 351.713 676.457 359.446 684.566C367.179 692.675 361.03 705.387 378.379 725.458C395.729 745.529 411.119 759.453 408.438 762.41C405.757 765.367 388.558 748.695 383.882 745.533C379.207 742.371 370.562 738.833 371.54 747.262C372.517 755.691 369.45 750.755 365.697 754.894C361.944 759.034 367.757 774.002 379.734 776.242C391.711 778.481 400.946 782.545 415.068 782.42C429.19 782.294 458.1 784.861 462.298 777.854C466.497 770.846 459.657 770.071 447.801 770.086C435.945 770.101 422.514 773.019 418.209 765.883C413.904 758.747 407.129 747.216 415.022 746.83C422.915 746.444 423.561 748.108 438.595 755.284C453.629 762.46 458.364 766.744 467.247 764.023C476.13 761.302 484.896 755.253 488.981 757.879C493.065 760.504 490.81 760.615 485.989 765.931C481.168 771.248 481.269 773.514 485.248 773.879C489.227 774.245 495.59 766.027 504.981 761.611C514.372 757.196 530.042 754.174 529.306 762.117C528.569 770.059 514.498 771.318 505.162 776.861C495.827 782.403 486.566 800.935 474.113 800.409C461.66 799.883 458.688 785.346 451.884 796.416C445.079 807.486 443.104 813.228 437.191 807.866C431.278 802.505 423.32 789.901 422.562 797.835C421.804 805.768 427.468 817.368 417.691 813.891C407.914 810.414 410.861 801.233 400.292 804.57C389.723 807.908 385.839 797.931 370.58 786.25C355.321 774.569 355.561 756.479 346.932 764.808C338.303 773.136 335.246 780.072 328.36 766.286C321.475 752.501 321.88 737.783 315.182 727.399C308.483 717.016 298.093 712.982 303.941 705.345C309.789 697.707 314.99 700.278 304.832 688.913C294.674 677.547 295.205 676.951 296.483 668.422C297.761 659.893 297.926 663.266 296.407 655.423C294.888 647.581 306.965 640.214 294.232 634.055C281.498 627.897 274.502 611.856 284.7 612.493C294.898 613.129 298.341 614.086 301.282 604.9C304.223 595.714 308.618 593.244 307.049 584.279C305.48 575.314 299.146 572.803 298.295 578.496C297.443 584.189 296.901 584.775 296.701 592.126C296.501 599.478 288.177 602.716 286.238 597.724C284.298 592.733 287.234 583.543 287.335 573.946C287.436 564.35 287.259 560.947 293.919 558.366C300.579 555.785 303.476 557.333 308.682 548.026C313.888 538.72 309.959 539.487 315.1 529.064C320.242 518.64 325.283 517.834 332.955 512.937C340.627 508.041 339.449 506.963 340.126 497.899C340.802 488.834 343.82 468.933 361.915 458.452C380.009 447.97 411.42 431.175 422.59 428.363C433.76 425.551 449.946 410.076 461.1 407.27C472.255 404.464 506.441 386.973 515.402 385.41C524.362 383.846 519.651 391.408 512.515 395.713C505.379 400.017 466.319 408.72 471.764 416.889C477.208 425.058 518.117 394.277 509.002 404.33C499.886 414.383 472.631 423.063 471.248 429.342C469.865 435.62 481.18 436.202 496.414 424.155C511.648 412.107 522.383 400.311 521 406.589C519.617 412.868 502.073 423.898 516.395 416.422C530.717 408.945 536.56 401.312 541.496 398.245C546.432 395.178 551.258 389.856 540.148 393.79C529.038 397.725 512.556 395.7 529.835 390.904C547.113 386.108 566.11 381.783 574.263 375.168C582.416 368.553 576.032 364.909 566.637 369.33C557.241 373.751 553.918 375.038 553.918 375.038C549.553 366.77 541.434 362.641 555.987 359.674C570.54 356.706 557.926 364.665 573.216 353.755C588.505 342.845 599.349 345.125 610.083 345.17C620.817 345.215 625.001 338.224 622.951 330.978C620.901 323.732 624.169 321.316 639.418 321.135C654.667 320.954 649.621 321.766 665.451 322.122C681.281 322.478 684.294 314.424 695.258 330.831C706.222 347.237 699.358 345.323 705.492 355.195C711.626 365.067 709.831 351.587 719.332 349.427C728.834 347.267 729.625 340.452 738.787 354.136C747.949 367.821 755.637 374.802 755.16 400.23C754.682 425.657 746.436 418.17 749.152 438.941C751.869 459.712 749.028 471.153 744.808 488.868C740.589 506.582 727.505 516.27 720.33 531.314C713.154 546.358 719.924 546.021 722.179 545.911C724.435 545.801 728.464 547.299 722.51 552.676C716.557 558.053 715.044 550.216 699.184 572.461C683.324 594.706 676.629 608.031 673.988 600.249C671.347 592.466 682.326 574.416 692.458 562.053C702.591 549.69 716.526 534.32 710.723 531.213C704.92 528.107 674.728 557.829 667.939 568.904C661.15 579.978 675.566 574.741 663.77 587.751C651.974 600.761 649.879 592.386 643.344 609.089C636.81 625.792 643.47 623.211 629.093 629.56C614.716 635.91 607.443 637.935 611.102 631.566C614.762 625.196 618.98 619.313 610.235 625.392C601.491 631.471 588.131 635.51 598.263 623.147C608.396 610.784 620.147 608.519 639.555 589.491C658.963 570.463 657.93 560.906 665.101 545.867C672.271 530.829 682.033 522.44 680.756 530.979C679.478 539.518 672.498 547.216 678.692 546.338C684.886 545.459 688.784 544.714 701.207 521.507C713.629 498.3 714.344 466.613 718.164 475.484C721.983 484.354 724.779 483.637 729.589 466.448C734.399 449.259 731.112 439.823 726.822 444.554C722.533 449.285 715.512 455.84 712.662 467.302C709.811 478.764 705.236 488.575 707.836 472.624C710.436 456.674 714.681 450.815 713.959 436.162C713.236 421.51 712.545 418.718 706.234 405.433C699.922 392.148 701.784 394.924 698.867 381.504C695.95 368.084 699.984 357.704 690.729 353.652C681.473 349.599 673.861 343.745 676.662 354.905C679.463 366.065 697.63 379.304 689.759 379.71C681.888 380.116 694.805 378.898 669.513 369.963C644.221 361.029 640.553 355.567 625.364 356.87C610.175 358.174 604.683 349.981 610.18 358.178C615.678 366.376 639.391 366.356 644.878 374.564C650.366 382.773 655.627 386.466 662.033 401.981C668.438 417.496 660.855 412.776 655.969 405.103C651.083 397.431 649.333 385.089 640.318 385.525C631.303 385.961 626.395 378.268 619.851 383.11C613.306 387.951 622.116 382.988 617.395 390.571C612.675 398.154 612.961 403.78 604.035 394.61C595.11 385.44 597.626 379.111 585.338 381.967C573.051 384.824 560.373 379.803 564.727 388.062C569.082 396.32 590.45 394.145 601.575 402.077C612.7 410.009 632.912 406.765 643.053 429.988C653.195 453.211 656.349 459.284 654.425 466.159C652.501 473.035 636.885 430.86 627.549 436.403C618.214 441.946 635.295 468.199 638.77 481.048C642.245 493.896 644.083 520.335 632.758 519.764C621.433 519.193 611.501 536.078 604.997 552.759C598.492 569.439 603.398 566.394 589.407 580.637C575.416 594.879 588.13 589.176 565.544 601.013C542.959 612.85 513.188 627.869 506.503 606.732C499.817 585.595 500.908 573.654 509.487 564.192C509.487 564.192 519.118 541.687 524.605 549.895C530.093 558.103 520.07 572.711 517.129 581.897C514.188 591.082 514.263 604.071 529.988 602.166C545.713 600.262 542.827 610.585 554.513 595.321C566.199 580.056 563.087 585.864 567.527 572.65C571.966 559.435 570.392 550.475 578.656 546.115C586.919 541.755 584.774 544.12 592.331 536.974C599.888 529.829 588.638 542.236 584.254 556.578C579.869 570.921 575.143 566.626 581.654 572.529C588.164 578.432 597.474 561.023 600.36 550.71C603.246 540.396 608.824 538.998 606.072 528.961C603.321 518.923 604.493 508.134 590.295 507.113C576.096 506.091 578.744 502.027 571.237 510.306C563.73 518.584 556.655 524.011 566.968 526.898C577.281 529.784 581.085 526.777 578.093 534.83C575.102 542.883 565.105 546.778 563.306 555.892C561.507 565.007 565.997 564.797 562.846 569.483C559.694 574.168 559.739 575.286 558.927 570.24C558.115 565.193 559.132 562.883 555.324 565.895C551.515 568.907 558.501 573.086 551.52 568.912C544.54 564.738 549.952 559.947 544.535 564.733C539.118 569.519 538.531 568.977 536.828 580.363C535.124 591.748 541.995 593.667 536.948 594.479C531.902 595.291 521.864 598.033 523.518 585.535C525.172 573.037 525.862 563.935 531.966 561.957C538.07 559.979 537.178 564.528 542.009 559.2C546.839 553.872 544.579 553.988 541.512 549.052C538.445 544.116 535.865 537.466 540.635 531.017C545.405 524.567 548.745 523.315 548.745 523.315Z" fill="#A071EA"/>
<path d="M629.111 250.44C643.34 244.559 644.512 236.725 668.947 238.122C693.383 239.519 700.371 233.992 724.936 259.231C749.501 284.471 751.455 271.414 765.625 296.125C779.795 320.836 770.297 328.04 779.773 341.575C789.249 355.109 769.775 380.948 782.267 403.149C794.759 425.349 794.672 434.167 793.312 448.751C791.952 463.334 777.541 518.477 760.526 541.603C743.512 564.728 761.032 551.947 741.797 572.071C722.562 592.195 736.676 573.358 720.153 595.942C703.631 618.525 707.768 618.323 692.57 636.175C677.371 654.028 661.782 674.492 654.035 664.502C646.287 654.511 634.178 661.325 657.942 638.388C681.705 615.45 687.094 630.222 696.412 598.14C705.73 566.059 698.539 567.447 722.983 537.218C747.427 506.989 768.629 484.695 757.149 483.183C745.67 481.67 752.795 468.36 725.993 503.371C699.191 538.382 698.41 543.605 681.468 547.026C664.527 550.447 642.818 562.397 661.358 538.678C679.899 514.958 678.156 500.527 695.93 492.918C713.703 485.308 729.9 477.257 739.42 449.314C748.941 421.37 753.629 390.033 741.441 374.039C729.252 358.045 763.244 321.645 744.27 315.315C725.296 308.985 736.487 315.178 711.798 308.609C687.11 302.04 711.205 307.082 680.686 287.319C650.168 267.556 662.002 276.309 638.536 262.94C615.07 249.571 629.111 250.44 629.111 250.44Z" fill="#A784D8"/>
<path d="M323.804 453.056C342.193 426.234 331.278 404.474 362.209 400.887C393.141 397.3 374.572 399.246 394.01 383.259C413.447 367.273 408.087 374.275 418.164 357.71C428.241 341.145 425.767 332.971 447.968 320.479C470.169 307.987 474.582 292.217 490.489 288.847C506.396 285.476 513.232 276.847 510.837 291.48C508.443 306.114 510.613 308.082 516.87 308.813C523.127 309.543 542.933 311.685 516.985 321.768C491.037 331.852 484.499 304.175 465.379 337.254C446.259 370.334 448.444 383.188 428.804 395.037C409.164 406.885 400.888 407.29 393.133 428.926C385.378 450.562 382.354 473.522 357.983 484.047C333.612 494.571 324.15 491.923 319.122 526.906C314.093 561.888 298.215 587.032 289.549 590.048C280.882 593.065 267.927 593.18 268.933 571.356C269.939 549.532 261.36 543.73 283.988 518.774C306.615 493.818 305.241 497.515 314.522 475.285L323.804 453.056Z" fill="#A784D8"/>
<path d="M240.951 645.828C254.516 626.801 242.143 691.394 261.348 723.635C280.553 755.877 266.7 748.259 302.796 776.045C338.892 803.831 328.345 800.199 358.068 814.299C387.791 828.398 404.682 823.943 403.46 830.742C402.237 837.542 405.203 845.174 379.429 837.621C353.655 830.068 323.44 816.511 299.96 792.256C276.48 768.001 242.177 755.681 241.997 730.804C241.817 705.927 220.962 692.949 227.835 674.467C234.708 655.985 233.673 656.035 240.951 645.828Z" fill="#A784D8"/>
<path d="M375.188 644.962C374.754 614.913 360.157 602.666 376.151 590.478C392.145 578.289 404.516 545.021 406.121 567.236C407.727 589.451 399.075 603.354 404.376 626.944C409.678 650.533 412.557 666.983 441.65 689.408C470.744 711.834 491.801 728.949 470.165 721.194C448.529 713.439 414.263 691.267 406.654 673.493C399.044 655.72 388.585 643.27 386.834 660.465C385.083 677.659 373.884 703.093 374.536 674.028L375.188 644.962Z" fill="#A784D8"/>
<path d="M622.851 323.847C606.532 318.797 634.795 303.043 659.852 327.74C684.909 352.437 695.254 351.931 696.114 369.516C696.974 387.101 687.274 390.168 685.784 380.909C684.294 371.65 682.261 361.898 667.715 350.686C653.168 339.473 650.745 332.333 638.773 331.363C626.801 330.394 634.433 327.428 622.851 323.847Z" fill="#A784D8"/>
<path d="M488.541 344.417C505.23 335.823 503.313 339.028 518.967 330.485C534.621 321.943 541.168 317.993 536.552 329.625C533.091 338.349 531.102 347.291 535.78 346.58C537.334 346.338 539.639 345.027 542.874 342.277C555.816 331.275 557.682 327.036 565.278 333.922C572.873 340.809 578.436 337.945 567.802 343.131C557.168 348.317 523.943 368.607 527.105 337.864C527.105 337.864 523.119 341.17 507.754 345.032C492.39 348.895 488.541 344.417 488.541 344.417Z" fill="#A784D8"/>
<path d="M439.755 406.946C423.761 419.134 398.544 422.96 413.279 427.424C428.014 431.887 434.952 425.327 438.207 428.278C441.462 431.229 446.395 436.691 423.941 444.011C401.487 451.331 393.248 441.884 399.101 434.339C404.953 426.794 399.072 412.565 416.998 408.059C434.923 403.553 439.755 406.946 439.755 406.946Z" fill="#A784D8"/>
<path d="M601.084 366.389C617.042 364.053 612.044 346.67 642.02 365.942C671.996 385.213 681.357 385.792 684.336 404.311C687.316 422.829 681.5 420.521 674.498 415.161C667.496 409.801 669.298 393.64 643.575 387.122C617.851 380.604 608.44 378.99 603.558 374.563C598.675 370.136 601.084 366.389 601.084 366.389Z" fill="#A784D8"/>
<path d="M467.12 425.826C469.657 424.489 472.085 423.141 474.451 421.807C486.236 415.133 496.361 408.665 509.113 404.589C524.427 399.692 511.03 401.384 530.33 393.181C549.63 384.979 540.826 395.779 558.397 384.031C575.968 372.284 584.294 372.914 576.474 382.629C568.654 392.343 560.227 389.645 546.591 397.052C532.955 404.459 538.316 397.457 520.115 417.53C501.914 437.603 478.794 463.102 478.288 452.757C477.782 442.413 508.888 421.19 501.546 419.475C494.204 417.761 467.12 425.826 467.12 425.826Z" fill="#A784D8"/>
<path d="M642.147 463.924C639.421 450.578 634.864 431.618 622.313 440.009C609.762 448.399 613.56 451.843 619.694 471.244C625.827 490.645 622.803 513.605 629.198 506.552C635.593 499.499 639.289 500.874 633.85 485.068C628.41 469.262 617.459 457.355 625.785 457.985C634.111 458.614 642.147 463.924 642.147 463.924Z" fill="#A784D8"/>
<path d="M439.634 616.406C442.948 588.766 434.521 586.067 448.142 567.774C461.764 549.48 465.207 545.682 462.219 558.79C459.232 571.897 448.193 568.808 454.189 595.993C460.185 623.177 452.843 621.463 472.309 627.25C491.775 633.038 508.969 634.789 499.912 640.416C490.856 646.044 501.945 650.168 477.307 644.633C452.669 639.099 454.549 645.747 447.092 631.076L439.634 616.406Z" fill="#A784D8"/>
<path d="M466.286 504.153C474.244 486.655 458.778 488.448 481.774 481.62C504.771 474.792 492.951 476.926 514.508 461.873C536.065 446.82 565.405 431.905 550.055 446.654C534.704 461.403 506.977 466.907 526.255 479.444C545.532 491.981 547.312 496.56 535.846 505.934C524.38 515.309 518.803 507.287 504.892 530.261C490.981 553.235 481.005 571.869 483.248 554.131C485.491 536.394 493.702 524.068 484.254 532.307C474.807 540.546 468.954 548.091 468.296 534.643C467.638 521.196 466.286 504.153 466.286 504.153Z" fill="#A784D8"/>
<path d="M489.813 677.722C505.002 671.011 522.032 679.256 551.612 658.626C581.191 637.996 574.999 649.187 586.703 634.097C598.408 619.008 599.479 609.105 605.056 617.127C610.633 625.15 625.014 622.372 605.034 637.867C585.054 653.361 580.135 658.786 560.835 666.989C541.535 675.191 512.585 687.495 500.664 687.56C488.742 687.625 470.021 686.467 489.813 677.722Z" fill="#A784D8"/>
<path d="M545.909 743.412C529.648 739.542 511.658 732.127 526.921 726.195C542.185 720.264 537.468 729.827 545.476 713.363C553.484 696.899 544.377 701.493 562.693 694.375C581.009 687.257 580.568 688.834 596.714 679.749C612.86 670.664 616.202 664.797 620.68 660.949C625.157 657.101 639.285 649.151 617.425 657.998C595.564 666.844 570.159 677.419 593.734 661.231C617.309 645.042 626.619 644.587 646.158 630.669C665.697 616.752 656.763 603.709 671.498 608.173C686.233 612.637 694.385 630.902 671.114 653.297C647.842 675.692 643.443 702.349 618.971 710.804C594.499 719.26 590.904 719.954 573.724 729.09C556.543 738.226 545.909 743.412 545.909 743.412Z" fill="#A784D8"/>
<path d="M327.401 643.154C333.236 622.318 328.306 619.261 344.489 600.324C360.671 581.386 369.048 583.05 359.072 601.684C349.096 620.318 347.57 620.911 342.072 635.697C336.574 650.482 324.312 654.193 327.401 643.154Z" fill="#A784D8"/>
<path d="M511.077 550.696C519.83 538.862 529.061 515.599 534.941 529.828C540.822 544.057 532.546 544.461 535.02 552.636C537.494 560.81 542.528 568.34 532.474 564.166C522.419 559.992 519.909 561.67 514.585 558.82C513.123 558.111 511.965 556.901 511.321 555.41C510.677 553.919 510.59 552.246 511.077 550.696Z" fill="#A784D8"/>
<path d="M533.03 575.546C540.12 572.088 521.55 574.033 543.273 572.971C564.997 571.908 557.604 569.159 568.339 566.041C579.074 562.924 585.294 573.507 573.727 580.813C562.16 588.119 551.83 599.511 541.031 590.708C530.231 581.904 533.03 575.546 533.03 575.546Z" fill="#A784D8"/>
<path d="M545.575 524.642C551.34 525.915 558.719 517.777 549.409 518.233C540.099 518.688 534.435 519.484 519.664 524.873C504.892 530.261 484.015 538.023 494.787 525.053C505.558 512.083 528.945 502.643 527.708 498.556C526.471 494.469 536.31 483.619 516.821 498.57C497.333 513.522 471.827 522.028 465.837 537.357C459.847 552.685 439.1 584.289 440.213 607.046C441.326 629.804 431.814 626.121 442.086 645.32C452.357 664.519 462.021 671.304 452.27 673.337C442.519 675.369 429.093 655.288 419.466 638.65C409.838 622.012 402.105 622.909 411.488 602.749C420.871 582.588 423.381 580.91 423.808 568.446C424.235 555.983 412.567 561.219 432.496 544.691C452.426 528.162 497.645 488.103 510.348 482.815C523.05 477.528 529.054 473.086 523.239 470.779C517.423 468.471 515.998 471.133 508.467 476.167C500.937 481.202 492.574 490.425 497.291 480.862C502.007 471.299 510.912 462.568 525.735 458.214C540.557 453.859 547.949 456.608 561.144 450.778C574.339 444.948 580.292 439.472 573.341 435.146C566.389 430.82 535.899 432.83 526.791 437.424C517.684 442.017 512.613 444.339 508.916 442.964C505.22 441.59 513.684 434.436 504.576 439.029C495.469 443.622 496.098 435.296 487.143 442.993C478.187 450.689 483.952 451.962 466.873 463.167C449.794 474.372 436.816 495.226 428.743 499.769C420.67 504.312 451.169 470.675 439.008 476.455C426.848 482.234 428.462 472.823 416.569 494.662C404.676 516.5 404.148 526.895 395.091 532.523C386.034 538.15 373.736 551.713 366.459 561.92C359.181 572.127 320.812 614.443 326.201 629.215C331.59 643.986 330.078 655.466 336.509 638.561C342.94 621.656 340.568 615.55 350.305 602.631C360.042 589.712 373.41 566.246 363.145 589.56C352.88 612.874 347.671 622.98 346.086 654.164C344.501 685.349 342.649 700.475 352.175 715.044C361.702 729.613 363.684 738.33 370.078 731.277C376.473 724.224 380.068 723.53 372.712 710.929C365.356 698.327 355.857 705.532 354.947 686.912C354.036 668.292 347.649 643.719 355.649 658.881C363.649 674.043 358.252 690.898 364.206 685.422C370.159 679.946 364.771 665.175 371.874 672.604C378.977 680.033 373.327 691.716 389.263 710.119C405.198 728.522 419.304 741.312 416.844 744.024C414.385 746.737 398.601 731.437 394.312 728.536C390.022 725.635 382.087 722.394 382.983 730.127C383.88 737.86 381.066 733.332 377.623 737.129C374.18 740.927 379.518 754.664 390.506 756.719C401.494 758.773 409.972 762.506 422.928 762.391C435.883 762.276 462.438 764.605 466.272 758.196C470.106 751.787 463.849 751.057 452.962 751.071C442.076 751.085 429.764 753.761 425.814 747.215C421.865 740.668 415.644 730.085 422.885 729.73C430.126 729.376 430.719 730.903 444.521 737.486C458.323 744.069 462.663 748.004 470.837 745.53C479.011 743.057 487.034 737.479 490.781 739.888C494.528 742.297 492.459 742.399 488.032 747.281C483.605 752.164 483.706 754.233 487.352 754.573C490.998 754.913 496.85 747.368 505.465 743.318C514.081 739.267 528.462 736.49 527.782 743.781C527.101 751.073 514.196 752.223 505.631 757.308C497.066 762.393 488.566 779.399 477.137 778.921C465.708 778.444 462.981 765.097 456.738 775.253C450.495 785.409 448.679 790.683 443.254 785.764C437.829 780.845 430.523 769.278 429.843 776.569C429.162 783.861 434.349 794.495 425.379 791.304C416.409 788.114 419.108 779.687 409.407 782.754C399.706 785.821 396.148 776.662 382.143 765.942C368.139 755.221 368.364 738.619 360.443 746.265C352.521 753.911 349.722 760.27 343.4 747.617C337.078 734.965 337.454 721.467 331.284 711.919C325.114 702.37 315.602 698.688 320.962 691.685C326.323 684.683 331.104 687.042 321.78 676.61C312.456 666.179 312.948 665.636 314.12 657.802C315.292 649.968 315.444 653.071 314.055 645.881C312.666 638.691 323.741 631.927 312.059 626.277C300.377 620.628 293.953 605.907 303.314 606.486C312.674 607.065 315.828 607.947 318.527 599.52C321.225 591.093 325.262 588.821 323.822 580.596C322.383 572.372 316.567 570.064 315.786 575.287C315.004 580.509 314.512 581.052 314.324 587.801C314.136 594.55 306.504 597.516 304.725 592.937C302.945 588.358 305.644 579.93 305.731 571.113C305.818 562.295 305.666 559.191 311.772 556.819C317.877 554.446 320.539 555.871 325.306 547.343C330.073 538.814 326.478 539.509 331.195 529.946C335.912 520.383 340.541 519.638 347.58 515.146C354.618 510.654 353.533 509.67 354.163 501.344C354.792 493.018 357.527 474.738 374.165 465.111C390.803 455.483 419.601 440.076 429.844 437.501C440.087 434.926 454.946 420.719 465.189 418.144C475.432 415.569 506.791 399.518 515.016 398.079C523.24 396.64 518.915 403.591 512.368 407.541C505.821 411.49 469.92 419.468 474.954 426.998C479.989 434.529 517.489 406.253 509.127 415.476C500.764 424.699 475.75 432.663 474.477 438.428C473.203 444.193 483.598 444.721 497.574 433.669C511.55 422.616 521.388 411.765 520.115 417.531C518.842 423.296 502.746 433.416 515.89 426.551C529.034 419.687 534.395 412.684 538.923 409.871C543.451 407.057 547.879 402.174 537.686 405.783C527.494 409.393 512.368 407.541 528.224 403.136C544.081 398.731 561.514 394.767 568.994 388.698C576.474 382.629 570.608 379.287 561.992 383.338C553.377 387.388 550.324 388.575 550.324 388.575C546.324 380.994 538.88 377.21 552.227 374.483C565.573 371.757 554.006 379.062 568.033 369.044C582.059 359.026 592.013 361.131 601.865 361.167C611.718 361.204 615.552 354.795 613.671 348.147C611.791 341.499 614.793 339.278 628.783 339.112C642.773 338.946 638.143 339.691 652.676 340.017C667.208 340.343 669.957 332.95 680.026 348.011C690.096 363.072 683.788 361.307 689.415 370.364C695.043 379.42 693.401 367.058 702.118 365.076C710.835 363.094 711.566 356.837 719.956 369.388C728.347 381.939 735.4 388.333 734.987 411.684C734.574 435.035 726.979 428.148 729.467 447.209C731.955 466.27 729.357 476.766 725.487 493.028C721.616 509.289 709.608 518.172 703.025 531.974C696.442 545.775 702.649 545.472 704.717 545.371C706.786 545.269 710.483 546.644 705.021 551.577C699.559 556.51 698.171 549.32 683.616 569.733C669.061 590.147 662.919 602.372 660.496 595.232C658.073 588.092 668.15 571.527 677.446 560.185C686.741 548.842 699.531 534.737 694.207 531.887C688.883 529.036 661.184 556.314 654.941 566.47C648.698 576.626 661.943 571.831 651.121 583.766C640.299 595.702 638.368 588.019 632.378 603.347C626.388 618.676 632.494 616.303 619.299 622.133C606.105 627.963 599.457 629.844 602.799 623.977C606.141 618.111 610.026 612.736 602.003 618.313C593.981 623.89 581.72 627.601 591.015 616.259C600.311 604.916 611.097 602.833 628.907 585.371C646.717 567.91 645.769 559.142 652.352 545.34C658.935 531.538 667.891 523.842 666.719 531.676C665.547 539.51 659.152 546.563 664.816 545.767C670.48 544.972 674.075 544.278 685.476 522.982C696.877 501.686 697.529 472.62 701.037 480.744C704.545 488.868 707.106 488.224 711.519 472.454C715.932 456.685 712.916 448.019 708.981 452.359C705.045 456.699 698.6 462.717 696.003 473.214C693.405 483.71 689.181 492.73 691.575 478.096C693.97 463.462 697.855 458.088 697.197 444.64C696.539 431.193 695.895 428.632 690.116 416.472C684.336 404.312 686.015 406.822 683.338 394.51C680.662 382.198 684.344 372.686 675.867 368.953C667.389 365.22 660.386 359.859 662.961 370.103C665.536 380.346 682.203 392.492 674.962 392.846C667.721 393.2 679.591 392.101 656.378 383.904C633.165 375.708 629.809 370.688 615.87 371.888C601.93 373.088 596.896 365.558 601.93 373.088C606.965 380.619 628.738 380.591 633.773 388.121C638.807 395.652 643.639 399.044 649.52 413.273C655.401 427.502 648.449 423.176 643.957 416.138C639.465 409.099 637.874 397.771 629.599 398.176C621.323 398.581 616.831 391.542 610.827 395.984C604.823 400.425 612.896 395.882 608.57 402.834C604.244 409.785 604.497 414.958 596.309 406.545C588.12 398.131 590.428 392.316 579.15 394.941C567.873 397.567 556.241 392.951 560.241 400.532C564.241 408.113 583.845 406.117 594.051 413.395C604.258 420.672 622.777 417.692 632.115 439.011C641.453 460.329 644.318 465.892 642.552 472.199C640.787 478.507 626.451 439.806 617.886 444.891C609.321 449.976 625.018 474.094 628.186 485.864C631.354 497.633 633.06 521.917 622.665 521.389C612.271 520.86 603.177 536.34 597.187 551.668C591.197 566.997 595.726 564.183 582.885 577.254C570.045 590.325 581.713 585.088 560.988 595.953C540.263 606.817 512.941 620.597 506.807 601.196C500.674 581.795 501.694 570.857 509.564 562.177C509.564 562.177 518.405 541.525 523.439 549.055C528.474 556.586 519.279 569.997 516.581 578.424C513.882 586.851 513.947 598.773 528.379 597.03C542.81 595.287 540.162 604.748 550.883 590.744C561.604 576.74 558.753 582.064 562.826 569.94C566.899 557.816 565.46 549.592 573.041 545.591C580.622 541.591 578.655 543.761 585.592 537.201C592.529 530.64 582.199 542.033 578.177 555.191C574.155 568.349 569.814 564.414 575.782 569.825C581.75 575.236 590.301 559.264 592.948 549.802C595.596 540.34 600.718 539.053 598.193 529.844C595.669 520.636 596.74 510.733 583.734 509.814C570.727 508.894 573.136 505.147 566.249 512.743C559.363 520.338 552.867 525.322 562.328 527.97C571.79 530.618 575.284 527.854 572.535 535.247C569.786 542.64 560.628 546.199 558.964 554.575C557.3 562.952 561.438 562.75 558.537 567.039C555.636 571.329 555.687 572.363 554.942 567.734C554.197 563.104 555.13 560.984 551.636 563.748C548.142 566.511 554.551 570.345 548.142 566.511C541.733 562.677 546.703 558.286 541.733 562.677C536.763 567.068 536.221 566.576 534.658 577.021C533.095 587.467 539.403 589.232 534.773 589.977C530.144 590.722 520.935 593.246 522.447 581.766C523.959 570.286 524.589 561.96 530.202 560.13C535.816 558.3 534.984 562.489 539.411 557.606C543.838 552.723 541.769 552.824 538.956 548.296C536.142 543.768 533.769 537.662 538.146 531.745C542.522 525.828 545.575 524.642 545.575 524.642Z" fill="#9C65EA"/>
<path d="M603.523 575.208C611.937 567.02 630.123 536.06 641.423 512.695C652.723 489.33 647.283 473.524 656.391 468.931C665.498 464.338 669.788 467.239 669.158 475.565C668.529 483.891 662.235 493.012 648.476 519.09C634.716 545.167 633.356 559.75 620.906 570.21C608.457 580.67 604.42 582.941 600.774 582.601C597.129 582.261 603.523 575.208 603.523 575.208Z" fill="#9C65EA"/>
<path d="M482.408 589.947C479.341 580.246 480.058 563.102 487.689 560.136C495.321 557.171 487.667 580.876 489.852 593.73C492.036 606.585 482.408 589.947 482.408 589.947Z" fill="#9C65EA"/>
<path d="M367.044 595.072C371.76 585.509 370.119 573.147 378.973 563.382C387.827 553.616 387.625 549.478 394.714 546.021C401.803 542.563 401.601 538.426 405.941 542.361C410.281 546.296 415.063 548.654 407.243 558.369C399.423 568.084 389.346 584.649 381.475 593.329C373.605 602.01 367.044 595.072 367.044 595.072Z" fill="#9C65EA"/>
<path d="M407.457 647.532C410.336 663.982 408.13 671.866 426.322 683.419C444.515 694.972 441.007 686.848 455.705 701.164C470.404 715.48 476.56 714.142 468.979 718.142C461.398 722.142 454.989 718.308 443.155 709.555C431.32 700.802 410.024 689.401 405.721 675.613C401.417 661.826 400.115 645.817 394.212 652.328C388.309 658.838 378.269 665.55 387.795 680.12C397.322 694.689 399.202 701.336 414.733 711.464C430.264 721.592 439.335 726.851 456.088 730.179C472.841 733.507 488.22 740.531 495.7 734.462C503.18 728.393 497.516 729.189 510.067 720.798C522.617 712.407 532.419 711.409 527.537 706.982C522.654 702.555 503.896 711.249 487.483 704.276C471.07 697.302 467.084 700.608 454.556 688.259C442.027 675.911 442.316 671.231 430.041 664.054C417.765 656.878 414.952 652.35 412.138 647.821C409.324 643.293 407.457 647.532 407.457 647.532Z" fill="#9C65EA"/>
<path d="M484.7 647.382C481.191 639.259 475.513 629.167 487.89 638.412C500.267 647.657 490.414 647.621 510.22 649.763C530.026 651.904 539.778 649.872 540.421 652.433C541.065 654.994 530.569 652.396 534.518 658.943C538.468 665.49 538.468 665.49 550.035 658.184C561.602 650.878 571.592 643.131 563.721 651.811C555.851 660.492 545.911 669.273 533.158 673.526C520.405 677.779 511.348 683.407 497.155 679.435C482.963 675.464 470.485 664.15 478.167 662.218C485.85 660.287 498.378 672.636 496.888 663.376C495.398 654.117 484.7 647.382 484.7 647.382Z" fill="#9C65EA"/>
<path d="M493.17 682.741C508.346 685.628 518.502 691.871 538.634 679.48C558.766 667.089 568.908 662.445 576.438 657.411C583.969 652.376 584.562 653.902 581.661 658.192C578.76 662.481 564.972 666.785 581.371 662.872C597.77 658.959 597.481 663.639 606.234 651.805C614.987 639.971 621.534 636.021 626.894 629.019C632.255 622.017 638.953 621.171 633.05 627.681C627.147 634.191 622.973 644.246 612.39 650.467C601.807 656.688 593.835 663.299 587.339 668.283C580.843 673.267 578.485 678.048 567.41 684.812C556.335 691.575 546.243 697.253 541.172 699.575C536.101 701.897 535.118 702.982 522.111 702.063C509.105 701.144 504.425 700.855 500.085 696.919C495.744 692.984 515.601 696.16 521.757 694.822C527.913 693.484 519.688 694.923 510.718 691.733C501.749 688.543 493.17 682.741 493.17 682.741Z" fill="#9C65EA"/>
<path d="M523.111 637.726C525.706 628.453 529.897 628.062 538.273 629.726C546.65 631.39 548.227 631.831 544.784 635.629C541.34 639.426 533.81 644.461 529.079 643.137C524.348 641.813 521.787 642.457 523.111 637.726Z" fill="#9C65EA"/>
<path d="M565.024 328.751C568.804 319.219 566.247 321.951 581.865 323.261C597.483 324.571 604.622 322.148 610.879 322.879C617.137 323.609 620.934 327.053 614.286 328.933C607.639 330.814 605.519 329.881 590.545 331.132C575.571 332.383 562.717 334.567 565.024 328.751Z" fill="#9C65EA"/>
<path d="M685.265 285.539C687.653 277.018 681.2 266.037 694.359 270.059C707.517 274.082 710.822 278.068 709.26 288.513C707.697 298.959 708.529 294.77 711.053 303.979C713.578 313.188 717.527 319.734 707.371 313.491C697.215 307.248 697.794 297.888 691.486 296.123C690.367 295.864 689.312 295.38 688.387 294.7C687.461 294.02 686.683 293.158 686.101 292.168C685.519 291.178 685.145 290.079 685.001 288.94C684.857 287.8 684.947 286.643 685.265 285.539Z" fill="#DFD5EF"/>
<path d="M653.716 250.014C655.664 251.78 658.234 252.118 659.456 250.77C660.679 249.421 660.091 246.897 658.143 245.131C656.196 243.365 653.626 243.027 652.403 244.375C651.181 245.723 651.769 248.248 653.716 250.014Z" fill="#DFD5EF"/>
<path d="M623.424 271.976C624.623 273.063 627.356 272.001 629.53 269.604C631.703 267.207 632.493 264.382 631.295 263.296C630.096 262.209 627.363 263.271 625.189 265.668C623.016 268.065 622.226 270.889 623.424 271.976Z" fill="#DFD5EF"/>
<path d="M623.471 288.824C625.119 290.318 628.106 289.708 630.144 287.46C632.182 285.213 632.497 282.18 630.849 280.686C629.202 279.192 626.214 279.802 624.176 282.049C622.139 284.297 621.823 287.33 623.471 288.824Z" fill="#DFD5EF"/>
<path d="M563.176 328.064C564.824 329.558 567.812 328.948 569.85 326.701C571.887 324.453 572.203 321.42 570.555 319.926C568.907 318.432 565.919 319.042 563.882 321.29C561.844 323.537 561.528 326.57 563.176 328.064Z" fill="#DFD5EF"/>
<path d="M688.905 328.187C691.127 328.078 692.808 325.534 692.66 322.504C692.511 319.475 690.59 317.107 688.368 317.215C686.146 317.324 684.465 319.868 684.614 322.898C684.762 325.928 686.683 328.296 688.905 328.187Z" fill="#DFD5EF"/>
<path d="M711.767 336.306C713.692 335.191 713.647 331.518 711.667 328.103C709.687 324.687 706.522 322.823 704.598 323.939C702.673 325.055 702.718 328.727 704.698 332.143C706.678 335.558 709.843 337.422 711.767 336.306Z" fill="#DFD5EF"/>
<path d="M566.19 272.594C570.405 272.076 573.602 269.866 573.331 267.658C573.059 265.45 569.422 264.08 565.207 264.599C560.992 265.117 557.795 267.327 558.067 269.535C558.338 271.743 561.975 273.112 566.19 272.594Z" fill="#DFD5EF"/>
<path d="M513.561 299.018C517.776 298.499 520.973 296.289 520.702 294.081C520.43 291.874 516.793 290.504 512.578 291.022C508.363 291.541 505.166 293.751 505.438 295.959C505.709 298.166 509.346 299.536 513.561 299.018Z" fill="#DFD5EF"/>
<path d="M585.518 286.165C589.733 285.646 592.802 282.398 592.373 278.91C591.944 275.421 588.179 273.014 583.964 273.532C579.749 274.05 576.68 277.299 577.109 280.787C577.538 284.275 581.303 286.683 585.518 286.165Z" fill="#DFD5EF"/>
<path d="M677.79 275.796C679.437 277.29 681.985 277.166 683.479 275.518C684.973 273.87 684.848 271.323 683.201 269.829C681.553 268.334 679.005 268.459 677.511 270.107C676.017 271.755 676.142 274.302 677.79 275.796Z" fill="#DFD5EF"/>
<path d="M728.037 333.219C729.236 334.305 733.291 331.786 737.094 327.591C740.898 323.396 743.009 319.115 741.811 318.028C740.612 316.941 736.558 319.461 732.754 323.656C728.951 327.851 726.839 332.132 728.037 333.219Z" fill="#DFD5EF"/>
<path d="M756.799 327.665C758.597 329.295 761.376 329.159 763.006 327.361C764.636 325.563 764.5 322.785 762.702 321.155C760.904 319.525 758.125 319.66 756.495 321.458C754.865 323.256 755.001 326.035 756.799 327.665Z" fill="#DFD5EF"/>
<path d="M764.259 374.182C767.289 374.034 769.593 370.802 769.405 366.965C769.217 363.127 766.609 360.136 763.579 360.284C760.549 360.433 758.245 363.664 758.433 367.502C758.621 371.339 761.229 374.33 764.259 374.182Z" fill="#DFD5EF"/>
<path d="M745.421 434.207C748.451 434.059 750.755 430.828 750.567 426.99C750.38 423.152 747.771 420.161 744.741 420.31C741.712 420.458 739.408 423.689 739.595 427.527C739.783 431.365 742.392 434.356 745.421 434.207Z" fill="#DFD5EF"/>
<path d="M763.108 435.424C766.138 435.276 768.442 432.045 768.254 428.207C768.067 424.369 765.458 421.378 762.428 421.527C759.399 421.675 757.095 424.906 757.282 428.744C757.47 432.581 760.079 435.572 763.108 435.424Z" fill="#DFD5EF"/>
<path d="M765.28 479.901C768.31 479.752 770.613 476.521 770.426 472.683C770.238 468.846 767.63 465.855 764.6 466.003C761.57 466.151 759.266 469.383 759.454 473.22C759.642 477.058 762.25 480.049 765.28 479.901Z" fill="#DFD5EF"/>
<path d="M703.2 620.326C706.23 620.178 708.534 616.947 708.346 613.109C708.158 609.272 705.55 606.281 702.52 606.429C699.49 606.577 697.187 609.808 697.374 613.646C697.562 617.484 700.17 620.475 703.2 620.326Z" fill="#DFD5EF"/>
<path d="M461.776 369.576C465.559 362.132 464.952 349.719 468.005 348.533C471.057 347.346 484.758 351.861 482.653 361.814C480.547 371.768 476.258 368.867 473.559 377.294C470.861 385.722 478.847 389.997 470.08 390.944C461.312 391.892 454.274 396.384 455.345 386.481C456.415 376.578 457.992 377.019 461.776 369.576Z" fill="#DFD5EF"/>
<path d="M519.589 618.716C535.85 622.587 540.039 623.419 549.739 620.352C559.44 617.285 563.035 616.591 571.6 611.505C580.165 606.42 583.558 601.588 586.27 604.048C588.983 606.507 582.147 615.137 576.634 619.036C571.122 622.935 557.334 627.238 549.551 627.101C541.767 626.963 532.949 626.876 526.692 626.145C520.435 625.415 503.033 624.612 504.174 621.544C505.548 617.848 503.327 614.846 519.589 618.716Z" fill="#DFD5EF"/>
<path d="M562.768 600.531C554.102 603.547 552.575 604.141 551.049 604.734C549.523 605.327 548.842 612.618 550.962 613.552C553.081 614.485 561.849 613.538 568.294 607.519C574.74 601.501 576.859 602.434 576.657 598.296C576.454 594.159 571.434 597.515 562.768 600.531Z" fill="#DFD5EF"/>
<path d="M559.09 726.696C568.197 722.103 579.895 725.948 589.428 721.583C599.57 716.939 598.901 717.252 603.064 714.176C606.066 711.955 610.255 712.787 608.388 717.026C606.522 721.265 607.708 724.318 596.973 727.435C587.745 730.207 578.308 732.23 568.754 733.482C561.021 734.379 550.778 736.954 549.592 733.901C548.405 730.848 549.982 731.289 559.09 726.696Z" fill="#DFD5EF"/>
<path d="M442.361 629.753C442.361 629.753 443.331 617.781 451.96 624.617C460.59 631.453 455.96 632.198 463.946 636.473C471.932 640.749 478.341 644.583 476.374 646.753C474.406 648.923 467.454 644.597 467.165 649.277C466.875 653.958 466.875 653.958 466.434 655.534C465.993 657.111 462.701 664.012 456.683 657.567C450.665 651.121 447.561 651.273 445.088 643.099C442.614 634.925 442.361 629.753 442.361 629.753Z" fill="#DFD5EF"/>
<path d="M492.603 777.129C490.586 771.929 499.866 756.035 504.937 753.713C510.008 751.391 509.089 764.398 505.747 770.264C502.405 776.131 502.607 780.268 498.469 780.471C494.332 780.673 493.196 778.655 492.603 777.129Z" fill="#DFD5EF"/>
<path d="M349.222 792.439C348.868 785.197 346.104 781.704 354.177 777.161C362.25 772.618 364.71 769.906 371.915 779.404C379.119 788.902 376.117 791.123 388.053 801.945C399.988 812.767 407.771 812.904 404.429 818.771C401.087 824.637 399.373 831.98 388.283 827.856C377.194 823.733 368.919 824.137 363.342 816.115C357.765 808.093 349.728 802.783 349.222 792.439Z" fill="#DFD5EF"/>
<path d="M333.735 475.903C334.126 473.292 334.618 472.749 344.861 470.174C355.104 467.599 361.701 464.684 365.6 470.196C369.499 475.709 369.21 480.389 360.934 480.794C352.659 481.199 348.912 478.79 346.995 481.994C345.078 485.199 349.266 486.031 354.93 485.235C360.594 484.44 364.971 478.522 366.258 483.644C367.546 488.765 367.9 496.006 362.337 498.871C356.774 501.735 353.533 509.671 347.464 502.191C341.395 494.711 335.529 491.369 334.784 486.739C334.039 482.11 333.345 478.514 333.735 475.903Z" fill="#DFD5EF"/>
<path d="M661.269 621.635C663.067 623.265 666.397 622.522 668.706 619.975C671.015 617.428 671.43 614.042 669.632 612.412C667.834 610.782 664.505 611.526 662.196 614.072C659.886 616.619 659.472 620.005 661.269 621.635Z" fill="#DFD5EF"/>
<path d="M673.559 639.697C674.934 640.944 677.481 640.376 679.247 638.429C681.013 636.481 681.329 633.892 679.954 632.645C678.579 631.398 676.032 631.966 674.266 633.913C672.501 635.861 672.184 638.45 673.559 639.697Z" fill="#DFD5EF"/>
<path d="M677.082 658.709C678.457 659.956 681.003 659.388 682.769 657.441C684.535 655.493 684.852 652.903 683.476 651.656C682.101 650.409 679.555 650.977 677.789 652.925C676.023 654.872 675.706 657.462 677.082 658.709Z" fill="#DFD5EF"/>
<path d="M647.235 663.279C648.61 664.526 651.157 663.958 652.922 662.011C654.688 660.063 655.005 657.474 653.63 656.227C652.254 654.98 649.708 655.548 647.942 657.495C646.176 659.443 645.86 662.032 647.235 663.279Z" fill="#DFD5EF"/>
<path d="M620.18 693.117C621.555 694.364 624.102 693.796 625.867 691.849C627.633 689.901 627.95 687.312 626.575 686.065C625.199 684.818 622.653 685.385 620.887 687.333C619.121 689.281 618.805 691.87 620.18 693.117Z" fill="#DFD5EF"/>
<path d="M623.21 712.672C624.586 713.919 627.132 713.351 628.898 711.403C630.664 709.456 630.98 706.866 629.605 705.619C628.23 704.372 625.683 704.94 623.918 706.888C622.152 708.835 621.835 711.425 623.21 712.672Z" fill="#DFD5EF"/>
<path d="M407.557 421.741C409.673 423.659 413.59 422.785 416.307 419.789C419.023 416.793 419.511 412.809 417.396 410.891C415.28 408.973 411.363 409.847 408.646 412.843C405.93 415.839 405.442 419.823 407.557 421.741Z" fill="#DFD5EF"/>
<path d="M411.508 391.219C414.363 393.808 419.651 392.628 423.319 388.583C426.986 384.538 427.645 379.16 424.789 376.571C421.934 373.982 416.646 375.162 412.978 379.207C409.311 383.252 408.652 388.63 411.508 391.219Z" fill="#DFD5EF"/>
<path d="M345.607 437.735C346.877 438.887 349.229 438.363 350.859 436.565C352.489 434.767 352.78 432.376 351.51 431.224C350.239 430.072 347.888 430.596 346.258 432.394C344.628 434.192 344.337 436.583 345.607 437.735Z" fill="#DFD5EF"/>
<path d="M383.389 436.405C384.659 437.556 387.011 437.033 388.641 435.235C390.271 433.437 390.562 431.046 389.292 429.894C388.022 428.742 385.67 429.266 384.04 431.064C382.41 432.861 382.119 435.253 383.389 436.405Z" fill="#DFD5EF"/>
<path d="M392.626 455.653C393.896 456.804 396.248 456.281 397.878 454.483C399.508 452.685 399.799 450.294 398.529 449.142C397.259 447.99 394.907 448.514 393.277 450.312C391.647 452.11 391.356 454.501 392.626 455.653Z" fill="#DFD5EF"/>
<path d="M372.66 482.033C373.931 483.185 376.282 482.662 377.912 480.864C379.542 479.066 379.833 476.675 378.563 475.523C377.293 474.371 374.941 474.895 373.311 476.693C371.681 478.49 371.39 480.882 372.66 482.033Z" fill="#DFD5EF"/>
<path d="M363.241 512.047C364.511 513.199 366.863 512.675 368.493 510.878C370.123 509.08 370.414 506.689 369.144 505.537C367.873 504.385 365.522 504.909 363.892 506.706C362.262 508.504 361.971 510.895 363.241 512.047Z" fill="#DFD5EF"/>
<path d="M338.855 548.754C341.71 551.343 346.998 550.163 350.666 546.118C354.334 542.073 354.992 536.695 352.137 534.106C349.281 531.517 343.993 532.697 340.326 536.742C336.658 540.787 336 546.165 338.855 548.754Z" fill="#DFD5EF"/>
<path d="M261.041 610.375C264.894 610.49 268.148 606.158 268.31 600.7C268.472 595.243 265.48 590.726 261.627 590.611C257.774 590.497 254.52 594.829 254.358 600.286C254.196 605.744 257.188 610.261 261.041 610.375Z" fill="#DFD5EF"/>
<path d="M300.352 650.955C304.205 651.07 307.459 646.738 307.621 641.28C307.783 635.823 304.791 631.306 300.938 631.191C297.085 631.077 293.831 635.409 293.669 640.866C293.507 646.324 296.499 650.841 300.352 650.955Z" fill="#DFD5EF"/>
<path d="M291.778 608.085C294.317 608.16 296.462 605.308 296.568 601.714C296.675 598.12 294.703 595.145 292.164 595.07C289.626 594.995 287.481 597.847 287.374 601.441C287.268 605.035 289.24 608.01 291.778 608.085Z" fill="#DFD5EF"/>
<path d="M310.042 705.698C312.581 705.774 314.725 702.921 314.832 699.327C314.939 695.733 312.967 692.759 310.428 692.683C307.889 692.608 305.745 695.46 305.638 699.054C305.531 702.648 307.503 705.623 310.042 705.698Z" fill="#DFD5EF"/>
<path d="M319.853 704.818C321.89 706.335 325.282 705.226 327.429 702.341C329.576 699.457 329.664 695.889 327.627 694.373C325.589 692.856 322.197 693.965 320.05 696.85C317.904 699.734 317.815 703.302 319.853 704.818Z" fill="#DFD5EF"/>
<path d="M348.235 712.758C350.273 714.274 353.665 713.165 355.812 710.281C357.959 707.396 358.047 703.829 356.009 702.312C353.972 700.796 350.58 701.905 348.433 704.789C346.286 707.673 346.198 711.241 348.235 712.758Z" fill="#DFD5EF"/>
<path d="M320.671 763.879C322.708 765.395 326.1 764.286 328.247 761.402C330.394 758.518 330.482 754.95 328.445 753.433C326.407 751.917 323.015 753.026 320.868 755.91C318.722 758.795 318.633 762.362 320.671 763.879Z" fill="#DFD5EF"/>
<path d="M301.534 743.564C303.571 745.081 306.963 743.972 309.11 741.087C311.257 738.203 311.345 734.635 309.308 733.119C307.27 731.602 303.878 732.711 301.731 735.596C299.585 738.48 299.496 742.048 301.534 743.564Z" fill="#DFD5EF"/>
<path d="M266.5 737.502C268.538 739.019 271.605 738.347 273.351 736.001C275.096 733.655 274.86 730.524 272.822 729.008C270.785 727.491 267.718 728.163 265.972 730.509C264.226 732.855 264.462 735.986 266.5 737.502Z" fill="#DFD5EF"/>
<path d="M272.945 699.86C274.983 701.376 278.05 700.704 279.796 698.358C281.542 696.013 281.305 692.881 279.268 691.365C277.23 689.848 274.163 690.521 272.417 692.867C270.671 695.212 270.908 698.343 272.945 699.86Z" fill="#DFD5EF"/>
<path d="M407.561 791.249C409.598 792.765 412.665 792.093 414.411 789.747C416.157 787.401 415.921 784.27 413.883 782.754C411.846 781.237 408.778 781.909 407.033 784.255C405.287 786.601 405.523 789.732 407.561 791.249Z" fill="#DFD5EF"/>
<path d="M415.463 772.711C417.501 774.228 420.568 773.556 422.314 771.21C424.06 768.864 423.823 765.733 421.786 764.217C419.748 762.7 416.681 763.372 414.935 765.718C413.189 768.064 413.426 771.195 415.463 772.711Z" fill="#DFD5EF"/>
<path d="M405.008 728.639C407.045 730.156 410.112 729.483 411.858 727.138C413.604 724.792 413.368 721.661 411.33 720.144C409.293 718.628 406.225 719.3 404.48 721.646C402.734 723.992 402.97 727.123 405.008 728.639Z" fill="#DFD5EF"/>
<path d="M448.67 773.163C450.707 774.679 453.775 774.007 455.52 771.661C457.266 769.315 457.03 766.184 454.992 764.668C452.955 763.151 449.888 763.824 448.142 766.169C446.396 768.515 446.632 771.646 448.67 773.163Z" fill="#DFD5EF"/>
</g>
<defs>
<clipPath id="clip0_1008_646">
<rect width="732.328" height="732.328" fill="white" transform="translate(491.91) rotate(42.199)"/>
</clipPath>
</defs>
</svg>
