<svg width="218" height="402" viewBox="0 0 218 402" fill="none" xmlns="http://www.w3.org/2000/svg">
<path d="M313.52 0.569946H1.65002V517H313.52V0.569946Z" fill="#A374DA"/>
<path d="M20.44 11.83H3.73999V28.53H20.44V11.83Z" fill="#E377B1" stroke="#A374DA" stroke-width="6.47"/>
<path d="M20.44 36.83H3.73999V517H20.44V36.83Z" fill="#E377B1" stroke="#A374DA" stroke-width="6.47"/>
<path d="M42.44 11.83H25.74V28.53H42.44V11.83Z" fill="#E377B1" stroke="#A374DA" stroke-width="6.47"/>
<path d="M42.44 36.83H25.74V517H42.44V36.83Z" fill="#E377B1" stroke="#A374DA" stroke-width="6.47"/>
<path d="M64.44 11.83H47.74V28.53H64.44V11.83Z" fill="#E377B1" stroke="#A374DA" stroke-width="6.47"/>
<path d="M64.44 36.83H47.74V517H64.44V36.83Z" fill="#E377B1" stroke="#A374DA" stroke-width="6.47"/>
<path d="M87.44 11.83H70.74V28.53H87.44V11.83Z" fill="#E377B1" stroke="#A374DA" stroke-width="6.47"/>
<path d="M87.44 36.83H70.74V517H87.44V36.83Z" fill="#E377B1" stroke="#A374DA" stroke-width="6.47"/>
<path d="M110.44 11.83H93.74V28.53H110.44V11.83Z" fill="#E377B1" stroke="#A374DA" stroke-width="6.47"/>
<path d="M110.44 36.83H93.74V517H110.44V36.83Z" fill="#E377B1" stroke="#A374DA" stroke-width="6.47"/>
<path d="M132.44 11.83H115.74V28.53H132.44V11.83Z" fill="#E377B1" stroke="#A374DA" stroke-width="6.47"/>
<path d="M132.44 36.83H115.74V517H132.44V36.83Z" fill="#E377B1" stroke="#A374DA" stroke-width="6.47"/>
<path d="M154.44 11.83H137.74V28.53H154.44V11.83Z" fill="#E377B1" stroke="#A374DA" stroke-width="6.47"/>
<path d="M154.44 36.83H137.74V517H154.44V36.83Z" fill="#E377B1" stroke="#A374DA" stroke-width="6.47"/>
<path d="M177.44 11.83H160.74V28.53H177.44V11.83Z" fill="#E377B1" stroke="#A374DA" stroke-width="6.47"/>
<path d="M177.44 36.83H160.74V517H177.44V36.83Z" fill="#E377B1" stroke="#A374DA" stroke-width="6.47"/>
<path d="M200.44 11.83H183.74V28.53H200.44V11.83Z" fill="#E377B1" stroke="#A374DA" stroke-width="6.47"/>
<path d="M200.44 36.83H183.74V517H200.44V36.83Z" fill="#E377B1" stroke="#A374DA" stroke-width="6.47"/>
<path d="M222.44 11.83H205.74V28.53H222.44V11.83Z" fill="#E377B1" stroke="#A374DA" stroke-width="6.47"/>
<path d="M222.44 36.83H205.74V517H222.44V36.83Z" fill="#E377B1" stroke="#A374DA" stroke-width="6.47"/>
<path d="M132.74 107.7H74.04V85.49L132.74 80.89V107.7Z" fill="#A374DA"/>
<path d="M174.22 107.7H132.74V80.89L174.22 88.23V107.7Z" fill="#9074E6"/>
<path d="M112 517H7.13V111.74L111.02 102.22L112 517Z" fill="#D376BC"/>
<path d="M138.61 102.22H111.02V517H138.61V102.22Z" fill="#E377B1"/>
<path d="M244.26 517H138.61V102.22L242.89 120.61L244.26 517Z" fill="#9074E6"/>
<path d="M27 130C27.6047 130 28.1846 130.24 28.6122 130.668C29.0398 131.095 29.28 131.675 29.28 132.28V517H24.71V132.33C24.7033 132.026 24.7577 131.723 24.8699 131.44C24.9821 131.157 25.1499 130.899 25.3633 130.682C25.5768 130.465 25.8316 130.292 26.1127 130.175C26.3938 130.058 26.6955 129.999 27 130V130Z" fill="#E377B1"/>
<path d="M42.9999 127.65C43.6046 127.65 44.1845 127.89 44.6121 128.318C45.0397 128.745 45.28 129.325 45.28 129.93V517H40.71V129.93C40.71 129.325 40.9502 128.745 41.3777 128.318C41.8053 127.89 42.3852 127.65 42.9899 127.65H42.9999Z" fill="#E377B1"/>
<path d="M60.9999 126.48C61.6046 126.48 62.1845 126.72 62.6121 127.148C63.0397 127.575 63.28 128.155 63.28 128.76V517H58.71V128.76C58.71 128.46 58.7693 128.162 58.8845 127.885C58.9997 127.608 59.1685 127.356 59.3813 127.144C59.5941 126.932 59.8466 126.765 60.1243 126.651C60.4021 126.537 60.6997 126.479 60.9999 126.48Z" fill="#E377B1"/>
<path d="M77.9999 125.21C78.6046 125.21 79.1845 125.45 79.6121 125.878C80.0397 126.305 80.28 126.885 80.28 127.49V517H75.71V127.49C75.71 126.885 75.9502 126.305 76.3777 125.878C76.8053 125.45 77.3852 125.21 77.9899 125.21H77.9999Z" fill="#E377B1"/>
<path d="M96 122.76C96.6013 122.755 97.1803 122.987 97.6111 123.407C98.0419 123.826 98.2895 124.399 98.3 125V517H93.73V125C93.73 124.395 93.9702 123.815 94.3978 123.388C94.8253 122.96 95.4053 122.72 96.01 122.72L96 122.76Z" fill="#E377B1"/>
</svg>
