<svg width="375" height="485" viewBox="0 0 375 485" fill="none" xmlns="http://www.w3.org/2000/svg">
<path d="M129 600H14.74V37.7001L129 22.8301V600Z" fill="#E377B1"/>
<path d="M298.04 433.7H129V22.8301L298.04 60.3901V433.7Z" fill="#9074E6"/>
<path d="M126.39 25.17L0.910034 40.83V18.39L126.39 0.910034V25.17Z" fill="#D376BC"/>
<path d="M311.61 63L126.39 25.17V0.910034L311.61 40.83V63Z" fill="#A374DA"/>
<path d="M229.083 53.5003L225.532 52.969L224.239 61.6128L227.789 62.144L229.083 53.5003Z" fill="#E377B1" stroke="#9074E6"/>
<path d="M233.921 54.2284L230.371 53.6971L229.077 62.3409L232.628 62.8722L233.921 54.2284Z" fill="#E377B1" stroke="#9074E6"/>
<path d="M220.143 52.1616L217.018 51.694L215.725 60.3377L218.85 60.8054L220.143 52.1616Z" fill="#E377B1" stroke="#9074E6" stroke-width="0.94"/>
<path d="M224.402 52.8049L221.276 52.3373L219.983 60.9811L223.108 61.4487L224.402 52.8049Z" fill="#E377B1" stroke="#9074E6" stroke-width="0.94"/>
<path d="M211.674 50.8922L208.549 50.4246L207.256 59.0683L210.381 59.536L211.674 50.8922Z" fill="#E377B1" stroke="#9074E6" stroke-width="0.94"/>
<path d="M215.933 51.5355L212.808 51.0679L211.514 59.7116L214.64 60.1793L215.933 51.5355Z" fill="#E377B1" stroke="#9074E6" stroke-width="0.94"/>
<path d="M202.644 49.5407L199.519 49.0731L198.225 57.7169L201.35 58.1845L202.644 49.5407Z" fill="#E377B1" stroke="#9074E6" stroke-width="0.94"/>
<path d="M206.902 50.1841L203.777 49.7164L202.484 58.3602L205.609 58.8278L206.902 50.1841Z" fill="#E377B1" stroke="#9074E6" stroke-width="0.94"/>
<path d="M181.665 49.0707L178.1 48.6494L177.074 57.329L180.639 57.7503L181.665 49.0707Z" fill="#E377B1" stroke="#9074E6"/>
<path d="M194.509 49.635L190.944 49.2136L189.918 57.8932L193.483 58.3146L194.509 49.635Z" fill="#E377B1" stroke="#9074E6"/>
<path d="M172.679 48.004L169.541 47.6332L168.515 56.3128L171.653 56.6836L172.679 48.004Z" fill="#E377B1" stroke="#9074E6" stroke-width="0.94"/>
<path d="M176.959 48.5128L173.821 48.142L172.796 56.8216L175.934 57.1924L176.959 48.5128Z" fill="#E377B1" stroke="#9074E6" stroke-width="0.94"/>
<path d="M164.185 47.0033L161.047 46.6324L160.021 55.312L163.159 55.6829L164.185 47.0033Z" fill="#E377B1" stroke="#9074E6" stroke-width="0.94"/>
<path d="M168.457 47.501L165.319 47.1301L164.293 55.8097L167.431 56.1806L168.457 47.501Z" fill="#E377B1" stroke="#9074E6" stroke-width="0.94"/>
<path d="M155.114 45.9263L151.976 45.5554L150.951 54.235L154.089 54.6059L155.114 45.9263Z" fill="#E377B1" stroke="#9074E6" stroke-width="0.94"/>
<path d="M159.395 46.4351L156.257 46.0642L155.231 54.7438L158.369 55.1147L159.395 46.4351Z" fill="#E377B1" stroke="#9074E6" stroke-width="0.94"/>
<path d="M146.307 44.8795L143.169 44.5087L142.143 53.1883L145.282 53.5591L146.307 44.8795Z" fill="#E377B1" stroke="#9074E6" stroke-width="0.94"/>
<path d="M150.578 45.3883L147.44 45.0175L146.414 53.6971L149.552 54.0679L150.578 45.3883Z" fill="#E377B1" stroke="#9074E6" stroke-width="0.94"/>
<path d="M283.033 61.0444L134.099 43.4434L133.073 52.123L282.007 69.724L283.033 61.0444Z" fill="#E377B1" stroke="#9074E6" stroke-width="6.47"/>
<path d="M141.516 44.3212L138.378 43.9503L137.352 52.6299L140.49 53.0008L141.516 44.3212Z" fill="#E377B1" stroke="#9074E6" stroke-width="0.94"/>
<path d="M201.814 62.5151L198.688 62.0475L197.395 70.6913L200.52 71.1589L201.814 62.5151Z" fill="#E377B1" stroke="#9074E6" stroke-width="0.94"/>
<path d="M206.082 63.1599L202.957 62.6923L201.663 71.336L204.789 71.8037L206.082 63.1599Z" fill="#E377B1" stroke="#9074E6" stroke-width="0.94"/>
<path d="M179.189 61.615L175.617 61.2554L174.741 69.9514L178.313 70.3111L179.189 61.615Z" fill="#E377B1" stroke="#9074E6"/>
<path d="M194.087 62.6259L190.522 62.2046L189.496 70.8842L193.062 71.3055L194.087 62.6259Z" fill="#E377B1" stroke="#9074E6"/>
<path d="M170.202 60.7188L167.058 60.4022L166.182 69.0982L169.326 69.4148L170.202 60.7188Z" fill="#E377B1" stroke="#9074E6" stroke-width="0.94"/>
<path d="M174.488 61.1464L171.343 60.8298L170.468 69.5259L173.612 69.8425L174.488 61.1464Z" fill="#E377B1" stroke="#9074E6" stroke-width="0.94"/>
<path d="M161.681 59.8596L158.537 59.543L157.661 68.239L160.805 68.5556L161.681 59.8596Z" fill="#E377B1" stroke="#9074E6" stroke-width="0.94"/>
<path d="M165.966 60.2872L162.822 59.9706L161.947 68.6666L165.091 68.9832L165.966 60.2872Z" fill="#E377B1" stroke="#9074E6" stroke-width="0.94"/>
<path d="M152.598 58.9444L149.454 58.6278L148.578 67.3238L151.722 67.6404L152.598 58.9444Z" fill="#E377B1" stroke="#9074E6" stroke-width="0.94"/>
<path d="M156.883 59.3811L153.739 59.0645L152.864 67.7605L156.008 68.0771L156.883 59.3811Z" fill="#E377B1" stroke="#9074E6" stroke-width="0.94"/>
<path d="M143.772 58.0543L140.628 57.7377L139.752 66.4337L142.896 66.7503L143.772 58.0543Z" fill="#E377B1" stroke="#9074E6" stroke-width="0.94"/>
<path d="M194.112 63.1259L144.911 58.1716L144.035 66.8677L193.237 71.822L194.112 63.1259Z" fill="#E377B1" stroke="#9074E6" stroke-width="3.71"/>
<path d="M283.871 88.0254L134.937 70.4243L133.911 79.1039L282.845 96.705L283.871 88.0254Z" fill="#E377B1" stroke="#9074E6" stroke-width="6.47"/>
<path d="M142.354 71.3034L139.216 70.9325L138.19 79.6121L141.328 79.983L142.354 71.3034Z" fill="#E377B1" stroke="#9074E6" stroke-width="0.94"/>
<path d="M284.369 104.023L135.436 86.4224L134.41 95.102L283.344 112.703L284.369 104.023Z" fill="#E377B1" stroke="#9074E6" stroke-width="6.47"/>
<path d="M142.843 87.3003L139.705 86.9294L138.679 95.609L141.817 95.9799L142.843 87.3003Z" fill="#E377B1" stroke="#9074E6" stroke-width="0.94"/>
<path d="M284.859 120.021L135.926 102.419L134.9 111.099L283.834 128.7L284.859 120.021Z" fill="#E377B1" stroke="#9074E6" stroke-width="6.47"/>
<path d="M143.343 103.288L140.204 102.918L139.179 111.597L142.317 111.968L143.343 103.288Z" fill="#E377B1" stroke="#9074E6" stroke-width="0.94"/>
<path d="M285.317 135.001L136.383 117.4L135.357 126.079L284.291 143.68L285.317 135.001Z" fill="#E377B1" stroke="#9074E6" stroke-width="6.47"/>
<path d="M143.8 118.279L140.662 117.908L139.636 126.588L142.774 126.958L143.8 118.279Z" fill="#E377B1" stroke="#9074E6" stroke-width="0.94"/>
<path d="M285.817 150.999L136.883 133.398L135.857 142.078L284.791 159.679L285.817 150.999Z" fill="#E377B1" stroke="#9074E6" stroke-width="6.47"/>
<path d="M144.3 134.277L141.162 133.906L140.136 142.586L143.274 142.957L144.3 134.277Z" fill="#E377B1" stroke="#9074E6" stroke-width="0.94"/>
<path d="M286.305 166.996L137.372 149.395L136.346 158.075L285.28 175.676L286.305 166.996Z" fill="#E377B1" stroke="#9074E6" stroke-width="6.47"/>
<path d="M144.789 150.274L141.651 149.903L140.625 158.583L143.763 158.954L144.789 150.274Z" fill="#E377B1" stroke="#9074E6" stroke-width="0.94"/>
<path d="M286.805 182.984L137.872 165.383L136.846 174.063L285.78 191.664L286.805 182.984Z" fill="#E377B1" stroke="#9074E6" stroke-width="6.47"/>
<path d="M145.279 166.261L142.141 165.89L141.115 174.57L144.253 174.941L145.279 166.261Z" fill="#E377B1" stroke="#9074E6" stroke-width="0.94"/>
<path d="M287.241 196.978L138.307 179.377L137.281 188.056L286.215 205.658L287.241 196.978Z" fill="#E377B1" stroke="#9074E6" stroke-width="6.47"/>
<path d="M287.74 212.966L138.807 195.365L137.781 204.045L286.715 221.646L287.74 212.966Z" fill="#E377B1" stroke="#9074E6" stroke-width="6.47"/>
<path d="M146.214 196.243L143.076 195.872L142.05 204.552L145.188 204.923L146.214 196.243Z" fill="#E377B1" stroke="#9074E6" stroke-width="0.94"/>
<path d="M288.229 228.963L139.296 211.362L138.27 220.042L287.203 237.643L288.229 228.963Z" fill="#E377B1" stroke="#9074E6" stroke-width="6.47"/>
<path d="M146.713 212.241L143.574 211.87L142.549 220.55L145.687 220.921L146.713 212.241Z" fill="#E377B1" stroke="#9074E6" stroke-width="0.94"/>
<path d="M288.697 243.955L139.763 226.354L138.737 235.033L287.671 252.634L288.697 243.955Z" fill="#E377B1" stroke="#9074E6" stroke-width="6.47"/>
<path d="M147.17 227.231L144.032 226.861L143.006 235.54L146.144 235.911L147.17 227.231Z" fill="#E377B1" stroke="#9074E6" stroke-width="0.94"/>
<path d="M289.187 259.942L140.253 242.34L139.227 251.02L288.161 268.621L289.187 259.942Z" fill="#E377B1" stroke="#9074E6" stroke-width="6.47"/>
<path d="M147.67 243.22L144.532 242.849L143.506 251.528L146.644 251.899L147.67 243.22Z" fill="#E377B1" stroke="#9074E6" stroke-width="0.94"/>
<path d="M289.687 275.94L140.753 258.339L139.727 267.018L288.661 284.619L289.687 275.94Z" fill="#E377B1" stroke="#9074E6" stroke-width="6.47"/>
<path d="M148.17 259.217L145.032 258.846L144.006 267.525L147.144 267.896L148.17 259.217Z" fill="#E377B1" stroke="#9074E6" stroke-width="0.94"/>
<path d="M290.175 291.937L141.242 274.336L140.216 283.015L289.149 300.616L290.175 291.937Z" fill="#E377B1" stroke="#9074E6" stroke-width="6.47"/>
<path d="M148.669 275.215L145.53 274.844L144.505 283.523L147.643 283.894L148.669 275.215Z" fill="#E377B1" stroke="#9074E6" stroke-width="0.94"/>
<path d="M61.3273 52.4786L64.9146 52.3376L64.5714 43.6044L60.9842 43.7453L61.3273 52.4786Z" fill="#E57AB5"/>
<path d="M56.4361 52.6768L60.0233 52.5359L59.6802 43.8026L56.093 43.9436L56.4361 52.6768Z" fill="#E57AB5"/>
<path d="M70.3577 52.136L73.5153 52.012L73.1721 43.2787L70.0146 43.4028L70.3577 52.136Z" fill="#E57AB5"/>
<path d="M66.0578 52.2969L69.2153 52.1729L68.8722 43.4396L65.7146 43.5636L66.0578 52.2969Z" fill="#E57AB5"/>
<path d="M78.9173 51.7914L82.0748 51.6674L81.7317 42.9341L78.5741 43.0582L78.9173 51.7914Z" fill="#E57AB5"/>
<path d="M74.6073 51.9627L77.7649 51.8386L77.4218 43.1054L74.2642 43.2294L74.6073 51.9627Z" fill="#E57AB5"/>
<path d="M88.0285 51.4396L91.186 51.3156L90.8429 42.5823L87.6853 42.7063L88.0285 51.4396Z" fill="#E57AB5"/>
<path d="M83.7284 51.6005L86.886 51.4764L86.5429 42.7432L83.3853 42.8672L83.7284 51.6005Z" fill="#E57AB5"/>
<path d="M21.0705 54.0691L100.06 50.9656L99.7164 42.2323L20.7274 45.3358L21.0705 54.0691Z" fill="#E57AB5"/>
<path d="M92.5991 51.2581L95.7566 51.134L95.4135 42.4008L92.2559 42.5248L92.5991 51.2581Z" fill="#E57AB5"/>
<path d="M106.02 50.7349L109.178 50.6108L108.835 41.8776L105.677 42.0016L106.02 50.7349Z" fill="#E57AB5"/>
<path d="M101.277 51.2585L104.437 51.1321L104.087 42.3921L100.927 42.5185L101.277 51.2585Z" fill="#E57AB5"/>
<path d="M61.9774 66.5046L65.5647 66.3636L65.2216 57.6304L61.6343 57.7713L61.9774 66.5046Z" fill="#E57AB5"/>
<path d="M57.0861 66.7031L60.6733 66.5621L60.3302 57.8289L56.743 57.9698L57.0861 66.7031Z" fill="#E57AB5"/>
<path d="M71.0077 66.1519L74.1653 66.0278L73.8222 57.2946L70.6646 57.4186L71.0077 66.1519Z" fill="#E57AB5"/>
<path d="M66.6978 66.3233L69.8553 66.1992L69.5122 57.466L66.3546 57.59L66.6978 66.3233Z" fill="#E57AB5"/>
<path d="M79.5573 65.8177L82.7148 65.6936L82.3717 56.9603L79.2142 57.0844L79.5573 65.8177Z" fill="#E57AB5"/>
<path d="M75.2573 65.9787L78.4149 65.8546L78.0718 57.1213L74.9142 57.2454L75.2573 65.9787Z" fill="#E57AB5"/>
<path d="M88.6885 65.4555L91.8461 65.3314L91.5029 56.5982L88.3454 56.7222L88.6885 65.4555Z" fill="#E57AB5"/>
<path d="M84.3786 65.6269L87.5361 65.5028L87.193 56.7695L84.0354 56.8936L84.3786 65.6269Z" fill="#E57AB5"/>
<path d="M21.7105 68.0854L100.7 64.9819L100.356 56.2487L21.3674 59.3522L21.7105 68.0854Z" fill="#E57AB5"/>
<path d="M93.2391 65.2843L96.3966 65.1603L96.0535 56.427L92.8959 56.5511L93.2391 65.2843Z" fill="#E57AB5"/>
<path d="M106.67 64.7613L109.828 64.6372L109.485 55.9039L106.327 56.028L106.67 64.7613Z" fill="#E57AB5"/>
<path d="M101.926 65.2641L105.086 65.1377L104.736 56.3977L101.576 56.5241L101.926 65.2641Z" fill="#E57AB5"/>
<path d="M60.5887 81.4724L64.1759 81.3314L63.8328 72.5982L60.2455 72.7391L60.5887 81.4724Z" fill="#E57AB5"/>
<path d="M55.7074 81.6705L59.2947 81.5295L58.9515 72.7963L55.3643 72.9372L55.7074 81.6705Z" fill="#E57AB5"/>
<path d="M69.619 81.1297L72.7766 81.0056L72.4335 72.2724L69.2759 72.3964L69.619 81.1297Z" fill="#E57AB5"/>
<path d="M65.319 81.2906L68.4766 81.1665L68.1334 72.4332L64.9759 72.5573L65.319 81.2906Z" fill="#E57AB5"/>
<path d="M77.7412 81.0969L80.9012 80.9705L80.5516 72.2305L77.3916 72.3569L77.7412 81.0969Z" fill="#E57AB5"/>
<path d="M73.8686 80.9565L77.0261 80.8324L76.683 72.0991L73.5254 72.2232L73.8686 80.9565Z" fill="#E57AB5"/>
<path d="M87.2997 80.4233L90.4573 80.2992L90.1141 71.5659L86.9566 71.69L87.2997 80.4233Z" fill="#E57AB5"/>
<path d="M82.9997 80.5942L86.1572 80.4701L85.8141 71.7368L82.6565 71.8609L82.9997 80.5942Z" fill="#E57AB5"/>
<path d="M20.3418 83.0527L99.3308 79.9492L98.9877 71.216L19.9986 74.3194L20.3418 83.0527Z" fill="#E57AB5"/>
<path d="M91.8703 80.2517L95.0278 80.1277L94.6847 71.3944L91.5271 71.5185L91.8703 80.2517Z" fill="#E57AB5"/>
<path d="M105.291 79.7286L108.449 79.6045L108.106 70.8712L104.948 70.9953L105.291 79.7286Z" fill="#E57AB5"/>
<path d="M100.527 80.2192L103.687 80.0928L103.338 71.3528L100.178 71.4792L100.527 80.2192Z" fill="#E57AB5"/>
<path d="M61.3273 52.4786L64.9146 52.3376L64.5714 43.6044L60.9842 43.7453L61.3273 52.4786Z" fill="#E57AB5"/>
<path d="M56.4361 52.6768L60.0233 52.5359L59.6802 43.8026L56.093 43.9436L56.4361 52.6768Z" fill="#E57AB5"/>
<path d="M70.3577 52.136L73.5153 52.012L73.1721 43.2787L70.0146 43.4028L70.3577 52.136Z" fill="#E57AB5"/>
<path d="M66.0578 52.2969L69.2153 52.1729L68.8722 43.4396L65.7146 43.5636L66.0578 52.2969Z" fill="#E57AB5"/>
<path d="M78.9173 51.7914L82.0748 51.6674L81.7317 42.9341L78.5741 43.0582L78.9173 51.7914Z" fill="#E57AB5"/>
<path d="M74.6073 51.9627L77.7649 51.8386L77.4218 43.1054L74.2642 43.2294L74.6073 51.9627Z" fill="#E57AB5"/>
<path d="M88.0285 51.4396L91.186 51.3156L90.8429 42.5823L87.6853 42.7063L88.0285 51.4396Z" fill="#E57AB5"/>
<path d="M83.7284 51.6005L86.886 51.4764L86.5429 42.7432L83.3853 42.8672L83.7284 51.6005Z" fill="#E57AB5"/>
<path d="M21.0705 54.0691L100.06 50.9656L99.7164 42.2323L20.7274 45.3358L21.0705 54.0691Z" fill="#E57AB5"/>
<path d="M92.5991 51.2581L95.7566 51.134L95.4135 42.4008L92.2559 42.5248L92.5991 51.2581Z" fill="#E57AB5"/>
<path d="M106.02 50.7349L109.178 50.6108L108.835 41.8776L105.677 42.0016L106.02 50.7349Z" fill="#E57AB5"/>
<path d="M101.277 51.2585L104.437 51.1321L104.087 42.3921L100.927 42.5185L101.277 51.2585Z" fill="#E57AB5"/>
<path d="M61.9774 66.5046L65.5647 66.3636L65.2216 57.6304L61.6343 57.7713L61.9774 66.5046Z" fill="#E57AB5"/>
<path d="M57.0861 66.7031L60.6733 66.5621L60.3302 57.8289L56.743 57.9698L57.0861 66.7031Z" fill="#E57AB5"/>
<path d="M71.0077 66.1519L74.1653 66.0278L73.8222 57.2946L70.6646 57.4186L71.0077 66.1519Z" fill="#E57AB5"/>
<path d="M66.6978 66.3233L69.8553 66.1992L69.5122 57.466L66.3546 57.59L66.6978 66.3233Z" fill="#E57AB5"/>
<path d="M79.5573 65.8177L82.7148 65.6936L82.3717 56.9603L79.2142 57.0844L79.5573 65.8177Z" fill="#E57AB5"/>
<path d="M75.2573 65.9787L78.4149 65.8546L78.0718 57.1213L74.9142 57.2454L75.2573 65.9787Z" fill="#E57AB5"/>
<path d="M88.6885 65.4555L91.8461 65.3314L91.5029 56.5982L88.3454 56.7222L88.6885 65.4555Z" fill="#E57AB5"/>
<path d="M84.3786 65.6269L87.5361 65.5028L87.193 56.7695L84.0354 56.8936L84.3786 65.6269Z" fill="#E57AB5"/>
<path d="M21.7105 68.0854L100.7 64.9819L100.356 56.2487L21.3674 59.3522L21.7105 68.0854Z" fill="#E57AB5"/>
<path d="M93.2391 65.2843L96.3966 65.1603L96.0535 56.427L92.8959 56.5511L93.2391 65.2843Z" fill="#E57AB5"/>
<path d="M106.67 64.7613L109.828 64.6372L109.485 55.9039L106.327 56.028L106.67 64.7613Z" fill="#E57AB5"/>
<path d="M101.926 65.2641L105.086 65.1377L104.736 56.3977L101.576 56.5241L101.926 65.2641Z" fill="#E57AB5"/>
<path d="M60.5887 81.4724L64.1759 81.3314L63.8328 72.5982L60.2455 72.7391L60.5887 81.4724Z" fill="#E57AB5"/>
<path d="M55.7074 81.6705L59.2947 81.5295L58.9515 72.7963L55.3643 72.9372L55.7074 81.6705Z" fill="#E57AB5"/>
<path d="M69.619 81.1297L72.7766 81.0056L72.4335 72.2724L69.2759 72.3964L69.619 81.1297Z" fill="#E57AB5"/>
<path d="M65.319 81.2906L68.4766 81.1665L68.1334 72.4332L64.9759 72.5573L65.319 81.2906Z" fill="#E57AB5"/>
<path d="M77.7412 81.0969L80.9012 80.9705L80.5516 72.2305L77.3916 72.3569L77.7412 81.0969Z" fill="#E57AB5"/>
<path d="M73.8686 80.9565L77.0261 80.8324L76.683 72.0991L73.5254 72.2232L73.8686 80.9565Z" fill="#E57AB5"/>
<path d="M87.2997 80.4233L90.4573 80.2992L90.1141 71.5659L86.9566 71.69L87.2997 80.4233Z" fill="#E57AB5"/>
<path d="M82.9997 80.5942L86.1572 80.4701L85.8141 71.7368L82.6565 71.8609L82.9997 80.5942Z" fill="#E57AB5"/>
<path d="M20.3418 83.0527L99.3308 79.9492L98.9877 71.216L19.9986 74.3194L20.3418 83.0527Z" fill="#E57AB5"/>
<path d="M91.8703 80.2517L95.0278 80.1277L94.6847 71.3944L91.5271 71.5185L91.8703 80.2517Z" fill="#E57AB5"/>
<path d="M105.291 79.7286L108.449 79.6045L108.106 70.8712L104.948 70.9953L105.291 79.7286Z" fill="#E57AB5"/>
<path d="M100.527 80.2192L103.687 80.0928L103.338 71.3528L100.178 71.4792L100.527 80.2192Z" fill="#E57AB5"/>
<path d="M61.3184 94.481L64.9056 94.3401L64.5625 85.6068L60.9753 85.7478L61.3184 94.481Z" fill="#E57AB5"/>
<path d="M56.4372 94.6792L60.0244 94.5382L59.6813 85.8049L56.0941 85.9459L56.4372 94.6792Z" fill="#E57AB5"/>
<path d="M70.3488 94.1383L73.5063 94.0143L73.1632 85.281L70.0056 85.4051L70.3488 94.1383Z" fill="#E57AB5"/>
<path d="M66.0487 94.2992L69.2063 94.1752L68.8632 85.4419L65.7056 85.566L66.0487 94.2992Z" fill="#E57AB5"/>
<path d="M78.9084 93.7937L82.0659 93.6697L81.7228 84.9364L78.5652 85.0605L78.9084 93.7937Z" fill="#E57AB5"/>
<path d="M74.5983 93.9551L77.7559 93.8311L77.4127 85.0978L74.2552 85.2219L74.5983 93.9551Z" fill="#E57AB5"/>
<path d="M88.0294 93.4319L91.187 93.3079L90.8439 84.5746L87.6863 84.6987L88.0294 93.4319Z" fill="#E57AB5"/>
<path d="M83.7295 93.6028L86.8871 93.4788L86.544 84.7455L83.3864 84.8696L83.7295 93.6028Z" fill="#E57AB5"/>
<path d="M21.0716 96.0615L100.061 92.958L99.7175 84.2247L20.7285 87.3282L21.0716 96.0615Z" fill="#E57AB5"/>
<path d="M92.6 93.2604L95.7576 93.1364L95.4144 84.4031L92.2569 84.5272L92.6 93.2604Z" fill="#E57AB5"/>
<path d="M106.021 92.7373L109.179 92.6133L108.836 83.88L105.678 84.0041L106.021 92.7373Z" fill="#E57AB5"/>
<path d="M101.247 93.2184L104.407 93.092L104.057 84.352L100.897 84.4784L101.247 93.2184Z" fill="#E57AB5"/>
<path d="M61.9784 108.507L65.5657 108.366L65.2225 99.6327L61.6353 99.7737L61.9784 108.507Z" fill="#E57AB5"/>
<path d="M57.0773 108.696L60.6646 108.555L60.3214 99.8213L56.7342 99.9622L57.0773 108.696Z" fill="#E57AB5"/>
<path d="M71.0089 108.154L74.1665 108.03L73.8234 99.297L70.6658 99.4211L71.0089 108.154Z" fill="#E57AB5"/>
<path d="M66.6989 108.326L69.8564 108.202L69.5133 99.4683L66.3557 99.5923L66.6989 108.326Z" fill="#E57AB5"/>
<path d="M79.5584 107.81L82.7159 107.686L82.3728 98.9528L79.2153 99.0768L79.5584 107.81Z" fill="#E57AB5"/>
<path d="M75.2584 107.981L78.416 107.857L78.0729 99.1237L74.9153 99.2477L75.2584 107.981Z" fill="#E57AB5"/>
<path d="M88.6796 107.458L91.8372 107.334L91.494 98.6006L88.3365 98.7247L88.6796 107.458Z" fill="#E57AB5"/>
<path d="M84.3695 107.629L87.5271 107.505L87.184 98.7719L84.0264 98.8959L84.3695 107.629Z" fill="#E57AB5"/>
<path d="M21.7116 110.088L100.701 106.984L100.358 98.251L21.3685 101.354L21.7116 110.088Z" fill="#E57AB5"/>
<path d="M93.2402 107.277L96.3977 107.153L96.0546 98.4195L92.897 98.5435L93.2402 107.277Z" fill="#E57AB5"/>
<path d="M106.661 106.754L109.819 106.63L109.476 97.8963L106.318 98.0203L106.661 106.754Z" fill="#E57AB5"/>
<path d="M101.886 107.234L105.046 107.108L104.696 98.3677L101.536 98.4941L101.886 107.234Z" fill="#E57AB5"/>
<path d="M60.5898 123.475L64.177 123.334L63.8339 114.6L60.2466 114.741L60.5898 123.475Z" fill="#E57AB5"/>
<path d="M55.7084 123.673L59.2957 123.532L58.9525 114.799L55.3653 114.94L55.7084 123.673Z" fill="#E57AB5"/>
<path d="M69.62 123.122L72.7776 122.998L72.4345 114.265L69.2769 114.389L69.62 123.122Z" fill="#E57AB5"/>
<path d="M65.3201 123.293L68.4777 123.169L68.1345 114.436L64.977 114.56L65.3201 123.293Z" fill="#E57AB5"/>
<path d="M77.7112 123.067L80.8712 122.94L80.5216 114.2L77.3616 114.327L77.7112 123.067Z" fill="#E57AB5"/>
<path d="M73.8697 122.949L77.0272 122.825L76.6841 114.091L73.5265 114.216L73.8697 122.949Z" fill="#E57AB5"/>
<path d="M87.3008 122.426L90.4584 122.302L90.1152 113.568L86.9577 113.692L87.3008 122.426Z" fill="#E57AB5"/>
<path d="M83.0009 122.597L86.1584 122.473L85.8153 113.739L82.6577 113.863L83.0009 122.597Z" fill="#E57AB5"/>
<path d="M20.3429 125.055L99.3319 121.952L98.9888 113.218L19.9997 116.322L20.3429 125.055Z" fill="#E57AB5"/>
<path d="M91.8614 122.254L95.0189 122.13L94.6758 113.397L91.5182 113.521L91.8614 122.254Z" fill="#E57AB5"/>
<path d="M105.292 121.731L108.45 121.607L108.107 112.874L104.949 112.998L105.292 121.731Z" fill="#E57AB5"/>
<path d="M100.497 122.189L103.657 122.063L103.308 113.323L100.148 113.449L100.497 122.189Z" fill="#E57AB5"/>
<path d="M61.3184 94.481L64.9056 94.3401L64.5625 85.6068L60.9753 85.7478L61.3184 94.481Z" fill="#E57AB5"/>
<path d="M56.4372 94.6792L60.0244 94.5382L59.6813 85.8049L56.0941 85.9459L56.4372 94.6792Z" fill="#E57AB5"/>
<path d="M70.3488 94.1383L73.5063 94.0143L73.1632 85.281L70.0056 85.4051L70.3488 94.1383Z" fill="#E57AB5"/>
<path d="M66.0487 94.2992L69.2063 94.1752L68.8632 85.4419L65.7056 85.566L66.0487 94.2992Z" fill="#E57AB5"/>
<path d="M78.9084 93.7937L82.0659 93.6697L81.7228 84.9364L78.5652 85.0605L78.9084 93.7937Z" fill="#E57AB5"/>
<path d="M74.5983 93.9551L77.7559 93.8311L77.4127 85.0978L74.2552 85.2219L74.5983 93.9551Z" fill="#E57AB5"/>
<path d="M88.0294 93.4319L91.187 93.3079L90.8439 84.5746L87.6863 84.6987L88.0294 93.4319Z" fill="#E57AB5"/>
<path d="M83.7295 93.6028L86.8871 93.4788L86.544 84.7455L83.3864 84.8696L83.7295 93.6028Z" fill="#E57AB5"/>
<path d="M21.0716 96.0615L100.061 92.958L99.7175 84.2247L20.7285 87.3282L21.0716 96.0615Z" fill="#E57AB5"/>
<path d="M92.6 93.2604L95.7576 93.1364L95.4144 84.4031L92.2569 84.5272L92.6 93.2604Z" fill="#E57AB5"/>
<path d="M106.021 92.7373L109.179 92.6133L108.836 83.88L105.678 84.0041L106.021 92.7373Z" fill="#E57AB5"/>
<path d="M101.247 93.2184L104.407 93.092L104.057 84.352L100.897 84.4784L101.247 93.2184Z" fill="#E57AB5"/>
<path d="M61.9784 108.507L65.5657 108.366L65.2225 99.6327L61.6353 99.7737L61.9784 108.507Z" fill="#E57AB5"/>
<path d="M57.0773 108.696L60.6646 108.555L60.3214 99.8213L56.7342 99.9622L57.0773 108.696Z" fill="#E57AB5"/>
<path d="M71.0089 108.154L74.1665 108.03L73.8234 99.297L70.6658 99.4211L71.0089 108.154Z" fill="#E57AB5"/>
<path d="M66.6989 108.326L69.8564 108.202L69.5133 99.4683L66.3557 99.5923L66.6989 108.326Z" fill="#E57AB5"/>
<path d="M79.5584 107.81L82.7159 107.686L82.3728 98.9528L79.2153 99.0768L79.5584 107.81Z" fill="#E57AB5"/>
<path d="M75.2584 107.981L78.416 107.857L78.0729 99.1237L74.9153 99.2477L75.2584 107.981Z" fill="#E57AB5"/>
<path d="M88.6796 107.458L91.8372 107.334L91.494 98.6006L88.3365 98.7247L88.6796 107.458Z" fill="#E57AB5"/>
<path d="M84.3695 107.629L87.5271 107.505L87.184 98.7719L84.0264 98.8959L84.3695 107.629Z" fill="#E57AB5"/>
<path d="M21.7116 110.088L100.701 106.984L100.358 98.251L21.3685 101.354L21.7116 110.088Z" fill="#E57AB5"/>
<path d="M93.2402 107.277L96.3977 107.153L96.0546 98.4195L92.897 98.5435L93.2402 107.277Z" fill="#E57AB5"/>
<path d="M106.661 106.754L109.819 106.63L109.476 97.8963L106.318 98.0203L106.661 106.754Z" fill="#E57AB5"/>
<path d="M101.886 107.234L105.046 107.108L104.696 98.3677L101.536 98.4941L101.886 107.234Z" fill="#E57AB5"/>
<path d="M60.5898 123.475L64.177 123.334L63.8339 114.6L60.2466 114.741L60.5898 123.475Z" fill="#E57AB5"/>
<path d="M55.7084 123.673L59.2957 123.532L58.9525 114.799L55.3653 114.94L55.7084 123.673Z" fill="#E57AB5"/>
<path d="M69.62 123.122L72.7776 122.998L72.4345 114.265L69.2769 114.389L69.62 123.122Z" fill="#E57AB5"/>
<path d="M65.3201 123.293L68.4777 123.169L68.1345 114.436L64.977 114.56L65.3201 123.293Z" fill="#E57AB5"/>
<path d="M77.7112 123.067L80.8712 122.94L80.5216 114.2L77.3616 114.327L77.7112 123.067Z" fill="#E57AB5"/>
<path d="M73.8697 122.949L77.0272 122.825L76.6841 114.091L73.5265 114.216L73.8697 122.949Z" fill="#E57AB5"/>
<path d="M87.3008 122.426L90.4584 122.302L90.1152 113.568L86.9577 113.692L87.3008 122.426Z" fill="#E57AB5"/>
<path d="M83.0009 122.597L86.1584 122.473L85.8153 113.739L82.6577 113.863L83.0009 122.597Z" fill="#E57AB5"/>
<path d="M20.3429 125.055L99.3319 121.952L98.9888 113.218L19.9997 116.322L20.3429 125.055Z" fill="#E57AB5"/>
<path d="M91.8614 122.254L95.0189 122.13L94.6758 113.397L91.5182 113.521L91.8614 122.254Z" fill="#E57AB5"/>
<path d="M105.292 121.731L108.45 121.607L108.107 112.874L104.949 112.998L105.292 121.731Z" fill="#E57AB5"/>
<path d="M100.497 122.189L103.657 122.063L103.308 113.323L100.148 113.449L100.497 122.189Z" fill="#E57AB5"/>
<path d="M61.3195 136.483L64.9067 136.342L64.5636 127.609L60.9764 127.75L61.3195 136.483Z" fill="#E57AB5"/>
<path d="M56.4383 136.681L60.0255 136.541L59.6824 127.807L56.0952 127.948L56.4383 136.681Z" fill="#E57AB5"/>
<path d="M70.3499 136.131L73.5074 136.007L73.1643 127.273L70.0067 127.398L70.3499 136.131Z" fill="#E57AB5"/>
<path d="M66.0498 136.302L69.2074 136.178L68.8643 127.444L65.7067 127.568L66.0498 136.302Z" fill="#E57AB5"/>
<path d="M78.9094 135.796L82.067 135.672L81.7239 126.939L78.5663 127.063L78.9094 135.796Z" fill="#E57AB5"/>
<path d="M74.5994 135.957L77.757 135.833L77.4138 127.1L74.2563 127.224L74.5994 135.957Z" fill="#E57AB5"/>
<path d="M88.0307 135.434L91.1882 135.31L90.8451 126.577L87.6875 126.701L88.0307 135.434Z" fill="#E57AB5"/>
<path d="M83.7306 135.605L86.8882 135.481L86.5451 126.748L83.3875 126.872L83.7306 135.605Z" fill="#E57AB5"/>
<path d="M21.0627 138.064L100.052 134.96L99.7086 126.227L20.7196 129.331L21.0627 138.064Z" fill="#E57AB5"/>
<path d="M92.5912 135.263L95.7488 135.139L95.4056 126.406L92.2481 126.53L92.5912 135.263Z" fill="#E57AB5"/>
<path d="M106.022 134.74L109.18 134.616L108.837 125.882L105.679 126.006L106.022 134.74Z" fill="#E57AB5"/>
<path d="M101.217 135.188L104.377 135.062L104.027 126.322L100.867 126.448L101.217 135.188Z" fill="#E57AB5"/>
<path d="M61.9696 150.509L65.5569 150.368L65.2138 141.635L61.6265 141.776L61.9696 150.509Z" fill="#E57AB5"/>
<path d="M57.0783 150.698L60.6655 150.557L60.3224 141.824L56.7352 141.965L57.0783 150.698Z" fill="#E57AB5"/>
<path d="M70.9999 150.157L74.1575 150.033L73.8143 141.299L70.6568 141.423L70.9999 150.157Z" fill="#E57AB5"/>
<path d="M66.7 150.318L69.8575 150.194L69.5144 141.461L66.3568 141.585L66.7 150.318Z" fill="#E57AB5"/>
<path d="M79.5595 149.813L82.717 149.688L82.3739 140.955L79.2164 141.079L79.5595 149.813Z" fill="#E57AB5"/>
<path d="M75.2595 149.983L78.4171 149.859L78.074 141.126L74.9164 141.25L75.2595 149.983Z" fill="#E57AB5"/>
<path d="M88.6807 149.46L91.8383 149.336L91.4951 140.603L88.3376 140.727L88.6807 149.46Z" fill="#E57AB5"/>
<path d="M84.3708 149.622L87.5283 149.498L87.1852 140.764L84.0276 140.888L84.3708 149.622Z" fill="#E57AB5"/>
<path d="M21.7127 152.09L100.702 148.987L100.359 140.253L21.3696 143.357L21.7127 152.09Z" fill="#E57AB5"/>
<path d="M93.2413 149.279L96.3988 149.155L96.0557 140.422L92.8981 140.546L93.2413 149.279Z" fill="#E57AB5"/>
<path d="M106.662 148.756L109.82 148.632L109.477 139.899L106.319 140.023L106.662 148.756Z" fill="#E57AB5"/>
<path d="M101.856 149.204L105.016 149.078L104.666 140.338L101.506 140.464L101.856 149.204Z" fill="#E57AB5"/>
<path d="M60.5908 165.477L64.178 165.336L63.8348 156.603L60.2476 156.744L60.5908 165.477Z" fill="#E57AB5"/>
<path d="M55.6996 165.665L59.2869 165.524L58.9437 156.791L55.3565 156.932L55.6996 165.665Z" fill="#E57AB5"/>
<path d="M69.6212 165.124L72.7788 165L72.4357 156.267L69.2781 156.391L69.6212 165.124Z" fill="#E57AB5"/>
<path d="M65.3212 165.295L68.4788 165.171L68.1356 156.438L64.9781 156.562L65.3212 165.295Z" fill="#E57AB5"/>
<path d="M77.6812 165.027L80.8412 164.9L80.4916 156.16L77.3316 156.287L77.6812 165.027Z" fill="#E57AB5"/>
<path d="M73.8708 164.951L77.0283 164.827L76.6852 156.094L73.5276 156.218L73.8708 164.951Z" fill="#E57AB5"/>
<path d="M87.2919 164.428L90.4495 164.304L90.1063 155.571L86.9488 155.695L87.2919 164.428Z" fill="#E57AB5"/>
<path d="M82.9918 164.599L86.1494 164.475L85.8063 155.742L82.6487 155.866L82.9918 164.599Z" fill="#E57AB5"/>
<path d="M20.334 167.058L99.323 163.954L98.9799 155.221L19.9908 158.324L20.334 167.058Z" fill="#E57AB5"/>
<path d="M91.8625 164.246L95.02 164.122L94.6769 155.389L91.5193 155.513L91.8625 164.246Z" fill="#E57AB5"/>
<path d="M105.294 163.723L108.451 163.599L108.108 154.866L104.95 154.99L105.294 163.723Z" fill="#E57AB5"/>
<path d="M100.467 164.159L103.627 164.033L103.278 155.293L100.118 155.419L100.467 164.159Z" fill="#E57AB5"/>
<path d="M61.3195 136.483L64.9067 136.342L64.5636 127.609L60.9764 127.75L61.3195 136.483Z" fill="#E57AB5"/>
<path d="M56.4383 136.681L60.0255 136.541L59.6824 127.807L56.0952 127.948L56.4383 136.681Z" fill="#E57AB5"/>
<path d="M70.3499 136.131L73.5074 136.007L73.1643 127.273L70.0067 127.398L70.3499 136.131Z" fill="#E57AB5"/>
<path d="M66.0498 136.302L69.2074 136.178L68.8643 127.444L65.7067 127.568L66.0498 136.302Z" fill="#E57AB5"/>
<path d="M78.9094 135.796L82.067 135.672L81.7239 126.939L78.5663 127.063L78.9094 135.796Z" fill="#E57AB5"/>
<path d="M74.5994 135.957L77.757 135.833L77.4138 127.1L74.2563 127.224L74.5994 135.957Z" fill="#E57AB5"/>
<path d="M88.0307 135.434L91.1882 135.31L90.8451 126.577L87.6875 126.701L88.0307 135.434Z" fill="#E57AB5"/>
<path d="M83.7306 135.605L86.8882 135.481L86.5451 126.748L83.3875 126.872L83.7306 135.605Z" fill="#E57AB5"/>
<path d="M21.0627 138.064L100.052 134.96L99.7086 126.227L20.7196 129.331L21.0627 138.064Z" fill="#E57AB5"/>
<path d="M92.5912 135.263L95.7488 135.139L95.4056 126.406L92.2481 126.53L92.5912 135.263Z" fill="#E57AB5"/>
<path d="M106.022 134.74L109.18 134.616L108.837 125.882L105.679 126.006L106.022 134.74Z" fill="#E57AB5"/>
<path d="M101.217 135.188L104.377 135.062L104.027 126.322L100.867 126.448L101.217 135.188Z" fill="#E57AB5"/>
<path d="M61.9696 150.509L65.5569 150.368L65.2138 141.635L61.6265 141.776L61.9696 150.509Z" fill="#E57AB5"/>
<path d="M57.0783 150.698L60.6655 150.557L60.3224 141.824L56.7352 141.965L57.0783 150.698Z" fill="#E57AB5"/>
<path d="M70.9999 150.157L74.1575 150.033L73.8143 141.299L70.6568 141.423L70.9999 150.157Z" fill="#E57AB5"/>
<path d="M66.7 150.318L69.8575 150.194L69.5144 141.461L66.3568 141.585L66.7 150.318Z" fill="#E57AB5"/>
<path d="M79.5595 149.813L82.717 149.688L82.3739 140.955L79.2164 141.079L79.5595 149.813Z" fill="#E57AB5"/>
<path d="M75.2595 149.983L78.4171 149.859L78.074 141.126L74.9164 141.25L75.2595 149.983Z" fill="#E57AB5"/>
<path d="M88.6807 149.46L91.8383 149.336L91.4951 140.603L88.3376 140.727L88.6807 149.46Z" fill="#E57AB5"/>
<path d="M84.3708 149.622L87.5283 149.498L87.1852 140.764L84.0276 140.888L84.3708 149.622Z" fill="#E57AB5"/>
<path d="M21.7127 152.09L100.702 148.987L100.359 140.253L21.3696 143.357L21.7127 152.09Z" fill="#E57AB5"/>
<path d="M93.2413 149.279L96.3988 149.155L96.0557 140.422L92.8981 140.546L93.2413 149.279Z" fill="#E57AB5"/>
<path d="M106.662 148.756L109.82 148.632L109.477 139.899L106.319 140.023L106.662 148.756Z" fill="#E57AB5"/>
<path d="M101.856 149.204L105.016 149.078L104.666 140.338L101.506 140.464L101.856 149.204Z" fill="#E57AB5"/>
<path d="M60.5908 165.477L64.178 165.336L63.8348 156.603L60.2476 156.744L60.5908 165.477Z" fill="#E57AB5"/>
<path d="M55.6996 165.665L59.2869 165.524L58.9437 156.791L55.3565 156.932L55.6996 165.665Z" fill="#E57AB5"/>
<path d="M69.6212 165.124L72.7788 165L72.4357 156.267L69.2781 156.391L69.6212 165.124Z" fill="#E57AB5"/>
<path d="M65.3212 165.295L68.4788 165.171L68.1356 156.438L64.9781 156.562L65.3212 165.295Z" fill="#E57AB5"/>
<path d="M77.6812 165.027L80.8412 164.9L80.4916 156.16L77.3316 156.287L77.6812 165.027Z" fill="#E57AB5"/>
<path d="M73.8708 164.951L77.0283 164.827L76.6852 156.094L73.5276 156.218L73.8708 164.951Z" fill="#E57AB5"/>
<path d="M87.2919 164.428L90.4495 164.304L90.1063 155.571L86.9488 155.695L87.2919 164.428Z" fill="#E57AB5"/>
<path d="M82.9918 164.599L86.1494 164.475L85.8063 155.742L82.6487 155.866L82.9918 164.599Z" fill="#E57AB5"/>
<path d="M20.334 167.058L99.323 163.954L98.9799 155.221L19.9908 158.324L20.334 167.058Z" fill="#E57AB5"/>
<path d="M91.8625 164.246L95.02 164.122L94.6769 155.389L91.5193 155.513L91.8625 164.246Z" fill="#E57AB5"/>
<path d="M105.294 163.723L108.451 163.599L108.108 154.866L104.95 154.99L105.294 163.723Z" fill="#E57AB5"/>
<path d="M100.467 164.159L103.627 164.033L103.278 155.293L100.118 155.419L100.467 164.159Z" fill="#E57AB5"/>
<path d="M61.3213 179.487L64.9086 179.346L64.5654 170.612L60.9782 170.753L61.3213 179.487Z" fill="#E57AB5"/>
<path d="M56.4301 179.675L60.0173 179.534L59.6742 170.8L56.087 170.941L56.4301 179.675Z" fill="#E57AB5"/>
<path d="M70.3517 179.134L73.5093 179.01L73.1661 170.277L70.0086 170.401L70.3517 179.134Z" fill="#E57AB5"/>
<path d="M66.0517 179.305L69.2092 179.181L68.8661 170.448L65.7085 170.572L66.0517 179.305Z" fill="#E57AB5"/>
<path d="M78.9113 178.789L82.0688 178.665L81.7257 169.932L78.5681 170.056L78.9113 178.789Z" fill="#E57AB5"/>
<path d="M74.6012 178.961L77.7588 178.837L77.4157 170.103L74.2581 170.227L74.6012 178.961Z" fill="#E57AB5"/>
<path d="M88.0224 178.438L91.1799 178.313L90.8368 169.58L87.6792 169.704L88.0224 178.438Z" fill="#E57AB5"/>
<path d="M83.7224 178.608L86.88 178.484L86.5369 169.751L83.3793 169.875L83.7224 178.608Z" fill="#E57AB5"/>
<path d="M21.0645 181.067L100.054 177.964L99.7105 169.23L20.7214 172.334L21.0645 181.067Z" fill="#E57AB5"/>
<path d="M92.593 178.256L95.7505 178.132L95.4074 169.399L92.2498 169.523L92.593 178.256Z" fill="#E57AB5"/>
<path d="M106.014 177.733L109.172 177.609L108.829 168.876L105.671 169L106.014 177.733Z" fill="#E57AB5"/>
<path d="M101.177 178.158L104.337 178.032L103.987 169.292L100.827 169.418L101.177 178.158Z" fill="#E57AB5"/>
<path d="M61.9713 193.503L65.5586 193.362L65.2155 184.628L61.6282 184.769L61.9713 193.503Z" fill="#E57AB5"/>
<path d="M57.0801 193.701L60.6674 193.56L60.3242 184.827L56.737 184.968L57.0801 193.701Z" fill="#E57AB5"/>
<path d="M71.0019 193.16L74.1594 193.036L73.8163 184.302L70.6587 184.427L71.0019 193.16Z" fill="#E57AB5"/>
<path d="M66.6918 193.321L69.8494 193.197L69.5062 184.464L66.3487 184.588L66.6918 193.321Z" fill="#E57AB5"/>
<path d="M79.5513 192.816L82.7089 192.692L82.3657 183.958L79.2082 184.082L79.5513 192.816Z" fill="#E57AB5"/>
<path d="M75.2514 192.977L78.4089 192.853L78.0658 184.119L74.9082 184.243L75.2514 192.977Z" fill="#E57AB5"/>
<path d="M88.6825 192.453L91.8401 192.329L91.497 183.596L88.3394 183.72L88.6825 192.453Z" fill="#E57AB5"/>
<path d="M84.3725 192.625L87.53 192.501L87.1869 183.767L84.0293 183.892L84.3725 192.625Z" fill="#E57AB5"/>
<path d="M21.7146 195.083L100.704 191.98L100.36 183.247L21.3714 186.35L21.7146 195.083Z" fill="#E57AB5"/>
<path d="M93.2331 192.282L96.3906 192.158L96.0475 183.425L92.89 183.549L93.2331 192.282Z" fill="#E57AB5"/>
<path d="M106.664 191.759L109.822 191.635L109.479 182.902L106.321 183.026L106.664 191.759Z" fill="#E57AB5"/>
<path d="M101.826 192.164L104.986 192.038L104.636 183.298L101.477 183.424L101.826 192.164Z" fill="#E57AB5"/>
<path d="M60.5827 208.48L64.1699 208.339L63.8268 199.606L60.2396 199.747L60.5827 208.48Z" fill="#E57AB5"/>
<path d="M55.7013 208.668L59.2886 208.527L58.9454 199.794L55.3582 199.935L55.7013 208.668Z" fill="#E57AB5"/>
<path d="M69.6129 208.128L72.7705 208.004L72.4274 199.27L69.2698 199.394L69.6129 208.128Z" fill="#E57AB5"/>
<path d="M65.323 208.288L68.4806 208.164L68.1375 199.431L64.9799 199.555L65.323 208.288Z" fill="#E57AB5"/>
<path d="M77.6513 207.997L80.8113 207.87L80.4617 199.13L77.3017 199.257L77.6513 207.997Z" fill="#E57AB5"/>
<path d="M73.8726 207.954L77.0302 207.83L76.687 199.097L73.5295 199.221L73.8726 207.954Z" fill="#E57AB5"/>
<path d="M87.2938 207.431L90.4513 207.307L90.1082 198.574L86.9506 198.698L87.2938 207.431Z" fill="#E57AB5"/>
<path d="M82.9938 207.592L86.1514 207.468L85.8082 198.735L82.6507 198.859L82.9938 207.592Z" fill="#E57AB5"/>
<path d="M20.3358 210.061L99.3248 206.957L98.9817 198.224L19.9927 201.327L20.3358 210.061Z" fill="#E57AB5"/>
<path d="M91.8643 207.25L95.0219 207.126L94.6787 198.392L91.5212 198.516L91.8643 207.25Z" fill="#E57AB5"/>
<path d="M105.285 206.726L108.443 206.602L108.1 197.869L104.942 197.993L105.285 206.726Z" fill="#E57AB5"/>
<path d="M100.427 207.129L103.587 207.003L103.238 198.263L100.078 198.389L100.427 207.129Z" fill="#E57AB5"/>
<path d="M61.3213 179.487L64.9086 179.346L64.5654 170.612L60.9782 170.753L61.3213 179.487Z" fill="#E57AB5"/>
<path d="M56.4301 179.675L60.0173 179.534L59.6742 170.8L56.087 170.941L56.4301 179.675Z" fill="#E57AB5"/>
<path d="M70.3517 179.134L73.5093 179.01L73.1661 170.277L70.0086 170.401L70.3517 179.134Z" fill="#E57AB5"/>
<path d="M66.0517 179.305L69.2092 179.181L68.8661 170.448L65.7085 170.572L66.0517 179.305Z" fill="#E57AB5"/>
<path d="M78.9113 178.789L82.0688 178.665L81.7257 169.932L78.5681 170.056L78.9113 178.789Z" fill="#E57AB5"/>
<path d="M74.6012 178.961L77.7588 178.837L77.4157 170.103L74.2581 170.227L74.6012 178.961Z" fill="#E57AB5"/>
<path d="M88.0224 178.438L91.1799 178.313L90.8368 169.58L87.6792 169.704L88.0224 178.438Z" fill="#E57AB5"/>
<path d="M83.7224 178.608L86.88 178.484L86.5369 169.751L83.3793 169.875L83.7224 178.608Z" fill="#E57AB5"/>
<path d="M21.0645 181.067L100.054 177.964L99.7105 169.23L20.7214 172.334L21.0645 181.067Z" fill="#E57AB5"/>
<path d="M92.593 178.256L95.7505 178.132L95.4074 169.399L92.2498 169.523L92.593 178.256Z" fill="#E57AB5"/>
<path d="M106.014 177.733L109.172 177.609L108.829 168.876L105.671 169L106.014 177.733Z" fill="#E57AB5"/>
<path d="M101.177 178.158L104.337 178.032L103.987 169.292L100.827 169.418L101.177 178.158Z" fill="#E57AB5"/>
<path d="M61.9713 193.503L65.5586 193.362L65.2155 184.628L61.6282 184.769L61.9713 193.503Z" fill="#E57AB5"/>
<path d="M57.0801 193.701L60.6674 193.56L60.3242 184.827L56.737 184.968L57.0801 193.701Z" fill="#E57AB5"/>
<path d="M71.0019 193.16L74.1594 193.036L73.8163 184.302L70.6587 184.427L71.0019 193.16Z" fill="#E57AB5"/>
<path d="M66.6918 193.321L69.8494 193.197L69.5062 184.464L66.3487 184.588L66.6918 193.321Z" fill="#E57AB5"/>
<path d="M79.5513 192.816L82.7089 192.692L82.3657 183.958L79.2082 184.082L79.5513 192.816Z" fill="#E57AB5"/>
<path d="M75.2514 192.977L78.4089 192.853L78.0658 184.119L74.9082 184.243L75.2514 192.977Z" fill="#E57AB5"/>
<path d="M88.6825 192.453L91.8401 192.329L91.497 183.596L88.3394 183.72L88.6825 192.453Z" fill="#E57AB5"/>
<path d="M84.3725 192.625L87.53 192.501L87.1869 183.767L84.0293 183.892L84.3725 192.625Z" fill="#E57AB5"/>
<path d="M21.7146 195.083L100.704 191.98L100.36 183.247L21.3714 186.35L21.7146 195.083Z" fill="#E57AB5"/>
<path d="M93.2331 192.282L96.3906 192.158L96.0475 183.425L92.89 183.549L93.2331 192.282Z" fill="#E57AB5"/>
<path d="M106.664 191.759L109.822 191.635L109.479 182.902L106.321 183.026L106.664 191.759Z" fill="#E57AB5"/>
<path d="M101.826 192.164L104.986 192.038L104.636 183.298L101.477 183.424L101.826 192.164Z" fill="#E57AB5"/>
<path d="M60.5827 208.48L64.1699 208.339L63.8268 199.606L60.2396 199.747L60.5827 208.48Z" fill="#E57AB5"/>
<path d="M55.7013 208.668L59.2886 208.527L58.9454 199.794L55.3582 199.935L55.7013 208.668Z" fill="#E57AB5"/>
<path d="M69.6129 208.128L72.7705 208.004L72.4274 199.27L69.2698 199.394L69.6129 208.128Z" fill="#E57AB5"/>
<path d="M65.323 208.288L68.4806 208.164L68.1375 199.431L64.9799 199.555L65.323 208.288Z" fill="#E57AB5"/>
<path d="M77.6513 207.997L80.8113 207.87L80.4617 199.13L77.3017 199.257L77.6513 207.997Z" fill="#E57AB5"/>
<path d="M73.8726 207.954L77.0302 207.83L76.687 199.097L73.5295 199.221L73.8726 207.954Z" fill="#E57AB5"/>
<path d="M87.2938 207.431L90.4513 207.307L90.1082 198.574L86.9506 198.698L87.2938 207.431Z" fill="#E57AB5"/>
<path d="M82.9938 207.592L86.1514 207.468L85.8082 198.735L82.6507 198.859L82.9938 207.592Z" fill="#E57AB5"/>
<path d="M20.3358 210.061L99.3248 206.957L98.9817 198.224L19.9927 201.327L20.3358 210.061Z" fill="#E57AB5"/>
<path d="M91.8643 207.25L95.0219 207.126L94.6787 198.392L91.5212 198.516L91.8643 207.25Z" fill="#E57AB5"/>
<path d="M105.285 206.726L108.443 206.602L108.1 197.869L104.942 197.993L105.285 206.726Z" fill="#E57AB5"/>
<path d="M100.427 207.129L103.587 207.003L103.238 198.263L100.078 198.389L100.427 207.129Z" fill="#E57AB5"/>
<path d="M61.3132 222.48L64.9004 222.339L64.5573 213.605L60.97 213.746L61.3132 222.48Z" fill="#E57AB5"/>
<path d="M56.4319 222.678L60.0192 222.537L59.676 213.804L56.0888 213.945L56.4319 222.678Z" fill="#E57AB5"/>
<path d="M70.3435 222.137L73.5011 222.013L73.158 213.28L70.0004 213.404L70.3435 222.137Z" fill="#E57AB5"/>
<path d="M66.0435 222.298L69.201 222.174L68.8579 213.441L65.7004 213.565L66.0435 222.298Z" fill="#E57AB5"/>
<path d="M78.9031 221.793L82.0607 221.668L81.7175 212.935L78.56 213.059L78.9031 221.793Z" fill="#E57AB5"/>
<path d="M74.593 221.964L77.7506 221.84L77.4075 213.106L74.2499 213.231L74.593 221.964Z" fill="#E57AB5"/>
<path d="M88.0243 221.441L91.1819 221.317L90.8388 212.583L87.6812 212.707L88.0243 221.441Z" fill="#E57AB5"/>
<path d="M83.7243 221.602L86.8818 221.478L86.5387 212.744L83.3811 212.868L83.7243 221.602Z" fill="#E57AB5"/>
<path d="M21.0664 224.07L100.055 220.967L99.7123 212.233L20.7232 215.337L21.0664 224.07Z" fill="#E57AB5"/>
<path d="M92.5849 221.259L95.7424 221.135L95.3993 212.402L92.2418 212.526L92.5849 221.259Z" fill="#E57AB5"/>
<path d="M106.016 220.736L109.174 220.612L108.83 211.879L105.673 212.003L106.016 220.736Z" fill="#E57AB5"/>
<path d="M101.147 221.128L104.307 221.002L103.957 212.262L100.797 212.388L101.147 221.128Z" fill="#E57AB5"/>
<path d="M61.9733 236.506L65.5605 236.365L65.2174 227.631L61.6302 227.772L61.9733 236.506Z" fill="#E57AB5"/>
<path d="M57.072 236.694L60.6592 236.553L60.316 227.82L56.7288 227.961L57.072 236.694Z" fill="#E57AB5"/>
<path d="M71.0036 236.153L74.1611 236.029L73.818 227.296L70.6604 227.42L71.0036 236.153Z" fill="#E57AB5"/>
<path d="M66.6936 236.324L69.8512 236.2L69.5081 227.467L66.3505 227.591L66.6936 236.324Z" fill="#E57AB5"/>
<path d="M79.5532 235.819L82.7107 235.695L82.3676 226.961L79.21 227.085L79.5532 235.819Z" fill="#E57AB5"/>
<path d="M75.2532 235.98L78.4108 235.856L78.0676 227.122L74.9101 227.247L75.2532 235.98Z" fill="#E57AB5"/>
<path d="M88.6743 235.457L91.8319 235.333L91.4888 226.599L88.3312 226.723L88.6743 235.457Z" fill="#E57AB5"/>
<path d="M84.3644 235.628L87.522 235.504L87.1788 226.771L84.0213 226.895L84.3644 235.628Z" fill="#E57AB5"/>
<path d="M21.7064 238.086L100.695 234.983L100.352 226.25L21.3633 229.353L21.7064 238.086Z" fill="#E57AB5"/>
<path d="M93.2349 235.285L96.3925 235.161L96.0493 226.428L92.8918 226.552L93.2349 235.285Z" fill="#E57AB5"/>
<path d="M106.656 234.752L109.814 234.628L109.47 225.895L106.313 226.019L106.656 234.752Z" fill="#E57AB5"/>
<path d="M101.786 235.134L104.946 235.008L104.596 226.268L101.436 226.394L101.786 235.134Z" fill="#E57AB5"/>
<path d="M60.5844 251.473L64.1716 251.332L63.8285 242.599L60.2413 242.74L60.5844 251.473Z" fill="#E57AB5"/>
<path d="M55.7032 251.672L59.2904 251.531L58.9473 242.797L55.36 242.938L55.7032 251.672Z" fill="#E57AB5"/>
<path d="M69.6149 251.121L72.7725 250.997L72.4293 242.263L69.2718 242.388L69.6149 251.121Z" fill="#E57AB5"/>
<path d="M65.3148 251.292L68.4724 251.168L68.1293 242.434L64.9717 242.558L65.3148 251.292Z" fill="#E57AB5"/>
<path d="M77.6112 250.967L80.7712 250.84L80.4216 242.1L77.2616 242.227L77.6112 250.967Z" fill="#E57AB5"/>
<path d="M73.8644 250.947L77.022 250.823L76.6788 242.09L73.5213 242.214L73.8644 250.947Z" fill="#E57AB5"/>
<path d="M87.2956 250.424L90.4531 250.3L90.11 241.567L86.9525 241.691L87.2956 250.424Z" fill="#E57AB5"/>
<path d="M82.9955 250.595L86.1531 250.471L85.8099 241.738L82.6524 241.862L82.9955 250.595Z" fill="#E57AB5"/>
<path d="M20.3376 253.054L99.3267 249.95L98.9835 241.217L19.9945 244.321L20.3376 253.054Z" fill="#E57AB5"/>
<path d="M91.8561 250.253L95.0137 250.129L94.6705 241.396L91.513 241.52L91.8561 250.253Z" fill="#E57AB5"/>
<path d="M105.287 249.73L108.445 249.606L108.102 240.872L104.944 240.996L105.287 249.73Z" fill="#E57AB5"/>
<path d="M100.397 250.089L103.557 249.963L103.208 241.223L100.048 241.349L100.397 250.089Z" fill="#E57AB5"/>
<path d="M61.3132 222.48L64.9004 222.339L64.5573 213.605L60.97 213.746L61.3132 222.48Z" fill="#E57AB5"/>
<path d="M56.4319 222.678L60.0192 222.537L59.676 213.804L56.0888 213.945L56.4319 222.678Z" fill="#E57AB5"/>
<path d="M70.3435 222.137L73.5011 222.013L73.158 213.28L70.0004 213.404L70.3435 222.137Z" fill="#E57AB5"/>
<path d="M66.0435 222.298L69.201 222.174L68.8579 213.441L65.7004 213.565L66.0435 222.298Z" fill="#E57AB5"/>
<path d="M78.9031 221.793L82.0607 221.668L81.7175 212.935L78.56 213.059L78.9031 221.793Z" fill="#E57AB5"/>
<path d="M74.593 221.964L77.7506 221.84L77.4075 213.106L74.2499 213.231L74.593 221.964Z" fill="#E57AB5"/>
<path d="M88.0243 221.441L91.1819 221.317L90.8388 212.583L87.6812 212.707L88.0243 221.441Z" fill="#E57AB5"/>
<path d="M83.7243 221.602L86.8818 221.478L86.5387 212.744L83.3811 212.868L83.7243 221.602Z" fill="#E57AB5"/>
<path d="M21.0664 224.07L100.055 220.967L99.7123 212.233L20.7232 215.337L21.0664 224.07Z" fill="#E57AB5"/>
<path d="M92.5849 221.259L95.7424 221.135L95.3993 212.402L92.2418 212.526L92.5849 221.259Z" fill="#E57AB5"/>
<path d="M106.016 220.736L109.174 220.612L108.83 211.879L105.673 212.003L106.016 220.736Z" fill="#E57AB5"/>
<path d="M101.147 221.128L104.307 221.002L103.957 212.262L100.797 212.388L101.147 221.128Z" fill="#E57AB5"/>
<path d="M61.9733 236.506L65.5605 236.365L65.2174 227.631L61.6302 227.772L61.9733 236.506Z" fill="#E57AB5"/>
<path d="M57.072 236.694L60.6592 236.553L60.316 227.82L56.7288 227.961L57.072 236.694Z" fill="#E57AB5"/>
<path d="M71.0036 236.153L74.1611 236.029L73.818 227.296L70.6604 227.42L71.0036 236.153Z" fill="#E57AB5"/>
<path d="M66.6936 236.324L69.8512 236.2L69.5081 227.467L66.3505 227.591L66.6936 236.324Z" fill="#E57AB5"/>
<path d="M79.5532 235.819L82.7107 235.695L82.3676 226.961L79.21 227.085L79.5532 235.819Z" fill="#E57AB5"/>
<path d="M75.2532 235.98L78.4108 235.856L78.0676 227.122L74.9101 227.247L75.2532 235.98Z" fill="#E57AB5"/>
<path d="M88.6743 235.457L91.8319 235.333L91.4888 226.599L88.3312 226.723L88.6743 235.457Z" fill="#E57AB5"/>
<path d="M84.3644 235.628L87.522 235.504L87.1788 226.771L84.0213 226.895L84.3644 235.628Z" fill="#E57AB5"/>
<path d="M21.7064 238.086L100.695 234.983L100.352 226.25L21.3633 229.353L21.7064 238.086Z" fill="#E57AB5"/>
<path d="M93.2349 235.285L96.3925 235.161L96.0493 226.428L92.8918 226.552L93.2349 235.285Z" fill="#E57AB5"/>
<path d="M106.656 234.752L109.814 234.628L109.47 225.895L106.313 226.019L106.656 234.752Z" fill="#E57AB5"/>
<path d="M101.786 235.134L104.946 235.008L104.596 226.268L101.436 226.394L101.786 235.134Z" fill="#E57AB5"/>
<path d="M60.5844 251.473L64.1716 251.332L63.8285 242.599L60.2413 242.74L60.5844 251.473Z" fill="#E57AB5"/>
<path d="M55.7032 251.672L59.2904 251.531L58.9473 242.797L55.36 242.938L55.7032 251.672Z" fill="#E57AB5"/>
<path d="M69.6149 251.121L72.7725 250.997L72.4293 242.263L69.2718 242.388L69.6149 251.121Z" fill="#E57AB5"/>
<path d="M65.3148 251.292L68.4724 251.168L68.1293 242.434L64.9717 242.558L65.3148 251.292Z" fill="#E57AB5"/>
<path d="M77.6112 250.967L80.7712 250.84L80.4216 242.1L77.2616 242.227L77.6112 250.967Z" fill="#E57AB5"/>
<path d="M73.8644 250.947L77.022 250.823L76.6788 242.09L73.5213 242.214L73.8644 250.947Z" fill="#E57AB5"/>
<path d="M87.2956 250.424L90.4531 250.3L90.11 241.567L86.9525 241.691L87.2956 250.424Z" fill="#E57AB5"/>
<path d="M82.9955 250.595L86.1531 250.471L85.8099 241.738L82.6524 241.862L82.9955 250.595Z" fill="#E57AB5"/>
<path d="M20.3376 253.054L99.3267 249.95L98.9835 241.217L19.9945 244.321L20.3376 253.054Z" fill="#E57AB5"/>
<path d="M91.8561 250.253L95.0137 250.129L94.6705 241.396L91.513 241.52L91.8561 250.253Z" fill="#E57AB5"/>
<path d="M105.287 249.73L108.445 249.606L108.102 240.872L104.944 240.996L105.287 249.73Z" fill="#E57AB5"/>
<path d="M100.397 250.089L103.557 249.963L103.208 241.223L100.048 241.349L100.397 250.089Z" fill="#E57AB5"/>
<path d="M61.3157 266.484L64.903 266.343L64.5598 257.609L60.9726 257.75L61.3157 266.484Z" fill="#E57AB5"/>
<path d="M56.4245 266.682L60.0117 266.541L59.6686 257.808L56.0814 257.948L56.4245 266.682Z" fill="#E57AB5"/>
<path d="M70.3461 266.131L73.5037 266.007L73.1605 257.274L70.003 257.398L70.3461 266.131Z" fill="#E57AB5"/>
<path d="M66.046 266.302L69.2036 266.178L68.8605 257.445L65.7029 257.569L66.046 266.302Z" fill="#E57AB5"/>
<path d="M78.9057 265.796L82.0632 265.672L81.7201 256.939L78.5625 257.063L78.9057 265.796Z" fill="#E57AB5"/>
<path d="M74.5956 265.958L77.7532 265.834L77.41 257.1L74.2525 257.224L74.5956 265.958Z" fill="#E57AB5"/>
<path d="M88.0268 265.435L91.1843 265.311L90.8412 256.577L87.6836 256.701L88.0268 265.435Z" fill="#E57AB5"/>
<path d="M83.7268 265.606L86.8844 265.481L86.5413 256.748L83.3837 256.872L83.7268 265.606Z" fill="#E57AB5"/>
<path d="M21.0589 268.064L100.048 264.961L99.7048 256.227L20.7158 259.331L21.0589 268.064Z" fill="#E57AB5"/>
<path d="M92.5873 265.263L95.7449 265.139L95.4017 256.406L92.2442 256.53L92.5873 265.263Z" fill="#E57AB5"/>
<path d="M106.019 264.74L109.176 264.616L108.833 255.883L105.675 256.007L106.019 264.74Z" fill="#E57AB5"/>
<path d="M101.117 265.088L104.277 264.962L103.927 256.222L100.767 256.348L101.117 265.088Z" fill="#E57AB5"/>
<path d="M61.9657 280.51L65.553 280.369L65.2098 271.635L61.6226 271.776L61.9657 280.51Z" fill="#E57AB5"/>
<path d="M57.0746 280.698L60.6619 280.557L60.3187 271.824L56.7315 271.965L57.0746 280.698Z" fill="#E57AB5"/>
<path d="M70.9962 280.157L74.1538 280.033L73.8107 271.3L70.6531 271.424L70.9962 280.157Z" fill="#E57AB5"/>
<path d="M66.6862 280.318L69.8438 280.194L69.5006 271.461L66.3431 271.585L66.6862 280.318Z" fill="#E57AB5"/>
<path d="M79.5457 279.813L82.7032 279.689L82.3601 270.955L79.2026 271.08L79.5457 279.813Z" fill="#E57AB5"/>
<path d="M75.2458 279.984L78.4033 279.86L78.0602 271.126L74.9026 271.25L75.2458 279.984Z" fill="#E57AB5"/>
<path d="M88.6769 279.46L91.8345 279.336L91.4913 270.603L88.3338 270.727L88.6769 279.46Z" fill="#E57AB5"/>
<path d="M84.3668 279.622L87.5244 279.498L87.1813 270.765L84.0237 270.889L84.3668 279.622Z" fill="#E57AB5"/>
<path d="M21.709 282.09L100.698 278.987L100.355 270.254L21.3658 273.357L21.709 282.09Z" fill="#E57AB5"/>
<path d="M93.2275 279.279L96.385 279.155L96.0419 270.422L92.8843 270.546L93.2275 279.279Z" fill="#E57AB5"/>
<path d="M106.659 278.756L109.816 278.632L109.473 269.899L106.315 270.023L106.659 278.756Z" fill="#E57AB5"/>
<path d="M101.756 279.104L104.916 278.978L104.566 270.238L101.406 270.364L101.756 279.104Z" fill="#E57AB5"/>
<path d="M60.5871 295.477L64.1743 295.336L63.8312 286.603L60.244 286.744L60.5871 295.477Z" fill="#E57AB5"/>
<path d="M55.6957 295.665L59.283 295.525L58.9398 286.791L55.3526 286.932L55.6957 295.665Z" fill="#E57AB5"/>
<path d="M69.6173 295.125L72.7749 295.001L72.4318 286.267L69.2742 286.391L69.6173 295.125Z" fill="#E57AB5"/>
<path d="M65.3174 295.296L68.475 295.172L68.1318 286.438L64.9743 286.562L65.3174 295.296Z" fill="#E57AB5"/>
<path d="M77.5812 294.927L80.7412 294.8L80.3916 286.06L77.2316 286.187L77.5812 294.927Z" fill="#E57AB5"/>
<path d="M73.867 294.951L77.0245 294.827L76.6814 286.094L73.5238 286.218L73.867 294.951Z" fill="#E57AB5"/>
<path d="M87.2881 294.428L90.4457 294.304L90.1025 285.571L86.945 285.695L87.2881 294.428Z" fill="#E57AB5"/>
<path d="M82.9882 294.599L86.1458 294.475L85.8026 285.742L82.6451 285.866L82.9882 294.599Z" fill="#E57AB5"/>
<path d="M20.3302 297.058L99.3192 293.954L98.9761 285.221L19.987 288.324L20.3302 297.058Z" fill="#E57AB5"/>
<path d="M91.8587 294.247L95.0162 294.123L94.6731 285.389L91.5155 285.513L91.8587 294.247Z" fill="#E57AB5"/>
<path d="M105.28 293.724L108.437 293.599L108.094 284.866L104.937 284.99L105.28 293.724Z" fill="#E57AB5"/>
<path d="M100.357 294.059L103.517 293.933L103.168 285.193L100.008 285.319L100.357 294.059Z" fill="#E57AB5"/>
<path d="M61.3157 266.484L64.903 266.343L64.5598 257.609L60.9726 257.75L61.3157 266.484Z" fill="#E57AB5"/>
<path d="M56.4245 266.682L60.0117 266.541L59.6686 257.808L56.0814 257.948L56.4245 266.682Z" fill="#E57AB5"/>
<path d="M70.3461 266.131L73.5037 266.007L73.1605 257.274L70.003 257.398L70.3461 266.131Z" fill="#E57AB5"/>
<path d="M66.046 266.302L69.2036 266.178L68.8605 257.445L65.7029 257.569L66.046 266.302Z" fill="#E57AB5"/>
<path d="M78.9057 265.796L82.0632 265.672L81.7201 256.939L78.5625 257.063L78.9057 265.796Z" fill="#E57AB5"/>
<path d="M74.5956 265.958L77.7532 265.834L77.41 257.1L74.2525 257.224L74.5956 265.958Z" fill="#E57AB5"/>
<path d="M88.0268 265.435L91.1843 265.311L90.8412 256.577L87.6836 256.701L88.0268 265.435Z" fill="#E57AB5"/>
<path d="M83.7268 265.606L86.8844 265.481L86.5413 256.748L83.3837 256.872L83.7268 265.606Z" fill="#E57AB5"/>
<path d="M21.0589 268.064L100.048 264.961L99.7048 256.227L20.7158 259.331L21.0589 268.064Z" fill="#E57AB5"/>
<path d="M92.5873 265.263L95.7449 265.139L95.4017 256.406L92.2442 256.53L92.5873 265.263Z" fill="#E57AB5"/>
<path d="M106.019 264.74L109.176 264.616L108.833 255.883L105.675 256.007L106.019 264.74Z" fill="#E57AB5"/>
<path d="M101.117 265.088L104.277 264.962L103.927 256.222L100.767 256.348L101.117 265.088Z" fill="#E57AB5"/>
<path d="M61.9657 280.51L65.553 280.369L65.2098 271.635L61.6226 271.776L61.9657 280.51Z" fill="#E57AB5"/>
<path d="M57.0746 280.698L60.6619 280.557L60.3187 271.824L56.7315 271.965L57.0746 280.698Z" fill="#E57AB5"/>
<path d="M70.9962 280.157L74.1538 280.033L73.8107 271.3L70.6531 271.424L70.9962 280.157Z" fill="#E57AB5"/>
<path d="M66.6862 280.318L69.8438 280.194L69.5006 271.461L66.3431 271.585L66.6862 280.318Z" fill="#E57AB5"/>
<path d="M79.5457 279.813L82.7032 279.689L82.3601 270.955L79.2026 271.08L79.5457 279.813Z" fill="#E57AB5"/>
<path d="M75.2458 279.984L78.4033 279.86L78.0602 271.126L74.9026 271.25L75.2458 279.984Z" fill="#E57AB5"/>
<path d="M88.6769 279.46L91.8345 279.336L91.4913 270.603L88.3338 270.727L88.6769 279.46Z" fill="#E57AB5"/>
<path d="M84.3668 279.622L87.5244 279.498L87.1813 270.765L84.0237 270.889L84.3668 279.622Z" fill="#E57AB5"/>
<path d="M21.709 282.09L100.698 278.987L100.355 270.254L21.3658 273.357L21.709 282.09Z" fill="#E57AB5"/>
<path d="M93.2275 279.279L96.385 279.155L96.0419 270.422L92.8843 270.546L93.2275 279.279Z" fill="#E57AB5"/>
<path d="M106.659 278.756L109.816 278.632L109.473 269.899L106.315 270.023L106.659 278.756Z" fill="#E57AB5"/>
<path d="M101.756 279.104L104.916 278.978L104.566 270.238L101.406 270.364L101.756 279.104Z" fill="#E57AB5"/>
<path d="M60.5871 295.477L64.1743 295.336L63.8312 286.603L60.244 286.744L60.5871 295.477Z" fill="#E57AB5"/>
<path d="M55.6957 295.665L59.283 295.525L58.9398 286.791L55.3526 286.932L55.6957 295.665Z" fill="#E57AB5"/>
<path d="M69.6173 295.125L72.7749 295.001L72.4318 286.267L69.2742 286.391L69.6173 295.125Z" fill="#E57AB5"/>
<path d="M65.3174 295.296L68.475 295.172L68.1318 286.438L64.9743 286.562L65.3174 295.296Z" fill="#E57AB5"/>
<path d="M77.5812 294.927L80.7412 294.8L80.3916 286.06L77.2316 286.187L77.5812 294.927Z" fill="#E57AB5"/>
<path d="M73.867 294.951L77.0245 294.827L76.6814 286.094L73.5238 286.218L73.867 294.951Z" fill="#E57AB5"/>
<path d="M87.2881 294.428L90.4457 294.304L90.1025 285.571L86.945 285.695L87.2881 294.428Z" fill="#E57AB5"/>
<path d="M82.9882 294.599L86.1458 294.475L85.8026 285.742L82.6451 285.866L82.9882 294.599Z" fill="#E57AB5"/>
<path d="M20.3302 297.058L99.3192 293.954L98.9761 285.221L19.987 288.324L20.3302 297.058Z" fill="#E57AB5"/>
<path d="M91.8587 294.247L95.0162 294.123L94.6731 285.389L91.5155 285.513L91.8587 294.247Z" fill="#E57AB5"/>
<path d="M105.28 293.724L108.437 293.599L108.094 284.866L104.937 284.99L105.28 293.724Z" fill="#E57AB5"/>
<path d="M100.357 294.059L103.517 293.933L103.168 285.193L100.008 285.319L100.357 294.059Z" fill="#E57AB5"/>
<path d="M61.309 311.488L64.8962 311.347L64.5531 302.614L60.9659 302.755L61.309 311.488Z" fill="#E57AB5"/>
<path d="M56.4278 311.676L60.015 311.536L59.6719 302.802L56.0847 302.943L56.4278 311.676Z" fill="#E57AB5"/>
<path d="M70.3394 311.136L73.4969 311.012L73.1538 302.278L69.9963 302.402L70.3394 311.136Z" fill="#E57AB5"/>
<path d="M66.0395 311.297L69.197 311.172L68.8539 302.439L65.6963 302.563L66.0395 311.297Z" fill="#E57AB5"/>
<path d="M78.899 310.791L82.0565 310.667L81.7134 301.934L78.5558 302.058L78.899 310.791Z" fill="#E57AB5"/>
<path d="M74.589 310.962L77.7466 310.838L77.4035 302.105L74.2459 302.229L74.589 310.962Z" fill="#E57AB5"/>
<path d="M88.0202 310.439L91.1777 310.315L90.8346 301.582L87.677 301.706L88.0202 310.439Z" fill="#E57AB5"/>
<path d="M83.7201 310.6L86.8777 310.476L86.5346 301.743L83.377 301.867L83.7201 310.6Z" fill="#E57AB5"/>
<path d="M21.0622 313.069L100.051 309.965L99.7081 301.232L20.7191 304.335L21.0622 313.069Z" fill="#E57AB5"/>
<path d="M92.5908 310.258L95.7483 310.134L95.4052 301.4L92.2476 301.524L92.5908 310.258Z" fill="#E57AB5"/>
<path d="M106.012 309.735L109.169 309.611L108.826 300.877L105.669 301.001L106.012 309.735Z" fill="#E57AB5"/>
<path d="M101.077 310.058L104.237 309.932L103.887 301.192L100.727 301.318L101.077 310.058Z" fill="#E57AB5"/>
<path d="M61.9691 325.504L65.5564 325.363L65.2133 316.63L61.626 316.771L61.9691 325.504Z" fill="#E57AB5"/>
<path d="M57.0678 325.703L60.655 325.562L60.3119 316.829L56.7247 316.97L57.0678 325.703Z" fill="#E57AB5"/>
<path d="M70.9994 325.152L74.157 325.028L73.8139 316.294L70.6563 316.418L70.9994 325.152Z" fill="#E57AB5"/>
<path d="M66.6895 325.323L69.847 325.199L69.5039 316.466L66.3463 316.59L66.6895 325.323Z" fill="#E57AB5"/>
<path d="M79.549 324.817L82.7065 324.693L82.3634 315.96L79.2059 316.084L79.549 324.817Z" fill="#E57AB5"/>
<path d="M75.249 324.978L78.4066 324.854L78.0635 316.121L74.9059 316.245L75.249 324.978Z" fill="#E57AB5"/>
<path d="M88.6702 324.455L91.8278 324.331L91.4846 315.598L88.3271 315.722L88.6702 324.455Z" fill="#E57AB5"/>
<path d="M84.3603 324.627L87.5178 324.502L87.1747 315.769L84.0171 315.893L84.3603 324.627Z" fill="#E57AB5"/>
<path d="M21.7022 327.085L100.691 323.982L100.348 315.248L21.3591 318.352L21.7022 327.085Z" fill="#E57AB5"/>
<path d="M93.2308 324.284L96.3883 324.16L96.0452 315.427L92.8876 315.551L93.2308 324.284Z" fill="#E57AB5"/>
<path d="M106.652 323.761L109.809 323.637L109.466 314.904L106.309 315.028L106.652 323.761Z" fill="#E57AB5"/>
<path d="M101.726 324.064L104.886 323.938L104.536 315.198L101.376 315.324L101.726 324.064Z" fill="#E57AB5"/>
<path d="M60.5804 340.472L64.1676 340.331L63.8245 331.598L60.2372 331.739L60.5804 340.472Z" fill="#E57AB5"/>
<path d="M55.6991 340.67L59.2864 340.529L58.9432 331.796L55.356 331.937L55.6991 340.67Z" fill="#E57AB5"/>
<path d="M69.6107 340.129L72.7683 340.005L72.4252 331.272L69.2676 331.396L69.6107 340.129Z" fill="#E57AB5"/>
<path d="M65.3107 340.29L68.4683 340.166L68.1251 331.433L64.9676 331.557L65.3107 340.29Z" fill="#E57AB5"/>
<path d="M77.5412 339.897L80.7012 339.77L80.3516 331.03L77.1916 331.157L77.5412 339.897Z" fill="#E57AB5"/>
<path d="M73.8603 339.956L77.0178 339.832L76.6747 331.099L73.5171 331.223L73.8603 339.956Z" fill="#E57AB5"/>
<path d="M87.2914 339.433L90.449 339.309L90.1058 330.576L86.9483 330.7L87.2914 339.433Z" fill="#E57AB5"/>
<path d="M82.9915 339.594L86.149 339.47L85.8059 330.736L82.6484 330.861L82.9915 339.594Z" fill="#E57AB5"/>
<path d="M20.3335 342.052L99.3225 338.949L98.9794 330.216L19.9903 333.319L20.3335 342.052Z" fill="#E57AB5"/>
<path d="M91.852 339.252L95.0095 339.127L94.6664 330.394L91.5088 330.518L91.852 339.252Z" fill="#E57AB5"/>
<path d="M105.283 338.728L108.441 338.604L108.098 329.871L104.94 329.995L105.283 338.728Z" fill="#E57AB5"/>
<path d="M100.327 339.029L103.487 338.903L103.138 330.163L99.9776 330.289L100.327 339.029Z" fill="#E57AB5"/>
<path d="M61.309 311.488L64.8962 311.347L64.5531 302.614L60.9659 302.755L61.309 311.488Z" fill="#E57AB5"/>
<path d="M56.4278 311.676L60.015 311.536L59.6719 302.802L56.0847 302.943L56.4278 311.676Z" fill="#E57AB5"/>
<path d="M70.3394 311.136L73.4969 311.012L73.1538 302.278L69.9963 302.402L70.3394 311.136Z" fill="#E57AB5"/>
<path d="M66.0395 311.297L69.197 311.172L68.8539 302.439L65.6963 302.563L66.0395 311.297Z" fill="#E57AB5"/>
<path d="M78.899 310.791L82.0565 310.667L81.7134 301.934L78.5558 302.058L78.899 310.791Z" fill="#E57AB5"/>
<path d="M74.589 310.962L77.7466 310.838L77.4035 302.105L74.2459 302.229L74.589 310.962Z" fill="#E57AB5"/>
<path d="M88.0202 310.439L91.1777 310.315L90.8346 301.582L87.677 301.706L88.0202 310.439Z" fill="#E57AB5"/>
<path d="M83.7201 310.6L86.8777 310.476L86.5346 301.743L83.377 301.867L83.7201 310.6Z" fill="#E57AB5"/>
<path d="M21.0622 313.069L100.051 309.965L99.7081 301.232L20.7191 304.335L21.0622 313.069Z" fill="#E57AB5"/>
<path d="M92.5908 310.258L95.7483 310.134L95.4052 301.4L92.2476 301.524L92.5908 310.258Z" fill="#E57AB5"/>
<path d="M106.012 309.735L109.169 309.611L108.826 300.877L105.669 301.001L106.012 309.735Z" fill="#E57AB5"/>
<path d="M101.077 310.058L104.237 309.932L103.887 301.192L100.727 301.318L101.077 310.058Z" fill="#E57AB5"/>
<path d="M61.9691 325.504L65.5564 325.363L65.2133 316.63L61.626 316.771L61.9691 325.504Z" fill="#E57AB5"/>
<path d="M57.0678 325.703L60.655 325.562L60.3119 316.829L56.7247 316.97L57.0678 325.703Z" fill="#E57AB5"/>
<path d="M70.9994 325.152L74.157 325.028L73.8139 316.294L70.6563 316.418L70.9994 325.152Z" fill="#E57AB5"/>
<path d="M66.6895 325.323L69.847 325.199L69.5039 316.466L66.3463 316.59L66.6895 325.323Z" fill="#E57AB5"/>
<path d="M79.549 324.817L82.7065 324.693L82.3634 315.96L79.2059 316.084L79.549 324.817Z" fill="#E57AB5"/>
<path d="M75.249 324.978L78.4066 324.854L78.0635 316.121L74.9059 316.245L75.249 324.978Z" fill="#E57AB5"/>
<path d="M88.6702 324.455L91.8278 324.331L91.4846 315.598L88.3271 315.722L88.6702 324.455Z" fill="#E57AB5"/>
<path d="M84.3603 324.627L87.5178 324.502L87.1747 315.769L84.0171 315.893L84.3603 324.627Z" fill="#E57AB5"/>
<path d="M21.7022 327.085L100.691 323.982L100.348 315.248L21.3591 318.352L21.7022 327.085Z" fill="#E57AB5"/>
<path d="M93.2308 324.284L96.3883 324.16L96.0452 315.427L92.8876 315.551L93.2308 324.284Z" fill="#E57AB5"/>
<path d="M106.652 323.761L109.809 323.637L109.466 314.904L106.309 315.028L106.652 323.761Z" fill="#E57AB5"/>
<path d="M101.726 324.064L104.886 323.938L104.536 315.198L101.376 315.324L101.726 324.064Z" fill="#E57AB5"/>
<path d="M60.5804 340.472L64.1676 340.331L63.8245 331.598L60.2372 331.739L60.5804 340.472Z" fill="#E57AB5"/>
<path d="M55.6991 340.67L59.2864 340.529L58.9432 331.796L55.356 331.937L55.6991 340.67Z" fill="#E57AB5"/>
<path d="M69.6107 340.129L72.7683 340.005L72.4252 331.272L69.2676 331.396L69.6107 340.129Z" fill="#E57AB5"/>
<path d="M65.3107 340.29L68.4683 340.166L68.1251 331.433L64.9676 331.557L65.3107 340.29Z" fill="#E57AB5"/>
<path d="M77.5412 339.897L80.7012 339.77L80.3516 331.03L77.1916 331.157L77.5412 339.897Z" fill="#E57AB5"/>
<path d="M73.8603 339.956L77.0178 339.832L76.6747 331.099L73.5171 331.223L73.8603 339.956Z" fill="#E57AB5"/>
<path d="M87.2914 339.433L90.449 339.309L90.1058 330.576L86.9483 330.7L87.2914 339.433Z" fill="#E57AB5"/>
<path d="M82.9915 339.594L86.149 339.47L85.8059 330.736L82.6484 330.861L82.9915 339.594Z" fill="#E57AB5"/>
<path d="M20.3335 342.052L99.3225 338.949L98.9794 330.216L19.9903 333.319L20.3335 342.052Z" fill="#E57AB5"/>
<path d="M91.852 339.252L95.0095 339.127L94.6664 330.394L91.5088 330.518L91.852 339.252Z" fill="#E57AB5"/>
<path d="M105.283 338.728L108.441 338.604L108.098 329.871L104.94 329.995L105.283 338.728Z" fill="#E57AB5"/>
<path d="M100.327 339.029L103.487 338.903L103.138 330.163L99.9776 330.289L100.327 339.029Z" fill="#E57AB5"/>
<path d="M212.35 459.91L129 464.02V418.83L212.35 416.09V459.91Z" fill="#D376BC"/>
<path d="M355.76 468.13L212.48 459.91V416.09L355.76 428.61V468.13Z" fill="#A374DA"/>
<path d="M217.83 600H129.36L127.04 462.83L215.4 460.09L217.83 600Z" fill="#E377B1"/>
<path d="M374.93 600H217.83L215.51 460.09L374.93 468.13V600Z" fill="#9074E6"/>
</svg>
