<svg width="24" height="24" viewBox="0 0 24 24" fill="none" xmlns="http://www.w3.org/2000/svg">
<path d="M3.276 8.42C3.192 8.42 3.144 8.468 3.144 8.552V9.224C3.144 9.308 3.192 9.356 3.276 9.356H5.844V16.868C5.844 16.952 5.904 17 5.988 17H6.732C6.816 17 6.876 16.952 6.876 16.868V9.356H9.444C9.528 9.356 9.588 9.308 9.588 9.224V8.552C9.588 8.468 9.528 8.42 9.444 8.42H3.276ZM11.6826 17C11.7666 17 11.8146 16.952 11.8146 16.868V13.244C11.8146 12.236 11.7786 11.012 11.7546 9.992L11.7786 9.98C12.0906 10.628 12.4626 11.336 12.8706 12.092L14.3706 14.876C14.3946 14.936 14.4546 14.972 14.5266 14.972H15.1626C15.2346 14.972 15.2946 14.936 15.3306 14.876L16.8306 12.092C17.2266 11.336 17.5986 10.628 17.9226 9.98L17.9466 9.992C17.9106 11.012 17.8746 12.236 17.8746 13.244V16.868C17.8746 16.952 17.9226 17 18.0066 17H18.7626C18.8466 17 18.8946 16.952 18.8946 16.868V8.552C18.8946 8.468 18.8466 8.42 18.7626 8.42H17.8506C17.7786 8.42 17.7186 8.444 17.6946 8.516L15.8226 11.912C15.5226 12.452 15.0786 13.34 14.8626 13.796H14.8266C14.6106 13.34 14.1666 12.452 13.8666 11.9L12.0066 8.516C11.9706 8.444 11.9106 8.42 11.8506 8.42H10.9386C10.8426 8.42 10.7946 8.468 10.7946 8.552V16.868C10.7946 16.952 10.8426 17 10.9386 17H11.6826Z" fill="white"/>
<rect x="0.5" y="0.5" width="23" height="23" rx="11.5" stroke="white"/>
</svg>
